<svg width="944" height="945" viewBox="0 0 944 945" fill="none" xmlns="http://www.w3.org/2000/svg">
<path d="M230.063 237.44C328.505 138.466 300.318 76.435 367.683 30.6069C471.328 -39.9087 664.776 20.758 778.896 117.748C918.672 236.539 990.792 453.43 908.636 649.654C821.151 858.623 590.959 967.102 385.552 934.409C202.125 905.211 21.8076 760.8 3.74508 587.591C1.78674 568.815 -6.85909 467.331 53.7711 379.836C103.886 307.518 152.021 315.899 230.063 237.44Z" fill="#D1D1D1"/>
<path d="M310.782 197.367H225.354C217.86 197.367 212.354 202.706 212.354 210.201V239.805C212.354 247.3 217.86 253.003 225.354 253.003C225.422 253.003 227.115 253.003 229.381 253.003V278.935L247.552 253.003C272.865 253.003 310.782 253.003 310.782 253.003C318.276 253.003 324.745 247.3 324.745 239.805V210.201C324.745 202.706 318.276 197.367 310.782 197.367Z" fill="white"/>
<path d="M225.354 199.07C218.703 199.07 214.058 203.649 214.058 210.201V239.8C214.058 246.461 218.808 251.3 225.354 251.3H229.386C230.323 251.3 231.089 252.06 231.089 253.003V273.534L246.157 252.029C246.479 251.565 247 251.3 247.552 251.3H310.782C317.542 251.3 323.042 246.138 323.042 239.8V210.201C323.042 203.956 317.657 199.07 310.782 199.07H225.354ZM229.386 280.633C229.214 280.633 229.042 280.612 228.87 280.555C228.162 280.336 227.683 279.675 227.683 278.935V254.701H225.354C216.969 254.701 210.651 248.294 210.651 239.8V210.201C210.651 201.779 216.839 195.659 225.354 195.659H310.782C319.568 195.659 326.448 202.05 326.448 210.201V239.8C326.448 248.018 319.417 254.701 310.782 254.701H248.443L230.776 279.914C230.453 280.378 229.927 280.633 229.386 280.633Z" fill="black"/>
<path d="M246.875 226.258C246.875 231.018 243.021 234.867 238.261 234.867C233.506 234.867 229.651 231.018 229.651 226.258C229.651 221.503 233.506 217.643 238.261 217.643C243.021 217.643 246.875 221.503 246.875 226.258Z" fill="#828282"/>
<path d="M276.625 226.258C276.625 231.018 272.766 234.867 268.011 234.867C263.256 234.867 259.401 231.018 259.401 226.258C259.401 221.503 263.256 217.643 268.011 217.643C272.766 217.643 276.625 221.503 276.625 226.258Z" fill="#828282"/>
<path d="M306.37 226.258C306.37 231.018 302.516 234.867 297.761 234.867C293.006 234.867 289.151 231.018 289.151 226.258C289.151 221.503 293.006 217.643 297.761 217.643C302.516 217.643 306.37 221.503 306.37 226.258Z" fill="#828282"/>
<path d="M582.594 849.143C582.594 893.504 543.893 929.711 495.844 929.711C447.794 929.711 409.094 893.504 409.094 849.143C409.094 804.783 447.794 768.576 495.844 768.576C543.893 768.576 582.594 804.783 582.594 849.143Z" fill="white" stroke="black" stroke-width="4"/>
<path d="M326.407 745.502L326.407 745.501C313.707 730.618 315.477 708.25 330.361 695.545C381.334 652.042 439.251 629.117 497.844 629.117C556.431 629.117 614.348 652.042 665.321 695.545C680.205 708.25 681.975 730.618 669.275 745.501L669.275 745.502C656.571 760.395 634.208 762.16 619.324 749.455L618.026 750.977L619.324 749.455C580.955 716.706 540.073 699.992 497.844 699.992C455.61 699.992 414.727 716.706 376.358 749.455L376.358 749.455C369.687 755.15 361.511 757.935 353.374 757.94C343.362 757.94 333.417 753.719 326.407 745.502Z" fill="white" stroke="black" stroke-width="4"/>
<path d="M289.527 614.605L289.527 614.605C274.579 627.236 252.226 625.353 239.601 610.405C226.975 595.452 228.858 573.094 243.806 560.463C321.412 494.903 409.259 460.331 497.844 460.331C586.423 460.331 674.27 494.903 751.871 560.463C766.819 573.094 768.702 595.452 756.076 610.405C749.071 618.697 739.066 622.971 728.989 622.971C720.918 622.971 712.802 620.226 706.15 614.605L704.859 616.133L706.15 614.605C640.717 559.321 570.622 531.201 497.844 531.201C425.06 531.201 354.96 559.321 289.527 614.605Z" fill="white" stroke="black" stroke-width="4"/>
<path d="M153.121 475.668L153.12 475.667C140.361 460.833 142.047 438.455 156.882 425.696L156.882 425.696C208.05 381.68 262.39 347.726 318.384 324.738C376.731 300.792 437.109 288.654 497.838 288.654C558.583 288.654 618.956 300.792 677.303 324.738C733.297 347.726 787.637 381.68 838.805 425.696L840.109 424.18L838.805 425.696C853.639 438.455 855.325 460.833 842.572 475.667C835.561 483.817 825.66 488.003 815.687 488.003C807.513 488.003 799.298 485.184 792.606 479.429C700.183 399.943 601.006 359.529 497.838 359.529C394.68 359.529 295.504 399.943 203.081 479.429L204.385 480.945L203.081 479.429C188.246 492.188 165.874 490.507 153.121 475.668Z" fill="white" stroke="black" stroke-width="4"/>
<path d="M581.188 837.951C581.188 882.414 545.155 918.456 500.708 918.456C456.256 918.456 420.219 882.414 420.219 837.951C420.219 793.493 456.256 757.456 500.708 757.456C545.156 757.456 581.188 793.492 581.188 837.951Z" fill="#4880FF" stroke="black" stroke-width="4"/>
<path d="M330.361 671.211L330.361 671.211C381.334 627.698 439.25 604.784 497.844 604.784C556.432 604.784 614.348 627.698 665.321 671.211L666.62 669.69L665.321 671.211C680.205 683.916 681.975 706.279 669.275 721.168C656.57 736.057 634.208 737.827 619.324 725.122L618.026 726.643L619.324 725.122C580.956 692.373 540.073 675.649 497.844 675.649C455.609 675.649 414.727 692.373 376.358 725.122C369.686 730.812 361.51 733.602 353.375 733.602C343.362 733.602 333.417 729.386 326.407 721.168C313.707 706.279 315.477 683.916 330.361 671.211Z" fill="#4880FF" stroke="black" stroke-width="4"/>
<path d="M706.151 590.268L706.15 590.267C640.717 534.994 570.622 506.862 497.844 506.862C425.059 506.862 354.96 534.994 289.527 590.267C274.579 602.893 252.226 601.014 239.601 586.066C226.975 571.113 228.858 548.755 243.806 536.13L243.806 536.13C321.412 470.565 409.259 435.992 497.844 435.992C586.423 435.992 674.27 470.565 751.87 536.13L753.161 534.602L751.871 536.13C766.818 548.755 768.702 571.113 756.076 586.067C749.071 594.363 739.066 598.638 728.989 598.638C720.918 598.638 712.802 595.893 706.151 590.268Z" fill="#4880FF" stroke="black" stroke-width="4"/>
<path d="M792.606 455.091L792.606 455.091C700.183 375.605 601.006 335.196 497.838 335.196C394.681 335.196 295.504 375.605 203.081 455.091L203.081 455.091C188.246 467.855 165.874 466.169 153.121 451.329L153.12 451.329C140.362 436.495 142.047 414.122 156.882 401.357C208.051 357.351 262.39 323.388 318.384 300.41L318.384 300.41C376.731 276.453 437.108 264.321 497.838 264.321C558.583 264.321 618.956 276.453 677.302 300.41L678.062 298.56L677.303 300.41C733.297 323.388 787.636 357.351 838.805 401.357C853.64 414.122 855.325 436.495 842.572 451.329C835.561 459.483 825.66 463.664 815.687 463.664C807.512 463.664 799.297 460.85 792.606 455.091Z" fill="#4880FF" stroke="black" stroke-width="4"/>
<path d="M719.782 396.367C715.604 382.57 716.313 373.862 720.104 364.8L726.485 352.096L707.287 344.393L701.407 358.857C699.511 363.513 696.771 367.774 693.323 371.435L690.151 374.794L719.782 396.367Z" fill="white"/>
<path d="M692.714 374.56L716.86 392.122C714.219 381.305 714.766 373.143 718.537 364.143C718.547 364.102 718.568 364.07 718.589 364.029L724.131 352.987L708.235 346.602L702.985 359.492C701.006 364.367 698.178 368.774 694.568 372.602L692.714 374.56ZM719.782 398.065C719.433 398.065 719.079 397.961 718.787 397.737L689.152 376.175C688.756 375.883 688.501 375.44 688.459 374.951C688.412 374.466 688.579 373.987 688.912 373.628L692.089 370.263C695.407 366.747 698.011 362.69 699.834 358.211L705.719 343.758C706.068 342.883 707.058 342.466 707.928 342.81L727.12 350.513C727.563 350.69 727.912 351.05 728.084 351.492C728.245 351.94 728.219 352.435 728.011 352.857L721.657 365.503C718.37 373.378 717.079 381.57 721.412 395.867C721.631 396.57 721.365 397.326 720.771 397.747C720.475 397.961 720.126 398.065 719.782 398.065Z" fill="black"/>
<path d="M698.834 367.753C698.354 366.248 696.386 365.883 695.307 367.029C692.271 370.258 686.959 375.67 682.917 378.451C679.162 381.055 677.985 386.071 680.12 390.086C686.136 401.44 701.38 426.076 717.448 444.883C718.542 446.164 721.276 447.888 725.214 446.117C738.422 440.175 725.865 413.321 718.698 385.357C718.417 384.258 717.531 383.414 716.417 383.211L712.422 382.477C705.052 381.003 701.964 377.539 698.834 367.753Z" fill="white"/>
<path d="M696.87 368.055C696.782 368.055 696.657 368.081 696.552 368.195C692.985 371.987 687.891 377.086 683.891 379.852C680.86 381.951 679.881 386.003 681.62 389.284C687.834 400.992 702.849 425.164 718.745 443.774C719.094 444.18 721.011 446.138 724.516 444.56C733.355 440.591 728.292 423.883 722.438 404.544C720.594 398.461 718.693 392.18 717.052 385.774C716.938 385.32 716.563 384.966 716.11 384.883L712.115 384.154C704.157 382.565 700.547 378.701 697.209 368.263C697.193 368.227 697.162 368.107 696.974 368.07C696.954 368.065 696.917 368.055 696.87 368.055ZM721.959 448.565C719.381 448.565 717.334 447.362 716.157 445.982C700.084 427.175 684.896 402.721 678.615 390.883C676.068 386.076 677.506 380.128 681.959 377.05C685.912 374.315 691.245 368.862 694.068 365.862C694.995 364.867 696.396 364.451 697.73 364.747C699.032 365.039 700.047 365.966 700.448 367.227C703.433 376.55 706.079 379.471 712.766 380.8L716.73 381.529C718.49 381.862 719.907 383.19 720.349 384.93C721.974 391.258 723.87 397.508 725.698 403.555C732.026 424.435 737.485 442.471 725.917 447.669C724.5 448.305 723.167 448.565 721.959 448.565Z" fill="black"/>
<path d="M683.833 377.831C683.833 377.831 683.224 378.247 682.927 378.445C679.161 381.05 677.989 386.065 680.125 390.081C686.146 401.43 701.39 426.07 717.453 444.872C718.552 446.164 721.286 447.878 725.224 446.112C726.432 445.57 728.245 444.091 728.245 444.091L727.167 442.711C711.781 423.112 697.849 402.414 685.5 380.763L683.833 377.831Z" fill="white"/>
<path d="M683.286 380.32C680.74 382.513 680.01 386.237 681.625 389.289C687.833 400.998 702.844 425.164 718.745 443.774C719.094 444.18 721.01 446.138 724.516 444.56C724.88 444.393 725.359 444.091 725.828 443.774L725.823 443.768C710.437 424.169 696.37 403.258 684.021 381.612L683.286 380.32ZM721.958 448.565C719.375 448.565 717.328 447.367 716.156 445.982C700.078 427.175 684.896 402.722 678.615 390.883C676.062 386.076 677.5 380.128 681.958 377.055L682.87 376.425C683.26 376.159 683.755 376.07 684.208 376.175C684.672 376.284 685.073 376.581 685.307 376.992L686.974 379.925C699.24 401.425 713.214 422.201 728.5 441.664L729.583 443.039C730.151 443.774 730.036 444.826 729.312 445.419C729.109 445.581 727.281 447.055 725.917 447.669C724.5 448.305 723.167 448.565 721.958 448.565Z" fill="black"/>
<path d="M724.177 407.966C724.078 407.966 723.984 407.961 723.891 407.946L710.656 405.727C709.724 405.571 709.104 404.69 709.26 403.758C709.411 402.836 710.292 402.211 711.219 402.367L724.453 404.581C725.385 404.737 726.005 405.617 725.849 406.539C725.714 407.378 724.99 407.966 724.177 407.966Z" fill="black"/>
<path d="M726.323 415.508C726.24 415.508 726.151 415.492 726.068 415.487L715.255 413.883C714.323 413.748 713.682 412.878 713.818 411.946C713.958 411.018 714.828 410.383 715.755 410.513L726.563 412.117C727.5 412.253 728.141 413.123 728 414.055C727.875 414.899 727.151 415.508 726.323 415.508Z" fill="black"/>
<path d="M611.631 196.123C611.631 196.123 744.85 166.899 785.449 190.029C791.568 193.513 797.37 200.82 798.652 207.742C802.548 228.826 790.818 274.763 726.631 361.123C725.719 362.341 724.115 362.815 722.693 362.274L702.329 354.55C700.678 353.93 699.782 352.138 700.266 350.44L727.449 255.268C728.152 252.794 726.11 250.399 723.553 250.711L596.6 266.315L611.631 196.123Z" fill="black"/>
<path d="M650.975 447.039L653.584 459.445C657.074 477.503 643.881 486.742 643.881 486.742L682.891 491.492C682.891 491.492 674.37 486.315 676.105 461.227L678.334 440.242L650.975 447.039Z" fill="white"/>
<path d="M647.823 485.503L678.771 489.274C676.24 485.143 673.318 476.846 674.412 461.112L676.391 442.482L652.974 448.294L655.25 459.091C657.86 472.617 651.745 481.425 647.823 485.503ZM682.886 493.195C682.818 493.195 682.755 493.19 682.682 493.18L643.677 488.43C642.974 488.352 642.396 487.841 642.229 487.154C642.057 486.466 642.323 485.753 642.901 485.346C643.401 484.992 655.141 476.471 651.906 459.768L649.302 447.388C649.115 446.492 649.672 445.607 650.563 445.383L677.927 438.586C678.469 438.456 679.037 438.591 679.453 438.961C679.875 439.326 680.089 439.867 680.031 440.425L677.797 461.409C676.188 484.737 683.724 490.003 683.807 490.055C684.464 490.487 684.745 491.326 684.479 492.07C684.224 492.748 683.589 493.195 682.886 493.195Z" fill="black"/>
<path d="M650.162 470.05C646.943 473.748 641.12 480.706 636.646 487.43C633.839 491.659 635.516 496.524 638.527 500.565C644.667 508.826 653.099 515.18 663.001 521.716C671.652 527.425 681.329 533.451 692.954 538.774C696.12 540.216 703.24 542.195 708.006 539.815C722.386 532.649 698.407 510.175 679.547 484.284C678.808 483.268 677.547 482.774 676.318 483.018L671.902 483.899C667.48 484.774 662.98 482.919 660.48 479.175L654.542 470.3C653.532 468.794 651.36 468.669 650.162 470.05Z" fill="white"/>
<path d="M651.453 471.159C648.365 474.716 642.516 481.685 638.063 488.373C635.537 492.175 637.662 496.555 639.896 499.555C645.802 507.498 653.781 513.586 663.943 520.294C672.057 525.654 681.938 531.852 693.672 537.222C696.969 538.727 703.307 540.263 707.255 538.294C709.13 537.357 710.214 536.133 710.563 534.555C711.974 528.143 702.057 515.722 691.568 502.581C687.13 497.034 682.547 491.294 678.167 485.284C677.823 484.805 677.219 484.571 676.651 484.68L672.235 485.56C667.125 486.581 661.959 484.446 659.063 480.123L653.125 471.248C652.88 470.878 652.521 470.805 652.328 470.789C652.141 470.779 651.761 470.805 651.453 471.159ZM702.651 542.617C698.563 542.617 694.459 541.326 692.255 540.321C680.307 534.857 670.292 528.56 662.063 523.138C653.016 517.159 643.735 510.414 637.167 501.586C633.089 496.102 632.396 490.737 635.235 486.487C639.781 479.638 645.74 472.544 648.886 468.93C649.802 467.862 651.141 467.3 652.542 467.388C653.938 467.482 655.182 468.196 655.959 469.352L661.896 478.227C664.021 481.404 667.818 482.966 671.573 482.222L675.985 481.341C677.86 480.972 679.797 481.727 680.922 483.274C685.255 489.227 689.813 494.935 694.224 500.451C706.198 515.446 715.651 527.294 713.886 535.284C713.307 537.899 711.584 539.935 708.771 541.341C706.917 542.263 704.787 542.617 702.651 542.617Z" fill="black"/>
<path d="M638.958 484.305C638.958 484.305 636.854 487.102 636.64 487.43C635.943 488.487 635.526 489.727 635.297 490.987C634.562 495.05 635.974 499.216 638.828 502.201C639.51 502.925 640.448 503.852 641.541 504.888C652.859 515.664 665.588 524.846 679.302 532.336C686.25 536.138 701.693 543.951 708 539.82C709.948 538.55 711.14 534.669 711.14 534.669C711.14 534.669 707.453 536.888 696.354 531.367C677.604 522.044 664.906 511.581 649.432 499.076C646.38 496.612 644.286 494.357 642.114 491.675C640.406 489.555 639.307 487.003 638.958 484.305Z" fill="white"/>
<path d="M638.193 488.195C638.131 488.279 638.084 488.341 638.063 488.372C637.553 489.143 637.188 490.122 636.98 491.289C636.355 494.711 637.506 498.352 640.058 501.029C640.693 501.69 641.584 502.57 642.719 503.649C653.771 514.169 666.355 523.315 680.115 530.836C693.448 538.122 703.282 540.883 707.073 538.393C707.511 538.112 707.964 537.513 708.36 536.815C705.787 536.763 701.709 535.925 695.599 532.883C677.292 523.784 664.579 513.513 649.865 501.607L648.365 500.399C645.537 498.112 643.349 495.893 640.797 492.737C639.688 491.367 638.813 489.831 638.193 488.195ZM703.297 542.675C697.568 542.675 689.266 539.716 678.485 533.826C664.464 526.164 651.636 516.836 640.37 506.112C639.204 505.003 638.271 504.081 637.599 503.378C634.297 499.919 632.808 495.169 633.625 490.68C633.917 489.06 634.459 487.649 635.23 486.487C635.459 486.143 637.094 483.945 637.599 483.284C638.016 482.727 638.724 482.482 639.396 482.654C640.068 482.836 640.563 483.399 640.651 484.086C640.964 486.466 641.928 488.721 643.448 490.602C645.834 493.555 647.881 495.628 650.506 497.747L652.006 498.961C666.573 510.732 679.146 520.899 697.12 529.841C706.777 534.638 710.24 533.221 710.277 533.206C710.875 532.841 711.641 532.883 712.204 533.326C712.75 533.758 712.985 534.492 712.777 535.164C712.631 535.617 711.329 539.68 708.938 541.242C707.474 542.201 705.594 542.675 703.297 542.675Z" fill="black"/>
<path d="M676.021 504.013C675.24 504.013 674.531 503.466 674.36 502.669C674.162 501.742 674.75 500.836 675.667 500.643L690.219 497.498C691.141 497.3 692.047 497.883 692.245 498.81C692.443 499.727 691.854 500.633 690.938 500.826L676.391 503.971C676.266 503.998 676.141 504.013 676.021 504.013Z" fill="black"/>
<path d="M684.073 510.55C683.302 510.55 682.604 510.018 682.416 509.237C682.198 508.321 682.76 507.404 683.682 507.19L695.489 504.404C696.401 504.19 697.317 504.753 697.531 505.675C697.75 506.586 697.187 507.503 696.27 507.716L684.463 510.503C684.333 510.534 684.203 510.55 684.073 510.55Z" fill="black"/>
<path d="M697.823 234.211C659.016 201.013 534.11 199.971 534.11 199.971C534.11 199.971 518.511 218.576 525.954 255.997C528.417 268.336 537.136 279.414 550.928 279.414L627.558 280.06C633.162 280.107 637.626 284.784 637.407 290.399C635.98 327.451 634.714 404.039 645.308 456.232C645.735 458.346 647.329 460.029 649.412 460.596C654.303 461.919 663.896 464.07 674.292 463.93C677.537 463.888 680.251 461.445 680.678 458.232L706.094 268.43C706.855 262.711 706.876 256.893 705.922 251.206C704.902 245.128 702.652 238.341 697.823 234.211Z" fill="black"/>
<path d="M708.234 258.05C707.318 258.05 706.562 257.315 706.526 256.393C705.708 227.56 667.719 219.107 667.338 219.024C666.417 218.831 665.838 217.925 666.031 217.003C666.224 216.086 667.13 215.498 668.052 215.696C668.453 215.784 709.026 224.774 709.932 256.295C709.963 257.237 709.219 258.024 708.276 258.045C708.266 258.05 708.25 258.05 708.234 258.05Z" fill="#D1D1D1"/>
<path d="M619.344 207.466C619.344 207.466 620.656 210.138 586.01 215.143C561.026 218.747 538.349 217.159 527.63 215.987C524.141 215.602 521.786 212.242 522.641 208.836C525.453 197.591 527.51 187.149 538.323 158.607C545.833 138.789 535.026 98.2058 553.891 80.0808C585.99 49.2371 679.052 103.867 679.052 103.867L668.484 116.258C648.911 139.201 633.547 165.409 623.073 193.69L619.344 207.466Z" fill="#4880FF"/>
<path d="M756.172 122.685C755.917 118.305 754.542 113.623 756.797 110.07L761.354 104.029C764.683 98.8673 764.323 92.0653 762.245 86.4819L756.271 72.034C755.693 70.409 753.381 74.0653 752.912 75.7215L736.61 133.612C733.886 141.992 724.604 142.716 719.391 139.149L697.917 124.477L672.511 159.805C672.511 159.805 697.209 177.258 728.891 182.852C736.063 184.123 759.683 183.409 756.172 122.685Z" fill="white"/>
<path d="M754.688 72.6902C754.688 72.6954 754.693 72.711 754.704 72.7215L754.688 72.6902ZM674.912 159.378C680.589 163.081 702.501 176.477 729.178 181.18C732.094 181.701 737.787 181.857 743.084 177.138C749.386 171.534 756.474 157.555 754.464 122.789C754.407 121.794 754.292 120.794 754.172 119.737C753.745 116.117 753.303 112.388 755.349 109.164C755.376 109.128 755.402 109.086 755.428 109.05L759.948 103.065C762.573 98.935 762.834 92.9715 760.641 87.0808L755.402 74.409C755.032 75.0079 754.683 75.7006 754.542 76.1954L738.235 134.076C736.948 138.065 734.209 140.919 730.511 142.185C726.568 143.529 721.829 142.888 718.422 140.565L698.318 126.826L674.912 159.378ZM731.959 184.82C730.553 184.82 729.391 184.675 728.584 184.534C696.891 178.94 671.771 161.378 671.521 161.201C671.146 160.935 670.907 160.539 670.823 160.091C670.751 159.649 670.855 159.185 671.12 158.815L696.527 123.487C697.063 122.742 698.11 122.56 698.865 123.081L720.339 137.753C722.891 139.497 726.454 139.971 729.412 138.956C731.292 138.315 733.787 136.784 734.98 133.091L751.266 75.2631C751.464 74.5704 753.313 70.0131 755.756 69.9298C756.511 69.8829 757.454 70.2996 757.865 71.4662L763.813 85.836C766.407 92.81 766.016 99.9402 762.777 104.956C762.751 104.992 762.735 105.024 762.709 105.065L758.193 111.044C756.839 113.237 757.178 116.201 757.542 119.341C757.672 120.404 757.803 121.503 757.865 122.591C759.547 151.596 755.334 170.805 745.349 179.685C740.615 183.899 735.516 184.82 731.959 184.82Z" fill="black"/>
<path d="M705.235 120.711L704.078 119.841C697.901 115.185 691.438 110.763 684.729 106.909L667.422 97.5704L643.698 144.82L677.407 164.685L705.235 120.711Z" fill="#4880FF"/>
<path d="M741.823 110.893L727.438 110.414C725.276 110.341 723.802 108.19 724.516 106.149L739.073 64.4194C739.531 63.0965 740.802 62.2215 742.203 62.2684L756.594 62.7476C758.76 62.8153 760.234 64.9715 759.521 67.0132L744.964 108.742C744.5 110.065 743.234 110.935 741.823 110.893Z" fill="#828282"/>
<path d="M742.094 63.9715C741.458 63.9715 740.891 64.3674 740.682 64.9819L726.125 106.711C725.969 107.169 726.031 107.659 726.307 108.055C726.578 108.456 727.01 108.695 727.495 108.711L741.88 109.185C742.568 109.201 743.135 108.805 743.359 108.18L757.911 66.4507C758.078 65.9924 758.005 65.5028 757.729 65.1017C757.453 64.7059 757.021 64.4663 756.536 64.4455L742.146 63.9715C742.135 63.9715 742.115 63.9715 742.094 63.9715ZM741.938 112.591C741.88 112.591 741.823 112.591 741.771 112.591L727.375 112.112C725.807 112.065 724.391 111.289 723.495 109.987C722.604 108.685 722.391 107.081 722.911 105.591L737.464 63.8569C738.182 61.8153 740.13 60.4872 742.266 60.5653L756.651 61.0392C758.224 61.0965 759.646 61.8674 760.542 63.1799C761.432 64.4767 761.646 66.0757 761.13 67.5705L746.568 109.3C745.88 111.289 744.031 112.591 741.938 112.591Z" fill="black"/>
<path d="M641.286 137.024L656.135 150.716C657.161 151.675 658.401 152.43 659.781 152.716C662.599 153.3 665.63 152.294 667.526 149.909L696.651 106.576C698.823 103.346 702.375 101.32 706.255 101.102L724.802 99.5912C727.25 99.3933 728.714 102.346 726.995 104.107C725.208 105.945 722.557 107.748 718.776 108.44C716.443 108.862 714.646 110.659 714.292 112.998C712.771 122.977 701.333 127.404 701.333 127.404C701.333 127.404 690.198 194.19 658.573 186.076C616.63 175.326 592.594 145.961 592.594 145.961L641.286 137.024Z" fill="white"/>
<path d="M595.885 147.091C602.401 154.065 624.77 175.654 659 184.435C664.307 185.794 669.156 184.977 673.828 181.94C692.323 169.893 699.583 127.555 699.651 127.123C699.755 126.529 700.156 126.034 700.718 125.815C700.823 125.779 711.25 121.602 712.604 112.748C713.067 109.721 715.421 107.32 718.463 106.768C721.338 106.237 723.802 104.945 725.781 102.914C726.156 102.529 726.041 102.107 725.942 101.888C725.864 101.732 725.578 101.237 724.942 101.294L706.395 102.805C703.02 102.992 699.927 104.758 698.057 107.524L668.932 150.862C668.906 150.899 668.875 150.94 668.854 150.977C666.593 153.815 662.984 155.123 659.427 154.383C657.859 154.055 656.307 153.216 654.968 151.956L640.755 138.857L595.885 147.091ZM663.807 188.466C661.953 188.466 660.067 188.221 658.151 187.732C616.145 176.961 591.52 147.341 591.276 147.05C590.895 146.581 590.786 145.951 590.989 145.378C591.198 144.81 591.698 144.399 592.281 144.294L640.979 135.352C641.505 135.258 642.052 135.414 642.437 135.768L657.281 149.461C658.182 150.3 659.161 150.852 660.125 151.05C662.39 151.518 664.692 150.695 666.14 148.904L695.234 105.628C697.687 101.977 701.776 99.6538 706.156 99.409L724.661 97.8985C726.51 97.7475 728.218 98.7475 729.02 100.43C729.802 102.091 729.484 103.998 728.213 105.3C725.734 107.841 722.656 109.461 719.073 110.117C717.437 110.419 716.213 111.649 715.968 113.258C714.567 122.482 705.744 127.263 702.854 128.602C701.656 135.154 694.083 172.805 675.682 184.789C671.927 187.237 667.953 188.466 663.807 188.466Z" fill="black"/>
<path d="M641.042 132.117C640.5 132.117 639.969 131.857 639.641 131.378L632.922 121.649C632.391 120.873 632.584 119.81 633.354 119.279C634.13 118.742 635.193 118.94 635.729 119.711L642.443 129.446C642.974 130.216 642.787 131.279 642.005 131.81C641.714 132.018 641.38 132.117 641.042 132.117Z" fill="#D1D1D1"/>
<path d="M586.172 149.383C585.776 149.383 585.385 149.248 585.052 148.966C562.078 128.94 555.078 112.336 552.083 105.248L551.708 104.341C551.333 103.482 551.739 102.482 552.604 102.112C553.463 101.748 554.469 102.143 554.838 103.008L555.219 103.919C558.12 110.794 564.911 126.893 587.292 146.399C588 147.018 588.078 148.091 587.458 148.8C587.12 149.19 586.646 149.383 586.172 149.383Z" fill="#D1D1D1"/>
<path d="M588.281 75.2892L577.994 78.0496C575.536 78.7111 575.64 81.9454 578.026 82.8361C604.89 92.9246 618.229 88.9871 626.536 87.935C629 87.6277 629.552 84.31 627.302 83.2475L627.239 83.2215C624.291 81.8204 622.937 78.3829 624.151 75.3569L631.375 57.2527L615.864 26.8517L599.651 66.0444C597.354 70.6069 593.218 73.9663 588.281 75.2892Z" fill="white"/>
<path d="M588.729 76.935L578.437 79.6954C578.083 79.784 577.916 79.9715 577.901 80.2736C577.88 80.5913 578.062 81.034 578.625 81.2423C601.968 90.0079 614.734 88.0236 623.182 86.7007C624.312 86.5288 625.349 86.3673 626.328 86.2423C626.864 86.1746 626.974 85.7684 627.01 85.5965C627.041 85.3777 627.031 84.9975 626.578 84.784C622.76 82.9819 621.031 78.5757 622.567 74.7215L629.505 57.3413L616.026 30.9142L601.224 66.6955C601.208 66.7319 601.192 66.7736 601.172 66.8152C598.656 71.7996 594.119 75.4923 588.729 76.935ZM610.411 91.2944C602.38 91.2944 591.838 89.8413 577.432 84.4298C575.578 83.7423 574.411 82.0027 574.494 80.1069C574.583 78.3361 575.781 76.8777 577.552 76.409L587.849 73.6434C592.281 72.4559 596.02 69.4298 598.099 65.3361L614.291 26.2007C614.547 25.5809 615.135 25.1746 615.797 25.1486C616.463 25.1277 617.083 25.4819 617.385 26.0705L632.89 56.4767C633.119 56.9142 633.135 57.4298 632.958 57.883L625.734 75.9871C624.854 78.1694 625.838 80.6694 627.968 81.6746C629.724 82.5027 630.666 84.284 630.375 86.1277C630.073 87.9819 628.619 89.3882 626.755 89.6277C625.812 89.7423 624.802 89.8986 623.708 90.0704C620.151 90.6225 615.859 91.2944 610.411 91.2944Z" fill="black"/>
<path d="M650.282 14.133C665.605 25.4923 659.402 35.8205 659.402 35.8205C658.292 38.8361 655.704 45.8673 656.032 47.3205C656.417 49.1017 658.313 52.4351 658.167 53.409C658.032 54.383 655.985 55.8778 652.818 55.6903C652.818 55.6903 647.344 70.3205 642.74 71.633C638.131 72.9559 624.506 63.9038 624.506 63.9038L622.282 62.1434C615.11 56.508 612.12 48.2476 612.209 39.1173C612.209 39.1173 615.172 -11.8827 650.282 14.133Z" fill="white"/>
<path d="M641.771 73.4558C636.12 73.4558 625.745 66.7683 623.563 65.3204C623.531 65.2944 623.49 65.2683 623.453 65.2371L621.224 63.4871C620.172 62.6537 619.172 61.7475 618.266 60.7892C617.62 60.1069 617.651 59.0287 618.334 58.3829C619.016 57.7319 620.084 57.7579 620.74 58.4402C621.531 59.284 622.406 60.0808 623.334 60.81L625.511 62.5183C630.896 66.0913 639.625 70.7475 642.271 70.0027C644.844 69.2579 649.136 60.6694 651.214 55.1017C651.479 54.3985 652.167 53.9506 652.912 53.9923C654.813 54.1017 656.011 53.4715 656.422 53.1017C656.271 52.586 655.86 51.6381 655.573 50.9767C655.084 49.8308 654.578 48.6433 654.365 47.6902C654.094 46.4558 654.563 44.0235 657.797 35.2371C657.839 35.1329 657.88 35.0392 657.943 34.9454C658.146 34.5808 663.052 25.7215 649.266 15.5027C640.573 9.06 633.307 7.01312 627.677 9.42979C618.026 13.5652 615.042 29.6017 614.203 36.2996C614.089 37.2371 613.235 37.8985 612.307 37.7787C611.375 37.6642 610.714 36.8152 610.828 35.8777C611.735 28.5965 615.063 11.1277 626.334 6.29958C633.156 3.37771 641.557 5.55479 651.292 12.7683C666.526 24.06 661.75 34.9558 660.959 36.5131C658.193 44.0235 657.662 46.3777 657.703 47.034C657.834 47.5965 658.297 48.6798 658.703 49.6329C659.531 51.5496 659.995 52.6902 659.86 53.6537C659.599 55.4194 657.334 57.1954 653.985 57.3933C652.396 61.409 647.844 71.9454 643.203 73.2735C642.776 73.3985 642.292 73.4558 641.771 73.4558Z" fill="black"/>
<path d="M646.974 4.40381C651.162 6.82569 654.75 10.9455 657.016 11.8674C660.656 13.3674 663.417 10.0757 667.662 13.2215C671.386 15.9871 674.058 19.4663 673.485 23.6746C673.386 24.3778 673.203 25.0965 672.922 25.8361C669.073 35.784 662.11 34.9194 659.396 34.633C659.396 34.633 644.318 30.4507 641.203 30.3153C638.292 30.1903 633.422 32.8882 630.391 38.5757C630.005 39.3153 629.156 39.6851 628.349 39.5132C627.386 39.3153 626.735 38.4194 626.854 37.4507C627.198 34.3986 627.526 28.1851 624.641 27.1642C621.271 25.9715 614.938 31.5184 618.177 37.0809C619.167 38.7996 618.011 41.0601 616.042 41.2632C614.412 41.4299 612.558 40.9351 611.047 38.7371C611.047 38.7371 606.745 20.5861 614.771 8.66423C622.802 -3.26286 641.396 1.17985 646.974 4.40381Z" fill="black"/>
<path d="M658.443 56.1225C657.833 56.1225 657.245 55.7996 656.932 55.2215C656.5 54.3881 656.807 53.3569 657.651 52.9142C658.594 52.4142 659.963 50.7423 660.859 48.1433C662.109 44.5496 661.453 42.2996 661.078 42.0704C660.687 42.0079 658.812 43.3413 657.562 46.8048C657.239 47.6902 656.265 48.1486 655.38 47.8308C654.5 47.5131 654.036 46.534 654.364 45.6486C656.125 40.7475 659.427 37.8933 662.203 38.8569C665.041 39.8465 665.828 44.2111 664.073 49.2579C662.984 52.409 661.172 54.8986 659.234 55.9246C658.984 56.0652 658.713 56.1225 658.443 56.1225Z" fill="black"/>
<path d="M646.567 41.935C645.484 45.0756 646.13 47.9246 647.432 48.3829C648.015 48.5808 648.807 48.3256 649.609 47.6694C650.645 46.8256 651.552 45.4298 652.098 43.8569C652.645 42.2735 652.802 40.6225 652.505 39.3204C652.281 38.3048 651.817 37.6121 651.239 37.409C650.666 37.211 649.869 37.4715 649.062 38.1277C648.026 38.9715 647.119 40.3569 646.567 41.935ZM647.833 51.8569C647.317 51.8569 646.807 51.7683 646.317 51.5965C642.963 50.435 641.661 45.7006 643.354 40.8152C644.114 38.6329 645.375 36.7319 646.911 35.4871C648.651 34.0652 650.635 33.5913 652.354 34.1902C654.083 34.7892 655.343 36.3881 655.833 38.586C656.26 40.5079 656.078 42.7788 655.317 44.9715C654.557 47.1642 653.296 49.0548 651.765 50.2996C650.515 51.3256 649.14 51.8569 647.833 51.8569Z" fill="black"/>
<path d="M646.417 40.06C646.214 40.06 646 40.0287 645.792 39.9506L629.839 33.7058C628.969 33.3672 628.532 32.3777 628.875 31.5027C629.219 30.6225 630.209 30.1902 631.084 30.5391L647.037 36.7683C647.912 37.1172 648.344 38.1016 648 38.9766C647.745 39.6485 647.099 40.06 646.417 40.06Z" fill="black"/>
<path d="M97.8648 452.159C91.2971 452.57 54.7294 454.883 27.4794 428.19C-3.22892 398.112 -7.18726 345.841 13.2502 319.586C25.7815 303.492 35.7607 312.242 76.9013 288.883C113.104 268.326 122.724 251.69 141.302 255.18C155.74 257.888 164.281 270.633 173.5 284.388C181.38 296.149 202.563 327.758 195.214 367.529C186.651 413.888 143.375 449.284 97.8648 452.159Z" fill="black"/>
<path d="M136.521 255.284C127.245 255.284 119.583 260.815 107.958 269.201C100.141 274.841 90.4116 281.857 77.1824 289.373C57.1043 300.774 44.4793 304.534 35.2553 307.274C25.7553 310.102 20.0209 311.815 13.698 319.935C3.77614 332.68 -0.578024 351.794 1.7501 372.393C4.19281 394.003 13.4689 413.675 27.8751 427.784C51.4324 450.857 81.823 452.607 97.8334 451.586C144.714 448.622 186.344 412.44 194.656 367.419C201.964 327.878 180.943 296.508 173.031 284.701C163.964 271.175 155.406 258.399 141.198 255.732C139.578 255.43 138.031 255.284 136.521 255.284ZM91.0053 452.94C73.9324 452.94 47.8959 448.977 27.0834 428.596C12.4897 414.305 3.09385 394.388 0.619893 372.518C-1.73948 351.633 2.70323 332.216 12.8022 319.237C19.3491 310.831 25.2136 309.081 34.9324 306.19C44.1043 303.456 56.6564 299.716 76.6199 288.383C89.797 280.904 99.4949 273.904 107.292 268.279C121.057 258.352 129.359 252.357 141.406 254.617C156.083 257.373 164.771 270.336 173.974 284.07C181.953 295.982 203.162 327.628 195.776 367.628C187.365 413.143 145.292 449.727 97.9011 452.716C95.8282 452.852 93.5105 452.94 91.0053 452.94Z" fill="black"/>
<path d="M50.9477 502.539C50.9477 502.539 44.4789 524.742 141.083 530.149C237.687 535.55 221.526 508.102 221.526 508.102L120.104 478.55L50.9477 502.539Z" fill="black"/>
<path d="M147.548 850.633L146.324 896.227L130.225 897.972L122.256 848.899L147.548 850.633Z" fill="white"/>
<path d="M124.281 850.748L131.646 896.102L144.661 894.69L145.802 852.222L124.281 850.748ZM130.219 899.669C129.396 899.669 128.677 899.071 128.542 898.242L120.578 849.175C120.489 848.664 120.646 848.138 121 847.753C121.349 847.367 121.854 847.169 122.375 847.201L147.667 848.935C148.578 848.998 149.276 849.768 149.25 850.68L148.026 896.274C148.005 897.123 147.354 897.831 146.505 897.925L130.406 899.659C130.344 899.669 130.281 899.669 130.219 899.669Z" fill="black"/>
<path d="M238.911 865.602L241.479 901.92L220.203 903.659L212.609 865.602H238.911Z" fill="white"/>
<path d="M214.688 867.305L221.578 901.836L239.662 900.362L237.323 867.305H214.688ZM220.203 905.362C219.396 905.362 218.693 904.795 218.531 903.992L210.938 865.935C210.839 865.435 210.969 864.92 211.292 864.518C211.615 864.123 212.099 863.899 212.61 863.899H238.912C239.807 863.899 240.547 864.586 240.61 865.482L243.182 901.8C243.245 902.727 242.552 903.539 241.62 903.617L220.344 905.357C220.297 905.362 220.25 905.362 220.203 905.362Z" fill="black"/>
<path d="M214.516 919.3C213.042 918.321 212.146 916.664 212.099 914.893C211.958 909.565 211.943 898.211 214.089 893.951C216.943 888.289 228.703 896.175 228.703 896.175C228.703 896.175 235.589 886.633 239.62 884.628C241.708 883.591 253.917 891.722 266.224 902.8C279.714 914.946 285.802 918.821 288.708 929.289C290.073 934.201 286.464 939.143 281.38 939.508C268.995 940.393 243.99 938.914 214.516 919.3Z" fill="#4880FF"/>
<path d="M215.458 917.883C244.547 937.237 269.166 938.669 281.26 937.805C283.213 937.669 284.984 936.664 286.125 935.05C287.224 933.482 287.573 931.55 287.067 929.742C284.755 921.414 280.432 917.612 270.953 909.268C269.166 907.701 267.218 905.987 265.083 904.065C252.302 892.56 242.281 886.461 240.198 886.247C237.172 887.914 231.896 894.664 230.083 897.175C229.547 897.919 228.515 898.102 227.755 897.591C224.958 895.721 219.526 893.013 216.849 893.716C216.26 893.872 215.88 894.18 215.609 894.711C214.218 897.477 213.541 905.003 213.802 914.846C213.833 916.081 214.453 917.211 215.458 917.883ZM275.932 941.404C262.224 941.404 239.578 938.024 213.573 920.721C211.646 919.435 210.458 917.274 210.396 914.935C210.234 908.742 210.302 897.68 212.567 893.185C213.276 891.779 214.458 890.831 215.989 890.425C219.958 889.388 225.63 892.32 228.276 893.899C230.39 891.096 235.369 884.841 238.864 883.102C243.974 880.56 267.13 901.32 267.364 901.534C269.489 903.445 271.427 905.154 273.198 906.711C282.896 915.247 287.765 919.524 290.349 928.831C291.125 931.628 290.604 934.612 288.906 937.013C287.177 939.466 284.479 940.992 281.5 941.206C279.859 941.326 278 941.404 275.932 941.404Z" fill="black"/>
<path d="M269.765 931.675C256.823 931.675 236.036 928.529 215.515 912.154C214.781 911.565 214.661 910.492 215.25 909.758C215.833 909.029 216.906 908.904 217.64 909.487C248.911 934.445 281.719 927.216 282.047 927.143C282.963 926.93 283.88 927.503 284.094 928.419C284.302 929.331 283.734 930.247 282.823 930.456C282.302 930.581 277.396 931.675 269.765 931.675Z" fill="black"/>
<path d="M153.906 907.315L153.672 882.352C153.672 882.352 148.667 874.779 141.807 880.935C141.807 880.935 135.464 872.039 123.688 883.128C123.688 883.128 107.12 914.018 99.7866 932.399C97.8231 937.31 101.328 942.701 106.625 942.826C114.229 943.003 124.063 942.591 128.344 939.695C135.042 935.175 146.5 920.899 151.5 914.466C153.089 912.419 153.932 909.904 153.906 907.315Z" fill="#4880FF"/>
<path d="M125.057 884.18C123.479 887.138 108.234 915.81 101.364 933.023C100.635 934.862 100.838 936.852 101.922 938.503C102.995 940.117 104.724 941.076 106.667 941.122C116.974 941.362 124.333 940.357 127.39 938.284C133.937 933.862 145.489 919.425 150.151 913.419C151.5 911.69 152.224 909.534 152.208 907.331L151.979 882.925C151.37 882.18 149.807 880.513 147.75 880.258C146.208 880.065 144.594 880.727 142.943 882.201C142.583 882.529 142.099 882.68 141.62 882.628C141.14 882.576 140.703 882.315 140.422 881.925C140.359 881.836 138.661 879.581 135.474 879.294C132.364 879.008 128.859 880.654 125.057 884.18ZM109.667 944.565C108.667 944.565 107.64 944.555 106.583 944.529C103.51 944.456 100.776 942.94 99.0832 940.378C97.3957 937.826 97.0676 934.607 98.203 931.763C105.489 913.508 122.021 882.633 122.187 882.32C122.276 882.164 122.385 882.013 122.521 881.888C127.172 877.503 131.661 875.492 135.859 875.909C138.729 876.185 140.781 877.56 141.969 878.628C143.995 877.195 146.094 876.607 148.203 876.883C152.411 877.425 154.989 881.253 155.094 881.414C155.276 881.685 155.375 882.008 155.38 882.336L155.609 907.3C155.64 910.263 154.656 913.18 152.844 915.513C146.927 923.128 136.005 936.576 129.297 941.107C125.901 943.409 119.307 944.565 109.667 944.565Z" fill="black"/>
<path d="M141.818 896.091C140.875 896.091 140.11 895.331 140.11 894.393L140.104 880.935C140.104 879.992 140.865 879.232 141.808 879.232C142.745 879.232 143.511 879.992 143.511 880.93L143.516 894.388C143.516 895.331 142.756 896.091 141.818 896.091Z" fill="black"/>
<path d="M245.369 867.664C245.369 867.664 251.442 775.992 241.479 693.534C231.52 611.076 194.463 493.326 194.463 493.326C194.463 493.326 154.598 491.518 125.578 495.414C96.5568 499.315 85.0724 495.305 85.0724 495.305C85.0724 495.305 63.411 520.112 65.1766 566.753C66.9474 613.399 117.499 810.143 115.583 856.32C115.583 856.32 132.583 864.867 154.604 860.617L145.473 595.461C145.473 595.461 164.359 650.05 173.223 687.445C180.453 717.93 192.989 737.649 192.989 737.649C192.989 737.649 192.453 808.518 208.718 867.336C208.718 867.336 227.927 873.346 245.369 867.664Z" fill="black"/>
<path d="M213.495 769.774C212.953 769.774 212.422 769.513 212.094 769.034L198.172 748.769C197.636 747.998 197.834 746.935 198.61 746.404C199.386 745.873 200.443 746.065 200.979 746.847L214.901 767.102C215.433 767.878 215.235 768.94 214.459 769.472C214.167 769.675 213.828 769.774 213.495 769.774Z" fill="white"/>
<path d="M119.881 720.508C114.959 720.508 108.714 719.55 103.495 715.68C102.74 715.117 102.584 714.05 103.146 713.295C103.704 712.534 104.771 712.383 105.527 712.94C114.37 719.503 127.282 716.31 127.412 716.279C128.329 716.05 129.25 716.597 129.485 717.508C129.714 718.42 129.167 719.347 128.256 719.576C127.964 719.649 124.511 720.508 119.881 720.508Z" fill="white"/>
<path d="M186.089 417.966C186.089 417.966 208.448 468.274 244.912 478.55C281.37 488.821 306.766 457.768 306.599 425.711L294.209 421.607C294.209 421.607 281.49 454.456 253.12 445.909C224.75 437.362 211.589 370.539 211.589 370.539L186.089 417.966Z" fill="white"/>
<path d="M187.995 418.018C190.948 424.274 212.511 467.649 245.37 476.909C263.557 482.039 276.563 476.117 284.266 470.242C296.792 460.711 304.625 444.206 304.891 426.945L295.146 423.706C292.521 429.347 281.953 449.029 262.266 449.029C259.266 449.029 256.057 448.57 252.63 447.539C227.693 440.024 214.474 390.847 210.906 375.404L187.995 418.018ZM258.917 482.279C254.49 482.279 249.667 481.654 244.448 480.185C207.641 469.815 185.464 420.737 184.537 418.659C184.323 418.175 184.344 417.623 184.589 417.159L210.089 369.727C210.427 369.097 211.136 368.748 211.844 368.852C212.552 368.961 213.12 369.503 213.261 370.206C213.391 370.867 226.547 436.128 253.609 444.274C280.115 452.263 292.12 422.274 292.62 420.987C292.948 420.143 293.88 419.706 294.745 419.987L307.136 424.097C307.828 424.326 308.297 424.977 308.302 425.706C308.401 444.461 299.979 462.565 286.333 472.956C280.229 477.602 271.068 482.279 258.917 482.279Z" fill="black"/>
<path d="M50.9434 369.425C50.9434 369.425 73.36 340.159 136.699 345.628C212.334 352.154 218.1 367.102 218.1 367.102L198.355 407.112L221.527 508.102C221.527 508.102 205.693 521.211 168.61 513.852C131.527 506.487 67.7975 497.451 50.9486 502.539L74.4434 406.175L50.9434 369.425Z" fill="#828282"/>
<path d="M66.4058 499.378C92.4787 499.378 138.067 506.05 168.942 512.18C200.208 518.388 215.979 509.773 219.609 507.378L196.697 407.492C196.609 407.112 196.656 406.711 196.828 406.362L216.145 367.211C214.02 364.633 200.953 352.883 136.552 347.32C81.1141 342.534 57.4475 364.8 53.062 369.576L75.8745 405.258C76.1245 405.648 76.2027 406.128 76.0985 406.581L53.26 500.253C56.6506 499.648 61.1298 499.378 66.4058 499.378ZM190.099 517.81C183.828 517.81 176.572 517.169 168.281 515.518C130.708 508.06 67.5881 499.294 51.4423 504.169C50.8537 504.346 50.2235 504.195 49.7808 503.773C49.3329 503.357 49.1506 502.727 49.2964 502.133L72.6141 406.477L49.5048 370.341C49.1193 369.737 49.1506 368.956 49.5881 368.388C50.5256 367.164 73.3068 338.44 136.849 343.925C211.385 350.362 219.062 364.852 219.687 366.487C219.859 366.93 219.838 367.425 219.625 367.852L200.151 407.326L223.187 507.721C223.328 508.352 223.104 509.003 222.609 509.409C222.088 509.841 212.145 517.81 190.099 517.81Z" fill="black"/>
<path d="M294.183 464.039H196.74L260.652 348.31H358.094L294.183 464.039Z" fill="black"/>
<path d="M296.422 460.393C296.422 460.393 294.594 450.8 296.422 444.393C298.255 437.987 309.609 418.945 312.854 414.966C316.099 410.977 318.849 453.524 296.422 460.393Z" fill="white"/>
<path d="M312.875 417.805C308.64 423.919 299.598 439.477 298.057 444.862C296.843 449.117 297.375 455.034 297.786 458.081C303.312 455.701 307.5 450.576 310.244 442.826C313.817 432.727 313.619 422.076 312.875 417.805ZM296.421 462.096C296.119 462.096 295.812 462.013 295.541 461.852C295.13 461.602 294.843 461.185 294.75 460.711C294.671 460.305 292.864 450.638 294.786 443.925C296.64 437.435 308.078 418.128 311.531 413.888C312.307 412.935 313.317 412.873 314.005 413.128C316.645 414.112 316.822 421.466 316.697 425.763C316.255 440.498 310.833 457.763 296.921 462.018C296.76 462.07 296.588 462.096 296.421 462.096Z" fill="black"/>
<path d="M92.5107 435.534L167.537 399.362L206.521 406.268C206.521 406.268 203.792 410.331 198.256 409.383C192.714 408.435 185.344 410.013 180.703 415.117C176.063 420.227 168.24 416.982 168.24 416.982C168.24 416.982 125.802 471.513 87.693 478.55C56.7191 484.268 53.3076 373.123 53.3076 373.123L90.5732 406.175L92.5107 435.534Z" fill="white"/>
<path d="M55.1824 377.06C56.0314 394.029 60.4481 459.857 78.4585 474.383C81.2658 476.648 84.1877 477.466 87.3856 476.872C124.427 470.034 166.479 416.466 166.896 415.935C167.365 415.326 168.182 415.107 168.896 415.404C168.958 415.43 175.677 418.112 179.443 413.977C184.625 408.268 192.771 406.711 198.542 407.701C200.182 407.982 201.516 407.727 202.537 407.289L167.781 401.143L93.2502 437.065C92.7397 437.315 92.1408 437.289 91.6512 437.003C91.1616 436.716 90.8439 436.206 90.8127 435.643L88.922 406.982L55.1824 377.06ZM85.4116 480.466C82.1929 480.466 79.146 479.315 76.3179 477.039C54.4949 459.43 51.7137 376.69 51.6043 373.174C51.5835 372.497 51.9689 371.867 52.5835 371.576C53.1981 371.289 53.9272 371.398 54.4377 371.846L91.7033 404.904C92.0418 405.201 92.2449 405.617 92.271 406.065L94.0418 432.904L166.797 397.836C167.12 397.68 167.485 397.628 167.833 397.69L206.818 404.586C207.386 404.69 207.865 405.07 208.089 405.596C208.313 406.128 208.255 406.737 207.932 407.216C207.797 407.424 204.516 412.18 197.964 411.06C193.115 410.221 186.281 411.513 181.964 416.263C177.724 420.93 171.474 419.763 168.833 418.977C162.781 426.544 123.974 473.581 88.0054 480.221C87.1304 480.383 86.2606 480.466 85.4116 480.466Z" fill="black"/>
<path d="M176.922 313.06C177.765 311.727 173.765 304.508 173.63 301.883C173.489 299.253 175.541 297.044 176.406 294.289C177.265 291.534 176.302 286.612 176.302 286.612C175.13 253.69 139.265 261.508 139.265 261.508C131.031 263.998 126.182 273.253 124.593 279.399C121.526 291.315 127.182 305.716 127.182 305.716C126.942 306.258 121.062 344.815 120.802 345.315C117.078 352.477 142.052 357.159 149.906 349.945C152.562 347.508 149.161 329.596 149.906 329.586C152.849 329.503 156.458 332.659 160.161 331.675C165.625 330.221 169.739 316.539 170.526 315.524C170.896 315.039 172.166 314.763 173.489 314.456C174.953 314.123 176.474 313.758 176.922 313.06Z" fill="white"/>
<path d="M128.818 306.201C128.61 307.159 127.151 316.451 125.865 324.664C122.578 345.591 122.531 345.68 122.313 346.097C122.125 346.461 121.729 347.222 123.334 348.445C128.203 352.18 143.386 353.623 148.755 348.695C149.844 347.263 148.854 338.044 148.479 334.57C147.985 329.961 147.906 329.258 148.589 328.477C148.901 328.123 149.386 327.893 149.86 327.878C151.427 327.847 152.995 328.451 154.505 329.044C156.354 329.774 158.099 330.461 159.724 330.034C163.177 329.112 166.667 320.383 167.979 317.091C168.646 315.419 168.875 314.867 169.172 314.487C169.912 313.524 171.276 313.216 173.011 312.82C173.656 312.669 174.745 312.419 175.297 312.18C175.12 311.242 174.328 309.248 173.776 307.873C172.865 305.591 172.005 303.43 171.927 301.972C171.818 299.878 172.714 298.143 173.578 296.466C174.052 295.555 174.495 294.69 174.781 293.784C175.38 291.862 174.875 288.19 174.63 286.945C174.615 286.852 174.604 286.763 174.604 286.68C174.297 278.112 171.5 271.716 166.292 267.659C156.412 259.966 140.797 262.935 139.693 263.154C131.849 265.576 127.552 274.768 126.245 279.831C123.349 291.05 128.714 304.956 128.771 305.097C128.912 305.451 128.922 305.836 128.818 306.201ZM137.266 355.279C130.943 355.279 124.495 353.628 121.266 351.149C118.87 349.315 118.125 346.982 119.198 344.722C119.5 343.248 121.156 332.68 122.5 324.133C124.511 311.289 125.156 307.248 125.422 305.862C124.438 303.18 120.057 290.185 122.948 278.977C124.432 273.211 129.443 262.695 138.776 259.873C138.818 259.862 138.86 259.852 138.906 259.841C139.636 259.685 156.901 256.05 168.375 264.956C174.396 269.633 177.63 276.862 178 286.425C178.182 287.388 178.938 291.888 178.031 294.794C177.656 295.987 177.125 297.024 176.604 298.034C175.886 299.419 175.271 300.623 175.328 301.794C175.375 302.69 176.245 304.862 176.943 306.607C178.485 310.477 179.25 312.565 178.36 313.966C177.526 315.274 175.667 315.701 173.87 316.117C173.146 316.279 172.219 316.492 171.828 316.664C171.709 316.951 171.412 317.69 171.146 318.357C169.24 323.112 165.703 331.966 160.599 333.32C157.891 334.039 155.432 333.07 153.255 332.216C152.682 331.987 152.12 331.768 151.599 331.597C151.667 332.378 151.771 333.32 151.865 334.211C152.943 344.227 153.099 349.326 151.057 351.206C147.917 354.091 142.636 355.279 137.266 355.279Z" fill="black"/>
<path d="M185.938 262.773C182.334 259.128 178.667 262.773 164.339 260.763C152.422 259.086 148.985 255.721 139.964 257.211C137.433 257.633 132.902 258.378 128.433 261.654C121.803 266.503 119.339 273.305 118.032 278.383C115.48 288.289 118.678 299.841 120.115 304.211C120.469 305.284 121.521 305.966 122.646 305.872C125.657 305.617 128.313 305.221 130.688 304.711C131.813 304.466 132.454 303.289 132.021 302.216C131.907 301.925 131.803 301.617 131.714 301.31C130.521 297.133 132.521 292.898 136.178 291.852C139.834 290.815 143.766 293.357 144.954 297.539C145.037 297.826 145.099 298.117 145.152 298.409C150.417 294.419 153.12 289.909 157.985 287.482C158.568 287.19 161.131 286.023 165.027 285.888C173.48 285.586 176.292 290.602 180.292 289.628C187.282 287.935 192.417 269.341 185.938 262.773Z" fill="black"/>
<path d="M150.771 331.284C150.599 331.284 150.427 331.258 150.255 331.201C137.099 327.06 135.073 318.315 134.99 317.94C134.792 317.024 135.375 316.112 136.297 315.919C137.214 315.722 138.115 316.3 138.318 317.211C138.391 317.529 140.151 324.451 151.281 327.956C152.177 328.232 152.677 329.19 152.391 330.086C152.167 330.815 151.49 331.284 150.771 331.284Z" fill="black"/>
<path d="M325.479 124.685C325.177 124.685 324.87 124.607 324.594 124.435C323.792 123.951 323.537 122.904 324.026 122.096C354.792 71.5079 395.646 51.2007 424.505 43.0652C455.792 34.2579 479.438 37.3725 480.432 37.5132C481.365 37.6382 482.016 38.5027 481.886 39.4298C481.755 40.3673 480.896 41.0184 479.964 40.8882C479.724 40.8517 455.912 37.7319 425.276 46.3934C397.057 54.3673 357.084 74.2892 326.932 123.862C326.615 124.393 326.052 124.685 325.479 124.685Z" fill="black"/>
<path d="M391.453 39.8726C390.917 39.8726 390.386 39.6174 390.058 39.1382C389.521 38.3674 389.714 37.3049 390.49 36.7736C391.084 36.357 405.381 26.5861 429.12 19.9039C451.016 13.7476 485.318 9.26323 524.381 22.8778C525.271 23.1955 525.745 24.1591 525.427 25.0497C525.12 25.9351 524.151 26.4091 523.261 26.1018C450.177 0.617395 392.99 39.1799 392.422 39.5705C392.125 39.7736 391.792 39.8726 391.453 39.8726Z" fill="black"/>
<path d="M715.443 18.6746C714.506 18.6746 713.745 17.909 713.745 16.9663V8.15898C713.745 7.22148 714.506 6.46106 715.443 6.46106C716.391 6.46106 717.151 7.22148 717.151 8.15898V16.9663C717.151 17.909 716.391 18.6746 715.443 18.6746Z" fill="black"/>
<path d="M715.449 39.1851C714.516 39.1851 713.756 38.4142 713.756 37.4715V28.6694C713.756 27.7267 714.516 26.9663 715.449 26.9663C716.391 26.9663 717.152 27.7267 717.152 28.6694V37.4715C717.152 38.4142 716.391 39.1851 715.449 39.1851Z" fill="black"/>
<path d="M709.6 24.5183H700.798C699.855 24.5183 699.1 23.7579 699.1 22.8204C699.1 21.8725 699.855 21.1121 700.798 21.1121H709.6C710.542 21.1121 711.303 21.8725 711.303 22.8204C711.303 23.7579 710.542 24.5183 709.6 24.5183Z" fill="black"/>
<path d="M730.11 24.5183H721.308C720.365 24.5183 719.604 23.7579 719.604 22.8204C719.604 21.8725 720.365 21.1121 721.308 21.1121H730.11C731.047 21.1121 731.813 21.8725 731.813 22.8204C731.813 23.7579 731.047 24.5183 730.11 24.5183Z" fill="black"/>
<path d="M659.031 835.398C658.412 835.398 657.813 835.055 657.516 834.477C657.083 833.633 657.412 832.607 658.25 832.174C747.63 786.091 795.412 730.424 819.75 691.852C846.115 650.06 851.422 618.758 851.469 618.445C851.62 617.513 852.5 616.883 853.422 617.034C854.349 617.185 854.984 618.06 854.833 618.987C854.781 619.305 849.412 651.148 822.745 693.487C798.182 732.477 749.974 788.711 659.807 835.206C659.557 835.336 659.297 835.398 659.031 835.398Z" fill="black"/>
<path d="M717.214 834.279C716.651 834.279 716.094 834.003 715.776 833.492C715.261 832.701 715.495 831.649 716.287 831.138C800.865 776.914 843.026 717.909 863.5 677.966C885.636 634.795 887.849 604.138 887.87 603.826C887.938 602.888 888.74 602.196 889.682 602.242C890.62 602.305 891.334 603.112 891.276 604.05C891.25 604.362 888.985 635.727 866.531 679.519C845.86 719.836 803.339 779.367 718.125 834.008C717.839 834.19 717.526 834.279 717.214 834.279Z" fill="black"/>
<path d="M897.125 585.867C896.516 585.867 895.927 585.544 895.615 584.966C895.183 584.138 895.495 583.107 896.328 582.664C899.401 581.024 901.105 579.237 901.391 577.352C901.552 576.289 901.235 575.617 900.615 574.435C900.016 573.315 899.287 571.919 899.287 569.961C899.287 566.211 901.86 564.112 904.141 562.258C905.99 560.753 907.594 559.445 907.938 557.451C908.313 555.253 906.953 553.659 904.683 551.248C902.459 548.873 899.938 546.18 900.157 542.159C900.401 537.623 903.985 534.956 907.146 532.607C910.089 530.414 912.631 528.529 912.75 525.581C912.86 523.123 911.198 521.237 909.438 519.237C907.5 517.034 905.302 514.539 905.802 511.112C906.427 506.852 910.766 503.472 919.078 500.789C919.969 500.492 920.927 500.987 921.214 501.888C921.511 502.784 921.016 503.742 920.125 504.029C911.584 506.789 909.459 509.669 909.177 511.602C908.901 513.472 910.339 515.102 911.995 516.987C914.021 519.289 916.318 521.904 916.151 525.727C915.964 530.289 912.365 532.972 909.183 535.336C906.37 537.425 903.719 539.404 903.558 542.341C903.417 544.914 905.24 546.862 907.172 548.919C909.417 551.32 911.969 554.044 911.297 558.024C910.74 561.279 908.375 563.201 906.287 564.904C904.063 566.716 902.683 567.935 902.683 569.961C902.683 571.076 903.12 571.893 903.62 572.841C904.282 574.091 905.099 575.638 904.756 577.862C904.302 580.873 902 583.498 897.922 585.669C897.667 585.805 897.396 585.867 897.125 585.867Z" fill="black"/>
</svg>
