<svg width="955" height="957" viewBox="0 0 955 957" fill="none" xmlns="http://www.w3.org/2000/svg">
<path d="M41.7837 296.607C21.117 342.404 -9.47156 430.091 2.82532 539.148C18.5962 679.076 96.6899 789.393 172.653 851.388C424.721 1057.09 886.159 924.195 947.263 730.43C958.351 695.279 955.232 661.372 951.398 619.654C939.195 486.966 874.945 447.518 831.732 306.638C792.409 178.419 831.18 163.987 794.409 106.987C714.638 -16.664 484.377 -22.8932 325.935 36.388C265.081 59.1589 117.403 129.003 41.7837 296.607Z" fill="#D1D1D1"/>
<path d="M37.3202 387.638C37.1692 387.638 37.0129 387.617 36.8567 387.575C35.9296 387.32 35.3827 386.357 35.6379 385.424C37.1952 379.815 38.8931 374.159 40.6848 368.612C40.9817 367.69 41.966 367.19 42.8827 367.487C43.7994 367.779 44.2994 368.763 44.0025 369.68C42.2317 375.18 40.5442 380.794 39.0025 386.357C38.789 387.133 38.0858 387.638 37.3202 387.638Z" fill="black"/>
<path d="M45.091 616.003C44.3931 616.003 43.7421 615.576 43.4764 614.888C30.0598 579.81 22.6014 542.143 21.3046 502.935C20.0181 463.982 24.8514 424.445 35.6587 385.43C35.9139 384.513 36.8671 383.977 37.7837 384.232C38.7004 384.487 39.2421 385.435 38.9868 386.352C17.5233 463.82 20.2629 544.544 46.7056 613.659C47.0441 614.544 46.5962 615.544 45.7056 615.883C45.5025 615.966 45.2941 616.003 45.091 616.003Z" fill="black"/>
<path d="M60.0387 581.997C59.2991 581.997 58.6168 581.513 58.3928 580.773C42.2678 528.315 39.9501 470.211 51.6845 412.742C51.8772 411.81 52.7991 411.206 53.721 411.393C54.6533 411.591 55.2574 412.497 55.0647 413.435C43.4501 470.336 45.7366 527.852 61.6897 579.758C61.971 580.674 61.4553 581.638 60.5439 581.919C60.3772 581.971 60.2053 581.997 60.0387 581.997Z" fill="black"/>
<path d="M54.8459 390.122C54.9188 391.419 55.4917 392.607 56.4553 393.471C57.424 394.331 58.6584 394.773 59.9605 394.7C61.2521 394.627 62.4448 394.055 63.3042 393.091C64.1688 392.122 64.6063 390.877 64.5334 389.586C64.4605 388.294 63.8928 387.107 62.924 386.242C61.9605 385.377 60.7157 384.94 59.424 385.013C58.1271 385.086 56.9396 385.659 56.075 386.622C55.2105 387.591 54.773 388.836 54.8459 390.122ZM59.6792 398.159C57.6375 398.159 55.6896 397.419 54.1584 396.044C52.5021 394.565 51.523 392.534 51.4032 390.32C51.2782 388.107 52.023 385.976 53.5021 384.325C54.9813 382.669 57.0125 381.695 59.2261 381.57C61.4605 381.44 63.575 382.19 65.2261 383.669C66.8771 385.148 67.8563 387.18 67.9813 389.393C68.1011 391.612 67.3563 393.737 65.8771 395.388C64.4032 397.039 62.3667 398.023 60.1532 398.143C59.9969 398.154 59.8355 398.159 59.6792 398.159Z" fill="black"/>
<path d="M63.336 597.685C64.9714 598.274 67.2475 599.076 69.7058 599.852L68.4454 592.722L63.336 597.685ZM71.8933 604.05C71.7318 604.05 71.5704 604.029 71.4089 603.982C65.4506 602.242 59.7891 600.05 59.5495 599.956C59.0027 599.742 58.6016 599.268 58.4818 598.69C58.3673 598.117 58.5495 597.524 58.9714 597.107L68.3777 587.977C68.8308 587.534 69.4975 587.378 70.1068 587.576C70.7162 587.768 71.1641 588.284 71.2787 588.914L73.5912 602.024C73.6954 602.612 73.4923 603.206 73.0443 603.612C72.7266 603.899 72.31 604.05 71.8933 604.05Z" fill="black"/>
<path d="M70.9035 668.977C69.466 668.873 68.242 668.56 66.966 668.065C65.716 667.565 64.4816 666.873 63.4503 665.883C62.9347 665.388 62.4608 664.836 62.0597 664.237C61.867 663.909 61.6743 663.664 61.492 663.258L61.242 662.654L61.091 662.065C60.7524 660.518 60.8983 659.232 60.9764 657.992C61.1691 655.57 61.4399 653.227 60.8097 651.534C60.4139 650.102 58.3983 648.93 56.3201 647.742C55.2733 647.128 54.1743 646.498 53.091 645.675C52.0285 644.857 50.9035 643.805 50.2472 642.268C49.9035 641.367 49.841 640.43 49.9347 639.69C50.0181 638.925 50.1951 638.258 50.3878 637.623C50.7785 636.362 51.2524 635.237 51.6535 634.143C52.0389 633.076 52.4035 631.977 52.4087 631.164C52.4295 630.748 52.3514 630.565 52.1847 630.19C52.0181 629.862 51.7056 629.524 51.3618 629.19C50.6222 628.529 49.6535 627.945 48.617 627.362C48.0962 627.06 47.5545 626.758 47.0024 626.409C46.4503 626.044 45.8566 625.701 45.2472 624.94C44.8045 624.378 44.8983 623.565 45.4608 623.117C46.0076 622.68 46.8045 622.763 47.2524 623.305L47.3097 623.367C47.4608 623.55 47.9087 623.862 48.3774 624.117C48.8566 624.388 49.3826 624.649 49.9243 624.93C51.0076 625.477 52.1587 626.076 53.2681 626.961C53.8149 627.435 54.367 627.961 54.7941 628.68C55.2108 629.367 55.5076 630.367 55.4764 631.159C55.466 632.774 55.0128 633.992 54.6326 635.195C54.2368 636.378 53.8097 637.487 53.5128 638.539C53.1951 639.586 53.1431 640.581 53.3201 640.982C53.9295 642.414 55.9556 643.643 58.0076 644.8C59.0493 645.393 60.1535 645.992 61.2576 646.81C61.8045 647.232 62.3618 647.685 62.8722 648.3L63.2472 648.758L63.5753 649.3C63.8149 649.68 63.9139 650.029 64.0597 650.388C64.5649 651.847 64.6222 653.253 64.591 654.56C64.5597 655.867 64.4139 657.102 64.3045 658.274C64.2108 659.425 64.1118 660.581 64.2628 661.404L64.3149 661.695C64.3462 661.768 64.3774 661.847 64.4035 661.925C64.4503 662.086 64.6222 662.32 64.716 662.529C64.966 662.935 65.2681 663.315 65.6066 663.675C66.9503 665.076 69.1014 666.029 71.117 666.399L71.2316 666.419C71.9347 666.55 72.3983 667.216 72.2681 667.919C72.1483 668.576 71.5545 669.018 70.9035 668.977Z" fill="black"/>
<path d="M276.576 799.409L278.576 839.081L259.451 838.883L253.758 800.56L276.576 799.409Z" fill="white"/>
<path d="M260.94 837.169L276.763 837.336L274.94 801.216L255.742 802.185L260.94 837.169ZM278.575 840.81C278.57 840.81 278.565 840.81 278.56 840.81L259.435 840.607C258.586 840.596 257.872 839.977 257.742 839.133L252.049 800.815C251.981 800.331 252.112 799.841 252.424 799.466C252.731 799.091 253.185 798.862 253.669 798.836L276.492 797.685C277.44 797.633 278.252 798.367 278.299 799.32L280.299 838.992C280.325 839.471 280.153 839.935 279.82 840.279C279.497 840.617 279.044 840.81 278.575 840.81Z" fill="black"/>
<path d="M259.143 889.659C266.951 890.102 288.393 889.669 294.362 886.701C299.612 884.086 303.784 872.841 300.862 868.867C293.549 858.919 288.044 841.305 283.352 827.565C283.086 826.779 282.023 826.674 281.607 827.383L277.846 833.737L274.508 826.669C273.987 825.888 273.122 825.404 272.185 825.367L265.492 825.576C263.956 825.513 262.383 827.076 261.539 828.523L257.029 834.784L254.102 830.003C253.612 829.201 252.378 829.503 252.315 830.44L249.039 876.987C249.258 884.419 254.607 889.398 259.143 889.659Z" fill="#202124"/>
<path d="M250.768 877.018C251.002 883.758 255.914 887.747 259.242 887.935C268.112 888.44 288.383 887.742 293.591 885.159C296.049 883.935 298.674 879.831 299.695 875.617C300.305 873.096 300.216 870.899 299.471 869.888C292.747 860.737 287.659 845.69 283.174 832.414C282.862 831.492 282.555 830.581 282.247 829.685L279.331 834.617C279.002 835.169 278.388 835.497 277.763 835.461C277.127 835.43 276.555 835.055 276.284 834.471L273.018 827.55C272.805 827.289 272.497 827.122 272.164 827.091L265.544 827.3C265.502 827.3 265.461 827.3 265.419 827.3C264.883 827.263 263.763 828.133 263.028 829.393C263.002 829.44 262.971 829.487 262.94 829.534L258.424 835.794C258.091 836.263 257.56 836.529 256.961 836.508C256.383 836.492 255.857 836.18 255.555 835.69L253.867 832.93L250.768 877.018ZM265.487 891.524C262.862 891.524 260.617 891.471 259.049 891.383C253.57 891.076 247.555 885.232 247.315 877.034C247.315 876.977 247.315 876.919 247.32 876.862L250.591 830.32C250.674 829.143 251.497 828.175 252.643 827.893C253.789 827.612 254.961 828.102 255.575 829.107L257.143 831.669L260.096 827.576C261.153 825.794 263.2 823.789 265.492 823.852L272.133 823.643C272.174 823.643 272.216 823.643 272.258 823.643C273.737 823.706 275.117 824.477 275.945 825.706C275.992 825.779 276.034 825.857 276.07 825.935L278.018 830.06L280.122 826.503C280.664 825.591 281.669 825.091 282.711 825.195C283.768 825.305 284.638 825.992 284.982 827.003C285.461 828.404 285.95 829.841 286.445 831.31C290.851 844.346 295.846 859.122 302.252 867.841C303.648 869.742 303.93 872.789 303.044 876.425C302.002 880.742 299.081 886.279 295.127 888.247C290.039 890.779 275.174 891.524 265.487 891.524Z" fill="black"/>
<path d="M271.221 882.544C262.815 882.544 257.159 881.023 256.768 880.909C255.852 880.654 255.315 879.711 255.565 878.789C255.82 877.867 256.779 877.336 257.69 877.586C257.846 877.628 273.076 881.7 290.602 876.128C291.508 875.841 292.482 876.341 292.768 877.253C293.06 878.159 292.555 879.128 291.649 879.419C284.086 881.82 277.003 882.544 271.221 882.544Z" fill="#E8EAED"/>
<path d="M265.268 862.091C264.357 862.091 263.591 861.378 263.544 860.456C263.497 859.508 264.232 858.695 265.185 858.649L282.581 857.768C283.528 857.727 284.346 858.456 284.393 859.404C284.44 860.357 283.711 861.169 282.752 861.216L265.357 862.091C265.325 862.091 265.299 862.091 265.268 862.091Z" fill="#E8EAED"/>
<path d="M135.268 785.487L132.044 833.607L114.143 833.888L111.763 786.675L135.268 785.487Z" fill="white"/>
<path d="M113.576 788.31L115.784 832.138L130.43 831.904L133.419 787.305L113.576 788.31ZM114.143 835.612C113.227 835.612 112.466 834.893 112.419 833.971L110.039 786.758C109.992 785.805 110.722 784.997 111.675 784.951L135.18 783.763C135.664 783.742 136.154 783.925 136.498 784.279C136.847 784.628 137.024 785.112 136.992 785.602L133.768 833.721C133.706 834.617 132.972 835.32 132.07 835.331L114.169 835.612C114.164 835.612 114.154 835.612 114.143 835.612Z" fill="black"/>
<path d="M137.315 821.93C137.315 821.93 139.091 843.102 138.81 851.685C138.612 857.826 131.164 876.721 126.94 886.961C125.205 891.18 121.33 894.565 117.362 895.68C109.898 897.794 106.237 897.883 99.2263 897.102C89.7836 896.044 86.445 887.617 88.7888 879.268C90.9606 871.57 94.7783 863.024 101.263 852.425C105.966 844.737 109.492 822.508 109.492 822.508L124.054 821.768L128.789 833.768L137.315 821.93Z" fill="#202124"/>
<path d="M110.966 824.159C110.101 829.216 106.924 846.487 102.737 853.32C96.6066 863.336 92.7056 871.732 90.4556 879.737C89.2525 884.003 89.7004 888.117 91.6691 891.05C93.3254 893.503 96.0025 895.003 99.4191 895.388C106.221 896.143 109.706 896.055 116.893 894.018C120.466 893.018 123.862 889.914 125.346 886.31C132.669 868.529 136.95 855.888 137.086 851.628C137.279 845.701 136.461 833.482 135.961 826.763L130.185 834.774C129.815 835.289 129.206 835.56 128.57 835.477C127.945 835.404 127.414 834.987 127.18 834.399L122.904 823.56L110.966 824.159ZM105.862 899.274C103.794 899.274 101.627 899.107 99.0337 898.815C94.5806 898.32 91.0441 896.3 88.8098 892.977C86.2681 889.206 85.6587 884.039 87.1327 878.805C89.4712 870.482 93.4921 861.815 99.7941 851.524C104.263 844.216 107.752 822.456 107.789 822.237C107.919 821.43 108.591 820.826 109.409 820.784L123.971 820.05C124.737 820.008 125.388 820.451 125.659 821.138L129.232 830.195L135.914 820.925C136.336 820.341 137.081 820.076 137.773 820.268C138.471 820.461 138.976 821.07 139.034 821.784C139.107 822.654 140.815 843.159 140.534 851.742C140.341 857.8 133.904 874.596 128.539 887.622C126.638 892.227 122.44 896.044 117.831 897.346C112.914 898.737 109.539 899.274 105.862 899.274Z" fill="black"/>
<path d="M103.112 890.581C100.883 890.581 98.3982 890.362 96.3097 889.67C95.4086 889.362 94.919 888.388 95.2211 887.482C95.5232 886.576 96.4972 886.086 97.4086 886.393C100.737 887.508 105.94 887.123 107.945 886.763C111.414 886.133 114.554 884.3 116.799 881.597C118.695 879.305 120.06 877.227 120.846 875.414C122.45 871.711 124.075 867.492 125.258 864.414C127.159 859.461 127.351 859.029 127.836 858.597C128.539 857.956 129.633 858.013 130.273 858.716C130.836 859.341 130.857 860.263 130.372 860.909C130.101 861.43 129.278 863.576 128.476 865.654C127.284 868.763 125.648 873.018 124.013 876.789C123.096 878.899 121.56 881.258 119.45 883.805C116.695 887.128 112.825 889.383 108.56 890.154C107.554 890.336 105.476 890.581 103.112 890.581Z" fill="#E8EAED"/>
<path d="M100.784 870.982C99.867 870.982 99.1066 870.268 99.0597 869.346C99.0129 868.393 99.7472 867.581 100.7 867.534L116.638 866.732C117.586 866.68 118.403 867.414 118.45 868.367C118.497 869.315 117.768 870.128 116.815 870.175L100.872 870.982C100.841 870.982 100.815 870.982 100.784 870.982Z" fill="#E8EAED"/>
<path d="M291.336 642.649C291.143 656.508 290.794 669.878 290.357 682.638C290.039 691.482 289.685 700.024 289.299 708.227C286.909 758.19 283.294 795.112 282.029 807.102C281.752 809.654 279.857 811.727 277.357 812.195C277.305 812.211 277.258 812.211 277.211 812.227C272.268 813.122 263.857 814.195 255.617 813.107C255.57 813.107 255.508 813.086 255.461 813.086C253.133 812.768 251.221 811.133 250.596 808.867C246.164 792.706 227.961 725.107 226.643 698.992C225.232 670.69 229.935 663.341 229.341 640.258C228.909 622.971 220.029 561.846 215.596 532.211C215.023 528.326 209.549 527.94 208.456 531.732C200.414 559.195 183.331 618.57 167.617 679.409C166.815 682.524 163.377 708.945 162.591 712.008C152.862 750.018 143.461 780.586 140.341 798.372C139.831 801.242 137.612 803.539 134.758 804.149C134.518 804.195 134.258 804.263 134.002 804.294C128.69 805.388 120.419 806.43 112.685 804.695C112.315 804.612 111.93 804.518 111.56 804.419C108.523 803.622 106.409 800.909 106.279 797.779C105.461 778.419 102.539 706.425 103.581 694.258C105.779 668.175 124.706 641.638 126.956 613.935C127.148 611.56 127.31 608.888 127.45 605.951C128.529 584.622 128.622 549.529 130.857 517.206C131.898 501.987 133.424 487.362 135.737 475.086C135.976 473.784 136.232 472.482 136.487 471.185C138.56 460.893 141.127 450.383 143.81 440.399L143.825 440.378V440.367C151.836 410.617 160.924 385.612 160.924 385.612L167.263 386.399L178.226 387.742L179.159 387.857L287.195 401.227C287.195 401.227 287.372 405.935 287.664 414.195C287.805 418.664 287.982 424.164 288.19 430.539V430.555C288.627 444.201 289.154 461.789 289.638 481.57C290.518 515.935 291.336 556.914 291.513 595.263C291.596 611.784 291.549 627.831 291.336 642.649Z" fill="black"/>
<path d="M241.158 257.758C242.106 267.758 242.341 277.466 241.169 286.341C240.158 294.081 238.054 301.174 234.414 307.258C231.507 312.091 227.721 316.716 223.226 320.935C218.362 325.56 212.679 329.716 206.403 333.216C197.169 338.419 186.653 342.206 175.627 343.982C172.929 344.435 170.184 344.758 167.44 344.951C164.518 345.138 161.58 345.206 158.627 345.091C151.643 344.852 144.612 343.727 137.695 341.581C135.044 340.758 132.429 339.799 129.825 338.674C93.4188 322.909 68.023 286.227 78.3615 254.477H78.3772C78.9865 252.555 79.7417 250.643 80.6428 248.763C94.7209 219.148 121.32 233.164 137.471 203.961C153.377 175.18 138.768 161.638 150.408 147.237C158.565 137.143 166.622 135.841 176.351 134.445C182.226 133.612 188.711 132.742 196.19 129.904C200.523 128.247 205.211 125.919 210.32 122.565C218.94 116.867 232.518 118.695 240.257 129.904C241.523 131.732 242.632 133.799 243.549 136.143C246.804 144.57 243.533 151.81 239.841 158.477C238.476 160.961 237.044 163.367 235.888 165.732C235.138 167.253 234.492 168.763 234.044 170.258C232.153 176.628 231.83 184.414 232.372 193.081C232.388 193.372 232.408 193.674 232.44 193.961C232.586 196.117 232.794 198.31 233.018 200.56C233.721 207.029 234.768 213.883 235.872 220.898C235.924 221.138 235.955 221.393 236.002 221.654C237.028 228.044 238.106 234.581 239.07 241.107C239.903 246.68 240.627 252.268 241.158 257.758Z" fill="black"/>
<path d="M156.315 462.445C155.664 462.445 155.044 462.081 154.752 461.45C154.346 460.586 154.716 459.56 155.575 459.159C180.294 447.529 186.575 422.367 186.633 422.117C186.857 421.185 187.784 420.617 188.716 420.836C189.638 421.06 190.211 421.987 189.992 422.914C189.732 424.008 183.31 449.924 157.049 462.279C156.81 462.393 156.56 462.445 156.315 462.445Z" fill="white"/>
<path d="M385.284 94.3984L378.893 114.857C376.794 121.195 377.851 128.164 381.732 133.591L388.893 143.862C390.08 145.57 390.409 147.622 390.445 149.701C390.539 154.346 389.836 161.43 389.836 161.43L406.893 161.706C406.893 161.706 405.023 152.716 404.159 149.622C403.054 145.669 403.028 141.352 404.747 137.628C410.226 125.779 408.627 113.888 408.627 113.888L396.94 117.008C396.94 117.008 393.32 110.857 394.008 100.117C394.174 97.487 393.898 95.487 393.367 93.9609C392.002 90.0339 386.31 90.3724 385.284 94.3984Z" fill="white"/>
<path d="M391.716 159.732L404.763 159.945C404.153 157.107 403.075 152.169 402.497 150.086C401.185 145.383 401.429 140.695 403.185 136.904C407.096 128.445 407.237 119.857 407.065 116.091L397.383 118.675C396.633 118.872 395.846 118.55 395.455 117.883C395.294 117.612 391.575 111.149 392.289 100.008C392.424 97.8152 392.242 95.9714 391.742 94.5287C391.195 92.9662 389.768 92.9037 389.341 92.9193C388.409 92.9558 387.299 93.4766 386.955 94.8308C386.945 94.8568 386.94 94.8881 386.929 94.9141L380.539 115.372C378.612 121.201 379.586 127.622 383.138 132.591L390.31 142.878C391.903 145.169 392.138 147.846 392.174 149.669C392.237 152.93 391.929 157.284 391.716 159.732ZM406.893 163.43C406.883 163.43 406.877 163.43 406.867 163.43L389.81 163.154C389.325 163.143 388.867 162.935 388.544 162.576C388.226 162.216 388.07 161.737 388.117 161.253C388.127 161.19 388.804 154.221 388.721 149.737C388.679 147.56 388.284 146.008 387.476 144.852L380.32 134.581C376.143 128.737 374.987 121.154 377.258 114.315L383.622 93.9245C384.299 91.3725 386.528 89.586 389.195 89.4714C391.804 89.362 394.133 90.8985 395.002 93.3985C395.653 95.2787 395.898 97.5808 395.731 100.227C395.258 107.711 396.95 112.815 397.877 114.971L408.179 112.221C408.653 112.096 409.174 112.18 409.586 112.456C409.997 112.727 410.273 113.164 410.336 113.659C410.403 114.164 411.945 126.19 406.315 138.352C404.909 141.404 404.726 145.242 405.82 149.159C406.69 152.268 408.508 160.982 408.58 161.357C408.69 161.867 408.554 162.399 408.226 162.81C407.898 163.201 407.403 163.43 406.893 163.43Z" fill="black"/>
<path d="M271.648 223.638C286.549 225.289 331.451 245.138 357.628 218.258C383.805 191.383 385.096 155.664 385.096 155.664L410.706 153.451C410.706 153.451 428.331 195.347 410.039 244.18C391.367 294.029 301.419 311.555 301.419 311.555L271.648 223.638Z" fill="#FFC700"/>
<path d="M307.18 432.753C306.461 453.107 303.893 470.524 297.711 475.997C295.414 478.039 292.7 479.899 289.638 481.57C251.992 502.32 161.294 496.867 136.487 471.185C134.258 468.867 132.56 466.383 131.482 463.753C130.602 461.596 129.862 458.997 129.268 455.997C124.643 432.945 128.096 386.555 137.695 341.581C140.779 327.18 144.482 312.909 148.758 299.607C159.669 265.654 174.294 237.961 191.57 230.065C195.695 228.169 200.461 226.534 205.695 225.185C211.841 223.596 218.617 222.409 225.732 221.654C229.049 221.3 232.44 221.044 235.872 220.899C236.372 220.883 236.872 220.852 237.367 220.852C245.055 220.581 252.94 220.82 260.659 221.654C269.732 222.617 278.607 224.388 286.716 227.029C286.732 227.029 286.747 227.029 286.779 227.05C292.768 229.008 298.352 231.461 303.299 234.435L303.346 257.758L303.393 286.341L303.44 311.112L303.471 320.935L303.492 331.883C303.508 337.758 303.669 343.654 303.987 349.524C304.164 352.721 304.372 355.914 304.643 359.107C305.221 365.997 305.914 375.268 306.461 385.622C306.732 390.649 306.956 395.935 307.133 401.32C307.263 405.576 307.357 409.893 307.404 414.195C307.456 420.492 307.404 426.753 307.18 432.753Z" fill="#FFC700"/>
<path d="M248.586 296.628L346.716 358.289C348.216 359.232 348.987 360.966 348.669 362.669L321.304 509.451C321.034 510.909 320.039 511.987 318.799 512.477C317.601 512.951 314.117 514.372 314.117 514.372L216.81 450.44C215.315 449.497 214.539 447.753 214.857 446.06L240.841 297.617C240.841 297.617 243.591 296.633 244.919 296.18C246.07 295.789 247.414 295.888 248.586 296.628Z" fill="black"/>
<path d="M244.003 298.628L342.128 360.294C343.622 361.232 344.404 362.972 344.081 364.669L316.633 510.935C316.096 513.81 312.8 515.18 310.263 513.586L212.138 451.925C210.643 450.982 209.867 449.248 210.18 447.555L237.633 301.279C238.169 298.409 241.471 297.039 244.003 298.628Z" fill="white"/>
<path d="M241.695 299.68C241.357 299.68 241.018 299.753 240.69 299.893C239.971 300.206 239.471 300.831 239.33 301.596L211.877 447.872C211.69 448.862 212.164 449.904 213.054 450.466L311.179 512.128C311.919 512.596 312.794 512.669 313.575 512.325C314.294 512.008 314.794 511.388 314.935 510.617L342.388 364.351C342.575 363.357 342.101 362.315 341.211 361.758L243.08 300.091C242.648 299.82 242.169 299.68 241.695 299.68ZM312.575 515.982C311.455 515.982 310.33 515.669 309.346 515.049L211.221 453.388C209.138 452.081 208.039 449.607 208.487 447.232L235.935 300.966C236.289 299.081 237.549 297.497 239.31 296.732C241.122 295.935 243.221 296.101 244.919 297.169L343.044 358.836C345.127 360.143 346.226 362.612 345.778 364.982L318.33 511.258C317.976 513.138 316.716 514.716 314.955 515.492C314.195 515.82 313.383 515.982 312.575 515.982Z" fill="black"/>
<path d="M231.227 300.794L329.352 362.456C330.847 363.398 331.623 365.138 331.305 366.831L303.857 513.101C303.32 515.971 300.018 517.346 297.487 515.752L199.362 454.086C197.867 453.148 197.086 451.409 197.409 449.716L224.857 303.45C225.393 300.575 228.69 299.206 231.227 300.794Z" fill="white"/>
<path d="M228.919 301.841C228.581 301.841 228.237 301.914 227.914 302.06C227.195 302.372 226.695 302.992 226.555 303.763L199.102 450.034C198.914 451.023 199.388 452.065 200.279 452.628L298.409 514.294C299.148 514.758 300.018 514.831 300.799 514.492C301.518 514.174 302.018 513.549 302.159 512.784L329.612 366.513C329.799 365.523 329.325 364.482 328.435 363.919L230.305 302.258C229.872 301.982 229.398 301.841 228.919 301.841ZM299.799 518.148C298.674 518.148 297.56 517.831 296.57 517.216L198.44 455.549C196.362 454.242 195.263 451.773 195.711 449.398L223.159 303.128C223.513 301.247 224.773 299.664 226.534 298.893C228.346 298.102 230.445 298.263 232.143 299.336L330.268 360.997C332.352 362.305 333.45 364.779 333.003 367.154L305.555 513.419C305.2 515.305 303.94 516.883 302.18 517.654C301.419 517.982 300.607 518.148 299.799 518.148Z" fill="black"/>
<path d="M234.878 312.862L321.336 367.195C322.654 368.024 323.336 369.555 323.06 371.044L298.872 499.925C298.398 502.451 295.492 503.664 293.263 502.263L206.799 447.93C205.482 447.102 204.799 445.57 205.081 444.076L229.263 315.195C229.737 312.669 232.643 311.461 234.878 312.862Z" fill="#202124"/>
<path d="M316.992 404.935C316.888 404.935 316.779 404.924 316.675 404.909C315.737 404.732 315.117 403.825 315.294 402.888L321.294 370.919C321.445 370.133 321.065 369.294 320.352 368.851L310.753 362.82C309.945 362.31 309.701 361.242 310.211 360.44C310.716 359.627 311.784 359.388 312.591 359.898L322.19 365.93C324.091 367.122 325.096 369.383 324.69 371.56L318.69 403.529C318.529 404.357 317.805 404.935 316.992 404.935Z" fill="black"/>
<path d="M205.977 441.654C205.872 441.654 205.768 441.643 205.664 441.628C204.727 441.451 204.107 440.555 204.279 439.617L208.2 418.43C208.372 417.497 209.268 416.872 210.216 417.05C211.148 417.227 211.768 418.122 211.596 419.06L207.674 440.242C207.518 441.076 206.794 441.654 205.977 441.654Z" fill="black"/>
<path d="M295.232 504.768C294.2 504.768 293.179 504.482 292.273 503.919L214.002 454.732C213.195 454.221 212.955 453.154 213.461 452.352C213.966 451.539 215.034 451.299 215.841 451.805L294.112 500.997C294.705 501.367 295.403 501.424 296.028 501.154C296.601 500.904 296.992 500.409 297.107 499.799L302.664 470.19C302.841 469.258 303.747 468.638 304.679 468.815C305.617 468.987 306.232 469.893 306.06 470.831L300.502 500.435C300.179 502.159 299.023 503.617 297.409 504.315C296.711 504.622 295.971 504.768 295.232 504.768Z" fill="black"/>
<path d="M155.633 362.279L193.487 348.836C193.487 348.836 225.815 404.544 311.68 395.956L329.44 363.388C329.44 363.388 329.638 373.263 326.091 380.747C322.544 388.237 328.596 394.711 328.596 394.711L345.799 386.451C345.799 386.451 349.383 414.326 335.815 420.461C322.237 426.586 199.878 469.727 155.633 362.279Z" fill="white"/>
<path d="M157.93 363.299C170.55 392.93 190.466 413.331 217.149 423.924C271.518 445.513 334.487 419.164 335.102 418.888C345.159 414.341 344.789 395.768 344.31 389.081L329.341 396.268C328.659 396.591 327.846 396.44 327.331 395.893C327.055 395.591 320.529 388.456 324.529 380.013C325.826 377.268 326.596 374.159 327.055 371.367L313.195 396.779C312.925 397.284 312.419 397.612 311.852 397.669C266.987 402.159 236.815 388.93 219.409 377.034C203.498 366.169 195.195 354.654 192.758 350.919L157.93 363.299ZM265.268 435.815C249.013 435.815 231.904 433.497 215.873 427.128C187.789 415.977 166.987 394.378 154.039 362.94C153.857 362.497 153.862 362.008 154.055 361.581C154.248 361.148 154.612 360.815 155.055 360.654L192.909 347.211C193.685 346.93 194.56 347.253 194.977 347.966C195.06 348.107 203.169 361.81 221.513 374.294C238.305 385.727 267.362 398.435 310.607 394.32L327.925 362.565C328.3 361.878 329.086 361.529 329.852 361.716C330.612 361.898 331.149 362.576 331.164 363.357C331.175 363.773 331.326 373.721 327.649 381.487C325.378 386.284 327.763 390.674 329.091 392.555L345.055 384.898C345.555 384.659 346.138 384.674 346.622 384.935C347.112 385.201 347.44 385.68 347.513 386.232C347.664 387.424 351.096 415.451 336.524 422.034C325.789 426.878 297.169 435.815 265.268 435.815Z" fill="black"/>
<path d="M150.247 359.57L197.867 338.435C197.867 338.435 220.143 401.675 306.013 393.081C306.013 393.081 319.992 423.175 306.419 429.305C292.841 435.43 194.492 467.013 150.247 359.57Z" fill="#FFC700"/>
<path d="M258.091 440.055C244.633 440.055 229.862 438.018 215.357 432.263C185.971 420.591 163.529 396.357 148.654 360.232C148.289 359.347 148.711 358.336 149.591 357.977C150.471 357.612 151.482 358.034 151.841 358.919C166.352 394.143 188.148 417.742 216.633 429.055C261.216 446.758 305.273 427.925 305.706 427.732C307.622 426.867 308.945 425.399 309.742 423.253C312.914 414.732 306.758 399.196 304.935 394.925C260.685 399.018 233.57 383.81 218.581 370.263C202.143 355.399 196.471 339.669 196.237 339.008C195.924 338.112 196.393 337.123 197.294 336.805C198.19 336.487 199.174 336.961 199.497 337.857C199.549 338.013 205.174 353.544 221.029 367.815C235.633 380.972 262.206 395.732 305.836 391.373C306.565 391.294 307.268 391.69 307.576 392.357C307.971 393.206 317.159 413.206 312.977 424.451C311.857 427.466 309.888 429.628 307.128 430.878C299.372 434.378 280.565 440.055 258.091 440.055Z" fill="black"/>
<path d="M199.555 179.909C200.596 179.956 201.43 179.076 201.315 178.029C200.784 173.06 199.195 163.742 203.945 159.56C210.039 154.201 220.185 146.05 224.117 151.039C227.565 155.409 231.049 164.279 239.372 167.576C240.174 167.893 240.253 169.05 239.898 169.831L238.154 174.253C237.753 175.122 238.102 177.159 238.477 178.044C239.633 180.805 242.305 186.555 241.784 187.763C240.773 190.117 231.68 194.315 231.68 194.315L237.695 222.425C237.924 223.492 238.638 225.258 239.685 224.997L250.794 225.826C250.794 225.826 250.102 241.055 226.487 245.258C195.628 250.758 191.57 230.055 191.57 230.055C191.57 230.055 221.737 229.581 208.602 196.685C208.315 195.966 207.654 195.445 206.893 195.331C203.956 194.888 195.841 193.289 194.299 188.065C192.664 182.524 195.977 179.753 199.555 179.909Z" fill="white"/>
<path d="M193.851 231.596C195.684 236.294 202.648 247.753 226.185 243.56C243.7 240.445 247.82 231.221 248.778 227.404L239.757 226.732C239.179 226.794 238.601 226.659 238.086 226.341C236.679 225.461 236.143 223.398 236.013 222.784L229.997 194.68C229.825 193.893 230.226 193.091 230.961 192.747C235.205 190.784 239.346 188.273 240.117 187.211C240.007 185.966 238.273 181.95 237.518 180.195C237.278 179.648 237.065 179.143 236.882 178.716C236.487 177.758 235.851 175.128 236.58 173.529L238.294 169.195C238.32 169.133 238.336 169.075 238.351 169.023C231.836 166.273 228.237 160.549 225.33 155.93C224.424 154.492 223.57 153.128 222.763 152.102C222.341 151.57 221.809 151.289 221.096 151.227C218.075 150.945 212.669 154.19 205.086 160.857C201.424 164.081 202.33 171.82 202.872 176.445C202.934 176.935 202.987 177.409 203.033 177.841C203.138 178.841 202.809 179.836 202.127 180.56C201.445 181.284 200.502 181.68 199.481 181.633C198.153 181.575 197.007 182.044 196.325 182.919C195.497 183.982 195.367 185.586 195.955 187.575C197.2 191.805 204.841 193.273 207.148 193.628C208.518 193.831 209.69 194.763 210.205 196.049C214.664 207.221 214.789 216.107 210.559 222.451C206.018 229.268 197.815 231.107 193.851 231.596ZM216.768 247.909C193.606 247.909 189.914 230.586 189.877 230.393C189.778 229.888 189.908 229.367 190.226 228.971C190.549 228.57 191.033 228.341 191.544 228.331C191.648 228.331 202.711 228.034 207.7 220.523C211.247 215.18 211.013 207.372 206.997 197.325C206.934 197.18 206.794 197.06 206.632 197.039C202.143 196.357 194.356 194.352 192.643 188.555C191.487 184.638 192.528 182.169 193.606 180.794C194.987 179.034 197.158 178.081 199.627 178.185C199.549 177.789 199.502 177.331 199.445 176.841C198.783 171.206 197.783 162.685 202.804 158.268C211.481 150.633 217.231 147.404 221.408 147.784C223.065 147.94 224.466 148.69 225.476 149.966C226.393 151.138 227.299 152.575 228.257 154.096C230.95 158.378 234.299 163.706 240.013 165.977C240.726 166.258 241.278 166.815 241.575 167.56C241.94 168.456 241.898 169.596 241.466 170.544L239.757 174.883C239.622 175.31 239.778 176.69 240.07 177.383C240.242 177.799 240.455 178.289 240.685 178.825C243.205 184.669 243.992 186.997 243.372 188.445C242.367 190.784 236.945 193.7 233.658 195.294L239.388 222.065C239.492 222.56 239.685 223.018 239.836 223.279L250.919 224.096C251.851 224.174 252.56 224.966 252.518 225.904C252.487 226.576 251.481 242.56 226.789 246.956C223.101 247.617 219.768 247.909 216.768 247.909Z" fill="black"/>
<path d="M689.606 426.82H714.424C762.257 426.82 801.393 387.69 801.393 339.862V271.263C801.393 223.435 762.257 184.3 714.424 184.3H689.606C641.773 184.3 602.638 223.435 602.638 271.263V339.862C602.638 387.69 641.773 426.82 689.606 426.82Z" fill="#202124"/>
<path d="M689.607 186.029C642.607 186.029 604.367 224.268 604.367 271.263V339.862C604.367 386.857 642.607 425.096 689.607 425.096H714.424C761.43 425.096 799.669 386.857 799.669 339.862V271.263C799.669 224.268 761.43 186.029 714.424 186.029H689.607ZM714.424 428.544H689.607C640.701 428.544 600.914 388.763 600.914 339.862V271.263C600.914 222.362 640.701 182.57 689.607 182.57H714.424C763.331 182.57 803.122 222.362 803.122 271.263V339.862C803.122 388.763 763.331 428.544 714.424 428.544Z" fill="black"/>
<path d="M751.039 809.216L747.492 843.279L724.617 845.982V805.586L751.039 809.216Z" fill="white"/>
<path d="M726.341 807.57V844.039L745.919 841.727L749.153 810.69L726.341 807.57ZM724.617 847.706C724.195 847.706 723.789 847.55 723.471 847.268C723.106 846.945 722.888 846.477 722.888 845.982V805.586C722.888 805.091 723.106 804.612 723.481 804.284C723.856 803.961 724.356 803.81 724.851 803.878L751.278 807.508C752.195 807.628 752.856 808.466 752.763 809.393L749.205 843.456C749.122 844.263 748.497 844.899 747.695 844.992L724.82 847.695C724.752 847.701 724.685 847.706 724.617 847.706Z" fill="black"/>
<path d="M721.013 905.284C730.549 906.638 746.19 907.826 764.544 905.263C770.549 904.43 774.529 898.555 773.081 892.628C769.039 876.091 762.081 844.711 750.122 830.169L747.164 838.05L743.06 830.628C742.497 829.612 741.487 828.925 740.346 828.779L731.367 827.633C729.487 827.393 727.742 828.643 727.357 830.508L725.924 837.346L720.45 828.383L718.018 861.878C717.502 869.055 716.419 876.185 714.799 883.19L712.346 893.758C711.622 899.341 715.471 904.503 721.013 905.284Z" fill="#898A8D"/>
<path d="M721.252 903.581C730.966 904.956 746.315 906.065 764.31 903.555C766.679 903.227 768.815 901.893 770.169 899.899C771.534 897.893 771.982 895.399 771.409 893.039L770.534 889.451C766.711 873.612 760.455 847.722 750.643 833.706L748.778 838.664C748.534 839.289 747.955 839.727 747.284 839.779C746.617 839.826 745.976 839.482 745.648 838.888L741.549 831.461C741.252 830.93 740.721 830.571 740.127 830.487L731.143 829.341C730.143 829.216 729.252 829.873 729.044 830.862L727.617 837.701C727.466 838.393 726.914 838.93 726.221 839.05C725.513 839.169 724.82 838.852 724.45 838.248L721.784 833.873L719.742 862.003C719.216 869.253 718.117 876.508 716.476 883.581L714.049 894.065C713.492 898.675 716.705 902.935 721.252 903.581ZM742.643 908.508C733.872 908.508 726.398 907.794 720.773 906.992C714.33 906.086 709.784 900.044 710.638 893.534C710.643 893.477 710.653 893.425 710.669 893.367L713.117 882.805C714.716 875.904 715.784 868.821 716.299 861.753L718.726 828.258C718.784 827.508 719.315 826.878 720.044 826.706C720.778 826.529 721.528 826.841 721.924 827.482L725.127 832.727L725.664 830.154C726.237 827.43 728.82 825.571 731.58 825.919L740.56 827.065C742.247 827.284 743.747 828.305 744.57 829.794L746.862 833.946L748.508 829.565C748.732 828.982 749.237 828.565 749.841 828.466C750.461 828.367 751.07 828.597 751.466 829.071C762.851 842.93 769.763 871.544 773.888 888.643L774.758 892.216C775.56 895.524 774.935 899.029 773.023 901.841C771.122 904.638 768.117 906.508 764.784 906.972C756.815 908.086 749.346 908.508 742.643 908.508Z" fill="black"/>
<path d="M741.935 898.388C730.242 898.388 723.122 895.877 722.685 895.721C721.794 895.398 721.325 894.409 721.648 893.508C721.976 892.617 722.966 892.148 723.862 892.476C724.033 892.534 739.06 897.768 761.221 892.685C762.164 892.466 763.08 893.049 763.294 893.982C763.502 894.904 762.924 895.831 761.997 896.044C754.388 897.789 747.622 898.388 741.935 898.388Z" fill="black"/>
<path d="M752.977 872.211C752.95 872.211 752.935 872.211 752.914 872.211L731.471 871.498C730.523 871.466 729.773 870.664 729.805 869.711C729.836 868.763 730.659 868.029 731.591 868.05L753.029 868.763C753.982 868.795 754.727 869.591 754.695 870.545C754.669 871.477 753.898 872.211 752.977 872.211Z" fill="black"/>
<path d="M643.898 791.076L640.471 840.784H612.95L611.669 791.076H643.898Z" fill="white"/>
<path d="M614.633 839.065H638.862L642.049 792.799H613.44L614.633 839.065ZM640.471 842.518H612.95C612.013 842.518 611.253 841.768 611.227 840.831L609.945 791.117C609.93 790.654 610.112 790.201 610.435 789.867C610.758 789.539 611.2 789.352 611.669 789.352H643.898C644.383 789.352 644.836 789.549 645.159 789.898C645.492 790.247 645.659 790.716 645.622 791.19L642.195 840.909C642.133 841.81 641.383 842.518 640.471 842.518Z" fill="black"/>
<path d="M647.664 868.857C647.732 873.555 644.544 877.685 639.997 878.753C624.174 882.461 588.523 890.716 578.357 892.242C565.159 894.227 548.945 890.154 541.971 882.378C534.997 874.607 557.586 856.044 568.305 849.289C584.226 839.263 599.523 819.435 605.94 818.544C612.351 817.654 624.331 836.388 624.331 836.388L643.898 828.112C643.898 828.112 647.315 845.003 647.664 868.857Z" fill="#4880FF"/>
<path d="M606.45 820.232C606.356 820.232 606.268 820.237 606.179 820.253C603.513 820.622 597.836 826.044 591.83 831.784C585.023 838.289 577.315 845.659 569.226 850.753C558.664 857.404 543.487 870.607 542.44 878.101C542.257 879.409 542.518 880.404 543.257 881.221C549.591 888.294 565.226 892.466 578.101 890.534C588.268 889.013 624.497 880.612 639.596 877.075C643.33 876.2 645.997 872.753 645.94 868.883C645.94 868.883 645.94 868.883 645.94 868.878C645.664 850.242 643.481 835.747 642.591 830.544L624.997 837.982C624.221 838.31 623.325 838.029 622.877 837.32C618.257 830.107 610.242 820.232 606.45 820.232ZM571.466 894.466C559.252 894.466 546.648 890.18 540.69 883.529C539.273 881.961 538.7 879.919 539.018 877.628C540.398 867.742 558.726 853.284 567.388 847.831C575.179 842.924 582.763 835.68 589.445 829.294C596.695 822.362 601.935 817.357 605.7 816.836C612.221 815.924 621.711 829.305 624.987 834.237L643.226 826.523C643.711 826.325 644.252 826.341 644.705 826.586C645.169 826.831 645.492 827.263 645.596 827.773C645.627 827.94 649.039 845.096 649.388 868.831C649.471 874.315 645.685 879.19 640.388 880.435C625.247 883.982 588.909 892.404 578.612 893.95C576.284 894.299 573.882 894.466 571.466 894.466Z" fill="black"/>
<path d="M571.654 882.273C562.992 882.273 555.237 880.846 549.638 877.174C548.841 876.648 548.612 875.586 549.143 874.784C549.659 873.987 550.737 873.763 551.523 874.289C571.815 887.591 626.091 867.831 636.768 863.737C637.654 863.393 638.654 863.841 638.997 864.727C639.336 865.622 638.893 866.612 638.008 866.961C626.695 871.299 595.685 882.273 571.654 882.273Z" fill="black"/>
<path d="M602.237 855.232C601.799 855.232 601.367 855.065 601.029 854.737L589.622 843.565C588.945 842.899 588.935 841.805 589.601 841.128C590.268 840.446 591.362 840.435 592.044 841.102L603.445 852.274C604.122 852.94 604.133 854.034 603.471 854.711C603.133 855.055 602.685 855.232 602.237 855.232Z" fill="black"/>
<path d="M751.924 421.914C751.924 421.914 767.378 622.393 771.841 676.039C776.299 729.695 756.586 815.675 756.586 815.675L718.914 813.685C718.914 813.685 716.81 737.831 714.237 697.242C713.581 686.826 712.206 662.409 708.372 652.706C702.638 638.201 693.909 613.633 690.471 590.852C685.148 555.649 667.029 500.034 667.029 500.034C667.029 500.034 647.836 791.862 646.419 813.669C646.419 813.669 618.945 816.289 606.997 808.722C606.997 808.722 584.471 692.117 587.513 637.055C590.555 581.992 591.721 416.685 591.721 416.685L751.924 421.914Z" fill="black"/>
<path d="M739.721 466.768C735.925 466.768 732.341 465.825 729.143 463.956C723.237 460.513 718.94 454.075 717.029 445.841C716.815 444.914 717.393 443.987 718.32 443.773C719.263 443.555 720.175 444.133 720.393 445.065C722.086 452.362 725.815 458.013 730.878 460.976C735.237 463.518 740.492 463.997 746.07 462.357C746.977 462.091 747.94 462.612 748.211 463.529C748.477 464.44 747.956 465.398 747.039 465.669C744.544 466.404 742.091 466.768 739.721 466.768Z" fill="#E8EAED"/>
<path d="M599.69 458.31C598.805 458.31 598.05 457.627 597.977 456.726C597.898 455.773 598.607 454.94 599.555 454.867C617.159 453.409 621.185 445.877 621.982 434.206C622.044 433.258 622.914 432.539 623.82 432.601C624.773 432.664 625.492 433.492 625.425 434.44C624.367 449.976 616.951 456.888 599.836 458.305C599.789 458.305 599.742 458.31 599.69 458.31Z" fill="#4880FF"/>
<path d="M838.107 165.065C831.367 157.805 828.825 137.612 832.549 126.81C835.429 118.456 844.336 97.8411 848.377 88.5703C849.669 85.6224 853.804 85.5026 855.268 88.3672C859.81 97.263 855.284 112.258 855.284 112.258C873.367 122.419 869.987 145.018 860.648 157.727C874.94 170.576 897.799 195.768 905.028 232.227C891.591 239.279 866.273 248.346 839.903 235.69C844.331 224.435 845.315 203.482 838.107 165.065Z" fill="white"/>
<path d="M842.07 234.794C866.711 245.888 890.372 237.727 903.081 231.289C896.013 197.617 875.534 173.43 859.492 159.008C858.836 158.419 858.732 157.419 859.258 156.706C865.19 148.633 867.81 137.794 865.93 129.081C864.482 122.388 860.617 117.232 854.435 113.758C853.732 113.367 853.398 112.534 853.633 111.753C853.674 111.612 857.898 97.3151 853.732 89.1537C853.351 88.4141 852.648 87.9922 851.799 88.013C850.982 88.0391 850.294 88.5026 849.961 89.263C846.18 97.9401 837.06 119.023 834.18 127.372C830.549 137.909 833.315 157.362 839.372 163.893C839.591 164.128 839.742 164.43 839.805 164.747C845.961 197.596 846.726 221.143 842.07 234.794ZM867.68 243.727C858.68 243.727 848.987 241.966 839.159 237.242C838.341 236.852 837.966 235.898 838.299 235.06C843.294 222.346 842.695 199.07 836.497 165.857C829.18 157.409 827.253 136.888 830.919 126.247C833.732 118.091 842.075 98.7057 846.799 87.8828C847.664 85.8984 849.539 84.6276 851.695 84.5599C853.857 84.4974 855.82 85.6537 856.805 87.5859C860.846 95.4974 858.315 107.466 857.294 111.44C863.617 115.372 867.758 121.19 869.305 128.357C871.279 137.529 868.789 148.789 862.935 157.471C879.388 172.539 899.883 197.414 906.721 231.893C906.872 232.638 906.508 233.404 905.836 233.753C897.398 238.18 883.633 243.727 867.68 243.727Z" fill="black"/>
<path d="M850.263 159.414C849.852 159.414 849.44 159.268 849.112 158.971C848.404 158.341 848.347 157.247 848.977 156.534C849.055 156.451 856.367 148.201 852.524 142.977C848.539 137.57 848.472 136.315 849.925 132.857C850.211 132.185 850.524 131.425 850.847 130.435C851.779 127.57 851.539 124.622 850.123 121.685C849.597 120.591 848.524 120.534 848.227 120.544C847.914 120.555 846.862 120.664 846.367 121.774L842.143 135.768C841.867 136.675 840.904 137.195 839.992 136.919C839.076 136.649 838.56 135.685 838.836 134.768L843.086 120.685C843.107 120.638 843.123 120.581 843.143 120.529C843.992 118.477 845.899 117.159 848.128 117.091C850.315 117.029 852.289 118.216 853.237 120.19C855.05 123.961 855.352 127.768 854.128 131.508C853.763 132.633 853.399 133.492 853.107 134.19C852.18 136.404 852.107 136.591 855.3 140.93C860.81 148.414 851.93 158.425 851.544 158.846C851.206 159.221 850.737 159.414 850.263 159.414Z" fill="black"/>
<path d="M499.096 66.0131L505.95 87.9558C508.205 94.7527 507.07 102.227 502.903 108.05L495.221 119.065C493.955 120.893 493.601 123.096 493.56 125.326C493.466 130.305 494.216 137.899 494.216 137.899L475.919 138.201C475.919 138.201 477.924 128.555 478.851 125.242C480.034 121.003 480.065 116.373 478.221 112.378C472.341 99.6694 474.06 86.9142 474.06 86.9142L486.591 90.2631C486.591 90.2631 490.471 83.6642 489.742 72.1433C489.565 69.3256 489.856 67.1798 490.424 65.5444C491.888 61.3308 497.992 61.6902 499.096 66.0131Z" fill="white"/>
<path d="M475.617 89.1173C475.414 93.0808 475.523 102.44 479.789 111.649C481.659 115.695 481.914 120.685 480.513 125.706C479.883 127.987 478.7 133.419 478.055 136.44L492.325 136.206C492.112 133.612 491.768 128.846 491.836 125.294C491.872 123.357 492.112 120.508 493.81 118.081L501.487 107.06C505.331 101.685 506.383 94.7527 504.31 88.4975L497.45 66.5288C497.445 66.4975 497.435 66.4715 497.43 66.4454C497.044 64.9298 495.794 64.3413 494.752 64.3048C494.279 64.2788 492.664 64.3517 492.055 66.1069C491.513 67.6798 491.315 69.6694 491.461 72.0392C492.216 83.9454 488.247 90.8465 488.081 91.1329C487.685 91.8048 486.904 92.1329 486.148 91.9246L475.617 89.1173ZM475.919 139.93C475.404 139.93 474.914 139.701 474.591 139.3C474.258 138.899 474.122 138.362 474.232 137.846C474.315 137.451 476.258 128.107 477.19 124.779C478.372 120.544 478.174 116.399 476.654 113.102C470.633 100.086 472.279 87.2267 472.346 86.685C472.414 86.1954 472.695 85.7527 473.107 85.4767C473.518 85.2058 474.029 85.1225 474.508 85.2475L485.664 88.2267C486.643 85.9402 488.534 80.3621 488.013 72.2527C487.836 69.4298 488.096 66.9767 488.794 64.9767C489.711 62.3517 492.117 60.7319 494.898 60.8517C497.742 60.9715 500.039 62.81 500.758 65.5392L507.596 87.435C510.008 94.7058 508.779 102.8 504.31 109.055L496.638 120.055C495.763 121.315 495.331 123.003 495.289 125.357C495.19 130.175 495.924 137.654 495.935 137.732C495.982 138.216 495.825 138.69 495.502 139.05C495.185 139.409 494.726 139.623 494.242 139.628L475.945 139.93C475.94 139.93 475.93 139.93 475.919 139.93Z" fill="black"/>
<path d="M906.94 241.839C906.56 238.427 906.034 235.109 905.393 231.88C891.956 238.932 866.638 248 840.268 235.344C838.143 240.75 835.221 243.932 832.029 245.719C818.107 253.547 796.013 226.453 752.581 210.708C733.836 203.917 728.721 202.432 715.534 199.568C704.773 197.224 689.742 193.932 667.992 194.177L671.044 198.302C652.211 198.339 635.154 201.026 621.336 204.297L621.346 204.281C605.362 206.052 557.2 227.339 529.122 198.51C501.055 169.682 499.664 131.37 499.664 131.37L472.195 129C472.195 129 453.289 173.938 472.909 226.312C492.56 278.75 585.742 297.839 589.294 298.547C587.648 341.052 582.977 385.01 580.237 408.151C579.294 416.156 586.075 422.938 594.07 421.948C650.143 415 728.919 431.198 756.799 437.604C762.466 438.901 767.977 434.807 768.305 429C769.904 400.729 764.461 347.818 758.56 301.589C816.893 312.281 870.57 340.271 902.409 285.354C911.456 269.734 908.034 251.698 906.94 241.839Z" fill="#4880FF"/>
<path d="M624.252 418.852C674.674 418.852 731.591 430.477 756.82 436.268C759.034 436.773 761.351 436.284 763.174 434.914C764.982 433.56 766.091 431.487 766.216 429.247C767.523 406.19 764.159 362.242 756.476 302.154C756.409 301.607 756.601 301.065 757.002 300.68C757.403 300.305 757.961 300.138 758.502 300.237C769.752 302.305 780.841 305.003 791.565 307.622C836.591 318.607 875.471 328.096 900.549 284.831C908.424 271.237 906.508 255.747 905.232 245.492C905.096 244.383 904.966 243.341 904.862 242.372C904.586 239.888 904.216 237.357 903.758 234.81C890.315 241.44 866.117 249.346 840.794 238.003C838.752 242.414 835.971 245.628 832.508 247.576C823.976 252.367 813.174 245.706 798.237 236.492C786.112 229.018 771.028 219.711 751.627 212.68C733.414 206.081 728.252 204.529 714.804 201.602C704.492 199.352 690.695 196.346 671.044 196.237L672.06 197.617C672.45 198.143 672.513 198.841 672.221 199.419C671.924 200.003 671.331 200.372 670.679 200.372C654.497 200.404 637.903 202.404 621.372 206.32C621.232 206.357 621.091 206.367 620.945 206.367C617.857 206.737 613.403 207.872 608.263 209.175C586.711 214.643 550.643 223.794 527.523 200.065C502.492 174.357 498.315 140.81 497.679 133.31L472.976 131.18C470.263 138.523 456.747 179.565 474.164 226.055C493.424 277.482 585.362 296.425 589.268 297.206C590.101 297.367 590.685 298.117 590.653 298.961C589.002 341.721 584.268 386.07 581.586 408.706C581.195 411.997 582.32 415.221 584.669 417.56C587.008 419.883 590.226 420.982 593.497 420.581C603.211 419.378 613.586 418.852 624.252 418.852ZM758.554 439.914C757.716 439.914 756.877 439.82 756.049 439.628C725.669 432.654 649.06 417.174 593.919 424.003C589.591 424.544 585.33 423.081 582.237 420.003C579.133 416.914 577.643 412.648 578.159 408.294C580.799 385.977 585.45 342.471 587.143 300.284C574.523 297.565 489.768 277.55 470.929 227.263C451.299 174.852 470.049 129.133 470.242 128.675C470.528 127.987 471.232 127.56 471.976 127.628L499.45 129.997C500.315 130.076 500.992 130.784 501.018 131.654C501.039 132.029 502.737 169.664 529.997 197.654C551.726 219.966 586.586 211.112 607.414 205.831C612.804 204.466 617.45 203.284 620.789 202.914C636.357 199.242 651.976 197.237 667.278 196.956L666.237 195.555C665.851 195.029 665.794 194.336 666.081 193.753C666.367 193.175 666.961 192.81 667.607 192.794C689.476 192.55 704.471 195.82 715.424 198.206C729.179 201.195 734.409 202.763 752.799 209.435C772.544 216.591 787.789 225.997 800.044 233.555C814.502 242.471 824.054 248.362 830.82 244.57C834.002 242.779 836.518 239.581 838.299 235.06C838.471 234.612 838.831 234.258 839.273 234.081C839.716 233.909 840.221 233.925 840.653 234.133C866.565 246.576 891.612 237.326 904.232 230.701C904.711 230.445 905.284 230.435 905.773 230.669C906.263 230.904 906.617 231.357 906.721 231.893C907.398 235.279 907.924 238.68 908.294 241.992C908.393 242.945 908.528 243.971 908.664 245.07C909.909 255.133 911.997 271.966 903.534 286.565C877.169 332.055 835.19 321.815 790.747 310.977C780.81 308.549 770.565 306.049 760.2 304.07C767.799 363.977 770.982 406.148 769.659 429.44C769.476 432.706 767.867 435.701 765.252 437.674C763.294 439.143 760.94 439.914 758.554 439.914Z" fill="black"/>
<path d="M678.409 136.362C678.409 136.362 683.336 117.727 685.68 114.148C688.018 110.565 689.659 106.961 679.841 102.909C670.029 98.862 644.325 87.9557 630.497 90.8412C616.674 93.7214 608.732 104.419 614.263 109.872C619.794 115.326 622.279 117.591 619.075 118.659C615.877 119.732 614.799 123.763 625.19 127.284C635.586 130.805 672.737 147.685 678.409 136.362Z" fill="black"/>
<path d="M644.757 204.873L642.507 178.138C626.487 173.758 630.31 162.445 630.856 153.909C631.45 144.722 634.862 124.357 634.862 124.357C648.221 128.972 671.221 122.169 671.221 122.169C671.221 122.169 668.935 128.195 671.398 130.445C673.856 132.701 674.69 143.07 674.69 143.07C674.69 143.07 678.08 138.3 683.153 140.404C686.013 141.591 684.591 149.393 683.341 153.862C682.096 158.331 677.825 160.018 677.825 160.018L689.211 202.513L706.554 210.279C666.034 235.419 637.851 220.852 628.7 211.393L644.757 204.873Z" fill="white"/>
<path d="M631.831 211.987C643.008 221.711 668.409 230.581 702.831 210.503L688.508 204.086C688.039 203.878 687.68 203.466 687.549 202.966L676.154 160.466C675.93 159.617 676.378 158.737 677.185 158.414C677.216 158.404 680.69 156.95 681.68 153.398C683.612 146.492 683.237 142.305 682.497 141.997C678.779 140.456 676.195 143.93 676.091 144.081C675.664 144.664 674.919 144.924 674.227 144.727C673.529 144.534 673.029 143.93 672.966 143.211C672.591 138.544 671.435 132.825 670.227 131.721C668.299 129.95 668.357 126.919 668.773 124.612C662.419 126.2 647.169 129.393 636.247 126.575C635.393 131.862 633.055 146.674 632.586 154.018C632.503 155.2 632.372 156.398 632.232 157.664C631.357 165.591 630.518 173.075 642.966 176.477C643.664 176.669 644.174 177.279 644.232 177.997L646.477 204.727C646.539 205.477 646.107 206.185 645.409 206.466L631.831 211.987ZM663.023 226.023C646.096 226.034 633.763 219.107 627.461 212.596C627.065 212.185 626.898 211.602 627.013 211.039C627.133 210.482 627.518 210.013 628.049 209.799L642.935 203.747L640.893 179.466C626.826 175.07 627.961 164.82 628.805 157.284C628.94 156.06 629.065 154.898 629.138 153.794C629.732 144.628 633.023 124.904 633.164 124.075C633.247 123.57 633.544 123.133 633.987 122.872C634.419 122.617 634.945 122.56 635.43 122.727C648.102 127.107 670.503 120.581 670.727 120.513C671.357 120.331 672.034 120.513 672.487 120.997C672.93 121.477 673.065 122.169 672.831 122.779C672.055 124.857 671.529 128.232 672.565 129.174C674.523 130.971 675.539 135.909 676.034 139.529C678.018 138.284 680.737 137.529 683.82 138.81C688.122 140.596 686.414 149.294 685.008 154.325C684.018 157.867 681.456 159.924 679.846 160.904L690.669 201.279L707.258 208.706C707.841 208.966 708.232 209.523 708.273 210.164C708.315 210.799 708.008 211.404 707.461 211.747C690.529 222.253 675.523 226.023 663.023 226.023Z" fill="black"/>
<path d="M650.825 180.758C648.237 180.758 645.362 180.477 642.169 179.836C641.237 179.648 640.633 178.737 640.82 177.799C641.013 176.867 641.924 176.263 642.857 176.45C665.956 181.096 669.95 165.586 670.107 164.919C670.325 163.997 671.258 163.419 672.185 163.643C673.112 163.867 673.69 164.794 673.461 165.721C673.424 165.893 669.617 180.758 650.825 180.758Z" fill="black"/>
<path d="M739.56 198.638C739.56 198.638 750.367 336.55 780.294 351.826L768.221 368.206C768.221 368.206 702.018 311.399 721.346 196.346L739.56 198.638Z" fill="#202124"/>
<path d="M722.783 198.263C713.388 256.409 726.419 299.044 739.086 324.659C750.57 347.888 763.757 361.591 767.976 365.628L777.773 352.336C749.924 333.596 739.216 215.284 737.955 200.175L722.783 198.263ZM768.221 369.93C767.81 369.93 767.414 369.789 767.101 369.518C766.414 368.93 750.117 354.758 735.992 326.185C722.976 299.878 709.586 255.945 719.648 196.06C719.799 195.143 720.658 194.518 721.565 194.633L739.778 196.925C740.591 197.029 741.216 197.685 741.278 198.497C741.393 199.867 752.346 335.628 781.075 350.289C781.533 350.518 781.856 350.935 781.976 351.43C782.091 351.919 781.987 352.44 781.685 352.852L769.612 369.232C769.325 369.622 768.893 369.867 768.419 369.925C768.351 369.93 768.289 369.93 768.221 369.93Z" fill="black"/>
<path d="M446.008 96.9037C445.763 96.9037 445.518 96.8568 445.289 96.7474C444.419 96.3516 444.039 95.3255 444.44 94.461L474.503 28.8255C474.898 27.9557 475.919 27.5755 476.794 27.9714C477.659 28.3672 478.034 29.3932 477.643 30.2578L447.581 95.8985C447.289 96.5339 446.659 96.9037 446.008 96.9037Z" fill="white"/>
<path d="M419.716 106.956C418.768 106.956 417.992 106.18 417.992 105.232C417.992 94.2475 405.31 43.1589 405.18 42.6381C404.95 41.7162 405.513 40.7787 406.44 40.5495C407.362 40.3204 408.299 40.8829 408.529 41.81C409.06 43.9245 421.44 93.8308 421.44 105.232C421.44 106.18 420.669 106.956 419.716 106.956Z" fill="white"/>
<path d="M704.68 954.857H627.445C627.445 954.846 627.435 954.831 627.424 954.82C626.956 954.06 626.466 953.289 625.997 952.518C624.638 950.336 623.294 948.133 621.945 945.935C620.602 943.732 619.253 941.518 617.93 939.3C617.279 938.195 616.607 937.096 615.956 935.987C615.284 934.872 614.628 933.768 613.982 932.659C613.034 931.029 612.076 929.404 611.133 927.774C609.518 924.977 607.935 922.19 606.393 919.43C605.477 917.8 604.565 916.154 603.674 914.534C602.779 912.899 601.893 911.284 601.039 909.68C600.466 908.607 599.904 907.539 599.341 906.466C599.049 905.94 598.779 905.404 598.513 904.878C598.232 904.352 597.956 903.82 597.695 903.305C597.112 902.175 596.534 901.044 595.971 899.935V899.925C595.674 899.346 595.378 898.758 595.091 898.18C595.091 898.169 595.091 898.159 595.091 898.159C595.07 898.122 595.06 898.102 595.034 898.065C594.862 897.732 594.706 897.388 594.544 897.06C594.284 896.539 594.034 896.024 593.779 895.518C593.68 895.315 593.586 895.122 593.497 894.925C593.091 894.102 592.706 893.284 592.32 892.461C592.081 891.971 591.841 891.466 591.612 890.966C591.268 890.232 590.919 889.497 590.586 888.774C590.471 888.508 590.341 888.247 590.232 887.987C589.789 887.008 589.352 886.034 588.93 885.065C588.487 884.096 588.076 883.149 587.685 882.19C587.477 881.721 587.284 881.253 587.086 880.789C585.914 877.971 584.857 875.247 583.909 872.622C583.659 871.909 583.419 871.195 583.174 870.503C581.82 866.497 580.758 862.763 580.055 859.331C579.919 858.596 579.779 857.883 579.664 857.18C573.591 820.32 558.539 702.065 551.247 644.018C548.737 624.076 547.148 611.237 547.148 611.237C547.148 611.237 552.133 610.643 561.049 609.56C568.617 608.638 579.034 607.378 591.643 605.831C591.643 605.831 640.596 590.044 648.341 620.675C648.971 623.154 650.284 626.94 651.977 633.216C657.013 651.846 665.393 692.508 669.122 786.763C669.43 794.581 669.982 802.065 670.727 809.253C670.831 810.279 670.951 811.3 671.065 812.315C671.487 816.039 671.956 819.701 672.492 823.274C672.638 824.326 672.799 825.372 672.961 826.419C673.154 827.68 673.352 828.925 673.555 830.169C673.732 831.195 673.904 832.206 674.076 833.227C674.435 835.268 674.799 837.279 675.195 839.279C675.357 840.164 675.529 841.055 675.711 841.94C675.857 842.742 676.034 843.544 676.19 844.341C676.576 846.18 676.956 847.992 677.357 849.794C677.721 851.524 678.117 853.232 678.518 854.935C679.102 857.503 679.716 860.034 680.346 862.544C680.763 864.221 681.174 865.878 681.612 867.544C681.659 867.695 681.69 867.846 681.727 867.992C682.117 869.508 682.513 871.008 682.914 872.503C683.049 873.013 683.185 873.503 683.32 874.013C683.846 875.966 684.372 877.925 684.93 879.883C684.935 879.914 684.935 879.951 684.945 879.987C685.388 881.57 685.836 883.169 686.279 884.758C686.742 886.388 687.206 888.013 687.669 889.622C688.128 891.247 688.586 892.857 689.06 894.482C689.091 894.581 689.117 894.685 689.138 894.779C689.977 897.721 690.831 900.669 691.68 903.622C691.966 904.617 692.247 905.602 692.534 906.591C693.372 909.55 694.211 912.529 695.055 915.524C697.039 922.664 698.977 929.909 700.784 937.367C700.987 938.227 701.195 939.107 701.398 939.971C701.654 941.003 701.898 942.06 702.138 943.117C702.32 943.888 702.497 944.664 702.664 945.43C702.977 946.789 703.279 948.149 703.565 949.518C703.919 951.149 704.263 952.805 704.596 954.477C704.622 954.596 704.659 954.732 704.68 954.857Z" fill="white"/>
<path d="M704.679 956.586C703.815 956.586 703.101 955.951 702.971 955.122C702.935 954.945 702.914 954.862 702.898 954.779C702.575 953.159 702.237 951.508 701.877 949.883C701.591 948.508 701.294 947.164 700.987 945.815L700.945 945.628C700.789 944.924 700.627 944.216 700.461 943.529C700.216 942.451 699.976 941.409 699.726 940.378C699.528 939.487 699.325 938.643 699.107 937.794C697.482 931.081 695.664 924.159 693.393 915.987C692.56 912.997 691.721 910.023 690.872 907.076C690.596 906.081 690.31 905.102 690.028 904.128C689.185 901.159 688.341 898.227 687.492 895.305C687.482 895.279 687.466 895.211 687.461 895.185L687.414 895.013L686.008 890.096C685.544 888.487 685.086 886.857 684.622 885.221C684.388 884.404 684.159 883.57 683.929 882.742L683.289 880.451C683.284 880.414 683.263 880.362 683.252 880.31C682.716 878.372 682.179 876.419 681.648 874.461C681.539 874.034 681.429 873.638 681.325 873.237L680.054 868.43C680.023 868.273 679.997 868.169 679.961 868.06C679.513 866.315 679.091 864.638 678.669 862.956C678.028 860.404 677.409 857.831 676.836 855.326C676.44 853.617 676.049 851.898 675.669 850.164C675.268 848.357 674.883 846.544 674.502 844.69L673.831 841.331C673.716 840.747 673.601 840.169 673.492 839.591C673.107 837.596 672.737 835.576 672.377 833.523L671.857 830.456C671.648 829.201 671.45 827.956 671.258 826.685C671.096 825.643 670.935 824.586 670.784 823.523C670.268 820.076 669.789 816.367 669.346 812.513C669.232 811.487 669.112 810.456 669.018 809.43C668.237 801.982 667.69 794.372 667.393 786.831C664.627 716.898 658.877 665.362 650.31 633.664C649.351 630.117 648.523 627.388 647.857 625.201C647.351 623.529 646.95 622.206 646.669 621.096C645.122 614.977 641.664 610.393 636.388 607.471C620.299 598.565 592.45 607.388 592.169 607.471C592.07 607.508 591.961 607.529 591.851 607.549C579.622 609.044 569.461 610.273 561.956 611.19L561.258 611.273C555.403 611.987 551.242 612.487 549.075 612.742C549.586 616.867 550.992 628.143 552.961 643.799C559.435 695.336 575.169 819.279 581.372 856.904C581.466 857.471 581.57 858.055 581.685 858.643L581.758 859.013C582.409 862.221 583.44 865.914 584.81 869.951L585.534 872.044C586.476 874.648 587.534 877.367 588.674 880.128L588.836 880.497C588.976 880.826 589.117 881.164 589.268 881.503C589.664 882.471 590.075 883.409 590.502 884.357C590.919 885.336 591.351 886.284 591.789 887.253L591.924 887.549C592.008 887.727 592.091 887.904 592.164 888.086C592.44 888.68 592.742 889.315 593.034 889.961L593.174 890.237C593.398 890.727 593.633 891.227 593.872 891.711C594.263 892.544 594.648 893.352 595.044 894.174C595.138 894.367 595.216 894.539 595.304 894.706C595.57 895.268 595.815 895.768 596.081 896.268L596.206 896.529C596.32 896.779 596.44 897.034 596.57 897.279C596.581 897.305 596.596 897.331 596.607 897.357C596.617 897.378 596.627 897.393 596.638 897.414L596.846 897.831C597.065 898.263 597.278 898.695 597.502 899.122C597.523 899.169 597.544 899.216 597.565 899.263C598.107 900.341 598.653 901.424 599.226 902.503L599.372 902.799C599.581 903.211 599.799 903.633 600.023 904.06C600.31 904.622 600.575 905.128 600.857 905.638C601.414 906.716 601.976 907.779 602.554 908.852C603.362 910.372 604.19 911.878 605.023 913.398L605.19 913.701C606.065 915.32 606.971 916.951 607.893 918.586C609.435 921.341 611.018 924.122 612.627 926.909L613.294 928.055C614.018 929.294 614.732 930.539 615.471 931.784C616.117 932.893 616.768 933.987 617.435 935.102C618.086 936.206 618.747 937.31 619.409 938.404C620.695 940.57 621.997 942.706 623.304 944.846L623.419 945.039C624.763 947.242 626.107 949.424 627.461 951.612C627.815 952.185 628.169 952.747 628.518 953.315L628.888 953.909C629.388 954.721 629.143 955.779 628.336 956.289C627.523 956.789 626.461 956.539 625.956 955.727L625.591 955.138C625.237 954.57 624.877 953.992 624.523 953.419C623.169 951.237 621.82 949.049 620.471 946.836L620.357 946.643C619.044 944.497 617.737 942.341 616.445 940.185C615.784 939.086 615.122 937.977 614.471 936.867C613.799 935.753 613.143 934.643 612.492 933.534C611.763 932.289 611.028 931.034 610.31 929.789L609.638 928.638C608.023 925.836 606.429 923.039 604.883 920.273C603.95 918.622 603.039 916.982 602.159 915.346L601.997 915.055C601.153 913.518 600.32 912.003 599.513 910.482C598.935 909.409 598.362 908.336 597.81 907.268C597.528 906.742 597.242 906.195 596.971 905.648C596.747 905.253 596.523 904.805 596.299 904.362L596.159 904.091C595.57 902.966 594.992 901.831 594.424 900.706C594.414 900.674 594.398 900.638 594.377 900.607C594.164 900.195 593.961 899.779 593.758 899.367L593.575 899.013C593.539 898.945 593.502 898.872 593.466 898.789C593.336 898.534 593.216 898.273 593.091 898.018L592.987 897.805C592.732 897.31 592.471 896.773 592.226 896.258C592.143 896.102 592.039 895.883 591.935 895.664C591.539 894.841 591.138 894.018 590.758 893.195C590.523 892.721 590.278 892.201 590.044 891.701L589.914 891.424C589.612 890.773 589.31 890.133 589.018 889.492C588.935 889.305 588.862 889.148 588.794 888.997L588.653 888.701C588.195 887.685 587.758 886.716 587.341 885.747C586.909 884.794 586.487 883.815 586.091 882.846C585.95 882.539 585.799 882.185 585.659 881.841L585.497 881.466C584.32 878.643 583.247 875.867 582.289 873.206L581.549 871.076C580.122 866.888 579.06 863.06 578.362 859.68L578.289 859.284C578.174 858.664 578.06 858.06 577.961 857.461C571.752 819.779 556.018 695.789 549.534 644.232C547.023 624.289 545.44 611.451 545.44 611.451C545.383 610.997 545.508 610.534 545.789 610.174C546.07 609.815 546.492 609.581 546.945 609.529C546.945 609.529 551.929 608.93 560.841 607.846L561.534 607.763C569.013 606.852 579.117 605.622 591.268 604.138C593.862 603.326 621.159 595.096 638.065 604.456C644.206 607.857 648.221 613.164 650.013 620.247C650.273 621.279 650.664 622.565 651.164 624.195C651.836 626.414 652.674 629.164 653.643 632.763C662.278 664.706 668.07 716.497 670.846 786.695C671.138 794.164 671.674 801.69 672.445 809.076C672.549 810.096 672.664 811.117 672.778 812.122C673.211 815.935 673.69 819.607 674.195 823.023C674.346 824.086 674.502 825.128 674.664 826.148C674.862 827.414 675.06 828.648 675.263 829.888L675.778 832.94C676.127 834.961 676.497 836.961 676.888 838.951C676.992 839.534 677.107 840.096 677.216 840.654L677.888 844.003C678.263 845.826 678.638 847.622 679.044 849.419C679.419 851.148 679.81 852.857 680.2 854.549C680.763 857.039 681.383 859.586 682.023 862.117C682.435 863.805 682.857 865.466 683.284 867.117C683.32 867.227 683.367 867.414 683.403 867.602L684.648 872.326C684.768 872.753 684.888 873.169 684.992 873.591C685.508 875.529 686.054 877.477 686.591 879.414C686.607 879.471 686.617 879.529 686.627 879.586L687.252 881.82C687.482 882.643 687.716 883.466 687.945 884.289C688.403 885.924 688.862 887.544 689.325 889.148L690.716 894.008C690.742 894.081 690.778 894.216 690.804 894.336C691.653 897.279 692.502 900.211 693.336 903.154C693.633 904.154 693.919 905.138 694.19 906.128C695.044 909.076 695.883 912.06 696.716 915.06C699.002 923.273 700.825 930.227 702.456 936.961C702.674 937.82 702.888 938.701 703.091 939.591C703.336 940.602 703.581 941.669 703.82 942.732C703.987 943.424 704.148 944.154 704.31 944.878L704.351 945.055C704.659 946.414 704.966 947.784 705.252 949.164C705.607 950.789 705.956 952.456 706.294 954.133L706.325 954.279C706.346 954.372 706.367 954.466 706.383 954.549C706.398 954.654 706.409 954.753 706.409 954.857C706.409 955.81 705.633 956.586 704.679 956.586Z" fill="black"/>
<path d="M595.32 946.914C595.195 949.55 595.034 952.195 594.862 954.857H524.888C523.982 952.195 523.07 949.492 522.164 946.742C521.747 945.497 521.336 944.232 520.919 942.966C519.232 937.852 517.534 932.591 515.846 927.211C515.607 926.44 515.362 925.669 515.122 924.899C509.253 906.143 503.466 886.003 498.43 865.513C498.06 864.018 497.701 862.524 497.346 861.024C496.576 857.826 495.841 854.617 495.117 851.419C494.904 850.508 494.701 849.596 494.503 848.69C493.852 845.768 493.227 842.836 492.617 839.925C492.315 838.477 492.018 837.013 491.732 835.555C490.695 830.388 489.732 825.247 488.841 820.112C488.659 819.102 488.497 818.091 488.341 817.086C488.258 816.664 488.19 816.227 488.117 815.8C487.956 814.872 487.805 813.935 487.669 813.003C487.622 812.727 487.576 812.466 487.544 812.201C487.383 811.258 487.247 810.331 487.107 809.404C486.867 807.794 486.622 806.19 486.404 804.602C486.195 803.154 486.003 801.716 485.82 800.289C485.659 799.06 485.508 797.841 485.362 796.622C485.232 795.607 485.112 794.596 484.997 793.596C484.805 791.909 484.622 790.211 484.461 788.544C484.299 787.07 484.164 785.612 484.039 784.164C483.888 782.518 483.747 780.883 483.628 779.253C483.57 778.56 483.513 777.872 483.482 777.19C483.424 776.503 483.378 775.815 483.341 775.122C483.263 773.992 483.206 772.867 483.148 771.763C483.112 771.107 483.081 770.451 483.055 769.805C482.987 768.57 482.94 767.352 482.909 766.159C482.862 764.758 482.826 763.352 482.805 761.961C482.768 760.44 482.758 758.925 482.758 757.414C482.758 755.445 482.784 753.503 482.826 751.565C483.654 718.326 491.456 647.732 501.867 603.393C502.445 600.919 503.029 598.539 503.633 596.237L561.049 609.56L592.367 616.831C591.216 623.31 590.055 631.69 588.919 641.289C583.055 690.857 578.148 772.68 582.336 790.05C586.982 809.346 590.971 832.336 593.461 858.159C593.461 858.195 593.471 858.216 593.471 858.253C594.737 871.435 595.596 885.372 595.971 899.925C596.336 914.956 596.174 930.675 595.32 946.914Z" fill="white"/>
<path d="M595.195 956.581C595.185 956.581 595.174 956.581 595.159 956.581C594.205 956.56 593.45 955.774 593.471 954.821C594.461 904.628 592.544 841.336 586.976 817.477C579.075 783.597 577.388 749.3 581.961 715.545L584.2 698.966C584.33 698.024 585.211 697.362 586.148 697.492C587.086 697.617 587.752 698.487 587.622 699.43L585.377 716.003C580.862 749.347 582.528 783.227 590.341 816.696C595.971 840.831 597.914 904.482 596.924 954.888C596.898 955.831 596.133 956.581 595.195 956.581Z" fill="black"/>
<path d="M524.888 956.586C524.091 956.586 523.414 956.044 523.221 955.31C522.325 952.68 521.424 950.003 520.523 947.289L519.278 943.508C517.627 938.513 515.919 933.201 514.2 927.727L513.471 925.409C506.987 904.675 501.362 884.659 496.752 865.925L495.669 861.425C494.893 858.221 494.159 855.008 493.429 851.8L493.377 851.576C493.19 850.732 492.997 849.893 492.815 849.055C492.159 846.138 491.539 843.195 490.924 840.279L490.757 839.43C490.513 838.253 490.273 837.07 490.039 835.888C488.971 830.581 487.997 825.367 487.143 820.404C486.971 819.404 486.799 818.378 486.632 817.362C486.56 816.987 486.492 816.565 486.424 816.143C486.252 815.149 486.101 814.201 485.961 813.258L485.95 813.169C485.903 812.914 485.867 812.669 485.83 812.425C485.679 811.534 485.539 810.596 485.403 809.659L485.346 809.284C485.117 807.794 484.898 806.315 484.695 804.846C484.487 803.393 484.294 801.961 484.106 800.513C483.945 799.279 483.794 798.055 483.643 796.831C483.518 795.836 483.403 794.841 483.294 793.857C483.091 792.091 482.903 790.388 482.742 788.716C482.58 787.248 482.44 785.774 482.315 784.31C482.164 782.659 482.023 781.018 481.909 779.373C481.851 778.69 481.804 778.008 481.757 777.31C481.705 776.623 481.659 775.919 481.622 775.206C481.544 774.107 481.481 772.971 481.424 771.862L481.414 771.664C481.388 771.06 481.351 770.461 481.33 769.867C481.263 768.659 481.216 767.419 481.185 766.211C481.132 764.789 481.096 763.388 481.08 761.987C481.039 760.456 481.028 758.935 481.028 757.414C481.028 755.43 481.06 753.477 481.096 751.529C481.987 715.945 490.044 646.19 500.19 602.998C500.752 600.565 501.351 598.138 501.955 595.8C502.19 594.899 503.101 594.346 504.018 594.56L592.752 615.149C593.685 615.367 594.263 616.294 594.049 617.221C593.83 618.149 592.903 618.727 591.976 618.508L504.877 598.3C504.424 600.096 503.981 601.935 503.544 603.784C492.935 648.982 485.336 720.346 484.554 751.617C484.507 753.529 484.481 755.461 484.481 757.414C484.481 758.904 484.492 760.404 484.528 761.919C484.554 763.315 484.586 764.695 484.632 766.102C484.664 767.294 484.711 768.498 484.778 769.706C484.799 770.32 484.83 770.899 484.862 771.482L484.872 771.675C484.929 772.774 484.987 773.883 485.065 774.998C485.096 775.701 485.148 776.378 485.2 777.044C485.252 777.758 485.289 778.425 485.346 779.107C485.466 780.753 485.606 782.373 485.752 784.008C485.877 785.451 486.013 786.899 486.174 788.357C486.336 790.034 486.518 791.721 486.716 793.393C486.836 794.44 486.95 795.425 487.07 796.409C487.221 797.623 487.367 798.841 487.528 800.065C487.711 801.503 487.903 802.919 488.117 804.362C488.315 805.826 488.534 807.289 488.757 808.768L488.815 809.149C488.95 810.07 489.086 810.977 489.242 811.914C489.278 812.18 489.32 812.388 489.351 812.596L489.372 812.721C489.507 813.675 489.659 814.591 489.82 815.508C489.898 815.982 489.961 816.383 490.034 816.774C490.2 817.826 490.372 818.826 490.544 819.82C491.398 824.748 492.362 829.93 493.419 835.216C493.653 836.399 493.898 837.565 494.138 838.742L494.31 839.581C494.914 842.477 495.534 845.399 496.185 848.315C496.367 849.154 496.554 849.982 496.742 850.81L496.799 851.034C497.518 854.227 498.257 857.43 499.023 860.617L500.106 865.107C504.695 883.768 510.299 903.711 516.768 924.383L517.487 926.685C519.211 932.149 520.914 937.445 522.56 942.43L523.799 946.201C524.705 948.945 525.617 951.649 526.523 954.294C526.586 954.477 526.617 954.664 526.617 954.857C526.617 955.81 525.841 956.586 524.888 956.586Z" fill="black"/>
<path d="M712.601 664.867C712.992 666.893 710.732 670.404 710.737 672.018C710.763 677.862 718.07 687.174 723.549 693.331C727.903 698.232 729.919 704.841 728.961 711.362C728.737 712.898 728.409 714.56 728.049 716.346C727.221 720.445 728.216 722.836 729.836 724.211C733.023 726.914 737.966 725.049 739.028 720.982C741.357 712.086 745.763 693.596 744.211 686.617C743.2 682.018 738.685 675.539 734.357 670.133C730.096 664.815 728.336 657.914 729.377 651.154C732.982 627.768 730.211 557.508 722.148 507.273L680.877 522.747C680.877 522.747 698.2 590.117 712.601 664.867Z" fill="white"/>
<path d="M714.294 664.544C714.622 666.201 713.851 668.133 713.185 669.836C712.893 670.56 712.461 671.654 712.461 672.003C712.476 676.065 716.872 683.232 724.836 692.18C729.57 697.508 731.695 704.586 730.669 711.612C730.44 713.201 730.096 714.919 729.742 716.685C729.154 719.622 729.56 721.706 730.956 722.898C731.93 723.721 733.211 723.966 734.476 723.565C735.904 723.117 736.987 721.987 737.362 720.544C741.695 703.961 743.581 691.727 742.529 686.987C741.758 683.471 738.461 678.018 733.013 671.211C728.497 665.576 726.555 658.169 727.674 650.893C731.128 628.456 728.794 560.982 720.773 509.633L682.93 523.825C685.565 534.2 701.226 596.701 714.294 664.544ZM733.305 727.206C731.638 727.206 730.013 726.622 728.716 725.523C727.049 724.107 725.289 721.305 726.357 716.008C726.706 714.289 727.034 712.612 727.253 711.112C728.133 705.096 726.315 699.034 722.258 694.477C713.492 684.617 709.029 677.065 709.013 672.018C709.008 671.008 709.456 669.878 709.971 668.565C710.393 667.492 711.039 665.867 710.909 665.195C696.68 591.346 679.372 523.846 679.206 523.18C678.982 522.32 679.445 521.445 680.268 521.128L721.539 505.659C722.029 505.477 722.565 505.523 723.013 505.784C723.466 506.039 723.768 506.492 723.851 507.003C732.185 558.893 734.622 628.435 731.086 651.414C730.107 657.747 731.794 664.169 735.7 669.049C741.57 676.378 744.997 682.164 745.904 686.237C747.492 693.435 743.325 711.372 740.7 721.419C740.023 724.013 738.081 726.049 735.518 726.857C734.789 727.091 734.039 727.206 733.305 727.206Z" fill="black"/>
<path d="M524.664 374.971C512.534 361.336 435.294 292.253 437.716 285.529L446.081 225.331C447.43 216.206 446.893 206.893 444.518 197.982L436.695 174.232C435.372 170.201 429.414 171.164 429.435 175.414L429.487 187.633C429.487 187.633 425.477 187.586 423.805 186.914C420.133 185.435 417.425 182.258 416.19 178.503C414.763 174.154 412.425 167.206 411.419 165.294C409.93 162.445 408.227 158.331 405.044 156.477L404.945 156.419C401.602 154.518 397.518 157.253 398.013 161.065L399.706 174.279C400.935 183.867 405.195 192.815 411.872 199.81L425.096 213.68C427.55 216.247 428.211 220.029 426.789 223.284L402.492 278.716C397.003 291.518 395.409 303.669 398.591 311.732C415.175 353.737 501.633 421.211 501.633 421.211L524.664 374.971Z" fill="white"/>
<path d="M402.607 157.534C402.044 157.534 401.492 157.701 401.002 158.034C400.055 158.669 399.581 159.721 399.726 160.846L401.414 174.06C402.607 183.346 406.653 191.841 413.117 198.617L426.346 212.487C429.284 215.565 430.081 220.076 428.367 223.977L404.07 279.414C398.653 292.044 397.242 303.602 400.195 311.096C415.164 348.997 488.987 408.935 501.039 418.539L522.591 375.258C518.153 370.477 507.805 360.638 495.94 349.357C448.263 304.029 434.997 289.857 436.023 285.195L444.372 225.091C445.69 216.133 445.18 207.159 442.851 198.43L435.06 174.768C434.669 173.57 433.648 173.289 432.836 173.419C432.023 173.555 431.153 174.143 431.159 175.404L431.216 187.628C431.216 188.086 431.034 188.534 430.706 188.862C430.377 189.185 429.94 189.367 429.471 189.362C428.747 189.352 425.039 189.268 423.164 188.508C419.133 186.893 415.987 183.44 414.549 179.039C412.294 172.148 410.591 167.435 409.888 166.091C409.68 165.685 409.466 165.253 409.242 164.81C407.945 162.232 406.471 159.305 404.169 157.966C403.659 157.674 403.127 157.534 402.607 157.534ZM501.633 422.94C501.252 422.94 500.877 422.81 500.57 422.57C497.028 419.805 413.555 354.326 396.987 312.367C393.7 304.029 395.127 291.518 400.903 278.039L425.211 222.591C426.357 219.966 425.825 216.94 423.846 214.872L410.622 200.997C403.643 193.685 399.278 184.523 397.992 174.497L396.299 161.289C395.987 158.867 397.055 156.518 399.081 155.164C401.107 153.805 403.685 153.716 405.794 154.919C405.805 154.924 405.903 154.982 405.909 154.987C409.096 156.836 410.888 160.398 412.325 163.263C412.539 163.685 412.747 164.102 412.945 164.487C413.971 166.445 416.164 172.898 417.831 177.961C418.956 181.393 421.362 184.076 424.445 185.315C425.081 185.57 426.456 185.737 427.758 185.836L427.711 175.419C427.695 172.68 429.575 170.456 432.284 170.018C434.982 169.576 437.482 171.091 438.336 173.69L446.159 197.445C448.638 206.727 449.174 216.169 447.789 225.581L439.424 285.763C439.414 285.82 439.403 285.883 439.393 285.935C440.049 291.456 476.502 326.112 498.32 346.857C510.997 358.919 521.956 369.331 525.95 373.82C526.419 374.346 526.523 375.107 526.206 375.737L503.18 421.982C502.945 422.445 502.523 422.779 502.013 422.893C501.888 422.924 501.758 422.94 501.633 422.94Z" fill="black"/>
<path d="M680.844 538.381L680.848 538.387C681.408 539.034 682.299 539.174 682.985 538.774L682.99 538.771L725.87 513.959C728.899 512.206 730.432 508.656 729.629 505.218C729.629 505.216 729.628 505.215 729.628 505.214L731.575 504.758C731.159 502.998 730.688 500.841 730.146 498.363C724.2 471.157 709.811 405.317 667.674 402.419L680.844 538.381ZM680.844 538.381C677.554 534.607 674.701 529.823 672.383 525.936M680.844 538.381L672.383 525.936M672.383 525.936C672.229 525.677 672.076 525.422 671.927 525.171M672.383 525.936L671.927 525.171M671.927 525.171C670.771 523.237 669.693 521.462 668.796 520.361M671.927 525.171L668.796 520.361M668.796 520.361C668.562 520.073 668.307 519.79 668.034 519.545M668.796 520.361L668.034 519.545M668.034 519.545C667.777 519.314 667.409 519.029 666.942 518.851M668.034 519.545L666.942 518.851M666.942 518.851C666.432 518.656 665.715 518.563 664.984 518.912M666.942 518.851L664.984 518.912M664.984 518.912C664.31 519.234 663.945 519.783 663.753 520.176L664.984 518.912ZM516.188 542.552C523.373 510.949 531.224 476.714 533.92 466.03L513.323 647.511C513.323 647.512 513.322 647.512 513.321 647.512C511.762 648.043 510.126 646.848 510.19 645.136L512.919 618.556L512.92 618.548L512.92 618.541C513.471 612.759 510.404 608.267 507.503 605.374C506.034 603.909 504.543 602.786 503.422 602.029C503.208 601.885 503.006 601.753 502.819 601.634C503.011 600.785 503.284 599.573 503.629 598.04C504.351 594.837 505.389 590.236 506.651 584.647C509.175 573.471 512.597 558.346 516.188 542.552Z" fill="#898A8D" stroke="black" stroke-width="4"/>
<path d="M533.346 546.763C529.825 542.534 520.159 520.602 520.778 507.523C515.732 517.956 506.325 554.695 524.903 574.372C551.857 604.633 533.346 546.763 533.346 546.763Z" fill="#E8EAED"/>
<path d="M519.607 515.424C514.971 530.242 511.325 557.477 526.159 573.19C534.435 582.482 536.653 581.372 536.742 581.325C539.679 579.648 536.565 562.591 531.799 547.591C528.763 543.622 521.679 528.362 519.607 515.424ZM536.372 584.872C533.325 584.872 529.273 581.867 523.617 575.529C504.638 555.419 513.752 518.096 519.221 506.773C519.58 506.034 520.403 505.654 521.2 505.852C521.992 506.055 522.539 506.789 522.502 507.607C521.898 520.346 531.575 541.945 534.679 545.659C534.82 545.831 534.929 546.029 534.997 546.237C537.534 554.19 545.294 580.419 538.45 584.32C537.815 584.685 537.122 584.872 536.372 584.872Z" fill="black"/>
<path d="M612.992 425.503C595.831 418.321 575.904 423.701 564.628 438.492C558.477 446.56 552.133 457.748 546.753 473.211C529.852 521.805 522.456 586.237 525.622 603.133C528.789 620.039 543.247 628.237 562.169 634.972C571.872 638.425 614.221 636.435 642.674 634.617C657.857 633.654 669.846 621.357 670.419 606.154C671.721 571.69 673.331 513.477 670.346 492.222C664.977 453.966 634.773 434.617 612.992 425.503Z" fill="#E8EAED"/>
<path d="M597.253 424.065C585.279 424.065 573.612 429.56 565.997 439.544C559.034 448.669 553.107 460.19 548.378 473.784C531.101 523.451 524.388 587.185 527.32 602.82C530.305 618.747 543.643 626.544 562.747 633.346C569.883 635.883 598.226 635.727 642.565 632.899C656.919 631.982 668.154 620.456 668.695 606.081C669.95 572.774 671.617 513.727 668.638 492.466C663.492 455.747 635.169 436.654 612.325 427.091C607.44 425.05 602.315 424.065 597.253 424.065ZM586.69 638.581C574.935 638.581 565.638 638.039 561.591 636.596C544.086 630.367 527.409 622.044 523.93 603.456C520.565 585.524 528.721 519.789 545.122 472.649C549.966 458.711 556.065 446.872 563.253 437.445C575.039 421.992 595.768 416.425 613.659 423.909C637.331 433.815 666.68 453.664 672.055 491.987C675.075 513.508 673.404 572.794 672.138 606.216C671.534 622.362 658.909 635.315 642.784 636.341C624.325 637.518 603.107 638.581 586.69 638.581Z" fill="black"/>
<path d="M576.763 561.435C576.763 561.435 561.95 633.664 561.95 641.997C561.95 650.326 571.211 650.326 583.247 651.258C595.284 652.185 660.106 655.883 677.7 639.221C695.294 622.55 696.221 565.143 689.737 556.81C683.252 548.477 671.216 541.065 671.216 541.065C671.216 541.065 628.752 551.622 589.726 546.622C589.726 546.622 581.429 544.508 576.763 561.435Z" fill="#E8EAED"/>
<path d="M578.45 561.846C573.331 586.779 563.674 635.549 563.674 641.997C563.674 647.836 569.523 648.529 580.732 649.336C581.596 649.404 582.482 649.466 583.383 649.534C611.18 651.669 662.07 651.643 676.513 637.966C683.836 631.034 689.127 615.273 691.028 594.732C692.737 576.268 690.982 561.221 688.377 557.867C682.971 550.919 673.388 544.513 670.909 542.919C665.107 544.268 625.627 552.961 589.508 548.336C589.44 548.326 589.372 548.31 589.305 548.3C589.263 548.289 582.539 547.05 578.45 561.846ZM611.414 653.992C597.346 653.992 586.018 653.195 583.117 652.977C582.221 652.909 581.341 652.841 580.482 652.779C569.612 651.997 560.221 651.315 560.221 641.997C560.221 633.581 574.466 564.05 575.075 561.091C575.081 561.055 575.091 561.018 575.101 560.982C579.888 543.602 588.747 544.675 590.018 544.919C628.252 549.805 670.377 539.497 670.805 539.393C671.252 539.284 671.726 539.357 672.117 539.602C672.622 539.909 684.497 547.268 691.101 555.753C697.763 564.31 697.555 622.789 678.883 640.466C667.023 651.706 635.273 653.992 611.414 653.992Z" fill="black"/>
<path d="M546.44 597.888C546.372 597.888 546.299 597.883 546.226 597.878C545.279 597.758 544.612 596.899 544.721 595.956C548.508 565.086 555.654 533.081 564.325 508.143C569.174 494.211 575.273 482.372 582.456 472.951C594.247 457.492 614.971 451.925 632.867 459.414C641.43 462.992 649.294 467.305 656.242 472.216C657.023 472.774 657.206 473.852 656.659 474.622C656.101 475.404 655.023 475.586 654.252 475.039C647.508 470.263 639.867 466.081 631.534 462.596C615.091 455.716 596.039 460.836 585.2 475.044C578.242 484.169 572.315 495.69 567.586 509.279C558.987 533.992 551.904 565.737 548.148 596.372C548.044 597.242 547.294 597.888 546.44 597.888Z" fill="black"/>
<path d="M617.664 580.654C603.591 580.654 592.257 579.857 589.356 579.633C588.403 579.56 587.695 578.732 587.768 577.779C587.841 576.831 588.674 576.122 589.622 576.195C617.419 578.331 668.315 578.299 682.757 564.622C683.45 563.966 684.539 563.997 685.195 564.69C685.846 565.378 685.82 566.471 685.127 567.128C673.263 578.362 641.523 580.654 617.664 580.654Z" fill="black"/>
<path d="M561.659 307.003C558.081 307.659 555.44 314.503 554.362 318.013C550.82 329.57 552.789 358.232 561.018 361.315C569.122 364.357 568.976 360.435 574.825 364.961C579.492 368.581 579.377 373.904 580.002 385.529C580.044 386.268 564.779 388.242 564.414 388.898C563.596 390.362 569.789 410.862 598.513 411.497C625.737 412.096 632.18 394.388 632.471 393.128C632.648 392.367 612.638 387.93 612.393 387.143C609.159 376.763 608.211 359.404 608.211 359.404C608.211 359.404 599.346 300.075 561.659 307.003Z" fill="white"/>
<path d="M566.205 390.122C566.622 391.836 568.138 395.565 571.638 399.315C575.924 403.909 584.075 409.451 598.549 409.768C620.773 410.268 628.372 398.086 630.263 394.023C628.341 393.425 624.653 392.461 621.778 391.716C611.148 388.956 611.122 388.857 610.747 387.654C607.57 377.466 606.57 361.091 606.487 359.586C606.205 357.826 600.877 325.836 583.231 313.237C576.992 308.779 569.836 307.253 561.976 308.701C560.101 309.039 557.711 312.987 556.018 318.518C552.315 330.586 555.044 357.237 561.617 359.701C564.992 360.961 566.716 360.909 568.247 360.867C570.711 360.794 572.455 360.94 575.883 363.596C580.804 367.414 581.086 372.888 581.596 382.81L581.731 385.44C581.836 387.362 580.711 387.56 571.966 389.065C570.039 389.398 567.575 389.82 566.205 390.122ZM599.872 413.237C599.414 413.237 598.95 413.232 598.476 413.221C576.836 412.742 567.903 401.164 565.065 396.216C563.799 394.008 561.929 389.815 562.909 388.055C563.45 387.086 563.924 386.956 571.377 385.669C573.575 385.284 576.664 384.753 578.216 384.388L578.143 382.987C577.664 373.503 577.435 369.175 573.768 366.326C571.07 364.237 570.106 364.268 568.346 364.32C566.69 364.367 564.414 364.435 560.414 362.935C550.752 359.31 549.039 329.503 552.711 317.508C554.002 313.305 556.836 306.133 561.351 305.305C570.179 303.685 578.211 305.409 585.242 310.43C604.492 324.185 609.7 357.732 609.909 359.154L609.929 359.31C609.94 359.477 610.867 375.831 613.836 385.945C615.32 386.471 619.497 387.56 622.643 388.372C625.19 389.039 627.825 389.721 629.778 390.284C632.778 391.138 634.586 391.659 634.153 393.518C634.106 393.716 628.284 413.237 599.872 413.237Z" fill="black"/>
<path d="M574.283 335.346C574.257 335.346 574.231 335.346 574.2 335.346C573.252 335.336 572.486 334.555 572.497 333.596C572.507 332.649 573.299 331.883 574.242 331.893C574.257 331.893 574.278 331.893 574.289 331.893C578.106 331.893 581.841 326.221 582.94 320.899C583.559 317.862 583.403 314.284 581.101 313.326C578.169 312.107 573.908 316.779 572.648 318.513C572.085 319.279 571.002 319.451 570.236 318.888C569.466 318.326 569.299 317.247 569.856 316.482C570.523 315.57 576.497 307.675 582.424 310.138C586.028 311.633 587.486 315.914 586.315 321.591C584.924 328.372 580.044 335.346 574.283 335.346Z" fill="black"/>
<path d="M550.325 293.669C547.57 301.737 555.612 304.878 561.445 311.039C567.476 317.398 567.242 317.185 570.07 319.221C571.95 320.581 573.929 312.779 579.638 312.497C583.893 312.294 584.408 315.945 585.158 317.086C588.164 321.68 539.049 397.372 550.398 449.82C557.643 483.279 586.294 501.93 655.601 505.846C713.601 509.128 737.414 453.435 730.455 430.654C712.398 371.549 649.867 413.982 649.226 329.784C648.778 270.758 598.716 237.008 558.763 278.888C554.731 283.117 552.07 288.539 550.325 293.669Z" fill="black"/>
<path d="M888.445 775.133C888.128 775.133 887.81 775.05 887.524 774.867C886.722 774.352 886.482 773.289 886.987 772.482C900.242 751.612 916.701 717.497 919.899 673.518C924.305 612.888 901.143 565.94 886.951 543.352C886.445 542.55 886.685 541.482 887.498 540.971C888.294 540.466 889.367 540.706 889.873 541.518C904.289 564.461 927.82 612.159 923.341 673.774C920.091 718.466 903.367 753.128 889.904 774.331C889.576 774.852 889.018 775.133 888.445 775.133Z" fill="black"/>
<path d="M886.836 740.81C886.649 740.81 886.461 740.784 886.279 740.716C885.373 740.409 884.893 739.43 885.206 738.529C910.445 664.758 890.091 615.273 889.883 614.784C889.513 613.904 889.919 612.888 890.794 612.518C891.675 612.148 892.685 612.555 893.06 613.43C893.274 613.935 914.164 664.539 888.466 739.643C888.222 740.362 887.555 740.81 886.836 740.81Z" fill="black"/>
<path d="M878.132 584.674C877.45 584.674 876.804 584.268 876.533 583.596L873.69 576.581C873.336 575.695 873.757 574.695 874.643 574.336C875.528 573.971 876.533 574.398 876.893 575.284L879.731 582.299C880.091 583.185 879.664 584.19 878.783 584.549C878.57 584.638 878.346 584.674 878.132 584.674Z" fill="black"/>
<path d="M884.753 601.018C884.07 601.018 883.425 600.612 883.154 599.94L880.315 592.919C879.951 592.039 880.383 591.034 881.263 590.68C882.149 590.315 883.154 590.748 883.513 591.633L886.352 598.643C886.711 599.529 886.284 600.534 885.399 600.893C885.19 600.977 884.966 601.018 884.753 601.018Z" fill="black"/>
<path d="M868.341 594.065C867.659 594.065 867.013 593.664 866.742 592.992C866.383 592.107 866.81 591.102 867.695 590.742L874.711 587.904C875.591 587.544 876.602 587.971 876.956 588.857C877.31 589.737 876.888 590.742 876.008 591.102L868.992 593.94C868.779 594.029 868.555 594.065 868.341 594.065Z" fill="black"/>
<path d="M884.69 587.451C884.003 587.451 883.357 587.039 883.086 586.372C882.727 585.487 883.154 584.482 884.039 584.122L891.055 581.284C891.94 580.925 892.945 581.352 893.305 582.237C893.659 583.122 893.237 584.122 892.346 584.482L885.331 587.32C885.122 587.414 884.904 587.451 884.69 587.451Z" fill="black"/>
<path d="M383.981 585.85C381.255 585.85 378.522 586.937 376.521 589.083C374.687 591.062 373.715 593.651 373.817 596.348C373.918 599.052 375.064 601.56 377.05 603.402C381.168 607.208 387.621 606.961 391.434 602.865C393.283 600.886 394.24 598.305 394.146 595.608C394.044 592.904 392.891 590.395 390.905 588.554C388.955 586.741 386.461 585.85 383.981 585.85ZM383.974 610.913C380.327 610.913 376.673 609.593 373.795 606.918C370.866 604.207 369.17 600.516 369.01 596.522C368.865 592.541 370.286 588.728 373.012 585.813C378.624 579.781 388.121 579.433 394.167 585.03C397.104 587.749 398.8 591.439 398.945 595.427C399.097 599.414 397.676 603.221 394.95 606.142C392.007 609.303 387.998 610.913 383.974 610.913Z" fill="white"/>
<path d="M395.182 667.266C393.5 667.266 391.818 667.933 390.593 669.253C389.454 670.471 388.86 672.066 388.925 673.726C388.983 675.386 389.694 676.923 390.919 678.062C393.442 680.403 397.415 680.258 399.764 677.735C400.902 676.51 401.497 674.922 401.431 673.269C401.373 671.602 400.663 670.065 399.438 668.927C398.234 667.817 396.712 667.266 395.182 667.266ZM395.175 684.521C392.478 684.521 389.773 683.557 387.649 681.585C385.481 679.569 384.227 676.851 384.119 673.9C384.01 670.949 385.061 668.144 387.076 665.983C391.231 661.524 398.227 661.263 402.707 665.41C404.875 667.411 406.122 670.137 406.231 673.081C406.34 676.032 405.296 678.844 403.28 681.005C401.105 683.339 398.14 684.521 395.175 684.521Z" fill="white"/>
<path d="M432.881 512.292C431.591 512.292 430.532 511.284 430.482 509.979L430.09 499.496C430.039 498.162 431.076 497.053 432.403 497.002C433.78 496.951 434.846 497.988 434.897 499.315L435.281 509.805C435.332 511.125 434.295 512.241 432.968 512.292C432.939 512.292 432.91 512.292 432.881 512.292Z" fill="white"/>
<path d="M434.245 549.013C432.954 549.013 431.888 547.998 431.838 546.7L431.453 536.209C431.403 534.89 432.439 533.773 433.759 533.723C435.035 533.657 436.202 534.709 436.253 536.035L436.644 546.526C436.695 547.853 435.658 548.962 434.332 549.013C434.303 549.013 434.274 549.013 434.245 549.013Z" fill="white"/>
<path d="M409.682 526.284C408.406 526.284 407.333 525.262 407.289 523.972C407.239 522.645 408.275 521.528 409.595 521.485L420.129 521.093C421.463 521.043 422.565 522.079 422.616 523.406C422.667 524.726 421.623 525.849 420.296 525.893L409.776 526.284C409.74 526.284 409.711 526.284 409.682 526.284Z" fill="white"/>
<path d="M446.526 524.921C445.236 524.921 444.177 523.906 444.126 522.609C444.076 521.289 445.105 520.173 446.432 520.122L456.959 519.738C458.293 519.68 459.395 520.716 459.445 522.05C459.496 523.377 458.459 524.486 457.133 524.537L446.613 524.921C446.584 524.921 446.555 524.921 446.526 524.921Z" fill="white"/>
</svg>
