<svg width="835" height="835" viewBox="0 0 835 835" fill="none" xmlns="http://www.w3.org/2000/svg">
<path d="M40.5629 157.252C104.901 47.8303 227.355 21.0751 273.542 10.9865C430.719 -23.3468 663.292 17.9084 775.506 204.408C873.995 368.096 819.151 542.924 811.204 566.898C797.881 607.096 764.511 703.507 669.901 768.815C522.62 870.481 298.125 847.679 221.297 742.726C185.219 693.434 214.412 670.7 172.391 583.549C116.11 466.825 46.2608 469.622 13.714 376.169C-23.0256 270.669 34.615 167.367 40.5629 157.252Z" fill="#D1D1D1"/>
<path d="M705.928 767.752C681.631 764.351 664.693 741.924 668.105 717.653C671.506 693.377 693.954 676.455 718.24 679.856C742.537 683.252 759.469 705.685 756.068 729.955C752.673 754.231 730.219 771.153 705.928 767.752ZM799.303 717.028C799.303 715.981 798.574 715.075 797.553 714.846L782.751 711.534C781.886 711.341 781.23 710.653 781.058 709.784C780.469 706.862 779.714 704.007 778.771 701.237C778.495 700.398 778.709 699.481 779.355 698.888L790.48 688.591C791.245 687.877 791.423 686.731 790.896 685.825L784.245 674.341C783.719 673.435 782.636 673.013 781.636 673.325L767.152 677.856C766.308 678.122 765.402 677.851 764.818 677.195C762.86 674.987 760.777 672.903 758.558 670.955C757.902 670.372 757.631 669.466 757.886 668.622L762.381 654.122C762.693 653.127 762.271 652.044 761.36 651.523L749.855 644.903C748.943 644.382 747.792 644.56 747.089 645.33L736.824 656.476C736.219 657.127 735.303 657.351 734.469 657.065C731.693 656.143 728.834 655.388 725.917 654.81C725.048 654.632 724.36 653.981 724.162 653.122L720.808 638.33C720.574 637.315 719.662 636.591 718.62 636.591L705.339 636.612C704.292 636.612 703.386 637.341 703.162 638.362L699.834 653.164C699.641 654.023 698.954 654.679 698.089 654.851C695.167 655.44 692.313 656.2 689.542 657.138C688.704 657.424 687.787 657.205 687.188 656.554L676.896 645.44C676.183 644.669 675.032 644.497 674.131 645.028L662.631 651.679C661.73 652.205 661.308 653.289 661.62 654.284L666.146 668.768C666.412 669.612 666.146 670.518 665.485 671.101C663.271 673.06 661.188 675.148 659.24 677.362C658.657 678.023 657.756 678.289 656.907 678.028L642.412 673.544C641.412 673.237 640.329 673.659 639.803 674.565L633.183 686.075C632.657 686.981 632.834 688.132 633.605 688.841L644.751 699.096C645.402 699.69 645.626 700.612 645.339 701.445C644.412 704.221 643.657 707.08 643.084 710.002C642.907 710.872 642.261 711.56 641.386 711.757L626.594 715.117C625.574 715.346 624.85 716.252 624.85 717.299L624.865 730.58C624.865 731.627 625.6 732.534 626.615 732.763L641.423 736.075C642.282 736.268 642.943 736.955 643.11 737.825C643.699 740.742 644.464 743.591 645.396 746.372C645.678 747.205 645.464 748.127 644.813 748.721L633.688 759.018C632.923 759.726 632.751 760.872 633.271 761.778L639.923 773.263C640.449 774.169 641.532 774.596 642.532 774.278L657.021 769.747C657.86 769.487 658.777 769.752 659.36 770.414C661.313 772.622 663.402 774.705 665.61 776.653C666.271 777.237 666.548 778.143 666.282 778.981L661.792 793.476C661.48 794.481 661.902 795.56 662.813 796.08L674.318 802.705C675.225 803.221 676.376 803.049 677.079 802.273L687.35 791.132C687.943 790.481 688.865 790.257 689.699 790.534C692.475 791.466 695.334 792.221 698.256 792.799C699.12 792.966 699.813 793.622 700.011 794.487L703.365 809.273C703.594 810.294 704.506 811.018 705.558 811.018L718.829 810.997C719.881 810.997 720.782 810.268 721.011 809.247L724.329 794.445C724.527 793.58 725.219 792.924 726.079 792.752C729.006 792.169 731.855 791.403 734.631 790.466C735.469 790.185 736.381 790.403 736.99 791.054L747.277 802.169C747.985 802.935 749.136 803.106 750.048 802.58L761.537 795.929C762.443 795.398 762.865 794.32 762.548 793.325L758.021 778.841C757.761 777.997 758.027 777.091 758.688 776.507C760.896 774.549 762.98 772.461 764.928 770.247C765.511 769.586 766.423 769.315 767.261 769.575L781.756 774.06C782.756 774.372 783.844 773.945 784.365 773.044L790.99 761.528C791.516 760.622 791.334 759.476 790.563 758.768L779.423 748.513C778.771 747.909 778.548 746.992 778.829 746.164C779.756 743.377 780.511 740.523 781.089 737.606C781.266 736.737 781.917 736.049 782.777 735.851L797.574 732.492C798.6 732.257 799.318 731.346 799.318 730.304L799.303 717.028Z" fill="#202124"/>
<path d="M561.771 802.888H181.719C165.339 802.888 153.11 789.664 154.401 773.351L212.766 34.7001C214.052 18.3876 228.375 5.16366 244.75 5.16366L605.521 0.955322C646.958 0.955322 653.412 18.3876 652.12 34.7001L593.761 773.351C592.469 789.664 578.141 802.888 561.771 802.888Z" fill="#828282"/>
<path d="M538.896 802.888H158.849C142.474 802.888 130.24 789.617 131.521 773.257L189.776 32.2573C191.062 15.8979 205.385 2.63232 221.76 2.63232H601.807C618.188 2.63232 630.422 15.8979 629.135 32.2573L570.88 773.257C569.594 789.617 555.271 802.888 538.896 802.888Z" fill="white"/>
<path d="M408.823 40.3094C402.693 40.3094 398.104 35.3459 398.589 29.2104C399.073 23.0854 404.438 18.1167 410.568 18.1167C416.703 18.1167 421.292 23.0854 420.808 29.2104C420.323 35.3459 414.959 40.3094 408.823 40.3094Z" fill="#D1D1D1"/>
<path d="M153.229 774.278L208.854 66.7521C209.151 62.9708 212.453 59.9083 216.235 59.9083H598.328C602.11 59.9083 604.938 62.9708 604.636 66.7521L549.016 774.278C548.714 778.054 545.412 781.117 541.63 781.117H159.537C155.761 781.117 152.933 778.054 153.229 774.278Z" fill="#D1D1D1"/>
<path d="M601.224 103.585L604.448 62.8042C604.745 59.023 601.927 56.1376 598.151 56.1376H216.058C212.276 56.1376 208.964 59.023 208.662 62.799L205.433 103.585H601.224Z" fill="#828282"/>
<path d="M592.187 66.1115C592.312 68.7782 590.255 70.9396 587.594 70.9396C584.922 70.9396 582.656 68.7782 582.531 66.1115C582.401 63.45 584.464 61.2886 587.13 61.2886C589.792 61.2886 592.062 63.45 592.187 66.1115Z" fill="#D1D1D1"/>
<path d="M591.484 80.3615C591.609 83.0229 589.563 85.1792 586.891 85.1792C584.224 85.1792 581.958 83.0229 581.828 80.3615C581.708 77.6948 583.761 75.5333 586.422 75.5333C589.094 75.5333 591.359 77.6948 591.484 80.3615Z" fill="#D1D1D1"/>
<path d="M590.547 94.3719C590.677 97.0385 588.614 99.1948 585.948 99.1948C583.281 99.1948 581.021 97.0385 580.885 94.3719C580.76 91.7104 582.823 89.549 585.489 89.549C588.156 89.549 590.422 91.7104 590.547 94.3719Z" fill="#D1D1D1"/>
<path d="M568.995 326.33H207.183L223.297 123.882H585.11L568.995 326.33Z" fill="#828282"/>
<path d="M549.62 543.882H187.803L203.917 341.435H565.73L549.62 543.882Z" fill="#828282"/>
<path d="M534.11 764.747H172.292L188.407 562.304H550.219L534.11 764.747Z" fill="#828282"/>
<path d="M538.901 804.393H231.573C230.74 804.393 230.062 803.716 230.062 802.888C230.062 802.049 230.74 801.372 231.573 801.372H538.901C554.484 801.372 568.156 788.71 569.375 773.138L601.297 380.825C601.354 379.992 602.099 379.377 602.917 379.445C603.75 379.513 604.37 380.242 604.302 381.07L572.391 773.377C571.047 790.476 556.021 804.393 538.901 804.393Z" fill="black"/>
<path d="M173.099 245.96C173.063 245.96 173.021 245.96 172.98 245.955C172.151 245.898 171.532 245.169 171.594 244.341L188.276 32.1375C189.62 15.0334 204.646 1.1167 221.761 1.1167H601.813C616.089 1.1167 627.782 10.7625 630.271 24.5594C630.417 25.3823 629.87 26.1636 629.047 26.3146C628.23 26.4604 627.443 25.9136 627.303 25.0907C625.079 12.7573 614.599 4.13232 601.813 4.13232H221.761C206.183 4.13232 192.511 16.8042 191.282 32.3719L174.605 244.575C174.542 245.367 173.881 245.96 173.099 245.96Z" fill="black"/>
<path d="M116.096 167.119C137.119 161.364 149.497 139.659 143.742 118.636L143.741 118.635C137.981 97.6118 116.272 85.2346 95.248 90.9898C74.2193 96.7449 61.8418 118.454 67.6022 139.478C73.3575 160.502 95.0669 172.879 116.096 167.119ZM116.096 167.119L115.568 165.19M116.096 167.119L115.568 165.19M115.568 165.19C95.6042 170.658 74.9948 158.908 69.5312 138.95L95.776 92.9188C115.734 87.4552 136.344 99.2052 141.812 119.164C147.276 139.122 135.526 159.726 115.568 165.19ZM158.689 103.737L159.26 104.935L160.586 104.875L174.868 104.224L177.868 115.176L165.247 121.898L164.076 122.522L164.196 123.843C164.493 127.141 164.518 130.42 164.266 133.643L164.163 134.965L165.34 135.575L178.014 142.146L175.137 153.131L160.84 152.639L159.514 152.593L158.956 153.796C157.582 156.763 155.96 159.607 154.107 162.301L153.355 163.394L154.07 164.512L161.777 176.561L153.791 184.636L141.679 177.071L140.555 176.369L139.471 177.131C136.82 178.992 133.99 180.639 130.994 182.066L129.796 182.637L129.856 183.963L130.507 198.245L119.551 201.245L112.833 188.625L112.209 187.452L110.885 187.573C107.586 187.875 104.308 187.895 101.083 187.644L99.7615 187.541L99.1516 188.717L92.58 201.392L81.5908 198.514L82.0873 184.223L82.1333 182.899L80.9321 182.34C77.9643 180.959 75.1174 179.337 72.4164 177.487L71.3241 176.739L70.2089 177.453L58.1604 185.159L50.085 177.169L57.6444 165.061L58.3462 163.937L57.5848 162.853C55.7241 160.203 54.0764 157.367 52.6482 154.379L52.0768 153.184L50.7533 153.244L36.4703 153.89L33.4712 142.938L46.0957 136.221L47.269 135.597L47.1479 134.273C46.8455 130.966 46.8207 127.695 47.077 124.473L47.1823 123.15L46.0042 122.539L33.3242 115.963L36.2012 104.983L50.4989 105.475L51.8236 105.52L52.3817 104.318C53.756 101.358 55.3831 98.5117 57.2336 95.8091L57.9815 94.7168L57.2682 93.6016L49.5625 81.5535L57.5521 73.4825L69.665 81.0425L70.79 81.7447L71.8746 80.9817C74.52 79.1209 77.3544 77.4692 80.3433 76.0479L81.5424 75.4777L81.4823 74.1513L80.8359 59.8682L91.788 56.8691L98.5054 69.4887L99.1288 70.66L100.45 70.5409C103.754 70.2434 107.032 70.2186 110.261 70.47L111.582 70.5729L112.192 69.3967L118.763 56.7226L129.748 59.604L129.256 73.8916L129.211 75.2152L130.412 75.7738C133.379 77.1545 136.225 78.7764 138.919 80.6291L140.012 81.3809L141.129 80.6663L153.184 72.9598L161.254 80.9404L153.694 93.0526L152.992 94.1775L153.755 95.2622C155.615 97.906 157.262 100.741 158.689 103.737Z" fill="white" stroke="black" stroke-width="4"/>
<path d="M18.8021 249.44C14.6719 249.44 11.3177 252.799 11.3177 256.919C11.3177 261.044 14.6719 264.398 18.8021 264.398C22.9271 264.398 26.2865 261.044 26.2865 256.919C26.2865 252.799 22.9271 249.44 18.8021 249.44ZM18.8021 267.414C13.0104 267.414 8.29688 262.705 8.29688 256.919C8.29688 251.138 13.0104 246.429 18.8021 246.429C24.5938 246.429 29.3073 251.138 29.3073 256.919C29.3073 262.705 24.5938 267.414 18.8021 267.414Z" fill="black"/>
<path d="M774.297 606.351C770.172 606.351 766.818 609.705 766.818 613.83C766.818 617.955 770.172 621.309 774.297 621.309C778.427 621.309 781.786 617.955 781.786 613.83C781.786 609.705 778.427 606.351 774.297 606.351ZM774.297 624.325C768.505 624.325 763.797 619.617 763.797 613.83C763.797 608.044 768.505 603.335 774.297 603.335C780.094 603.335 784.802 608.044 784.802 613.83C784.802 619.617 780.094 624.325 774.297 624.325Z" fill="black"/>
<path d="M46.6824 212.497C46.2553 212.497 45.8282 212.315 45.5313 211.966C44.9897 211.335 45.0678 210.382 45.7032 209.846L50.573 205.69C51.2136 205.148 52.1615 205.226 52.7032 205.862C53.2449 206.492 53.1668 207.445 52.5365 207.987L47.6615 212.138C47.3751 212.377 47.0313 212.497 46.6824 212.497Z" fill="black"/>
<path d="M31.281 225.612C30.8539 225.612 30.4268 225.434 30.13 225.085C29.5883 224.45 29.6664 223.497 30.3018 222.955L35.1716 218.804C35.8123 218.268 36.7602 218.341 37.3018 218.976C37.8435 219.606 37.7654 220.559 37.13 221.101L32.2602 225.252C31.9737 225.497 31.6248 225.612 31.281 225.612Z" fill="black"/>
<path d="M36.9324 211.721C36.5053 211.721 36.0782 211.539 35.7813 211.184L31.6251 206.32C31.0834 205.684 31.1615 204.731 31.797 204.195C32.4324 203.648 33.3855 203.726 33.922 204.362L38.0782 209.231C38.6199 209.867 38.5418 210.815 37.9063 211.362C37.6251 211.601 37.2761 211.721 36.9324 211.721Z" fill="black"/>
<path d="M50.0627 227.112C49.6356 227.112 49.2138 226.929 48.9117 226.58L44.7554 221.716C44.2138 221.075 44.2919 220.127 44.9221 219.586C45.5627 219.044 46.5106 219.122 47.0523 219.752L51.2086 224.627C51.7502 225.257 51.6773 226.211 51.0419 226.752C50.7554 226.992 50.4065 227.112 50.0627 227.112Z" fill="black"/>
<path d="M811.302 383.377C810.875 383.377 810.442 383.2 810.146 382.851C809.604 382.221 809.682 381.268 810.317 380.721L815.192 376.575C815.828 376.033 816.781 376.111 817.317 376.747C817.859 377.377 817.786 378.325 817.146 378.867L812.276 383.023C811.989 383.257 811.646 383.377 811.302 383.377Z" fill="black"/>
<path d="M795.891 396.502C795.464 396.502 795.042 396.325 794.745 395.976C794.204 395.341 794.277 394.388 794.912 393.851L799.787 389.695C800.428 389.153 801.376 389.231 801.917 389.867C802.454 390.497 802.381 391.455 801.745 391.992L796.87 396.143C796.584 396.388 796.24 396.502 795.891 396.502Z" fill="black"/>
<path d="M801.548 382.601C801.12 382.601 800.699 382.424 800.402 382.075L796.245 377.205C795.704 376.57 795.777 375.622 796.412 375.08C797.048 374.538 798.006 374.617 798.542 375.252L802.693 380.117C803.235 380.752 803.167 381.7 802.527 382.242C802.24 382.486 801.891 382.601 801.548 382.601Z" fill="black"/>
<path d="M814.677 397.997C814.255 397.997 813.833 397.815 813.531 397.46L809.375 392.596C808.833 391.96 808.912 391.013 809.537 390.466C810.182 389.924 811.13 390.002 811.672 390.638L815.828 395.507C816.37 396.143 816.292 397.091 815.656 397.638C815.375 397.877 815.026 397.997 814.677 397.997Z" fill="black"/>
<path d="M800.943 448.283L682.698 474.007C676.578 475.336 674.005 482.648 677.964 487.513L689.516 501.737C692.448 505.336 691.896 510.617 688.302 513.544L600.547 586.674C596.948 589.606 591.651 589.065 588.714 585.471L521.37 502.867C518.433 499.268 513.136 498.726 509.531 501.658L255.412 714.372C251.813 717.299 251.271 722.591 254.209 726.184L278.828 756.382C281.755 759.976 287.052 760.518 290.651 757.586L501.542 580.112C505.141 577.184 510.438 577.721 513.375 581.325L580.693 663.893C583.63 667.492 588.922 668.033 592.526 665.101L723.448 556.841C727.047 553.908 732.349 554.45 735.281 558.059L747.75 573.403C751.724 578.299 759.485 577.237 761.995 571.45L810.453 459.836C813.172 453.554 807.641 446.825 800.943 448.283Z" fill="#202124"/>
<path d="M814.37 341.981H322.547C312.229 341.981 303.859 333.627 303.859 323.315V209.882C303.859 199.57 312.229 191.21 322.547 191.21H814.37C824.693 191.21 833.052 199.57 833.052 209.882V323.315C833.052 333.627 824.693 341.981 814.37 341.981Z" fill="white"/>
<path d="M345.11 192.716C323.198 192.716 305.37 210.533 305.37 232.429V300.773C305.37 322.664 323.198 340.476 345.11 340.476H791.808C813.714 340.476 831.542 322.664 831.542 300.773V232.429C831.542 210.533 813.714 192.716 791.808 192.716H345.11ZM791.808 343.492H345.11C321.537 343.492 302.354 324.33 302.354 300.773V232.429C302.354 208.872 321.537 189.7 345.11 189.7H791.808C815.386 189.7 834.563 208.872 834.563 232.429V300.773C834.563 324.33 815.386 343.492 791.808 343.492Z" fill="black"/>
<path d="M409.235 250.919L387.714 247.794L378.083 228.299C376.016 224.117 370.031 224.117 367.964 228.299L358.339 247.794L336.813 250.919C332.182 251.591 330.333 257.273 333.682 260.533L349.266 275.7L345.583 297.122C344.797 301.731 349.63 305.242 353.771 303.07L373.021 292.955L392.276 303.07C396.417 305.242 401.255 301.731 400.464 297.122L396.781 275.7L412.36 260.533C415.708 257.273 413.865 251.591 409.235 250.919Z" fill="#FFC700"/>
<path d="M508.62 250.919L487.099 247.794L477.464 228.299C475.396 224.117 469.417 224.117 467.344 228.299L457.724 247.794L436.198 250.919C431.568 251.591 429.719 257.273 433.073 260.533L448.646 275.7L444.974 297.122C444.177 301.731 449.021 305.242 453.156 303.07L472.406 292.955L491.661 303.07C495.802 305.242 500.641 301.731 499.849 297.122L496.167 275.7L511.745 260.533C515.094 257.273 513.25 251.591 508.62 250.919Z" fill="#FFC700"/>
<path d="M608 250.924L586.479 247.794L576.844 228.309C574.781 224.117 568.802 224.117 566.734 228.309L557.104 247.794L535.583 250.924C530.953 251.596 529.104 257.273 532.453 260.533L548.026 275.705L544.349 297.127C543.562 301.731 548.396 305.247 552.536 303.065L571.792 292.955L591.047 303.065C595.182 305.247 600.015 301.731 599.229 297.127L595.552 275.705L611.13 260.533C614.479 257.273 612.63 251.596 608 250.924Z" fill="#FFC700"/>
<path d="M707.391 250.914L685.865 247.789L676.24 228.304C674.167 224.111 668.188 224.111 666.12 228.304L656.49 247.789L634.969 250.914C630.344 251.591 628.495 257.268 631.839 260.533L647.417 275.7L643.74 297.122C642.954 301.726 647.782 305.242 651.928 303.065L671.178 292.955L690.433 303.065C694.573 305.242 699.412 301.726 698.62 297.122L694.938 275.7L710.516 260.533C713.87 257.268 712.021 251.591 707.391 250.914Z" fill="#FFC700"/>
<path d="M806.771 250.924L785.245 247.799L775.62 228.309C773.547 224.122 767.568 224.122 765.495 228.309L755.87 247.799L734.344 250.924C729.719 251.596 727.864 257.278 731.213 260.533L746.797 275.705L743.114 297.127C742.328 301.737 747.161 305.247 751.302 303.07L770.557 292.96L789.812 303.07C793.953 305.247 798.786 301.737 798 297.127L794.318 275.705L809.896 260.533C813.239 257.278 811.396 251.596 806.771 250.924Z" fill="#828282"/>
<path d="M748.599 33.2417L701.662 48.398L662.558 18.3615C654.152 11.9032 641.985 17.8771 641.964 28.4761L641.891 77.7574L601.204 105.638C592.469 111.622 594.391 125.033 604.469 128.325L651.36 143.632L665.329 190.893C668.323 201.059 681.688 203.372 687.938 194.809L716.985 154.987L766.297 156.325C776.896 156.612 783.224 144.627 777.006 136.049L748.073 96.1272L764.584 49.6897C768.136 39.7001 758.688 29.9865 748.599 33.2417Z" fill="#FFC700"/>
<path d="M663.313 9.49168C661.62 9.49168 659.912 9.88752 658.287 10.6896C654.339 12.6271 651.99 16.3979 651.974 20.7886L651.896 70.075C651.896 70.5646 651.651 71.0386 651.24 71.3094L610.568 99.1896C606.943 101.669 605.151 105.747 605.776 110.091C606.407 114.434 609.271 117.846 613.443 119.205L660.334 134.513C660.808 134.658 661.167 135.039 661.313 135.518L675.271 182.783C676.521 186.992 679.849 189.95 684.178 190.7C688.5 191.455 692.631 189.783 695.219 186.231L724.271 146.408C724.573 146.002 725.047 145.778 725.532 145.789L774.844 147.127C779.219 147.247 783.079 145.002 785.125 141.122C787.178 137.236 786.865 132.794 784.292 129.242L755.355 89.325C755.068 88.924 754.995 88.3979 755.157 87.9396L771.672 41.4969C773.141 37.3563 772.188 33.0125 769.125 29.8615C766.068 26.7104 761.745 25.6427 757.568 26.9917L710.625 42.1479C710.162 42.299 709.636 42.2104 709.245 41.9084L670.146 11.8667C668.099 10.299 665.719 9.49168 663.313 9.49168ZM686.141 193.888C685.323 193.888 684.49 193.815 683.657 193.674C678.256 192.736 673.938 188.888 672.386 183.638L658.641 137.127L612.511 122.07C607.297 120.372 603.573 115.945 602.792 110.518C602.016 105.096 604.339 99.799 608.86 96.7L648.881 69.2729L648.959 20.7834C648.974 15.299 652.032 10.3979 656.954 7.98127C661.881 5.5646 667.636 6.13752 671.98 9.47606L710.454 39.0386L756.641 24.1219C761.855 22.4344 767.469 23.8302 771.292 27.7573C775.115 31.6948 776.349 37.3406 774.511 42.5021L758.271 88.1948L786.735 127.476C789.948 131.914 790.355 137.679 787.797 142.528C785.235 147.372 780.261 150.299 774.761 150.143L726.245 148.825L697.657 188.013C694.922 191.752 690.662 193.888 686.141 193.888Z" fill="black"/>
<path d="M797.75 235.533C797.401 235.533 797.052 235.408 796.761 235.164C796.131 234.617 796.068 233.669 796.615 233.039C815.933 210.736 824.615 187.08 822.412 162.726C818.386 118.148 778.917 85.9709 778.521 85.6479C777.875 85.1271 777.766 84.1792 778.287 83.5281C778.808 82.8823 779.766 82.7781 780.407 83.299C780.818 83.6271 821.276 116.617 825.422 162.455C827.698 187.648 818.776 212.065 798.891 235.013C798.594 235.356 798.172 235.533 797.75 235.533Z" fill="black"/>
<path d="M743.104 242.653C742.906 242.653 742.708 242.612 742.516 242.528C741.745 242.205 741.396 241.32 741.719 240.554C758.964 200.362 730.391 167.7 730.099 167.372C729.552 166.752 729.599 165.799 730.224 165.247C730.839 164.69 731.802 164.747 732.349 165.367C732.656 165.705 762.479 199.799 744.49 241.737C744.25 242.309 743.688 242.653 743.104 242.653Z" fill="black"/>
<path d="M63.625 757.617L65.0417 783.653L82.4635 786.591L84.0156 755.882L63.625 757.617Z" fill="white"/>
<path d="M66.4791 782.367L81.0416 784.82L82.4218 757.528L65.2135 758.997L66.4791 782.367ZM82.4635 788.096C82.3801 788.096 82.2968 788.091 82.2135 788.075L64.7916 785.143C64.0937 785.023 63.5728 784.44 63.5312 783.731L62.1197 757.695C62.0728 756.882 62.6874 756.179 63.4999 756.112L83.8853 754.377C84.3228 754.341 84.7499 754.492 85.0624 754.794C85.3749 755.096 85.5416 755.518 85.5207 755.95L83.9687 786.669C83.9478 787.096 83.7447 787.497 83.4062 787.763C83.1405 787.981 82.8072 788.096 82.4635 788.096Z" fill="black"/>
<path d="M82.9484 831.82C75.5943 832.476 63.5682 832.773 49.6047 830.122C45.0318 829.257 42.1984 824.632 43.5422 820.174C47.2713 807.757 53.8078 784.174 63.5213 773.585L65.4953 779.69L68.9224 774.21C69.3911 773.45 70.188 772.971 71.0734 772.903L78.0005 772.377C79.4484 772.268 80.7349 773.289 80.9588 774.716L81.7922 779.976L84.537 773.268L90.0318 823.388C90.3807 827.664 87.2245 831.434 82.9484 831.82Z" fill="#FFC700"/>
<path d="M62.9271 776.643C55 786.961 49.2917 806.143 45.7865 817.919L44.9844 820.606C44.4636 822.341 44.6927 824.153 45.6354 825.7C46.5677 827.237 48.1146 828.304 49.8854 828.643C63.5521 831.237 75.3334 830.987 82.8177 830.315C86.2448 830.007 88.8073 826.955 88.5261 823.507L83.6823 779.341L83.1875 780.544C82.9323 781.174 82.2813 781.554 81.6198 781.476C80.9479 781.398 80.4063 780.877 80.3021 780.211L79.4688 774.955C79.3646 774.304 78.7761 773.836 78.1146 773.882L71.1875 774.409C70.7865 774.435 70.4167 774.659 70.2032 775.007L66.7761 780.492C66.4636 780.987 65.8959 781.263 65.3125 781.19C64.724 781.117 64.2396 780.716 64.0573 780.153L62.9271 776.643ZM72.5417 833.784C65.9323 833.784 58 833.252 49.3229 831.606C46.7136 831.106 44.4271 829.523 43.0521 827.263C41.6823 825.007 41.3334 822.268 42.0938 819.742L42.8959 817.054C46.7188 804.2 53.125 782.69 62.4115 772.565C62.7709 772.169 63.3177 771.992 63.8438 772.106C64.3698 772.221 64.7917 772.612 64.9584 773.122L65.9323 776.143L67.6407 773.409C68.3594 772.252 69.599 771.502 70.9584 771.398L77.8854 770.877C80.0469 770.705 82.0625 772.257 82.4375 774.414L83.1407 772.695C83.4011 772.06 84.0677 771.674 84.7448 771.773C85.4323 771.872 85.9636 772.419 86.0365 773.106L91.5313 823.221C91.9479 828.351 88.1563 832.867 83.0834 833.32C80.1667 833.58 76.6042 833.784 72.5417 833.784Z" fill="black"/>
<path d="M67.1041 825.205C61.3072 825.205 54.677 824.622 48.1301 822.773C47.3281 822.554 46.8593 821.721 47.0833 820.919C47.3124 820.117 48.1458 819.648 48.9479 819.877C65.7864 824.612 83.9114 820.523 84.0885 820.481C84.901 820.294 85.7135 820.799 85.901 821.612C86.0885 822.419 85.5833 823.231 84.7708 823.419C84.2864 823.534 76.8958 825.205 67.1041 825.205Z" fill="black"/>
<path d="M76.2552 805.919C76.2447 805.919 76.2343 805.919 76.2291 805.919L59.7708 805.632C58.9374 805.617 58.2708 804.929 58.2864 804.096C58.302 803.273 58.9739 802.617 59.7968 802.617C59.802 802.617 59.8124 802.617 59.8229 802.617L76.2812 802.903C77.1145 802.919 77.776 803.606 77.7604 804.434C77.7447 805.257 77.0729 805.919 76.2552 805.919Z" fill="black"/>
<path d="M146.422 747.96L147.141 785.893L168.229 786.955L171.12 749.205L146.422 747.96Z" fill="white"/>
<path d="M148.625 784.455L166.838 785.372L169.495 750.632L147.958 749.549L148.625 784.455ZM168.229 788.46C168.203 788.46 168.177 788.46 168.156 788.46L147.062 787.393C146.271 787.356 145.646 786.71 145.63 785.919L144.911 747.987C144.906 747.575 145.068 747.169 145.37 746.877C145.672 746.585 146.078 746.434 146.495 746.455L171.193 747.7C171.599 747.721 171.979 747.903 172.25 748.205C172.521 748.518 172.656 748.919 172.62 749.32L169.734 787.065C169.672 787.856 169.015 788.46 168.229 788.46Z" fill="black"/>
<path d="M140.552 806.95C140.317 810.523 142.604 813.789 146.052 814.773C158.031 818.205 185.031 825.856 192.76 827.408C202.796 829.419 215.38 826.95 221.026 821.315C226.661 815.674 210.067 800.69 202.114 795.143C190.296 786.898 179.338 771.236 174.458 770.309C169.572 769.382 159.682 783.169 159.682 783.169L145 776.122C145 776.122 141.734 788.83 140.552 806.95Z" fill="#FFC700"/>
<path d="M146.042 778.294C145.125 782.393 142.964 793.169 142.057 807.049C141.87 809.898 143.724 812.539 146.464 813.325C157.901 816.596 185.333 824.377 193.057 825.934C202.807 827.888 214.87 825.336 219.958 820.242C220.505 819.695 220.729 819.002 220.646 818.07C220.141 812.388 209.057 801.825 201.25 796.377C195.234 792.179 189.599 786.273 184.63 781.059C180.458 776.69 176.146 772.164 174.172 771.789C171.755 771.336 165.396 777.794 160.906 784.049C160.479 784.643 159.688 784.846 159.026 784.528L146.042 778.294ZM200.021 829.612C197.458 829.612 194.906 829.372 192.464 828.888C184.635 827.315 157.104 819.507 145.635 816.226C141.537 815.049 138.766 811.112 139.047 806.851C140.229 788.799 143.505 775.872 143.537 775.747C143.651 775.309 143.953 774.945 144.359 774.752C144.771 774.565 145.245 774.57 145.651 774.757L159.203 781.268C162 777.528 169.776 767.882 174.74 768.83C177.662 769.382 181.5 773.414 186.813 778.981C191.688 784.091 197.208 789.882 202.979 793.908C209.432 798.403 222.974 810.169 223.651 817.804C223.813 819.617 223.271 821.195 222.094 822.382C217.594 826.877 208.776 829.606 200.021 829.612Z" fill="black"/>
<path d="M200.938 822.674C178.579 822.674 147.188 808.127 145.485 807.325C144.73 806.976 144.407 806.08 144.761 805.32C145.115 804.565 146.011 804.242 146.766 804.596C147.292 804.846 199.318 828.966 215.511 815.773C216.151 815.247 217.105 815.346 217.631 815.992C218.157 816.633 218.063 817.586 217.417 818.112C213.386 821.398 207.553 822.674 200.938 822.674Z" fill="black"/>
<path d="M175.953 798.544C175.516 798.544 175.079 798.351 174.782 797.987C174.256 797.341 174.349 796.393 174.995 795.867L186.214 786.742C186.86 786.211 187.808 786.31 188.339 786.955C188.865 787.601 188.766 788.554 188.12 789.075L176.907 798.205C176.625 798.435 176.287 798.544 175.953 798.544Z" fill="black"/>
<path d="M77.6979 495.518C77.6979 495.518 58.2812 614.95 52.8021 655.565C47.3229 696.184 55.4323 762.325 55.4323 762.325L88.0729 762.257C88.0729 762.257 94.3281 682.643 97.8646 660.632C97.8646 660.632 113.13 631.309 118.552 604.752C123.984 578.19 140 536.612 140 536.612C140 536.612 140.62 748.2 140.875 764.83C140.875 764.83 166.344 767.252 175.786 761.966C175.786 761.966 195.891 685.83 195.672 643.851C195.458 601.872 194.995 496.815 194.995 496.815L77.6979 495.518Z" fill="black"/>
<path d="M91.8704 661.83C91.8444 661.83 91.8183 661.83 91.7923 661.83L81.8444 661.325C81.011 661.283 80.3704 660.575 80.4121 659.747C80.4537 658.908 81.1569 658.268 81.9954 658.315L91.9433 658.815C92.7767 658.856 93.4173 659.565 93.3756 660.398C93.334 661.2 92.6673 661.83 91.8704 661.83Z" fill="white"/>
<path d="M159.656 726.773C159.625 726.773 159.589 726.773 159.552 726.768C158.719 726.716 158.094 725.992 158.151 725.164C159.505 705.539 182.771 671.534 183.76 670.096C184.234 669.414 185.172 669.237 185.859 669.705C186.547 670.179 186.719 671.122 186.25 671.804C186.01 672.148 162.458 706.57 161.162 725.372C161.109 726.164 160.443 726.773 159.656 726.773Z" fill="white"/>
<path d="M166.35 320.71C203.688 390.591 200.131 421.382 252.73 349.309L258.391 377.773C258.391 377.773 158.053 530.945 175.829 382.299L166.35 320.71Z" fill="white"/>
<path d="M169.219 329.445L177.323 382.075C177.344 382.205 177.344 382.341 177.328 382.476C171.667 429.804 178.578 442.685 185.375 445.159C203.161 451.632 242.609 398.981 256.792 377.461L251.917 352.966C230.099 382.575 218.833 392.836 209.286 391.966C199.042 391.023 192.344 377.049 181.25 353.898C177.708 346.513 173.802 338.362 169.219 329.445ZM188.469 448.69C187.021 448.69 185.641 448.471 184.339 447.997C172.823 443.804 169.547 422.32 174.307 382.33L164.859 320.94C164.745 320.211 165.172 319.513 165.87 319.278C166.568 319.049 167.333 319.351 167.682 319.997C174.182 332.164 179.38 343.023 183.974 352.596C194.24 374.023 201.026 388.174 209.562 388.961C217.901 389.726 229.661 378.362 251.51 348.424C251.865 347.94 252.474 347.705 253.057 347.836C253.641 347.966 254.094 348.429 254.214 349.018L259.87 377.481C259.948 377.867 259.87 378.273 259.656 378.596C257.677 381.617 213.432 448.69 188.469 448.69Z" fill="black"/>
<path d="M78.2448 500.58L196.292 505.877L185.318 379.929H204.281L191.089 343.924C184 324.575 166.375 311.033 145.833 309.226C128.604 307.716 105.583 306.559 78.4427 307.289C63.6771 307.69 49.6562 313.815 39.3021 324.346C24.9219 338.976 5.34896 361.346 0 379.466L64.4583 403.778L70.5938 394.747C70.5938 394.747 80.9375 450.841 78.2448 500.58Z" fill="#FFC700"/>
<path d="M70.5942 396.252C70.3807 396.252 70.1619 396.205 69.9536 396.112C69.1984 395.757 68.8755 394.862 69.2244 394.106L80.5838 369.799C80.938 369.044 81.839 368.721 82.589 369.075C83.3494 369.424 83.6723 370.32 83.3234 371.075L71.964 395.382C71.7036 395.929 71.1619 396.252 70.5942 396.252Z" fill="black"/>
<path d="M152.047 250.929C151.99 250.929 151.948 250.934 151.917 250.95C151.797 251.012 151.542 251.497 151.578 252.523C151.625 253.799 152.094 255.398 152.865 256.908C153.63 258.419 154.651 259.742 155.656 260.528C156.464 261.163 157 261.247 157.12 261.184C157.547 260.971 157.88 258.585 156.172 255.226C154.599 252.132 152.667 250.929 152.047 250.929ZM157.016 264.215C156.172 264.215 155.078 263.913 153.786 262.903C152.432 261.835 151.146 260.195 150.172 258.273C149.198 256.356 148.625 254.356 148.563 252.632C148.458 249.762 149.76 248.663 150.547 248.268C153.068 246.986 156.563 249.34 158.865 253.861C161.161 258.382 161.005 262.596 158.49 263.872C158.151 264.044 157.656 264.215 157.016 264.215Z" fill="black"/>
<path d="M130.854 317.33C126.203 317.33 121.74 316.575 117.542 315.216C113.756 313.981 110.193 312.252 106.948 310.08C121.073 305.122 116.099 283.643 116.099 283.643C105.427 260.164 113.729 245.205 126.328 242.091C144.224 237.674 146.495 248.065 146.495 248.065C147.849 250.851 151.011 257.356 152.235 258.106C153.74 259.018 157.328 259.934 157.912 260.69C158.495 261.44 158.162 263.856 155.912 265.94C155.912 265.94 162.417 279.533 160.25 283.622C158.078 287.705 142.641 291.122 142.641 291.122C142.641 291.122 139.011 307.627 149.047 313.289C145.229 315.065 141.115 316.315 136.792 316.908C134.849 317.179 132.87 317.33 130.854 317.33Z" fill="white"/>
<path d="M110.131 310.283C112.61 311.705 115.25 312.877 118.011 313.778C122.183 315.132 126.506 315.825 130.855 315.825C132.719 315.825 134.646 315.684 136.589 315.419C139.802 314.976 142.953 314.148 145.99 312.955C137.964 305.893 141.021 291.46 141.167 290.799C141.292 290.226 141.74 289.778 142.313 289.653C148.443 288.294 157.646 285.304 158.917 282.914C160.167 280.559 157.115 271.955 154.547 266.591C154.261 265.997 154.396 265.283 154.881 264.835C156.344 263.476 156.683 262.127 156.657 261.612C156.224 261.372 155.224 260.992 154.532 260.731C153.407 260.309 152.245 259.877 151.448 259.388C150.266 258.664 148.615 255.872 145.136 248.721C145.084 248.612 145.047 248.502 145.021 248.382C145 248.294 144.407 245.929 141.61 244.226C138.287 242.2 133.125 241.971 126.693 243.554C121.495 244.841 117.328 248.237 114.959 253.117C111.271 260.721 112.167 271.346 117.474 283.018C117.511 283.112 117.547 283.205 117.568 283.304C117.771 284.174 122.063 303.44 110.131 310.283ZM130.855 318.835C126.188 318.835 121.547 318.101 117.073 316.648C113.157 315.372 109.469 313.58 106.11 311.341C105.636 311.018 105.381 310.46 105.448 309.898C105.521 309.325 105.912 308.851 106.448 308.658C118.599 304.398 115.032 285.903 114.657 284.122C109.032 271.669 108.172 260.195 112.245 251.804C115.011 246.101 119.886 242.132 125.969 240.627C133.365 238.804 139.193 239.164 143.282 241.71C146.651 243.804 147.683 246.731 147.917 247.533C151.313 254.518 152.594 256.455 153.073 256.851C153.573 257.153 154.646 257.554 155.594 257.914C157.464 258.617 158.547 259.044 159.105 259.763C160.136 261.091 159.834 263.815 157.719 266.242C159.417 269.955 163.756 280.237 161.584 284.325C159.422 288.398 148.016 291.408 143.948 292.372C143.407 295.783 142.131 307.658 149.787 311.976C150.276 312.252 150.573 312.778 150.552 313.346C150.532 313.908 150.193 314.414 149.683 314.653C145.646 316.539 141.375 317.804 137 318.403C134.927 318.69 132.855 318.835 130.855 318.835Z" fill="black"/>
<path d="M116.292 235.674C120.787 234.377 126.063 234.643 128.224 233.69C131.709 232.158 131.271 228.033 136.303 227.184C140.724 226.445 144.943 226.914 147.485 230.132C147.907 230.664 148.292 231.278 148.615 231.971C152.959 241.304 148.511 246.372 146.495 248.059C146.495 248.059 133.474 255.752 131.292 257.83C129.25 259.773 127.026 264.169 128.964 270.085C129.209 270.835 128.933 271.658 128.282 272.106L128.245 272.127C127.459 272.658 126.401 272.523 125.803 271.794C123.907 269.507 119.803 265.127 117.162 266.45C113.933 268.059 113.651 276.856 120.589 277.742C121.844 277.903 122.579 279.226 122.073 280.388C121.276 282.21 119.594 284.216 116.099 283.643C116.099 283.643 100.584 274.497 97.6671 260.929C94.7504 247.356 110.313 237.398 116.292 235.674Z" fill="black"/>
<path d="M142.724 254.533C142.479 254.533 142.26 254.58 142.068 254.679C141.495 254.971 141.114 255.737 141.031 256.783C140.922 258.091 141.286 259.679 142.026 261.138C143.515 264.065 146.026 265.549 147.271 264.908C148.521 264.278 148.802 261.382 147.312 258.455C146.052 255.976 144.062 254.533 142.724 254.533ZM146.62 268.075C144 268.075 141.088 265.95 139.338 262.507C138.333 260.533 137.864 258.414 138.021 256.533C138.198 254.424 139.172 252.763 140.698 251.992C143.693 250.471 147.776 252.711 150.005 257.086C152.229 261.461 151.63 266.08 148.64 267.601C148.005 267.919 147.323 268.075 146.62 268.075Z" fill="black"/>
<path d="M148.516 258.726C148.308 258.726 148.094 258.679 147.891 258.591C147.141 258.236 146.808 257.367 147.141 256.611C147.568 255.664 148.818 254.096 150.735 254.174C151.563 254.21 152.214 254.908 152.177 255.742C152.141 256.575 151.453 257.221 150.604 257.184C150.323 257.164 149.974 257.684 149.891 257.861C149.631 258.403 149.084 258.726 148.516 258.726Z" fill="black"/>
<path d="M124.515 267.226C123.942 267.226 123.395 266.903 123.145 266.351C122.796 265.591 123.125 264.7 123.88 264.351L138.921 257.424C139.677 257.075 140.578 257.403 140.927 258.164C141.276 258.919 140.942 259.815 140.187 260.158L125.145 267.091C124.942 267.179 124.723 267.226 124.515 267.226Z" fill="black"/>
<path d="M269.208 227.039C283.437 169.023 341.604 133.403 399.125 147.492C456.651 161.57 491.75 220.023 477.52 278.044C463.291 336.059 405.119 371.674 347.599 357.591C290.078 343.512 254.979 285.059 269.208 227.039ZM253.395 223.169C237.01 289.997 277.432 357.315 343.687 373.544C409.942 389.757 476.942 348.736 493.333 281.908C509.724 215.085 469.291 147.762 403.041 131.539C336.781 115.32 269.786 156.341 253.395 223.169Z" fill="black"/>
<path d="M28.0939 531.132L33.4324 537.867C38.9116 544.523 50.2293 537.507 65.7085 524.471L286.386 338.736L271.891 311.002L45.8855 500.361C30.4064 513.393 22.6199 524.476 28.0939 531.132Z" fill="black"/>
<path d="M11.8494 382.549L59.7401 400.215C59.7401 400.215 51.6463 474.971 103.37 500.679C103.37 500.679 131.407 497.215 141.11 513.851C141.11 513.851 121.485 512.965 105.063 517.481C88.6359 522.002 -9.21828 493.809 11.8494 382.549Z" fill="white"/>
<path d="M100.901 519.429C88.276 519.429 61.6458 511.46 40.4374 491.94C20.6874 473.757 -0.562577 439.966 10.3645 382.273C10.5155 381.45 11.3072 380.914 12.1249 381.07C12.9478 381.226 13.4843 382.012 13.328 382.835C2.66138 439.169 23.2968 472.054 42.4843 489.726C67.6249 512.872 97.5364 517.986 104.661 516.028C117.516 512.497 132.068 512.21 138.208 512.273C127.917 499.335 103.812 502.143 103.557 502.174C103.26 502.21 102.963 502.158 102.698 502.028C81.1249 491.304 66.5937 470.71 60.6926 442.466C56.2551 421.252 58.2395 402.934 58.2551 402.757C58.3489 401.929 59.0989 401.335 59.927 401.424C60.7551 401.518 61.3489 402.262 61.2551 403.091C61.2343 403.268 59.3072 421.179 63.6614 441.934C67.6301 460.846 77.7916 486.07 103.646 499.132C107.531 498.731 132.901 496.794 142.411 513.091C142.693 513.57 142.687 514.158 142.401 514.632C142.115 515.106 141.583 515.382 141.042 515.356C140.849 515.351 121.458 514.539 105.463 518.94C104.276 519.262 102.74 519.429 100.901 519.429Z" fill="black"/>
<path d="M251.5 378.799C261.453 377.45 279.703 372.091 269.375 350.737C268.385 348.684 265.89 347.851 263.838 348.846C257.536 351.908 247.703 362.455 245.734 372.763C245.083 376.19 248.036 379.268 251.5 378.799Z" fill="white"/>
<path d="M251.297 377.304C256.62 376.586 266.068 374.414 269.547 367.945C271.807 363.742 271.297 358.169 268.016 351.393C267.719 350.773 267.193 350.315 266.536 350.086C265.864 349.851 265.146 349.893 264.5 350.2C258.552 353.091 249.104 363.174 247.219 373.044C247 374.185 247.344 375.336 248.151 376.19C248.974 377.054 250.12 377.466 251.297 377.304ZM250.818 380.351C249 380.351 247.229 379.601 245.958 378.263C244.474 376.695 243.854 374.586 244.255 372.481C246.396 361.268 256.802 350.586 263.182 347.487C264.547 346.83 266.094 346.737 267.531 347.231C268.948 347.726 270.088 348.737 270.734 350.08C274.458 357.773 274.953 364.268 272.203 369.377C268.297 376.638 258.896 379.32 251.698 380.294C251.406 380.336 251.109 380.351 250.818 380.351Z" fill="black"/>
</svg>
