<svg xmlns="http://www.w3.org/2000/svg" xmlns:xlink="http://www.w3.org/1999/xlink" width="500" zoomAndPan="magnify" viewBox="0 0 375 374.999991" height="500" preserveAspectRatio="xMidYMid meet" version="1.0"><defs><g/><clipPath id="4da3136b6d"><path d="M 43.5 46.171875 L 344 46.171875 L 344 341 L 43.5 341 Z M 43.5 46.171875 " clip-rule="nonzero"/></clipPath><clipPath id="a08b9d365a"><path d="M 60.75 46.171875 L 326.25 46.171875 C 330.824219 46.171875 335.210938 47.988281 338.449219 51.222656 C 341.683594 54.457031 343.5 58.84375 343.5 63.421875 L 343.5 323.578125 C 343.5 328.15625 341.683594 332.542969 338.449219 335.777344 C 335.210938 339.011719 330.824219 340.828125 326.25 340.828125 L 60.75 340.828125 C 56.175781 340.828125 51.789062 339.011719 48.550781 335.777344 C 45.316406 332.542969 43.5 328.15625 43.5 323.578125 L 43.5 63.421875 C 43.5 58.84375 45.316406 54.457031 48.550781 51.222656 C 51.789062 47.988281 56.175781 46.171875 60.75 46.171875 " clip-rule="nonzero"/></clipPath><clipPath id="a96e55996a"><path d="M 43.5 46.171875 L 343.5 46.171875 L 343.5 340.921875 L 43.5 340.921875 Z M 43.5 46.171875 " clip-rule="nonzero"/></clipPath><clipPath id="465d37c1e0"><path d="M 60.75 46.171875 L 326.25 46.171875 C 330.824219 46.171875 335.210938 47.988281 338.445312 51.222656 C 341.679688 54.460938 343.5 58.847656 343.5 63.425781 L 343.5 323.664062 C 343.5 328.242188 341.679688 332.628906 338.445312 335.867188 C 335.210938 339.101562 330.824219 340.921875 326.25 340.921875 L 60.75 340.921875 C 56.175781 340.921875 51.789062 339.101562 48.554688 335.867188 C 45.320312 332.628906 43.5 328.242188 43.5 323.664062 L 43.5 63.425781 C 43.5 58.847656 45.320312 54.460938 48.554688 51.222656 C 51.789062 47.988281 56.175781 46.171875 60.75 46.171875 " clip-rule="nonzero"/></clipPath><clipPath id="f28f4397b2"><path d="M 31.5 34.171875 L 332 34.171875 L 332 329 L 31.5 329 Z M 31.5 34.171875 " clip-rule="nonzero"/></clipPath><clipPath id="800c7bbde1"><path d="M 48.75 34.171875 L 314.25 34.171875 C 318.824219 34.171875 323.210938 35.988281 326.449219 39.222656 C 329.683594 42.457031 331.5 46.84375 331.5 51.421875 L 331.5 311.578125 C 331.5 316.15625 329.683594 320.542969 326.449219 323.777344 C 323.210938 327.011719 318.824219 328.828125 314.25 328.828125 L 48.75 328.828125 C 44.175781 328.828125 39.789062 327.011719 36.550781 323.777344 C 33.316406 320.542969 31.5 316.15625 31.5 311.578125 L 31.5 51.421875 C 31.5 46.84375 33.316406 42.457031 36.550781 39.222656 C 39.789062 35.988281 44.175781 34.171875 48.75 34.171875 " clip-rule="nonzero"/></clipPath><clipPath id="0255b95929"><path d="M 31.5 34.171875 L 331.5 34.171875 L 331.5 328.921875 L 31.5 328.921875 Z M 31.5 34.171875 " clip-rule="nonzero"/></clipPath><clipPath id="6b7e4dccf8"><path d="M 48.75 34.171875 L 314.25 34.171875 C 318.824219 34.171875 323.210938 35.988281 326.445312 39.222656 C 329.679688 42.460938 331.5 46.847656 331.5 51.425781 L 331.5 311.664062 C 331.5 316.242188 329.679688 320.628906 326.445312 323.867188 C 323.210938 327.101562 318.824219 328.921875 314.25 328.921875 L 48.75 328.921875 C 44.175781 328.921875 39.789062 327.101562 36.554688 323.867188 C 33.320312 320.628906 31.5 316.242188 31.5 311.664062 L 31.5 51.425781 C 31.5 46.847656 33.320312 42.460938 36.554688 39.222656 C 39.789062 35.988281 44.175781 34.171875 48.75 34.171875 " clip-rule="nonzero"/></clipPath></defs><g clip-path="url(#4da3136b6d)"><g clip-path="url(#a08b9d365a)"><path fill="#4880ff" d="M 43.5 46.171875 L 344.085938 46.171875 L 344.085938 341.484375 L 43.5 341.484375 Z M 43.5 46.171875 " fill-opacity="1" fill-rule="nonzero"/></g></g><g clip-path="url(#a96e55996a)"><g clip-path="url(#465d37c1e0)"><path stroke-linecap="butt" transform="matrix(0.75, 0, 0, 0.750239, 43.501674, 46.170232)" fill="none" stroke-linejoin="miter" d="M 22.997769 0.00218975 L 376.997792 0.00218975 C 383.096751 0.00218975 388.94571 2.423294 393.25821 6.734423 C 397.57071 11.050758 399.997794 16.897856 399.997794 23.000081 L 399.997794 369.874101 C 399.997794 375.976326 397.57071 381.823425 393.25821 386.13976 C 388.94571 390.450888 383.096751 392.8772 376.997792 392.8772 L 22.997769 392.8772 C 16.89881 392.8772 11.049851 390.450888 6.737351 386.13976 C 2.424851 381.823425 -0.00223259 375.976326 -0.00223259 369.874101 L -0.00223259 23.000081 C -0.00223259 16.897856 2.424851 11.050758 6.737351 6.734423 C 11.049851 2.423294 16.89881 0.00218975 22.997769 0.00218975 " stroke="#202124" stroke-width="8" stroke-opacity="1" stroke-miterlimit="4"/></g></g><g clip-path="url(#f28f4397b2)"><g clip-path="url(#800c7bbde1)"><path fill="#ffffff" d="M 31.5 34.171875 L 332.085938 34.171875 L 332.085938 329.484375 L 31.5 329.484375 Z M 31.5 34.171875 " fill-opacity="1" fill-rule="nonzero"/></g></g><g clip-path="url(#0255b95929)"><g clip-path="url(#6b7e4dccf8)"><path stroke-linecap="butt" transform="matrix(0.75, 0, 0, 0.750239, 31.501676, 34.170232)" fill="none" stroke-linejoin="miter" d="M 22.997767 0.00218966 L 376.99779 0.00218966 C 383.096749 0.00218966 388.945708 2.423294 393.258208 6.734423 C 397.570708 11.050758 399.997792 16.897856 399.997792 23.000081 L 399.997792 369.874101 C 399.997792 375.976326 397.570708 381.823424 393.258208 386.13976 C 388.945708 390.450888 383.096749 392.877199 376.99779 392.877199 L 22.997767 392.877199 C 16.898808 392.877199 11.049849 390.450888 6.737349 386.13976 C 2.424849 381.823424 -0.0022346 375.976326 -0.0022346 369.874101 L -0.0022346 23.000081 C -0.0022346 16.897856 2.424849 11.050758 6.737349 6.734423 C 11.049849 2.423294 16.898808 0.00218966 22.997767 0.00218966 " stroke="#202124" stroke-width="8" stroke-opacity="1" stroke-miterlimit="4"/></g></g><g fill="#4880ff" fill-opacity="1"><g transform="translate(75.796873, 197.624987)"><g><path d="M 12.6875 0.578125 C 10.5 0.578125 8.566406 0.0390625 6.890625 -1.03125 C 5.210938 -2.113281 3.894531 -3.660156 2.9375 -5.671875 C 1.988281 -7.679688 1.515625 -10.054688 1.515625 -12.796875 C 1.515625 -15.566406 1.988281 -17.945312 2.9375 -19.9375 C 3.894531 -21.9375 5.210938 -23.472656 6.890625 -24.546875 C 8.566406 -25.617188 10.5 -26.15625 12.6875 -26.15625 C 14.3125 -26.15625 15.804688 -25.816406 17.171875 -25.140625 C 18.546875 -24.460938 19.597656 -23.585938 20.328125 -22.515625 L 20.328125 -32.453125 C 20.328125 -35.566406 21.867188 -37.125 24.953125 -37.125 C 26.453125 -37.125 27.597656 -36.722656 28.390625 -35.921875 C 29.191406 -35.128906 29.59375 -33.972656 29.59375 -32.453125 L 29.59375 -4.21875 C 29.59375 -1.09375 28.066406 0.46875 25.015625 0.46875 C 22.273438 0.46875 20.765625 -0.832031 20.484375 -3.4375 C 19.796875 -2.21875 18.75 -1.242188 17.34375 -0.515625 C 15.9375 0.210938 14.382812 0.578125 12.6875 0.578125 Z M 15.65625 -6.234375 C 17.039062 -6.234375 18.179688 -6.753906 19.078125 -7.796875 C 19.984375 -8.835938 20.4375 -10.503906 20.4375 -12.796875 C 20.4375 -15.117188 19.984375 -16.789062 19.078125 -17.8125 C 18.179688 -18.832031 17.039062 -19.34375 15.65625 -19.34375 C 14.226562 -19.34375 13.0625 -18.832031 12.15625 -17.8125 C 11.257812 -16.789062 10.8125 -15.117188 10.8125 -12.796875 C 10.8125 -10.503906 11.257812 -8.835938 12.15625 -7.796875 C 13.0625 -6.753906 14.226562 -6.234375 15.65625 -6.234375 Z M 15.65625 -6.234375 "/></g></g></g><g fill="#4880ff" fill-opacity="1"><g transform="translate(108.03442, 197.624987)"><g><path d="M 7.28125 -29.75 C 5.65625 -29.75 4.398438 -30.128906 3.515625 -30.890625 C 2.628906 -31.648438 2.1875 -32.757812 2.1875 -34.21875 C 2.1875 -35.632812 2.628906 -36.722656 3.515625 -37.484375 C 4.398438 -38.253906 5.65625 -38.640625 7.28125 -38.640625 C 10.707031 -38.640625 12.421875 -37.164062 12.421875 -34.21875 C 12.421875 -32.757812 11.976562 -31.648438 11.09375 -30.890625 C 10.21875 -30.128906 8.945312 -29.75 7.28125 -29.75 Z M 7.28125 0.46875 C 5.789062 0.46875 4.65625 0.0351562 3.875 -0.828125 C 3.09375 -1.691406 2.703125 -2.941406 2.703125 -4.578125 L 2.703125 -21.015625 C 2.703125 -22.640625 3.09375 -23.882812 3.875 -24.75 C 4.65625 -25.613281 5.789062 -26.046875 7.28125 -26.046875 C 8.769531 -26.046875 9.921875 -25.613281 10.734375 -24.75 C 11.546875 -23.882812 11.953125 -22.640625 11.953125 -21.015625 L 11.953125 -4.578125 C 11.953125 -2.941406 11.550781 -1.691406 10.75 -0.828125 C 9.957031 0.0351562 8.800781 0.46875 7.28125 0.46875 Z M 7.28125 0.46875 "/></g></g></g><g fill="#4880ff" fill-opacity="1"><g transform="translate(122.645308, 197.624987)"><g><path d="M 15.390625 9.9375 C 11.472656 9.9375 8.25 9.429688 5.71875 8.421875 C 4.46875 7.972656 3.660156 7.3125 3.296875 6.4375 C 2.929688 5.570312 2.890625 4.695312 3.171875 3.8125 C 3.453125 2.9375 3.945312 2.265625 4.65625 1.796875 C 5.363281 1.328125 6.203125 1.265625 7.171875 1.609375 C 8.703125 2.234375 10.082031 2.640625 11.3125 2.828125 C 12.539062 3.023438 13.609375 3.125 14.515625 3.125 C 16.628906 3.125 18.210938 2.679688 19.265625 1.796875 C 20.328125 0.910156 20.859375 -0.46875 20.859375 -2.34375 L 20.859375 -4.734375 C 20.128906 -3.484375 19.035156 -2.492188 17.578125 -1.765625 C 16.117188 -1.035156 14.554688 -0.671875 12.890625 -0.671875 C 10.609375 -0.671875 8.617188 -1.195312 6.921875 -2.25 C 5.222656 -3.3125 3.894531 -4.796875 2.9375 -6.703125 C 1.988281 -8.609375 1.515625 -10.847656 1.515625 -13.421875 C 1.515625 -15.984375 1.988281 -18.21875 2.9375 -20.125 C 3.894531 -22.03125 5.222656 -23.507812 6.921875 -24.5625 C 8.617188 -25.625 10.609375 -26.15625 12.890625 -26.15625 C 14.585938 -26.15625 16.15625 -25.800781 17.59375 -25.09375 C 19.039062 -24.382812 20.09375 -23.421875 20.75 -22.203125 C 21.0625 -24.765625 22.585938 -26.046875 25.328125 -26.046875 C 28.335938 -26.046875 29.84375 -24.503906 29.84375 -21.421875 L 29.84375 -3.4375 C 29.84375 1.039062 28.59375 4.390625 26.09375 6.609375 C 23.601562 8.828125 20.035156 9.9375 15.390625 9.9375 Z M 15.75 -7.484375 C 17.28125 -7.484375 18.492188 -8.003906 19.390625 -9.046875 C 20.296875 -10.085938 20.75 -11.546875 20.75 -13.421875 C 20.75 -15.285156 20.296875 -16.738281 19.390625 -17.78125 C 18.492188 -18.820312 17.28125 -19.34375 15.75 -19.34375 C 14.257812 -19.34375 13.0625 -18.820312 12.15625 -17.78125 C 11.257812 -16.738281 10.8125 -15.285156 10.8125 -13.421875 C 10.8125 -11.546875 11.257812 -10.085938 12.15625 -9.046875 C 13.0625 -8.003906 14.257812 -7.484375 15.75 -7.484375 Z M 15.75 -7.484375 "/></g></g></g><g fill="#4880ff" fill-opacity="1"><g transform="translate(155.194832, 197.624987)"><g><path d="M 7.28125 -29.75 C 5.65625 -29.75 4.398438 -30.128906 3.515625 -30.890625 C 2.628906 -31.648438 2.1875 -32.757812 2.1875 -34.21875 C 2.1875 -35.632812 2.628906 -36.722656 3.515625 -37.484375 C 4.398438 -38.253906 5.65625 -38.640625 7.28125 -38.640625 C 10.707031 -38.640625 12.421875 -37.164062 12.421875 -34.21875 C 12.421875 -32.757812 11.976562 -31.648438 11.09375 -30.890625 C 10.21875 -30.128906 8.945312 -29.75 7.28125 -29.75 Z M 7.28125 0.46875 C 5.789062 0.46875 4.65625 0.0351562 3.875 -0.828125 C 3.09375 -1.691406 2.703125 -2.941406 2.703125 -4.578125 L 2.703125 -21.015625 C 2.703125 -22.640625 3.09375 -23.882812 3.875 -24.75 C 4.65625 -25.613281 5.789062 -26.046875 7.28125 -26.046875 C 8.769531 -26.046875 9.921875 -25.613281 10.734375 -24.75 C 11.546875 -23.882812 11.953125 -22.640625 11.953125 -21.015625 L 11.953125 -4.578125 C 11.953125 -2.941406 11.550781 -1.691406 10.75 -0.828125 C 9.957031 0.0351562 8.800781 0.46875 7.28125 0.46875 Z M 7.28125 0.46875 "/></g></g></g><g fill="#4880ff" fill-opacity="1"><g transform="translate(169.805721, 197.624987)"><g><path d="M 12.6875 0.578125 C 10.5 0.578125 8.566406 0.0390625 6.890625 -1.03125 C 5.210938 -2.113281 3.894531 -3.660156 2.9375 -5.671875 C 1.988281 -7.679688 1.515625 -10.054688 1.515625 -12.796875 C 1.515625 -15.566406 1.988281 -17.945312 2.9375 -19.9375 C 3.894531 -21.9375 5.210938 -23.472656 6.890625 -24.546875 C 8.566406 -25.617188 10.5 -26.15625 12.6875 -26.15625 C 14.3125 -26.15625 15.804688 -25.816406 17.171875 -25.140625 C 18.546875 -24.460938 19.597656 -23.585938 20.328125 -22.515625 L 20.328125 -32.453125 C 20.328125 -35.566406 21.867188 -37.125 24.953125 -37.125 C 26.453125 -37.125 27.597656 -36.722656 28.390625 -35.921875 C 29.191406 -35.128906 29.59375 -33.972656 29.59375 -32.453125 L 29.59375 -4.21875 C 29.59375 -1.09375 28.066406 0.46875 25.015625 0.46875 C 22.273438 0.46875 20.765625 -0.832031 20.484375 -3.4375 C 19.796875 -2.21875 18.75 -1.242188 17.34375 -0.515625 C 15.9375 0.210938 14.382812 0.578125 12.6875 0.578125 Z M 15.65625 -6.234375 C 17.039062 -6.234375 18.179688 -6.753906 19.078125 -7.796875 C 19.984375 -8.835938 20.4375 -10.503906 20.4375 -12.796875 C 20.4375 -15.117188 19.984375 -16.789062 19.078125 -17.8125 C 18.179688 -18.832031 17.039062 -19.34375 15.65625 -19.34375 C 14.226562 -19.34375 13.0625 -18.832031 12.15625 -17.8125 C 11.257812 -16.789062 10.8125 -15.117188 10.8125 -12.796875 C 10.8125 -10.503906 11.257812 -8.835938 12.15625 -7.796875 C 13.0625 -6.753906 14.226562 -6.234375 15.65625 -6.234375 Z M 15.65625 -6.234375 "/></g></g></g><g fill="#4880ff" fill-opacity="1"><g transform="translate(202.043267, 197.624987)"><g><path d="M 15.65625 0.578125 C 12.8125 0.578125 10.332031 0.0390625 8.21875 -1.03125 C 6.101562 -2.113281 4.457031 -3.660156 3.28125 -5.671875 C 2.101562 -7.679688 1.515625 -10.054688 1.515625 -12.796875 C 1.515625 -15.566406 2.101562 -17.945312 3.28125 -19.9375 C 4.457031 -21.9375 6.101562 -23.472656 8.21875 -24.546875 C 10.332031 -25.617188 12.8125 -26.15625 15.65625 -26.15625 C 18.5 -26.15625 20.976562 -25.617188 23.09375 -24.546875 C 25.207031 -23.472656 26.84375 -21.9375 28 -19.9375 C 29.164062 -17.945312 29.75 -15.566406 29.75 -12.796875 C 29.75 -10.054688 29.164062 -7.679688 28 -5.671875 C 26.84375 -3.660156 25.207031 -2.113281 23.09375 -1.03125 C 20.976562 0.0390625 18.5 0.578125 15.65625 0.578125 Z M 15.65625 -6.234375 C 17.039062 -6.234375 18.179688 -6.753906 19.078125 -7.796875 C 19.984375 -8.835938 20.4375 -10.503906 20.4375 -12.796875 C 20.4375 -15.117188 19.984375 -16.789062 19.078125 -17.8125 C 18.179688 -18.832031 17.039062 -19.34375 15.65625 -19.34375 C 14.226562 -19.34375 13.0625 -18.832031 12.15625 -17.8125 C 11.257812 -16.789062 10.8125 -15.117188 10.8125 -12.796875 C 10.8125 -10.503906 11.257812 -8.835938 12.15625 -7.796875 C 13.0625 -6.753906 14.226562 -6.234375 15.65625 -6.234375 Z M 15.65625 -6.234375 "/></g></g></g><g fill="#4880ff" fill-opacity="1"><g transform="translate(233.344893, 197.624987)"><g><path d="M 7.4375 0.46875 C 4.28125 0.46875 2.703125 -1.09375 2.703125 -4.21875 L 2.703125 -21.421875 C 2.703125 -24.503906 4.210938 -26.046875 7.234375 -26.046875 C 8.648438 -26.046875 9.75 -25.644531 10.53125 -24.84375 C 11.3125 -24.050781 11.703125 -22.910156 11.703125 -21.421875 L 11.703125 -21.265625 C 12.285156 -22.753906 13.234375 -23.929688 14.546875 -24.796875 C 15.867188 -25.671875 17.429688 -26.125 19.234375 -26.15625 C 20.242188 -26.1875 21 -25.929688 21.5 -25.390625 C 22 -24.859375 22.269531 -23.863281 22.3125 -22.40625 C 22.3125 -21.164062 22.050781 -20.179688 21.53125 -19.453125 C 21.007812 -18.722656 20.019531 -18.285156 18.5625 -18.140625 L 17.375 -18.046875 C 15.53125 -17.867188 14.191406 -17.351562 13.359375 -16.5 C 12.523438 -15.65625 12.109375 -14.398438 12.109375 -12.734375 L 12.109375 -4.21875 C 12.109375 -1.09375 10.550781 0.46875 7.4375 0.46875 Z M 7.4375 0.46875 "/></g></g></g><g fill="#4880ff" fill-opacity="1"><g transform="translate(255.911176, 197.624987)"><g><path d="M 15.65625 0.578125 C 12.8125 0.578125 10.332031 0.0390625 8.21875 -1.03125 C 6.101562 -2.113281 4.457031 -3.660156 3.28125 -5.671875 C 2.101562 -7.679688 1.515625 -10.054688 1.515625 -12.796875 C 1.515625 -15.566406 2.101562 -17.945312 3.28125 -19.9375 C 4.457031 -21.9375 6.101562 -23.472656 8.21875 -24.546875 C 10.332031 -25.617188 12.8125 -26.15625 15.65625 -26.15625 C 18.5 -26.15625 20.976562 -25.617188 23.09375 -24.546875 C 25.207031 -23.472656 26.84375 -21.9375 28 -19.9375 C 29.164062 -17.945312 29.75 -15.566406 29.75 -12.796875 C 29.75 -10.054688 29.164062 -7.679688 28 -5.671875 C 26.84375 -3.660156 25.207031 -2.113281 23.09375 -1.03125 C 20.976562 0.0390625 18.5 0.578125 15.65625 0.578125 Z M 15.65625 -6.234375 C 17.039062 -6.234375 18.179688 -6.753906 19.078125 -7.796875 C 19.984375 -8.835938 20.4375 -10.503906 20.4375 -12.796875 C 20.4375 -15.117188 19.984375 -16.789062 19.078125 -17.8125 C 18.179688 -18.832031 17.039062 -19.34375 15.65625 -19.34375 C 14.226562 -19.34375 13.0625 -18.832031 12.15625 -17.8125 C 11.257812 -16.789062 10.8125 -15.117188 10.8125 -12.796875 C 10.8125 -10.503906 11.257812 -8.835938 12.15625 -7.796875 C 13.0625 -6.753906 14.226562 -6.234375 15.65625 -6.234375 Z M 15.65625 -6.234375 "/></g></g></g></svg>