<svg width="970" height="388" viewBox="0 0 970 388" fill="none" xmlns="http://www.w3.org/2000/svg">
<path d="M416.619 241.363C410.556 241.363 405.181 239.868 400.493 236.877C395.804 233.886 392.126 229.602 389.459 224.025C386.812 218.427 385.498 211.809 385.498 204.18C385.498 196.45 386.812 189.812 389.459 184.255C392.126 178.708 395.804 174.433 400.493 171.443C405.181 168.452 410.556 166.956 416.619 166.956C421.166 166.956 425.349 167.906 429.148 169.786C432.967 171.645 435.898 174.09 437.918 177.101V149.416C437.918 140.746 442.213 136.401 450.811 136.401C454.954 136.401 458.137 137.523 460.35 139.756C462.583 141.969 463.704 145.192 463.704 149.416V228.066C463.704 236.746 459.44 241.081 450.933 241.081C443.304 241.081 439.111 237.473 438.363 230.249C436.423 233.624 433.493 236.311 429.593 238.332C425.682 240.353 421.358 241.363 416.619 241.363ZM424.864 222.408C428.744 222.408 431.937 220.973 434.443 218.083C436.948 215.173 438.201 210.546 438.201 204.18C438.201 197.713 436.948 193.055 434.443 190.196C431.937 187.347 428.744 185.912 424.864 185.912C420.923 185.912 417.69 187.347 415.164 190.196C412.658 193.055 411.405 197.713 411.405 204.18C411.405 210.546 412.658 215.173 415.164 218.083C417.69 220.973 420.923 222.408 424.864 222.408Z" fill="#202124"/>
<path d="M491.346 156.975C486.789 156.975 483.273 155.914 480.797 153.782C478.342 151.66 477.119 148.558 477.119 144.486C477.119 140.525 478.342 137.494 480.797 135.392C483.273 133.27 486.789 132.199 491.346 132.199C500.884 132.199 505.653 136.302 505.653 144.486C505.653 148.558 504.421 151.66 501.975 153.782C499.52 155.914 495.974 156.975 491.346 156.975ZM491.346 241.082C487.193 241.082 484.03 239.879 481.848 237.485C479.665 235.06 478.574 231.584 478.574 227.057V181.265C478.574 176.738 479.665 173.283 481.848 170.878C484.03 168.453 487.193 167.24 491.346 167.24C495.489 167.24 498.702 168.453 500.965 170.878C503.228 173.283 504.36 176.738 504.36 181.265V227.057C504.36 231.584 503.238 235.06 501.005 237.485C498.793 239.879 495.569 241.082 491.346 241.082Z" fill="#202124"/>
<path d="M554.622 267.431C543.71 267.431 534.717 266.026 527.664 263.228C524.188 261.985 521.935 260.156 520.915 257.731C519.914 255.326 519.793 252.891 520.551 250.415C521.329 247.96 522.703 246.071 524.673 244.757C526.664 243.464 529.008 243.302 531.706 244.272C535.96 246.02 539.799 247.152 543.225 247.667C546.64 248.203 549.621 248.475 552.157 248.475C558.027 248.475 562.433 247.233 565.373 244.757C568.333 242.302 569.819 238.482 569.819 233.279V226.61C567.798 230.086 564.746 232.834 560.685 234.855C556.643 236.876 552.298 237.886 547.67 237.886C541.285 237.886 535.717 236.421 530.978 233.481C526.26 230.551 522.572 226.428 519.904 221.113C517.257 215.809 515.943 209.585 515.943 202.441C515.943 195.277 517.257 189.043 519.904 183.728C522.572 178.423 526.26 174.301 530.978 171.36C535.717 168.43 541.285 166.955 547.67 166.955C552.379 166.955 556.744 167.955 560.765 169.946C564.777 171.916 567.697 174.584 569.536 177.948C570.395 170.815 574.638 167.238 582.267 167.238C590.674 167.238 594.877 171.542 594.877 180.131V230.248C594.877 242.696 591.401 252.002 584.45 258.176C577.498 264.339 567.555 267.431 554.622 267.431ZM555.633 218.931C559.856 218.931 563.231 217.496 565.737 214.606C568.263 211.696 569.536 207.645 569.536 202.441C569.536 197.217 568.263 193.165 565.737 190.275C563.231 187.365 559.856 185.91 555.633 185.91C551.48 185.91 548.135 187.365 545.609 190.275C543.103 193.165 541.85 197.217 541.85 202.441C541.85 207.645 543.103 211.696 545.609 214.606C548.135 217.496 551.48 218.931 555.633 218.931Z" fill="#202124"/>
<path d="M622.662 156.975C618.105 156.975 614.589 155.914 612.113 153.782C609.658 151.66 608.436 148.558 608.436 144.486C608.436 140.525 609.658 137.494 612.113 135.392C614.589 133.27 618.105 132.199 622.662 132.199C632.201 132.199 636.97 136.302 636.97 144.486C636.97 148.558 635.737 151.66 633.292 153.782C630.836 155.914 627.29 156.975 622.662 156.975ZM622.662 241.082C618.509 241.082 615.347 239.879 613.164 237.485C610.982 235.06 609.891 231.584 609.891 227.057V181.265C609.891 176.738 610.982 173.283 613.164 170.878C615.347 168.453 618.509 167.24 622.662 167.24C626.805 167.24 630.018 168.453 632.281 170.878C634.545 173.283 635.676 176.738 635.676 181.265V227.057C635.676 231.584 634.555 235.06 632.322 237.485C630.109 239.879 626.886 241.082 622.662 241.082Z" fill="#202124"/>
<path d="M678.382 241.362C672.319 241.362 666.944 239.867 662.255 236.876C657.567 233.885 653.889 229.601 651.222 224.024C648.574 218.426 647.261 211.808 647.261 204.179C647.261 196.449 648.574 189.811 651.222 184.254C653.889 178.707 657.567 174.432 662.255 171.442C666.944 168.451 672.319 166.955 678.382 166.955C682.928 166.955 687.112 167.905 690.911 169.785C694.73 171.644 697.66 174.089 699.681 177.1V149.415C699.681 140.745 703.975 136.4 712.574 136.4C716.717 136.4 719.9 137.522 722.112 139.755C724.345 141.968 725.467 145.191 725.467 149.415V228.065C725.467 236.745 721.203 241.08 712.695 241.08C705.067 241.08 700.873 237.472 700.126 230.248C698.186 233.623 695.256 236.31 691.355 238.331C687.445 240.352 683.12 241.362 678.382 241.362ZM686.627 222.407C690.507 222.407 693.699 220.972 696.205 218.082C698.711 215.172 699.964 210.545 699.964 204.179C699.964 197.712 698.711 193.054 696.205 190.195C693.699 187.346 690.507 185.911 686.627 185.911C682.686 185.911 679.453 187.346 676.927 190.195C674.421 193.054 673.168 197.712 673.168 204.179C673.168 210.545 674.421 215.172 676.927 218.082C679.453 220.972 682.686 222.407 686.627 222.407Z" fill="#202124"/>
<path d="M776.391 241.362C768.49 241.362 761.599 239.867 755.698 236.876C749.817 233.885 745.24 229.601 741.956 224.023C738.662 218.426 737.025 211.807 737.025 204.179C737.025 196.449 738.662 189.811 741.956 184.253C745.24 178.706 749.817 174.432 755.698 171.441C761.599 168.45 768.49 166.955 776.391 166.955C784.313 166.955 791.204 168.45 797.085 171.441C802.985 174.432 807.552 178.706 810.786 184.253C814.019 189.811 815.636 196.449 815.636 204.179C815.636 211.807 814.019 218.426 810.786 224.023C807.552 229.601 802.985 233.885 797.085 236.876C791.204 239.867 784.313 241.362 776.391 241.362ZM776.391 222.407C780.271 222.407 783.464 220.972 785.97 218.082C788.476 215.172 789.729 210.544 789.729 204.179C789.729 197.712 788.476 193.054 785.97 190.195C783.464 187.345 780.271 185.91 776.391 185.91C772.451 185.91 769.217 187.345 766.691 190.195C764.185 193.054 762.932 197.712 762.932 204.179C762.932 210.544 764.185 215.172 766.691 218.082C769.217 220.972 772.451 222.407 776.391 222.407Z" fill="#202124"/>
<path d="M840.673 241.08C831.882 241.08 827.497 236.745 827.497 228.066V180.132C827.497 171.543 831.7 167.239 840.107 167.239C844.068 167.239 847.119 168.36 849.282 170.593C851.464 172.806 852.555 175.989 852.555 180.132V180.576C854.192 176.403 856.85 173.119 860.517 170.715C864.175 168.29 868.53 167.037 873.572 166.956C876.371 166.855 878.473 167.552 879.877 169.058C881.271 170.543 882.019 173.322 882.1 177.383C882.1 180.859 881.372 183.608 879.917 185.628C878.483 187.649 875.734 188.862 871.672 189.266L868.358 189.549C863.236 190.034 859.517 191.469 857.203 193.833C854.879 196.177 853.727 199.673 853.727 204.301V228.066C853.727 236.745 849.373 241.08 840.673 241.08Z" fill="#202124"/>
<path d="M926.383 241.362C918.482 241.362 911.591 239.867 905.69 236.876C899.809 233.885 895.232 229.601 891.948 224.023C888.654 218.426 887.018 211.807 887.018 204.179C887.018 196.449 888.654 189.811 891.948 184.253C895.232 178.706 899.809 174.432 905.69 171.441C911.591 168.45 918.482 166.955 926.383 166.955C934.305 166.955 941.196 168.45 947.077 171.441C952.978 174.432 957.545 178.706 960.778 184.253C964.011 189.811 965.628 196.449 965.628 204.179C965.628 211.807 964.011 218.426 960.778 224.023C957.545 229.601 952.978 233.885 947.077 236.876C941.196 239.867 934.305 241.362 926.383 241.362ZM926.383 222.407C930.263 222.407 933.456 220.972 935.962 218.082C938.468 215.172 939.721 210.544 939.721 204.179C939.721 197.712 938.468 193.054 935.962 190.195C933.456 187.345 930.263 185.91 926.383 185.91C922.443 185.91 919.209 187.345 916.683 190.195C914.178 193.054 912.925 197.712 912.925 204.179C912.925 210.544 914.178 215.172 916.683 218.082C919.209 220.972 922.443 222.407 926.383 222.407Z" fill="#202124"/>
<path d="M35.647 128.853C27.6648 128.853 21.5113 126.984 17.1766 123.235C12.8621 119.497 10.71 114.061 10.71 106.948C10.71 99.9756 12.8621 94.6204 17.1766 90.9021C21.5113 87.1636 27.6648 85.2842 35.647 85.2842C52.4604 85.2842 60.867 92.5087 60.867 106.948C60.867 114.061 58.6947 119.497 54.36 123.235C50.0455 126.984 43.8112 128.853 35.647 128.853ZM35.647 276.859C28.3417 276.859 22.7743 274.737 18.955 270.514C15.1558 266.26 13.2562 260.127 13.2562 252.124V171.655C13.2562 163.652 15.1558 157.539 18.955 153.305C22.7743 149.052 28.3417 146.92 35.647 146.92C42.9423 146.92 48.5905 149.052 52.5816 153.305C56.593 157.539 58.6037 163.652 58.6037 171.655V252.124C58.6037 260.127 56.6435 266.26 52.7433 270.514C48.833 274.737 43.1342 276.859 35.647 276.859Z" fill="#4880FF"/>
<path d="M146.995 323.218C127.777 323.218 111.974 320.753 99.5861 315.822C93.463 313.609 89.5224 310.376 87.7441 306.122C85.9657 301.888 85.7434 297.604 87.0974 293.269C88.4716 288.955 90.8966 285.641 94.3724 283.327C97.8482 281.033 101.971 280.74 106.74 282.438C114.197 285.509 120.946 287.5 126.989 288.419C133.021 289.359 138.245 289.834 142.67 289.834C153.017 289.834 160.777 287.661 165.95 283.327C171.144 279.012 173.751 272.273 173.751 263.078V251.357C170.164 257.48 164.798 262.33 157.665 265.907C150.552 269.464 142.913 271.242 134.749 271.242C123.533 271.242 113.772 268.656 105.447 263.482C97.1207 258.309 90.6237 251.054 85.9657 241.698C81.2976 232.351 78.9736 221.398 78.9736 208.839C78.9736 196.259 81.2976 185.306 85.9657 175.98C90.6237 166.634 97.1207 159.369 105.447 154.196C113.772 149.022 123.533 146.436 134.749 146.436C143.074 146.436 150.754 148.173 157.786 151.649C164.839 155.125 169.992 159.844 173.225 165.795C174.761 153.215 182.238 146.921 195.657 146.921C210.419 146.921 217.805 154.478 217.805 169.594V257.743C217.805 279.649 211.682 296.028 199.456 306.89C187.22 317.772 169.729 323.218 146.995 323.218ZM148.773 237.858C156.23 237.858 162.171 235.312 166.597 230.219C171.012 225.127 173.225 218.003 173.225 208.839C173.225 199.654 171.012 192.511 166.597 187.418C162.171 182.326 156.23 179.779 148.773 179.779C141.468 179.779 135.607 182.326 131.192 187.418C126.766 192.511 124.564 199.654 124.564 208.839C124.564 218.003 126.766 225.127 131.192 230.219C135.607 235.312 141.468 237.858 148.773 237.858Z" fill="#4880FF"/>
<path d="M266.679 128.853C258.697 128.853 252.544 126.984 248.209 123.235C243.894 119.497 241.742 114.061 241.742 106.948C241.742 99.9756 243.894 94.6204 248.209 90.9021C252.544 87.1636 258.697 85.2842 266.679 85.2842C283.493 85.2842 291.899 92.5087 291.899 106.948C291.899 114.061 289.727 119.497 285.392 123.235C281.078 126.984 274.843 128.853 266.679 128.853ZM266.679 276.859C259.374 276.859 253.807 274.737 249.987 270.514C246.188 266.26 244.288 260.127 244.288 252.124V171.655C244.288 163.652 246.188 157.539 249.987 153.305C253.807 149.052 259.374 146.92 266.679 146.92C273.974 146.92 279.623 149.052 283.614 153.305C287.625 157.539 289.636 163.652 289.636 171.655V252.124C289.636 260.127 287.676 266.26 283.776 270.514C279.865 274.737 274.166 276.859 266.679 276.859Z" fill="#4880FF"/>
</svg>
