<svg xmlns="http://www.w3.org/2000/svg" xmlns:xlink="http://www.w3.org/1999/xlink" width="500" zoomAndPan="magnify" viewBox="0 0 375 374.999991" height="500" preserveAspectRatio="xMidYMid meet" version="1.0"><defs><g/></defs><g fill="#4880ff" fill-opacity="1"><g transform="translate(28.490358, 272.157484)"><g><path d="M 37.484375 -153.140625 C 29.085938 -153.140625 22.613281 -155.101562 18.0625 -159.03125 C 13.519531 -162.957031 11.25 -168.664062 11.25 -176.15625 C 11.25 -183.476562 13.519531 -189.101562 18.0625 -193.03125 C 22.613281 -196.957031 29.085938 -198.921875 37.484375 -198.921875 C 55.148438 -198.921875 63.984375 -191.332031 63.984375 -176.15625 C 63.984375 -168.664062 61.707031 -162.957031 57.15625 -159.03125 C 52.601562 -155.101562 46.046875 -153.140625 37.484375 -153.140625 Z M 37.484375 2.40625 C 29.804688 2.40625 23.957031 0.175781 19.9375 -4.28125 C 15.925781 -8.738281 13.921875 -15.164062 13.921875 -23.5625 L 13.921875 -108.15625 C 13.921875 -116.539062 15.925781 -122.960938 19.9375 -127.421875 C 23.957031 -131.890625 29.804688 -134.125 37.484375 -134.125 C 45.160156 -134.125 51.09375 -131.890625 55.28125 -127.421875 C 59.476562 -122.960938 61.578125 -116.539062 61.578125 -108.15625 L 61.578125 -23.5625 C 61.578125 -15.164062 59.523438 -8.738281 55.421875 -4.28125 C 51.316406 0.175781 45.335938 2.40625 37.484375 2.40625 Z M 37.484375 2.40625 "/></g></g></g><g fill="#4880ff" fill-opacity="1"><g transform="translate(103.711908, 272.157484)"><g><path d="M 79.25 51.140625 C 59.082031 51.140625 42.484375 48.550781 29.453125 43.375 C 23.023438 41.050781 18.875 37.65625 17 33.1875 C 15.125 28.726562 14.898438 24.222656 16.328125 19.671875 C 17.753906 15.117188 20.296875 11.640625 23.953125 9.234375 C 27.617188 6.828125 31.945312 6.515625 36.9375 8.296875 C 44.789062 11.515625 51.882812 13.613281 58.21875 14.59375 C 64.5625 15.570312 70.050781 16.0625 74.6875 16.0625 C 85.582031 16.0625 93.75 13.785156 99.1875 9.234375 C 104.632812 4.679688 107.359375 -2.410156 107.359375 -12.046875 L 107.359375 -24.359375 C 103.609375 -17.929688 97.984375 -12.84375 90.484375 -9.09375 C 82.992188 -5.351562 74.960938 -3.484375 66.390625 -3.484375 C 54.609375 -3.484375 44.34375 -6.203125 35.59375 -11.640625 C 26.851562 -17.085938 20.03125 -24.71875 15.125 -34.53125 C 10.21875 -44.351562 7.765625 -55.867188 7.765625 -69.078125 C 7.765625 -82.273438 10.21875 -93.78125 15.125 -103.59375 C 20.03125 -113.414062 26.851562 -121.046875 35.59375 -126.484375 C 44.34375 -131.929688 54.609375 -134.65625 66.390625 -134.65625 C 75.140625 -134.65625 83.21875 -132.828125 90.625 -129.171875 C 98.03125 -125.515625 103.425781 -120.5625 106.8125 -114.3125 C 108.425781 -127.519531 116.28125 -134.125 130.375 -134.125 C 145.90625 -134.125 153.671875 -126.179688 153.671875 -110.296875 L 153.671875 -17.671875 C 153.671875 5.347656 147.242188 22.570312 134.390625 34 C 121.546875 45.425781 103.164062 51.140625 79.25 51.140625 Z M 81.125 -38.546875 C 88.96875 -38.546875 95.207031 -41.222656 99.84375 -46.578125 C 104.488281 -51.929688 106.8125 -59.429688 106.8125 -69.078125 C 106.8125 -78.710938 104.488281 -86.207031 99.84375 -91.5625 C 95.207031 -96.914062 88.96875 -99.59375 81.125 -99.59375 C 73.445312 -99.59375 67.285156 -96.914062 62.640625 -91.5625 C 58.003906 -86.207031 55.6875 -78.710938 55.6875 -69.078125 C 55.6875 -59.429688 58.003906 -51.929688 62.640625 -46.578125 C 67.285156 -41.222656 73.445312 -38.546875 81.125 -38.546875 Z M 81.125 -38.546875 "/></g></g></g><g fill="#4880ff" fill-opacity="1"><g transform="translate(271.287252, 272.157484)"><g><path d="M 37.484375 -153.140625 C 29.085938 -153.140625 22.613281 -155.101562 18.0625 -159.03125 C 13.519531 -162.957031 11.25 -168.664062 11.25 -176.15625 C 11.25 -183.476562 13.519531 -189.101562 18.0625 -193.03125 C 22.613281 -196.957031 29.085938 -198.921875 37.484375 -198.921875 C 55.148438 -198.921875 63.984375 -191.332031 63.984375 -176.15625 C 63.984375 -168.664062 61.707031 -162.957031 57.15625 -159.03125 C 52.601562 -155.101562 46.046875 -153.140625 37.484375 -153.140625 Z M 37.484375 2.40625 C 29.804688 2.40625 23.957031 0.175781 19.9375 -4.28125 C 15.925781 -8.738281 13.921875 -15.164062 13.921875 -23.5625 L 13.921875 -108.15625 C 13.921875 -116.539062 15.925781 -122.960938 19.9375 -127.421875 C 23.957031 -131.890625 29.804688 -134.125 37.484375 -134.125 C 45.160156 -134.125 51.09375 -131.890625 55.28125 -127.421875 C 59.476562 -122.960938 61.578125 -116.539062 61.578125 -108.15625 L 61.578125 -23.5625 C 61.578125 -15.164062 59.523438 -8.738281 55.421875 -4.28125 C 51.316406 0.175781 45.335938 2.40625 37.484375 2.40625 Z M 37.484375 2.40625 "/></g></g></g></svg>