<svg width="500" height="500" viewBox="0 0 500 500" fill="none" xmlns="http://www.w3.org/2000/svg">
<rect width="500" height="500" rx="50" fill="white"/>
<path d="M87.9665 158.689C76.7686 158.689 68.1383 156.075 62.0706 150.835C56.0133 145.601 52.9873 137.991 52.9873 128.002C52.9873 118.241 56.0133 110.741 62.0706 105.502C68.1383 100.267 76.7686 97.6475 87.9665 97.6475C111.519 97.6475 123.3 107.767 123.3 128.002C123.3 137.991 120.263 145.601 114.196 150.835C108.123 156.075 99.3831 158.689 87.9665 158.689ZM87.9665 366.085C77.7269 366.085 69.93 363.111 64.5706 357.168C59.2217 351.226 56.5498 342.658 56.5498 331.46V218.668C56.5498 207.491 59.2217 198.929 64.5706 192.981C69.93 187.022 77.7269 184.043 87.9665 184.043C98.2008 184.043 106.112 187.022 111.696 192.981C117.289 198.929 120.091 207.491 120.091 218.668V331.46C120.091 342.658 117.352 351.226 111.883 357.168C106.409 363.111 98.4352 366.085 87.9665 366.085Z" fill="#4880FF"/>
<path d="M243.949 431.064C217.059 431.064 194.928 427.611 177.553 420.71C168.98 417.611 163.449 413.085 160.949 407.127C158.449 401.179 158.147 395.174 160.053 389.106C161.954 383.033 165.345 378.397 170.22 375.189C175.105 371.981 180.876 371.564 187.533 373.939C198.001 378.231 207.46 381.028 215.908 382.335C224.366 383.637 231.684 384.293 237.866 384.293C252.392 384.293 263.283 381.257 270.533 375.189C277.793 369.116 281.428 359.663 281.428 346.814V330.397C276.428 338.97 268.928 345.752 258.928 350.752C248.939 355.741 238.23 358.231 226.803 358.231C211.095 358.231 197.408 354.606 185.741 347.356C174.085 340.095 164.991 329.918 158.449 316.835C151.908 303.741 148.637 288.387 148.637 270.772C148.637 253.179 151.908 237.835 158.449 224.752C164.991 211.658 174.085 201.481 185.741 194.231C197.408 186.97 211.095 183.335 226.803 183.335C238.47 183.335 249.241 185.772 259.116 190.647C268.991 195.522 276.184 202.127 280.699 210.46C282.85 192.851 293.324 184.043 312.116 184.043C332.824 184.043 343.178 194.637 343.178 215.814V339.314C343.178 370.007 334.605 392.97 317.47 408.21C300.345 423.444 275.835 431.064 243.949 431.064ZM246.449 311.481C256.908 311.481 265.225 307.913 271.408 300.772C277.6 293.637 280.699 283.637 280.699 270.772C280.699 257.929 277.6 247.934 271.408 240.793C265.225 233.658 256.908 230.085 246.449 230.085C236.21 230.085 227.996 233.658 221.803 240.793C215.621 247.934 212.533 257.929 212.533 270.772C212.533 283.637 215.621 293.637 221.803 300.772C227.996 307.913 236.21 311.481 246.449 311.481Z" fill="#4880FF"/>
<path d="M411.696 158.689C400.498 158.689 391.868 156.075 385.8 150.835C379.743 145.601 376.717 137.991 376.717 128.002C376.717 118.241 379.743 110.741 385.8 105.502C391.868 100.267 400.498 97.6475 411.696 97.6475C435.248 97.6475 447.029 107.767 447.029 128.002C447.029 137.991 443.993 145.601 437.925 150.835C431.852 156.075 423.113 158.689 411.696 158.689ZM411.696 366.085C401.456 366.085 393.66 363.111 388.3 357.168C382.951 351.226 380.279 342.658 380.279 331.46V218.668C380.279 207.491 382.951 198.929 388.3 192.981C393.66 187.022 401.456 184.043 411.696 184.043C421.93 184.043 429.842 187.022 435.425 192.981C441.019 198.929 443.821 207.491 443.821 218.668V331.46C443.821 342.658 441.081 351.226 435.613 357.168C430.139 363.111 422.165 366.085 411.696 366.085Z" fill="#4880FF"/>
</svg>
