<svg width="910" height="914" viewBox="0 0 910 914" fill="none" xmlns="http://www.w3.org/2000/svg">
<path d="M42.6934 176.838C112.839 57.7342 246.35 28.6144 296.699 17.6353C468.063 -19.7397 721.636 25.1665 843.969 228.167C951.35 406.323 891.558 596.614 882.902 622.703C868.371 666.458 831.985 771.396 728.839 842.479C568.261 953.141 323.501 928.318 239.74 814.088C200.402 760.432 232.235 735.687 186.417 640.828C125.058 513.781 48.9017 516.833 13.4174 415.109C-26.6399 300.281 36.209 187.849 42.6934 176.838Z" fill="#D1D1D1"/>
<mask id="mask0_458_29241" style="mask-type:luminance" maskUnits="userSpaceOnUse" x="402" y="485" width="127" height="429">
<path d="M402.678 485.192H528.798V913.989H402.678V485.192Z" fill="white"/>
</mask>
<g mask="url(#mask0_458_29241)">
<mask id="mask1_458_29241" style="mask-type:luminance" maskUnits="userSpaceOnUse" x="0" y="5" width="908" height="909">
<path d="M42.6934 176.838C112.839 57.7341 246.344 28.6196 296.699 17.6352C468.063 -19.7346 721.631 25.1664 843.969 228.166C951.35 406.328 891.558 596.614 882.897 622.703C868.365 666.458 831.985 771.396 728.834 842.479C568.261 953.14 323.501 928.318 239.74 814.088C200.402 760.432 232.235 735.687 186.417 640.828C125.058 513.781 48.9017 516.833 13.4174 415.114C-26.6399 300.286 36.209 187.844 42.6934 176.838Z" fill="white"/>
</mask>
<g mask="url(#mask1_458_29241)">
<path d="M402.776 971.87L436.323 485.469L528.417 952.172L402.776 971.87Z" fill="#D1D1D1"/>
</g>
</g>
<mask id="mask2_458_29241" style="mask-type:luminance" maskUnits="userSpaceOnUse" x="452" y="478" width="413" height="436">
<path d="M452.334 478.739H864.943V913.989H452.334V478.739Z" fill="white"/>
</mask>
<g mask="url(#mask2_458_29241)">
<mask id="mask3_458_29241" style="mask-type:luminance" maskUnits="userSpaceOnUse" x="0" y="5" width="908" height="909">
<path d="M42.6934 176.838C112.839 57.7341 246.344 28.6196 296.699 17.6352C468.063 -19.7346 721.631 25.1664 843.969 228.166C951.35 406.328 891.558 596.614 882.897 622.703C868.365 666.458 831.985 771.396 728.834 842.479C568.261 953.14 323.501 928.318 239.74 814.088C200.402 760.432 232.235 735.687 186.417 640.828C125.058 513.781 48.9017 516.833 13.4174 415.114C-26.6399 300.286 36.209 187.844 42.6934 176.838Z" fill="white"/>
</mask>
<g mask="url(#mask3_458_29241)">
<path d="M452.548 478.922L681.954 971.87L864.647 799.448L452.548 478.922Z" fill="white"/>
</g>
</g>
<mask id="mask4_458_29241" style="mask-type:luminance" maskUnits="userSpaceOnUse" x="506" y="448" width="402" height="288">
<path d="M506.948 448.953H907.641V735.323H506.948V448.953Z" fill="white"/>
</mask>
<g mask="url(#mask4_458_29241)">
<mask id="mask5_458_29241" style="mask-type:luminance" maskUnits="userSpaceOnUse" x="0" y="5" width="908" height="909">
<path d="M42.6934 176.838C112.839 57.7341 246.344 28.6196 296.699 17.6352C468.063 -19.7346 721.631 25.1664 843.969 228.166C951.35 406.328 891.558 596.614 882.897 622.703C868.365 666.458 831.985 771.396 728.834 842.479C568.261 953.14 323.501 928.318 239.74 814.088C200.402 760.432 232.235 735.687 186.417 640.828C125.058 513.781 48.9017 516.833 13.4174 415.114C-26.6399 300.286 36.209 187.844 42.6934 176.838Z" fill="white"/>
</mask>
<g mask="url(#mask5_458_29241)">
<path d="M507.032 449.338C509.621 448.359 900.246 735.266 900.246 735.266L972.845 526.604L507.032 449.338Z" fill="#232323"/>
</g>
</g>
<mask id="mask6_458_29241" style="mask-type:luminance" maskUnits="userSpaceOnUse" x="73" y="5" width="314" height="471">
<path d="M73.4844 5.60938H386.297V475.266H73.4844V5.60938Z" fill="white"/>
</mask>
<g mask="url(#mask6_458_29241)">
<mask id="mask7_458_29241" style="mask-type:luminance" maskUnits="userSpaceOnUse" x="0" y="5" width="908" height="909">
<path d="M42.6924 176.838C112.838 57.7341 246.343 28.6196 296.698 17.6352C468.062 -19.7346 721.63 25.1664 843.969 228.166C951.349 406.328 891.557 596.614 882.896 622.703C868.364 666.458 831.984 771.396 728.833 842.479C568.26 953.14 323.5 928.318 239.739 814.088C200.401 760.432 232.234 735.687 186.416 640.828C125.057 513.781 48.9008 516.833 13.4164 415.114C-26.6409 300.286 36.2081 187.844 42.6924 176.838Z" fill="white"/>
</mask>
<g mask="url(#mask7_458_29241)">
<path d="M73.5205 57.1038L385.958 474.849L248.593 5.67676L73.5205 57.1038Z" fill="white"/>
</g>
</g>
<mask id="mask8_458_29241" style="mask-type:luminance" maskUnits="userSpaceOnUse" x="0" y="102" width="387" height="368">
<path d="M0 102.417H386.297V469.802H0V102.417Z" fill="white"/>
</mask>
<g mask="url(#mask8_458_29241)">
<mask id="mask9_458_29241" style="mask-type:luminance" maskUnits="userSpaceOnUse" x="0" y="5" width="908" height="909">
<path d="M42.6924 176.838C112.838 57.7341 246.343 28.6196 296.698 17.6352C468.062 -19.7346 721.63 25.1664 843.969 228.166C951.349 406.328 891.557 596.614 882.896 622.703C868.364 666.458 831.984 771.396 728.833 842.479C568.26 953.14 323.5 928.318 239.739 814.088C200.401 760.432 232.234 735.687 186.416 640.828C125.057 513.781 48.9008 516.833 13.4164 415.114C-26.6409 300.286 36.2081 187.844 42.6924 176.838Z" fill="white"/>
</mask>
<g mask="url(#mask9_458_29241)">
<path d="M7.15104 102.672L0.15625 268.01L385.964 469.495L7.15104 102.672Z" fill="white"/>
</g>
</g>
<mask id="mask10_458_29241" style="mask-type:luminance" maskUnits="userSpaceOnUse" x="369" y="5" width="220" height="466">
<path d="M369.912 5.60938H588.381V470.797H369.912V5.60938Z" fill="white"/>
</mask>
<g mask="url(#mask10_458_29241)">
<mask id="mask11_458_29241" style="mask-type:luminance" maskUnits="userSpaceOnUse" x="0" y="5" width="908" height="909">
<path d="M42.6934 176.838C112.839 57.7341 246.344 28.6196 296.699 17.6352C468.063 -19.7346 721.631 25.1664 843.969 228.166C951.35 406.328 891.558 596.614 882.897 622.703C868.365 666.458 831.985 771.396 728.834 842.479C568.261 953.14 323.501 928.318 239.74 814.088C200.402 760.432 232.235 735.687 186.417 640.828C125.058 513.781 48.9017 516.833 13.4174 415.114C-26.6399 300.286 36.209 187.844 42.6934 176.838Z" fill="white"/>
</mask>
<g mask="url(#mask11_458_29241)">
<path d="M411.147 470.682L370.11 -55.6094L588.09 -75.2969L411.147 470.682Z" fill="#232323"/>
</g>
</g>
<mask id="mask12_458_29241" style="mask-type:luminance" maskUnits="userSpaceOnUse" x="429" y="5" width="457" height="466">
<path d="M429.156 5.60938H885.156V470.797H429.156V5.60938Z" fill="white"/>
</mask>
<g mask="url(#mask12_458_29241)">
<mask id="mask13_458_29241" style="mask-type:luminance" maskUnits="userSpaceOnUse" x="0" y="5" width="908" height="909">
<path d="M42.6924 176.838C112.838 57.7341 246.343 28.6196 296.698 17.6352C468.062 -19.7346 721.63 25.1664 843.969 228.166C951.349 406.328 891.557 596.614 882.896 622.703C868.364 666.458 831.984 771.396 728.833 842.479C568.26 953.14 323.5 928.318 239.739 814.088C200.401 760.432 232.234 735.687 186.416 640.828C125.057 513.781 48.9008 516.833 13.4164 415.114C-26.6409 300.286 36.2081 187.844 42.6924 176.838Z" fill="white"/>
</mask>
<g mask="url(#mask13_458_29241)">
<path d="M429.197 470.682C430.838 464.62 718.062 -29.3491 718.062 -29.3491C718.062 -29.3491 884.807 101.781 885.14 102.682C885.468 103.578 429.197 470.682 429.197 470.682Z" fill="#232323"/>
</g>
</g>
<mask id="mask14_458_29241" style="mask-type:luminance" maskUnits="userSpaceOnUse" x="435" y="161" width="473" height="341">
<path d="M435.948 161.995H907.641V501.578H435.948V161.995Z" fill="white"/>
</mask>
<g mask="url(#mask14_458_29241)">
<mask id="mask15_458_29241" style="mask-type:luminance" maskUnits="userSpaceOnUse" x="0" y="5" width="908" height="909">
<path d="M42.6934 176.838C112.839 57.7341 246.344 28.6196 296.699 17.6352C468.063 -19.7346 721.631 25.1664 843.969 228.166C951.35 406.328 891.558 596.614 882.897 622.703C868.365 666.458 831.985 771.396 728.834 842.479C568.261 953.14 323.501 928.318 239.74 814.088C200.402 760.432 232.235 735.687 186.417 640.828C125.058 513.781 48.9017 516.833 13.4174 415.114C-26.6399 300.286 36.209 187.844 42.6934 176.838Z" fill="white"/>
</mask>
<g mask="url(#mask15_458_29241)">
<path d="M436.323 501.115L957.485 162C957.485 162 1018.39 263.281 1021.69 268.021C1024.98 272.76 436.323 501.115 436.323 501.115Z" fill="#232323"/>
</g>
</g>
<path d="M747.344 870.63L487.459 863.562L596.298 687.802L856.188 694.869L747.344 870.63Z" fill="white"/>
<path d="M490.354 862L746.447 868.963L853.291 696.432L597.197 689.469L490.354 862ZM747.343 872.271C747.333 872.271 747.312 872.271 747.302 872.271L487.416 865.203C486.822 865.187 486.296 864.859 486.01 864.344C485.734 863.823 485.755 863.198 486.062 862.703L594.906 686.937C595.213 686.443 595.76 686.13 596.343 686.161L856.234 693.229C856.817 693.239 857.359 693.568 857.635 694.088C857.911 694.604 857.895 695.234 857.583 695.729L748.739 871.495C748.437 871.974 747.916 872.271 747.343 872.271Z" fill="black"/>
<path d="M777.12 716.484C777.104 716.484 777.088 716.484 777.078 716.479L621.344 712.25C620.437 712.224 619.724 711.468 619.745 710.562C619.771 709.656 620.531 708.916 621.427 708.968L777.166 713.203C778.068 713.218 778.781 713.974 778.76 714.885C778.729 715.77 778.005 716.484 777.12 716.484Z" fill="#202124"/>
<path d="M765.62 731.896C765.604 731.896 765.594 731.896 765.573 731.89L609.844 727.661C608.938 727.635 608.219 726.88 608.25 725.974C608.271 725.083 609.005 724.38 609.885 724.38C609.896 724.38 609.917 724.38 609.932 724.38L765.667 728.609C766.573 728.635 767.281 729.39 767.26 730.297C767.24 731.187 766.51 731.896 765.62 731.896Z" fill="#202124"/>
<path d="M754.12 747.302C754.11 747.302 754.094 747.302 754.079 747.297L598.35 743.068C597.438 743.041 596.725 742.291 596.751 741.38C596.777 740.479 597.527 739.729 598.438 739.786L754.167 744.021C755.079 744.047 755.792 744.802 755.766 745.703C755.74 746.599 755.011 747.302 754.12 747.302Z" fill="#202124"/>
<path d="M742.625 762.713C742.615 762.713 742.589 762.713 742.579 762.708L586.849 758.479C585.938 758.453 585.23 757.698 585.25 756.792C585.276 755.901 586.006 755.198 586.896 755.198C586.907 755.198 586.922 755.198 586.938 755.198L742.672 759.432C743.573 759.458 744.287 760.213 744.266 761.114C744.24 762.01 743.516 762.713 742.625 762.713Z" fill="#202124"/>
<path d="M719.635 793.531C719.62 793.531 719.604 793.531 719.589 793.531L563.854 789.297C562.948 789.271 562.234 788.521 562.26 787.609C562.281 786.719 563.016 786.016 563.896 786.016C563.911 786.016 563.927 786.016 563.948 786.016L719.677 790.25C720.589 790.276 721.297 791.031 721.271 791.932C721.255 792.828 720.521 793.531 719.635 793.531Z" fill="#202124"/>
<path d="M708.136 808.948C708.12 808.948 708.099 808.948 708.078 808.948L552.355 804.708C551.443 804.687 550.73 803.932 550.756 803.026C550.782 802.12 551.552 801.37 552.443 801.427L708.172 805.661C709.078 805.687 709.797 806.443 709.771 807.344C709.75 808.239 709.016 808.948 708.136 808.948Z" fill="#202124"/>
<path d="M696.635 824.354C696.62 824.354 696.599 824.354 696.583 824.349L540.854 820.12C539.943 820.099 539.234 819.338 539.26 818.437C539.281 817.547 540.01 816.838 540.901 816.838C540.912 816.838 540.927 816.838 540.943 816.838L696.677 821.073C697.578 821.099 698.297 821.854 698.271 822.755C698.25 823.646 697.516 824.354 696.635 824.354Z" fill="#202124"/>
<path d="M685.136 839.766C685.126 839.766 685.11 839.766 685.094 839.766L529.365 835.526C528.459 835.505 527.74 834.75 527.766 833.849C527.792 832.938 528.553 832.182 529.454 832.245L685.188 836.484C686.089 836.505 686.803 837.26 686.777 838.167C686.756 839.057 686.027 839.766 685.136 839.766Z" fill="#202124"/>
<path d="M632.697 621.937C654.135 641.01 657.947 671.713 641.213 690.515C624.484 709.318 593.546 709.094 572.104 690.021C550.671 670.948 546.854 640.239 563.583 621.437C580.317 602.64 611.26 602.864 632.697 621.937Z" fill="#232323"/>
<path d="M596.015 609.146C584.088 609.146 572.76 613.604 564.807 622.531C557.031 631.271 553.604 642.948 555.156 655.427C556.719 667.984 563.125 679.833 573.193 688.797C583.26 697.755 595.781 702.74 608.432 702.828C608.552 702.828 608.672 702.828 608.786 702.828C621.219 702.828 632.281 698.078 639.984 689.427C656.088 671.333 652.328 641.609 631.599 623.167C621.104 613.828 608.245 609.146 596.015 609.146ZM608.786 706.12C608.661 706.12 608.536 706.115 608.411 706.115C594.958 706.021 581.672 700.734 571.01 691.25C560.344 681.755 553.552 669.182 551.896 655.828C550.229 642.401 553.943 629.802 562.354 620.354C579.666 600.906 611.703 601.068 633.781 620.714C655.859 640.359 659.745 672.161 642.437 691.609C634.109 700.974 622.172 706.12 608.786 706.12Z" fill="black"/>
<path d="M421.35 791.042L498.98 860.12L641.214 690.516L563.584 621.438L421.35 791.042Z" fill="#232323"/>
<path d="M423.636 790.875L498.813 857.77L638.938 690.687L563.761 623.791L423.636 790.875ZM498.979 861.765C498.583 861.765 498.193 861.614 497.896 861.343L420.261 792.265C419.594 791.677 419.521 790.672 420.094 789.989L562.328 620.385C562.615 620.047 563.021 619.833 563.464 619.802C563.906 619.765 564.344 619.916 564.677 620.218L642.307 689.291C642.974 689.88 643.042 690.895 642.469 691.573L500.24 861.172C499.953 861.515 499.542 861.724 499.099 861.755C499.057 861.755 499.021 861.765 498.979 861.765Z" fill="black"/>
<path d="M490.459 791.541C511.901 810.619 515.714 841.317 498.979 860.119C482.256 878.922 451.308 878.698 429.87 859.625C408.433 840.547 404.615 809.843 421.349 791.041C438.084 772.244 469.026 772.463 490.459 791.541Z" fill="#FFC700"/>
<path d="M453.777 778.729C441.349 778.729 430.277 783.479 422.573 792.135C414.808 800.864 411.375 812.547 412.928 825.026C414.49 837.583 420.891 849.437 430.964 858.396C441.032 867.354 453.547 872.344 466.204 872.432C466.318 872.432 466.438 872.432 466.558 872.432C478.985 872.432 490.053 867.682 497.756 859.026C513.855 840.937 510.099 811.208 489.375 792.765C479.297 783.807 466.787 778.823 454.131 778.729C454.011 778.729 453.896 778.729 453.777 778.729ZM466.558 875.719C466.433 875.719 466.303 875.713 466.183 875.713C452.73 875.62 439.448 870.338 428.782 860.844C418.11 851.359 411.329 838.776 409.667 825.432C408 812 411.714 799.401 420.12 789.953C428.459 780.588 440.396 775.448 453.777 775.448C453.902 775.448 454.027 775.448 454.157 775.448C467.605 775.547 480.886 780.823 491.553 790.318C513.636 809.963 517.516 841.765 500.209 861.213C491.875 870.568 479.933 875.719 466.558 875.719Z" fill="black"/>
<path d="M635.219 697.26C651.948 678.463 648.131 647.755 626.693 628.682C607.974 612.031 582.021 609.744 564.604 621.942L435.198 774.536C446.808 763.255 475.688 767.724 495.313 785.182C516.745 804.255 525.11 830.765 508.375 849.562L635.219 697.26Z" fill="white"/>
<path d="M453.875 766.625C467.458 766.625 483.843 772.776 496.401 783.958C507.453 793.786 515.036 805.557 517.75 817.099C519.297 823.651 519.281 829.922 517.75 835.745L633.958 696.213C633.968 696.198 633.979 696.182 633.989 696.172C650.093 678.073 646.328 648.354 625.604 629.906C607.927 614.182 582.781 611.359 565.713 623.166L442.63 768.307C446.01 767.177 449.817 766.625 453.875 766.625ZM508.375 851.203C507.994 851.203 507.614 851.073 507.307 850.807C506.625 850.224 506.541 849.203 507.114 848.51L508.802 846.489C523.724 827.26 512.52 802.687 494.218 786.411C475.734 769.963 447.609 764.765 436.338 775.708C435.708 776.323 434.708 776.328 434.073 775.729C433.432 775.135 433.375 774.14 433.937 773.474L563.343 620.88C563.437 620.776 563.541 620.677 563.661 620.599C581.953 607.791 608.927 610.677 627.786 627.458C649.854 647.094 653.739 678.885 636.458 698.333L511.307 848.609C510.765 849.302 510.198 849.989 509.604 850.656C509.281 851.021 508.833 851.203 508.375 851.203Z" fill="black"/>
<path d="M455.475 829C459.522 832.604 460.246 838.406 457.084 841.953C453.928 845.505 448.084 845.458 444.037 841.859C439.99 838.255 439.266 832.458 442.428 828.906C445.584 825.359 451.428 825.401 455.475 829Z" fill="black"/>
<path d="M401.693 876.521L416.355 889.573L457.084 841.953L442.428 828.906L401.693 876.521Z" fill="black"/>
<path d="M414.746 876.62C418.793 880.224 419.511 886.021 416.355 889.573C413.194 893.12 407.355 893.073 403.303 889.474C399.256 885.87 398.532 880.073 401.694 876.521C404.855 872.974 410.694 873.021 414.746 876.62Z" fill="#FFC700"/>
<path d="M888.828 641.932C910.265 661.016 914.078 691.714 897.349 710.516C880.62 729.312 849.677 729.089 828.234 710.016C806.802 690.943 802.989 660.24 819.713 641.437C836.448 622.635 867.396 622.859 888.828 641.932Z" fill="#232323"/>
<path d="M852.157 629.141C840.224 629.141 828.901 633.594 820.943 642.531C804.844 660.62 808.61 690.349 829.334 708.792C850.058 727.229 880.021 727.521 896.13 709.422C912.229 691.328 908.464 661.604 887.74 643.161C877.25 633.828 864.386 629.141 852.157 629.141ZM864.912 726.083C851.907 726.083 838.261 721.135 827.146 711.24C805.068 691.594 801.188 659.792 818.49 640.344C835.802 620.901 867.839 621.063 889.917 640.708C912 660.359 915.886 692.161 898.573 711.604C889.985 721.266 877.75 726.083 864.912 726.083Z" fill="black"/>
<path d="M677.49 811.036L755.12 880.115L897.35 710.516L819.719 641.438L677.49 811.036Z" fill="#232323"/>
<path d="M679.766 810.87L754.948 877.766L895.063 710.682L819.891 643.786L679.766 810.87ZM755.12 881.755C754.719 881.755 754.328 881.615 754.026 881.339L676.396 812.266C675.729 811.677 675.657 810.667 676.224 809.984L818.459 640.385C818.745 640.042 819.157 639.833 819.594 639.797C820.042 639.771 820.479 639.917 820.813 640.214L898.438 709.292C899.11 709.88 899.177 710.885 898.61 711.568L756.37 881.172C756.084 881.505 755.683 881.719 755.235 881.75C755.198 881.755 755.157 881.755 755.12 881.755Z" fill="black"/>
<path d="M746.599 811.536C768.037 830.609 771.849 861.318 755.12 880.114C738.391 898.916 707.443 898.687 686.006 879.614C664.568 860.541 660.756 829.838 677.49 811.041C694.214 792.239 725.162 792.463 746.599 811.536Z" fill="#FFC700"/>
<path d="M709.922 798.74C697.99 798.74 686.667 803.198 678.708 812.13C662.61 830.224 666.375 859.948 687.099 878.391C707.823 896.833 737.787 897.115 753.896 879.026C770 860.927 766.235 831.203 745.505 812.76C735.016 803.427 722.151 798.74 709.922 798.74ZM722.682 895.688C709.672 895.688 696.031 890.734 684.917 880.844C662.839 861.198 658.953 829.396 676.266 809.948C693.568 790.5 725.61 790.661 747.688 810.307C769.771 829.953 773.651 861.766 756.349 881.203C747.75 890.859 735.521 895.688 722.682 895.688Z" fill="black"/>
<path d="M891.35 717.26C908.084 698.458 904.266 667.755 882.834 648.682C864.115 632.031 838.162 629.744 820.74 641.937L691.428 796.13C703.032 784.854 731.824 787.713 751.449 805.177C772.886 824.255 781.245 850.76 764.511 869.557L764.949 870.104L891.35 717.26Z" fill="white"/>
<path d="M711.449 787.823C724.938 787.823 740.803 793.51 752.537 803.958C763.584 813.786 771.167 825.557 773.891 837.094C775.568 844.213 775.402 851.005 773.449 857.25L890.084 716.213C890.094 716.198 890.11 716.182 890.12 716.166C906.225 698.073 902.459 668.344 881.74 649.906C864.063 634.182 838.907 631.359 821.855 643.166L698.891 789.791C702.636 788.463 706.907 787.823 711.449 787.823ZM764.954 871.75C764.943 871.75 764.938 871.75 764.933 871.75C764.443 871.745 763.975 871.521 763.672 871.13L763.23 870.583C762.735 869.963 762.756 869.067 763.287 868.469C780.631 848.979 769.292 823.255 750.355 806.401C730.615 788.838 703.084 787.094 692.568 797.312C691.943 797.916 690.943 797.927 690.308 797.338C689.667 796.739 689.605 795.75 690.167 795.078L819.475 640.885C819.568 640.776 819.672 640.677 819.792 640.599C838.089 627.791 865.063 630.672 883.917 647.453C905.99 667.088 909.881 698.88 892.594 718.323L766.214 871.151C765.902 871.531 765.433 871.75 764.954 871.75Z" fill="black"/>
<path d="M711.61 849C715.662 852.599 716.38 858.396 713.219 861.948C710.057 865.495 704.219 865.458 700.172 861.854C696.125 858.255 695.401 852.453 698.563 848.901C701.724 845.354 707.568 845.396 711.61 849Z" fill="black"/>
<path d="M657.823 896.521L672.49 909.562L713.219 861.948L698.563 848.906L657.823 896.521Z" fill="black"/>
<path d="M670.886 896.614C674.933 900.213 675.651 906.01 672.495 909.562C669.334 913.114 663.49 913.073 659.438 909.469C655.396 905.87 654.672 900.073 657.828 896.521C660.99 892.969 666.834 893.01 670.886 896.614Z" fill="#FFC700"/>
<path d="M678.625 318.906H647.995V174.031C658.047 177.776 668.266 177.667 678.625 174.031V318.906Z" fill="white"/>
<path d="M664.016 170.323C664.016 170.323 640.135 145.703 664.516 109.203C664.516 109.203 684.271 159.26 664.016 170.323Z" fill="#FFC700"/>
<path d="M639.589 318.906H608.948V64.8228C619.006 68.5675 629.224 68.4582 639.589 64.8228V318.906Z" fill="white"/>
<path d="M624.975 61.1198C624.975 61.1198 601.089 36.5 625.469 0C625.469 0 645.23 50.0573 624.975 61.1198Z" fill="#FFC700"/>
<path d="M761.87 318.906H688.683V126.609C712.698 131.583 737.11 131.432 761.87 126.609V318.906Z" fill="white"/>
<path d="M726.958 121.682C726.958 121.682 669.906 88.9998 728.156 40.5571C728.156 40.5571 775.359 107 726.958 121.682Z" fill="#FFC700"/>
<path d="M769.24 327.265H590.886C589.974 327.265 589.245 326.526 589.245 325.625C589.245 324.713 589.974 323.979 590.886 323.979H769.24C770.146 323.979 770.886 324.713 770.886 325.625C770.886 326.526 770.146 327.265 769.24 327.265Z" fill="black"/>
<path d="M791.042 336.839H667.177C666.276 336.839 665.542 336.109 665.542 335.198C665.542 334.297 666.276 333.562 667.177 333.562H791.042C791.943 333.562 792.677 334.297 792.677 335.198C792.677 336.109 791.943 336.839 791.042 336.839Z" fill="black"/>
<path d="M71.9638 712.396L682.365 719.635C696.177 719.791 708.453 710.922 712.542 697.843L835.531 303.906C838.417 294.656 831.511 285.286 821.745 285.203L270.089 280.505L59.5888 691.369C54.3804 700.776 61.1461 712.271 71.9638 712.396Z" fill="black"/>
<path d="M341.161 684.583C341.161 684.583 169.5 667.557 90.8542 680.552L86.4375 647.042L94.3958 644.849L84.1875 635.161V619.64L396.63 491.229L341.161 684.583Z" fill="white"/>
<path d="M171.432 674.062C245.286 674.062 328.344 681.714 339.958 682.818L394.12 494.036L85.8281 620.745V634.453L95.526 643.656C95.9531 644.062 96.1354 644.667 95.9896 645.245C95.8438 645.818 95.4063 646.266 94.8333 646.427L88.2552 648.245L92.2604 678.667C113.703 675.292 141.833 674.062 171.432 674.062ZM341.161 686.224C341.104 686.224 341.052 686.224 340.995 686.219C339.281 686.047 168.656 669.359 91.1198 682.172C90.6875 682.245 90.2344 682.135 89.875 681.875C89.5208 681.604 89.2865 681.208 89.2292 680.771L84.8125 647.255C84.7031 646.448 85.2135 645.677 86.0052 645.458L91.1615 644.036L83.0573 636.349C82.7292 636.042 82.5469 635.609 82.5469 635.156V619.641C82.5469 618.974 82.9479 618.375 83.5625 618.125L396.005 489.713C396.594 489.474 397.255 489.588 397.724 490.005C398.198 490.427 398.385 491.078 398.208 491.682L342.734 685.036C342.531 685.745 341.885 686.224 341.161 686.224Z" fill="black"/>
<path d="M341.162 684.583L337.683 649.354L686.839 256.151L808.521 247.938L800.813 288.927L814.761 297.578L684.881 694C684.881 694 429.568 673.901 341.162 684.583Z" fill="white"/>
<path d="M414.562 679.844C519.245 679.844 668.286 691.078 683.729 692.26L812.802 298.286L799.953 290.312C799.37 289.958 799.078 289.281 799.203 288.614L806.515 249.713L687.625 257.739L339.396 649.911L342.63 682.755C360.953 680.672 386.125 679.844 414.562 679.844ZM684.88 695.646C684.849 695.646 684.797 695.64 684.755 695.635C682.203 695.437 428.588 675.672 341.354 686.213C340.916 686.255 340.479 686.135 340.135 685.864C339.786 685.583 339.568 685.182 339.526 684.739L336.052 649.521C336.01 649.062 336.156 648.609 336.458 648.265L685.614 255.057C685.896 254.734 686.302 254.536 686.734 254.505L808.411 246.297C808.911 246.265 809.411 246.463 809.75 246.844C810.088 247.224 810.224 247.739 810.135 248.239L802.635 288.12L815.625 296.177C816.265 296.578 816.552 297.364 816.318 298.083L686.448 694.51C686.229 695.193 685.588 695.646 684.88 695.646Z" fill="black"/>
<path d="M457.661 644.307C456.901 644.307 456.213 643.776 456.057 642.994C455.87 642.109 456.442 641.244 457.333 641.057C474.114 637.588 494.432 635.989 517.718 636.296C518.625 636.307 519.354 637.052 519.338 637.963C519.328 638.859 518.593 639.578 517.698 639.578C517.687 639.578 517.682 639.578 517.677 639.578C494.63 639.281 474.547 640.854 457.995 644.27C457.88 644.296 457.771 644.307 457.661 644.307Z" fill="#D1D1D1"/>
<path d="M674.209 660.744C674.084 660.744 673.949 660.729 673.824 660.692C673.277 660.557 618.339 647.114 558.225 641.755C557.324 641.672 556.652 640.875 556.74 639.968C556.818 639.067 557.626 638.406 558.516 638.479C613.412 643.375 664.006 654.989 673.141 657.151L758.454 408.76C758.745 407.901 759.678 407.448 760.537 407.739C761.397 408.036 761.85 408.968 761.563 409.828L675.761 659.63C675.532 660.307 674.897 660.744 674.209 660.744Z" fill="#D1D1D1"/>
<path d="M775.339 366.276C775.167 366.276 774.985 366.25 774.807 366.187C773.948 365.896 773.495 364.958 773.787 364.104L785.646 329.573C785.943 328.713 786.875 328.26 787.735 328.547C788.589 328.849 789.047 329.781 788.755 330.635L776.891 365.172C776.656 365.854 776.021 366.276 775.339 366.276Z" fill="#D1D1D1"/>
<path d="M481.146 264.505C481.146 264.505 510.422 203.594 580.813 210.432C651.209 217.271 802.052 213.469 802.052 213.469L656.959 628.344C656.959 628.344 401.412 574.807 337.683 649.354L481.146 264.505Z" fill="white"/>
<path d="M482.652 265.156L341.975 642.552C357.37 628.339 381.615 618.411 414.188 613.005C443.438 608.151 479.475 606.891 521.313 609.255C586.615 612.948 646.063 624.479 655.881 626.448L799.719 215.167C780.183 215.609 645.527 218.365 580.662 212.068C544.891 208.578 520.141 223.229 505.683 236.125C490.501 249.667 483.183 264.094 482.652 265.156ZM337.683 651C337.402 651 337.115 650.922 336.855 650.771C336.172 650.37 335.87 649.531 336.152 648.781L479.605 263.932C479.631 263.88 479.646 263.844 479.662 263.792C479.975 263.156 487.308 248.104 503.495 233.677C518.449 220.339 544.011 205.208 580.975 208.797C650.469 215.547 800.501 211.87 802.006 211.828C802.537 211.839 803.063 212.068 803.376 212.5C803.698 212.943 803.777 213.5 803.605 214.016L658.506 628.885C658.23 629.667 657.428 630.125 656.62 629.948C655.98 629.818 592.001 616.542 521.089 612.531C427.631 607.255 364.641 620.349 338.938 650.422C338.615 650.802 338.152 651 337.683 651Z" fill="black"/>
<path d="M69.9688 615.797C69.9688 615.797 107.078 629.208 176.984 621.339C246.885 613.464 337.682 649.359 337.682 649.359L483.151 260.849C483.151 260.849 496.573 212.068 414.042 211.828C331.505 211.589 250.536 233.271 250.536 233.271C250.536 233.271 110.766 564.099 69.9688 615.797Z" fill="white"/>
<path d="M197.969 618.578C258.219 618.578 325.682 643.068 336.729 647.234L481.583 260.349C481.839 259.333 484.969 245.75 475.755 233.656C465.604 220.349 444.839 213.552 414.042 213.469C413.599 213.458 413.156 213.458 412.708 213.458C336.047 213.458 260.188 232.463 251.734 234.646C244.365 252.047 113.917 559.344 72.6927 614.932C81.5677 617.536 117.464 626.385 176.802 619.703C183.682 618.927 190.776 618.578 197.969 618.578ZM337.682 651C337.479 651 337.276 650.958 337.083 650.885C336.182 650.526 245.849 615.229 177.167 622.963C107.682 630.786 69.7865 617.474 69.4115 617.338C68.9115 617.156 68.5313 616.755 68.3907 616.239C68.2448 615.734 68.3542 615.187 68.6771 614.776C108.875 563.844 247.63 235.932 249.026 232.625C249.224 232.156 249.625 231.812 250.115 231.682C250.922 231.463 331.37 210.182 412.708 210.182C413.161 210.182 413.599 210.182 414.047 210.182C445.958 210.276 467.609 217.515 478.396 231.719C488.901 245.536 484.911 260.646 484.734 261.276C484.724 261.328 484.708 261.37 484.688 261.422L339.224 649.932C339.073 650.349 338.755 650.677 338.354 650.859C338.141 650.948 337.911 651 337.682 651Z" fill="black"/>
<path d="M546.099 267.109C612.365 259.13 671.786 258.292 722.354 266.724L612.875 565.463C560.318 557.208 501.615 557.265 436.609 565.844L546.099 267.109ZM530.964 244.469L405.984 588.578C481.214 579.427 555.224 579.265 628.005 588.094L752.984 243.989C688.536 235.422 613.781 236.265 530.964 244.469Z" fill="#232323"/>
<path d="M288.876 265.38C348.417 254.729 399.329 250.661 425.975 265.083L316.49 563.818C274.12 553.359 218.115 554.901 152.652 564.766L288.876 265.38ZM273.74 242.75L122.021 587.495C200.162 575.297 270.631 574.083 331.62 586.453L456.6 242.349C417.667 228.526 352.912 231.073 273.74 242.75Z" fill="#232323"/>
<path d="M352.531 611.172C352.344 611.172 352.151 611.141 351.959 611.073C351.11 610.755 350.677 609.807 350.995 608.964L472.818 282.151C473.13 281.302 474.078 280.865 474.927 281.182C475.776 281.5 476.209 282.443 475.891 283.292L354.073 610.104C353.828 610.766 353.198 611.172 352.531 611.172Z" fill="black"/>
<path d="M295.51 301.599C295.51 301.599 304.401 314.916 304.942 325.932C305.088 328.843 306.302 338.151 313.468 348.328C314.161 349.317 314.005 350.646 313.099 351.458L306.25 357.567C305.776 357.989 305.505 358.578 305.5 359.198C305.479 363.088 305.359 377.453 304.89 380.125C304.349 383.229 301.854 385.968 300.614 386.635C297.349 388.401 283.177 386.599 283.177 386.599C283.177 386.599 279.375 386.958 271.922 407.13C263.875 428.911 280.567 437.14 280.567 437.14C286.833 440.411 286.953 443.578 280.172 445.739C256.781 453.192 208.432 458.64 184.015 431.239C182.625 429.677 183.317 427.166 185.359 426.567C247.395 408.271 217.828 355.552 219.14 355.203C222.494 354.312 241.765 334.015 253.052 328.239C260.75 324.302 270.083 330 276.343 324.041L295.51 301.599Z" fill="white"/>
<path d="M221.036 356.068C221.151 356.385 221.286 356.745 221.416 357.094C223.875 363.708 231.354 383.828 222.349 401.823C216.291 413.927 204.005 422.781 185.823 428.14C185.229 428.318 185.036 428.792 184.979 428.989C184.922 429.182 184.838 429.687 185.239 430.146C209.458 457.328 257.604 451.213 279.672 444.177C282.719 443.208 283.588 442.224 283.62 441.838C283.656 441.427 282.906 440.213 279.807 438.594C279.661 438.521 261.922 429.458 270.385 406.557C277.432 387.484 281.573 385.104 283.021 384.969C283.146 384.953 283.265 384.958 283.385 384.974C289.052 385.693 297.906 386.239 299.838 385.193C300.661 384.75 302.828 382.39 303.276 379.844C303.625 377.844 303.807 367.864 303.859 359.193C303.864 358.109 304.338 357.073 305.156 356.344L312.01 350.234C312.291 349.979 312.344 349.578 312.13 349.276C304.271 338.12 303.401 327.937 303.307 326.01C302.906 317.937 297.677 308.338 295.302 304.364L277.594 325.104C277.557 325.146 277.521 325.187 277.479 325.229C273.547 328.969 268.703 328.724 264.015 328.479C260.354 328.297 256.901 328.114 253.802 329.703C247.344 333 237.776 341.583 230.786 347.844C225.911 352.208 222.927 354.854 221.036 356.068ZM239.906 453.411C219.255 453.411 197.12 448.411 182.791 432.328C181.755 431.167 181.396 429.583 181.823 428.083C182.25 426.594 183.401 425.432 184.896 424.989C202.166 419.901 213.781 411.609 219.416 400.354C227.781 383.63 220.672 364.526 218.338 358.239C217.448 355.849 217.234 355.281 217.651 354.474C217.864 354.062 218.276 353.734 218.724 353.614C219.838 353.245 224.489 349.078 228.594 345.401C236.109 338.661 245.469 330.276 252.307 326.776C256.187 324.792 260.255 325 264.187 325.203C268.51 325.422 272.255 325.614 275.156 322.911L294.26 300.526C294.594 300.135 295.099 299.917 295.604 299.958C296.12 299.984 296.588 300.255 296.875 300.682C297.25 301.245 306.026 314.515 306.583 325.849C306.672 327.62 307.479 336.974 314.812 347.385C315.984 349.047 315.719 351.323 314.192 352.682L307.344 358.792C307.213 358.906 307.146 359.057 307.14 359.208C307.109 364.687 306.979 377.713 306.505 380.411C305.89 383.948 303.14 387.14 301.396 388.078C298.031 389.901 286.719 388.687 283.442 388.286C282.62 388.875 279.229 392.083 273.463 407.693C266.047 427.765 280.672 435.359 281.297 435.672C285.265 437.745 287.088 439.849 286.89 442.12C286.698 444.333 284.666 446.031 280.666 447.302C270.771 450.458 255.776 453.411 239.906 453.411Z" fill="black"/>
<path d="M312.87 348.354C312.016 348.354 311.297 347.698 311.234 346.828C311.172 345.927 311.849 345.141 312.755 345.078C314.667 344.937 316.13 344.172 317.219 342.734C320.182 338.833 319.74 330.833 319.12 326.625L271.229 334.141C270.344 334.286 269.495 333.667 269.354 332.771C269.214 331.88 269.823 331.036 270.719 330.896L320.208 323.125C321.078 322.995 321.896 323.568 322.073 324.422C322.187 324.979 324.797 338.182 319.833 344.719C318.161 346.922 315.859 348.146 312.99 348.354C312.948 348.354 312.911 348.354 312.87 348.354Z" fill="black"/>
<path d="M270.787 354.156C266.506 354.156 259.808 352.583 256.183 343.688C253.923 338.135 254.699 333.182 258.266 330.438C261.944 327.594 267.574 327.917 271.959 331.203C273.615 332.448 275.714 335.797 275.949 336.182C276.428 336.948 276.188 337.958 275.418 338.438C274.652 338.917 273.636 338.677 273.162 337.906C272.402 336.682 270.865 334.49 269.99 333.833C266.834 331.464 262.746 331.125 260.272 333.031C257.907 334.854 257.527 338.286 259.225 342.443C263.688 353.411 273.397 350.667 273.808 350.542C274.678 350.286 275.595 350.781 275.85 351.646C276.11 352.516 275.615 353.427 274.746 353.693C274.699 353.698 273.095 354.156 270.787 354.156Z" fill="black"/>
<path d="M313.761 268.599C309.214 260.979 304.318 254.427 289.375 251.484C279.136 249.469 262.448 257.026 254.235 265.739C253.547 266.463 252.459 266.489 251.886 265.765C250.12 263.541 245.927 258.505 242.214 258.062C231.464 256.786 220.453 270.708 216.542 277.875C213.688 283.104 208.865 294.927 206.438 308.672C206.282 309.526 205.5 310.166 204.657 310.083C201.417 309.771 194.922 309.786 189.157 314.057C178.88 321.656 179.995 332.797 180.115 334.161C181.511 350.031 197.646 361.76 209.875 368.12C218.177 372.432 221.292 373.052 226.177 374.177C226.459 374.25 226.756 374.224 227.032 374.125C231.354 374.765 238.693 375.088 246.865 372.255C259.86 367.745 258.875 346.203 258.875 346.203L257.24 342.135C256.25 339.672 256.11 336.901 257.115 334.442C260.177 326.948 271.495 332.578 271.912 332.489C293.198 328.073 300.719 321.838 304.584 317.599C318.443 302.39 324.771 287.062 313.761 268.599Z" fill="black"/>
<path d="M588.781 577.49C588.781 577.49 583.359 536.901 602.89 522.797C617.682 512.115 639.213 505.464 647.567 502.984C649.989 502.271 654.51 502.786 655.546 505.083C655.546 505.083 657.427 509.464 651.171 512.417L633.104 519.958C631.406 520.75 631.151 523.057 632.635 524.203C637.187 527.724 645.463 537.505 646.791 542.839C649.02 551.729 644.265 559.625 635.776 566.896C627.291 574.172 625.073 575.557 624.661 577.49C624.26 579.422 610.171 595.885 610.171 595.885L588.781 577.49Z" fill="white"/>
<path d="M590.338 576.661L609.995 593.567C616.151 586.328 622.458 578.515 623.078 577.083C623.521 575.078 625 573.838 629.76 569.838C631.109 568.708 632.74 567.343 634.708 565.651C643.63 558.005 647.062 550.672 645.198 543.234C643.984 538.364 636 528.88 631.63 525.5C630.479 524.609 629.885 523.213 630.042 521.765C630.203 520.323 631.083 519.093 632.406 518.474L650.531 510.906C655.24 508.677 654.094 505.854 654.042 505.734C653.531 504.604 650.156 503.932 648.031 504.562C628.797 510.26 613.932 516.843 603.849 524.13C586.599 536.583 589.776 571.599 590.338 576.661ZM610.172 597.531C609.781 597.531 609.401 597.385 609.099 597.135L587.713 578.734C587.411 578.468 587.213 578.109 587.156 577.708C586.927 576.01 581.833 535.979 601.927 521.468C612.307 513.974 627.51 507.218 647.099 501.411C650.187 500.505 655.599 501.203 657.047 504.406C657.917 506.458 657.948 511.031 651.87 513.901L633.74 521.474C633.411 521.63 633.323 521.984 633.307 522.125C633.292 522.276 633.292 522.64 633.641 522.906C638.453 526.625 646.948 536.687 648.385 542.432C650.578 551.198 646.802 559.609 636.849 568.146C634.865 569.838 633.229 571.218 631.875 572.354C628.052 575.567 626.463 576.896 626.276 577.823C625.865 579.765 617.974 589.297 611.422 596.953C611.141 597.286 610.734 597.489 610.302 597.526C610.26 597.526 610.219 597.531 610.172 597.531Z" fill="black"/>
<path d="M63.1091 684.88C64.2653 680.458 -2.3128 633.984 3.22366 585.354C8.76012 536.729 109.505 427.593 175.656 414.239C241.807 400.89 165.281 633.75 165.281 633.75L63.1091 684.88Z" fill="#FFC700"/>
<path d="M136.458 822.135L297.244 890.521L354.161 499.958C354.161 499.958 310.072 417.802 244.906 410.078C222.671 407.442 203.135 408.854 187.041 411.854C158.474 417.187 134.807 437.12 124.546 464.302L58.4006 639.479C31.2287 711.442 65.661 792.031 136.458 822.135Z" fill="#FFC700"/>
<path d="M284.662 638.458L392.516 703.166C450.355 741.573 526.475 750.182 564.709 701.937C584.214 677.328 604.266 642.578 620.433 595.885L583.423 562.182L512.209 623.687C501.016 633.359 484.178 632.432 474.115 621.599C435.084 579.578 344.844 482.239 326.527 460.838C303.001 433.354 284.662 638.458 284.662 638.458Z" fill="#FFC700"/>
<path d="M48.5315 667.255C48.3284 667.255 48.1148 667.219 47.9169 667.135C47.0732 666.792 46.6721 665.833 47.0107 664.995L104.896 522.75C105.24 521.911 106.198 521.505 107.037 521.849C107.875 522.193 108.282 523.146 107.938 523.989L50.0523 666.229C49.7919 666.87 49.1826 667.255 48.5315 667.255Z" fill="black"/>
<path d="M289.307 210.599C288.625 210.599 287.984 210.177 287.755 209.49L221.484 13.7135C221.188 12.8593 221.651 11.9218 222.51 11.6302C223.37 11.3437 224.302 11.8072 224.589 12.6614L290.865 208.437C291.156 209.292 290.693 210.229 289.833 210.516C289.661 210.573 289.484 210.599 289.307 210.599Z" fill="black"/>
<path d="M201.641 159.401C201.088 159.401 200.547 159.119 200.24 158.609L112.672 14.0309C112.198 13.2549 112.448 12.2497 113.224 11.7705C114 11.307 115.01 11.557 115.479 12.3278L203.047 156.906C203.516 157.682 203.266 158.698 202.49 159.166C202.224 159.323 201.932 159.401 201.641 159.401Z" fill="black"/>
<path d="M106.417 244.317C106.063 244.317 105.708 244.203 105.412 243.974L3.55735 165.187C2.8386 164.635 2.70839 163.604 3.26047 162.885C3.81776 162.166 4.84901 162.041 5.56255 162.593L107.422 241.375C108.135 241.927 108.271 242.963 107.714 243.677C107.391 244.099 106.906 244.317 106.417 244.317Z" fill="black"/>
<path d="M494.854 104.318C494.735 104.318 494.604 104.302 494.479 104.271C493.594 104.068 493.052 103.177 493.256 102.297L516.104 5.29691C516.308 4.4167 517.188 3.86462 518.073 4.07816C518.959 4.28649 519.5 5.1667 519.292 6.04691L496.453 103.047C496.271 103.802 495.594 104.318 494.854 104.318Z" fill="white"/>
<path d="M774.605 41.1663C773.699 41.1663 772.959 40.4268 772.959 39.5205V31.0361C772.959 30.1299 773.699 29.3955 774.605 29.3955C775.506 29.3955 776.245 30.1299 776.245 31.0361V39.5205C776.245 40.4268 775.506 41.1663 774.605 41.1663Z" fill="black"/>
<path d="M774.599 60.9321C773.698 60.9321 772.953 60.203 772.953 59.2967V50.8071C772.953 49.9009 773.698 49.1665 774.599 49.1665C775.505 49.1665 776.245 49.9009 776.245 50.8071V59.2967C776.245 60.203 775.505 60.9321 774.599 60.9321Z" fill="black"/>
<path d="M768.958 46.8071H760.469C759.563 46.8071 758.828 46.0675 758.828 45.1665C758.828 44.2603 759.563 43.5259 760.469 43.5259H768.958C769.865 43.5259 770.599 44.2603 770.599 45.1665C770.599 46.0675 769.865 46.8071 768.958 46.8071Z" fill="black"/>
<path d="M788.73 46.8071H780.251C779.339 46.8071 778.6 46.0675 778.6 45.1665C778.6 44.2603 779.339 43.5259 780.251 43.5259H788.73C789.636 43.5259 790.37 44.2603 790.37 45.1665C790.37 46.0675 789.636 46.8071 788.73 46.8071Z" fill="black"/>
<path d="M790.006 87.6927C785.532 87.6927 781.886 91.3333 781.886 95.8073C781.886 100.292 785.532 103.932 790.006 103.932C794.49 103.932 798.125 100.292 798.125 95.8073C798.125 91.3333 794.49 87.6927 790.006 87.6927ZM790.006 107.214C783.719 107.214 778.604 102.094 778.604 95.8073C778.604 89.5208 783.719 84.4062 790.006 84.4062C796.297 84.4062 801.417 89.5208 801.417 95.8073C801.417 102.094 796.297 107.214 790.006 107.214Z" fill="black"/>
<path d="M95.3021 370.677C90.0781 370.677 85.8281 374.927 85.8281 380.151C85.8281 385.375 90.0781 389.625 95.3021 389.625C100.526 389.625 104.776 385.375 104.776 380.151C104.776 374.927 100.526 370.677 95.3021 370.677ZM95.3021 392.906C88.2708 392.906 82.5469 387.182 82.5469 380.151C82.5469 373.114 88.2708 367.396 95.3021 367.396C102.339 367.396 108.057 373.114 108.057 380.151C108.057 387.182 102.339 392.906 95.3021 392.906Z" fill="black"/>
<path d="M850.318 545.286C849.412 545.286 848.683 544.547 848.683 543.641V535.151C848.683 534.25 849.412 533.516 850.318 533.516C851.224 533.516 851.964 534.25 851.964 535.151V543.641C851.964 544.547 851.224 545.286 850.318 545.286Z" fill="#FFC700"/>
<path d="M850.318 565.057C849.412 565.057 848.683 564.318 848.683 563.417V554.927C848.683 554.021 849.412 553.281 850.318 553.281C851.224 553.281 851.964 554.021 851.964 554.927V563.417C851.964 564.318 851.224 565.057 850.318 565.057Z" fill="#FFC700"/>
<path d="M844.672 550.927H836.182C835.281 550.927 834.547 550.192 834.547 549.286C834.547 548.38 835.281 547.646 836.182 547.646H844.672C845.578 547.646 846.312 548.38 846.312 549.286C846.312 550.192 845.578 550.927 844.672 550.927Z" fill="#FFC700"/>
<path d="M864.454 550.927H855.969C855.053 550.927 854.318 550.192 854.318 549.281C854.318 548.38 855.053 547.646 855.969 547.646H864.454C865.36 547.646 866.094 548.38 866.094 549.281C866.094 550.192 865.36 550.927 864.454 550.927Z" fill="#FFC700"/>
</svg>
