<svg width="900" height="899" viewBox="0 0 900 899" fill="none" xmlns="http://www.w3.org/2000/svg">
<path d="M217.378 226.828C311.29 132.276 284.404 73.016 348.665 29.2399C447.54 -38.1247 632.076 19.8285 740.946 112.479C874.285 225.964 943.082 433.167 864.717 620.615C781.253 820.245 561.66 923.875 365.707 892.646C190.727 864.756 18.717 726.797 1.4826 561.328C-0.387194 543.391 -8.63198 446.443 49.2066 362.86C97.0139 293.766 142.936 301.782 217.378 226.828Z" fill="#D1D1D1"/>
<path d="M776.285 367.188H636.639V16.2505H776.285V367.188Z" fill="white"/>
<path d="M341.801 708.755H105.691V346.271H341.801V708.755Z" fill="white"/>
<path d="M528.363 786.698H738.357V192.271H528.363V786.698ZM739.972 789.938H526.743C525.842 789.938 525.123 789.219 525.123 788.318V190.646C525.123 189.75 525.842 189.026 526.743 189.026H739.972C740.873 189.026 741.597 189.75 741.597 190.646V788.318C741.597 789.219 740.873 789.938 739.972 789.938Z" fill="#232323"/>
<path d="M615.973 254.563H658.161V95.964H615.973V254.563ZM659.781 257.808H614.354C613.458 257.808 612.729 257.084 612.729 256.183V94.3442C612.729 93.4432 613.458 92.7192 614.354 92.7192H659.781C660.671 92.7192 661.406 93.4432 661.406 94.3442V256.183C661.406 257.084 660.671 257.808 659.781 257.808Z" fill="#232323"/>
<path d="M693.848 242.042H721.384V214.495H693.848V242.042ZM723.009 245.292H692.218C691.327 245.292 690.603 244.563 690.603 243.662V212.87C690.603 211.974 691.327 211.245 692.218 211.245H723.009C723.9 211.245 724.629 211.974 724.629 212.87V243.662C724.629 244.563 723.9 245.292 723.009 245.292Z" fill="#232323"/>
<path d="M693.848 288.344H721.384V260.802H693.848V288.344ZM723.009 291.599H692.218C691.327 291.599 690.603 290.87 690.603 289.969V259.177C690.603 258.276 691.327 257.552 692.218 257.552H723.009C723.9 257.552 724.629 258.276 724.629 259.177V289.969C724.629 290.87 723.9 291.599 723.009 291.599Z" fill="#232323"/>
<path d="M693.848 334.652H721.384V307.105H693.848V334.652ZM723.009 337.902H692.218C691.327 337.902 690.603 337.172 690.603 336.282V305.48C690.603 304.584 691.327 303.86 692.218 303.86H723.009C723.9 303.86 724.629 304.584 724.629 305.48V336.282C724.629 337.172 723.9 337.902 723.009 337.902Z" fill="#232323"/>
<path d="M693.848 380.959H721.384V353.412H693.848V380.959ZM723.009 384.203H692.218C691.327 384.203 690.603 383.479 690.603 382.584V351.787C690.603 350.891 691.327 350.167 692.218 350.167H723.009C723.9 350.167 724.629 350.891 724.629 351.787V382.584C724.629 383.479 723.9 384.203 723.009 384.203Z" fill="#232323"/>
<path d="M693.848 427.271H721.384V399.714H693.848V427.271ZM723.009 430.511H692.218C691.327 430.511 690.603 429.782 690.603 428.886V398.094C690.603 397.198 691.327 396.469 692.218 396.469H723.009C723.9 396.469 724.629 397.198 724.629 398.094V428.886C724.629 429.782 723.9 430.511 723.009 430.511Z" fill="#232323"/>
<path d="M693.848 473.568H721.384V446.021H693.848V473.568ZM723.009 476.818H692.218C691.327 476.818 690.603 476.089 690.603 475.193V444.401C690.603 443.5 691.327 442.776 692.218 442.776H723.009C723.9 442.776 724.629 443.5 724.629 444.401V475.193C724.629 476.089 723.9 476.818 723.009 476.818Z" fill="#232323"/>
<path d="M693.848 519.875H721.384V492.328H693.848V519.875ZM723.009 523.12H692.218C691.327 523.12 690.603 522.396 690.603 521.5V490.703C690.603 489.807 691.327 489.083 692.218 489.083H723.009C723.9 489.083 724.629 489.807 724.629 490.703V521.5C724.629 522.396 723.9 523.12 723.009 523.12Z" fill="#232323"/>
<path d="M693.848 566.177H721.384V538.636H693.848V566.177ZM723.009 569.427H692.218C691.327 569.427 690.603 568.698 690.603 567.802V537.006C690.603 536.115 691.327 535.386 692.218 535.386H723.009C723.9 535.386 724.629 536.115 724.629 537.006V567.802C724.629 568.698 723.9 569.427 723.009 569.427Z" fill="#232323"/>
<path d="M693.848 612.49H721.384V584.938H693.848V612.49ZM723.009 615.73H692.218C691.327 615.73 690.603 615 690.603 614.11V583.318C690.603 582.417 691.327 581.688 692.218 581.688H723.009C723.9 581.688 724.629 582.417 724.629 583.318V614.11C724.629 615 723.9 615.73 723.009 615.73Z" fill="#232323"/>
<path d="M693.848 658.792H721.384V631.24H693.848V658.792ZM723.009 662.037H692.218C691.327 662.037 690.603 661.313 690.603 660.412V629.62C690.603 628.724 691.327 628 692.218 628H723.009C723.9 628 724.629 628.724 724.629 629.62V660.412C724.629 661.313 723.9 662.037 723.009 662.037Z" fill="#232323"/>
<path d="M693.848 705.094H721.384V677.547H693.848V705.094ZM723.009 708.344H692.218C691.327 708.344 690.603 707.615 690.603 706.724V675.927C690.603 675.031 691.327 674.302 692.218 674.302H723.009C723.9 674.302 724.629 675.031 724.629 675.927V706.724C724.629 707.615 723.9 708.344 723.009 708.344Z" fill="#232323"/>
<path d="M230.732 206.334H268.045V148.573H230.732V206.334ZM269.67 209.579H229.107C228.212 209.579 227.482 208.855 227.482 207.959V146.948C227.482 146.053 228.212 145.329 229.107 145.329H269.67C270.566 145.329 271.29 146.053 271.29 146.948V207.959C271.29 208.855 270.566 209.579 269.67 209.579Z" fill="#232323"/>
<path d="M306.171 206.334H343.488V148.573H306.171V206.334ZM345.113 209.579H304.551C303.655 209.579 302.926 208.855 302.926 207.959V146.948C302.926 146.053 303.655 145.329 304.551 145.329H345.113C346.004 145.329 346.733 146.053 346.733 146.948V207.959C346.733 208.855 346.004 209.579 345.113 209.579Z" fill="#232323"/>
<path d="M381.614 206.334H418.937V148.573H381.614V206.334ZM420.557 209.579H379.994C379.098 209.579 378.369 208.855 378.369 207.959V146.948C378.369 146.053 379.098 145.329 379.994 145.329H420.557C421.447 145.329 422.171 146.053 422.171 146.948V207.959C422.171 208.855 421.447 209.579 420.557 209.579Z" fill="#232323"/>
<path d="M230.727 243.829H268.045V227.308H230.727V243.829ZM269.665 247.079H229.107C228.212 247.079 227.482 246.349 227.482 245.454V225.688C227.482 224.792 228.212 224.063 229.107 224.063H269.665C270.561 224.063 271.29 224.792 271.29 225.688V245.454C271.29 246.349 270.561 247.079 269.665 247.079Z" fill="#232323"/>
<path d="M306.171 243.829H343.483V227.308H306.171V243.829ZM345.108 247.079H304.546C303.65 247.079 302.926 246.349 302.926 245.454V225.688C302.926 224.792 303.65 224.063 304.546 224.063H345.108C346.004 224.063 346.733 224.792 346.733 225.688V245.454C346.733 246.349 346.004 247.079 345.108 247.079Z" fill="#232323"/>
<path d="M381.614 243.829H418.932V227.308H381.614V243.829ZM420.551 247.079H379.994C379.093 247.079 378.369 246.349 378.369 245.454V225.688C378.369 224.792 379.093 224.063 379.994 224.063H420.551C421.447 224.063 422.171 224.792 422.171 225.688V245.454C422.171 246.349 421.447 247.079 420.551 247.079Z" fill="#232323"/>
<path d="M230.727 351.068H268.045V293.313H230.727V351.068ZM269.67 354.318H229.107C228.212 354.318 227.482 353.589 227.482 352.693V291.688C227.482 290.797 228.212 290.068 229.107 290.068H269.67C270.561 290.068 271.29 290.797 271.29 291.688V352.693C271.29 353.589 270.561 354.318 269.67 354.318Z" fill="#232323"/>
<path d="M306.171 351.068H343.483V293.313H306.171V351.068ZM345.113 354.318H304.551C303.655 354.318 302.926 353.589 302.926 352.693V291.688C302.926 290.797 303.655 290.068 304.551 290.068H345.113C346.004 290.068 346.733 290.797 346.733 291.688V352.693C346.733 353.589 346.004 354.318 345.113 354.318Z" fill="#232323"/>
<path d="M381.614 351.068H418.932V293.313H381.614V351.068ZM420.551 354.318H379.994C379.093 354.318 378.369 353.589 378.369 352.693V291.688C378.369 290.797 379.093 290.068 379.994 290.068H420.551C421.447 290.068 422.171 290.797 422.171 291.688V352.693C422.171 353.589 421.447 354.318 420.551 354.318Z" fill="#232323"/>
<path d="M230.727 388.563H268.045V372.042H230.727V388.563ZM269.67 391.808H229.107C228.212 391.808 227.482 391.084 227.482 390.183V370.422C227.482 369.521 228.212 368.797 229.107 368.797H269.67C270.561 368.797 271.29 369.521 271.29 370.422V390.183C271.29 391.084 270.561 391.808 269.67 391.808Z" fill="#232323"/>
<path d="M306.171 388.563H343.483V372.042H306.171V388.563ZM345.113 391.808H304.551C303.655 391.808 302.926 391.084 302.926 390.183V370.422C302.926 369.521 303.655 368.797 304.551 368.797H345.113C346.004 368.797 346.733 369.521 346.733 370.422V390.183C346.733 391.084 346.004 391.808 345.113 391.808Z" fill="#232323"/>
<path d="M381.614 388.563H418.932V372.042H381.614V388.563ZM420.551 391.808H379.994C379.093 391.808 378.369 391.084 378.369 390.183V370.422C378.369 369.521 379.093 368.797 379.994 368.797H420.551C421.447 368.797 422.171 369.521 422.171 370.422V390.183C422.171 391.084 421.447 391.808 420.551 391.808Z" fill="#232323"/>
<path d="M449.347 267.37H200.311C199.415 267.37 198.686 266.641 198.686 265.745C198.686 264.849 199.415 264.12 200.311 264.12H449.347C450.248 264.12 450.972 264.849 450.972 265.745C450.972 266.641 450.248 267.37 449.347 267.37Z" fill="#232323"/>
<path d="M230.727 506.979H268.045V449.224H230.727V506.979ZM269.67 510.229H229.107C228.212 510.229 227.482 509.5 227.482 508.604V447.599C227.482 446.703 228.212 445.974 229.107 445.974H269.67C270.561 445.974 271.29 446.703 271.29 447.599V508.604C271.29 509.5 270.561 510.229 269.67 510.229Z" fill="#232323"/>
<path d="M306.171 506.979H343.483V449.224H306.171V506.979ZM345.113 510.229H304.551C303.655 510.229 302.926 509.5 302.926 508.604V447.599C302.926 446.703 303.655 445.974 304.551 445.974H345.113C346.004 445.974 346.733 446.703 346.733 447.599V508.604C346.733 509.5 346.004 510.229 345.113 510.229Z" fill="#232323"/>
<path d="M381.614 506.979H418.932V449.224H381.614V506.979ZM420.551 510.229H379.994C379.093 510.229 378.369 509.5 378.369 508.604V447.599C378.369 446.703 379.093 445.974 379.994 445.974H420.551C421.447 445.974 422.171 446.703 422.171 447.599V508.604C422.171 509.5 421.447 510.229 420.551 510.229Z" fill="#232323"/>
<path d="M230.727 544.474H268.045V527.948H230.727V544.474ZM269.67 547.719H229.107C228.212 547.719 227.482 546.99 227.482 546.099V526.328C227.482 525.438 228.212 524.708 229.107 524.708H269.67C270.561 524.708 271.29 525.438 271.29 526.328V546.099C271.29 546.99 270.561 547.719 269.67 547.719Z" fill="#232323"/>
<path d="M306.171 544.474H343.483V527.948H306.171V544.474ZM345.113 547.719H304.551C303.655 547.719 302.926 546.99 302.926 546.099V526.328C302.926 525.438 303.655 524.708 304.551 524.708H345.113C346.004 524.708 346.733 525.438 346.733 526.328V546.099C346.733 546.99 346.004 547.719 345.113 547.719Z" fill="#232323"/>
<path d="M381.614 544.474H418.932V527.948H381.614V544.474ZM420.551 547.719H379.994C379.093 547.719 378.369 546.99 378.369 546.099V526.328C378.369 525.438 379.093 524.708 379.994 524.708H420.551C421.447 524.708 422.171 525.438 422.171 526.328V546.099C422.171 546.99 421.447 547.719 420.551 547.719Z" fill="#232323"/>
<path d="M449.347 423.277H200.311C199.415 423.277 198.686 422.547 198.686 421.652C198.686 420.761 199.415 420.032 200.311 420.032H449.347C450.248 420.032 450.972 420.761 450.972 421.652C450.972 422.547 450.248 423.277 449.347 423.277Z" fill="#232323"/>
<path d="M230.727 662.891H268.045V605.131H230.727V662.891ZM269.67 666.136H229.107C228.212 666.136 227.482 665.412 227.482 664.516V603.511C227.482 602.61 228.212 601.886 229.107 601.886H269.67C270.561 601.886 271.29 602.61 271.29 603.511V664.516C271.29 665.412 270.561 666.136 269.67 666.136Z" fill="#232323"/>
<path d="M306.171 662.891H343.483V605.131H306.171V662.891ZM345.113 666.136H304.551C303.655 666.136 302.926 665.412 302.926 664.516V603.511C302.926 602.61 303.655 601.886 304.551 601.886H345.113C346.004 601.886 346.733 602.61 346.733 603.511V664.516C346.733 665.412 346.004 666.136 345.113 666.136Z" fill="#232323"/>
<path d="M381.614 662.891H418.932V605.131H381.614V662.891ZM420.551 666.136H379.994C379.093 666.136 378.369 665.412 378.369 664.516V603.511C378.369 602.61 379.093 601.886 379.994 601.886H420.551C421.447 601.886 422.171 602.61 422.171 603.511V664.516C422.171 665.412 421.447 666.136 420.551 666.136Z" fill="#232323"/>
<path d="M230.727 700.38H268.045V683.865H230.727V700.38ZM269.67 703.63H229.107C228.212 703.63 227.482 702.901 227.482 702.005V682.24C227.482 681.344 228.212 680.615 229.107 680.615H269.67C270.561 680.615 271.29 681.344 271.29 682.24V702.005C271.29 702.901 270.561 703.63 269.67 703.63Z" fill="#232323"/>
<path d="M306.171 700.38H343.483V683.865H306.171V700.38ZM345.113 703.63H304.551C303.655 703.63 302.926 702.901 302.926 702.005V682.24C302.926 681.344 303.655 680.615 304.551 680.615H345.113C346.004 680.615 346.733 681.344 346.733 682.24V702.005C346.733 702.901 346.004 703.63 345.113 703.63Z" fill="#232323"/>
<path d="M381.614 700.38H418.932V683.865H381.614V700.38ZM420.551 703.63H379.994C379.093 703.63 378.369 702.901 378.369 702.005V682.24C378.369 681.344 379.093 680.615 379.994 680.615H420.551C421.447 680.615 422.171 681.344 422.171 682.24V702.005C422.171 702.901 421.447 703.63 420.551 703.63Z" fill="#232323"/>
<path d="M449.347 579.188H200.311C199.415 579.188 198.686 578.458 198.686 577.563C198.686 576.667 199.415 575.943 200.311 575.943H449.347C450.248 575.943 450.972 576.667 450.972 577.563C450.972 578.458 450.248 579.188 449.347 579.188Z" fill="#232323"/>
<path d="M179.139 786.698H472.796V85.4585H179.139V786.698ZM474.421 789.938H177.514C176.618 789.938 175.895 789.214 175.895 788.318V83.8335C175.895 82.9377 176.618 82.2085 177.514 82.2085H474.421C475.316 82.2085 476.04 82.9377 476.04 83.8335V788.318C476.04 789.214 475.316 789.938 474.421 789.938Z" fill="#232323"/>
<path d="M661.4 786.698H896.155V491.104H661.4V786.698ZM897.78 789.938H659.775C658.884 789.938 658.16 789.219 658.16 788.318V489.485C658.16 488.584 658.884 487.854 659.775 487.854H897.78C898.671 487.854 899.4 488.584 899.4 489.485V788.318C899.4 789.219 898.671 789.938 897.78 789.938Z" fill="white"/>
<path d="M777.905 786.698H858.436V391.813H777.905V786.698ZM860.061 789.943H776.285C775.384 789.943 774.655 789.219 774.655 788.318V390.183C774.655 389.292 775.384 388.563 776.285 388.563H860.061C860.957 388.563 861.686 389.292 861.686 390.183V788.318C861.686 789.219 860.957 789.943 860.061 789.943Z" fill="white"/>
<path d="M804.988 581.688H831.363V555.308H804.988V581.688ZM832.983 584.938H803.363C802.473 584.938 801.744 584.209 801.744 583.313V553.688C801.744 552.787 802.473 552.063 803.363 552.063H832.983C833.874 552.063 834.603 552.787 834.603 553.688V583.313C834.603 584.209 833.874 584.938 832.983 584.938Z" fill="white"/>
<path d="M804.988 540.709H831.363V514.323H804.988V540.709ZM832.983 543.948H803.363C802.473 543.948 801.744 543.224 801.744 542.329V512.698C801.744 511.808 802.473 511.079 803.363 511.079H832.983C833.874 511.079 834.603 511.808 834.603 512.698V542.329C834.603 543.224 833.874 543.948 832.983 543.948Z" fill="white"/>
<path d="M399.732 786.698H607.378V323.813H399.732V786.698ZM608.998 789.938H398.107C397.212 789.938 396.482 789.219 396.482 788.318V322.193C396.482 321.292 397.212 320.573 398.107 320.573H608.998C609.889 320.573 610.618 321.292 610.618 322.193V788.318C610.618 789.219 609.889 789.938 608.998 789.938Z" fill="#7A7A7A"/>
<path d="M511.65 786.698H542.478V276.198H511.65V786.698ZM544.103 789.938H510.03C509.134 789.938 508.41 789.219 508.41 788.318V274.573C508.41 273.677 509.134 272.948 510.03 272.948H544.103C544.993 272.948 545.723 273.677 545.723 274.573V788.318C545.723 789.219 544.993 789.938 544.103 789.938Z" fill="#7A7A7A"/>
<path d="M545.723 403.328H626.843V354.422H545.723V403.328ZM628.468 406.573H544.104C543.202 406.573 542.479 405.849 542.479 404.948V352.802C542.479 351.907 543.202 351.183 544.104 351.183H628.468C629.359 351.183 630.088 351.907 630.088 352.802V404.948C630.088 405.849 629.359 406.573 628.468 406.573Z" fill="#7A7A7A"/>
<path d="M545.723 474.417H626.843V425.521H545.723V474.417ZM628.468 477.667H544.104C543.202 477.667 542.479 476.943 542.479 476.047V423.896C542.479 423 543.202 422.271 544.104 422.271H628.468C629.359 422.271 630.088 423 630.088 423.896V476.047C630.088 476.943 629.359 477.667 628.468 477.667Z" fill="#7A7A7A"/>
<path d="M545.723 545.516H626.843V496.615H545.723V545.516ZM628.468 548.761H544.104C543.202 548.761 542.479 548.032 542.479 547.136V494.99C542.479 494.099 543.202 493.37 544.104 493.37H628.468C629.359 493.37 630.088 494.099 630.088 494.99V547.136C630.088 548.032 629.359 548.761 628.468 548.761Z" fill="#7A7A7A"/>
<path d="M545.723 616.61H626.843V567.709H545.723V616.61ZM628.468 619.854H544.104C543.202 619.854 542.479 619.131 542.479 618.229V566.084C542.479 565.193 543.202 564.464 544.104 564.464H628.468C629.359 564.464 630.088 565.193 630.088 566.084V618.229C630.088 619.131 629.359 619.854 628.468 619.854Z" fill="#7A7A7A"/>
<path d="M545.723 687.703H626.843V638.802H545.723V687.703ZM628.468 690.948H544.104C543.202 690.948 542.479 690.224 542.479 689.328V637.182C542.479 636.281 543.202 635.552 544.104 635.552H628.468C629.359 635.552 630.088 636.281 630.088 637.182V689.328C630.088 690.224 629.359 690.948 628.468 690.948Z" fill="#7A7A7A"/>
<path d="M545.723 758.797H626.843V709.896H545.723V758.797ZM628.468 762.047H544.104C543.202 762.047 542.479 761.318 542.479 760.422V708.271C542.479 707.381 543.202 706.651 544.104 706.651H628.468C629.359 706.651 630.088 707.381 630.088 708.271V760.422C630.088 761.318 629.359 762.047 628.468 762.047Z" fill="#7A7A7A"/>
<path d="M269.358 431.86C269.306 431.86 269.254 431.86 269.202 431.854C268.306 431.766 267.655 430.974 267.743 430.084L269.488 412.12C269.577 411.235 270.363 410.568 271.259 410.662C272.155 410.75 272.806 411.547 272.717 412.438L270.973 430.396C270.889 431.235 270.186 431.86 269.358 431.86Z" fill="black"/>
<path d="M583.738 267.105C580.988 264.511 577.779 264.433 574.024 264.902L572.701 264.079C569.8 262.266 566.285 261.704 562.962 262.521L536.795 268.985C535.701 269.256 534.701 268.282 534.946 267.178C535.446 264.98 536.191 261.683 536.764 259.073C537.363 256.412 536.305 254.844 535.41 254.037C534.91 253.579 534.123 253.626 533.675 254.141C530.779 257.464 520.097 270.193 520.436 276.48C520.837 283.751 525.842 304.917 525.842 304.917L548.097 304.891L543.717 290.641C543.41 289.646 543.946 288.584 544.925 288.23L576.68 276.959C577.253 276.756 577.441 276.047 577.045 275.584C576.337 274.761 575.222 273.579 574.003 272.761L583.04 269.178C583.857 268.85 584.191 267.865 583.738 267.105Z" fill="white"/>
<path d="M534.613 255.537C528.608 262.495 521.821 271.995 522.061 276.391C522.389 282.433 526.066 298.657 527.134 303.292L545.905 303.271L542.17 291.12C541.603 289.282 542.577 287.344 544.389 286.703L575.066 275.813C574.493 275.214 573.811 274.584 573.097 274.104L570.545 272.386L582.071 267.813C579.993 266.183 577.577 266.099 574.228 266.516L573.655 266.584L571.842 265.459C569.321 263.886 566.233 263.391 563.347 264.099L537.181 270.563C536.118 270.818 535.009 270.521 534.228 269.75C533.441 268.985 533.129 267.886 533.363 266.823C533.863 264.625 534.608 261.328 535.186 258.724C535.478 257.407 535.285 256.334 534.613 255.537ZM524.566 306.542L524.269 305.292C524.061 304.422 519.222 283.901 518.821 276.573C518.457 269.917 528.233 257.927 532.452 253.078C532.957 252.495 533.66 252.146 534.436 252.104C535.207 252.063 535.936 252.318 536.504 252.834C537.53 253.766 539.139 255.865 538.353 259.427C537.795 261.969 537.071 265.172 536.571 267.37L562.577 260.948C566.301 260.032 570.306 260.667 573.556 262.703L574.4 263.224C577.78 262.839 581.582 262.839 584.858 265.927L585.014 266.084L585.134 266.282C585.592 267.052 585.691 267.979 585.4 268.828C585.108 269.683 584.462 270.354 583.629 270.683L577.118 273.271C577.566 273.719 577.957 274.157 578.275 274.526C578.816 275.151 579.004 275.995 578.795 276.792C578.582 277.578 577.999 278.214 577.228 278.49L545.472 289.761C545.306 289.818 545.217 290 545.264 290.162L550.29 306.511L524.566 306.542Z" fill="black"/>
<path d="M546.843 281.042C546.114 281.042 545.458 280.552 545.27 279.813C545.057 278.943 545.583 278.063 546.452 277.844L569.015 272.167C569.89 271.953 570.765 272.474 570.984 273.344C571.202 274.214 570.676 275.099 569.807 275.318L547.239 280.995C547.109 281.026 546.978 281.042 546.843 281.042Z" fill="black"/>
<path d="M544.54 274.427C543.811 274.427 543.155 273.938 542.967 273.203C542.743 272.334 543.275 271.448 544.144 271.229L566.712 265.552C567.582 265.339 568.457 265.865 568.676 266.735C568.9 267.604 568.368 268.485 567.499 268.703L544.936 274.381C544.806 274.412 544.67 274.427 544.54 274.427Z" fill="black"/>
<path d="M247.155 366.027C253.478 366.396 264.067 366.907 270.51 367.214C273.494 367.349 275.739 369.98 275.411 372.954L271.103 412.282C273.905 407.11 279.129 398.469 287.655 389.667C325.744 350.349 388.603 350.334 416.463 357.829C447.286 366.115 454.14 369.849 454.14 369.849C462.421 374.933 474.708 379.469 490.244 376.62C518.765 371.407 531.629 346.959 519.708 307.521C518.614 303.912 521.296 300.261 525.072 300.261L549.265 300.235C551.89 300.23 554.208 301.959 554.947 304.48C560.484 323.282 578.978 399.058 525.973 422.974C494.692 437.094 461.796 435.506 461.796 435.506C463.895 453.563 465.994 471.615 468.098 489.672C474.411 519.568 468.676 531.256 462.603 536.474C448.437 548.667 428.978 531.959 380.734 535.334C350.036 537.485 342.499 545.756 330.51 539.599C317.739 533.032 306.27 513.339 308.999 458.027C308.999 458.027 290.692 478.131 255.807 471.662C212.723 463.678 233.499 390.959 240.145 370.787C241.135 367.787 244.01 365.839 247.155 366.027Z" fill="#4880FF"/>
<path d="M308.999 456.401C309.212 456.401 309.426 456.443 309.629 456.526C310.259 456.792 310.655 457.422 310.624 458.104C308.4 503.047 315.343 529.979 331.249 538.157C337.624 541.422 342.619 540.292 351.686 538.224C358.343 536.714 367.462 534.636 380.619 533.714C403.692 532.094 420.468 535.078 432.723 537.256C446.41 539.683 454.676 541.162 461.551 535.245C469.697 528.235 471.369 513.016 466.504 490.006C466.494 489.953 466.488 489.907 466.483 489.86L460.181 435.698C460.129 435.219 460.28 434.75 460.613 434.401C460.936 434.052 461.4 433.87 461.874 433.886C462.192 433.896 494.765 435.276 525.306 421.5C547.249 411.594 559.186 391.485 560.791 361.724C562.093 337.594 556.051 313.974 553.39 304.938C552.853 303.125 551.16 301.854 549.27 301.854L525.077 301.881C523.796 301.881 522.634 302.469 521.879 303.49C521.113 304.526 520.884 305.818 521.259 307.047C527.832 328.792 527.176 347.037 519.384 359.813C513.478 369.479 503.504 375.849 490.535 378.219C474.067 381.235 461.192 376.084 453.291 371.229C453.28 371.229 446.056 367.464 416.041 359.396C386.348 351.412 325.556 352.881 288.817 390.797C282.447 397.375 276.962 404.865 272.53 413.052C272.166 413.74 271.369 414.063 270.619 413.834C269.879 413.604 269.41 412.875 269.494 412.104L273.801 372.776C273.91 371.787 273.613 370.823 272.968 370.073C272.322 369.318 271.426 368.881 270.436 368.834C263.103 368.485 253.098 368 247.061 367.646C244.645 367.5 242.442 369 241.686 371.292C237.03 385.407 222.942 433.313 236.994 457.058C241.171 464.11 247.598 468.49 256.103 470.068C289.624 476.276 307.624 457.12 307.806 456.927C308.119 456.584 308.556 456.401 308.999 456.401ZM339.494 543.474C336.254 543.474 333.197 542.802 329.77 541.042C312.874 532.36 305.483 506.443 307.207 461.881C301.796 466.344 289.134 474.584 269.494 474.584C265.166 474.584 260.509 474.183 255.509 473.261C246.046 471.506 238.874 466.61 234.197 458.714C219.853 434.469 232.499 388.787 238.603 370.276C239.822 366.589 243.384 364.157 247.254 364.401C253.275 364.761 263.265 365.25 270.587 365.594C272.452 365.677 274.218 366.542 275.431 367.959C276.65 369.386 277.228 371.266 277.025 373.131L273.541 404.943C277.317 399.026 281.65 393.532 286.488 388.537C324.192 349.625 386.478 348.089 416.884 356.261C447.541 364.5 454.629 368.266 454.916 368.422C462.41 373.021 474.494 377.854 489.952 375.026C502.16 372.792 511.124 367.104 516.613 358.12C523.916 346.151 524.447 328.818 518.155 307.99C517.483 305.766 517.89 303.422 519.27 301.563C520.645 299.703 522.759 298.636 525.072 298.636L549.265 298.604H549.27C552.587 298.604 555.567 300.834 556.504 304.021C559.212 313.219 565.358 337.266 564.035 361.896C562.358 392.969 549.775 414.016 526.64 424.453C499.65 436.636 471.15 437.25 463.624 437.172L469.697 489.407C474.801 513.625 472.77 529.87 463.66 537.709C455.624 544.625 446.291 542.964 432.155 540.453C420.067 538.302 403.515 535.365 380.848 536.953C367.942 537.855 359.327 539.818 352.405 541.396C347.296 542.552 343.275 543.474 339.494 543.474Z" fill="black"/>
<path d="M270.201 341.162L267.373 338.031L267.347 316.922C267.347 314.87 265.68 313.203 263.628 313.209C261.576 313.209 259.915 314.875 259.915 316.932L259.936 339.656L240.154 343.99L240.17 355.594C240.175 360.646 243.113 365.24 247.701 367.354L248.686 367.807C254.623 370.552 261.555 370.031 267.019 366.432C269.654 364.698 271.399 361.891 271.785 358.755L272.904 349.714C273.29 346.604 272.3 343.485 270.201 341.162Z" fill="white"/>
<path d="M241.78 345.292L241.79 355.589C241.796 359.995 244.384 364.031 248.384 365.88L249.368 366.339C254.832 368.86 261.098 368.386 266.124 365.078C268.368 363.604 269.842 361.224 270.176 358.557L271.296 349.516C271.624 346.875 270.785 344.229 268.999 342.255L265.749 338.656L265.728 316.922C265.728 316.37 265.509 315.839 265.113 315.443C264.717 315.047 264.191 314.828 263.634 314.828C263.629 314.828 263.629 314.828 263.629 314.828C262.473 314.828 261.535 315.776 261.54 316.932L261.561 340.964L241.78 345.292ZM256.634 371.193C253.712 371.193 250.775 370.557 248.004 369.281L247.02 368.823C241.879 366.453 238.556 361.261 238.546 355.594L238.535 342.688L258.316 338.349L258.29 316.932C258.29 313.985 260.681 311.589 263.624 311.583C263.629 311.583 263.629 311.583 263.634 311.583C265.056 311.583 266.395 312.141 267.405 313.146C268.415 314.151 268.973 315.495 268.973 316.922L268.993 337.412L271.405 340.078C273.827 342.75 274.957 346.333 274.514 349.917L273.395 358.958C272.947 362.568 270.947 365.787 267.91 367.787C264.483 370.047 260.572 371.193 256.634 371.193Z" fill="black"/>
<path d="M258.55 345.641H252.79C252.186 345.641 251.696 345.157 251.696 344.553L251.686 332.724C251.686 332.12 252.17 331.636 252.774 331.631L258.243 331.625C259.008 331.625 259.628 332.245 259.628 333.006L259.644 344.542C259.644 345.146 259.154 345.636 258.55 345.641Z" fill="white"/>
<path d="M255.753 333.25H254.748C254.363 333.25 253.998 333.401 253.727 333.672C253.456 333.948 253.311 334.313 253.311 334.698L253.316 342.578C253.316 342.959 253.467 343.323 253.738 343.594C254.008 343.87 254.373 344.016 254.753 344.016C254.758 344.016 254.758 344.016 254.758 344.016L256.581 344.011C256.962 344.011 257.326 343.865 257.597 343.589C257.868 343.318 258.019 342.959 258.019 342.573L258.008 335.506C258.008 334.907 257.774 334.339 257.347 333.912C256.92 333.49 256.357 333.25 255.753 333.25ZM254.753 347.266C253.508 347.266 252.331 346.782 251.446 345.896C250.561 345.011 250.071 343.834 250.071 342.584L250.061 334.703C250.061 333.448 250.55 332.271 251.43 331.386C252.316 330.495 253.493 330.011 254.743 330.011H255.743C255.748 330.011 255.753 330.011 255.753 330.011C257.222 330.011 258.602 330.578 259.639 331.615C260.68 332.651 261.253 334.032 261.253 335.506L261.264 342.568C261.264 343.818 260.779 345 259.894 345.886C259.008 346.771 257.831 347.261 256.581 347.261L254.758 347.266C254.758 347.266 254.758 347.266 254.753 347.266Z" fill="black"/>
<path d="M250.764 347.386L246.624 347.396C246.103 347.396 245.686 346.974 245.686 346.454L245.676 334.537C245.676 334.016 246.092 333.594 246.608 333.594H250.749C251.264 333.594 251.686 334.011 251.686 334.527L251.697 346.448C251.702 346.964 251.28 347.386 250.764 347.386Z" fill="white"/>
<path d="M249.061 335.219H248.301C247.743 335.219 247.296 335.667 247.296 336.224L247.306 344.766C247.306 345.313 247.759 345.766 248.311 345.766H249.072C249.624 345.766 250.077 345.313 250.077 344.761L250.066 336.219C250.066 335.667 249.613 335.219 249.061 335.219ZM248.311 349.016C245.967 349.016 244.061 347.11 244.061 344.766L244.051 336.224C244.051 333.881 245.957 331.974 248.296 331.969H249.056C249.056 331.969 249.056 331.969 249.061 331.969C251.4 331.969 253.306 333.875 253.311 336.214L253.316 344.756C253.322 347.099 251.415 349.011 249.077 349.016H248.316H248.311Z" fill="black"/>
<path d="M244.827 349.568L241.025 349.573C240.551 349.573 240.166 349.193 240.166 348.714L240.15 336.724C240.15 336.256 240.536 335.865 241.01 335.865L244.812 335.86C245.291 335.86 245.676 336.25 245.676 336.719L245.687 348.709C245.687 349.188 245.307 349.568 244.827 349.568Z" fill="white"/>
<path d="M243.264 337.49H242.566C242.128 337.49 241.774 337.849 241.774 338.281L241.779 347.156C241.785 347.594 242.139 347.948 242.576 347.948H243.274C243.561 347.948 243.748 347.802 243.831 347.719C243.92 347.625 244.061 347.443 244.061 347.156L244.055 338.276C244.055 337.839 243.696 337.49 243.264 337.49ZM242.576 351.198C240.352 351.198 238.54 349.386 238.54 347.162L238.529 338.281C238.529 337.208 238.946 336.193 239.706 335.427C240.472 334.662 241.482 334.245 242.561 334.245L243.258 334.24C245.488 334.24 247.295 336.052 247.3 338.271L247.311 347.151C247.311 348.235 246.889 349.245 246.128 350.011C245.368 350.771 244.357 351.198 243.279 351.198H242.581C242.576 351.198 242.576 351.198 242.576 351.198Z" fill="black"/>
<path d="M269.264 347.25C268.936 347.25 268.608 347.146 268.321 346.948L259.863 340.87C259.134 340.349 258.973 339.334 259.493 338.604C260.014 337.875 261.03 337.714 261.759 338.235L270.212 344.307C270.941 344.828 271.108 345.844 270.587 346.573C270.269 347.016 269.775 347.25 269.264 347.25Z" fill="black"/>
<path d="M254.27 361.563C253.405 361.563 252.687 360.886 252.65 360.016C252.379 354.167 255.343 350.729 258.025 349.063L255.739 346.787C255.103 346.162 255.098 345.125 255.728 344.495C256.364 343.86 257.39 343.854 258.025 344.485L261.968 348.401C262.374 348.807 262.536 349.401 262.39 349.964C262.244 350.521 261.817 350.964 261.259 351.115C261.036 351.182 255.572 352.865 255.89 359.865C255.931 360.761 255.239 361.521 254.343 361.563C254.317 361.563 254.291 361.563 254.27 361.563Z" fill="black"/>
<path d="M369.624 321.318C365.718 323.756 359.582 327.594 352.738 325.553C345.452 323.386 339.4 315.167 340.744 309.662C341.926 304.834 348.087 304.938 349.025 299.912C349.905 295.183 344.765 293.396 344.405 287.584C343.931 279.839 352.291 270.589 360.051 270.355C364.811 270.219 365.296 273.594 370.806 273.917C378.311 274.36 379.791 268.245 388.301 267.407C389.738 267.266 398.265 266.084 403.666 271.61C407.072 275.089 408.796 280.75 407.593 285.745C405.53 294.334 396.66 293.287 384.353 305.719C376.921 313.23 377.004 316.709 369.624 321.318Z" fill="black"/>
<path d="M400.509 309.276C398.379 306.719 396.936 303.657 396.327 300.391C395.228 294.568 394.04 289.417 394.04 289.417C385.353 296.636 375.551 291.683 375.551 291.683C367.374 298.058 368.863 307.016 368.863 307.016C368.863 307.016 361.243 306.188 361.785 311.099C362.322 315.985 369.66 317.193 369.769 317.214L360.874 353.334C360.316 355.594 361.728 357.881 363.999 358.375C377.764 361.365 386.389 360.224 390.749 359.063C392.019 358.719 392.41 357.141 391.473 356.219C386.66 351.479 385.837 337.922 385.848 329.026C390.29 330.016 394.384 329.125 396.415 325.042C397.868 322.12 398.249 319.047 398.072 314.433C398.045 313.625 401.04 310.214 400.509 309.276Z" fill="white"/>
<path d="M367.707 308.589C366.384 308.589 364.546 308.802 363.765 309.584C363.551 309.802 363.311 310.151 363.4 310.927C363.791 314.485 369.968 315.604 370.03 315.615L371.765 315.896L371.348 317.604L362.447 353.719C362.28 354.391 362.395 355.084 362.759 355.667C363.119 356.245 363.681 356.646 364.348 356.787C378.093 359.776 386.525 358.511 390.327 357.49C390.358 357.479 390.395 357.438 390.332 357.37C385.27 352.381 384.218 339.203 384.228 329.026V327.006L386.202 327.443C389.171 328.104 393.088 328.094 394.957 324.318C396.207 321.808 396.624 319.052 396.452 314.495C396.416 313.646 396.921 312.87 397.754 311.589C398.061 311.099 398.588 310.292 398.832 309.782C396.765 307.131 395.353 304 394.728 300.693C394.103 297.36 393.442 294.229 392.994 292.183C385.78 296.756 378.436 294.604 375.811 293.568C369.348 299.172 370.41 306.438 370.463 306.756L370.796 308.854L368.686 308.631C368.426 308.599 368.088 308.589 367.707 308.589ZM380.197 361.912C375.739 361.917 370.265 361.396 363.655 359.959C362.129 359.631 360.832 358.714 360.004 357.386C359.176 356.047 358.921 354.474 359.296 352.943L367.806 318.412C365.239 317.667 360.66 315.719 360.176 311.282C359.952 309.276 360.759 308 361.473 307.292C362.978 305.782 365.416 305.401 367.129 305.344C367.114 302.12 367.989 295.516 374.551 290.407L375.364 289.771L376.28 290.235C376.64 290.417 385.27 294.599 393.004 288.167L395.03 286.479L395.624 289.052C395.634 289.104 396.827 294.302 397.916 300.089C398.483 303.084 399.806 305.896 401.754 308.24L401.921 308.474C402.718 309.886 401.681 311.49 400.478 313.349C400.218 313.745 399.853 314.318 399.702 314.61C399.874 319.62 399.353 322.766 397.869 325.761C395.968 329.594 392.244 331.427 387.483 330.938C387.64 343.245 389.489 351.985 392.608 355.058C393.468 355.901 393.801 357.141 393.504 358.292C393.202 359.443 392.327 360.313 391.166 360.631C388.588 361.318 384.973 361.912 380.197 361.912Z" fill="black"/>
<path d="M385.852 330.652C385.748 330.652 385.654 330.646 385.555 330.631C381.831 329.938 376.837 326.558 376.623 326.412C375.883 325.907 375.691 324.902 376.196 324.157C376.696 323.417 377.706 323.224 378.451 323.73C379.732 324.599 383.613 326.969 386.144 327.433C387.019 327.594 387.607 328.443 387.441 329.323C387.3 330.11 386.618 330.652 385.852 330.652Z" fill="black"/>
<path d="M402.358 272.682C401.827 271.271 401.207 269.875 400.488 268.505C391.014 250.5 368.743 243.589 350.743 253.068C332.749 262.547 325.837 284.828 335.316 302.834C336.035 304.203 336.837 305.5 337.696 306.74L402.358 272.682Z" fill="#FFC700"/>
<path d="M367.858 250.438C362.223 250.438 356.634 251.803 351.499 254.511C334.322 263.553 327.707 284.891 336.749 302.079C337.202 302.938 337.692 303.782 338.239 304.625L400.311 271.933C399.916 271 399.504 270.115 399.056 269.261C394.671 260.938 387.311 254.818 378.332 252.037C374.89 250.964 371.358 250.438 367.858 250.438ZM337.702 308.365C337.186 308.365 336.681 308.12 336.369 307.672C335.416 306.297 334.598 304.964 333.879 303.594C323.999 284.823 331.228 261.516 349.983 251.636C359.072 246.849 369.483 245.891 379.296 248.933C389.103 251.974 397.134 258.657 401.921 267.75C402.64 269.099 403.291 270.568 403.874 272.11C404.166 272.875 403.837 273.74 403.114 274.12L338.452 308.183C338.212 308.308 337.957 308.365 337.702 308.365Z" fill="black"/>
<path d="M337.107 314.443L337.701 306.74L402.357 272.683L417.425 272.141L337.107 314.443Z" fill="#FFC700"/>
<path d="M339.254 307.755L338.957 311.636L410.374 274.021L402.79 274.292L339.254 307.755ZM337.108 316.063C336.801 316.063 336.493 315.974 336.222 315.802C335.733 315.474 335.452 314.912 335.493 314.318L336.082 306.615C336.129 306.063 336.452 305.563 336.946 305.307L401.603 271.245C401.821 271.13 402.056 271.068 402.301 271.063L417.363 270.516C418.077 270.495 418.795 270.995 418.988 271.724C419.186 272.458 418.847 273.224 418.181 273.578L337.868 315.88C337.634 316.005 337.368 316.063 337.108 316.063Z" fill="black"/>
<path d="M350.675 324.891C350.191 324.891 349.701 324.714 349.321 324.349C348.535 323.599 348.493 322.36 349.243 321.568C357.358 312.979 355.358 304.573 355.337 304.49C355.071 303.438 355.712 302.365 356.764 302.099C357.816 301.833 358.889 302.474 359.149 303.526C359.253 303.958 361.681 314.13 352.102 324.271C351.717 324.677 351.196 324.891 350.675 324.891Z" fill="white"/>
<path d="M395.822 277.75C395.29 277.75 394.764 277.49 394.452 277.011C378.285 251.834 349.582 264.193 349.301 264.318C348.603 264.625 347.785 264.412 347.332 263.802L343.191 258.183C342.655 257.459 342.811 256.443 343.535 255.912C344.249 255.38 345.264 255.532 345.801 256.255L349.207 260.875C355.181 258.698 381.525 250.86 397.186 275.25C397.67 276.011 397.447 277.011 396.691 277.495C396.426 277.672 396.124 277.75 395.822 277.75Z" fill="black"/>
<path d="M410.368 784.042L394.488 831.625C394.488 831.625 411.842 830.125 413.504 830.448C415.165 830.771 435.426 787.042 435.426 787.042L410.368 784.042Z" fill="white"/>
<path d="M411.489 785.808L396.806 829.803C401.66 829.396 409.973 828.776 412.926 828.797C415.463 825.37 426.051 803.334 433.009 788.386L411.489 785.808ZM394.489 833.245C393.994 833.245 393.52 833.021 393.213 832.631C392.869 832.204 392.775 831.631 392.942 831.11L408.832 783.521C409.077 782.792 409.801 782.339 410.567 782.428L435.619 785.428C436.134 785.49 436.588 785.797 436.838 786.25C437.093 786.704 437.114 787.25 436.895 787.724C436.843 787.834 431.765 798.792 426.546 809.573C415.452 832.49 414.749 832.344 413.197 832.042C412.082 831.886 402.869 832.532 394.624 833.245C394.582 833.245 394.53 833.245 394.489 833.245Z" fill="black"/>
<path d="M398.123 821.167C398.123 821.167 422.087 811.313 426.529 823.646C432.18 839.328 441.024 863.261 441.024 863.261C442.519 867.422 439.654 871.87 435.243 872.235C426.488 872.948 413.42 873.532 407.331 871.401C397.717 868.037 381.748 837.631 381.748 837.631L386.633 811.74C386.633 811.74 395.321 810.506 398.123 821.167Z" fill="#232323"/>
<path d="M383.447 837.376C388.046 846.027 400.624 867.334 407.869 869.865C412.301 871.422 421.978 871.683 435.108 870.615C436.712 870.485 438.119 869.636 438.988 868.297C439.848 866.948 440.035 865.318 439.494 863.813C439.415 863.584 430.598 839.709 425.004 824.198C424.316 822.292 423.056 820.954 421.155 820.11C413.473 816.704 398.889 822.61 398.738 822.667C398.306 822.844 397.822 822.829 397.4 822.62C396.983 822.412 396.676 822.037 396.556 821.579C394.718 814.594 390.129 813.469 387.983 813.334L383.447 837.376ZM421.014 874.511C415.389 874.511 410.145 874.11 406.796 872.933C396.863 869.459 381.973 841.563 380.306 838.386C380.134 838.063 380.082 837.693 380.15 837.329L385.035 811.443C385.165 810.761 385.712 810.235 386.405 810.136C386.494 810.126 395.561 808.959 399.16 819.037C403.473 817.49 415.119 813.886 422.462 817.141C425.181 818.349 427.066 820.349 428.051 823.094C433.645 838.594 442.452 862.459 442.54 862.698C443.436 865.172 443.129 867.849 441.718 870.047C440.301 872.251 437.988 873.636 435.374 873.855C430.947 874.209 425.837 874.511 421.014 874.511Z" fill="black"/>
<path d="M410.264 863.516C409.368 863.516 408.639 862.792 408.639 861.896C408.639 861.006 409.363 860.276 410.264 860.271L434.878 860.245C435.779 860.245 436.503 860.974 436.503 861.87C436.503 862.766 435.779 863.495 434.883 863.495L410.269 863.516C410.264 863.516 410.264 863.516 410.264 863.516Z" fill="black"/>
<path d="M365.191 795.777L370.66 843.62L392.441 837.62L390.712 794.506L365.191 795.777Z" fill="white"/>
<path d="M367.004 797.307L372.056 841.552L390.765 836.396L389.16 796.208L367.004 797.307ZM370.66 845.245C370.343 845.245 370.025 845.146 369.754 844.963C369.358 844.698 369.103 844.276 369.051 843.807L363.582 795.958C363.53 795.51 363.666 795.062 363.957 794.724C364.244 794.38 364.666 794.177 365.119 794.156L390.634 792.885C391.061 792.875 391.494 793.016 391.811 793.307C392.129 793.599 392.322 794.01 392.337 794.443L394.061 837.557C394.087 838.307 393.598 838.984 392.869 839.187L371.093 845.187C370.952 845.224 370.806 845.245 370.66 845.245Z" fill="black"/>
<path d="M368.644 878.88L403.113 878.844C407.779 878.839 411.352 874.698 410.665 870.083C409.508 862.297 405.743 849.38 394.488 831.625C393.258 829.693 391.113 828.51 388.816 828.516L378.331 828.526C376.524 828.526 375.014 829.896 374.826 831.693L374.045 839.26L369.472 833.24C369.472 833.24 361.342 850.411 360.988 871.099C360.91 875.375 364.368 878.88 368.644 878.88Z" fill="#232323"/>
<path d="M369.873 836.448C367.686 841.901 362.873 855.578 362.613 871.13C362.581 872.755 363.196 874.292 364.342 875.453C365.477 876.62 367.008 877.255 368.639 877.255C368.639 877.255 368.639 877.255 368.644 877.255L403.113 877.219C404.863 877.219 406.524 876.458 407.67 875.125C408.805 873.797 409.321 872.047 409.061 870.318C407.936 862.76 404.253 850.057 393.118 832.495C392.191 831.042 390.545 830.135 388.826 830.135H388.816L378.337 830.146C377.357 830.151 376.54 830.885 376.441 831.859L375.654 839.427C375.587 840.089 375.118 840.641 374.482 840.823C373.837 841 373.154 840.776 372.748 840.24L369.873 836.448ZM368.639 880.505C366.128 880.505 363.785 879.516 362.024 877.734C360.269 875.943 359.321 873.583 359.363 871.078C359.722 850.271 367.67 833.255 368.008 832.536C368.248 832.026 368.743 831.677 369.305 831.62C369.873 831.568 370.425 831.802 370.769 832.255L372.852 835.005L373.217 831.526C373.488 828.896 375.686 826.901 378.331 826.901L388.816 826.891C388.816 826.891 388.816 826.891 388.826 826.891C391.691 826.891 394.321 828.333 395.857 830.755C407.295 848.802 411.097 861.969 412.269 869.844C412.665 872.505 411.889 875.203 410.128 877.24C408.368 879.286 405.811 880.458 403.113 880.464L368.644 880.505H368.639Z" fill="black"/>
<path d="M366.067 872.266C365.176 872.266 364.447 871.537 364.447 870.641C364.447 869.745 365.171 869.016 366.067 869.016L407.333 868.975C408.229 868.975 408.952 869.699 408.958 870.594C408.958 871.495 408.229 872.219 407.338 872.219L366.077 872.266C366.067 872.266 366.067 872.266 366.067 872.266Z" fill="black"/>
<path d="M446.702 508.302C445.791 506.099 443.968 504.412 441.692 503.698C429.082 499.756 385.129 489.381 339.926 518.453C337.791 519.823 336.431 522.12 336.249 524.651C334.64 547.651 328.671 667.87 366.843 810.167L392.442 808.318L397.405 564.938C397.405 564.938 435.431 654.12 404.739 796.146L431.379 801.037C431.379 801.037 470.301 749.724 477.197 671.37C483.296 602.052 453.634 525.131 446.702 508.302Z" fill="black"/>
<path d="M373.238 697.667C373.223 697.667 373.196 697.667 373.17 697.667C348.967 696.646 346.202 663.834 346.176 663.5C346.108 662.61 346.775 661.829 347.67 661.761C348.561 661.704 349.342 662.36 349.415 663.25C349.431 663.558 351.988 693.521 373.311 694.417C374.202 694.459 374.9 695.214 374.863 696.11C374.827 696.985 374.108 697.667 373.238 697.667Z" fill="white"/>
<path d="M575.113 198.87C553.555 197.229 537.415 178.417 539.055 156.854C540.691 135.287 559.498 119.131 581.055 120.776C602.613 122.422 618.758 141.235 617.118 162.797C615.477 184.36 596.675 200.511 575.113 198.87ZM655.946 173.375L657.102 158.209L641.222 153.334C640.868 149.776 640.217 146.292 639.285 142.917L652.295 132.615L645.712 118.901L629.519 122.625C627.451 119.766 625.144 117.073 622.628 114.589L628.753 99.1462L616.196 90.5628L604.05 101.865C600.863 100.433 597.514 99.266 594.05 98.3649L591.639 81.9326L576.472 80.7764L571.607 96.6618C568.04 97.0212 564.561 97.667 561.186 98.5993L550.889 85.5889L537.186 92.1722L540.899 108.37C538.045 110.443 535.352 112.75 532.873 115.266L517.436 109.136L508.857 121.698L520.149 133.849C518.722 137.042 517.555 140.391 516.66 143.849L500.222 146.266L499.076 161.438L514.946 166.313C515.316 169.875 515.951 173.354 516.883 176.735L503.883 187.032L510.462 200.74L526.649 197.021C528.727 199.886 531.029 202.573 533.55 205.052L527.42 220.5L539.977 229.089L552.118 217.787C555.316 219.219 558.665 220.381 562.123 221.276L564.54 237.719L579.696 238.87L584.576 222.99C588.128 222.625 591.613 221.974 594.982 221.047L605.279 234.058L618.993 227.474L615.274 211.276C618.139 209.203 620.821 206.896 623.3 204.381L638.743 210.511L647.326 197.948L636.024 185.802C637.456 182.604 638.623 179.261 639.514 175.792L655.946 173.375Z" fill="#4880FF"/>
<path d="M570.368 191.578C580.347 192.333 590.051 189.162 597.66 182.625C605.264 176.099 609.868 166.99 610.629 156.995C612.202 136.354 596.686 118.287 576.061 116.714C566.066 115.953 556.373 119.136 548.769 125.662C541.165 132.198 536.561 141.297 535.795 151.297C534.233 171.938 549.733 190.005 570.368 191.578ZM573.28 194.932C572.228 194.932 571.176 194.896 570.118 194.818C547.707 193.104 530.858 173.474 532.561 151.047C533.389 140.188 538.394 130.297 546.66 123.198C554.92 116.109 565.446 112.651 576.311 113.479C598.717 115.182 615.571 134.818 613.868 157.24C613.04 168.104 608.03 177.99 599.769 185.089C592.316 191.5 583.004 194.932 573.28 194.932ZM561.082 230.516L573.655 231.474L578.15 216.833C578.342 216.208 578.889 215.761 579.535 215.693C582.998 215.339 586.42 214.703 589.681 213.807C590.306 213.63 590.983 213.849 591.389 214.359L600.873 226.354L612.243 220.896L608.816 205.964C608.67 205.323 608.92 204.662 609.446 204.287C612.233 202.271 614.863 200.011 617.269 197.563C617.733 197.099 618.426 196.953 619.025 197.193L633.264 202.844L640.379 192.432L629.957 181.229C629.519 180.755 629.405 180.052 629.67 179.458C631.051 176.37 632.202 173.089 633.077 169.708C633.238 169.078 633.759 168.604 634.405 168.511L649.561 166.281L650.514 153.703L635.874 149.208C635.254 149.021 634.806 148.469 634.738 147.818C634.389 144.349 633.749 140.932 632.853 137.672C632.67 137.047 632.894 136.37 633.405 135.964L645.4 126.474L639.936 115.099L625.009 118.526C624.374 118.672 623.712 118.422 623.332 117.896C621.321 115.12 619.061 112.484 616.613 110.073C616.15 109.615 616.004 108.922 616.243 108.318L621.894 94.0782L611.478 86.9532L600.285 97.3803C599.811 97.8178 599.113 97.9376 598.519 97.6668C595.426 96.2814 592.144 95.1407 588.775 94.2657C588.139 94.1043 587.67 93.573 587.571 92.9272L585.353 77.7762L572.775 76.8178L568.28 91.4637C568.087 92.0835 567.54 92.5314 566.889 92.5991C563.431 92.948 560.014 93.5887 556.743 94.4897C556.113 94.6564 555.441 94.4428 555.04 93.9324L545.551 81.9376L534.186 87.396L537.613 102.328C537.759 102.964 537.509 103.63 536.978 104.011C534.196 106.021 531.561 108.287 529.155 110.724C528.702 111.193 528.004 111.339 527.405 111.094L513.165 105.448L506.051 115.865L516.462 127.063C516.905 127.537 517.025 128.235 516.759 128.828C515.379 131.917 514.233 135.193 513.358 138.578C513.186 139.208 512.665 139.682 512.025 139.781L496.868 142.011L495.915 154.583L510.551 159.078C511.176 159.276 511.623 159.823 511.691 160.469C512.04 163.938 512.681 167.354 513.577 170.62C513.754 171.25 513.535 171.917 513.025 172.328L501.035 181.823L506.493 193.198L521.42 189.761C522.056 189.615 522.717 189.865 523.097 190.396C525.108 193.172 527.368 195.802 529.816 198.219C530.28 198.682 530.426 199.375 530.181 199.974L524.535 214.219L534.946 221.333L546.144 210.917C546.618 210.469 547.321 210.359 547.91 210.62C550.998 212.011 554.28 213.151 557.655 214.031C558.285 214.193 558.759 214.714 558.847 215.365L561.082 230.516ZM574.827 234.818C574.79 234.818 574.748 234.818 574.702 234.813L559.54 233.656C558.78 233.599 558.17 233.026 558.056 232.276L555.801 216.896C552.967 216.115 550.207 215.146 547.571 214.021L536.207 224.599C535.65 225.115 534.811 225.177 534.186 224.75L521.629 216.167C521.004 215.734 520.754 214.927 521.035 214.224L526.775 199.766C524.743 197.698 522.842 195.484 521.108 193.167L505.952 196.651C505.212 196.813 504.452 196.453 504.129 195.766L497.545 182.057C497.217 181.37 497.405 180.552 498.004 180.078L510.176 170.443C509.457 167.662 508.926 164.792 508.577 161.87L493.717 157.307C492.998 157.089 492.525 156.396 492.582 155.636L493.738 140.469C493.79 139.708 494.363 139.094 495.113 138.984L510.493 136.724C511.269 133.891 512.238 131.13 513.363 128.495L502.79 117.125C502.269 116.568 502.212 115.729 502.639 115.104L511.222 102.542C511.644 101.917 512.462 101.672 513.155 101.953L527.608 107.688C529.67 105.656 531.884 103.761 534.207 102.021L530.728 86.8595C530.556 86.1251 530.931 85.3595 531.608 85.0314L545.321 78.448C545.998 78.1199 546.816 78.3074 547.29 78.9012L556.92 91.0782C559.707 90.3647 562.577 89.8282 565.493 89.4845L570.051 74.6251C570.269 73.896 570.967 73.422 571.722 73.4793L586.889 74.6407C587.644 74.6928 588.259 75.2657 588.373 76.021L590.629 91.4012C593.462 92.1824 596.217 93.1407 598.858 94.271L610.222 83.698C610.769 83.1824 611.613 83.1147 612.238 83.5418L624.79 92.1303C625.426 92.5522 625.67 93.3595 625.389 94.0678L619.655 108.526C621.686 110.599 623.587 112.813 625.321 115.125L640.472 111.641C641.217 111.479 641.967 111.844 642.301 112.521L648.884 126.24C649.207 126.922 649.019 127.745 648.426 128.208L636.254 137.849C636.972 140.63 637.504 143.505 637.847 146.417L652.707 150.979C653.431 151.203 653.905 151.901 653.847 152.656L652.691 167.823C652.634 168.583 652.066 169.203 651.316 169.313L635.931 171.568C635.15 174.401 634.191 177.162 633.066 179.797L643.634 191.172C644.155 191.724 644.217 192.563 643.79 193.193L635.207 205.75C634.78 206.375 633.972 206.615 633.269 206.344L618.816 200.604C616.748 202.636 614.535 204.537 612.212 206.276L615.702 221.432C615.868 222.172 615.498 222.932 614.821 223.261L601.108 229.844C600.431 230.177 599.613 229.979 599.139 229.386L589.509 217.208C586.722 217.927 583.858 218.458 580.936 218.807L576.379 233.672C576.165 234.354 575.535 234.818 574.827 234.818Z" fill="black"/>
<path d="M722.093 407.953C685.202 405.146 657.572 372.959 660.385 336.052C663.187 299.151 695.369 271.506 732.255 274.318C769.145 277.125 796.775 309.318 793.968 346.219C791.161 383.125 758.973 410.766 722.093 407.953ZM860.411 364.334L862.385 338.375L835.213 330.037C834.598 323.938 833.489 317.985 831.895 312.203L854.15 294.584L842.89 271.12L815.187 277.485C811.64 272.584 807.697 267.985 803.39 263.74L813.869 237.308L792.39 222.615L771.609 241.959C766.145 239.506 760.421 237.511 754.489 235.979L750.359 207.844L724.416 205.87L716.077 233.052C709.984 233.672 704.031 234.776 698.249 236.375L680.64 214.11L657.182 225.375L663.541 253.089C658.645 256.636 654.051 260.584 649.807 264.891L623.385 254.401L608.702 275.896L628.036 296.683C625.583 302.151 623.593 307.881 622.057 313.808L593.942 317.938L591.963 343.896L619.135 352.24C619.749 358.334 620.854 364.297 622.452 370.063L600.192 387.688L611.463 411.162L639.166 404.792C642.708 409.693 646.65 414.287 650.958 418.537L640.473 444.969L661.958 459.657L682.744 440.313C688.208 442.766 693.932 444.761 699.854 446.292L703.984 474.422L729.932 476.401L738.27 449.219C744.359 448.605 750.317 447.495 756.093 445.901L773.713 468.167L797.171 456.901L790.807 429.183C795.697 425.636 800.296 421.688 804.541 417.381L830.963 427.87L845.65 406.381L826.312 385.589C828.77 380.115 830.76 374.396 832.291 368.469L860.411 364.334Z" fill="#4880FF"/>
<path d="M713.88 396.62C749.796 399.36 781.281 372.334 784.015 336.375C786.744 300.427 759.739 268.953 723.801 266.219C706.395 264.891 689.51 270.427 676.265 281.802C663.015 293.183 654.989 309.042 653.661 326.459C652.338 343.87 657.869 360.766 669.249 374.011C680.619 387.266 696.473 395.292 713.88 396.62ZM718.89 400.057C717.145 400.057 715.395 399.99 713.635 399.854C675.911 396.985 647.557 363.943 650.426 326.209C653.296 288.474 686.327 260.11 724.046 262.979C761.765 265.854 790.119 298.891 787.255 336.625C784.51 372.599 754.374 400.057 718.89 400.057ZM697.067 463.188L720.426 464.959L728.385 439.021C728.577 438.401 729.124 437.953 729.77 437.891C735.775 437.271 741.687 436.172 747.327 434.615C747.958 434.438 748.624 434.656 749.031 435.172L765.843 456.422L786.958 446.276L780.885 419.828C780.739 419.193 780.989 418.526 781.52 418.146C786.327 414.667 790.885 410.755 795.051 406.521C795.505 406.063 796.202 405.917 796.807 406.156L822.02 416.162L835.244 396.818L816.791 376.974C816.348 376.495 816.229 375.797 816.499 375.209C818.895 369.854 820.874 364.182 822.38 358.339C822.546 357.714 823.067 357.229 823.718 357.136L850.557 353.193L852.338 329.828L826.4 321.865C825.781 321.677 825.333 321.125 825.265 320.479C824.656 314.479 823.557 308.563 821.994 302.917C821.827 302.292 822.046 301.615 822.557 301.214L843.791 284.396L833.661 263.266L807.213 269.339C806.577 269.49 805.916 269.24 805.536 268.719C802.051 263.896 798.15 259.349 793.921 255.172C793.447 254.719 793.307 254.021 793.541 253.422L803.551 228.193L784.208 214.969L764.38 233.433C763.9 233.875 763.208 233.99 762.614 233.719C757.26 231.323 751.588 229.339 745.755 227.828C745.119 227.667 744.645 227.136 744.551 226.495L740.609 199.651L717.255 197.87L709.296 223.813C709.098 224.433 708.557 224.88 707.906 224.948C701.9 225.558 695.999 226.656 690.354 228.219C689.729 228.391 689.051 228.172 688.645 227.662L671.833 206.412L650.718 216.558L656.791 243.011C656.937 243.641 656.692 244.308 656.161 244.688C651.343 248.172 646.796 252.089 642.63 256.313C642.166 256.771 641.473 256.917 640.874 256.677L615.65 246.672L602.442 266.016L620.885 285.86C621.333 286.334 621.452 287.037 621.182 287.63C618.781 292.979 616.801 298.651 615.296 304.495C615.13 305.13 614.604 305.599 613.958 305.693L587.119 309.641L585.348 333.011L611.27 340.964C611.9 341.156 612.348 341.709 612.411 342.36C613.02 348.365 614.119 354.266 615.682 359.917C615.854 360.547 615.635 361.214 615.119 361.62L593.88 378.443L604.02 399.563L630.463 393.495C631.109 393.344 631.765 393.594 632.14 394.115C635.624 398.932 639.536 403.485 643.76 407.662C644.223 408.115 644.369 408.813 644.13 409.417L634.124 434.641L653.468 447.865L673.301 429.412C673.775 428.959 674.479 428.849 675.072 429.11C680.411 431.511 686.083 433.49 691.926 435.005C692.557 435.167 693.031 435.698 693.124 436.339L697.067 463.188ZM721.598 468.302C721.557 468.302 721.52 468.302 721.468 468.297L695.531 466.323C694.775 466.266 694.156 465.693 694.041 464.943L690.072 437.875C684.781 436.448 679.624 434.646 674.729 432.511L654.729 451.125C654.171 451.641 653.333 451.703 652.708 451.276L631.218 436.594C630.604 436.167 630.354 435.36 630.63 434.646L640.723 409.209C636.906 405.375 633.359 401.235 630.145 396.891L603.489 403.016C602.744 403.188 601.989 402.823 601.661 402.141L590.4 378.672C590.067 377.995 590.255 377.167 590.848 376.698L612.27 359.74C610.906 354.568 609.906 349.209 609.296 343.755L583.156 335.724C582.432 335.505 581.958 334.807 582.01 334.052L583.984 308.094C584.041 307.339 584.614 306.729 585.374 306.615L612.432 302.641C613.848 297.339 615.645 292.193 617.781 287.287L599.176 267.281C598.661 266.724 598.598 265.886 599.02 265.261L613.708 243.766C614.135 243.141 614.947 242.901 615.645 243.172L641.072 253.266C644.911 249.459 649.036 245.912 653.385 242.693L647.265 216.021C647.093 215.281 647.458 214.521 648.145 214.193L671.604 202.927C672.286 202.594 673.104 202.787 673.577 203.38L690.525 224.808C695.697 223.438 701.062 222.438 706.499 221.828L714.536 195.677C714.755 194.959 715.432 194.474 716.208 194.537L742.145 196.511C742.906 196.568 743.525 197.146 743.635 197.896L747.609 224.964C752.895 226.386 758.046 228.188 762.952 230.323L782.947 211.709C783.505 211.188 784.343 211.125 784.973 211.558L806.458 226.245C807.083 226.677 807.327 227.474 807.046 228.183L796.952 253.625C800.765 257.453 804.322 261.594 807.525 265.943L834.187 259.813C834.932 259.641 835.687 260.011 836.02 260.693L847.281 284.162C847.609 284.839 847.421 285.667 846.827 286.136L825.406 303.094C826.775 308.266 827.781 313.625 828.38 319.078L854.525 327.11C855.255 327.334 855.723 328.026 855.666 328.781L853.692 354.74C853.635 355.495 853.062 356.11 852.312 356.219L825.255 360.193C823.833 365.495 822.031 370.651 819.895 375.542L838.505 395.552C839.015 396.11 839.083 396.948 838.65 397.573L823.968 419.068C823.546 419.693 822.729 419.943 822.031 419.662L796.604 409.568C792.77 413.38 788.64 416.927 784.291 420.141L790.416 446.818C790.583 447.552 790.218 448.313 789.536 448.641L766.083 459.906C765.395 460.24 764.577 460.047 764.109 459.453L747.15 438.026C741.984 439.396 736.619 440.396 731.171 441.005L723.15 467.156C722.937 467.839 722.307 468.302 721.598 468.302Z" fill="black"/>
<path d="M287.91 266.177C290.139 263.953 291.405 261.422 291.405 258.745C291.405 249.896 277.712 242.729 260.822 242.729C243.931 242.729 230.238 249.896 230.238 258.745C230.238 261.422 231.504 263.953 233.733 266.177C231.504 268.396 230.238 270.927 230.238 273.61C230.238 277.808 233.322 281.625 238.363 284.479C238.254 284.948 238.191 285.438 238.191 285.933C238.191 292.474 248.322 297.782 260.822 297.782C273.322 297.782 283.452 292.474 283.452 285.933C283.452 285.438 283.389 284.948 283.275 284.479C288.322 281.625 291.405 277.808 291.405 273.61C291.405 270.927 290.139 268.396 287.91 266.177Z" fill="black"/>
<path d="M342.885 134.849C342.885 89.5106 306.145 52.7554 260.822 52.7554C215.583 52.7554 179.062 89.0366 178.76 134.292C178.603 157.333 187.942 178.193 203.093 193.198C214.025 204.016 221.989 217.464 225.859 232.349L226.046 233.068C229.801 247.516 242.838 257.599 257.76 257.599H263.88C278.801 257.599 291.843 247.516 295.598 233.068L295.713 232.63C299.551 217.854 307.197 204.276 318.124 193.61C333.4 178.703 342.885 157.886 342.885 134.849Z" fill="white"/>
<path d="M260.822 54.3755C216.76 54.3755 180.676 90.2244 180.38 134.297C180.239 156.162 188.708 176.667 204.239 192.037C215.531 203.219 223.551 217.016 227.432 231.938L227.614 232.657C231.187 246.386 243.583 255.974 257.765 255.974H263.88C278.067 255.974 290.463 246.386 294.031 232.657L294.14 232.224C298.124 216.902 306.025 203.152 316.994 192.448C332.65 177.167 341.26 156.714 341.26 134.844C341.26 90.4744 305.176 54.3755 260.822 54.3755ZM263.88 259.219H257.765C242.103 259.219 228.416 248.636 224.473 233.474L224.291 232.756C220.557 218.402 212.838 205.115 201.958 194.344C185.801 178.355 176.984 157.016 177.135 134.282C177.286 111.959 186.041 91.0526 201.796 75.3963C217.551 59.7453 238.51 51.1255 260.822 51.1255C306.968 51.1255 344.51 88.688 344.51 134.844C344.51 157.594 335.541 178.881 319.26 194.766C308.718 205.058 301.114 218.292 297.286 233.037L297.171 233.474C293.228 248.636 279.541 259.219 263.88 259.219Z" fill="black"/>
<path d="M266.525 246.256C265.696 246.256 264.988 245.625 264.91 244.782C260.764 199.969 282.243 129.099 282.462 128.386C282.723 127.526 283.629 127.042 284.488 127.308C285.348 127.573 285.827 128.48 285.566 129.334C285.348 130.042 264.056 200.313 268.139 244.485C268.223 245.375 267.566 246.162 266.676 246.25C266.624 246.256 266.571 246.256 266.525 246.256Z" fill="black"/>
<path d="M256.384 244.36C255.499 244.36 254.775 243.651 254.759 242.766C253.207 157.615 236.478 133.245 236.311 133.011C235.79 132.281 235.957 131.266 236.681 130.745C237.405 130.224 238.415 130.386 238.941 131.104C239.655 132.094 256.431 156.209 258.004 242.703C258.02 243.604 257.311 244.339 256.41 244.36C256.4 244.36 256.395 244.36 256.384 244.36Z" fill="black"/>
<path d="M267.676 120.704C266.869 121.917 265.759 124.912 265.905 128.105C265.983 129.881 266.452 131.813 267.155 133.485C267.853 131.792 268.343 129.985 268.541 128.261C268.9 125.021 268.249 121.99 267.676 120.704ZM254.817 123.011C254.114 123.87 253.218 127.105 253.588 130.355C253.785 132.115 254.384 134 255.233 135.651C256.567 133.563 257.317 130.802 257.119 128.459C256.895 125.849 255.52 123.584 254.817 123.011ZM260.556 143.521C260.457 143.521 260.358 143.521 260.254 143.516C258.119 143.417 256.285 142.329 254.796 140.745C253.41 141.683 251.869 142.188 250.249 142.224C245.676 142.349 241.338 138.719 239.634 133.49C239.358 132.636 239.822 131.719 240.676 131.448C241.53 131.162 242.442 131.631 242.718 132.485C243.952 136.266 247.035 138.974 250.082 138.974C250.119 138.974 250.15 138.974 250.186 138.974C251.134 138.959 252.035 138.672 252.874 138.125C251.473 135.745 250.614 132.974 250.364 130.719C249.947 127.068 250.791 122.875 252.317 120.964C253.077 120.016 253.895 119.745 254.447 119.677C255.015 119.62 255.9 119.714 256.879 120.521C258.64 121.964 260.098 125.188 260.353 128.188C260.65 131.667 259.39 135.709 257.186 138.495C258.171 139.542 259.28 140.219 260.405 140.271C262.145 140.355 263.879 138.974 265.311 136.922C263.713 134.323 262.785 130.98 262.66 128.25C262.489 124.391 263.895 119.766 265.796 117.933C266.65 117.11 267.468 116.995 267.989 117.026C268.473 117.068 269.192 117.282 269.858 118.094C271.384 119.948 272.218 124.568 271.765 128.625C271.478 131.157 270.577 134.115 269.186 136.724C269.9 137.448 270.686 137.891 271.473 137.87C273.358 137.844 275.556 135.417 276.811 131.98C277.119 131.136 278.056 130.704 278.895 131.011C279.733 131.318 280.171 132.245 279.864 133.089C278.103 137.917 274.827 141.068 271.52 141.115C269.994 141.089 268.598 140.511 267.421 139.485C265.577 141.865 263.233 143.521 260.556 143.521Z" fill="black"/>
<path d="M284.591 89.6712C287.19 92.1973 290.122 94.3535 292.617 96.9889C295.299 99.8327 297.606 103.166 299.747 106.421C301.82 109.577 303.773 112.921 305.195 116.432C305.851 118.057 306.211 119.786 306.685 121.468C307.409 124.025 308.596 129.796 312.054 130.015C313.966 130.135 315.351 128.176 316.231 126.755C317.799 124.223 318.502 121.244 318.726 118.301C319.205 112.124 317.601 105.926 315.174 100.291C312.653 94.4525 309.106 88.9993 304.669 84.4316C302.836 82.5462 300.778 80.7233 298.534 79.1973C298.466 79.14 298.403 79.0879 298.336 79.0358C295.742 77.0879 292.888 75.0566 289.56 74.791C287.034 74.5931 284.31 75.3066 282.336 76.9368C277.523 80.9212 281.091 86.2702 284.591 89.6712Z" fill="#202124"/>
<path d="M278.832 76.4778C279.905 74.2538 279.551 70.4309 277.837 68.2851C277.821 68.2174 277.801 68.1497 277.759 68.0768C274.759 63.1549 267.17 64.358 266.077 70.1184C264.936 76.1497 275.53 83.3215 278.832 76.4778Z" fill="#202124"/>
<path d="M285.295 195.141C284.665 195.141 284.071 194.776 283.806 194.167C283.446 193.344 283.826 192.386 284.644 192.031C300.488 185.162 313.014 171.953 319.009 155.771C319.321 154.927 320.254 154.505 321.092 154.818C321.936 155.13 322.363 156.063 322.05 156.901C315.748 173.906 302.587 187.797 285.936 195.011C285.727 195.104 285.509 195.141 285.295 195.141Z" fill="black"/>
<path d="M211.374 179.36C210.931 179.36 210.493 179.183 210.176 178.829C198.853 166.485 192.613 150.448 192.613 133.677C192.613 107.881 207.03 84.8442 230.233 73.5525C231.04 73.1619 232.009 73.5004 232.4 74.3077C232.79 75.115 232.457 76.0785 231.65 76.4744C209.572 87.2139 195.858 109.136 195.858 133.677C195.858 149.636 201.796 164.891 212.566 176.641C213.171 177.302 213.129 178.323 212.467 178.933C212.155 179.219 211.764 179.36 211.374 179.36Z" fill="black"/>
<path d="M223.743 180.766C223.42 180.766 223.092 180.672 222.811 180.469C211.337 172.375 203.368 160.349 200.384 146.615C195.785 125.485 203.488 104.047 220.483 90.6618C221.186 90.1045 222.207 90.2347 222.764 90.9378C223.316 91.641 223.197 92.6618 222.493 93.2139C206.483 105.818 199.223 126.016 203.551 145.927C206.363 158.865 213.868 170.193 224.681 177.818C225.41 178.334 225.587 179.349 225.072 180.078C224.754 180.526 224.254 180.766 223.743 180.766Z" fill="black"/>
<path d="M249.483 271.907C241.79 271.907 236.493 271.089 236.004 271.011C235.124 270.865 234.519 270.037 234.66 269.152C234.801 268.266 235.634 267.662 236.519 267.808C236.785 267.85 263.087 271.891 284.676 261.495C285.483 261.105 286.452 261.443 286.842 262.251C287.228 263.058 286.889 264.032 286.082 264.417C273.379 270.532 259.431 271.907 249.483 271.907Z" fill="white"/>
<path d="M252.566 286.261C246.941 286.261 243.061 285.662 242.707 285.599C241.822 285.459 241.223 284.631 241.363 283.745C241.504 282.86 242.332 282.256 243.217 282.396C243.41 282.427 262.405 285.339 277.978 277.844C278.78 277.459 279.754 277.792 280.139 278.604C280.53 279.412 280.191 280.381 279.384 280.766C270.072 285.25 259.853 286.261 252.566 286.261Z" fill="white"/>
</svg>
