<svg width="794" height="791" viewBox="0 0 794 791" fill="none" xmlns="http://www.w3.org/2000/svg">
<path d="M653.715 216.153C631.47 133.039 709.688 82.3771 687.313 40.8771C649.84 -28.6437 358.642 -19.5187 173.329 147.085C144.293 173.19 -53.9105 357.58 15.7406 558.82C78.751 740.877 325.876 835.247 517.058 770.32C718.86 701.783 834.1 463.997 779.1 355.039C748.47 294.372 673.668 290.7 653.715 216.153Z" fill="#E8EAED"/>
<path d="M666.855 722.674C625.079 734.107 581.949 709.523 570.517 667.763C559.079 626.002 583.662 582.872 625.438 571.44C667.199 560.008 710.329 584.591 721.772 626.351C733.204 668.117 708.615 711.242 666.855 722.674ZM764.017 614.789V614.784C762.188 608.127 755.996 603.622 749.095 603.929L735.121 604.565C732.73 599.554 729.959 594.794 726.834 590.346L734.23 578.508C737.886 572.648 736.996 565.039 732.084 560.185C727.178 555.325 719.558 554.518 713.735 558.237L701.949 565.778C697.418 562.679 692.642 559.955 687.662 557.643L688.147 543.653C688.381 536.752 683.808 530.607 677.131 528.857C670.444 527.101 663.449 530.216 660.267 536.346L653.839 548.737C648.418 548.315 642.918 548.357 637.381 548.857L630.808 536.508C627.563 530.414 620.527 527.377 613.865 529.205C607.204 531.028 602.699 537.221 603.006 544.117L603.642 558.091C598.626 560.482 593.871 563.252 589.418 566.372L577.579 558.987C571.72 555.33 564.11 556.216 559.251 561.127C554.397 566.034 553.589 573.659 557.313 579.476L564.855 591.263C561.746 595.789 559.022 600.565 556.709 605.544L542.72 605.06C535.819 604.82 529.673 609.398 527.918 616.075C526.173 622.758 529.277 629.758 535.412 632.935L547.808 639.357C547.381 644.784 547.428 650.284 547.928 655.815L535.574 662.388C529.48 665.633 526.438 672.669 528.267 679.33C530.095 685.992 536.287 690.497 543.183 690.185L557.162 689.544C559.553 694.565 562.319 699.32 565.444 703.768L558.058 715.612C554.397 721.466 555.287 729.075 560.194 733.929V733.935C565.11 738.789 572.725 739.596 578.548 735.877L590.339 728.336C594.865 731.44 599.642 734.159 604.615 736.476L604.136 750.461C603.897 757.362 608.475 763.508 615.157 765.263C621.834 767.013 628.839 763.898 632.022 757.768L638.444 745.377C643.86 745.804 649.365 745.758 654.902 745.263L661.475 757.607C664.72 763.7 671.756 766.737 678.412 764.914C685.074 763.091 689.589 756.893 689.277 749.997L688.636 736.023C693.652 733.633 698.412 730.867 702.866 727.742L714.704 735.133C720.563 738.789 728.173 737.898 733.032 732.987C737.886 728.08 738.694 720.461 734.97 714.643L727.433 702.851C730.537 698.325 733.261 693.554 735.574 688.57L749.563 689.06C756.464 689.294 762.61 684.716 764.366 678.039C766.11 671.357 763.001 664.357 756.876 661.179L744.475 654.758C744.907 649.336 744.86 643.83 744.36 638.299L756.709 631.726C762.803 628.482 765.839 621.445 764.017 614.789Z" fill="#4880FF"/>
<path d="M353.9 75.8917L353.9 75.8936C355.116 80.3449 353.085 85.0548 349.011 87.2178L342.879 90.4823C343.068 93.0308 343.089 95.5671 342.935 98.0778L349.086 101.269C353.189 103.394 355.264 108.069 354.098 112.537L354.097 112.538C352.93 117.005 348.815 120.062 344.204 119.902L344.203 119.902L337.252 119.661C336.148 121.941 334.892 124.138 333.502 126.247L337.243 132.105C339.73 135.993 339.19 141.09 335.947 144.369C332.7 147.654 327.609 148.251 323.696 145.806C323.696 145.806 323.695 145.806 323.695 145.806L317.813 142.135C315.73 143.546 313.538 144.82 311.252 145.956L311.566 152.896C311.782 157.513 308.757 161.645 304.309 162.865L304.308 162.866C299.85 164.088 295.146 162.055 292.978 157.983L292.978 157.983L289.717 151.852C287.17 152.035 284.634 152.059 282.119 151.91L278.931 158.057C276.807 162.158 272.128 164.24 267.657 163.068C263.191 161.901 260.133 157.785 260.293 153.174L260.53 146.226C258.254 145.119 256.054 143.864 253.944 142.473L248.09 146.219L248.089 146.22C244.197 148.706 239.1 148.166 235.82 144.917C232.535 141.673 231.941 136.583 234.384 132.667L234.384 132.666L238.055 126.788C236.644 124.705 235.373 122.512 234.235 120.228L227.297 120.542L227.297 120.542C222.686 120.751 218.541 117.737 217.319 113.285L217.319 113.283C216.103 108.832 218.129 104.127 222.208 101.959L228.341 98.6942C228.152 96.1466 228.131 93.6139 228.284 91.1042L222.128 87.9121L222.127 87.9119C218.032 85.7876 215.949 81.1088 217.122 76.6432C218.29 72.1716 222.405 69.1144 227.016 69.274L233.965 69.5113C235.07 67.2399 236.323 65.0406 237.717 62.9293L233.971 57.0708L233.971 57.0702C231.484 53.1772 232.025 48.0916 235.272 44.807L235.273 44.806C238.521 41.5274 243.606 40.9314 247.523 43.3754C247.523 43.3754 247.523 43.3754 247.523 43.3755L253.403 47.0428C255.488 45.6359 257.681 44.3619 259.968 43.2256L259.653 36.289L259.653 36.2888C259.444 31.6715 262.459 27.5328 266.911 26.311L266.912 26.3105C271.363 25.095 276.067 27.1203 278.236 31.1981L353.9 75.8917ZM353.9 75.8917C352.678 71.4383 348.533 68.4314 343.924 68.6339L343.921 68.6341L336.98 68.9533C335.845 66.6643 334.571 64.4722 333.164 62.3932L336.835 56.51L336.836 56.5083C339.272 52.5935 338.686 47.5035 335.399 44.2586C332.113 41.0095 327.022 40.4763 323.13 42.9622L323.13 42.9625L317.272 46.708C315.164 45.3134 312.962 44.0579 310.689 42.9549L310.927 36.0073C311.086 31.3901 308.028 27.2817 303.564 26.1088L303.376 26.0596H303.362C298.957 25.0023 294.382 27.0827 292.289 31.1189L289.096 37.2716C286.587 37.121 284.051 37.1389 281.501 37.3273L278.236 31.1992L353.9 75.8917ZM296.954 136.019L296.953 136.019C274.07 142.285 250.437 128.817 244.171 105.934C237.905 83.0511 251.378 59.423 274.261 53.1574C297.15 46.8968 320.778 60.3595 327.048 83.2425C333.314 106.126 319.842 129.759 296.954 136.019Z" fill="white" stroke="#202124" stroke-width="3"/>
<path d="M678.729 507.679L534.308 376.439L757.985 283.268L678.729 507.679Z" fill="#232323"/>
<path d="M648.313 397.409C631.266 381.086 603.891 381.341 587.167 397.976L409.933 574.294L284.167 575.987C272.766 576.148 261.886 580.69 253.902 588.638L136.021 705.903C134.803 707.117 133.683 708.388 132.646 709.7C156.266 726.763 182.162 741.367 209.548 753.289L303.167 660.153L428.928 658.461C440.334 658.304 451.209 653.763 459.199 645.815L648.902 457.096C665.62 440.455 665.365 413.731 648.313 397.409Z" fill="#232323"/>
<path d="M11.8233 322.215L469.183 148.08L145.662 577.439C145.662 577.439 6.71391 539.304 37.2816 456.669C67.8493 374.033 65.8233 367.429 43.7295 367.59C21.9066 367.752 9.53683 356.757 3.19828 344.523C-1.19755 336.038 2.89099 325.611 11.8233 322.215Z" fill="white"/>
<path d="M109.73 286.372C109.157 286.372 108.611 286.018 108.397 285.45C108.116 284.705 108.486 283.882 109.22 283.601L235.329 235.585C236.069 235.304 236.897 235.679 237.178 236.413C237.459 237.153 237.084 237.981 236.35 238.262L110.241 286.278C110.074 286.34 109.902 286.372 109.73 286.372Z" fill="black"/>
<path d="M26.6153 318.018C26.0372 318.018 25.4903 317.664 25.2768 317.096C24.9955 316.356 25.3653 315.528 26.1049 315.247L48.7351 306.632C49.4695 306.351 50.2976 306.721 50.5789 307.46C50.8601 308.2 50.4903 309.023 49.7508 309.304L27.1205 317.924C26.9539 317.986 26.782 318.018 26.6153 318.018Z" fill="black"/>
<path d="M26.6154 366.445C26.4591 366.445 26.3029 366.424 26.1518 366.367C15.6258 362.783 7.25078 355.461 1.92786 345.185C-0.332556 340.82 -0.619015 335.669 1.1414 331.044C2.92786 326.362 6.63619 322.664 11.3185 320.877L26.1049 315.247C26.8445 314.966 27.6674 315.336 27.9487 316.075C28.2299 316.815 27.8602 317.643 27.1206 317.924L12.3341 323.554C8.41744 325.044 5.31328 328.148 3.81328 332.065C2.34453 335.924 2.58411 340.226 4.46953 343.872C7.93828 350.565 14.6779 359.435 27.0737 363.664C27.8237 363.919 28.2195 364.731 27.9695 365.476C27.7664 366.075 27.2091 366.445 26.6154 366.445Z" fill="black"/>
<path d="M37.2817 458.101C37.1151 458.101 36.9484 458.075 36.787 458.012C36.0422 457.736 35.6672 456.913 35.9432 456.174C54.6255 405.658 62.5734 380.278 57.2088 372.632C55.0526 369.559 50.4588 368.971 43.7401 369.023C42.9536 369.018 42.3026 368.398 42.2974 367.606C42.2922 366.815 42.9276 366.169 43.7192 366.163C51.3547 366.101 56.6776 366.893 59.5526 370.986C65.1828 379.007 60.6828 397.533 38.6255 457.169C38.412 457.747 37.8651 458.101 37.2817 458.101Z" fill="black"/>
<path d="M89.2663 340.117C88.7351 340.117 88.2195 339.82 87.9799 339.304C87.6361 338.596 87.9382 337.742 88.6518 337.398L222.121 273.559C222.829 273.221 223.688 273.523 224.027 274.231C224.371 274.945 224.068 275.799 223.355 276.143L89.8861 339.981C89.6882 340.075 89.4747 340.117 89.2663 340.117Z" fill="black"/>
<path d="M428.25 322.492C428.969 322.789 429.589 323.252 430.094 323.846C440.261 335.846 453.256 353.955 463.282 378.383C475.235 407.497 478.099 433.716 478.516 451.273C478.568 453.461 476.881 454.81 475.131 456.122C450.599 474.56 403.099 493.315 365.302 506.112C327.724 518.836 286.589 519.961 249.011 532.685C246.542 533.523 243.839 532.315 242.818 529.914C239.162 521.304 235.511 512.695 231.855 504.086C231.068 502.232 231.469 500.096 232.875 498.653C249.985 481.08 283.662 451.95 334.235 438.612C351.756 433.992 367.917 432.164 381.808 431.742C386.021 431.612 388.172 426.622 385.375 423.455L354.823 388.82C353.063 386.82 353.214 383.784 355.157 381.961C355.172 381.945 355.188 381.935 355.204 381.919C389.474 349.789 394.542 323.403 414.026 320.461C417.167 319.987 421.964 319.924 428.25 322.492Z" fill="black"/>
<path d="M130.886 626.559L96.027 678.773L80.8135 654.299L111.699 603.111L130.886 626.559Z" fill="white"/>
<path d="M82.4906 654.289L96.0687 676.132L129.11 626.648L111.876 605.586L82.4906 654.289ZM96.027 680.205C96.0166 680.205 96.0114 680.205 96.001 680.205C95.5166 680.2 95.0687 679.945 94.8083 679.528L79.6 655.054C79.3135 654.601 79.3135 654.023 79.5895 653.56L110.475 602.372C110.715 601.971 111.131 601.716 111.6 601.685C112.063 601.648 112.511 601.841 112.808 602.2L131.996 625.653C132.392 626.138 132.428 626.83 132.079 627.356L97.2145 679.57C96.9489 679.966 96.5062 680.205 96.027 680.205Z" fill="black"/>
<path d="M106.498 670.733L106.498 670.733C101.819 678.882 93.5928 692.818 83.8755 706.99C74.1464 721.179 62.9701 735.532 52.3977 744.565C47.7663 748.52 40.592 746.026 39.4513 740.064L38.4692 740.252L39.4513 740.064C34.8838 716.194 34.1593 667.223 59.6566 630.365C59.6567 630.365 59.6568 630.365 59.6569 630.365C59.9903 630.361 60.4945 630.361 61.1657 630.378C62.5081 630.411 64.5187 630.51 67.1679 630.775C72.2885 631.287 79.7962 632.417 89.4774 634.885L83.8322 652.98L83.0383 655.525L85.3101 654.13L87.982 652.49C91.6106 650.262 96.2874 650.797 99.3194 653.782C99.3195 653.782 99.3196 653.782 99.3197 653.782L104.934 659.313L104.934 659.314C107.991 662.323 108.636 667.013 106.498 670.733Z" fill="#4880FF" stroke="black" stroke-width="2"/>
<path d="M50.2664 739.471C49.6518 739.471 49.0841 739.07 48.8966 738.45C34.105 689.294 62.3914 634.794 62.6831 634.247C63.0477 633.544 63.9175 633.284 64.6154 633.648C65.3133 634.018 65.5789 634.883 65.2143 635.581C64.9331 636.112 37.1883 689.607 51.6362 737.622C51.8654 738.383 51.4331 739.179 50.6779 739.409C50.5425 739.45 50.4018 739.471 50.2664 739.471Z" fill="white"/>
<path d="M93.6676 695.372C93.3707 695.372 93.0686 695.278 92.8082 695.085L77.9748 683.929C77.3394 683.45 77.2144 682.554 77.6884 681.924C78.1676 681.289 79.0582 681.164 79.6936 681.643L94.5321 692.799C95.1623 693.273 95.2873 694.174 94.8134 694.804C94.5321 695.174 94.1051 695.372 93.6676 695.372Z" fill="white"/>
<path d="M84.9377 708.632C84.6043 708.632 84.2658 708.518 83.9898 708.273L70.5106 696.351C69.9168 695.83 69.8595 694.924 70.3856 694.33C70.9064 693.737 71.8127 693.684 72.4064 694.205L85.8908 706.127C86.4793 706.653 86.5366 707.559 86.0106 708.148C85.7293 708.466 85.3335 708.632 84.9377 708.632Z" fill="white"/>
<path d="M102.381 609.731L131.99 636.335L442.584 331.559C442.584 331.559 377.261 278.127 307.74 316.788C307.74 316.788 244.495 373.669 226.053 428.143C207.61 482.616 176.594 472.533 153.136 510.294C129.678 548.054 102.381 609.731 102.381 609.731Z" fill="black"/>
<path d="M309.563 463.518C309.188 463.518 308.824 463.377 308.542 463.09C307.985 462.528 307.996 461.622 308.563 461.07L394.292 376.939C394.855 376.387 395.761 376.398 396.313 376.96C396.865 377.528 396.86 378.429 396.292 378.986L310.563 463.106C310.287 463.382 309.923 463.518 309.563 463.518Z" fill="#D1D1D1"/>
<path d="M276.267 496.195C275.897 496.195 275.522 496.049 275.241 495.767C274.689 495.2 274.699 494.294 275.261 493.741L289.402 479.861C289.97 479.309 290.876 479.32 291.433 479.882C291.98 480.45 291.975 481.356 291.407 481.908L277.267 495.783C276.991 496.059 276.626 496.195 276.267 496.195Z" fill="#D1D1D1"/>
<path d="M131.99 637.768C131.62 637.768 131.25 637.627 130.969 637.341C130.417 636.778 130.422 635.867 130.99 635.315L267.396 501.466C267.959 500.909 268.865 500.919 269.417 501.482C269.969 502.049 269.964 502.95 269.401 503.508L132.995 637.357C132.714 637.633 132.355 637.768 131.99 637.768Z" fill="#D1D1D1"/>
<path d="M715.933 75.8978C715.933 75.8978 726.485 62.7936 739.511 55.6842C752.543 48.5801 785.621 33.4863 785.621 33.4863C785.621 33.4863 789.605 39.5697 785.345 44.3509C781.084 49.1322 756.98 67.6426 755.881 69.4082C754.787 71.1634 744.996 81.2988 733.037 83.0697C721.069 84.8457 713.063 96.028 713.063 96.028L715.933 75.8978Z" fill="white"/>
<path d="M717.292 76.5023L715.167 91.4242C718.693 87.8356 724.891 82.8356 732.818 81.6585C744.667 79.9085 753.985 69.7471 754.662 68.6533C755.225 67.7471 758.344 65.1742 766.454 58.5856C773.381 52.9554 781.995 45.9606 784.266 43.4085C786.813 40.5544 785.771 37.0856 784.99 35.3512C778.886 38.1481 751.615 50.7158 740.193 56.945C728.652 63.2419 718.938 74.5283 717.292 76.5023ZM710.818 101.632L714.568 75.3096L714.818 75.0075C715.261 74.4606 725.693 61.5908 738.824 54.4346C751.745 47.3877 784.693 32.3408 785.016 32.195L786.136 31.6846L786.813 32.7106C788.396 35.1273 790.35 40.8773 786.407 45.3044C783.98 48.0335 775.626 54.82 768.261 60.8044C763.308 64.8304 757.688 69.3929 757.068 70.2054C755.589 72.5856 745.391 82.6898 733.24 84.4919C722.006 86.1533 714.303 96.7679 714.23 96.8721L710.818 101.632Z" fill="black"/>
<path d="M744.568 67.7415C743.98 67.7415 743.417 67.3665 743.214 66.7675C742.964 66.0175 743.37 65.205 744.115 64.955C749.829 63.0175 751.568 60.9082 753.402 58.6686C754.766 57.0071 756.183 55.2936 759.037 53.6686C761.042 52.5384 762.277 51.528 763.042 50.6998L738.402 58.4498C737.646 58.6946 736.839 58.2727 736.605 57.5175C736.37 56.7623 736.782 55.9655 737.537 55.7207L765.287 46.9967C765.678 46.8769 766.11 46.9238 766.454 47.1373C766.813 47.3561 767.053 47.7102 767.126 48.1165C767.24 48.7675 767.443 52.205 760.449 56.1634C758.047 57.5175 756.87 58.9602 755.615 60.4863C753.605 62.9394 751.521 65.4707 745.027 67.6686C744.876 67.7155 744.725 67.7415 744.568 67.7415Z" fill="black"/>
<path d="M457.803 353.257C457.803 353.257 459.871 332.679 486.204 316.033C518.772 295.455 553.084 274.955 565.704 233.528C565.704 233.528 590.944 224.513 643.314 183.835C695.678 143.169 700.366 129.632 726.345 105.898L718.407 70.1948C718.407 70.1948 582.59 150.861 565.168 156.075C547.751 161.289 503.668 161.856 458.006 139.2C438.595 129.565 384.303 183.992 384.303 183.992C384.303 183.992 388.548 220.731 378.501 232.315C368.459 243.898 302.423 289.877 303.204 307.554C303.985 325.221 356.501 379.763 457.803 353.257Z" fill="#4880FF"/>
<path d="M215.813 324.429L206.407 322.502C203.866 321.976 201.381 323.612 200.86 326.158L219.475 329.971C219.996 327.429 218.355 324.945 215.813 324.429Z" fill="#FFC700"/>
<path d="M291.22 339.888L281.813 337.96C279.267 337.434 276.787 339.075 276.267 341.612L294.881 345.434C295.397 342.893 293.761 340.403 291.22 339.888Z" fill="#FFC700"/>
<path d="M288.813 339.138L292.178 330.44C294.563 324.273 291.319 318.216 284.928 316.903L228.511 305.341C222.126 304.034 215.017 307.971 212.631 314.133L209.267 322.825L213.584 323.716L216.199 316.945C218.058 312.148 223.595 309.086 228.563 310.101L281.475 320.95C286.444 321.966 288.97 326.685 287.11 331.482L284.496 338.247L288.813 339.138Z" fill="black"/>
<path d="M282.891 312.601L233.333 302.445C231.339 302.039 229.115 303.268 228.365 305.195L226.75 309.372C226.005 311.299 227.021 313.195 229.016 313.606L278.573 323.762C280.573 324.179 282.797 322.94 283.542 321.018L285.156 316.835C285.901 314.908 284.891 313.012 282.891 312.601Z" fill="#232323"/>
<path d="M275.167 486.273L130.261 456.565C121.563 454.783 116.688 445.466 120.193 437.304L164.089 334.961C167.776 326.356 177.011 321.528 186.188 323.403L310.48 348.888L275.167 486.273Z" fill="#202124"/>
<path d="M293.719 490.075L265.6 484.31C256.902 482.528 252.032 473.211 255.532 465.054L303.881 352.325C304.98 349.763 307.73 348.325 310.459 348.882L317.693 350.367C320.693 350.981 322.714 353.794 322.344 356.83L307.355 480.263C306.553 486.888 300.256 491.414 293.719 490.075Z" fill="#FFC700"/>
<path d="M294.006 488.674C296.777 489.242 299.563 488.643 301.855 486.997C304.147 485.346 305.594 482.898 305.933 480.096L320.923 356.658C321.204 354.377 319.657 352.231 317.402 351.768L310.173 350.283C308.115 349.861 306.027 350.96 305.193 352.887L256.844 465.617C255.35 469.106 255.495 473.044 257.261 476.408C259.022 479.778 262.162 482.148 265.891 482.908L294.006 488.674ZM296.006 491.736C295.147 491.736 294.287 491.653 293.438 491.476L265.313 485.71C260.745 484.773 256.886 481.867 254.725 477.731C252.563 473.601 252.376 468.773 254.214 464.486L302.563 351.762C303.923 348.585 307.365 346.788 310.751 347.481L317.98 348.96C321.678 349.726 324.219 353.252 323.766 357.007L308.777 480.434C308.339 483.992 306.433 487.226 303.527 489.32C301.324 490.903 298.683 491.736 296.006 491.736Z" fill="black"/>
<path d="M271.313 399.601C270.719 399.601 270.115 399.538 269.516 399.419L156.058 376.158C155.282 375.997 154.782 375.247 154.943 374.466C155.1 373.7 155.855 373.195 156.631 373.356L270.089 396.611C272.818 397.174 275.537 395.804 276.709 393.278L295.37 353.117C295.704 352.398 296.553 352.085 297.272 352.419C297.985 352.752 298.298 353.606 297.964 354.32L279.308 394.481C277.834 397.658 274.699 399.601 271.313 399.601Z" fill="black"/>
<path d="M228.595 390.549L222.787 402.716C221.829 404.778 219.579 405.914 217.35 405.455L194.876 400.846C192.433 400.346 191.136 397.653 192.277 395.429L197.991 384.273L228.595 390.549Z" fill="white"/>
<path d="M198.772 385.893L193.548 396.08C193.214 396.737 193.204 397.502 193.522 398.169C193.844 398.83 194.443 399.299 195.167 399.445L217.636 404.054C219.219 404.377 220.808 403.58 221.49 402.112L226.516 391.586L198.772 385.893ZM218.35 406.992C217.928 406.992 217.496 406.945 217.063 406.856L194.589 402.252C192.98 401.924 191.652 400.883 190.943 399.403C190.23 397.924 190.251 396.237 191.001 394.778L196.719 383.622C197.011 383.054 197.652 382.742 198.282 382.872L228.881 389.148C229.313 389.237 229.678 389.518 229.876 389.914C230.068 390.304 230.074 390.768 229.886 391.164L224.079 403.33C223.027 405.596 220.777 406.992 218.35 406.992Z" fill="black"/>
<path d="M247.276 470.799C247.177 470.799 247.084 470.789 246.985 470.768L126.453 446.06C125.677 445.898 125.177 445.143 125.339 444.372C125.495 443.596 126.25 443.096 127.026 443.252L247.558 467.966C248.334 468.122 248.834 468.882 248.677 469.653C248.537 470.33 247.938 470.799 247.276 470.799Z" fill="#E8EAED"/>
<path d="M257.943 271.763L240.183 293.643C240.183 293.643 235.516 308.596 236.667 314.612C237.813 320.632 254.24 326.929 266.282 321.242C266.282 321.242 259.802 312.685 261.839 308.289L273.354 305.091L268.729 287.846L273.354 276.742L257.943 271.763Z" fill="white"/>
<path d="M241.47 294.33C240.157 298.606 237.204 309.794 238.074 314.346C238.365 315.898 240.267 317.7 243.147 319.164C248.548 321.908 256.902 323.299 264.089 320.617C262.188 317.763 258.699 311.658 260.543 307.684L260.824 307.085L271.605 304.091L267.225 287.742L271.433 277.627L258.438 273.424L241.47 294.33ZM255.714 324.903C250.548 324.903 245.563 323.601 241.85 321.716C238.074 319.794 235.735 317.367 235.261 314.882C234.058 308.58 238.621 293.841 238.819 293.221L238.902 292.955L257.454 270.101L275.272 275.861L270.235 287.945L275.1 306.091L262.949 309.466C262.345 312.299 265.272 317.544 267.423 320.382L268.49 321.783L266.892 322.539C263.355 324.21 259.485 324.903 255.714 324.903Z" fill="black"/>
<path d="M469.178 148.085C469.178 148.085 464.652 135.658 424.527 131.096C384.412 126.533 358.85 153.919 348.657 159.658C338.459 165.393 295.923 180.851 279.688 205.247C263.454 229.632 242.303 274.419 242.303 274.419L279.6 283.429C279.6 283.429 318.209 233.273 363.48 216.106C408.745 198.939 469.162 182.434 469.178 148.085Z" fill="#4880FF"/>
<path d="M385.016 206.794C385.318 206.794 385.615 206.887 385.865 207.07C386.25 207.356 386.469 207.82 386.443 208.294C385.797 220.346 383.495 228.742 379.584 233.247C376.48 236.825 368.542 243.304 358.485 251.507C336.839 269.163 304.12 295.846 304.636 307.486C304.896 313.429 311.823 324.716 326.422 335.476C341.61 346.674 384.604 370.627 456.526 352.106C457.302 347.674 461.813 329.768 485.443 314.82L488.693 312.768C519.964 293.044 552.292 272.648 564.339 233.111C564.469 232.679 564.797 232.335 565.224 232.184C565.474 232.091 590.938 222.705 642.438 182.71C676.688 156.106 690.183 141.476 703.229 127.325C709.844 120.148 716.099 113.361 724.771 105.398L717.443 72.4343C701.016 82.1739 582.115 152.497 565.589 157.445C547.016 162.997 502.886 163.064 457.37 140.476C457.089 140.335 456.766 140.205 456.365 140.064C456.334 140.054 456.292 140.038 456.261 140.023C448.36 136.549 437.631 134.018 424.365 132.512C392.474 128.882 370.276 145.564 357.016 155.523C353.875 157.887 351.386 159.762 349.36 160.898C347.287 162.059 344.006 163.58 339.849 165.497C323.714 172.945 293.677 186.804 280.886 206.033C266.61 227.476 248.276 265.252 244.354 273.434L279.047 281.82C284.063 275.528 320.844 230.742 362.974 214.768C369.042 212.466 375.24 210.226 381.808 207.856L384.526 206.877C384.683 206.814 384.849 206.794 385.016 206.794ZM405.459 361.83C395.594 361.83 386.026 360.997 376.802 359.335C351.808 354.83 334.688 345.127 324.724 337.783C309.287 326.398 302.073 314.429 301.776 307.606C301.193 294.538 333.261 268.382 356.677 249.283C366.23 241.497 374.485 234.762 377.422 231.372C380.631 227.674 382.698 220.413 383.443 210.304L382.776 210.544C376.224 212.913 370.032 215.148 363.99 217.439C319.61 234.268 281.12 283.799 280.735 284.294C280.391 284.747 279.818 284.95 279.266 284.814L241.969 275.804C241.547 275.7 241.198 275.413 241.011 275.028C240.828 274.643 240.823 274.189 241.011 273.799C241.219 273.351 262.391 228.643 278.5 204.45C291.745 184.549 322.261 170.466 338.651 162.903C342.75 161.007 345.99 159.512 347.953 158.408C349.818 157.356 352.235 155.538 355.297 153.236C368.006 143.684 391.657 125.908 424.693 129.669C438.214 131.205 449.209 133.799 457.36 137.387C457.86 137.554 458.266 137.726 458.646 137.913C503.417 160.132 546.636 160.127 564.766 154.7C581.813 149.596 716.328 69.7676 717.683 68.9655C718.078 68.7311 718.558 68.6999 718.979 68.8822C719.401 69.0645 719.709 69.4395 719.808 69.8822L727.75 105.58C727.854 106.08 727.693 106.606 727.313 106.95C718.417 115.08 712.063 121.966 705.334 129.262C692.818 142.835 678.631 158.221 644.188 184.966C596.287 222.174 571.282 232.882 566.865 234.617C554.354 274.731 521.761 295.294 490.224 315.189L486.974 317.242C461.615 333.273 459.25 353.2 459.229 353.403C459.162 353.997 458.745 354.497 458.167 354.637C439.86 359.429 422.224 361.83 405.459 361.83Z" fill="black"/>
<path d="M569.396 225.648C569.193 225.648 568.985 225.606 568.782 225.513C568.073 225.179 567.766 224.325 568.099 223.606C577.808 203.013 593.501 191.242 594.162 190.752C594.803 190.283 595.693 190.414 596.167 191.049C596.636 191.685 596.501 192.58 595.865 193.049C595.709 193.164 580.079 204.908 570.688 224.825C570.443 225.346 569.933 225.648 569.396 225.648Z" fill="black"/>
<path d="M397.907 204.934C397.313 204.934 396.761 204.57 396.553 203.976C396.292 203.231 396.688 202.419 397.433 202.158C397.714 202.054 425.792 192.205 437.855 184.502C438.516 184.075 439.407 184.268 439.834 184.934C440.256 185.601 440.063 186.486 439.396 186.913C427.048 194.799 399.542 204.45 398.376 204.856C398.219 204.913 398.063 204.934 397.907 204.934Z" fill="black"/>
<path d="M521.501 117.69L513.501 119.023C513.501 119.023 504.558 113.263 498.824 103.966C493.1 94.6638 480.719 82.9138 503.969 72.8565C527.225 62.794 531.985 59.4919 536.621 52.294C541.266 45.1065 552.272 34.5231 563.053 43.2992C573.834 52.0648 566.006 69.445 566.006 69.445C566.006 69.445 574.209 70.0492 571.219 77.044C568.23 84.044 521.501 117.69 521.501 117.69Z" fill="black"/>
<path d="M567.194 102.315C567.407 101.976 567.319 101.533 566.996 101.299C561.397 97.2 557.183 91.4761 554.938 84.8979C552.892 78.9032 551.428 74.6792 551.428 74.6792C543.251 98.0698 511.178 85.9865 512.933 90.1323C514.688 94.2782 510.465 108.169 510.465 108.169C497.121 123.164 485.053 132.674 463.985 142.033C498.147 185.71 520.944 167.83 520.944 167.83L535.162 139.158C549.537 138.658 568.537 129.601 567.579 124.283C567.241 122.429 565.678 117.309 563.657 111.023C563.22 109.664 563.412 108.184 564.178 106.986L567.194 102.315Z" fill="white"/>
<path d="M466.245 142.586C482.766 163.19 496.282 168.784 504.782 169.815C513.339 170.856 518.662 167.659 519.828 166.872L534.261 137.757L535.115 137.726C546.792 137.32 561.516 131.106 565.391 126.31C565.959 125.596 566.24 124.955 566.167 124.539C565.969 123.435 565.136 120.273 562.292 111.461C561.724 109.69 561.974 107.778 562.974 106.211L565.646 102.07C560.026 97.8096 555.865 92.0439 553.578 85.3564C552.667 82.6898 551.881 80.3773 551.282 78.6325C543.969 92.5908 526.948 91.3877 518.459 90.7835C517.047 90.6898 515.5 90.5752 514.563 90.596C515.641 95.7835 512.25 107.211 511.834 108.58L511.74 108.882L511.526 109.117C497.615 124.763 485.198 133.966 466.245 142.586ZM508.146 172.882C506.979 172.882 505.74 172.81 504.443 172.659C491.006 171.023 477.016 161.013 462.86 142.914L461.729 141.471L463.401 140.726C483.058 131.997 495.068 123.268 509.183 107.45C510.745 102.226 512.724 93.3044 511.615 90.6898C511.328 90.0075 511.386 89.2992 511.771 88.7523C512.662 87.5075 514.547 87.6429 518.657 87.9294C527.74 88.5752 544.641 89.7679 550.078 74.2106L551.438 70.3252L552.787 74.2106C552.787 74.2106 554.245 78.4346 556.292 84.4346C558.453 90.7627 562.443 96.195 567.839 100.143C568.771 100.825 569.016 102.117 568.396 103.086L565.386 107.757C564.844 108.601 564.709 109.627 565.016 110.58C567.365 117.877 568.667 122.278 568.985 124.034C569.219 125.315 568.756 126.69 567.615 128.106C562.974 133.856 547.589 139.877 536.073 140.544L522.084 168.752L521.828 168.955C521.599 169.138 516.709 172.882 508.146 172.882Z" fill="black"/>
<path d="M518.641 124.669C518.501 124.669 518.355 124.653 518.214 124.606C513.193 123.044 509.646 120.205 508.235 116.606C507.1 113.716 507.438 110.554 509.219 107.46C509.704 106.617 511.172 104.049 513.422 104.45C516.073 104.924 517.084 109.299 517.396 111.158C517.532 111.934 517.011 112.674 516.225 112.804C515.454 112.934 514.709 112.408 514.573 111.632C514.256 109.731 513.485 107.7 512.954 107.299C512.792 107.393 512.36 107.736 511.704 108.882C510.355 111.231 510.079 113.476 510.902 115.554C511.975 118.288 514.948 120.596 519.063 121.872C519.818 122.106 520.24 122.908 520.011 123.663C519.818 124.278 519.251 124.669 518.641 124.669Z" fill="black"/>
<path d="M535.167 140.585C535.152 140.585 535.136 140.585 535.115 140.585C524.105 140.226 521.818 132.554 521.725 132.226C521.511 131.466 521.954 130.674 522.714 130.46C523.469 130.247 524.256 130.684 524.48 131.44C524.563 131.716 526.391 137.44 535.214 137.721C535.995 137.752 536.62 138.413 536.594 139.2C536.574 139.971 535.933 140.585 535.167 140.585Z" fill="black"/>
<path d="M584.871 604.83C584.485 604.83 584.11 604.679 583.829 604.387C583.282 603.809 583.313 602.903 583.881 602.361L595.782 591.091C596.355 590.549 597.261 590.575 597.808 591.148C598.35 591.716 598.324 592.622 597.751 593.169L585.855 604.44C585.574 604.7 585.22 604.83 584.871 604.83Z" fill="black"/>
<path d="M584.871 604.83C584.485 604.83 584.11 604.679 583.829 604.387C583.282 603.809 583.313 602.903 583.881 602.361L595.782 591.091C596.355 590.549 597.261 590.575 597.808 591.148C598.35 591.716 598.324 592.622 597.751 593.169L585.855 604.44C585.574 604.7 585.22 604.83 584.871 604.83Z" fill="black"/>
<path d="M463.063 712.554H376.683C375.896 712.554 375.256 711.914 375.256 711.122C375.256 710.336 375.896 709.695 376.683 709.695H463.063C467.896 709.695 472.49 707.862 476.001 704.539L558.094 626.783C558.673 626.242 559.579 626.268 560.12 626.841C560.662 627.414 560.636 628.32 560.068 628.867L477.969 706.617C473.928 710.445 468.631 712.554 463.063 712.554Z" fill="black"/>
<path d="M534.214 604.929C533.844 604.929 533.469 604.783 533.188 604.497C532.641 603.929 532.651 603.023 533.219 602.476L646.104 492.69C646.677 492.138 647.583 492.148 648.136 492.716C648.682 493.283 648.667 494.19 648.104 494.742L535.214 604.523C534.938 604.794 534.578 604.929 534.214 604.929Z" fill="black"/>
<path d="M500.438 637.773C500.069 637.773 499.694 637.632 499.412 637.341C498.865 636.773 498.876 635.867 499.444 635.315L508.204 626.799C508.772 626.247 509.678 626.263 510.225 626.825C510.777 627.393 510.761 628.294 510.199 628.851L501.438 637.367C501.162 637.638 500.798 637.773 500.438 637.773Z" fill="black"/>
<path d="M355.568 717.242C351.521 717.242 348.229 713.95 348.229 709.903C348.229 709.111 348.87 708.471 349.657 708.471C350.448 708.471 351.089 709.111 351.089 709.903C351.089 712.372 353.094 714.382 355.568 714.382C358.037 714.382 360.047 712.372 360.047 709.903C360.047 707.434 358.037 705.429 355.568 705.429C354.776 705.429 354.136 704.783 354.136 703.997C354.136 703.205 354.776 702.564 355.568 702.564C359.615 702.564 362.901 705.856 362.901 709.903C362.901 713.95 359.615 717.242 355.568 717.242Z" fill="black"/>
<path d="M613.527 282.32C612.741 282.32 612.095 281.679 612.095 280.888V273.492C612.095 272.7 612.741 272.054 613.527 272.054C614.313 272.054 614.954 272.7 614.954 273.492V280.888C614.954 281.679 614.313 282.32 613.527 282.32Z" fill="black"/>
<path d="M613.527 299.56C612.741 299.56 612.095 298.914 612.095 298.122V290.726C612.095 289.935 612.741 289.294 613.527 289.294C614.313 289.294 614.954 289.935 614.954 290.726V298.122C614.954 298.914 614.313 299.56 613.527 299.56Z" fill="black"/>
<path d="M608.6 287.242H601.204C600.412 287.242 599.767 286.601 599.767 285.815C599.767 285.023 600.412 284.382 601.204 284.382H608.6C609.392 284.382 610.032 285.023 610.032 285.815C610.032 286.601 609.392 287.242 608.6 287.242Z" fill="black"/>
<path d="M625.839 287.242H618.443C617.646 287.242 617.011 286.601 617.011 285.809C617.011 285.023 617.646 284.382 618.443 284.382H625.839C626.631 284.382 627.271 285.023 627.271 285.809C627.271 286.601 626.631 287.242 625.839 287.242Z" fill="black"/>
<path d="M177.485 191.195C176.698 191.195 176.058 190.554 176.058 189.763V182.367C176.058 181.575 176.698 180.935 177.485 180.935C178.276 180.935 178.917 181.575 178.917 182.367V189.763C178.917 190.554 178.276 191.195 177.485 191.195Z" fill="black"/>
<path d="M177.485 208.434C176.699 208.434 176.053 207.794 176.053 207.002V199.606C176.053 198.814 176.699 198.174 177.485 198.174C178.277 198.174 178.917 198.814 178.917 199.606V207.002C178.917 207.794 178.277 208.434 177.485 208.434Z" fill="black"/>
<path d="M172.569 196.117H165.168C164.376 196.117 163.735 195.471 163.735 194.684C163.735 193.893 164.376 193.252 165.168 193.252H172.569C173.36 193.252 173.996 193.893 173.996 194.684C173.996 195.471 173.36 196.117 172.569 196.117Z" fill="black"/>
<path d="M189.808 196.117H182.407C181.615 196.117 180.975 195.471 180.975 194.684C180.975 193.893 181.615 193.252 182.407 193.252H189.808C190.6 193.252 191.24 193.893 191.24 194.684C191.24 195.471 190.6 196.117 189.808 196.117Z" fill="black"/>
<path d="M718.594 230.669C706.365 234.018 693.74 226.82 690.391 214.591C687.042 202.367 694.24 189.742 706.469 186.393C718.698 183.044 731.329 190.242 734.678 202.471C738.027 214.695 730.829 227.325 718.594 230.669ZM747.047 199.085C746.511 197.137 744.704 195.809 742.683 195.903L738.584 196.091C737.886 194.622 737.073 193.231 736.162 191.929L738.329 188.46C739.396 186.747 739.136 184.523 737.698 183.096C736.256 181.674 734.032 181.439 732.329 182.528L728.876 184.731C727.547 183.825 726.152 183.033 724.693 182.351L724.834 178.257C724.902 176.236 723.563 174.439 721.605 173.924C719.646 173.408 717.599 174.32 716.672 176.117L714.787 179.747C713.204 179.622 711.594 179.632 709.975 179.783L708.042 176.169C707.094 174.382 705.032 173.492 703.084 174.028C701.136 174.559 699.813 176.372 699.907 178.393L700.089 182.486C698.626 183.184 697.23 183.992 695.928 184.908L692.459 182.747C690.74 181.674 688.521 181.939 687.094 183.372C685.667 184.809 685.438 187.044 686.521 188.742L688.735 192.195C687.823 193.518 687.027 194.919 686.349 196.377L682.256 196.231C680.235 196.169 678.433 197.507 677.922 199.46C677.412 201.419 678.318 203.466 680.115 204.398L683.74 206.278C683.615 207.861 683.631 209.476 683.777 211.096L680.157 213.023C678.376 213.971 677.485 216.033 678.016 217.981C678.558 219.929 680.365 221.252 682.391 221.158L686.48 220.971C687.183 222.445 687.995 223.83 688.907 225.137L686.745 228.606C685.667 230.32 685.938 232.549 687.37 233.971C688.808 235.393 691.037 235.627 692.745 234.538L696.193 232.33C697.521 233.236 698.922 234.038 700.376 234.716L700.235 238.809C700.162 240.83 701.506 242.632 703.464 243.137C705.422 243.653 707.469 242.747 708.396 240.945L710.282 237.32C711.865 237.445 713.48 237.434 715.1 237.288L717.027 240.903C717.969 242.684 720.032 243.57 721.985 243.038C723.933 242.502 725.256 240.695 725.162 238.669L724.974 234.58C726.443 233.882 727.839 233.075 729.146 232.153L732.61 234.32C734.323 235.393 736.547 235.132 737.974 233.689C739.396 232.252 739.636 230.023 738.547 228.32L736.334 224.867C737.24 223.544 738.042 222.148 738.714 220.689L742.813 220.83C744.839 220.903 746.631 219.559 747.146 217.601C747.662 215.648 746.745 213.596 744.954 212.669L741.323 210.783C741.448 209.2 741.433 207.591 741.287 205.971L744.912 204.044C746.693 203.091 747.579 201.033 747.047 199.085Z" fill="#7A7A7A"/>
</svg>
