<svg width="864" height="864" viewBox="0 0 864 864" fill="none" xmlns="http://www.w3.org/2000/svg">
<path d="M835.562 634.903C828.406 634.903 822.604 629.096 822.604 621.934V531.023C822.604 523.861 828.406 518.059 835.562 518.059C842.723 518.059 848.525 523.861 848.525 531.023V621.934C848.525 629.096 842.723 634.903 835.562 634.903Z" fill="#7A7A7A"/>
<path d="M789.078 443.059C719.682 506.2 836.656 637.361 800.927 725.512C752.828 844.179 407.916 932.799 188.234 788.622C4.25993 667.877 -46.0213 412.543 42.5256 316.788C69.0308 288.127 100.39 281.84 142.734 252.674C182.119 225.549 186.786 218.325 189.786 213.392C219.416 164.71 165.328 117.575 179.072 75.1684C200.781 8.17878 382.468 -18.191 531.468 13.0954C571.645 21.5277 760.239 47.1684 827.515 201.226C832.718 213.153 896.625 349.97 841.156 409.434C821.927 430.049 807.572 426.226 789.078 443.059Z" fill="#D1D1D1"/>
<path d="M428.786 821.418C403.406 821.418 374.453 818.142 345.239 808.132C344.422 807.851 343.984 806.96 344.27 806.147C344.547 805.33 345.437 804.892 346.255 805.173C438.927 836.939 530.422 800.903 531.333 800.533C532.135 800.21 533.047 800.601 533.369 801.403C533.687 802.199 533.302 803.111 532.5 803.434C532.27 803.528 508.963 812.809 474.422 817.981C461.547 819.913 445.984 821.418 428.786 821.418Z" fill="black"/>
<path d="M419.906 839.413C390.265 839.413 350.791 835.194 322.005 816.392C321.281 815.924 321.078 814.95 321.552 814.231C322.021 813.507 322.989 813.304 323.713 813.773C374.682 847.059 460.318 833.658 461.177 833.517C462.021 833.382 462.833 833.96 462.969 834.814C463.104 835.663 462.531 836.471 461.677 836.606C461.286 836.668 443.781 839.413 419.906 839.413Z" fill="black"/>
<path d="M821.104 254.705C820.239 254.705 819.536 254.007 819.536 253.137V245.059C819.536 244.194 820.239 243.497 821.104 243.497C821.963 243.497 822.661 244.194 822.661 245.059V253.137C822.661 254.007 821.963 254.705 821.104 254.705Z" fill="black"/>
<path d="M821.104 273.522C820.239 273.522 819.536 272.824 819.536 271.96V263.882C819.536 263.017 820.239 262.314 821.104 262.314C821.963 262.314 822.661 263.017 822.661 263.882V271.96C822.661 272.824 821.963 273.522 821.104 273.522Z" fill="black"/>
<path d="M815.729 260.075H807.656C806.791 260.075 806.088 259.371 806.088 258.507C806.088 257.647 806.791 256.944 807.656 256.944H815.729C816.598 256.944 817.296 257.647 817.296 258.507C817.296 259.371 816.598 260.075 815.729 260.075Z" fill="black"/>
<path d="M834.552 260.064H826.479C825.614 260.064 824.911 259.371 824.911 258.501C824.911 257.642 825.614 256.939 826.479 256.939H834.552C835.422 256.939 836.119 257.642 836.119 258.501C836.119 259.371 835.422 260.064 834.552 260.064Z" fill="black"/>
<path d="M750.306 729.616C749.447 729.616 748.749 728.913 748.749 728.054V719.971C748.749 719.111 749.447 718.403 750.306 718.403C751.171 718.403 751.869 719.111 751.869 719.971V728.054C751.869 728.913 751.171 729.616 750.306 729.616Z" fill="black"/>
<path d="M750.306 748.439C749.447 748.439 748.749 747.736 748.749 746.871V738.793C748.749 737.929 749.447 737.226 750.306 737.226C751.171 737.226 751.869 737.929 751.869 738.793V746.871C751.869 747.736 751.171 748.439 750.306 748.439Z" fill="black"/>
<path d="M744.932 734.991H736.854C735.994 734.991 735.291 734.288 735.291 733.423C735.291 732.559 735.994 731.861 736.854 731.861H744.932C745.791 731.861 746.494 732.559 746.494 733.423C746.494 734.288 745.791 734.991 744.932 734.991Z" fill="black"/>
<path d="M763.75 734.991H755.672C754.812 734.991 754.114 734.283 754.114 733.418C754.114 732.559 754.812 731.861 755.672 731.861H763.75C764.619 731.861 765.312 732.559 765.312 733.418C765.312 734.283 764.619 734.991 763.75 734.991Z" fill="black"/>
<path d="M161.327 277.616C160.468 277.616 159.765 276.913 159.765 276.049V267.971C159.765 267.106 160.468 266.403 161.327 266.403C162.192 266.403 162.895 267.106 162.895 267.971V276.049C162.895 276.913 162.192 277.616 161.327 277.616Z" fill="black"/>
<path d="M161.327 296.434C160.468 296.434 159.765 295.736 159.765 294.872V286.788C159.765 285.929 160.468 285.231 161.327 285.231C162.192 285.231 162.895 285.929 162.895 286.788V294.872C162.895 295.736 162.192 296.434 161.327 296.434Z" fill="black"/>
<path d="M155.958 282.981H147.885C147.021 282.981 146.317 282.283 146.317 281.424C146.317 280.559 147.021 279.856 147.885 279.856H155.958C156.823 279.856 157.526 280.559 157.526 281.424C157.526 282.283 156.823 282.981 155.958 282.981Z" fill="black"/>
<path d="M174.775 282.981H166.697C165.833 282.981 165.135 282.283 165.135 281.424C165.135 280.559 165.833 279.856 166.697 279.856H174.775C175.64 279.856 176.338 280.559 176.338 281.424C176.338 282.283 175.64 282.981 174.775 282.981Z" fill="black"/>
<path d="M210.176 68.5068C205.38 70.663 203.197 76.4078 205.312 81.3088C206.348 83.7047 208.228 85.5328 210.619 86.4599C212.952 87.3713 215.499 87.3036 217.791 86.2776C222.588 84.1213 224.765 78.3765 222.65 73.4703C221.619 71.0797 219.734 69.2463 217.348 68.314C215.01 67.413 212.463 67.4755 210.176 68.5068ZM213.989 90.2307C212.468 90.2307 210.947 89.9495 209.489 89.3765C206.312 88.1422 203.807 85.7203 202.442 82.5484C199.656 76.0849 202.546 68.5068 208.895 65.6526C211.952 64.2776 215.359 64.189 218.478 65.4026C221.656 66.637 224.156 69.064 225.52 72.2307C228.312 78.6995 225.421 86.2776 219.072 89.1318C217.442 89.8609 215.718 90.2307 213.989 90.2307Z" fill="black"/>
<path d="M557.166 784.246C553.255 785.465 551.025 789.705 552.203 793.699C552.775 795.647 554.062 797.241 555.822 798.184C557.541 799.1 559.515 799.293 561.38 798.71C565.291 797.491 567.52 793.252 566.338 789.257C565.765 787.309 564.484 785.715 562.718 784.778C560.999 783.856 559.031 783.668 557.166 784.246ZM559.218 802.168C557.536 802.168 555.869 801.762 554.348 800.944C551.843 799.606 550.015 797.34 549.203 794.585C547.546 788.96 550.703 782.975 556.239 781.262C558.906 780.429 561.739 780.699 564.192 782.017C566.697 783.356 568.531 785.616 569.338 788.371C570.994 793.996 567.843 799.975 562.307 801.694C561.291 802.012 560.249 802.168 559.218 802.168Z" fill="black"/>
<path d="M698.416 642.965L841.447 575.215C848.155 572.033 858.265 564.127 858.739 556.346L858.046 513.247C788.338 533.856 719.28 553.767 686.89 582.028L698.416 642.965Z" fill="#232323"/>
<path d="M689.89 581.528L14.8379 583.028L185.593 514.106H853.968C856.676 514.106 857.395 517.835 854.89 518.846L689.89 581.528Z" fill="#D1D1D1"/>
<path d="M43.5983 719.736C35.7389 719.736 29.3691 713.366 29.3691 705.502V613.965C29.3691 606.106 35.7389 599.731 43.5983 599.731C51.4577 599.731 57.8275 606.106 57.8275 613.965V705.502C57.8275 713.366 51.4577 719.736 43.5983 719.736Z" fill="#7A7A7A"/>
<path d="M668.208 719.398C660.343 719.398 653.979 713.023 653.979 705.163V613.627C653.979 605.762 660.343 599.387 668.208 599.387C676.062 599.387 682.432 605.762 682.432 613.627V705.163C682.432 713.023 676.062 719.398 668.208 719.398Z" fill="#202124"/>
<path d="M695.705 644H13.0938C7.51892 644 3 639.469 3 633.88V589.114C3 583.526 7.51892 579 13.0938 579H694.53C698.106 579 701 581.903 701 585.48V638.686C701 641.62 698.634 644 695.705 644Z" fill="#202124"/>
<path d="M31.1455 385.913L186.593 353.283L185.593 514.106L37.8018 573.71L31.1455 385.913Z" fill="#232323"/>
<path d="M43.7913 622.981H1.84863V385.429C1.84863 384.773 2.37988 384.247 3.03092 384.247H41.9841C42.9788 384.247 43.7913 385.054 43.7913 386.054V622.981Z" fill="#7A7A7A"/>
<path d="M33.1403 390.574L4.94761 384.251C4.32261 384.251 4.22886 383.345 4.84345 383.215L149.646 353.283H186.593L33.1403 390.574Z" fill="#FFC700"/>
<path d="M185.593 515.674C184.733 515.674 184.036 514.976 184.03 514.111C184.025 513.247 184.728 512.543 185.588 512.543L323.582 512.106C323.588 512.106 323.588 512.106 323.588 512.106C324.447 512.106 325.145 512.804 325.15 513.668C325.155 514.528 324.452 515.231 323.593 515.231L185.598 515.674H185.593Z" fill="#FFC700"/>
<path d="M124.015 480.319L171.213 544.741L214.494 523.309C217.317 521.913 218.213 518.319 216.379 515.762L179.556 464.361C178.395 462.741 176.312 462.085 174.437 462.736L124.015 480.319Z" fill="white"/>
<path d="M171.213 544.741L162.489 547.101C157.348 548.486 151.88 546.606 148.687 542.34L113.635 495.486C112.89 494.502 112.942 493.132 113.749 492.194L124.015 480.319C150.369 498.871 168.572 519.663 171.213 544.741Z" fill="white"/>
<path d="M57.0361 504.861L107.51 573.762L153.802 550.84C156.817 549.346 157.776 545.502 155.817 542.767L116.432 487.793C115.192 486.069 112.963 485.361 110.958 486.059L57.0361 504.861Z" fill="white"/>
<path d="M107.51 573.762L92.2392 577.887C90.3277 578.408 88.2965 577.705 87.109 576.121L45.9319 521.085C45.1402 520.028 45.1871 518.564 46.0517 517.569L57.0361 504.861C85.2184 524.705 104.687 546.939 107.51 573.762Z" fill="white"/>
<path d="M154.62 542.658C154.13 542.658 153.651 542.429 153.349 542.007L116.307 490.304C115.802 489.601 115.963 488.621 116.666 488.127C117.37 487.621 118.343 487.778 118.849 488.481L155.885 540.179C156.39 540.882 156.229 541.861 155.526 542.366C155.25 542.564 154.932 542.658 154.62 542.658Z" fill="#D1D1D1"/>
<path d="M270.858 500.726L151.921 561.95C147.202 564.382 144.28 569.293 144.405 574.606L145.608 626.257C145.66 628.543 147.515 630.366 149.796 630.387L690.91 634.846L863.645 550.069L862.171 508.778C861.879 500.585 855.181 494.08 846.989 494.023L314.603 490.293C299.395 490.184 284.379 493.767 270.858 500.726Z" fill="#FFC700"/>
<path d="M815.02 525.647C814.432 525.647 813.869 525.319 813.609 524.752C813.239 523.97 813.572 523.043 814.354 522.673L840.906 510.168C841.682 509.804 842.614 510.142 842.984 510.918C843.348 511.705 843.02 512.637 842.234 513.002L815.687 525.502C815.468 525.601 815.244 525.647 815.02 525.647Z" fill="white"/>
<path d="M704.047 572.668C703.443 572.668 702.87 572.314 702.609 571.72C702.265 570.929 702.635 570.007 703.422 569.663L746.531 551.007C747.328 550.668 748.239 551.033 748.588 551.824C748.932 552.616 748.568 553.533 747.776 553.882L704.661 572.533C704.463 572.621 704.255 572.668 704.047 572.668Z" fill="white"/>
<path d="M577.129 583.059C577.119 583.059 577.114 583.059 577.098 583.059L458.384 580.694C457.52 580.679 456.832 579.965 456.848 579.101C456.869 578.236 457.598 577.548 458.447 577.569L577.166 579.929C578.025 579.944 578.713 580.663 578.692 581.528C578.676 582.382 577.978 583.059 577.129 583.059Z" fill="white"/>
<path d="M266.843 576.887C266.833 576.887 266.817 576.887 266.807 576.887L230.906 576.179C230.041 576.158 229.354 575.444 229.369 574.58C229.385 573.72 230.114 573.027 230.968 573.048L266.869 573.762C267.734 573.777 268.421 574.491 268.406 575.356C268.385 576.21 267.692 576.887 266.843 576.887Z" fill="white"/>
<path d="M494.317 59.8869L485.994 41.2723C482.765 34.064 475.255 29.7619 467.411 30.6265L343.208 44.3296C336.906 45.0327 330.88 47.3244 325.713 50.9858C283.645 80.8348 246.724 116.324 215.484 158.054C213.807 160.293 213.041 163.09 213.312 165.871L215.552 189.142C215.932 193.064 218.937 195.882 222.437 196.423C222.927 196.788 223.573 196.975 224.317 196.824C270.916 187.606 307.791 184.673 344.63 181.522C360.354 180.179 372.661 170.194 386.224 162.116C423.765 139.772 457.838 97.2098 493.406 62.8452C494.213 62.0744 494.244 61.0275 493.802 60.2411C493.974 60.1161 494.146 60.0015 494.317 59.8869Z" fill="#FFC700"/>
<path d="M469.426 32.0795C468.817 32.0795 468.197 32.1056 467.577 32.1837L343.374 45.8816C337.359 46.5483 331.562 48.7514 326.614 52.2618C284.181 82.3608 247.213 118.267 216.733 158.986C215.296 160.908 214.635 163.298 214.869 165.715L217.114 188.991C217.4 191.991 219.692 194.413 222.681 194.876L223.062 194.934L223.369 195.163C223.551 195.298 223.754 195.34 224.015 195.288C268.848 186.413 305.077 183.33 340.109 180.33L344.499 179.96C356.692 178.918 366.734 172.543 377.359 165.788C379.978 164.121 382.692 162.402 385.426 160.772C411.864 145.033 437.093 118.652 461.494 93.1368C471.551 82.616 481.957 71.741 492.327 61.715C492.603 61.4493 492.536 61.1733 492.437 60.991L491.749 59.7514L492.359 59.3295L484.572 41.9129C481.864 35.866 475.926 32.0795 469.426 32.0795ZM223.812 198.439C223.119 198.439 222.447 198.257 221.853 197.908C217.624 197.095 214.416 193.6 213.999 189.293L211.754 166.017C211.447 162.824 212.327 159.658 214.233 157.111C244.905 116.132 282.109 79.9962 324.806 49.7097C330.187 45.8972 336.484 43.4962 343.03 42.7722L467.239 29.0691C475.791 28.1212 483.905 32.7722 487.421 40.6316L496.275 60.4285L495.629 60.8764C495.76 62.0014 495.369 63.1368 494.499 63.965C484.176 73.9389 473.796 84.7983 463.749 95.2931C439.207 120.965 413.827 147.507 387.025 163.465C384.332 165.069 381.64 166.777 379.036 168.428C368.556 175.085 357.723 181.965 344.765 183.08L340.369 183.449C305.426 186.434 269.286 189.522 224.619 198.361C224.348 198.408 224.082 198.439 223.812 198.439Z" fill="#232323"/>
<path d="M367.609 126.595C367.187 126.595 366.76 126.418 366.447 126.08C365.869 125.434 365.921 124.444 366.567 123.871L454.546 44.6943C455.192 44.1214 456.176 44.1735 456.76 44.8141C457.338 45.46 457.281 46.4495 456.64 47.0225L368.656 126.194C368.359 126.465 367.984 126.595 367.609 126.595Z" fill="white"/>
<path d="M227.983 178.272C266.921 177.767 307.28 173.866 347.707 162.085C351.192 161.069 350.739 152.668 347.009 152.798C300.41 154.413 259.499 161.309 226.759 169.981C223.89 170.746 224.952 178.314 227.983 178.272Z" fill="#232323"/>
<path d="M310.838 159.939C316.468 162.215 320.156 166.21 319.083 168.866C318.01 171.528 312.583 171.84 306.953 169.564C301.328 167.293 297.635 163.298 298.708 160.642C299.781 157.981 305.213 157.668 310.838 159.939Z" fill="white"/>
<path d="M322.89 200.778C328.52 203.049 332.213 207.043 331.135 209.7C330.067 212.361 324.635 212.674 319.01 210.398C313.379 208.127 309.692 204.127 310.765 201.471C311.838 198.814 317.265 198.502 322.89 200.778Z" fill="white"/>
<path d="M333.578 185.486C339.395 183.767 344.765 184.606 345.578 187.356C346.39 190.1 342.333 193.725 336.51 195.439C330.692 197.158 325.312 196.319 324.505 193.569C323.697 190.824 327.755 187.199 333.578 185.486Z" fill="white"/>
<path d="M349.401 209.903C355.26 212.267 359.302 215.908 358.442 218.033C357.588 220.158 352.145 219.965 346.291 217.606C340.442 215.236 336.395 211.595 337.255 209.47C338.114 207.345 343.552 207.538 349.401 209.903Z" fill="white"/>
<path d="M487.598 169.986C491.937 174.569 494.103 179.564 492.437 181.137C490.77 182.715 485.905 180.278 481.572 175.689C477.233 171.106 475.062 166.111 476.728 164.538C478.39 162.96 483.259 165.403 487.598 169.986Z" fill="white"/>
<path d="M549.213 142.398C552.702 147.658 553.983 152.955 552.062 154.22C550.155 155.486 545.786 152.252 542.291 146.986C538.806 141.726 537.53 136.434 539.442 135.163C541.348 133.898 545.723 137.137 549.213 142.398Z" fill="white"/>
<path d="M368.364 186.601C374.219 188.965 378.265 192.606 377.406 194.731C376.547 196.856 371.109 196.663 365.26 194.304C359.406 191.934 355.359 188.299 356.219 186.168C357.073 184.043 362.515 184.236 368.364 186.601Z" fill="white"/>
<path d="M397.567 192.199C403.416 194.564 407.468 198.199 406.608 200.33C405.749 202.46 400.312 202.267 394.457 199.897C388.608 197.538 384.556 193.892 385.416 191.767C386.275 189.642 391.718 189.835 397.567 192.199Z" fill="white"/>
<path d="M474.078 185.752C479.922 188.116 483.974 191.757 483.114 193.882C482.255 196.012 476.812 195.819 470.958 193.455C465.114 191.095 461.062 187.455 461.922 185.325C462.781 183.2 468.224 183.387 474.078 185.752Z" fill="white"/>
<path d="M294.577 248.486C299.984 245.231 305.327 244.179 306.51 246.142C307.692 248.111 304.27 252.34 298.864 255.601C293.463 258.861 288.119 259.908 286.937 257.95C285.754 255.986 289.176 251.746 294.577 248.486Z" fill="white"/>
<path d="M300.03 180.007C305.692 182.304 309.541 185.996 308.624 188.267C307.707 190.533 302.374 190.517 296.712 188.231C291.046 185.939 287.197 182.246 288.114 179.981C289.03 177.71 294.364 177.725 300.03 180.007Z" fill="white"/>
<path d="M283.348 164.486C288.979 166.757 292.671 170.757 291.593 173.413C290.52 176.074 285.093 176.387 279.463 174.111C273.838 171.835 270.15 167.84 271.218 165.184C272.296 162.522 277.723 162.21 283.348 164.486Z" fill="white"/>
<path d="M290.479 162.049C296.104 164.325 299.797 168.319 298.724 170.976C297.651 173.632 292.218 173.944 286.593 171.674C280.963 169.398 277.276 165.403 278.349 162.747C279.422 160.085 284.849 159.778 290.479 162.049Z" fill="white"/>
<path d="M292.37 193.512C298.401 194.132 303.057 196.95 302.765 199.804C302.469 202.658 297.338 204.46 291.302 203.835C285.265 203.21 280.609 200.398 280.906 197.543C281.198 194.695 286.333 192.887 292.37 193.512Z" fill="white"/>
<path d="M258.827 191.97C264.864 192.601 269.515 195.413 269.223 198.262C268.926 201.116 263.796 202.924 257.759 202.299C251.723 201.679 247.072 198.856 247.364 196.007C247.66 193.158 252.791 191.351 258.827 191.97Z" fill="white"/>
<path d="M325.973 259.184C332.01 259.804 336.666 262.622 336.369 265.476C336.077 268.325 330.942 270.132 324.906 269.507C318.869 268.882 314.213 266.064 314.515 263.215C314.807 260.366 319.937 258.559 325.973 259.184Z" fill="white"/>
<path d="M463.963 237.335C469.989 237.96 474.646 240.778 474.354 243.627C474.067 246.481 468.927 248.283 462.896 247.663C456.859 247.038 452.203 244.221 452.5 241.372C452.791 238.523 457.922 236.715 463.963 237.335Z" fill="white"/>
<path d="M458.119 274.247C462.119 278.814 463.613 284.043 461.457 285.929C459.301 287.825 454.311 285.653 450.311 281.085C446.311 276.517 444.822 271.288 446.973 269.403C449.129 267.512 454.119 269.684 458.119 274.247Z" fill="white"/>
<path d="M391.629 241.319C397.187 238.882 402.629 239.028 403.78 241.658C404.931 244.283 401.364 248.387 395.806 250.825C390.254 253.267 384.812 253.116 383.655 250.491C382.504 247.866 386.072 243.762 391.629 241.319Z" fill="white"/>
<path d="M412.682 286.194C418.463 288.043 422.442 291.752 421.567 294.486C420.692 297.21 415.307 297.929 409.526 296.08C403.744 294.236 399.765 290.523 400.64 287.788C401.51 285.064 406.901 284.346 412.682 286.194Z" fill="white"/>
<path d="M406.093 170.866C411.65 168.429 417.088 168.58 418.239 171.199C419.385 173.824 415.822 177.934 410.26 180.366C404.707 182.809 399.265 182.658 398.119 180.038C396.968 177.413 400.541 173.304 406.093 170.866Z" fill="white"/>
<path d="M249.041 171.35C255.109 171.288 260.051 173.559 260.083 176.429C260.114 179.288 255.218 181.663 249.15 181.731C243.083 181.793 238.14 179.527 238.109 176.658C238.077 173.793 242.973 171.418 249.041 171.35Z" fill="white"/>
<path d="M272.098 176.455C278.166 176.387 283.109 178.653 283.14 181.522C283.171 184.392 278.276 186.762 272.208 186.83C266.14 186.892 261.197 184.621 261.166 181.757C261.135 178.892 266.031 176.517 272.098 176.455Z" fill="white"/>
<path d="M263.411 164.7C269.484 164.637 274.426 166.903 274.458 169.772C274.489 172.637 269.593 175.017 263.525 175.08C257.458 175.147 252.515 172.871 252.484 170.012C252.452 167.142 257.348 164.767 263.411 164.7Z" fill="white"/>
<path d="M330.822 153.335C336.89 153.272 341.833 155.543 341.864 158.402C341.895 161.272 336.999 163.647 330.937 163.71C324.864 163.783 319.921 161.512 319.89 158.642C319.859 155.777 324.754 153.397 330.822 153.335Z" fill="white"/>
<path d="M271.78 221.45C277.848 221.387 282.791 223.658 282.822 226.522C282.853 229.387 277.957 231.767 271.889 231.83C265.822 231.892 260.879 229.627 260.848 226.757C260.817 223.892 265.712 221.517 271.78 221.45Z" fill="white"/>
<path d="M455.306 164.397C461.369 164.335 466.312 166.606 466.348 169.475C466.374 172.34 461.489 174.71 455.411 174.783C449.348 174.845 444.4 172.574 444.374 169.705C444.343 166.84 449.239 164.47 455.306 164.397Z" fill="white"/>
<path d="M298.817 170.887C304.885 170.824 309.827 173.101 309.859 175.96C309.89 178.83 304.999 181.205 298.926 181.272C292.864 181.335 287.921 179.064 287.89 176.199C287.859 173.335 292.749 170.955 298.817 170.887Z" fill="white"/>
<path d="M154.744 750.705C154.744 750.705 109.145 650.731 135.301 521.122C135.301 521.122 205.973 580.356 180.494 750.705H154.744Z" fill="#7A7A7A"/>
<path d="M155.765 749.142H179.145C191.905 662.397 179.119 605.429 166.098 572.861C154.749 544.47 141.28 529.215 136.286 524.205C123.551 589.705 129.452 647.205 136.728 684.106C143.874 720.361 153.681 744.278 155.765 749.142ZM180.494 752.267H154.744C154.129 752.267 153.577 751.913 153.322 751.356C153.207 751.106 141.754 725.715 133.681 684.819C126.233 647.095 120.207 588.017 133.77 520.814C133.879 520.272 134.265 519.83 134.786 519.642C135.306 519.465 135.884 519.569 136.306 519.923C137.041 520.538 154.442 535.403 168.905 571.45C182.192 604.569 195.254 662.595 182.041 750.934C181.926 751.705 181.27 752.267 180.494 752.267Z" fill="black"/>
<path d="M165.895 741.845C165.869 741.845 165.838 741.845 165.812 741.845C164.947 741.799 164.286 741.054 164.333 740.194C167.822 676.304 139.02 539.903 138.729 538.533C138.546 537.689 139.088 536.861 139.932 536.679C140.776 536.502 141.609 537.038 141.786 537.882C142.078 539.257 170.968 676.064 167.458 740.366C167.411 741.2 166.723 741.845 165.895 741.845Z" fill="white"/>
<path d="M200.62 588.158C200.62 588.158 141.87 694.335 177.208 740.283H196.114C196.114 740.283 233.89 657.283 200.62 588.158Z" fill="white"/>
<path d="M177.989 738.715H195.088C198.963 729.616 229.01 654.882 200.525 591.668C191.77 608.481 147.702 697.887 177.989 738.715ZM196.114 741.845H177.208C176.723 741.845 176.265 741.616 175.968 741.236C160.984 721.752 160.374 689.882 174.171 646.517C184.369 614.455 199.103 587.668 199.249 587.403C199.531 586.892 200.041 586.59 200.661 586.595C201.244 586.616 201.775 586.955 202.025 587.486C219.395 623.564 217.244 663.377 212.38 690.423C207.119 719.658 197.63 740.72 197.536 740.929C197.281 741.486 196.723 741.845 196.114 741.845Z" fill="black"/>
<path d="M186.036 744.653C185.198 744.653 184.505 743.997 184.474 743.153C182.77 699.304 198.906 589.043 199.073 587.934C199.198 587.08 199.989 586.491 200.849 586.611C201.698 586.736 202.291 587.538 202.166 588.387C202 589.491 185.906 699.476 187.599 743.033C187.63 743.898 186.958 744.622 186.099 744.653C186.078 744.653 186.057 744.653 186.036 744.653Z" fill="black"/>
<path d="M88.4521 627.741C88.4521 627.741 138.499 644.825 156.619 745.944H136.937C136.937 745.944 95.8584 690.408 88.4521 627.741Z" fill="white"/>
<path d="M137.739 744.377H154.749C145.395 693.819 127.874 665.262 114.749 650.163C104.14 637.96 94.6347 632.377 90.3483 630.278C97.9889 687.179 133.296 738.147 137.739 744.377ZM156.619 747.507H136.937C136.442 747.507 135.973 747.267 135.682 746.871C135.265 746.309 94.2702 690.283 86.9004 627.923C86.8379 627.392 87.0514 626.861 87.4681 626.528C87.89 626.189 88.4525 626.09 88.9577 626.262C89.4837 626.444 102.036 630.861 116.921 647.897C130.531 663.465 148.739 693.075 158.161 745.663C158.244 746.121 158.119 746.59 157.822 746.944C157.525 747.298 157.088 747.507 156.619 747.507Z" fill="black"/>
<path d="M145.859 744.653C145.109 744.653 144.448 744.111 144.323 743.351C136.88 698.371 104.677 653.064 104.354 652.611C103.849 651.913 104.01 650.939 104.713 650.434C105.416 649.929 106.39 650.09 106.896 650.793C107.224 651.252 139.849 697.148 147.406 742.84C147.547 743.689 146.974 744.496 146.12 744.637C146.031 744.653 145.948 744.653 145.859 744.653Z" fill="black"/>
<path d="M107.76 737.913H231.229L234 796.335C234.677 810.658 223.255 822.642 208.916 822.642H138.401C121.442 822.642 107.698 808.877 107.708 791.913L107.76 737.913Z" fill="#FFC700"/>
<path d="M588.228 216.179C587.437 216.179 586.755 215.575 586.676 214.767C586.593 213.908 587.218 213.147 588.077 213.059C592.114 212.663 596.291 212.46 600.504 212.46H600.718C601.588 212.46 602.286 213.158 602.286 214.022C602.286 214.887 601.588 215.585 600.718 215.585H600.494C596.395 215.585 592.322 215.783 588.385 216.168C588.333 216.174 588.281 216.179 588.228 216.179ZM625.609 217.835C625.52 217.835 625.426 217.83 625.343 217.809C621.234 217.09 617.098 216.543 613.067 216.168C612.208 216.09 611.583 215.33 611.656 214.47C611.739 213.611 612.499 212.97 613.359 213.059C617.473 213.434 621.687 213.996 625.879 214.731C626.723 214.877 627.296 215.689 627.145 216.538C627.015 217.299 626.359 217.835 625.609 217.835ZM563.801 221.283C563.14 221.283 562.525 220.851 562.317 220.184C562.057 219.356 562.515 218.481 563.343 218.226C566.15 217.356 569.135 216.528 572.223 215.762C573.322 215.486 574.432 215.231 575.546 214.996C576.395 214.809 577.223 215.356 577.4 216.2C577.583 217.043 577.046 217.877 576.202 218.054C575.119 218.283 574.041 218.533 572.973 218.799C569.952 219.549 567.02 220.361 564.27 221.215C564.114 221.262 563.958 221.283 563.801 221.283ZM649.848 223.955C649.687 223.955 649.52 223.934 649.359 223.882C645.406 222.58 641.406 221.408 637.458 220.408C636.619 220.194 636.114 219.345 636.322 218.507C636.536 217.668 637.39 217.163 638.223 217.371C642.249 218.397 646.317 219.585 650.338 220.908C651.161 221.184 651.603 222.064 651.327 222.882C651.119 223.543 650.499 223.955 649.848 223.955ZM540.952 231.194C540.421 231.194 539.906 230.924 539.614 230.434C539.171 229.689 539.411 228.736 540.15 228.288C543.697 226.174 547.4 224.299 551.468 222.559C552.26 222.22 553.176 222.59 553.52 223.387C553.853 224.174 553.489 225.09 552.692 225.434C548.755 227.116 545.182 228.929 541.755 230.97C541.505 231.121 541.228 231.194 540.952 231.194ZM254.046 232.465C253.864 232.465 253.682 232.434 253.504 232.371C252.692 232.075 252.281 231.174 252.577 230.361C252.921 229.429 253.281 228.491 253.65 227.543C253.968 226.746 254.879 226.351 255.682 226.663C256.484 226.981 256.879 227.892 256.562 228.694C256.197 229.616 255.848 230.533 255.515 231.444C255.281 232.08 254.682 232.465 254.046 232.465ZM673.025 233.356C672.791 233.356 672.562 233.304 672.343 233.2C668.614 231.397 664.796 229.705 661.004 228.163C660.202 227.835 659.817 226.924 660.145 226.121C660.463 225.325 661.374 224.939 662.182 225.262C666.041 226.83 669.911 228.549 673.702 230.377C674.484 230.757 674.807 231.694 674.432 232.465C674.156 233.028 673.603 233.356 673.025 233.356ZM694.812 245.627C694.515 245.627 694.228 245.543 693.963 245.371C690.504 243.127 686.926 240.965 683.338 238.944C682.583 238.522 682.327 237.569 682.749 236.819C683.176 236.059 684.124 235.804 684.874 236.22C688.515 238.267 692.15 240.465 695.666 242.746C696.385 243.22 696.593 244.189 696.129 244.913C695.827 245.371 695.327 245.627 694.812 245.627ZM521.614 246.871C521.223 246.871 520.838 246.72 520.531 246.434C519.906 245.835 519.895 244.84 520.494 244.22C523.676 240.913 526.713 238.09 529.765 235.595C530.426 235.043 531.416 235.142 531.958 235.814C532.51 236.476 532.406 237.46 531.744 238.012C528.791 240.429 525.848 243.174 522.744 246.392C522.437 246.71 522.031 246.871 521.614 246.871ZM247.911 256.674C247.843 256.674 247.775 256.668 247.708 256.663C246.848 256.549 246.244 255.762 246.359 254.908C246.885 250.851 247.702 246.658 248.786 242.444C248.999 241.611 249.859 241.111 250.692 241.325C251.525 241.533 252.031 242.392 251.812 243.226C250.76 247.314 249.968 251.382 249.458 255.314C249.359 256.095 248.682 256.674 247.911 256.674ZM714.911 260.517C714.562 260.517 714.202 260.392 713.906 260.153C710.765 257.507 707.489 254.913 704.166 252.45C703.468 251.939 703.327 250.955 703.838 250.262C704.353 249.564 705.333 249.424 706.031 249.934C709.406 252.439 712.734 255.069 715.921 257.757C716.583 258.314 716.666 259.299 716.109 259.965C715.807 260.33 715.359 260.517 714.911 260.517ZM504.984 265.512C504.609 265.512 504.234 265.382 503.937 265.111C503.291 264.533 503.244 263.538 503.827 262.897C506.14 260.33 508.338 257.804 510.463 255.361L512.057 253.533C512.624 252.887 513.614 252.819 514.265 253.387C514.911 253.96 514.978 254.944 514.411 255.595L512.822 257.418C510.692 259.871 508.478 262.408 506.145 265.002C505.833 265.34 505.411 265.512 504.984 265.512ZM732.968 277.83C732.551 277.83 732.124 277.663 731.817 277.319C729.051 274.304 726.135 271.319 723.145 268.45C722.52 267.851 722.494 266.861 723.098 266.241C723.692 265.616 724.682 265.595 725.307 266.194C728.343 269.106 731.317 272.142 734.124 275.21C734.708 275.851 734.666 276.84 734.025 277.418C733.723 277.7 733.353 277.83 732.968 277.83ZM248.421 281.58C247.682 281.58 247.025 281.054 246.885 280.299C246.124 276.2 245.697 271.929 245.624 267.616C245.609 266.752 246.296 266.038 247.161 266.028C248.025 265.991 248.734 266.694 248.749 267.559C248.822 271.705 249.228 275.799 249.958 279.726C250.119 280.575 249.557 281.397 248.708 281.549C248.614 281.569 248.515 281.58 248.421 281.58ZM487.15 282.991C486.708 282.991 486.27 282.804 485.958 282.439C485.406 281.783 485.484 280.793 486.145 280.236C489.275 277.569 492.265 274.835 495.27 271.877C495.885 271.267 496.874 271.278 497.478 271.892C498.088 272.512 498.077 273.496 497.463 274.106C494.395 277.121 491.364 279.908 488.166 282.616C487.869 282.866 487.51 282.991 487.15 282.991ZM748.577 297.377C748.083 297.377 747.593 297.137 747.291 296.7C744.952 293.325 742.463 289.981 739.885 286.752C739.348 286.075 739.458 285.09 740.135 284.549C740.807 284.012 741.791 284.121 742.333 284.799C744.947 288.08 747.489 291.491 749.864 294.924C750.359 295.632 750.176 296.611 749.468 297.101C749.192 297.288 748.879 297.377 748.577 297.377ZM467.01 297.752C466.494 297.752 465.994 297.491 465.692 297.022C465.228 296.299 465.447 295.33 466.176 294.866C469.728 292.611 473.176 290.262 476.421 287.892C477.109 287.382 478.093 287.533 478.603 288.231C479.114 288.929 478.963 289.908 478.265 290.418C474.963 292.83 471.463 295.21 467.848 297.507C467.588 297.668 467.301 297.752 467.01 297.752ZM257.208 304.856C256.671 304.856 256.15 304.585 255.859 304.085C253.671 300.397 251.801 296.533 250.312 292.595C250.01 291.788 250.416 290.877 251.223 290.575C252.031 290.272 252.937 290.679 253.239 291.486C254.666 295.262 256.452 298.955 258.551 302.486C258.989 303.231 258.744 304.189 258.004 304.632C257.754 304.783 257.478 304.856 257.208 304.856ZM445.489 310.59C444.947 310.59 444.416 310.304 444.135 309.799C443.697 309.049 443.963 308.09 444.718 307.663C448.296 305.637 451.932 303.528 455.525 301.382C456.26 300.934 457.218 301.179 457.661 301.924C458.109 302.668 457.864 303.627 457.119 304.069C453.51 306.22 449.859 308.351 446.26 310.387C446.015 310.522 445.749 310.59 445.489 310.59ZM761.296 318.913C760.718 318.913 760.166 318.59 759.895 318.049C758.072 314.377 756.077 310.71 753.984 307.142C753.541 306.408 753.786 305.439 754.531 305.002C755.275 304.564 756.228 304.814 756.671 305.559C758.812 309.184 760.838 312.918 762.697 316.653C763.077 317.424 762.76 318.366 761.989 318.746C761.765 318.861 761.525 318.913 761.296 318.913ZM423.395 322.403C422.827 322.403 422.275 322.085 422.005 321.543C421.614 320.767 421.926 319.83 422.692 319.444C426.333 317.606 430.057 315.684 433.781 313.694C434.541 313.283 435.489 313.569 435.895 314.33C436.301 315.101 436.01 316.043 435.255 316.45C431.515 318.45 427.76 320.403 424.103 322.236C423.874 322.345 423.635 322.403 423.395 322.403ZM273.135 324.043C272.765 324.043 272.385 323.903 272.088 323.637C268.869 320.726 265.895 317.642 263.249 314.481C262.692 313.819 262.781 312.83 263.442 312.278C264.103 311.726 265.093 311.809 265.645 312.476C268.197 315.528 271.072 318.502 274.187 321.314C274.822 321.892 274.874 322.882 274.296 323.522C273.989 323.866 273.562 324.043 273.135 324.043ZM400.697 332.965C400.088 332.965 399.51 332.611 399.255 332.017C398.916 331.226 399.291 330.304 400.083 329.96C403.796 328.377 407.63 326.668 411.468 324.877C412.255 324.517 413.182 324.856 413.546 325.632C413.906 326.418 413.572 327.345 412.791 327.71C408.916 329.517 405.057 331.241 401.307 332.84C401.109 332.924 400.9 332.965 400.697 332.965ZM293.416 338.7C293.124 338.7 292.822 338.616 292.562 338.439C291.999 338.075 291.286 337.627 290.437 337.101C288.301 335.772 285.374 333.955 282.01 331.559C281.307 331.064 281.14 330.09 281.64 329.382C282.14 328.679 283.114 328.512 283.822 329.017C287.109 331.345 289.989 333.142 292.088 334.444C292.958 334.986 293.697 335.439 294.275 335.83C294.999 336.293 295.202 337.272 294.723 337.991C294.426 338.45 293.926 338.7 293.416 338.7ZM377.296 341.861C376.64 341.861 376.025 341.45 375.812 340.788C375.541 339.97 375.984 339.085 376.807 338.809C380.603 337.559 384.546 336.153 388.531 334.632C389.338 334.33 390.244 334.731 390.551 335.538C390.853 336.351 390.452 337.252 389.65 337.559C385.619 339.095 381.63 340.512 377.786 341.783C377.619 341.835 377.458 341.861 377.296 341.861ZM770.692 342.075C770.025 342.075 769.416 341.658 769.197 340.991C768.494 338.788 767.728 336.585 766.947 334.444C766.322 332.746 765.666 331.033 764.978 329.34C764.65 328.538 765.036 327.627 765.838 327.304C766.635 326.981 767.551 327.366 767.874 328.168C768.572 329.892 769.249 331.637 769.885 333.371C770.682 335.543 771.452 337.793 772.171 340.028C772.442 340.856 771.989 341.731 771.166 342.002C771.005 342.054 770.853 342.075 770.692 342.075ZM353.114 348.283C352.38 348.283 351.728 347.767 351.583 347.022C351.416 346.174 351.973 345.351 352.817 345.184C356.692 344.434 360.76 343.491 364.9 342.382C365.739 342.158 366.593 342.653 366.817 343.491C367.041 344.319 366.546 345.179 365.713 345.408C361.494 346.538 357.359 347.502 353.416 348.257C353.312 348.278 353.213 348.283 353.114 348.283ZM315.833 349.231C315.728 349.231 315.619 349.22 315.515 349.194C311.135 348.309 307.02 346.97 303.296 345.236C302.51 344.877 302.171 343.944 302.536 343.163C302.9 342.377 303.833 342.043 304.614 342.408C308.119 344.033 311.994 345.283 316.14 346.132C316.989 346.304 317.536 347.132 317.359 347.97C317.208 348.715 316.562 349.231 315.833 349.231ZM330.682 350.632C329.848 350.632 329.025 350.616 328.202 350.595C327.343 350.569 326.661 349.851 326.687 348.986C326.708 348.121 327.432 347.45 328.286 347.47C332.197 347.58 336.296 347.418 340.588 346.991C341.447 346.913 342.213 347.538 342.296 348.397C342.38 349.257 341.755 350.022 340.89 350.106C337.374 350.455 333.937 350.632 330.682 350.632ZM776.781 366.335C776.046 366.335 775.385 365.814 775.255 365.054C774.484 360.97 773.598 356.892 772.609 352.924C772.395 352.085 772.906 351.231 773.744 351.022C774.583 350.814 775.432 351.33 775.64 352.163C776.645 356.194 777.551 360.335 778.322 364.486C778.484 365.34 777.916 366.153 777.067 366.309C776.978 366.325 776.88 366.335 776.781 366.335ZM779.906 391.153C779.093 391.153 778.406 390.522 778.353 389.694C778.072 385.59 777.671 381.429 777.161 377.33C777.051 376.47 777.656 375.689 778.51 375.59C779.374 375.476 780.156 376.085 780.26 376.939C780.786 381.101 781.187 385.314 781.468 389.491C781.525 390.345 780.874 391.09 780.015 391.147C779.984 391.153 779.942 391.153 779.906 391.153ZM780.14 416.174C780.114 416.174 780.093 416.174 780.062 416.174C779.197 416.127 778.536 415.392 778.572 414.528C778.749 411.095 778.838 407.58 778.838 404.09C778.838 403.434 778.833 402.767 778.827 402.111C778.822 401.246 779.515 400.543 780.374 400.533C780.38 400.533 780.385 400.533 780.39 400.533C781.249 400.533 781.947 401.22 781.952 402.085C781.958 402.752 781.968 403.424 781.968 404.09C781.968 407.632 781.874 411.205 781.702 414.684C781.661 415.522 780.968 416.174 780.14 416.174ZM777.301 441.012C777.208 441.012 777.114 441.002 777.015 440.986C776.166 440.83 775.609 440.017 775.76 439.163C776.494 435.163 777.098 431.033 777.572 426.897C777.661 426.038 778.442 425.424 779.296 425.517C780.156 425.621 780.77 426.392 780.671 427.252C780.192 431.46 779.577 435.653 778.838 439.726C778.702 440.476 778.046 441.012 777.301 441.012ZM770.984 465.194C770.817 465.194 770.645 465.163 770.468 465.106C769.656 464.819 769.223 463.924 769.505 463.111C770.843 459.299 772.046 455.314 773.103 451.262C773.317 450.424 774.161 449.924 775.005 450.142C775.843 450.361 776.343 451.21 776.13 452.049C775.051 456.179 773.822 460.252 772.458 464.142C772.234 464.788 771.63 465.194 770.984 465.194ZM760.572 487.903C760.301 487.903 760.031 487.83 759.775 487.684C759.036 487.246 758.791 486.288 759.228 485.543C761.265 482.085 763.176 478.397 764.916 474.59C765.275 473.804 766.202 473.46 766.989 473.814C767.77 474.174 768.119 475.101 767.76 475.892C765.978 479.799 764.015 483.58 761.926 487.132C761.63 487.627 761.109 487.903 760.572 487.903ZM531.109 488.95C530.713 488.95 530.317 488.804 530.015 488.507C527.077 485.637 524.124 482.611 521.223 479.507C520.64 478.871 520.671 477.882 521.301 477.293C521.932 476.705 522.921 476.741 523.51 477.371C526.369 480.439 529.296 483.429 532.197 486.272C532.817 486.871 532.827 487.866 532.218 488.481C531.911 488.793 531.515 488.95 531.109 488.95ZM549.853 505.496C549.51 505.496 549.171 505.387 548.885 505.158C545.656 502.606 542.406 499.887 539.228 497.075C538.583 496.507 538.52 495.517 539.088 494.871C539.661 494.226 540.65 494.163 541.296 494.731C544.437 497.507 547.635 500.189 550.822 502.705C551.499 503.241 551.619 504.226 551.077 504.903C550.775 505.293 550.312 505.496 549.853 505.496ZM745.416 507.71C745.025 507.71 744.619 507.559 744.317 507.257C743.702 506.647 743.702 505.658 744.312 505.043C747.145 502.194 749.859 499.08 752.369 495.778C752.89 495.085 753.879 494.955 754.562 495.481C755.249 496.002 755.374 496.981 754.859 497.674C752.265 501.085 749.452 504.304 746.531 507.252C746.218 507.554 745.822 507.71 745.416 507.71ZM570.374 519.767C570.103 519.767 569.817 519.689 569.572 519.538C566.041 517.413 562.484 515.101 558.999 512.674C558.291 512.179 558.114 511.21 558.609 510.496C559.103 509.788 560.072 509.611 560.786 510.106C564.208 512.496 567.713 514.767 571.187 516.861C571.921 517.309 572.161 518.267 571.718 519.007C571.421 519.496 570.906 519.767 570.374 519.767ZM725.468 522.637C724.916 522.637 724.369 522.34 724.093 521.819C723.682 521.054 723.963 520.106 724.728 519.7C728.312 517.772 731.786 515.554 735.067 513.095C735.749 512.58 736.728 512.715 737.249 513.408C737.77 514.101 737.624 515.08 736.932 515.601C733.536 518.147 729.932 520.455 726.208 522.455C725.973 522.585 725.718 522.637 725.468 522.637ZM592.656 531.085C592.458 531.085 592.254 531.043 592.057 530.96C588.228 529.371 584.374 527.59 580.598 525.668C579.827 525.278 579.525 524.335 579.911 523.564C580.301 522.793 581.255 522.486 582.015 522.877C585.718 524.767 589.499 526.512 593.254 528.075C594.057 528.403 594.426 529.325 594.098 530.121C593.853 530.72 593.27 531.085 592.656 531.085ZM702.557 532.658C701.916 532.658 701.317 532.257 701.088 531.627C700.791 530.809 701.213 529.913 702.02 529.621C705.864 528.231 709.629 526.726 713.546 525.012C714.343 524.663 715.26 525.028 715.603 525.819C715.952 526.611 715.588 527.533 714.796 527.877C710.817 529.616 706.989 531.147 703.083 532.564C702.911 532.627 702.728 532.658 702.557 532.658ZM616.432 538.757C616.322 538.757 616.202 538.746 616.077 538.715C612.015 537.772 607.916 536.637 603.906 535.34C603.088 535.075 602.629 534.194 602.895 533.371C603.166 532.549 604.041 532.101 604.869 532.361C608.796 533.632 612.801 534.746 616.781 535.668C617.629 535.861 618.156 536.705 617.952 537.549C617.791 538.267 617.145 538.757 616.432 538.757ZM678.489 539.444C677.765 539.444 677.103 538.929 676.963 538.189C676.796 537.34 677.338 536.512 678.187 536.345C682.176 535.538 686.223 534.554 690.223 533.424C691.051 533.189 691.916 533.674 692.156 534.502C692.39 535.335 691.906 536.205 691.072 536.434C687.004 537.59 682.874 538.59 678.801 539.413C678.697 539.429 678.593 539.444 678.489 539.444ZM641.166 542.257C641.14 542.257 641.114 542.257 641.088 542.257C636.895 542.033 632.661 541.621 628.51 541.033C627.656 540.913 627.057 540.121 627.176 539.262C627.296 538.413 628.093 537.814 628.947 537.939C633.01 538.512 637.145 538.913 641.254 539.132C642.114 539.174 642.775 539.913 642.734 540.772C642.687 541.606 641.994 542.257 641.166 542.257ZM653.671 542.371C652.827 542.371 652.14 541.71 652.109 540.861C652.077 540.002 652.754 539.278 653.619 539.252C657.697 539.111 661.859 538.793 665.958 538.304C666.807 538.21 667.593 538.814 667.692 539.674C667.796 540.528 667.187 541.309 666.327 541.413C662.135 541.908 657.895 542.231 653.728 542.371C653.708 542.371 653.692 542.371 653.671 542.371Z" fill="#202124"/>
<path d="M691.843 522.528C691.843 522.528 688.656 518.376 688.255 515.069L670.76 513.298C670.76 513.298 671.624 516.345 672.249 520.429C672.567 522.491 672.062 524.595 670.827 526.278L665.468 533.611C660.468 540.21 654.63 541.158 647.124 544.668L641.369 547.371C640.817 547.626 640.432 548.137 640.333 548.736L640.291 549.043C639.749 552.423 644.161 559.689 656.473 561.314C662.395 562.095 670.572 557.272 685.249 552.611C689.426 551.278 695.744 553.455 700.286 551.288C701.583 550.673 703.13 544.793 702.926 543.371C702.109 537.84 695.536 530.444 691.843 522.528Z" fill="white"/>
<path d="M672.817 515.075C673.114 516.371 673.484 518.153 673.796 520.194C674.177 522.689 673.573 525.179 672.093 527.205L666.729 534.533C662.645 539.913 658.099 541.772 652.833 543.918C651.224 544.58 649.552 545.257 647.796 546.09L642.031 548.788C641.953 548.825 641.89 548.897 641.88 548.981L641.833 549.293C641.713 550.028 642.02 551.491 643.27 553.174C644.76 555.174 648.479 558.679 656.671 559.762C660.088 560.21 664.77 558.424 671.25 555.944C675.114 554.476 679.489 552.799 684.781 551.121C686.895 550.444 689.395 550.554 691.817 550.658C694.536 550.783 697.349 550.908 699.5 549.929C700.26 549.075 701.494 544.653 701.375 543.595C700.948 540.679 698.515 536.845 695.948 532.788C694.031 529.767 692.057 526.637 690.5 523.34C689.974 522.637 687.76 519.533 686.953 516.507L672.817 515.075ZM657.776 562.96C657.265 562.96 656.755 562.929 656.265 562.861C646.927 561.627 642.546 557.434 640.765 555.043C639.187 552.924 638.448 550.647 638.739 548.793L638.796 548.486C638.968 547.377 639.687 546.429 640.708 545.955L646.468 543.252C648.296 542.397 650.005 541.694 651.656 541.022C656.698 538.965 660.682 537.345 664.218 532.668L669.567 525.361C670.541 524.028 670.958 522.309 670.708 520.668C670.109 516.736 669.265 513.752 669.26 513.72L668.63 511.507L689.661 513.642L689.807 514.882C690.099 517.246 692.27 520.517 693.088 521.575L693.26 521.871C694.739 525.038 696.698 528.132 698.593 531.116C701.343 535.46 703.948 539.564 704.468 543.147C704.708 544.752 703.265 551.601 700.958 552.705C698.083 554.069 694.828 553.924 691.671 553.788C689.432 553.689 687.317 553.595 685.724 554.101C680.52 555.752 676.187 557.408 672.375 558.871C666.276 561.2 661.666 562.96 657.776 562.96Z" fill="black"/>
<path d="M796.38 483.501C791.385 481.215 784.276 478.793 774.927 475.564C774.927 475.564 771.062 474.455 769.479 471.83L754.239 477.319C754.239 477.319 758.989 483.09 762.067 489.564L764.583 497.986C764.614 498.392 764.968 502.59 764.968 502.59L765.26 502.429C765.807 508.866 765.312 513.788 762.802 520.418L756.114 529.34C755.896 529.913 755.979 530.543 756.328 531.043L756.505 531.293C758.474 534.095 766.698 536.236 776.656 528.824C781.239 525.413 784.765 516.028 791.817 503.533C793.213 501.054 796.026 498.913 798.567 496.512C802.646 492.647 801.489 485.845 796.38 483.501Z" fill="white"/>
<path d="M757.562 530.022C757.562 530.064 757.577 530.106 757.604 530.142L757.781 530.392C758.213 531.012 759.447 531.845 761.52 532.184C763.979 532.58 769.083 532.502 775.723 527.569C778.562 525.455 781.114 520.507 784.645 513.658C786.312 510.418 788.208 506.741 790.452 502.767C791.64 500.658 793.598 498.903 795.666 497.043C796.275 496.496 796.895 495.944 797.489 495.377C799.041 493.903 799.729 491.84 799.38 489.715C799.02 487.569 797.692 485.825 795.729 484.924C791.166 482.835 784.666 480.585 776.426 477.736L774.421 477.043C774.333 477.017 771.005 476.043 768.921 473.694L756.796 478.059C758.468 480.288 761.343 484.403 763.479 488.892L763.562 489.116L766.145 497.882C766.161 498.069 766.239 499.054 766.317 500.064L766.614 499.897L766.822 502.299C767.416 509.403 766.729 514.465 764.26 520.97L764.187 521.179L757.562 530.022ZM763.406 535.45C762.473 535.45 761.671 535.377 761.025 535.267C758.411 534.845 756.296 533.731 755.223 532.194L755.046 531.939C754.4 531.022 754.249 529.84 754.65 528.788L754.734 528.585L761.416 519.663C763.348 514.496 764.067 510.299 763.854 504.986L763.604 505.127L763.406 502.726C763.406 502.726 763.114 499.189 763.036 498.272L760.604 490.127C757.64 483.944 753.083 478.371 753.036 478.314L751.619 476.601L770.15 469.929L770.817 471.028C771.843 472.731 774.447 473.793 775.364 474.064L777.447 474.783C785.76 477.653 792.327 479.929 797.036 482.08C799.911 483.397 801.947 486.064 802.463 489.205C802.984 492.325 801.921 495.481 799.64 497.647C799.015 498.231 798.38 498.809 797.749 499.377C795.88 501.054 794.109 502.642 793.176 504.299C790.963 508.231 789.077 511.877 787.421 515.09C783.697 522.309 781.005 527.533 777.593 530.08C771.702 534.46 766.713 535.45 763.406 535.45Z" fill="black"/>
<path d="M708.463 278.835L638.484 283.007C638.484 283.007 612.713 351.189 633.942 431.408C646.27 478.012 664.614 505.575 668.338 514.174C669.364 516.522 671.708 518.017 674.27 517.934L686.166 517.569C689.687 517.465 692.426 514.47 692.213 510.944C690.536 483.705 671.077 398.397 672.958 382.814C672.958 382.814 679.682 415.715 718.468 454.413C728.531 464.45 740.161 478.288 755.713 485.934C757.645 486.887 759.989 486.429 761.416 484.814L769.796 475.293C771.145 473.757 771.369 471.538 770.348 469.767C759.416 450.7 709.208 364.236 708.463 278.835Z" fill="#232323"/>
<path d="M639.614 284.502C636.666 293.002 615.948 357.283 635.458 431.007C645.14 467.606 658.453 492.231 665.604 505.46C667.557 509.07 668.963 511.674 669.781 513.549C670.552 515.325 672.338 516.429 674.224 516.372L686.119 516.007C687.401 515.965 688.583 515.424 689.442 514.481C690.302 513.538 690.729 512.314 690.656 511.038C689.901 498.741 685.39 473.981 681.036 450.028C675.536 419.856 670.349 391.351 671.401 382.616C671.5 381.856 672.125 381.278 672.89 381.241C673.635 381.2 674.333 381.741 674.484 382.491C674.557 382.82 681.63 415.445 719.573 453.304C721.343 455.07 723.13 456.919 725.031 458.882C733.838 468.002 743.828 478.34 756.406 484.533C757.708 485.169 759.291 484.861 760.244 483.773L768.625 474.257C769.531 473.226 769.687 471.731 769.005 470.544L768.614 469.872C718.927 383.346 707.557 319.372 706.921 280.486L639.614 284.502ZM674.067 519.502C670.953 519.502 668.156 517.674 666.906 514.799C666.151 513.049 664.692 510.351 662.849 506.945C655.635 493.606 642.208 468.767 632.432 431.804C611.317 352.023 636.765 283.132 637.031 282.45C637.244 281.872 637.781 281.476 638.401 281.445L708.369 277.267C708.802 277.241 709.213 277.398 709.531 277.689C709.843 277.981 710.026 278.392 710.026 278.82C710.364 317.153 721.276 381.142 771.328 468.314L771.718 468.986C773.062 471.34 772.765 474.288 770.974 476.325L762.583 485.846C760.703 487.986 757.593 488.601 755.031 487.34C741.953 480.903 731.765 470.361 722.781 461.059C720.901 459.101 719.109 457.262 717.369 455.517C691.833 430.038 680.109 407.231 675.015 394.288C676.479 407.57 680.343 428.778 684.109 449.476C688.484 473.507 693.01 498.366 693.776 510.851C693.906 512.976 693.187 515.012 691.755 516.59C690.317 518.163 688.343 519.07 686.213 519.132L674.317 519.502C674.234 519.502 674.151 519.502 674.067 519.502Z" fill="black"/>
<path d="M674 392.918C673.328 392.918 672.703 392.47 672.5 391.799C672.458 391.627 667.593 374.976 665.057 354.043C664.38 348.403 661.895 343.101 658.083 339.106C657.484 338.486 657.505 337.496 658.125 336.903C658.75 336.299 659.744 336.325 660.338 336.95C664.625 341.424 667.401 347.356 668.166 353.674C670.661 374.33 675.453 390.747 675.5 390.908C675.744 391.741 675.27 392.606 674.448 392.851C674.291 392.892 674.145 392.918 674 392.918Z" fill="black"/>
<path d="M821.609 177.439C824.713 177.158 827.682 176.007 829.885 173.913C833.14 170.824 835.869 165.184 832.739 155.21C825.661 132.684 803.604 136.397 796.588 132.09C780.854 122.455 786.906 115.33 781.994 105.455C778.317 98.0692 763.291 81.9338 731.031 95.5484C731.031 95.5484 715.192 107.09 702.828 97.6734C687.63 86.1109 649.734 92.5432 654.687 118.84C656.114 126.423 660.411 133.127 666.51 137.798C667.619 138.642 668.849 139.502 670.203 140.356C674.114 142.83 676.557 147.111 676.531 151.772C676.463 166.939 682.755 197.991 738.203 183.611C742.385 182.533 746.802 183.455 750.198 186.064C754.375 189.283 757.562 198.168 780.817 201.132C795.755 203.033 804.062 189.236 809.578 183.429C813.958 178.804 818.89 177.684 821.609 177.439Z" fill="#202124"/>
<path d="M713.233 173.84C688.431 164.445 660.301 171.491 649.921 172.445C633.312 173.965 619.713 173.721 613.15 173.455C610.421 173.34 612.009 208.21 612.009 208.21C612.009 208.21 625.994 211.627 625.843 214.221C625.843 214.221 627.114 283.127 637.374 283.054L715.994 285.57L715.093 280.965C712.504 268.335 712.239 255.33 714.395 242.616C715.103 238.403 715.989 234.028 717.056 229.736C717.853 226.549 738.03 183.226 713.233 173.84Z" fill="#7A7A7A"/>
<path d="M659.234 231.012C658.828 231.012 658.416 230.856 658.114 230.533C657.51 229.908 657.531 228.918 658.156 228.32C660.609 225.955 665.166 221.085 668.052 215.002C668.427 214.215 669.354 213.882 670.135 214.257C670.916 214.622 671.25 215.559 670.875 216.335C667.781 222.877 662.937 228.064 660.317 230.575C660.02 230.866 659.63 231.012 659.234 231.012Z" fill="black"/>
<path d="M661.838 198.856C647.426 160.929 627.697 125.814 602.093 93.7828C600.723 92.0641 598.749 90.9339 596.572 90.5849L578.41 87.7047C575.228 87.1995 572.41 89.0953 571.405 91.8245C571.088 92.0953 570.864 92.4391 570.843 92.8349C568.666 130.163 563.619 158.83 558.754 187.507C556.671 199.752 561.838 211.101 565.317 223.017C575.494 257.986 602.437 289.689 621.801 325.517L637.608 322.845C643.733 321.814 648.489 316.939 649.379 310.793L663.457 213.491C664.171 208.559 663.614 203.522 661.838 198.856Z" fill="white"/>
<path d="M572.39 93.0326C570.301 128.897 565.51 157.08 560.874 184.335L560.291 187.777C558.692 197.189 561.556 206.053 564.583 215.439C565.338 217.772 566.114 220.178 566.806 222.59C573.348 245.038 586.749 265.949 600.931 288.085C608.312 299.6 615.926 311.486 622.64 323.788L637.343 321.309C642.822 320.382 647.036 316.069 647.833 310.574L661.905 213.272C662.577 208.616 662.046 203.824 660.369 199.418C645.843 161.194 625.827 125.991 600.869 94.767C599.744 93.3556 598.129 92.4233 596.327 92.1368L578.166 89.2514C575.895 88.8972 573.666 90.2045 572.864 92.3712C572.77 92.6264 572.609 92.8504 572.405 93.0222C572.4 93.0274 572.39 93.0326 572.39 93.0326ZM621.796 327.085C621.234 327.085 620.697 326.772 620.421 326.262C613.64 313.71 605.843 301.543 598.296 289.777C583.989 267.444 570.468 246.35 563.806 223.46C563.124 221.1 562.348 218.715 561.603 216.408C558.593 207.074 555.478 197.423 557.202 187.251L557.791 183.809C562.411 156.616 567.197 128.496 569.275 92.7462C569.317 92.0847 569.593 91.4597 570.072 90.9441C571.489 87.5847 575.036 85.5899 578.655 86.1681L596.812 89.0431C599.39 89.4545 601.702 90.7931 603.312 92.8087C628.473 124.288 648.655 159.783 663.296 198.309C665.155 203.21 665.749 208.538 664.994 213.725L650.921 311.017C649.937 317.871 644.687 323.241 637.869 324.392L622.062 327.059C621.973 327.08 621.885 327.085 621.796 327.085Z" fill="#232323"/>
<path d="M630.275 198.382C629.723 198.382 629.182 198.09 628.9 197.564L577.046 101.658C576.64 100.898 576.921 99.9496 577.682 99.533C578.437 99.1267 579.385 99.408 579.796 100.168L631.656 196.08C632.062 196.84 631.775 197.783 631.02 198.2C630.786 198.325 630.531 198.382 630.275 198.382Z" fill="#7A7A7A"/>
<path d="M700.343 251.663C699.364 251.663 697.135 250.648 689.057 246.58C688.275 246.194 687.968 245.252 688.359 244.481C688.744 243.71 689.687 243.398 690.458 243.788C694.161 245.648 698.307 247.663 699.9 248.335C701.827 246.653 707.166 241.236 712.01 233.939C712.489 233.221 713.458 233.023 714.176 233.497C714.9 233.981 715.088 234.95 714.614 235.668C708.728 244.549 702.395 250.476 701.13 251.361C700.885 251.533 700.697 251.663 700.343 251.663Z" fill="black"/>
<path d="M599.358 204.58C607.015 217.22 636.025 231.996 643.39 235.548C645.218 236.429 647.291 236.673 649.28 236.215C655.671 234.762 659.999 230.189 659.999 230.189L691.567 246.059C691.567 246.059 655.192 268.783 643.14 267.225C640.718 266.913 638.447 265.929 636.561 264.382C629.551 258.611 611.291 242.871 598.858 221.507C597.89 219.845 595.765 217.658 594.082 216.725C591.265 215.163 588.593 212.83 588.593 212.83C586.713 210.882 583.259 205.684 580.963 202.1C579.473 199.788 577.041 198.257 574.311 197.918C572.884 197.741 572.379 195.939 573.499 195.043C578.119 191.34 588.431 186.548 599.358 204.58Z" fill="white"/>
<path d="M589.677 211.689C590.041 212.007 592.416 214.007 594.838 215.351C596.697 216.387 599.067 218.741 600.218 220.715C611.026 239.304 626.494 254.059 637.557 263.174C639.218 264.538 641.218 265.403 643.338 265.674C652.098 266.799 676.88 253.137 688.359 246.194L660.281 232.085C658.64 233.549 654.781 236.569 649.63 237.741C647.307 238.267 644.859 237.991 642.713 236.955C636.687 234.054 606.197 218.887 598.02 205.387C593.666 198.189 589.062 194.122 584.338 193.283C580.177 192.543 576.682 194.497 574.479 196.257L574.312 197.913L574.505 196.366C577.703 196.757 580.536 198.543 582.281 201.257C585.677 206.538 588.296 210.236 589.677 211.689ZM644.338 268.861C643.843 268.861 643.38 268.835 642.947 268.778C640.234 268.429 637.687 267.33 635.572 265.585C624.307 256.314 608.562 241.278 597.51 222.293C596.651 220.814 594.692 218.845 593.322 218.09C590.401 216.476 587.682 214.101 587.567 214.002L587.473 213.913C585.541 211.908 582.151 206.845 579.651 202.95C578.411 201.017 576.39 199.752 574.124 199.465C572.843 199.309 571.802 198.413 571.442 197.174C571.098 195.939 571.52 194.622 572.52 193.819C575.223 191.648 579.562 189.262 584.874 190.205C590.531 191.205 595.854 195.767 600.697 203.767C608.583 216.783 640.463 232.403 644.067 234.137C645.583 234.866 647.307 235.059 648.937 234.689C654.796 233.361 658.828 229.158 658.869 229.116L659.661 228.267L694.755 245.908L692.395 247.387C690.947 248.293 657.854 268.861 644.338 268.861Z" fill="black"/>
<path d="M565.03 133.278C563.952 127.085 565.228 119.647 568.556 111.121C569.015 109.955 570.666 109.892 571.207 111.022L577.796 124.673C578.858 126.877 578.155 129.538 576.124 130.923L569.801 135.257C567.963 136.517 565.421 135.47 565.03 133.278Z" fill="white"/>
<path d="M569.916 111.945C566.708 120.247 565.583 127.335 566.577 133.002V133.007C566.702 133.71 567.239 134.012 567.463 134.106C567.958 134.314 568.489 134.262 568.921 133.96L575.244 129.632C576.645 128.679 577.119 126.872 576.385 125.346L569.916 111.945ZM568.062 137.356C567.452 137.356 566.833 137.236 566.244 136.986C564.796 136.377 563.765 135.085 563.494 133.538C562.395 127.236 563.614 119.502 567.103 110.554C567.546 109.424 568.577 108.689 569.791 108.642C570.994 108.601 572.098 109.262 572.619 110.346L579.197 123.986C580.619 126.919 579.697 130.377 577.01 132.215L570.687 136.544C569.895 137.085 568.989 137.356 568.062 137.356Z" fill="black"/>
<path d="M715.999 287.137C715.978 287.137 715.968 287.137 715.947 287.137L663.306 285.569C662.447 285.543 661.765 284.824 661.796 283.965C661.822 283.1 662.53 282.418 663.405 282.444L716.041 284.007C716.905 284.033 717.582 284.751 717.562 285.616C717.536 286.46 716.832 287.137 715.999 287.137Z" fill="black"/>
<path d="M681.895 122.621C681.135 122.923 680.239 123.673 678.749 124.319C678.114 124.6 671.181 127.939 667.228 115.694C666.77 114.251 663.343 114.548 661.088 118.955C659.119 122.798 660.046 125.444 654.775 130.007C654.27 130.444 654.515 131.309 654.984 131.788L657.426 134.569C657.947 135.106 658.223 136.673 658.187 137.423C658.062 139.741 657.603 144.632 658.301 145.376C659.661 146.84 667.468 147.559 667.468 147.559L670.218 166.642C670.223 170.845 661.697 173.996 663.911 175.225C671.004 179.158 678.968 176.965 681.359 176.34C688.504 174.465 695.171 170.652 698.416 168.616C699.28 168.069 699.176 166.783 698.234 166.376C695.536 165.22 691.223 163.08 690.223 160.84C686.072 151.621 685.01 149.793 684.286 136.152C684.161 133.84 686.765 134.491 687.65 130.288C688.582 125.902 684.489 121.58 681.895 122.621Z" fill="white"/>
<path d="M665.775 174.418C671.9 177.205 678.562 175.455 680.827 174.861L680.968 174.825C687.546 173.101 693.728 169.674 697.098 167.59C692.499 165.559 689.697 163.507 688.796 161.486L688.28 160.361C684.551 152.09 683.431 149.595 682.723 136.241C682.624 134.413 683.64 133.543 684.374 132.908C685.082 132.309 685.749 131.736 686.124 129.96C686.572 127.851 685.447 125.772 684.218 124.736C683.567 124.184 682.864 123.918 682.473 124.069C682.259 124.158 681.952 124.345 681.593 124.564C681.02 124.913 680.306 125.351 679.369 125.757C677.16 126.731 674.822 126.746 672.749 125.825C669.791 124.496 667.463 121.356 665.843 116.476C665.265 116.517 663.749 117.184 662.478 119.663C661.931 120.736 661.634 121.71 661.312 122.736C660.588 125.116 659.832 127.569 656.218 130.819L658.603 133.533C659.556 134.502 659.791 136.679 659.744 137.512C659.728 137.877 659.702 138.304 659.666 138.767C659.572 140.184 659.364 143.392 659.567 144.403C660.483 144.944 664.098 145.679 667.608 146.002C668.327 146.069 668.91 146.621 669.015 147.34L671.759 166.424C671.77 166.496 671.775 166.569 671.775 166.642C671.78 169.689 668.853 171.986 666.718 173.658C666.421 173.892 666.077 174.163 665.775 174.418ZM673.338 179.08C670.192 179.08 666.588 178.502 663.15 176.595C662.218 176.075 662.015 175.304 661.983 174.892C661.879 173.486 663.098 172.528 664.785 171.2C666.39 169.95 668.562 168.246 668.645 166.741L666.093 148.991C663.207 148.668 658.53 147.924 657.155 146.444C656.254 145.486 656.218 143.637 656.546 138.559C656.577 138.106 656.608 137.694 656.624 137.345C656.65 136.866 656.442 135.877 656.265 135.616L653.806 132.819C653.244 132.252 652.895 131.382 652.931 130.559C652.957 129.871 653.254 129.262 653.749 128.825C657.051 125.976 657.64 124.048 658.327 121.819C658.671 120.71 659.025 119.559 659.697 118.241C661.655 114.413 664.421 113.22 666.207 113.366C667.421 113.465 668.384 114.173 668.718 115.21C670.041 119.325 671.874 122.002 674.025 122.965C675.634 123.689 677.119 123.335 678.077 122.913C678.864 122.569 679.447 122.215 679.963 121.897C680.421 121.616 680.853 121.351 681.312 121.163C682.827 120.554 684.624 120.986 686.233 122.34C688.223 124.017 689.9 127.22 689.187 130.611C688.593 133.424 687.28 134.543 686.41 135.283C685.827 135.788 685.827 135.798 685.838 136.069C686.52 148.84 687.405 150.804 691.134 159.075L691.645 160.205C692.093 161.189 694.213 162.96 698.853 164.939C699.822 165.361 700.473 166.267 700.562 167.325C700.645 168.377 700.14 169.382 699.244 169.944C695.853 172.075 689.062 175.934 681.754 177.851L681.624 177.882C680.15 178.272 677.062 179.08 673.338 179.08Z" fill="black"/>
<path d="M673.463 146.434C671.91 147.179 670.213 147.491 667.468 147.554L673.463 146.434Z" fill="white"/>
<path d="M667.468 149.121C666.619 149.121 665.926 148.444 665.906 147.595C665.89 146.736 666.567 146.017 667.426 145.996C669.958 145.929 671.468 145.658 672.781 145.028C673.557 144.647 674.489 144.976 674.869 145.752C675.239 146.533 674.916 147.465 674.14 147.845C672.39 148.689 670.525 149.043 667.51 149.121C667.494 149.121 667.484 149.121 667.468 149.121Z" fill="black"/>
<path d="M453.765 624.72L441.9 624.741L437.879 633.528C437.322 634.767 436.338 635.762 435.109 636.335C431.411 638.074 424.52 642.632 422.692 644.554C420.551 646.798 422.098 652.491 428.478 656.705C437.254 662.491 437.931 679.116 440.822 684.533C441.676 686.132 443.978 686.194 444.874 684.611C447.103 680.71 447.291 667.507 445.916 643.856C445.905 643.642 453.765 624.72 453.765 624.72Z" fill="white"/>
<path d="M442.905 626.304L439.307 634.179C438.588 635.751 437.333 637.022 435.77 637.751C432.317 639.371 425.504 643.871 423.822 645.632C423.437 646.043 423.28 646.741 423.374 647.6C423.603 649.616 425.291 652.725 429.343 655.397C435.853 659.694 438.119 668.934 439.937 676.366C440.713 679.528 441.379 682.257 442.202 683.793C442.395 684.158 442.739 684.199 442.874 684.199C443.025 684.194 443.333 684.158 443.515 683.84C446.083 679.335 445.223 658.913 444.353 643.944C444.322 643.481 444.317 643.382 451.421 626.288L442.905 626.304ZM442.89 687.33C442.869 687.33 442.853 687.33 442.833 687.33C441.411 687.314 440.114 686.517 439.442 685.267C438.437 683.387 437.728 680.475 436.9 677.111C435.213 670.215 433.109 661.626 427.619 658.007C423.416 655.236 420.666 651.475 420.265 647.955C420.062 646.153 420.52 644.564 421.557 643.475C423.536 641.403 430.52 636.767 434.442 634.923C435.338 634.501 436.051 633.778 436.463 632.876L440.478 624.09C440.728 623.533 441.286 623.173 441.9 623.173L453.765 623.158C454.291 623.158 454.78 623.418 455.067 623.856C455.359 624.288 455.411 624.84 455.213 625.324C452.385 632.116 448.166 642.314 447.494 644.08C448.952 669.288 448.583 681.262 446.234 685.387C445.541 686.606 444.296 687.33 442.89 687.33Z" fill="black"/>
<path d="M426.536 702.231L426.301 687.47L414.374 687.772L414.921 693.668C415.218 696.908 413.942 700.085 411.494 702.22C408.306 704.996 405.26 707.621 403.78 708.949C402.275 710.298 402.03 712.574 403.218 714.21C405.223 716.97 409.676 719.251 411.859 721.871C420.254 731.955 427.004 741.012 431.801 744.897C433.806 746.522 436.77 745.1 436.817 742.512C436.973 732.278 431.103 716.767 428.02 709.345C427.083 707.09 426.572 704.679 426.536 702.231Z" fill="white"/>
<path d="M416.088 689.298L416.479 693.527C416.823 697.251 415.344 700.939 412.521 703.397L409.5 706.027C407.521 707.746 405.817 709.22 404.828 710.111C403.911 710.934 403.765 712.304 404.479 713.298C405.411 714.574 407.094 715.85 408.724 717.08C410.297 718.267 411.916 719.501 413.057 720.871C415.302 723.559 417.422 726.179 419.427 728.647C424.776 735.241 429.39 740.939 432.786 743.684C433.442 744.215 434.109 743.996 434.364 743.876C434.911 743.621 435.239 743.1 435.25 742.491C435.411 732.335 429.239 716.356 426.578 709.949C425.552 707.491 425.01 704.897 424.969 702.251L424.76 689.074L416.088 689.298ZM433.724 747.152C432.687 747.152 431.666 746.798 430.817 746.111C427.172 743.163 422.682 737.626 417 730.616C415 728.158 412.885 725.548 410.656 722.866C409.745 721.777 408.328 720.71 406.833 719.569C405.021 718.205 403.156 716.788 401.953 715.132C400.286 712.84 400.625 709.679 402.734 707.783C403.734 706.887 405.453 705.392 407.448 703.663L410.469 701.038C412.531 699.241 413.614 696.538 413.364 693.819L412.817 687.918C412.781 687.486 412.922 687.054 413.213 686.736C413.5 686.413 413.906 686.22 414.338 686.21L426.255 685.908C426.687 685.897 427.078 686.059 427.38 686.345C427.682 686.632 427.854 687.027 427.859 687.449L428.094 702.205C428.13 704.449 428.594 706.652 429.463 708.746C432.864 716.923 438.541 732.184 438.38 742.543C438.349 744.35 437.323 745.949 435.682 746.71C435.057 747.007 434.385 747.152 433.724 747.152Z" fill="black"/>
<path d="M384.843 516.835C392.749 517.549 440.182 530.611 453.734 539.533C467.275 548.455 477.145 586.7 454.27 628.491L438.255 628.413C438.255 628.413 431.885 619.085 434.702 607.669C437.52 596.247 440.062 579.387 434.025 575.58C427.994 571.773 367.348 557.122 367.348 557.122L328.057 526.981C346.541 513.33 357.301 512.627 384.843 516.835Z" fill="#232323"/>
<path d="M439.13 626.861L453.348 626.918C475.708 585.335 464.999 548.825 452.869 540.84C439.499 532.033 392.609 519.111 384.697 518.392C384.666 518.387 384.64 518.387 384.604 518.377C357.911 514.309 347.666 514.882 330.671 527.012L368.036 555.684C375.619 557.517 428.88 570.486 434.859 574.262C442.161 578.872 438.848 597.408 436.223 608.043C434.025 616.929 437.827 624.59 439.13 626.861ZM454.27 630.054H454.265L438.244 629.981C437.729 629.976 437.255 629.721 436.963 629.299C436.682 628.898 430.229 619.252 433.182 607.288C437.124 591.319 437.13 579.392 433.187 576.908C428.421 573.898 383.781 562.7 366.984 558.648C366.77 558.59 366.572 558.497 366.395 558.361L327.104 528.221C326.718 527.924 326.494 527.455 326.494 526.965C326.499 526.476 326.734 526.012 327.13 525.726C345.921 511.851 356.937 510.997 385.031 515.283C393.244 516.059 440.937 529.241 454.593 538.226C462.348 543.335 467.952 556.106 469.218 571.559C470.286 584.611 468.796 605.21 455.645 629.241C455.369 629.741 454.843 630.054 454.27 630.054Z" fill="black"/>
<path d="M414.015 692.851L427.77 692.111C427.77 692.111 436.608 646.757 426.311 611.319C416.009 575.882 379.921 542.153 379.921 542.153L372.874 516.835L328.056 526.981C328.056 526.981 319.838 544.95 327.864 557.7C335.884 570.455 374.936 593.512 384.78 607.991C394.624 622.465 397.27 624.866 396.66 639.054C396.056 653.241 399.478 677.476 414.015 692.851Z" fill="#232323"/>
<path d="M329.187 528.33C327.838 531.679 322.567 546.356 329.187 556.866C333 562.929 344.765 571.918 356.146 580.622C368.338 589.939 380.948 599.575 386.073 607.111C386.937 608.377 387.744 609.554 388.494 610.653C396.411 622.184 398.802 625.658 398.229 639.127C397.578 654.273 401.51 676.887 414.661 691.247L426.453 690.616C427.734 683.236 433.963 643.247 424.807 611.757C414.75 577.132 379.213 543.627 378.854 543.293C378.646 543.101 378.494 542.851 378.416 542.569L371.771 518.689L329.187 528.33ZM414.015 694.413C413.588 694.413 413.172 694.236 412.88 693.918C398.666 678.892 394.422 654.934 395.099 638.986C395.635 626.569 393.765 623.856 385.922 612.429C385.161 611.325 384.354 610.142 383.489 608.872C378.651 601.757 366.244 592.273 354.25 583.106C342.114 573.83 330.651 565.069 326.541 558.533C318.156 545.221 326.286 527.09 326.635 526.33C326.838 525.887 327.234 525.564 327.713 525.455L372.526 515.309C373.343 515.127 374.156 515.616 374.38 516.418L381.312 541.319C384.953 544.809 418.036 577.236 427.812 610.887C438.099 646.278 429.39 691.955 429.307 692.413C429.166 693.111 428.573 693.632 427.854 693.668L414.099 694.413C414.073 694.413 414.041 694.413 414.015 694.413Z" fill="black"/>
<path d="M398.677 399.72C400.015 399.205 402.672 398.272 405.635 394.054C409.078 389.168 411.854 380.804 408.458 376.382C405.885 373.043 402.333 373.595 396.177 371.856C382.547 367.996 382.234 360.267 373.406 358.054C360.297 354.767 355.114 370.345 337.015 371.642C326.896 372.371 326.172 367.673 304.599 360.569C283.776 353.72 269.359 348.981 257.557 355.83C248.552 361.059 242.099 372.439 243.328 383.507C245.094 399.382 262.213 410.512 275.344 409.996C287.609 409.517 293.417 399.002 299.854 402.09C306.526 405.288 301.776 417.298 308.948 426.606C317.297 437.444 337.614 439.173 352.031 434.517C373.604 427.543 379.182 407.189 398.677 399.72Z" fill="black"/>
<path d="M243.255 426.111L239.698 415.621C236.578 414.095 233.453 412.569 230.333 411.043C227.578 409.694 224.885 407.658 221.776 407.22C218.229 406.715 214.812 408.46 216.776 412.251C218.255 415.116 220.64 418.309 223.489 419.955C224.724 420.668 226.067 420.668 227.307 421.397C228.849 422.293 229.89 423.871 231.026 425.194C233.578 428.189 238.583 430.559 238.583 430.559L243.255 426.111Z" fill="white"/>
<path d="M220.582 408.7C219.265 408.7 218.291 409.106 217.942 409.601C217.567 410.127 217.853 410.939 218.16 411.533C219.796 414.695 222.082 417.335 224.27 418.601C224.713 418.861 225.218 419.002 225.801 419.163C226.504 419.356 227.296 419.58 228.098 420.049C229.551 420.892 230.598 422.184 231.515 423.325C231.749 423.616 231.978 423.908 232.213 424.179C233.89 426.142 236.811 427.861 238.311 428.663L241.452 425.669L238.426 416.741L229.645 412.45C228.822 412.044 228.009 411.59 227.218 411.142C225.301 410.064 223.489 409.038 221.556 408.767C221.218 408.721 220.89 408.7 220.582 408.7ZM238.582 432.127C238.358 432.127 238.129 432.075 237.916 431.976C237.697 431.872 232.572 429.424 229.838 426.215C229.582 425.913 229.332 425.606 229.077 425.288C228.254 424.267 227.478 423.309 226.52 422.747C226.067 422.481 225.556 422.34 224.963 422.174C224.275 421.981 223.489 421.767 222.707 421.309C218.832 419.075 216.296 414.736 215.384 412.971C214.035 410.366 214.811 408.606 215.39 407.788C216.608 406.075 219.134 405.262 221.994 405.669C224.515 406.028 226.666 407.241 228.754 408.419C229.535 408.861 230.275 409.278 231.02 409.642L240.384 414.215C240.759 414.403 241.046 414.721 241.181 415.116L244.733 425.611C244.931 426.184 244.77 426.82 244.332 427.241L239.66 431.689C239.369 431.976 238.978 432.127 238.582 432.127Z" fill="black"/>
<path d="M236.999 418.434L225.812 414.554C225.812 414.554 225.848 418.549 232.864 422.179C239.884 425.809 236.999 418.434 236.999 418.434Z" fill="white"/>
<path d="M232.864 423.746C232.624 423.746 232.38 423.689 232.145 423.569C224.515 419.621 224.249 415.074 224.244 414.569C224.239 414.059 224.484 413.585 224.895 413.288C225.307 412.991 225.838 412.908 226.322 413.074L237.51 416.955C238.328 417.241 238.76 418.132 238.473 418.949C238.192 419.762 237.302 420.194 236.484 419.913L228.833 417.257C229.739 418.309 231.208 419.559 233.583 420.788C234.348 421.189 234.65 422.132 234.255 422.897C233.979 423.434 233.432 423.746 232.864 423.746Z" fill="black"/>
<path d="M500.791 375.199C501.442 376.866 501.296 378.741 500.452 380.314C499.791 381.553 499.119 382.725 498.437 383.856C500.827 386.257 503.181 388.71 505.884 390.757C506.244 391.038 506.614 391.293 506.983 391.538C507.509 389.965 508.025 388.371 508.546 386.72C509.062 385.085 510.103 383.663 511.515 382.694C517.864 378.33 523.744 369.819 523.379 362.033C523.327 360.845 523.27 359.658 523.213 358.47C523.176 357.606 523.114 356.684 522.588 355.996C522.192 355.491 521.588 355.194 520.963 355.017C519.14 354.507 517.14 355.033 515.53 356.043C513.921 357.048 512.65 358.507 511.473 360.001C509.864 362.033 508.384 364.168 507.051 366.392C506.27 367.684 505.562 369.923 504.322 370.783C503.093 368.564 504.608 362.423 501.046 361.434C500.884 361.658 500.921 361.876 500.978 362.152C501.525 364.491 500.494 371.694 500.463 373.845C500.457 374.189 500.582 374.658 500.791 375.199Z" fill="white"/>
<path d="M500.401 383.611C502.234 385.465 504.13 387.366 506.177 389.007C506.468 388.101 506.765 387.189 507.057 386.257C507.666 384.293 508.937 382.564 510.63 381.403C516.307 377.502 522.156 369.413 521.817 362.106L521.656 358.543C521.63 358.007 521.598 357.278 521.343 356.955C521.213 356.788 520.921 356.632 520.546 356.523C519.296 356.174 517.77 356.481 516.364 357.366C514.942 358.262 513.765 359.627 512.703 360.965C511.14 362.939 509.692 365.038 508.39 367.2C508.187 367.528 507.979 367.976 507.75 368.455C507.119 369.757 506.416 371.236 505.218 372.069C504.854 372.325 504.401 372.408 503.973 372.309C503.536 372.21 503.171 371.934 502.958 371.538C502.656 371.002 502.479 370.377 502.369 369.689C502.333 370.023 502.307 370.361 502.276 370.705C502.151 372.012 502.036 373.241 502.031 373.872C502.031 373.877 502.031 374.085 502.25 374.632C503.062 376.7 502.906 379.043 501.828 381.054C501.39 381.882 500.927 382.71 500.401 383.611ZM506.984 393.106C506.677 393.106 506.375 393.012 506.114 392.84C505.723 392.575 505.328 392.304 504.937 392.007C502.427 390.101 500.208 387.856 498.062 385.694L497.333 384.96C496.828 384.455 496.734 383.668 497.098 383.054C497.859 381.778 498.494 380.668 499.078 379.58C499.718 378.377 499.817 376.991 499.338 375.767C499.026 374.986 498.89 374.361 498.901 373.819C498.911 373.075 499.026 371.84 499.161 370.418C499.406 367.804 499.776 363.851 499.458 362.507C499.385 362.189 499.192 361.356 499.765 360.538C500.145 359.997 500.828 359.757 501.463 359.929C504.536 360.783 505.01 363.934 505.208 366.517C505.375 366.189 505.536 365.872 505.713 365.585C507.078 363.309 508.609 361.106 510.25 359.028C511.484 357.465 512.875 355.861 514.697 354.715C516.854 353.361 519.286 352.924 521.385 353.512C522.442 353.804 523.26 354.319 523.822 355.043C524.671 356.148 524.739 357.497 524.776 358.398L524.947 361.96C525.343 370.486 518.937 379.491 512.406 383.981C511.286 384.752 510.447 385.892 510.036 387.189C509.52 388.851 508.994 390.46 508.468 392.033C508.312 392.497 507.947 392.861 507.489 393.023C507.322 393.075 507.151 393.106 506.984 393.106Z" fill="black"/>
<path d="M339.682 432.96C317.749 447.731 313.041 472.871 309.343 492.637C307.13 504.455 304.567 519.08 309.734 536.923C311.593 543.33 317.114 562.387 331.083 572.116C367.708 597.637 342.921 526.371 441.765 525.46C448.057 525.397 433.666 519.064 414.541 498.153C401.281 483.668 400.406 479.095 400.63 475.778C401.255 466.267 411.088 464.507 414.489 450.725C415.275 447.533 417.343 439.173 413.307 432.533C407.588 423.147 393.093 422.856 382.864 422.653C372.911 422.455 355.802 422.111 339.682 432.96Z" fill="white"/>
<path d="M399.479 424.085C399.479 424.085 436.676 429.84 461.265 415.064C485.854 400.288 498.161 380.476 498.161 380.476L509.687 387.913C509.687 387.913 500.406 469.871 403.551 462.345L399.479 424.085Z" fill="white"/>
<path d="M245.161 421.585L234.369 430.22C234.369 430.22 246.124 470.101 274.869 477.59C314.692 487.97 337.671 470.84 337.671 470.84L354.01 425.991C354.01 425.991 337.843 428.778 313.979 442.283C290.109 455.783 257.317 450.299 245.161 421.585Z" fill="white"/>
<path d="M352.698 512.971C352.547 512.971 352.401 512.95 352.25 512.908C351.422 512.658 350.948 511.788 351.192 510.965C351.401 510.267 356.448 493.939 377.271 486.038C396.177 478.861 395.192 464.34 395.14 463.731C395.073 462.872 395.708 462.111 396.567 462.033C397.427 461.96 398.182 462.596 398.26 463.455C398.276 463.627 399.573 480.913 378.375 488.96C358.994 496.325 354.239 511.694 354.192 511.851C353.994 512.528 353.364 512.971 352.698 512.971Z" fill="white"/>
<path d="M311.88 478.502C312.312 478.502 312.729 478.679 313.026 479.002C313.375 479.377 313.515 479.908 313.406 480.408C312.437 484.726 311.63 488.965 310.89 492.929C308.859 503.783 306.073 518.653 311.244 536.491C313.031 542.658 318.463 561.418 331.984 570.83C337.89 574.955 342.239 576.575 345.661 575.929C350.057 575.106 353.151 570.512 357.427 564.147C367.979 548.45 383.869 524.788 440.427 523.913C439.51 523.111 438.239 522.085 436.932 521.028C431.786 516.871 423.166 509.908 413.385 499.21C399.724 484.272 398.823 479.397 399.067 475.679C399.406 470.528 402.166 467.413 405.078 464.111C405.776 463.325 406.484 462.522 407.198 461.658C407.515 461.272 407.979 461.059 408.484 461.085C446.224 462.908 474.427 451.116 492.39 426.043C504.093 409.7 507.349 392.809 508 388.689L498.64 382.642C495.489 387.45 483.838 403.663 462.635 416.408C438.281 431.033 403.161 426.059 400.468 425.647C400.416 425.642 400.354 425.637 400.302 425.621C394.083 424.418 388.599 424.314 383.755 424.215C376.921 424.08 365.479 423.851 355.255 427.47C355.161 427.496 355.067 427.522 354.974 427.538C354.573 427.606 338.364 430.486 315.109 443.642C301.692 451.231 285.401 452.944 271.515 448.226C259.463 444.127 250.239 435.793 244.734 424.064L236.276 430.772C238.317 436.918 250.26 469.549 275.307 476.075C287.958 479.371 300.182 480.194 311.656 478.517C311.729 478.507 311.807 478.502 311.88 478.502ZM344.182 579.194C340.323 579.194 335.812 577.319 330.198 573.403C315.77 563.356 310.104 543.788 308.239 537.361C302.864 518.809 305.724 503.517 307.812 492.351C308.437 489.028 309.104 485.517 309.875 481.908C298.645 483.236 286.76 482.293 274.52 479.106C245.255 471.481 233.448 432.325 232.958 430.663C232.776 430.049 232.989 429.387 233.489 428.996L244.369 420.361C244.755 420.059 245.255 419.955 245.729 420.069C246.203 420.194 246.593 420.528 246.781 420.976C251.807 432.845 260.708 441.246 272.52 445.262C285.573 449.705 300.916 448.075 313.573 440.918C336.531 427.924 352.583 424.788 354.333 424.47C365.067 420.715 376.796 420.95 383.817 421.09C388.51 421.179 394.349 421.299 400.781 422.533C400.802 422.533 400.823 422.538 400.838 422.538C401.203 422.595 437.218 428.028 461.02 413.726C484.953 399.34 496.698 379.871 496.817 379.679C497.036 379.309 497.39 379.049 497.802 378.95C498.224 378.856 498.656 378.934 499.01 379.158L510.536 386.601C511.031 386.924 511.307 387.502 511.239 388.095C511.145 388.918 508.791 408.517 494.937 427.866C482.203 445.642 457.005 466.33 409.114 464.246C408.541 464.918 407.974 465.559 407.427 466.189C404.651 469.325 402.458 471.799 402.187 475.882C401.994 478.793 402.864 483.069 415.692 497.101C425.317 507.621 433.817 514.491 438.89 518.59C443.833 522.59 445.328 523.788 444.718 525.538C444.213 526.996 442.442 527.017 441.781 527.022C385.796 527.538 370.286 550.621 360.02 565.892C355.5 572.621 351.927 577.939 346.234 579.007C345.567 579.132 344.885 579.194 344.182 579.194Z" fill="black"/>
<path d="M368.885 396.2L365.916 416.741C365.635 418.684 364.536 420.418 362.885 421.486L355.9 426.038C355.9 426.038 360.77 433.043 375.718 431.549C390.14 430.106 391.583 422.174 391.583 422.174L384.369 419.293C381.13 417.851 379.275 414.804 379.14 412.46L378.739 405.549L368.885 396.2Z" fill="white"/>
<path d="M358.343 426.314C360.416 428.053 365.525 430.996 375.567 429.991C385.296 429.022 388.546 425.064 389.588 423.064L383.791 420.741C379.728 418.939 377.733 415.236 377.577 412.548L377.218 406.257L370.004 399.413L367.463 416.965C367.119 419.356 365.765 421.475 363.739 422.798L358.343 426.314ZM371.666 433.324C359.213 433.324 354.817 427.22 354.614 426.928C354.374 426.585 354.285 426.152 354.364 425.736C354.447 425.319 354.692 424.96 355.046 424.725L362.035 420.173C363.301 419.35 364.15 418.012 364.369 416.517L367.338 395.97C367.426 395.397 367.822 394.913 368.374 394.715C368.926 394.527 369.535 394.663 369.963 395.064L379.812 404.413C380.108 404.689 380.275 405.064 380.301 405.46L380.702 412.371C380.806 414.152 382.348 416.678 385.009 417.861L392.16 420.72C392.848 421.001 393.249 421.72 393.119 422.455C393.051 422.824 391.291 431.564 375.874 433.106C374.379 433.251 372.978 433.324 371.666 433.324Z" fill="black"/>
<path d="M394.26 396.705L394.036 396.434C392.39 394.455 391.14 392.168 390.416 389.699C389.281 385.85 388.119 383.043 388.119 383.043C382.557 381.46 375.536 385.064 375.536 385.064C376.374 392.97 365.729 392.538 365.729 392.538L367.359 397.137C367.359 397.137 364.744 396.116 364.536 401.001C364.416 403.746 370.979 405.887 370.979 405.887C370.979 405.887 379.551 417.304 389.505 410.304C392.14 408.444 392.796 404.626 392.525 400.418L394.26 396.705Z" fill="white"/>
<path d="M366.792 398.595C366.807 398.606 366.76 398.611 366.729 398.637C366.526 398.788 366.167 399.47 366.094 401.069C366.068 401.767 368.536 403.439 371.469 404.403C371.771 404.502 372.042 404.689 372.234 404.949C372.547 405.361 380.021 415.054 388.604 409.028C390.453 407.726 391.25 404.861 390.963 400.522C390.948 400.257 390.995 399.991 391.104 399.752L392.427 396.929C390.823 394.877 389.64 392.595 388.917 390.142C388.151 387.554 387.375 385.439 386.963 384.377C383.297 383.679 378.979 385.262 377.146 386.048C377.125 387.96 376.495 389.59 375.265 390.903C373.245 393.059 370.052 393.772 367.906 394.002L368.838 396.611C369.052 397.22 368.953 397.934 368.463 398.356C367.979 398.778 367.359 398.892 366.792 398.595ZM382.828 414.127C377.239 414.127 372.463 410.257 370.036 407.22C367.859 406.455 362.828 404.314 362.974 400.929C363.078 398.486 363.765 396.83 365.031 396.012C365.104 395.965 365.177 395.918 365.25 395.877L364.25 393.064C364.078 392.574 364.156 392.028 364.469 391.606C364.776 391.194 365.25 390.96 365.786 390.976C367.156 391.022 371.151 390.726 372.984 388.757C373.818 387.871 374.14 386.715 373.979 385.231C373.917 384.59 374.25 383.97 374.823 383.673C375.13 383.517 382.458 379.804 388.547 381.538C389.005 381.668 389.385 382.002 389.568 382.444C389.614 382.559 390.771 385.371 391.917 389.257C392.578 391.507 393.693 393.58 395.234 395.434L395.458 395.699C395.849 396.163 395.932 396.819 395.677 397.361L394.104 400.72C394.385 406.007 393.135 409.663 390.401 411.585C387.807 413.403 385.245 414.127 382.828 414.127Z" fill="black"/>
<path d="M344.364 565.064C343.978 565.064 343.593 564.924 343.291 564.642C342.666 564.049 342.634 563.054 343.228 562.429C345.317 560.221 347.384 557.965 349.572 555.58C368.244 535.215 389.411 512.142 422.551 519.429C423.395 519.622 423.931 520.455 423.744 521.294C423.556 522.137 422.723 522.679 421.879 522.486C390.494 515.585 369.983 537.95 351.874 557.695C349.676 560.09 347.608 562.351 345.504 564.58C345.192 564.908 344.78 565.064 344.364 565.064Z" fill="#7A7A7A"/>
</svg>
