<svg width="898" height="898" viewBox="0 0 898 898" fill="none" xmlns="http://www.w3.org/2000/svg">
<path d="M496.989 0.0540533C307.217 -2.96138 38.6656 120.12 4.10005 386.409C-25.3191 613.049 128.692 836.191 343.937 887.385C587.774 945.39 794.92 755.303 864.315 569.208C879.254 529.157 946.26 332.527 835.235 166.719C726.07 3.6898 531.951 0.605447 496.989 0.0540533Z" fill="#D1D1D1"/>
<path d="M13.2493 66.877C77.5866 115.195 113.428 169.93 132.767 220.99C132.957 221.491 133.002 222.286 132.818 223.43C132.637 224.551 132.257 225.885 131.722 227.387C130.652 230.393 129.024 233.916 127.352 237.496C127.264 237.685 127.175 237.875 127.087 238.064C125.513 241.432 123.928 244.823 122.824 247.757C122.241 249.307 121.778 250.767 121.523 252.054C121.273 253.314 121.194 254.544 121.511 255.562L121.511 255.562C121.822 256.563 122.611 257.18 123.467 257.557C124.315 257.931 125.359 258.131 126.46 258.241C128.666 258.462 131.444 258.348 134.102 258.238L134.123 258.237C136.827 258.125 139.408 258.019 141.391 258.21C142.387 258.306 143.14 258.47 143.648 258.696C144.146 258.918 144.26 259.125 144.294 259.253L144.294 259.253C155.252 301.068 155.749 337.117 153.509 362.705C152.388 375.498 150.584 385.674 149.062 392.645C148.301 396.13 147.611 398.813 147.112 400.622C146.979 401.106 146.859 401.528 146.755 401.885C42.7698 325.696 13.8671 227.876 8.35296 157.322C8.33666 157.112 8.39169 156.949 8.62324 156.747C8.90166 156.504 9.3934 156.256 10.1476 156.031C11.6525 155.583 13.7383 155.354 15.9767 155.123L16.2377 155.096C18.3303 154.88 20.5349 154.653 22.2223 154.194C23.0988 153.955 23.9499 153.626 24.5942 153.123C25.2808 152.587 25.7679 151.816 25.7302 150.813L25.7302 150.812C25.6958 149.909 25.2589 148.983 24.7106 148.127C24.1448 147.244 23.3686 146.296 22.4796 145.323C20.7021 143.377 18.3624 141.21 16.0755 139.097L15.97 138.999C13.6991 136.901 11.4888 134.858 9.8349 133.064C8.99521 132.153 8.32911 131.339 7.87904 130.64C7.40706 129.908 7.27046 129.45 7.27076 129.219L7.27076 129.219C7.28794 109.864 8.87986 93.8571 10.4662 82.6941C11.2593 77.1129 12.0509 72.7435 12.6433 69.7732C12.882 68.5766 13.0883 67.6071 13.2493 66.877Z" fill="white" stroke="#202124" stroke-width="2.20558"/>
<path d="M206.381 446.913C206.381 446.913 294.777 298.777 200.264 117.087C197.927 112.59 177.031 120.815 174.469 116.3C171.902 111.769 183.975 80.7355 181.178 76.1922C167.795 54.4409 151.724 32.5115 132.529 10.6338C132.529 10.6338 20.5328 240.071 206.381 446.913Z" fill="#232323"/>
<path d="M197.013 390.481C196.255 390.481 195.577 389.947 195.422 389.171C188.334 353.463 181.528 321.045 175.199 292.838C174.998 291.965 175.549 291.098 176.422 290.902C177.307 290.701 178.162 291.259 178.363 292.132C184.699 320.368 191.511 352.802 198.604 388.545C198.782 389.424 198.208 390.274 197.329 390.452C197.226 390.469 197.117 390.481 197.013 390.481Z" fill="#E8EAED"/>
<path d="M163.028 236.791C162.304 236.791 161.649 236.309 161.459 235.579C161.213 234.637 136.882 139.694 141.851 93.2393C141.942 92.3433 142.758 91.7 143.631 91.7976C144.527 91.8895 145.17 92.6879 145.073 93.5782C140.168 139.47 164.349 233.822 164.596 234.758C164.82 235.625 164.303 236.516 163.435 236.74C163.297 236.774 163.16 236.791 163.028 236.791Z" fill="#E8EAED"/>
<path d="M658.329 262.667H621.334C621.334 262.667 618.485 308.88 618.381 310.224H661.281C661.172 308.88 658.329 262.667 658.329 262.667Z" fill="white"/>
<path d="M620.111 308.605H659.547C659.064 301.018 657.249 271.478 656.813 264.287H622.862C622.42 271.478 620.599 301.018 620.111 308.605ZM661.282 311.85H618.382C617.934 311.85 617.503 311.661 617.193 311.327C616.883 310.994 616.728 310.546 616.768 310.093C616.866 308.777 619.686 263.023 619.714 262.564C619.766 261.708 620.478 261.042 621.334 261.042H658.329C659.191 261.042 659.897 261.708 659.949 262.564C659.978 263.023 662.792 308.777 662.901 310.093C662.936 310.546 662.775 310.994 662.476 311.327C662.166 311.661 661.735 311.85 661.282 311.85Z" fill="black"/>
<path d="M612.788 223.541C617.549 231.789 615.7 241.771 608.658 245.838C601.622 249.91 592.047 246.515 587.292 238.267C582.53 230.019 584.385 220.037 591.427 215.97C598.469 211.904 608.032 215.293 612.788 223.541Z" fill="white"/>
<path d="M597.946 215.867C595.918 215.867 593.977 216.372 592.237 217.377C589.244 219.101 587.222 222.11 586.533 225.849C585.827 229.68 586.591 233.799 588.699 237.457C590.806 241.11 593.994 243.839 597.664 245.137C601.248 246.412 604.861 246.159 607.848 244.43C610.835 242.707 612.868 239.697 613.557 235.958C614.269 232.127 613.5 228.003 611.392 224.35C609.278 220.697 606.096 217.969 602.426 216.665C600.927 216.131 599.416 215.867 597.946 215.867ZM602.156 249.186C600.318 249.186 598.446 248.859 596.585 248.198C592.179 246.642 588.388 243.402 585.89 239.077C583.397 234.758 582.49 229.847 583.34 225.258C584.213 220.571 586.797 216.769 590.611 214.563C594.436 212.352 599.014 212.013 603.506 213.61C607.905 215.166 611.702 218.406 614.2 222.731C616.693 227.05 617.601 231.961 616.745 236.55C615.883 241.237 613.299 245.033 609.468 247.245C607.233 248.531 604.735 249.186 602.156 249.186Z" fill="black"/>
<path d="M667.278 222.892C662.091 230.876 663.418 240.938 670.236 245.373C677.059 249.807 686.789 246.923 691.97 238.928C697.151 230.939 695.818 220.882 689.006 216.447C682.182 212.013 672.453 214.897 667.278 222.892Z" fill="white"/>
<path d="M681.855 215.982C680.592 215.982 679.294 216.177 677.984 216.568C674.251 217.671 670.931 220.232 668.633 223.77C666.342 227.309 665.354 231.387 665.865 235.252C666.359 239.02 668.226 242.127 671.12 244.011C677.186 247.946 685.922 245.269 690.609 238.043C692.9 234.505 693.888 230.427 693.377 226.568C692.883 222.794 691.017 219.687 688.127 217.808C686.267 216.597 684.118 215.982 681.855 215.982ZM677.364 249.06C674.549 249.06 671.787 248.307 669.357 246.734C665.658 244.327 663.269 240.404 662.648 235.677C662.04 231.048 663.2 226.189 665.917 222.001C668.628 217.82 672.585 214.782 677.065 213.455C681.626 212.099 686.18 212.679 689.891 215.08C693.59 217.493 695.973 221.415 696.599 226.137C697.208 230.772 696.042 235.625 693.331 239.813C689.494 245.729 683.303 249.06 677.364 249.06Z" fill="black"/>
<path d="M680.241 202.347C680.241 176.288 662.143 155.157 639.823 155.157C617.509 155.157 599.422 176.288 599.422 202.347C599.422 213.932 608.566 274.355 639.823 274.355C675.009 274.355 680.241 213.932 680.241 202.347Z" fill="white"/>
<path d="M639.835 156.776C618.445 156.776 601.047 177.218 601.047 202.341C601.047 216.671 611.174 272.718 639.835 272.718C672.045 272.718 678.627 217.211 678.627 202.341C678.627 177.218 661.224 156.776 639.835 156.776ZM639.835 275.969C606.148 275.969 597.802 211.519 597.802 202.341C597.802 175.426 616.653 153.531 639.835 153.531C663.01 153.531 681.873 175.426 681.873 202.341C681.873 207.975 680.592 226.309 674.768 243.219C667.381 264.643 655.302 275.969 639.835 275.969Z" fill="black"/>
<path d="M646.307 196.54H633.355L639.829 219.474L646.307 196.54Z" fill="#4880FF"/>
<path d="M827.837 466.671C806.545 379.235 692.975 316.732 687.673 313.86L687.478 289.455C682.332 291.954 661.057 293.597 639.829 294.584C618.606 293.597 597.319 291.954 592.185 289.455L591.989 313.86C586.694 316.732 473.118 379.235 451.826 466.671C430.035 556.204 603.718 601.464 603.718 601.464L604.022 514.286H675.64L675.951 601.464C675.951 601.464 849.634 556.204 827.837 466.671Z" fill="#232323"/>
<path d="M680.517 395.03C680.351 395.03 680.184 395.007 680.023 394.956L662.896 389.47C662.224 389.258 661.764 388.632 661.764 387.925V317.157H607.906C607.004 317.157 606.28 316.434 606.28 315.532C606.28 314.636 607.004 313.906 607.906 313.906H663.39C664.28 313.906 665.009 314.636 665.009 315.532V386.742L678.892 391.188V315.532C678.892 314.636 679.616 313.906 680.517 313.906C681.408 313.906 682.137 314.636 682.137 315.532V393.405C682.137 393.928 681.89 394.416 681.471 394.72C681.189 394.921 680.851 395.03 680.517 395.03Z" fill="white"/>
<path d="M643.918 400.269V482.168C643.918 491.432 649.725 499.709 658.438 502.845L677.439 509.697L677.582 472.07L673.033 470.594C668.082 468.992 664.78 464.316 664.912 459.113L665.222 447.309C665.434 439.079 663.212 430.963 658.829 423.984L643.918 400.269Z" fill="white"/>
<path d="M657.02 467.607C656.129 467.607 655.4 466.889 655.4 465.987V447.717C655.4 442.082 654.113 436.424 651.667 431.353L649.553 426.976C649.162 426.161 649.507 425.19 650.305 424.805C651.109 424.414 652.086 424.753 652.471 425.563L654.584 429.94C657.244 435.454 658.645 441.6 658.645 447.717V465.987C658.645 466.889 657.916 467.607 657.02 467.607Z" fill="black"/>
<path d="M677.582 524.188C676.692 524.188 675.962 523.459 675.962 522.574V461.932C675.962 461.036 676.692 460.313 677.582 460.313C678.484 460.313 679.208 461.036 679.208 461.932V522.574C679.208 523.459 678.484 524.188 677.582 524.188Z" fill="white"/>
<path d="M737.896 457.998H679.19C678.288 457.998 677.57 457.274 677.57 456.378C677.57 455.476 678.288 454.747 679.19 454.747H737.896C738.654 454.747 739.372 454.408 739.843 453.805C740.32 453.202 740.492 452.427 740.314 451.68L728.431 401.876C728.224 401.003 728.758 400.125 729.631 399.918C730.51 399.717 731.383 400.251 731.59 401.124L743.473 450.927C743.875 452.651 743.491 454.425 742.394 455.81C741.302 457.205 739.66 457.998 737.896 457.998Z" fill="white"/>
<path d="M635.756 400.269V482.168C635.756 491.432 629.944 499.703 621.231 502.839L602.231 509.692L602.087 472.07L606.642 470.594C611.587 468.986 614.89 464.316 614.757 459.113L614.447 447.309C614.235 439.073 616.458 430.963 620.84 423.984L635.756 400.269Z" fill="white"/>
<path d="M622.638 467.613C621.742 467.613 621.013 466.883 621.013 465.987V447.717C621.013 441.594 622.42 435.448 625.079 429.94L627.187 425.558C627.578 424.748 628.548 424.415 629.353 424.805C630.162 425.19 630.496 426.161 630.111 426.971L627.997 431.353C625.55 436.419 624.258 442.082 624.258 447.717V465.987C624.258 466.883 623.534 467.613 622.638 467.613Z" fill="black"/>
<path d="M602.081 524.188C601.185 524.188 600.461 523.465 600.461 522.574V461.938C600.461 461.036 601.185 460.313 602.081 460.313C602.971 460.313 603.7 461.036 603.7 461.938V522.574C603.7 523.465 602.971 524.188 602.081 524.188Z" fill="white"/>
<path d="M600.473 457.998H541.772C540.009 457.998 538.366 457.205 537.275 455.815C536.172 454.425 535.782 452.65 536.195 450.927L548.079 401.124C548.286 400.251 549.159 399.711 550.038 399.918C550.905 400.13 551.445 400.997 551.238 401.876L539.349 451.68C539.171 452.426 539.343 453.202 539.814 453.805C540.291 454.408 541.003 454.753 541.772 454.753H600.473C601.369 454.753 602.098 455.476 602.098 456.378C602.098 457.274 601.369 457.998 600.473 457.998Z" fill="white"/>
<path d="M258.551 262.661H221.556C221.556 262.661 218.713 308.875 218.604 310.225H261.504C261.394 308.875 258.551 262.661 258.551 262.661Z" fill="white"/>
<path d="M220.332 308.605H259.768C259.286 301.018 257.471 271.472 257.029 264.287H223.078C222.636 271.472 220.815 301.012 220.332 308.605ZM261.503 311.844H218.603C218.15 311.844 217.719 311.661 217.409 311.327C217.104 310.994 216.949 310.546 216.984 310.093C217.093 308.777 219.907 263.023 219.936 262.564C219.988 261.708 220.694 261.042 221.556 261.042H258.551C259.407 261.042 260.119 261.708 260.171 262.564C260.199 263.023 263.014 308.777 263.117 310.093C263.157 310.546 263.002 310.994 262.692 311.327C262.388 311.661 261.951 311.844 261.503 311.844Z" fill="black"/>
<path d="M213.009 223.541C217.771 231.789 215.921 241.771 208.88 245.838C201.838 249.91 192.269 246.515 187.513 238.267C182.752 230.019 184.601 220.037 191.643 215.97C198.685 211.904 208.254 215.293 213.009 223.541Z" fill="white"/>
<path d="M198.162 215.867C196.135 215.867 194.193 216.372 192.459 217.377C189.466 219.101 187.439 222.11 186.749 225.849C186.037 229.68 186.807 233.799 188.915 237.457C191.028 241.11 194.21 243.839 197.881 245.137C201.465 246.412 205.083 246.159 208.07 244.43C214.325 240.817 215.91 231.806 211.608 224.35C209.5 220.697 206.318 217.969 202.642 216.665C201.143 216.131 199.633 215.867 198.162 215.867ZM202.372 249.186C200.54 249.186 198.662 248.859 196.801 248.198C192.401 246.642 188.605 243.402 186.106 239.077C183.613 234.758 182.706 229.847 183.556 225.258C184.429 220.571 187.008 216.769 190.833 214.563C194.659 212.352 199.236 212.013 203.728 213.61C208.127 215.166 211.924 218.406 214.417 222.731C219.615 231.737 217.495 242.736 209.69 247.245C207.455 248.531 204.957 249.186 202.372 249.186Z" fill="black"/>
<path d="M267.494 222.892C262.307 230.875 263.634 240.944 270.458 245.367C277.275 249.801 287.005 246.918 292.192 238.928C297.373 230.939 296.046 220.876 289.228 216.442C282.405 212.013 272.675 214.896 267.494 222.892Z" fill="white"/>
<path d="M282.078 215.982C280.814 215.982 279.516 216.172 278.206 216.557C274.473 217.671 271.153 220.227 268.856 223.765C266.558 227.309 265.576 231.381 266.087 235.247C266.581 239.015 268.448 242.128 271.343 244.006C277.402 247.94 286.144 245.264 290.831 238.038C293.128 234.5 294.111 230.422 293.605 226.562C293.105 222.794 291.239 219.681 288.344 217.803C286.489 216.597 284.341 215.982 282.078 215.982ZM277.592 249.06C274.772 249.06 272.009 248.308 269.579 246.734C265.875 244.322 263.491 240.399 262.871 235.672C262.256 231.042 263.416 226.183 266.133 221.996C268.85 217.815 272.813 214.776 277.287 213.449C281.859 212.094 286.408 212.674 290.113 215.081C293.812 217.481 296.196 221.416 296.822 226.137C297.43 230.767 296.27 235.626 293.554 239.807C289.711 245.729 283.531 249.06 277.592 249.06Z" fill="black"/>
<path d="M280.463 202.347C280.463 176.288 262.371 155.157 240.051 155.157C217.731 155.157 199.638 176.288 199.638 202.347C199.638 213.932 208.794 274.355 240.051 274.355C275.231 274.355 280.463 213.932 280.463 202.347Z" fill="white"/>
<path d="M240.051 156.776C218.667 156.776 201.264 177.218 201.264 202.341C201.264 216.671 211.39 272.718 240.051 272.718C272.261 272.718 278.844 217.211 278.844 202.341C278.844 177.218 261.44 156.776 240.051 156.776ZM240.051 275.969C206.37 275.969 198.019 211.519 198.019 202.341C198.019 175.426 216.875 153.531 240.051 153.531C263.232 153.531 282.089 175.426 282.089 202.341C282.089 207.975 280.814 226.309 274.984 243.219C267.598 264.643 255.519 275.969 240.051 275.969Z" fill="black"/>
<path d="M246.53 196.54H233.572L240.051 219.474L246.53 196.54Z" fill="#4880FF"/>
<path d="M428.059 466.671C406.767 379.229 293.192 316.732 287.89 313.86L287.701 289.455C282.56 291.954 261.274 293.597 240.051 294.584C218.828 293.597 197.542 291.954 192.402 289.455L192.212 313.86C186.911 316.732 73.3349 379.229 52.0488 466.671C30.2515 556.204 203.935 601.464 203.935 601.464L204.239 514.286H275.863L276.167 601.464C276.167 601.464 449.857 556.204 428.059 466.671Z" fill="#4880FF"/>
<path d="M280.733 395.035C280.567 395.035 280.4 395.007 280.239 394.955L263.106 389.47C262.434 389.263 261.98 388.631 261.98 387.925V317.157H208.122C207.226 317.157 206.496 316.433 206.496 315.537C206.496 314.635 207.226 313.912 208.122 313.912H263.6C264.496 313.912 265.225 314.635 265.225 315.537V386.742L279.108 391.187V315.537C279.108 314.635 279.837 313.912 280.733 313.912C281.629 313.912 282.353 314.635 282.353 315.537V393.41C282.353 393.927 282.106 394.415 281.687 394.725C281.405 394.926 281.072 395.035 280.733 395.035Z" fill="#232323"/>
<path d="M244.135 400.269V482.168C244.135 491.432 249.942 499.709 258.655 502.845L277.661 509.697L277.804 472.07L273.244 470.6C268.298 468.992 264.996 464.322 265.128 459.118L265.438 447.315C265.651 439.079 263.428 430.963 259.045 423.99L244.135 400.269Z" fill="white"/>
<path d="M257.248 467.613C256.352 467.613 255.622 466.883 255.622 465.987V447.717C255.622 442.088 254.33 436.419 251.883 431.353L249.775 426.971C249.384 426.161 249.723 425.19 250.533 424.805C251.337 424.415 252.308 424.748 252.699 425.558L254.806 429.94C257.466 435.448 258.867 441.6 258.867 447.717V465.987C258.867 466.883 258.144 467.613 257.248 467.613Z" fill="#232323"/>
<path d="M277.804 524.188C276.908 524.188 276.185 523.465 276.185 522.574V461.938C276.185 461.036 276.908 460.313 277.804 460.313C278.7 460.313 279.424 461.036 279.424 461.938V522.574C279.424 523.465 278.7 524.188 277.804 524.188Z" fill="#232323"/>
<path d="M338.107 457.998H279.413C278.517 457.998 277.787 457.274 277.787 456.378C277.787 455.476 278.517 454.753 279.413 454.753H338.107C338.877 454.753 339.589 454.408 340.066 453.805C340.543 453.202 340.715 452.427 340.531 451.68L328.653 401.876C328.441 400.998 328.981 400.13 329.854 399.918C330.727 399.717 331.594 400.251 331.806 401.124L343.69 450.933C344.098 452.651 343.707 454.425 342.616 455.815C341.519 457.205 339.876 457.998 338.107 457.998Z" fill="#232323"/>
<path d="M235.967 400.269V482.168C235.967 491.432 230.16 499.709 221.453 502.845L202.447 509.697L202.298 472.07L206.858 470.6C211.804 468.992 215.112 464.322 214.974 459.118L214.664 447.315C214.451 439.079 216.674 430.963 221.062 423.99L235.967 400.269Z" fill="white"/>
<path d="M222.86 467.613C221.964 467.613 221.235 466.883 221.235 465.987V447.717C221.235 441.6 222.642 435.448 225.296 429.94L227.404 425.558C227.794 424.753 228.765 424.415 229.575 424.805C230.379 425.19 230.718 426.161 230.327 426.971L228.219 431.347C225.772 436.419 224.48 442.088 224.48 447.717V465.987C224.48 466.883 223.756 467.613 222.86 467.613Z" fill="#232323"/>
<path d="M202.298 524.188C201.402 524.188 200.678 523.465 200.678 522.574V461.938C200.678 461.036 201.402 460.313 202.298 460.313C203.194 460.313 203.923 461.036 203.923 461.938V522.574C203.923 523.465 203.194 524.188 202.298 524.188Z" fill="#232323"/>
<path d="M200.695 457.998H141.994C140.225 457.998 138.588 457.205 137.491 455.815C136.4 454.425 136.004 452.65 136.417 450.927L148.301 401.124C148.508 400.251 149.375 399.711 150.254 399.918C151.127 400.13 151.661 400.997 151.454 401.876L139.57 451.68C139.392 452.426 139.565 453.202 140.036 453.805C140.512 454.408 141.225 454.753 141.994 454.753H200.695C201.591 454.753 202.315 455.476 202.315 456.378C202.315 457.274 201.591 457.998 200.695 457.998Z" fill="#232323"/>
<path d="M470.619 274.051H409.265C409.265 274.051 404.55 350.689 404.372 352.923H475.507C475.329 350.689 470.619 274.051 470.619 274.051Z" fill="white"/>
<path d="M406.101 351.303H473.779C473.09 340.632 469.718 285.843 469.092 275.67H410.788C410.168 285.843 406.79 340.632 406.101 351.303ZM475.508 354.543H404.372C403.924 354.543 403.493 354.353 403.183 354.026C402.873 353.693 402.724 353.245 402.758 352.797C402.931 350.591 407.6 274.717 407.646 273.953C407.704 273.097 408.41 272.425 409.266 272.425H470.62C471.476 272.425 472.188 273.097 472.24 273.953C472.286 274.717 476.955 350.591 477.128 352.797C477.168 353.245 477.007 353.693 476.703 354.026C476.398 354.353 475.967 354.543 475.508 354.543Z" fill="black"/>
<path d="M395.102 209.176C402.994 222.857 399.927 239.41 388.25 246.153C376.567 252.897 360.709 247.279 352.811 233.603C344.925 219.928 347.992 203.374 359.669 196.626C371.346 189.883 387.21 195.5 395.102 209.176Z" fill="white"/>
<path d="M370.473 195.397C366.992 195.397 363.575 196.241 360.484 198.028C349.6 204.317 346.792 219.911 354.224 232.794C361.65 245.666 376.555 251.03 387.434 244.747C398.318 238.457 401.133 222.869 393.7 209.986C388.382 200.762 379.226 195.397 370.473 195.397ZM377.48 250.617C367.578 250.617 357.337 244.672 351.415 234.414C343.087 219.98 346.43 202.399 358.859 195.219C371.294 188.034 388.181 193.932 396.509 208.361C404.837 222.789 401.489 240.376 389.059 247.555C385.47 249.629 381.501 250.617 377.48 250.617Z" fill="black"/>
<path d="M485.455 208.09C476.851 221.335 479.057 238.026 490.366 245.373C501.676 252.719 517.81 247.934 526.402 234.689C535 221.439 532.795 204.748 521.491 197.407C510.182 190.061 494.042 194.84 485.455 208.09Z" fill="white"/>
<path d="M486.805 208.969C478.718 221.444 480.705 237.165 491.251 244.011C501.785 250.858 516.954 246.28 525.041 233.805C528.993 227.722 530.676 220.703 529.797 214.047C528.935 207.482 525.667 202.054 520.607 198.768C515.541 195.471 509.257 194.696 502.911 196.58C496.472 198.487 490.757 202.892 486.805 208.969ZM502.193 250.433C497.724 250.433 493.336 249.238 489.488 246.734C477.443 238.911 475.025 221.18 484.088 207.206C488.454 200.474 494.812 195.598 501.992 193.467C509.263 191.313 516.494 192.226 522.37 196.04C528.246 199.86 532.025 206.103 533.013 213.622C533.995 221.048 532.134 228.842 527.763 235.574C521.601 245.074 511.693 250.433 502.193 250.433Z" fill="black"/>
<path d="M506.954 174.03C506.954 130.815 476.949 95.7783 439.942 95.7783C402.93 95.7783 372.925 130.815 372.925 174.03C372.925 193.237 388.111 293.436 439.942 293.436C498.275 293.436 506.954 193.237 506.954 174.03Z" fill="white"/>
<path d="M439.943 97.3978C403.884 97.3978 374.551 131.779 374.551 174.03C374.551 184.145 378.646 213.995 388.514 240.358C397.302 263.833 413.355 291.81 439.943 291.81C463.917 291.81 482.032 274.51 493.79 240.404C503.261 212.938 505.335 183.18 505.335 174.03C505.335 131.779 476.002 97.3978 439.943 97.3978ZM439.943 295.055C384.935 295.055 371.306 189.113 371.306 174.03C371.306 129.987 402.092 94.1526 439.943 94.1526C477.788 94.1526 508.58 129.987 508.58 174.03C508.58 183.323 506.466 213.575 496.857 241.461C484.766 276.52 465.094 295.055 439.943 295.055Z" fill="black"/>
<path d="M450.689 164.398H429.196L439.943 202.432L450.689 164.398Z" fill="#202124"/>
<path d="M751.704 612.354C716.397 467.349 528.056 363.71 519.274 358.948L518.958 318.49C510.429 322.619 475.128 325.342 439.937 326.985C404.751 325.342 369.45 322.619 360.926 318.49L360.61 358.948C351.823 363.71 163.481 467.349 128.181 612.354C92.0299 760.823 380.047 835.87 380.047 835.87L380.558 691.313H499.326L499.832 835.87C499.832 835.87 787.849 760.823 751.704 612.354Z" fill="white"/>
<path d="M507.402 492.489C507.235 492.489 507.069 492.466 506.908 492.409L478.5 483.316C477.828 483.104 477.368 482.478 477.368 481.771V363.348H386.985C386.089 363.348 385.366 362.624 385.366 361.723C385.366 360.826 386.089 360.103 386.985 360.103H478.994C479.89 360.103 480.613 360.826 480.613 361.723V480.588L505.776 488.646V361.723C505.776 360.826 506.506 360.103 507.402 360.103C508.298 360.103 509.022 360.826 509.022 361.723V490.864C509.022 491.386 508.775 491.869 508.355 492.173C508.08 492.38 507.741 492.489 507.402 492.489Z" fill="black"/>
<path d="M451.189 507.87V638.057C451.189 652.686 460.436 665.85 474.192 670.807L503.548 681.387L503.778 622.491L497.351 620.406C488.523 617.546 482.52 609.068 482.767 599.781L483.279 580.206C483.623 566.829 480.039 553.768 472.923 542.436L451.189 507.87ZM505.162 685.316C504.973 685.316 504.794 685.281 504.611 685.218L473.095 673.863C458.052 668.441 447.949 654.047 447.949 638.057V502.241C447.949 501.518 448.426 500.88 449.121 500.679C449.816 500.478 450.557 500.771 450.947 501.38L475.668 540.713C483.129 552.585 486.886 566.272 486.518 580.292L486.007 599.867C485.806 607.719 490.878 614.898 498.35 617.316L505.909 619.769C506.575 619.981 507.029 620.613 507.029 621.314L506.782 683.702C506.782 684.23 506.523 684.718 506.093 685.023C505.817 685.212 505.489 685.316 505.162 685.316Z" fill="black"/>
<path d="M471.314 612.836C470.418 612.836 469.689 612.113 469.689 611.217V580.919C469.689 571.413 467.512 561.867 463.382 553.309L459.884 546.054C459.494 545.245 459.833 544.28 460.637 543.883C461.447 543.498 462.417 543.837 462.802 544.641L466.306 551.902C470.642 560.896 472.934 570.93 472.934 580.919V611.217C472.934 612.113 472.21 612.836 471.314 612.836Z" fill="black"/>
<path d="M505.404 706.671C504.508 706.671 503.784 705.942 503.784 705.046V604.497C503.784 603.607 504.508 602.871 505.404 602.871C506.306 602.871 507.029 603.607 507.029 604.497V705.046C507.029 705.942 506.306 706.671 505.404 706.671Z" fill="black"/>
<path d="M605.407 596.903H508.069C507.173 596.903 506.443 596.174 506.443 595.278C506.443 594.382 507.173 593.652 508.069 593.652H605.407C607.01 593.652 608.497 592.934 609.485 591.676C610.479 590.424 610.835 588.805 610.467 587.248L590.761 504.654C590.548 503.781 591.088 502.908 591.961 502.695C592.834 502.488 593.707 503.028 593.914 503.901L613.621 586.496C614.224 589.023 613.649 591.648 612.035 593.687C610.421 595.726 608.009 596.903 605.407 596.903Z" fill="black"/>
<path d="M376.101 622.491L376.331 681.387L405.687 670.807C419.443 665.85 428.691 652.686 428.691 638.057V507.87L406.962 542.436C399.84 553.768 396.256 566.829 396.606 580.206L397.112 599.781C397.359 609.068 391.362 617.546 382.54 620.406L376.101 622.491ZM374.723 685.316C374.395 685.316 374.068 685.212 373.792 685.023C373.362 684.718 373.103 684.23 373.097 683.702L372.862 621.314C372.856 620.613 373.31 619.981 373.982 619.769L381.541 617.316C389.002 614.898 394.073 607.724 393.872 599.867L393.367 580.292C392.999 566.272 396.75 552.585 404.217 540.713L428.943 501.38C429.328 500.771 430.063 500.478 430.764 500.679C431.459 500.88 431.936 501.518 431.936 502.241V638.057C431.936 654.047 421.827 668.441 406.784 673.863L375.268 685.218C375.096 685.281 374.907 685.316 374.723 685.316Z" fill="black"/>
<path d="M408.571 612.836C407.675 612.836 406.945 612.113 406.945 611.217V580.919C406.945 570.936 409.243 560.902 413.579 551.902L417.077 544.641C417.462 543.837 418.433 543.498 419.243 543.883C420.047 544.28 420.386 545.245 420.001 546.054L416.497 553.309C412.373 561.873 410.19 571.419 410.19 580.919V611.217C410.19 612.113 409.467 612.836 408.571 612.836Z" fill="black"/>
<path d="M374.482 706.671C373.586 706.671 372.862 705.942 372.862 705.046V604.497C372.862 603.607 373.586 602.871 374.482 602.871C375.372 602.871 376.101 603.607 376.101 604.497V705.046C376.101 705.942 375.372 706.671 374.482 706.671Z" fill="black"/>
<path d="M371.817 596.903H274.473C271.871 596.903 269.459 595.726 267.851 593.687C266.237 591.648 265.656 589.023 266.265 586.496L285.972 503.901C286.179 503.028 287.052 502.488 287.925 502.695C288.798 502.908 289.338 503.781 289.125 504.654L269.419 587.248C269.045 588.805 269.401 590.424 270.395 591.676C271.389 592.934 272.871 593.652 274.473 593.652H371.817C372.713 593.652 373.437 594.382 373.437 595.278C373.437 596.174 372.713 596.903 371.817 596.903Z" fill="black"/>
<path d="M447.03 881.744C434.727 881.744 422.488 881.164 410.328 880.01C371.087 876.265 332.116 866.42 294.478 850.734C257.764 835.439 223.113 814.934 191.488 789.788C159.863 764.648 132.075 735.504 108.888 703.173C85.1206 670.026 66.7293 634.26 54.2253 596.863C53.9439 596.013 54.4034 595.094 55.2535 594.807C56.1035 594.526 57.0225 594.985 57.304 595.829C107.578 746.211 252.871 861.733 410.638 876.776C568.4 891.813 732.876 805.819 810.634 667.643C888.381 529.472 876.566 344.152 781.893 216.999C777.602 211.232 773.076 205.483 768.711 199.917C759.659 188.389 750.303 176.477 742.422 163.789C728.718 141.699 721.935 120.505 722.251 100.775C722.647 76.4391 734.938 54.2111 753.577 44.1366C774.702 32.7124 802.857 39.5187 813.828 58.6911C819.623 68.8287 819.359 82.2517 813.139 93.7219C807.55 104.026 798.498 110.269 788.286 110.85C787.407 110.896 786.632 110.218 786.568 109.327C786.528 108.431 787.212 107.662 788.102 107.61C797.16 107.099 805.247 101.47 810.284 92.1768C815.884 81.8439 816.171 69.3399 811.014 60.3051C800.882 42.5916 774.765 36.3654 755.122 46.9855C737.5 56.5143 725.869 77.6453 725.49 100.827C725.18 119.925 731.808 140.521 745.179 162.078C752.962 174.616 762.261 186.454 771.267 197.907C775.644 203.495 780.181 209.262 784.495 215.057C808.038 246.682 826.889 282.212 840.507 320.661C853.793 358.167 861.834 397.638 864.401 437.97C866.974 478.302 864.016 518.473 855.602 557.37C846.975 597.231 832.799 634.875 813.46 669.234C794.121 703.598 769.309 735.252 739.717 763.304C710.844 790.672 678.059 814.043 642.258 832.756C606.458 851.475 568.561 865.07 529.613 873.152C502.078 878.867 474.416 881.744 447.03 881.744Z" fill="black"/>
<path d="M818.509 362.935C817.762 362.935 817.084 362.412 816.924 361.648C787.464 224.368 683.239 104.561 551.41 56.4284C550.566 56.1183 550.135 55.1878 550.439 54.3435C550.744 53.5049 551.68 53.0684 552.524 53.3785C617.882 77.2378 677.564 118.742 725.099 173.387C772.64 228.044 805.488 292.902 820.094 360.97C820.284 361.843 819.726 362.705 818.853 362.894C818.733 362.917 818.624 362.935 818.509 362.935Z" fill="black"/>
<path d="M99.0721 787.95C99.0721 799.92 89.3767 809.615 77.4184 809.615C65.46 809.615 55.7646 799.92 55.7646 787.95C55.7646 775.986 65.46 766.285 77.4184 766.285C89.3767 766.285 99.0721 775.986 99.0721 787.95Z" fill="#D1D1D1"/>
<path d="M87.5447 738.147C87.5447 742.776 83.7884 746.532 79.1647 746.532C74.5353 746.532 70.7847 742.776 70.7847 738.147C70.7847 733.511 74.5353 729.761 79.1647 729.761C83.7884 729.761 87.5447 733.511 87.5447 738.147Z" fill="#232323"/>
<path d="M675.635 66.6002C666.87 66.6002 659.742 73.7338 659.742 82.4987C659.742 91.2693 666.87 98.403 675.635 98.403C684.399 98.403 691.527 91.2693 691.527 82.4987C691.527 73.7338 684.399 66.6002 675.635 66.6002ZM675.635 101.648C665.089 101.648 656.497 93.0613 656.497 82.4987C656.497 71.9475 665.089 63.355 675.635 63.355C686.186 63.355 694.767 71.9475 694.767 82.4987C694.767 93.0613 686.186 101.648 675.635 101.648Z" fill="black"/>
</svg>
