<svg width="884" height="885" viewBox="0 0 884 885" fill="none" xmlns="http://www.w3.org/2000/svg">
<path d="M758.729 394.851C728.427 308.179 897.854 228.486 882.463 139.934C865.812 44.1165 632.026 -23.8679 434.297 8.85083C374.974 18.6685 151.583 55.6425 50.1561 256.596C-50.5679 456.163 9.70296 725.351 171.87 829.669C262.765 888.142 366.932 882.851 474.854 877.361C581.062 871.965 692.922 875.622 777.167 799.507C865.568 719.637 909.432 566.419 860.646 484.799C828.682 431.325 775.016 441.455 758.729 394.851Z" fill="#D1D1D1"/>
<path d="M782.594 355.939C782.594 524.747 645.755 661.585 476.948 661.585C308.141 661.585 171.297 524.747 171.297 355.939C171.297 187.137 308.141 50.2936 476.948 50.2936C645.755 50.2936 782.594 187.137 782.594 355.939Z" fill="black"/>
<path d="M744.943 355.939C744.943 524.747 608.094 661.585 439.292 661.585C270.49 661.585 133.646 524.747 133.646 355.939C133.646 187.137 270.49 50.2936 439.292 50.2936C608.094 50.2936 744.943 187.137 744.943 355.939Z" fill="#4880FF"/>
<path d="M643.058 355.939C643.058 468.476 551.828 559.705 439.292 559.705C326.756 559.705 235.526 468.476 235.526 355.939C235.526 243.403 326.756 152.179 439.292 152.179C551.828 152.179 643.058 243.403 643.058 355.939Z" fill="white"/>
<path d="M541.177 355.939C541.177 412.205 495.562 457.82 439.292 457.82C383.026 457.82 337.406 412.205 337.406 355.939C337.406 299.669 383.026 254.059 439.292 254.059C495.562 254.059 541.177 299.669 541.177 355.939Z" fill="#4880FF"/>
<path d="M430.401 360.439L478.401 306.653L485.578 313.835L431.792 361.835C430.865 362.663 429.573 361.366 430.401 360.439Z" fill="white"/>
<path d="M478.469 308.981L438.735 353.502L483.255 313.767L478.469 308.981ZM431.136 363.689C430.479 363.689 429.818 363.434 429.307 362.924C428.323 361.939 428.287 360.419 429.214 359.377L477.209 305.596C477.505 305.267 477.917 305.075 478.36 305.064C478.787 305.023 479.219 305.215 479.526 305.528L486.709 312.705C487.016 313.017 487.182 313.439 487.172 313.882C487.156 314.32 486.969 314.731 486.641 315.023L432.86 363.028C432.36 363.471 431.745 363.689 431.136 363.689Z" fill="black"/>
<path d="M479.667 315.215L477.016 312.57C474.974 310.517 474.974 307.2 477.016 305.153L498.109 284.054L508.177 294.122L487.083 315.215C485.036 317.268 481.714 317.268 479.667 315.215Z" fill="white"/>
<path d="M498.11 286.314L478.146 306.278C476.724 307.7 476.724 310.017 478.146 311.439L480.792 314.085C482.172 315.465 484.578 315.465 485.953 314.085L505.922 294.122L498.11 286.314ZM483.375 318.346C481.547 318.346 479.828 317.637 478.537 316.346L475.886 313.695C473.219 311.028 473.219 306.689 475.886 304.023L496.985 282.929C497.61 282.304 498.62 282.304 499.24 282.929L509.308 292.991C509.604 293.294 509.771 293.695 509.771 294.122C509.771 294.544 509.604 294.95 509.308 295.252L488.209 316.346C486.922 317.637 485.203 318.346 483.375 318.346Z" fill="black"/>
<path d="M494.99 301.783L490.453 297.247C486.943 293.731 486.943 288.038 490.453 284.528L725.542 49.4342C729.057 45.9238 734.755 45.9238 738.266 49.4342L742.802 53.9707C746.312 57.4863 746.312 63.179 742.802 66.6946L507.703 301.783C504.193 305.294 498.505 305.294 494.99 301.783Z" fill="white"/>
<path d="M731.896 48.4029C729.927 48.4029 728.073 49.1685 726.667 50.5644L491.578 285.658C488.693 288.538 488.693 293.231 491.578 296.122L496.115 300.658C499.006 303.538 503.698 303.538 506.573 300.658L741.672 65.5644C744.547 62.6842 744.547 57.9862 741.672 55.106L737.131 50.5644C735.735 49.1685 733.875 48.4029 731.896 48.4029ZM501.344 306.007C498.636 306.007 495.927 304.976 493.86 302.913L489.323 298.377C485.193 294.247 485.193 287.528 489.323 283.403L724.412 48.3092C726.417 46.3092 729.068 45.2102 731.896 45.2102C734.73 45.2102 737.386 46.3092 739.386 48.3092L743.927 52.8456C748.052 56.9758 748.052 63.6946 743.927 67.8248L508.834 302.913C506.776 304.976 504.058 306.007 501.344 306.007Z" fill="black"/>
<path d="M655.896 119.085L648.756 84.3873C645.943 70.7102 650.188 56.5331 660.058 46.6633L704.292 2.43933C705.901 0.824746 708.657 1.65287 709.11 3.87683L719.693 55.2883L655.896 119.085Z" fill="#828282"/>
<path d="M706.303 3.1893C706.047 3.1893 705.719 3.26743 705.422 3.55909L661.188 47.7883C651.672 57.3143 647.599 70.8716 650.318 84.0591L656.86 115.856L717.959 54.7622L707.553 4.19972C707.407 3.53305 706.896 3.30909 706.678 3.24659C706.589 3.22055 706.454 3.1893 706.303 3.1893ZM655.901 120.679C655.75 120.679 655.594 120.658 655.438 120.611C654.875 120.439 654.454 119.981 654.339 119.403L647.193 84.7101C644.266 70.4601 648.651 55.8195 658.938 45.5331L703.162 1.30388C704.329 0.147635 706.026 -0.284657 707.594 0.189301C709.167 0.658051 710.349 1.95493 710.678 3.55388L721.256 54.9601C721.365 55.4862 721.209 56.0331 720.823 56.4133L657.026 120.21C656.724 120.517 656.318 120.679 655.901 120.679Z" fill="black"/>
<path d="M673.162 136.335L707.86 143.476C721.532 146.288 735.704 142.038 745.584 132.168L789.803 87.9393C791.417 86.33 790.589 83.5747 788.36 83.1164L736.954 72.5331L673.162 136.335Z" fill="#828282"/>
<path d="M676.38 135.366L708.177 141.913C721.37 144.622 734.927 140.564 744.448 131.043L788.677 86.8091C789.156 86.3352 789.052 85.7727 788.995 85.5591C788.927 85.3352 788.698 84.8195 788.037 84.6789L737.474 74.2727L676.38 135.366ZM716.271 145.929C713.37 145.929 710.443 145.637 707.526 145.038L672.833 137.898C672.261 137.778 671.797 137.356 671.63 136.794C671.458 136.226 671.615 135.616 672.031 135.205L735.828 71.4081C736.203 71.0279 736.755 70.8612 737.271 70.9758L788.677 81.5539C790.292 81.882 791.578 83.0643 792.052 84.6372C792.521 86.2154 792.094 87.9081 790.932 89.0695L746.708 133.299C738.521 141.481 727.578 145.929 716.271 145.929Z" fill="black"/>
<path d="M771.532 99.9445C771.438 99.9445 771.339 99.9393 771.235 99.9185L729.448 92.1008C728.589 91.9341 728.016 91.106 728.178 90.2362C728.339 89.3664 729.167 88.7987 730.037 88.9602L771.829 96.7779C772.693 96.9393 773.266 97.7727 773.1 98.6425C772.954 99.4081 772.287 99.9445 771.532 99.9445Z" fill="black"/>
<path d="M754.553 116.929C754.454 116.929 754.355 116.913 754.261 116.898L712.469 109.08C711.6 108.919 711.032 108.085 711.193 107.221C711.36 106.351 712.193 105.778 713.053 105.939L754.844 113.762C755.714 113.924 756.277 114.757 756.121 115.622C755.98 116.392 755.308 116.929 754.553 116.929Z" fill="black"/>
<path d="M657.756 144.689C657.349 144.689 656.948 144.533 656.636 144.221L648.011 135.601C647.386 134.981 647.386 133.965 648.011 133.34C648.636 132.721 649.646 132.721 650.271 133.34L658.891 141.965C659.516 142.59 659.516 143.596 658.891 144.221C658.584 144.533 658.172 144.689 657.756 144.689Z" fill="black"/>
<path d="M667.729 134.721C667.323 134.721 666.912 134.57 666.604 134.252L657.979 125.632C657.354 125.007 657.354 124.002 657.979 123.372C658.604 122.752 659.62 122.752 660.24 123.372L668.86 131.997C669.485 132.622 669.485 133.627 668.86 134.252C668.552 134.57 668.141 134.721 667.729 134.721Z" fill="black"/>
<path d="M677.708 124.741C677.297 124.741 676.885 124.59 676.578 124.278L667.953 115.658C667.333 115.033 667.333 114.023 667.953 113.398C668.583 112.778 669.589 112.778 670.214 113.398L678.833 122.023C679.458 122.648 679.458 123.658 678.833 124.278C678.521 124.59 678.109 124.741 677.708 124.741Z" fill="black"/>
<path d="M91.2972 99.1842C90.417 99.1842 89.6982 98.4654 89.6982 97.5852V89.3352C89.6982 88.455 90.417 87.7415 91.2972 87.7415C92.1826 87.7415 92.8962 88.455 92.8962 89.3352V97.5852C92.8962 98.4654 92.1826 99.1842 91.2972 99.1842Z" fill="black"/>
<path d="M91.2969 118.403C90.4167 118.403 89.7031 117.689 89.7031 116.809V108.559C89.7031 107.674 90.4167 106.96 91.2969 106.96C92.1823 106.96 92.8958 107.674 92.8958 108.559V116.809C92.8958 117.689 92.1823 118.403 91.2969 118.403Z" fill="black"/>
<path d="M85.8128 104.663H77.5628C76.6774 104.663 75.9639 103.95 75.9639 103.07C75.9639 102.189 76.6774 101.471 77.5628 101.471H85.8128C86.6982 101.471 87.4118 102.189 87.4118 103.07C87.4118 103.95 86.6982 104.663 85.8128 104.663Z" fill="black"/>
<path d="M105.036 104.663H96.7865C95.901 104.663 95.1875 103.95 95.1875 103.07C95.1875 102.189 95.901 101.471 96.7865 101.471H105.036C105.917 101.471 106.635 102.189 106.635 103.07C106.635 103.95 105.917 104.663 105.036 104.663Z" fill="black"/>
<path d="M572.693 21.3665C571.813 21.3665 571.1 20.653 571.1 19.7675V11.5123C571.1 10.6373 571.813 9.91858 572.693 9.91858C573.574 9.91858 574.292 10.6373 574.292 11.5123V19.7675C574.292 20.653 573.574 21.3665 572.693 21.3665Z" fill="black"/>
<path d="M572.688 40.5956C571.812 40.5956 571.094 39.8769 571.094 38.9967V30.7415C571.094 29.8665 571.812 29.1477 572.688 29.1477C573.573 29.1477 574.286 29.8665 574.286 30.7415V38.9967C574.286 39.8769 573.573 40.5956 572.688 40.5956Z" fill="black"/>
<path d="M567.208 26.856H558.953C558.073 26.856 557.359 26.1425 557.359 25.2571C557.359 24.3769 558.073 23.6633 558.953 23.6633H567.208C568.083 23.6633 568.802 24.3769 568.802 25.2571C568.802 26.1425 568.083 26.856 567.208 26.856Z" fill="black"/>
<path d="M586.438 26.856H578.177C577.302 26.856 576.589 26.1425 576.589 25.2571C576.589 24.3769 577.302 23.6633 578.177 23.6633H586.438C587.313 23.6633 588.026 24.3769 588.026 25.2571C588.026 26.1425 587.313 26.856 586.438 26.856Z" fill="black"/>
<path d="M357.292 715.361C357.271 715.361 357.245 715.361 357.219 715.361C356.339 715.32 355.656 714.57 355.698 713.695L356.084 705.45C356.125 704.57 356.88 703.898 357.755 703.934C358.636 703.971 359.318 704.721 359.276 705.601L358.886 713.846C358.844 714.7 358.146 715.361 357.292 715.361Z" fill="black"/>
<path d="M356.391 734.57C356.37 734.57 356.344 734.57 356.313 734.559C355.438 734.523 354.761 733.778 354.797 732.892L355.183 724.648C355.224 723.773 355.969 723.096 356.855 723.132C357.735 723.174 358.412 723.924 358.375 724.799L357.985 733.043C357.948 733.903 357.24 734.57 356.391 734.57Z" fill="black"/>
<path d="M351.558 720.585C351.532 720.585 351.506 720.585 351.485 720.585L343.235 720.195C342.36 720.158 341.678 719.408 341.714 718.528C341.761 717.648 342.506 716.986 343.386 717.007L351.631 717.398C352.511 717.434 353.193 718.184 353.152 719.064C353.11 719.919 352.402 720.585 351.558 720.585Z" fill="black"/>
<path d="M370.76 721.486C370.734 721.486 370.713 721.486 370.682 721.486L362.443 721.096C361.562 721.059 360.88 720.309 360.922 719.429C360.963 718.549 361.713 717.893 362.588 717.908L370.833 718.299C371.713 718.335 372.396 719.085 372.354 719.971C372.312 720.82 371.609 721.486 370.76 721.486Z" fill="black"/>
<path d="M756.652 202.486C756.235 202.486 755.823 202.33 755.511 202.002C754.891 201.372 754.907 200.361 755.542 199.747L840.709 116.799C841.334 116.189 842.344 116.2 842.964 116.83C843.579 117.465 843.568 118.476 842.933 119.085L757.766 202.033C757.459 202.335 757.053 202.486 756.652 202.486Z" fill="black"/>
<path d="M415.276 817.939C414.859 817.939 414.443 817.778 414.13 817.46C413.515 816.825 413.531 815.814 414.161 815.2L547.323 685.512C547.958 684.892 548.969 684.908 549.578 685.538C550.198 686.169 550.182 687.179 549.552 687.794L416.39 817.486C416.073 817.788 415.677 817.939 415.276 817.939Z" fill="black"/>
<path d="M788.464 124.96C788.058 124.96 787.641 124.804 787.329 124.481C786.709 123.856 786.714 122.846 787.349 122.226L876.875 34.0488C877.511 33.429 878.526 33.4394 879.136 34.0644C879.756 34.6946 879.75 35.705 879.12 36.3196L789.589 124.502C789.276 124.809 788.865 124.96 788.464 124.96Z" fill="black"/>
<path d="M351.558 241.653C351.141 241.653 350.725 241.491 350.412 241.174C349.803 240.538 349.813 239.533 350.443 238.913L414.928 176.111C415.553 175.502 416.568 175.517 417.183 176.148C417.798 176.773 417.782 177.788 417.152 178.403L352.673 241.2C352.36 241.507 351.964 241.653 351.558 241.653Z" fill="black"/>
<path d="M406.907 582.544C406.496 582.544 406.074 582.377 405.766 582.059C405.147 581.429 405.162 580.413 405.792 579.799L505.553 482.643C506.183 482.028 507.193 482.038 507.813 482.669C508.423 483.299 508.412 484.314 507.782 484.929L408.022 582.091C407.709 582.393 407.308 582.544 406.907 582.544Z" fill="black"/>
<path d="M495.433 788.132C495.021 788.132 494.605 787.976 494.292 787.653C493.678 787.017 493.688 786.012 494.323 785.398L558.803 722.596C559.433 721.981 560.448 721.991 561.058 722.627C561.678 723.257 561.662 724.267 561.032 724.882L496.553 787.679C496.24 787.986 495.834 788.132 495.433 788.132Z" fill="black"/>
<path d="M435.058 751.601C434.641 751.601 434.23 751.439 433.917 751.122C433.303 750.486 433.318 749.476 433.948 748.861L465.261 718.361C465.896 717.747 466.902 717.757 467.521 718.392C468.131 719.023 468.12 720.033 467.485 720.648L436.172 751.148C435.865 751.445 435.464 751.601 435.058 751.601Z" fill="black"/>
<path d="M355.276 188.799C354.86 188.799 354.448 188.637 354.136 188.32C353.521 187.689 353.521 186.684 354.151 186.059L443.688 97.8821C444.313 97.2675 445.323 97.2727 445.943 97.8977C446.558 98.5279 446.552 99.5384 445.922 100.158L356.391 188.34C356.078 188.643 355.672 188.799 355.276 188.799Z" fill="black"/>
<path d="M275.902 809.288L271.021 843.903H287.006L297.423 806.299L275.902 809.288Z" fill="white"/>
<path d="M272.86 842.304H285.792L295.235 808.215L277.318 810.705L272.86 842.304ZM287.005 845.497H271.021C270.558 845.497 270.12 845.299 269.818 844.95C269.511 844.601 269.375 844.137 269.438 843.679L274.323 809.064C274.422 808.361 274.979 807.809 275.683 807.71L297.203 804.721C297.74 804.642 298.271 804.846 298.625 805.252C298.979 805.653 299.104 806.21 298.959 806.726L288.542 844.33C288.349 845.017 287.724 845.497 287.005 845.497Z" fill="black"/>
<path d="M341.761 872.117H268.787C264.984 872.117 262.068 868.283 262.625 864.012C263.875 854.32 266.094 838.585 268.005 832.169C270.865 822.585 280.094 837.856 280.094 837.856L290.287 828.106C290.287 828.106 333.594 848.69 344.641 865.544C346.412 868.262 344.734 872.117 341.761 872.117Z" fill="#828282"/>
<path d="M270.964 830.606C270.922 830.606 270.88 830.606 270.839 830.611C270.38 830.669 269.896 831.424 269.537 832.627C267.63 839.023 265.375 855.169 264.203 864.221C263.974 865.992 264.474 867.736 265.578 868.986C266.443 869.971 267.583 870.518 268.787 870.518H341.761C342.688 870.518 343.193 869.83 343.417 869.413C343.927 868.476 343.875 867.299 343.302 866.419C333.542 851.523 297.078 833.205 290.589 830.028L281.198 839.012C280.849 839.346 280.365 839.497 279.886 839.439C279.406 839.372 278.984 839.096 278.734 838.684C276.328 834.71 272.693 830.606 270.964 830.606ZM341.761 873.71H268.787C266.651 873.71 264.662 872.778 263.177 871.09C261.474 869.153 260.693 866.497 261.037 863.809C262.484 852.632 264.604 837.997 266.479 831.716C267.25 829.111 268.583 827.684 270.432 827.439C274.146 826.992 278.261 832.179 280.396 835.361L289.182 826.955C289.662 826.497 290.375 826.382 290.974 826.669C292.755 827.512 334.813 847.637 345.969 864.674C347.198 866.549 347.297 868.945 346.224 870.934C345.287 872.669 343.615 873.71 341.761 873.71Z" fill="black"/>
<path d="M337.334 867.403H269.167C268.282 867.403 267.568 866.684 267.568 865.809C267.568 864.924 268.282 864.21 269.167 864.21H337.334C338.214 864.21 338.928 864.924 338.928 865.809C338.928 866.684 338.214 867.403 337.334 867.403Z" fill="black"/>
<path d="M187.089 783.747C185.583 787.611 168.547 827.2 168.547 827.2L181.365 843.262L190.229 832.908L207.724 787.611L187.089 783.747Z" fill="white"/>
<path d="M170.391 826.955L181.412 840.757L188.839 832.075L205.542 788.83L188.079 785.554C185.173 792.57 172.782 821.387 170.391 826.955ZM181.365 844.856C181.36 844.856 181.35 844.856 181.339 844.856C180.86 844.846 180.417 844.632 180.12 844.252L167.298 828.2C166.933 827.736 166.85 827.111 167.079 826.575C167.251 826.179 184.12 786.966 185.605 783.163C185.881 782.45 186.631 782.033 187.386 782.174L208.016 786.044C208.485 786.127 208.886 786.424 209.115 786.835C209.35 787.247 209.381 787.742 209.214 788.19L191.719 833.481C191.657 833.653 191.563 833.809 191.443 833.945L182.579 844.299C182.277 844.653 181.834 844.856 181.365 844.856Z" fill="black"/>
<path d="M158.865 824.387C156.594 826.585 155.844 829.913 156.943 832.882C160.678 842.96 170.771 865.315 188.766 871.882C203.094 877.117 212.896 877.137 218.365 876.361C220.959 875.986 222.297 873.049 220.917 870.82C214.922 861.153 200.797 837.278 199.511 824.966C197.87 809.304 179.24 827.997 179.24 827.997L169.209 814.372L158.865 824.387Z" fill="#828282"/>
<path d="M169.006 816.788L159.975 825.533C159.975 825.533 159.975 825.533 159.975 825.538C158.162 827.288 157.558 829.955 158.438 832.325C161.891 841.637 171.803 863.986 189.313 870.382C203.152 875.439 212.626 875.564 218.141 874.778C218.824 874.679 219.381 874.268 219.678 873.632C219.98 872.986 219.938 872.268 219.558 871.658C213.496 861.882 199.246 837.768 197.923 825.137C197.647 822.491 196.86 820.919 195.589 820.471C192.037 819.215 184.371 825.111 180.371 829.122C180.042 829.45 179.584 829.616 179.121 829.585C178.657 829.549 178.235 829.32 177.954 828.939L169.006 816.788ZM212.824 878.325C206.886 878.325 198.72 877.215 188.22 873.382C169.459 866.528 159.053 843.169 155.449 833.439C154.126 829.877 155.032 825.872 157.756 823.241L168.1 813.221C168.433 812.898 168.876 812.747 169.345 812.778C169.798 812.82 170.22 813.049 170.496 813.419L179.449 825.585C182.792 822.502 191.167 815.518 196.652 817.46C199.188 818.356 200.683 820.83 201.1 824.804C202.35 836.778 216.324 860.387 222.277 869.976C223.214 871.497 223.324 873.366 222.568 874.981C221.818 876.585 220.334 877.689 218.595 877.939C216.985 878.169 215.058 878.325 212.824 878.325Z" fill="black"/>
<path d="M210.437 870.892C210.354 870.892 210.276 870.882 210.193 870.877C170.5 864.757 160.948 830.918 160.859 830.58C160.63 829.726 161.13 828.856 161.984 828.622C162.833 828.398 163.708 828.898 163.937 829.747C164.026 830.069 173.099 861.929 210.677 867.721C211.547 867.851 212.146 868.668 212.01 869.538C211.891 870.33 211.213 870.892 210.437 870.892Z" fill="black"/>
<path d="M192.136 849.455C191.547 849.455 190.99 849.127 190.709 848.575C190.308 847.788 190.626 846.83 191.412 846.429L204.141 840.007C204.928 839.611 205.886 839.924 206.282 840.715C206.683 841.497 206.365 842.46 205.579 842.856L192.849 849.278C192.62 849.392 192.376 849.455 192.136 849.455Z" fill="black"/>
<path d="M297.423 852.773C297.126 852.773 296.824 852.689 296.558 852.512C295.818 852.038 295.605 851.049 296.084 850.309L304.808 836.804C305.287 836.07 306.272 835.856 307.011 836.335C307.751 836.809 307.964 837.799 307.485 838.544L298.761 852.044C298.459 852.512 297.943 852.773 297.423 852.773Z" fill="black"/>
<path d="M242.193 555.184C242.193 555.184 215.948 534.158 229.802 522.788C242.193 512.617 251.766 513.148 251.766 513.148L242.193 555.184Z" fill="#828282"/>
<path d="M249.735 514.877C246.454 515.299 239.313 517.043 230.813 524.017C228.474 525.939 227.344 528.21 227.36 530.95C227.407 538.955 236.995 548.445 241.224 552.241L249.735 514.877ZM242.193 556.773C241.834 556.773 241.48 556.653 241.193 556.424C240.501 555.872 224.24 542.71 224.167 530.971C224.146 527.257 225.698 524.085 228.787 521.554C241.516 511.106 251.448 511.528 251.855 511.554C252.323 511.58 252.761 511.809 253.042 512.184C253.323 512.564 253.428 513.043 253.323 513.502L243.751 555.533C243.626 556.07 243.235 556.502 242.719 556.684C242.547 556.741 242.365 556.773 242.193 556.773Z" fill="black"/>
<path d="M261.23 503.064C261.23 503.064 226.193 531.455 218.021 560.762C211.23 585.117 198.495 727.205 198.495 727.205C198.495 727.205 178.12 783.898 177.1 800.387C177.1 800.387 193.266 811.919 205.683 810.148L234.001 741.523C234.001 741.523 240.251 733.236 243.298 723.606C246.344 713.976 272.084 623.377 272.084 623.377C272.084 623.377 274.167 757.356 270.1 814.372C270.1 814.372 288.568 817.195 299.589 814.799C299.589 814.799 303.813 768.288 308.829 756.908C313.85 745.523 314.917 727.695 313.313 710.611C311.709 693.528 328.579 596.627 324.204 511.117L261.23 503.064Z" fill="black"/>
<path d="M206.8 759.418L206.8 759.418L206.799 759.414C206.748 758.91 207.117 758.457 207.63 758.405L207.642 758.404L207.654 758.402C207.646 758.403 207.723 758.393 207.818 758.38C207.92 758.365 208.064 758.342 208.245 758.31C208.609 758.245 209.125 758.141 209.767 757.978C211.05 757.652 212.838 757.093 214.911 756.15C219.06 754.264 224.355 750.843 229.046 744.698L229.048 744.695C229.354 744.291 229.938 744.211 230.346 744.522C230.757 744.835 230.835 745.417 230.523 745.827C220.555 758.88 208.248 760.207 207.815 760.25L207.815 760.25C207.759 760.256 207.739 760.257 207.719 760.257C207.251 760.257 206.845 759.899 206.8 759.418Z" fill="#E8EAED" stroke="#E8EAED" stroke-width="1.33333"/>
<path d="M260.908 661.06L260.902 661.058C260.418 660.908 260.141 660.388 260.294 659.892C260.294 659.892 260.294 659.891 260.294 659.891L280.944 593.648L280.945 593.646C281.019 593.405 281.183 593.212 281.389 593.11L281.396 593.107L281.403 593.103L296.989 584.969C296.989 584.969 296.99 584.969 296.99 584.969C297.453 584.73 298.013 584.91 298.248 585.362C298.484 585.816 298.309 586.379 297.852 586.62C297.852 586.62 297.852 586.62 297.851 586.62L282.849 594.442L282.603 594.57L282.52 594.835L262.068 660.449C261.943 660.845 261.576 661.101 261.183 661.101C261.082 661.101 260.996 661.088 260.908 661.06Z" fill="#E8EAED" stroke="#E8EAED" stroke-width="1.33333"/>
<path d="M227.324 528.314C226.61 523.944 239.068 517.049 242.402 516.017C250.485 513.512 258.98 515.642 266.277 519.481C296.313 535.288 331.969 527.335 331.969 527.335C331.969 527.335 336.959 455.491 322.048 415.778C319.699 409.523 313.527 403.168 307.001 401.741C293.016 398.684 283.079 394.205 267.865 393.179C256.464 392.413 234.173 394.418 227.204 395.929C220.173 397.46 211.094 405.116 212.943 409.752L229.381 433.648C221.985 481.22 222.235 497.158 227.324 528.314Z" fill="#FFC700"/>
<path d="M249.688 513.346C256.365 513.346 262.526 515.705 267.021 518.07C293.167 531.825 324.099 527.169 330.448 526.007C331.011 516.393 334.12 452.46 320.558 416.335C318.224 410.127 312.25 404.523 306.662 403.299C301.844 402.247 297.5 401.023 293.297 399.846C285.235 397.575 277.615 395.434 267.761 394.773C256.839 394.038 234.703 395.934 227.542 397.492C222.787 398.528 216.881 402.695 214.907 406.413C214.516 407.148 214.125 408.174 214.375 409.018L230.693 432.736C230.927 433.075 231.021 433.486 230.959 433.893C223.974 478.825 223.891 495.632 228.125 523.179C232.198 518.835 240.141 515.044 241.927 514.497C244.547 513.679 247.151 513.346 249.688 513.346ZM310.214 530.981C297.407 530.981 280.844 528.95 265.532 520.898C259.87 517.919 251.344 514.913 242.87 517.544C238.651 518.851 228.459 525.382 228.896 528.059C229.042 528.924 228.448 529.747 227.578 529.893C226.714 530.038 225.891 529.439 225.745 528.575C225.745 528.57 225.745 528.564 225.745 528.559C220.714 497.736 220.355 481.492 227.703 434.028L211.625 410.653C211.558 410.559 211.5 410.455 211.459 410.34C211.016 409.236 210.771 407.398 212.089 404.919C214.516 400.346 221.146 395.617 226.865 394.372C234.203 392.778 256.453 390.82 267.974 391.585C278.162 392.268 285.933 394.46 294.162 396.773C298.318 397.945 302.615 399.148 307.344 400.179C314.891 401.835 321.209 408.997 323.542 415.215C338.407 454.799 333.61 526.726 333.563 527.45C333.511 528.153 333.006 528.742 332.318 528.893C331.589 529.054 322.677 530.981 310.214 530.981Z" fill="black"/>
<path d="M271.928 375.929C268.605 379.163 264.443 379.799 262.428 380.101C258.224 380.736 240.235 381.726 228.12 368.174C216.266 354.903 215.058 333.299 221.829 328.898C226.683 325.736 234.407 332.252 241.73 327.34C244.969 325.169 244.204 323.387 247.651 321.08C253.454 317.195 260.922 318.7 266.631 319.929C277.063 322.174 276.719 325.059 285.891 327.356C298.959 330.622 306.391 326.465 308.948 330.674C310.99 334.023 308.381 340.137 304.855 343.684C297.563 351.023 288.521 344.825 282.907 351.596C279.422 355.799 279.922 361.564 274.735 371.981C274.318 372.814 273.516 374.382 271.928 375.929Z" fill="black"/>
<path d="M282.125 386.075C281.74 384.736 281.328 383.252 280.932 381.695C283.88 382.908 286.974 383.101 288.802 382.106C291.057 380.866 291.464 378.429 292.375 375.517C292.755 374.293 293.099 372.872 294.37 371.632C295.047 370.976 295.807 370.543 296.531 370.247C297.427 369.892 297.901 368.908 297.656 367.976L297.422 367.424C295.573 363.07 294.594 358.387 294.542 353.653L294.443 344.304C289.339 342.278 287.479 342.616 286.781 343.429C286.526 343.726 286.151 343.918 286.167 345.361C286.25 352.309 280.005 351.596 274.781 350.314C269.557 349.038 271.391 358.726 271.391 358.726C271.391 358.726 268.146 354.538 264.542 358.179C261.953 360.783 266.984 365.049 270.042 367.262L267.974 387.34C267.427 392.627 262.458 392.575 257.469 394.403L244.016 397.767C244.016 397.767 279.203 413.413 300.885 402.356L289.266 398.377C285.292 396.241 283.161 389.637 282.125 386.075Z" fill="white"/>
<path d="M249.24 398.106C258.589 401.523 280.376 408.137 296.438 402.518L288.751 399.887C288.667 399.861 288.589 399.825 288.511 399.783C284.198 397.465 281.928 391.101 280.594 386.528C280.152 385.002 279.745 383.507 279.386 382.085C279.235 381.502 279.433 380.882 279.886 380.486C280.344 380.09 280.985 379.986 281.542 380.221C284.058 381.252 286.667 381.45 288.032 380.7C289.334 379.991 289.766 378.689 290.485 376.262C290.599 375.861 290.719 375.455 290.849 375.038L290.954 374.715C291.334 373.46 291.808 371.903 293.256 370.491C294.006 369.762 294.907 369.184 295.938 368.768C296.058 368.721 296.131 368.59 296.126 368.455L295.954 368.049C294.011 363.476 293.001 358.637 292.948 353.669L292.855 345.408C288.855 343.945 287.985 344.481 287.974 344.491C287.943 344.528 287.896 344.58 287.844 344.632C287.818 344.643 287.756 344.809 287.761 345.346C287.797 348.007 287.006 349.997 285.412 351.262C282.605 353.502 278.053 352.762 274.402 351.866C273.688 351.689 273.485 351.887 273.407 351.96C272.485 352.83 272.553 356.278 272.959 358.429C273.094 359.158 272.719 359.877 272.042 360.184C271.37 360.481 270.579 360.283 270.131 359.7C269.839 359.335 268.823 358.346 267.74 358.288C267.058 358.257 266.386 358.585 265.672 359.299C265.443 359.533 265.407 359.71 265.428 359.929C265.511 360.971 267.016 363.101 270.98 365.965C271.438 366.304 271.688 366.861 271.631 367.424L269.563 387.507C269.027 392.695 265.032 393.83 261.167 394.924C260.136 395.215 259.068 395.518 258.021 395.903C257.964 395.919 257.912 395.939 257.855 395.95L249.24 398.106ZM281.907 407.929C263.235 407.929 244.438 399.7 243.37 399.226C242.745 398.95 242.37 398.309 242.428 397.627C242.49 396.95 242.969 396.382 243.631 396.221L257.006 392.872C258.136 392.465 259.235 392.153 260.297 391.851C264.198 390.747 266.084 390.085 266.386 387.179L268.36 368.002C264.49 365.08 262.433 362.45 262.245 360.195C262.146 359.002 262.547 357.919 263.407 357.054C265.126 355.32 266.829 355.033 267.948 355.106C268.495 355.137 269.006 355.252 269.469 355.424C269.454 353.366 269.797 350.986 271.209 349.648C271.912 348.976 273.172 348.283 275.162 348.762C276.725 349.148 281.48 350.309 283.428 348.762C284.214 348.137 284.589 347.028 284.568 345.382C284.553 343.799 284.938 343.054 285.532 342.434C287.042 340.679 289.959 340.804 295.027 342.814C295.631 343.059 296.027 343.637 296.037 344.283L296.141 353.632C296.188 358.184 297.115 362.616 298.891 366.799L299.126 367.356C299.157 367.429 299.183 367.502 299.204 367.575C299.652 369.288 298.761 371.075 297.131 371.731C296.485 371.991 295.933 372.34 295.485 372.778C294.62 373.622 294.323 374.606 294.006 375.648L293.896 375.986C293.771 376.393 293.657 376.783 293.547 377.163C292.792 379.715 292.084 382.122 289.568 383.502C287.959 384.387 285.667 384.564 283.214 384.059C283.36 384.58 283.506 385.101 283.662 385.627C283.662 385.632 283.662 385.632 283.662 385.632C284.329 387.929 286.349 394.877 289.917 396.913L301.402 400.84C302.011 401.049 302.433 401.601 302.48 402.241C302.521 402.882 302.183 403.481 301.61 403.773C295.657 406.809 288.792 407.929 281.907 407.929Z" fill="black"/>
<path d="M281.855 383.288C281.677 383.288 281.5 383.262 281.328 383.205C274.99 381.007 272.433 372.486 272.328 372.127C272.078 371.278 272.563 370.392 273.412 370.142C274.256 369.898 275.141 370.382 275.391 371.226C275.412 371.304 277.599 378.538 282.375 380.184C283.209 380.476 283.646 381.382 283.36 382.215C283.131 382.877 282.516 383.288 281.855 383.288Z" fill="black"/>
<path d="M279.787 515.184L372.12 515.044C374.459 515.044 376.495 513.445 377.052 511.174L395.579 435.991C396.37 432.778 393.933 429.679 390.625 429.679L298.297 429.825C295.959 429.825 293.922 431.429 293.36 433.7L274.839 508.877C274.047 512.09 276.48 515.189 279.787 515.184Z" fill="#D1D1D1"/>
<path d="M390.636 431.278H390.631L298.297 431.424C296.688 431.424 295.297 432.517 294.912 434.08L276.391 509.257C276.131 510.309 276.365 511.398 277.032 512.252C277.698 513.101 278.698 513.59 279.782 513.59H279.787L372.115 513.45C373.724 513.445 375.12 512.351 375.506 510.794L394.026 435.611C394.287 434.554 394.052 433.465 393.386 432.616C392.719 431.762 391.714 431.278 390.636 431.278ZM279.782 516.783C277.714 516.783 275.797 515.846 274.521 514.221C273.245 512.59 272.792 510.507 273.287 508.497L291.813 433.32C292.547 430.325 295.214 428.236 298.297 428.231L390.625 428.085C390.631 428.085 390.631 428.085 390.636 428.085C392.703 428.085 394.62 429.023 395.896 430.642C397.177 432.278 397.625 434.366 397.125 436.377L378.599 511.554C377.87 514.544 375.198 516.637 372.12 516.643L279.792 516.783C279.787 516.783 279.787 516.783 279.782 516.783Z" fill="black"/>
<path d="M388.771 467.043L386.073 474.564L363.86 464.028C363.86 464.028 351.667 474.622 381.277 488.122C393.615 493.741 388.771 467.043 388.771 467.043Z" fill="white"/>
<path d="M364.25 465.981C363.584 466.882 362.704 468.554 363.042 470.788C363.584 474.351 367.308 479.991 381.938 486.668C384.516 487.84 385.495 487.08 385.813 486.83C388 485.132 388.365 479.372 388 473.918L387.579 475.106C387.422 475.533 387.099 475.866 386.683 476.043C386.266 476.21 385.797 476.2 385.386 476.012L364.25 465.981ZM384.355 490.486C383.308 490.486 382.068 490.231 380.615 489.57C367.771 483.715 360.792 477.533 359.875 471.189C359.136 466.085 362.657 462.955 362.813 462.825C363.287 462.408 363.969 462.32 364.537 462.585L385.167 472.366L387.271 466.502C387.516 465.825 388.177 465.403 388.907 465.455C389.625 465.512 390.214 466.049 390.344 466.762C390.677 468.606 393.448 484.929 387.776 489.351C387.006 489.945 385.886 490.486 384.355 490.486Z" fill="black"/>
<path d="M228.901 561.299C233.375 562.262 235.818 562.361 237.948 556.241C239.031 553.116 234.537 544.564 233.422 541.45C226.599 522.33 224.13 503.799 227.308 483.887C230.63 463.033 237.896 441.028 232.146 420.106C230.214 413.08 223.422 395.21 213.563 405.814C211.531 407.991 210.203 410.726 209.542 413.632C204.078 437.59 199.474 462.122 199.599 486.861C199.709 509.075 207.745 530.148 218.526 549.59C221.198 554.398 224.526 560.351 228.901 561.299Z" fill="white"/>
<path d="M219.589 404.127C218.052 404.127 216.459 405.038 214.73 406.898C212.98 408.778 211.724 411.231 211.099 413.986C205.881 436.872 201.068 461.543 201.193 486.851C201.287 505.997 207.412 526.267 219.922 548.819C222.297 553.09 225.547 558.944 229.24 559.741C233.167 560.585 234.636 560.903 236.438 555.715C237.063 553.934 234.469 547.981 233.224 545.122C232.677 543.866 232.204 542.783 231.922 541.986C224.615 521.512 222.646 502.976 225.73 483.632C226.485 478.913 227.454 474.054 228.386 469.356C231.62 453.148 234.964 436.387 230.605 420.533C228.579 413.158 224.672 405.262 220.506 404.241C220.204 404.168 219.896 404.127 219.589 404.127ZM232.37 563.377C231.198 563.377 229.933 563.153 228.568 562.861C223.459 561.757 219.948 555.439 217.131 550.366C204.355 527.335 198.099 506.559 198 486.866C197.875 461.236 202.724 436.351 207.985 413.278C208.735 409.976 210.261 407.017 212.391 404.726C215.287 401.611 218.276 400.408 221.271 401.137C228.547 402.924 232.61 415.788 233.683 419.689C238.245 436.267 234.823 453.408 231.521 469.981C230.589 474.648 229.625 479.476 228.886 484.137C225.886 502.924 227.808 520.965 234.927 540.913C235.177 541.611 235.625 542.648 236.151 543.846C238.521 549.299 240.407 554.028 239.459 556.767C237.646 561.971 235.302 563.377 232.37 563.377Z" fill="black"/>
<path d="M220.391 563.866C219.511 563.866 218.797 563.163 218.792 562.278C218.792 561.403 219.5 560.684 220.381 560.679C252.063 560.491 264.042 527.148 264.157 526.814C264.448 525.981 265.354 525.538 266.188 525.83C267.021 526.116 267.464 527.028 267.172 527.861C267.047 528.221 254.313 563.669 220.401 563.866C220.396 563.866 220.391 563.866 220.391 563.866Z" fill="#E8EAED"/>
<path d="M133.693 807.314L149.339 852.741L171.188 851.611L155.579 801.398L133.693 807.314Z" fill="white"/>
<path d="M135.756 808.408L150.454 851.08L169.053 850.122L154.511 803.34L135.756 808.408ZM149.334 854.335C148.657 854.335 148.053 853.903 147.824 853.257L132.183 807.835C132.037 807.419 132.074 806.955 132.282 806.564C132.49 806.179 132.85 805.887 133.277 805.773L155.162 799.856C155.985 799.627 156.85 800.106 157.105 800.924L172.714 851.143C172.86 851.606 172.782 852.122 172.495 852.523C172.214 852.929 171.761 853.179 171.271 853.21L149.417 854.33C149.391 854.33 149.365 854.335 149.334 854.335Z" fill="black"/>
<path d="M142.636 847.481C142.001 852.007 140.975 860.408 140.891 867.945C140.834 872.669 144.365 876.663 149.032 877.262C162.219 878.96 192.136 880.825 217.62 878.497C219.36 878.341 222.449 877.065 223.308 872.684C226.193 857.976 200.745 854.367 172.85 843.7C171.756 843.278 170.522 843.523 169.678 844.346L166.673 847.273C163.662 850.205 159.199 851.038 155.344 849.387L146.193 845.46C144.636 844.794 142.876 845.794 142.636 847.481Z" fill="#4880FF"/>
<path d="M145.182 846.846C144.979 846.846 144.813 846.913 144.714 846.976C144.552 847.065 144.276 847.278 144.219 847.7C143.609 852.049 142.568 860.46 142.484 867.955C142.438 871.856 145.344 875.179 149.234 875.679C162.844 877.434 192.245 879.216 217.474 876.913C218.047 876.861 220.953 876.398 221.74 872.377C223.677 862.492 210.063 857.997 191.214 851.783C185.135 849.773 178.849 847.7 172.281 845.19C171.766 844.992 171.182 845.106 170.792 845.486L167.787 848.413C164.302 851.809 159.172 852.762 154.714 850.851L145.563 846.924C145.427 846.867 145.297 846.846 145.182 846.846ZM191.073 881.195C173.906 881.195 157.896 880.012 148.828 878.846C143.328 878.137 139.229 873.44 139.292 867.924C139.38 860.247 140.432 851.679 141.057 847.257C141.24 845.955 142 844.835 143.146 844.19C144.281 843.549 145.625 843.481 146.823 843.992L155.974 847.919C159.24 849.315 163.005 848.617 165.557 846.127L168.568 843.2C169.844 841.955 171.75 841.565 173.422 842.205C179.917 844.69 186.167 846.757 192.214 848.747C211.849 855.231 227.354 860.341 224.87 872.992C223.922 877.841 220.448 879.846 217.76 880.091C209.089 880.882 199.927 881.195 191.073 881.195Z" fill="black"/>
<path d="M140.907 866.809C140.907 866.809 140.891 867.57 140.891 867.945C140.834 872.669 144.365 876.663 149.032 877.262C162.219 878.96 192.136 880.825 217.62 878.497C219.36 878.341 222.449 877.065 223.308 872.684C223.568 871.341 223.407 868.919 223.407 868.919L221.6 869.007C195.85 870.288 170.042 869.663 144.386 867.153L140.907 866.809Z" fill="white"/>
<path d="M142.5 868.57C142.75 872.2 145.547 875.205 149.234 875.679C162.844 877.434 192.245 879.215 217.474 876.913C218.047 876.861 220.953 876.398 221.74 872.377C221.828 871.913 221.859 871.236 221.859 870.596L221.677 870.601C195.938 871.877 169.88 871.252 144.229 868.736L142.5 868.57ZM191.073 881.195C173.906 881.195 157.896 880.012 148.828 878.846C143.328 878.137 139.229 873.439 139.292 867.924L139.313 866.773C139.323 866.33 139.516 865.913 139.849 865.611C140.182 865.32 140.62 865.174 141.063 865.215L144.537 865.559C170.037 868.064 195.938 868.679 221.521 867.413L223.328 867.325C224.208 867.268 224.943 867.945 225 868.809C225.021 869.08 225.167 871.486 224.87 872.992C223.922 877.84 220.448 879.846 217.76 880.09C209.089 880.882 199.927 881.195 191.073 881.195Z" fill="black"/>
<path d="M179.245 861.174C178.839 861.174 178.432 861.023 178.12 860.71C177.495 860.091 177.495 859.085 178.115 858.455L187.901 848.606C188.526 847.986 189.536 847.981 190.161 848.601C190.786 849.226 190.786 850.231 190.167 850.861L180.38 860.71C180.068 861.023 179.656 861.174 179.245 861.174Z" fill="black"/>
<path d="M188.86 862.2C188.464 862.2 188.068 862.054 187.761 861.757C187.12 861.148 187.099 860.143 187.709 859.497L195.532 851.325C196.141 850.695 197.151 850.669 197.787 851.278C198.422 851.887 198.443 852.898 197.839 853.538L190.016 861.705C189.704 862.033 189.282 862.2 188.86 862.2Z" fill="black"/>
<path d="M42.5104 812.679L39.5469 851.611H24.1406L26.1771 813.71L42.5104 812.679Z" fill="white"/>
<path d="M25.828 850.018H38.0676L40.7759 814.387L27.6926 815.21L25.828 850.018ZM39.5468 853.21H24.1405C23.703 853.21 23.2863 853.028 22.9843 852.71C22.6822 852.393 22.5259 851.965 22.5468 851.523L24.5832 813.622C24.6301 812.814 25.2655 812.169 26.078 812.111L42.4061 811.085C42.8697 811.064 43.3176 811.231 43.6457 811.559C43.9686 811.887 44.1353 812.34 44.0989 812.799L41.1405 851.731C41.078 852.564 40.3853 853.21 39.5468 853.21Z" fill="black"/>
<path d="M23.3283 881.939C16.3127 880.778 12.3596 875.71 12.146 871.351C11.5002 858.382 14.9116 846.054 21.2971 837.689C21.9898 836.773 23.3908 836.856 24.0002 837.825L24.1669 837.976C25.2658 838.986 26.9064 838.919 28.0419 837.945C28.9794 837.143 30.1773 836.674 31.4637 836.653L33.2502 836.627C35.2502 836.601 37.2241 837.726 38.2762 839.408C38.7606 840.184 39.8856 840.231 40.495 839.544L41.5054 838.403C42.1929 837.736 43.3335 838.205 43.3648 839.163L44.4585 874.648C43.9273 881.59 32.5054 883.455 23.3283 881.939Z" fill="#4880FF"/>
<path d="M23.5839 880.367C30.511 881.507 37.6256 880.528 40.8808 877.971C42.0944 877.018 42.7402 875.919 42.8652 874.601L41.8079 840.466L41.6881 840.596C41.0579 841.309 40.1204 841.679 39.1673 841.611C38.2298 841.533 37.4121 841.033 36.9225 840.252C36.1516 839.018 34.6308 838.2 33.2714 838.226L31.485 838.247C30.6048 838.262 29.7506 838.585 29.0787 839.158C27.2923 840.695 24.7714 840.689 23.0891 839.153L22.761 838.856L22.6516 838.674C16.3339 846.82 13.1204 858.705 13.7402 871.273C13.9225 874.924 17.4329 879.351 23.5839 880.367ZM29.4381 884.033C27.1829 884.033 24.985 883.835 23.0683 883.518H23.0631C15.1777 882.21 10.8027 876.445 10.5527 871.429C9.89644 858.122 13.3496 845.476 20.0266 836.721C20.6673 835.882 21.6829 835.413 22.7402 835.45C23.7194 835.502 24.6308 835.981 25.2089 836.768L25.2454 836.804C25.7246 837.242 26.4485 837.21 27.0058 836.736C28.2402 835.679 29.8183 835.08 31.4381 835.054L33.2246 835.033C35.636 835.028 38.0683 836.273 39.4589 838.304L40.3964 837.252C41.1725 836.502 42.2766 836.288 43.2766 836.695C44.2662 837.096 44.9277 838.044 44.9589 839.111L46.0579 874.679L46.0527 874.768C45.8808 877.002 44.7766 878.971 42.8548 880.481C39.5058 883.111 34.3235 884.033 29.4381 884.033Z" fill="black"/>
<path d="M44.1672 865.153C43.9693 865.929 43.6411 866.674 43.1776 867.325C41.5995 869.538 37.2922 873.872 28.0786 873.122C17.1724 872.231 12.1776 864.591 12.1776 864.591C12.0474 866.815 12.0318 869.07 12.1463 871.351C12.3599 875.71 16.313 880.778 23.3286 881.94C32.5057 883.455 43.9276 881.591 44.4588 874.648L44.1672 865.153Z" fill="white"/>
<path d="M13.667 868.622C13.6722 869.507 13.693 870.393 13.7399 871.273C13.9222 874.924 17.4326 879.351 23.5837 880.367C30.5107 881.507 37.6253 880.528 40.8805 877.971C42.0941 877.018 42.7399 875.919 42.8649 874.601L42.7295 870.247C40.2555 872.585 35.6462 875.351 27.9535 874.716C21.0472 874.148 16.3649 871.08 13.667 868.622ZM29.4378 884.033C27.1826 884.033 24.9847 883.835 23.068 883.518C15.1774 882.21 10.8024 876.445 10.5524 871.429C10.4378 869.117 10.4482 866.783 10.5837 864.492C10.6253 863.809 11.0993 863.226 11.766 863.049C12.4378 862.872 13.1357 863.137 13.5107 863.716C13.6982 863.997 18.266 870.716 28.2087 871.528C36.4378 872.2 40.3076 868.601 41.8805 866.398C42.2087 865.929 42.4639 865.382 42.6201 864.752C42.818 863.981 43.5368 863.476 44.3441 863.57C45.1305 863.653 45.7399 864.309 45.766 865.101L46.0576 874.596C46.0576 874.658 46.0576 874.71 46.0524 874.768C45.8805 877.002 44.7764 878.971 42.8545 880.481C39.5055 883.111 34.3232 884.033 29.4378 884.033Z" fill="black"/>
<path d="M36.6514 856.908H23.9847C23.1045 856.908 22.3857 856.19 22.3857 855.309C22.3857 854.429 23.1045 853.716 23.9847 853.716H36.6514C37.5368 853.716 38.2503 854.429 38.2503 855.309C38.2503 856.19 37.5368 856.908 36.6514 856.908Z" fill="black"/>
<path d="M37.9639 850.481H25.2972C24.417 850.481 23.6982 849.767 23.6982 848.882C23.6982 848.007 24.417 847.288 25.2972 847.288H37.9639C38.8493 847.288 39.5628 848.007 39.5628 848.882C39.5628 849.767 38.8493 850.481 37.9639 850.481Z" fill="black"/>
<path d="M162.391 831.929C165.651 831.731 168.026 828.778 167.532 825.549C164.177 803.835 152.88 729.189 152.266 705.273C151.542 677.168 133.433 559.491 133.433 559.491L113.683 558.096C114.985 554.262 115.709 552.168 115.709 552.168L43.7972 547.981C10.4326 602.689 20.1045 797.07 21.6722 824.799C21.7815 826.741 23.2607 828.33 25.1878 828.601C33.9013 829.846 39.068 829.757 42.0159 829.392C44.0159 829.148 45.5367 827.502 45.6045 825.486C46.969 785.804 64.7607 716.695 82.0836 657.898C97.0628 715.809 130.287 809.45 137.323 829.111C138.125 831.346 140.261 832.814 142.641 832.773C149.297 832.658 157.115 832.247 162.391 831.929Z" fill="black"/>
<path d="M144.203 729.205H250.006C256.354 729.205 261.104 723.372 259.828 717.153L243.776 639.122C242.427 632.564 236.651 627.851 229.948 627.851H139.198L144.203 729.205Z" fill="#828282"/>
<path d="M145.719 727.606H250.005C252.547 727.606 254.933 726.476 256.542 724.502C258.146 722.528 258.776 719.971 258.266 717.476L242.214 639.445C241.021 633.653 235.865 629.45 229.948 629.45H140.875L145.719 727.606ZM250.005 730.799H144.203C143.349 730.799 142.651 730.132 142.61 729.283L137.604 627.934C137.584 627.497 137.74 627.07 138.042 626.752C138.344 626.434 138.761 626.257 139.198 626.257H229.948C237.37 626.257 243.844 631.533 245.339 638.799L261.391 716.83C262.099 720.268 261.229 723.799 259.011 726.518C256.797 729.236 253.511 730.799 250.005 730.799Z" fill="black"/>
<path d="M130.656 729.205H151.188C157.537 729.205 162.292 723.372 161.011 717.153L143.328 631.205C142.927 629.257 141.209 627.851 139.214 627.851H133.933C131.745 627.851 129.922 629.533 129.745 631.715L122.511 720.366C122.125 725.122 125.88 729.205 130.656 729.205Z" fill="#202124"/>
<path d="M133.933 629.45C132.589 629.45 131.443 630.507 131.334 631.846L124.105 720.497C123.954 722.351 124.563 724.122 125.823 725.486C127.084 726.856 128.797 727.606 130.657 727.606H151.188C153.735 727.606 156.115 726.476 157.724 724.502C159.334 722.528 159.959 719.971 159.448 717.476L141.771 631.533C141.521 630.325 140.448 629.45 139.214 629.45H133.933ZM151.188 730.799H130.657C127.933 730.799 125.318 729.653 123.474 727.653C121.631 725.648 120.698 722.95 120.922 720.236L128.152 631.585C128.396 628.596 130.938 626.257 133.933 626.257H139.214C141.954 626.257 144.344 628.205 144.896 630.892L162.573 716.83C163.282 720.268 162.417 723.799 160.198 726.518C157.98 729.236 154.698 730.799 151.188 730.799Z" fill="black"/>
<path d="M239.057 670.408H164.562C161.354 670.408 158.594 668.231 157.854 665.101L150.552 634.278C150.349 633.419 150.88 632.559 151.734 632.356C152.594 632.153 153.453 632.684 153.656 633.544L160.958 664.372C161.359 666.044 162.839 667.215 164.562 667.215H239.057C239.938 667.215 240.651 667.929 240.651 668.814C240.651 669.695 239.938 670.408 239.057 670.408Z" fill="black"/>
<path d="M190.589 668.814L192.912 678.174C193.287 679.752 194.698 680.872 196.328 680.872H212.735C214.521 680.872 215.813 679.174 215.334 677.45L212.933 668.814H190.589Z" fill="white"/>
<path d="M192.63 670.408L194.458 677.788C194.667 678.668 195.432 679.278 196.328 679.278H212.734C213.083 679.278 213.401 679.122 213.615 678.846C213.734 678.679 213.927 678.335 213.797 677.882L211.719 670.408H192.63ZM212.734 682.471H196.328C193.948 682.471 191.906 680.856 191.359 678.538L189.042 669.194C188.922 668.721 189.031 668.215 189.333 667.83C189.636 667.444 190.099 667.215 190.589 667.215H212.932C213.651 667.215 214.281 667.694 214.469 668.382L216.875 677.023C217.234 678.33 216.974 679.694 216.156 680.773C215.333 681.851 214.089 682.471 212.734 682.471Z" fill="black"/>
<path d="M155.781 627.33L153.875 617.554C152.995 611.424 156.234 608.007 160.896 608.007H203.693C208.354 608.007 212.771 612.892 213.557 617.554L215.464 627.33H208.594L206.932 619.012C206.318 615.382 204.104 613.549 200.474 613.549H164.437C160.807 613.549 160.38 615.382 160.99 619.012L162.656 627.33H155.781Z" fill="white"/>
<path d="M209.901 625.736H213.526L211.99 617.856C211.344 614.023 207.584 609.601 203.693 609.601H160.896C159.12 609.601 157.662 610.195 156.693 611.314C155.516 612.674 155.089 614.752 155.459 617.33L157.099 625.736H160.709L159.427 619.325C159.063 617.158 158.907 614.997 160.167 613.497C161.047 612.455 162.448 611.95 164.438 611.95H200.474C204.912 611.95 207.766 614.367 208.506 618.747L209.901 625.736ZM215.464 628.929H208.594C207.829 628.929 207.177 628.387 207.026 627.643L205.365 619.325C204.881 616.455 203.329 615.143 200.474 615.143H164.438C163.5 615.143 162.834 615.294 162.605 615.559C162.386 615.82 162.204 616.58 162.568 618.747L164.219 627.018C164.313 627.486 164.193 627.971 163.886 628.346C163.584 628.71 163.131 628.929 162.657 628.929H155.782C155.016 628.929 154.365 628.387 154.214 627.637L152.308 617.856C151.657 613.335 153.021 610.674 154.282 609.221C155.855 607.408 158.204 606.408 160.896 606.408H203.693C209.355 606.408 214.266 612.143 215.131 617.288L217.032 627.028C217.12 627.492 217 627.976 216.693 628.346C216.391 628.715 215.938 628.929 215.464 628.929Z" fill="black"/>
<path d="M163.745 606.393H199.927C201.386 606.393 202.766 607.57 203.016 609.028L203.547 612.189C203.792 613.648 202.808 614.83 201.349 614.83H165.167C163.709 614.83 162.328 613.648 162.078 612.189L161.547 609.028C161.302 607.57 162.287 606.393 163.745 606.393Z" fill="#202124"/>
<path d="M163.745 607.986C163.589 607.986 163.375 608.023 163.24 608.179C163.125 608.314 163.084 608.523 163.125 608.762L163.657 611.929C163.771 612.611 164.49 613.231 165.167 613.231H201.349C201.506 613.231 201.719 613.2 201.855 613.038C201.969 612.903 202.011 612.7 201.969 612.455L201.438 609.293C201.323 608.606 200.605 607.986 199.928 607.986H163.745ZM201.349 616.424H165.167C162.928 616.424 160.881 614.679 160.506 612.455L159.974 609.293C159.776 608.127 160.079 606.971 160.803 606.122C161.511 605.278 162.584 604.793 163.745 604.793H199.928C202.167 604.793 204.214 606.538 204.589 608.762L205.12 611.929C205.318 613.096 205.016 614.252 204.292 615.101C203.584 615.944 202.511 616.424 201.349 616.424Z" fill="black"/>
<path d="M151.381 718.471C151.115 718.471 150.839 718.403 150.589 718.262L136.407 710.179C135.912 709.892 135.604 709.366 135.604 708.793V639.299C135.604 638.418 136.318 637.7 137.198 637.7C138.078 637.7 138.797 638.418 138.797 639.299V707.861L152.172 715.481C152.938 715.924 153.203 716.898 152.771 717.663C152.474 718.179 151.933 718.471 151.381 718.471Z" fill="#E8EAED"/>
<path d="M196.677 602.892C196.198 600.07 195.443 596.648 194.698 593.861C193.734 590.267 194.807 570.96 194.807 570.96L179.266 566.929C179.266 566.929 182.594 583.372 177.125 586.929C166.104 594.106 165.047 605.908 165.047 605.908L170.562 605.877C172.958 605.866 175.255 606.908 176.766 608.773C177.896 610.174 179.693 614.627 179.693 614.627L171.641 614.903C171.641 614.903 173.464 623.669 180.526 623.611C186.443 623.564 199.302 618.346 196.677 602.892Z" fill="white"/>
<path d="M173.781 616.424C174.641 618.632 176.599 622.018 180.458 622.018C180.474 622.018 180.495 622.018 180.51 622.018C183.87 621.986 188.953 620.205 192.177 616.356C195.026 612.955 196.01 608.518 195.104 603.158C194.641 600.45 193.896 597.044 193.156 594.273C192.276 590.981 192.911 576.835 193.146 572.184L181.26 569.096C182.016 574.163 182.979 585.023 177.995 588.273C170.24 593.32 167.714 600.908 166.948 604.304L170.557 604.283C173.458 604.247 176.198 605.544 178.005 607.768C179.25 609.309 180.979 613.554 181.172 614.028C181.365 614.512 181.312 615.064 181.031 615.497C180.745 615.934 180.266 616.205 179.745 616.221L173.781 616.424ZM180.458 625.205C173.896 625.205 170.797 618.689 170.078 615.226C169.979 614.768 170.094 614.283 170.385 613.919C170.672 613.549 171.115 613.32 171.583 613.304L177.302 613.111C176.682 611.742 175.979 610.34 175.526 609.778C174.333 608.304 172.526 607.46 170.568 607.476L165.052 607.502C165.047 607.502 165.047 607.502 165.047 607.502C164.594 607.502 164.172 607.314 163.87 606.986C163.562 606.658 163.411 606.21 163.453 605.768C163.5 605.252 164.719 593.106 176.255 585.596C179.578 583.429 178.906 573.189 177.703 567.242C177.594 566.7 177.771 566.148 178.167 565.768C178.568 565.393 179.135 565.242 179.667 565.382L195.208 569.419C195.948 569.606 196.443 570.288 196.401 571.054C195.979 578.71 195.583 590.997 196.24 593.45C197.016 596.351 197.766 599.783 198.25 602.627C199.307 608.856 198.052 614.314 194.625 618.408C190.729 623.059 184.745 625.169 180.536 625.205C180.51 625.205 180.484 625.205 180.458 625.205Z" fill="black"/>
<path d="M30.7813 412.273C49.1772 400.361 64.0418 396.512 85.1407 395.585C92.672 408.502 109.896 409.58 113.313 401.637C113.391 401.465 113.693 401.705 113.88 401.736C128.432 404.314 140.912 408.622 149.136 414.21C149.177 414.116 149.203 414.064 149.203 414.064C149.203 414.064 203.537 446.174 200.13 584.346L172.677 579.601C172.677 579.601 167.24 524.491 141.682 491.637C140.667 549.122 146.234 589.064 146.708 594.929C146.818 596.231 145.807 597.34 144.516 597.361L93.6147 598.257L86.2813 574.528L76.5209 598.564L22.3282 599.455C21.3803 599.471 20.6303 598.663 20.7136 597.721C21.4115 589.762 25.198 551.377 26.7605 520.632C14.297 543.158 -2.35408 532.012 0.645924 497.835C4.23447 456.934 15.9636 421.856 30.7813 412.273Z" fill="#202124"/>
<path d="M86.2761 576.127C85.4063 576.127 84.6927 575.429 84.6823 574.549L84.0782 522.08C84.0729 521.195 84.7761 520.471 85.6615 520.46C85.6667 520.46 85.6719 520.46 85.6771 520.46C86.5521 520.46 87.2604 521.158 87.2761 522.038L87.875 574.517C87.8854 575.392 87.1771 576.116 86.2969 576.127C86.2917 576.127 86.2865 576.127 86.2761 576.127Z" fill="#E8EAED"/>
<path d="M142.182 489.752C141.411 489.752 140.729 489.184 140.609 488.392C137.875 470.726 132.031 427.7 136.88 409.7C137.109 408.846 137.979 408.34 138.833 408.575C139.682 408.804 140.187 409.679 139.958 410.528C136.708 422.611 138.13 451.538 143.766 487.908C143.901 488.783 143.302 489.596 142.432 489.731C142.349 489.741 142.266 489.752 142.182 489.752Z" fill="#E8EAED"/>
<path d="M77.2712 397.96L78.0212 353.913L103.214 371.236L103.261 397.585C103.151 402.46 99.0785 405.236 99.0785 405.236C94.0316 409.085 86.8806 408.507 81.6306 404.955L80.4118 404.132C78.3806 402.757 77.1931 400.424 77.2712 397.96Z" fill="white"/>
<path d="M79.5678 356.913L78.8647 397.991C78.8647 397.997 78.8647 398.002 78.8647 398.012C78.8022 399.939 79.7189 401.736 81.3074 402.814L82.5209 403.632C87.5261 407.017 93.9324 407.153 98.1095 403.971C98.2032 403.903 101.573 401.512 101.667 397.554L101.615 372.08L79.5678 356.913ZM90.9428 409.502C87.4949 409.502 83.9116 408.424 80.7345 406.278L79.5209 405.455C77.0157 403.762 75.5834 400.945 75.6772 397.924L76.4272 353.882C76.4376 353.299 76.7709 352.762 77.2918 352.491C77.8126 352.226 78.4428 352.262 78.9272 352.596L104.115 369.919C104.547 370.221 104.807 370.71 104.807 371.236L104.854 397.585C104.729 403.252 100.172 406.424 99.9741 406.559C97.4064 408.523 94.2345 409.502 90.9428 409.502Z" fill="black"/>
<path d="M121.255 326.314C114.719 324.924 122 332.965 98.677 322.122C89.3854 317.804 92.6197 329.872 90.2083 328.757C81.2968 324.643 78.8541 323.617 74.1354 324.111C71.0104 324.439 63.7604 329.403 64.1562 333.611C65.4427 347.335 71.8489 344.736 74.1354 356.887C75.7395 365.424 77.651 368.236 80.7291 369.919C83.8437 371.617 86.9218 367.585 90.4635 369.184C95.0416 371.252 92.8697 379.367 97.0156 383.502C99.625 386.111 106.302 388.158 118.021 384.523C119.922 383.939 121.13 382.064 120.885 380.08C120.578 377.538 120.167 374.325 119.521 371.288C116.443 356.82 112.021 352.976 114.312 349.705C117.828 344.684 127.661 349.382 130.026 345.174C132.484 340.814 130.203 328.221 121.255 326.314Z" fill="black"/>
<path d="M94.7559 346.356L96.1204 350.163C96.7663 351.95 97.2819 353.783 97.6725 355.648C98.4069 359.143 99.9017 365.09 100.699 368.445C103.271 379.231 117.443 369.986 117.443 369.986L118.73 367.325L120.511 366.898C120.86 366.809 121.188 366.658 121.443 366.413C122.089 365.804 122.225 364.882 121.865 364.132C119.902 360.038 115.891 350.908 115.115 343.143C115.115 343.143 104.782 338.731 94.7559 346.356Z" fill="white"/>
<path d="M93.2246 345.903C93.459 345.585 93.7402 345.252 94.0579 344.95C94.2194 344.799 94.3861 344.653 94.5527 344.523L94.7975 344.34L94.9486 344.247C95.3496 343.981 95.7402 343.7 96.1569 343.46C96.9746 342.95 97.8392 342.523 98.7142 342.116C100.485 341.351 102.355 340.794 104.271 340.497C106.178 340.189 108.126 340.158 110.037 340.351C110.995 340.45 111.943 340.596 112.886 340.809C113.844 341.038 114.714 341.262 115.74 341.689H115.751C116.298 341.919 116.646 342.429 116.693 342.991C116.876 345.158 117.308 347.34 117.829 349.512C118.355 351.684 119.001 353.851 119.745 355.981C120.48 358.127 121.324 360.231 122.266 362.299L122.615 363.07L122.881 363.648C122.928 363.752 122.975 363.856 123.011 363.96C123.308 364.814 123.199 365.783 122.756 366.57C122.542 366.971 122.256 367.325 121.865 367.637C121.511 367.924 121.021 368.148 120.719 368.257C120.188 368.497 119.652 368.715 119.1 368.866L120.157 368.012C119.751 368.908 119.313 369.799 118.896 370.689C118.766 370.96 118.563 371.184 118.324 371.34C116.662 372.387 115.032 373.221 113.251 373.945C111.475 374.643 109.594 375.215 107.511 375.335C106.475 375.387 105.37 375.314 104.271 374.976C103.173 374.653 102.1 374.018 101.271 373.174C100.443 372.33 99.8652 371.33 99.4902 370.325C99.2871 369.825 99.1517 369.32 99.0267 368.825L98.7142 367.518C97.8756 364.033 97.0059 360.549 96.2298 357.007C95.8756 355.205 95.5111 353.606 94.985 351.934L94.5788 350.705C94.3965 350.179 94.2194 349.653 94.0579 349.111C93.7298 348.033 93.459 346.945 93.2246 345.903ZM96.2871 346.809C96.6569 347.455 96.9954 348.059 97.2715 348.674C97.4121 348.976 97.5371 349.283 97.6569 349.606L98.1204 350.924C98.7142 352.663 99.1777 354.564 99.5475 356.278C100.329 359.741 101.199 363.221 102.048 366.715L102.365 368.028C102.459 368.398 102.558 368.757 102.693 369.09C102.949 369.768 103.292 370.351 103.714 370.788C104.542 371.684 105.834 372.054 107.355 371.991C110.396 371.825 113.745 370.325 116.558 368.632L115.99 369.283C116.428 368.403 116.85 367.507 117.303 366.632L117.334 366.564C117.548 366.148 117.938 365.877 118.36 365.778C118.923 365.658 119.501 365.616 120.079 365.585C120.516 365.59 120.6 365.627 120.813 365.413C120.969 365.215 120.975 364.934 120.891 364.71L120.193 363.252C119.214 361.148 118.282 359.023 117.391 356.877C115.652 352.564 114.126 348.101 113.537 343.304L114.49 344.606C113.85 344.366 112.985 344.116 112.193 343.96C111.386 343.788 110.558 343.669 109.735 343.601C108.079 343.45 106.412 343.523 104.782 343.773C103.146 344.018 101.553 344.491 100.037 345.143C99.2819 345.481 98.5267 345.825 97.8132 346.257C97.4486 346.455 97.1048 346.689 96.7507 346.913L96.6204 346.991C96.5944 347.012 96.5996 347.007 96.5892 347.007C96.5788 347.007 96.5632 346.997 96.5423 346.976C96.5007 346.934 96.4173 346.861 96.2871 346.809Z" fill="black"/>
<path d="M95.5994 359.033C95.5994 359.033 92.3286 349.882 88.5057 352.247C84.6776 354.606 88.5317 364.585 95.5994 359.033Z" fill="white"/>
<path d="M112.365 360.903C112.959 361.018 113.261 360.866 113.443 360.736C113.797 360.486 114.651 359.549 114.938 356.304C115.063 354.934 114.907 353.976 114.521 353.736C113.766 353.268 113.203 353.549 113.115 353.669C110.943 357.476 111.865 360.34 112.365 360.903ZM112.761 364.132C112.334 364.132 111.901 364.08 111.459 363.971C110.511 363.736 109.698 362.934 109.172 361.705C108.276 359.622 108.115 355.997 110.344 352.075C110.802 351.278 111.641 350.669 112.641 350.413C113.823 350.111 115.094 350.33 116.209 351.023C118.49 352.445 118.214 355.57 118.12 356.59C117.818 359.991 116.891 362.195 115.297 363.33C114.558 363.861 113.693 364.132 112.761 364.132Z" fill="black"/>
<path d="M113.568 353.429C113.557 353.429 113.542 353.429 113.526 353.429L92.5314 352.882C91.6512 352.856 90.9533 352.127 90.9741 351.241C91.0001 350.377 91.7085 349.689 92.5678 349.689C92.5835 349.689 92.5991 349.689 92.6147 349.689L113.61 350.231C114.495 350.257 115.188 350.991 115.167 351.877C115.141 352.736 114.432 353.429 113.568 353.429Z" fill="black"/>
<path d="M121.548 363.33C120.86 363.33 120.22 362.882 120.016 362.179C119.803 361.445 120.147 360.674 120.798 360.33C121.339 359.71 122.772 356.648 121.803 354.205C121.683 353.903 121.553 353.856 121.47 353.83C120.834 353.611 119.433 354.08 118.709 354.497C117.943 354.934 116.97 354.674 116.532 353.903C116.095 353.137 116.36 352.163 117.126 351.726C117.438 351.549 120.23 350.018 122.527 350.82C123.563 351.179 124.339 351.945 124.766 353.023C126.121 356.424 124.657 359.903 124.173 360.893C123.183 362.924 122.287 363.184 121.996 363.273C121.85 363.309 121.699 363.33 121.548 363.33Z" fill="black"/>
<path d="M83.9482 425.106C83.9482 425.106 90.6618 435.642 96.7139 433.778C99.891 432.804 102.99 422.413 104.261 422.049C108.313 420.866 116.037 418.934 120.782 410.465C125.209 402.559 124.245 398.33 123.099 396.387C122.573 395.491 122.584 394.382 123.167 393.523C124.011 392.267 124.834 390.382 123.979 388.434C123.677 387.752 123.709 386.971 124 386.283C125.125 383.663 127.209 377.632 123.162 376.445C122.063 376.127 120.875 376.533 120.209 377.455C118.922 379.231 116.24 382.57 112.917 384.684C108.229 387.668 105.417 389.71 103.058 391.054C101.037 392.205 99.9743 382.127 95.1201 378.34C90.8128 374.981 89.3441 376.679 88.917 378.262C88.4847 379.835 91.1514 380.465 92.6722 387.976C94.4535 396.773 92.5889 404.168 92.0524 408.122C91.417 412.767 83.9482 425.106 83.9482 425.106Z" fill="white"/>
<path d="M85.8386 425.054C87.8803 427.919 92.6355 433.361 96.2449 432.257C97.5105 431.866 99.6043 427.361 100.609 425.195C101.995 422.215 102.625 420.861 103.813 420.512L104.328 420.361C108.38 419.195 115.156 417.241 119.386 409.684C123.495 402.351 122.615 398.715 121.724 397.195C120.87 395.747 120.917 393.997 121.844 392.627C122.745 391.299 122.969 390.106 122.516 389.075C122.047 388.012 122.057 386.762 122.531 385.653C123.833 382.637 124.281 379.997 123.703 378.773C123.516 378.372 123.208 378.127 122.708 377.981C122.261 377.846 121.776 378.012 121.5 378.393C120.13 380.278 117.307 383.783 113.776 386.028C111.74 387.325 110.057 388.439 108.615 389.403C106.719 390.658 105.224 391.658 103.849 392.439C103.276 392.768 102.625 392.83 102.016 392.616C100.62 392.122 99.9793 390.491 98.9168 387.778C97.8595 385.075 96.4063 381.372 94.1355 379.596C92.2397 378.122 91.1772 377.908 90.8491 378.018C90.6928 378.075 90.5678 378.325 90.4845 378.58C90.5626 378.741 90.7605 379.038 90.9272 379.294C91.797 380.606 93.2553 382.814 94.2345 387.658C95.7866 395.32 94.6928 401.872 93.9688 406.21C93.8334 407.002 93.7188 407.715 93.6303 408.34C93.0522 412.59 87.6616 421.976 85.8386 425.054ZM95.2136 435.606C88.9428 435.606 83.2866 427.038 82.6043 425.965C82.2761 425.45 82.2709 424.799 82.5834 424.278C84.6095 420.929 89.9845 411.445 90.4688 407.908C90.5574 407.252 90.6824 406.512 90.8178 405.684C91.5053 401.58 92.5418 395.377 91.1043 388.288C90.2501 384.059 89.0522 382.247 88.2657 381.049C87.6511 380.122 87.0157 379.163 87.3751 377.84C87.7657 376.403 88.6459 375.387 89.8438 374.991C91.5313 374.429 93.5782 375.111 96.1043 377.085C99.0574 379.387 100.698 383.564 101.891 386.616C102.229 387.481 102.662 388.58 103 389.236C104.099 388.57 105.349 387.741 106.849 386.741C108.302 385.773 110.005 384.648 112.063 383.34C115.151 381.372 117.682 378.221 118.917 376.518C119.979 375.049 121.865 374.403 123.609 374.913C124.979 375.32 126.011 376.179 126.594 377.413C127.87 380.127 126.688 384.075 125.469 386.913C125.339 387.21 125.328 387.538 125.443 387.794C126.339 389.835 126 392.189 124.49 394.419C124.255 394.752 124.255 395.195 124.474 395.58C125.984 398.148 126.813 402.955 122.172 411.247C117.302 419.945 109.438 422.21 105.214 423.429L105.042 423.481C104.677 424.012 104.011 425.455 103.505 426.544C101.412 431.049 99.6095 434.559 97.1824 435.304C96.5209 435.507 95.8647 435.606 95.2136 435.606Z" fill="black"/>
<path d="M106.079 429.767L85.7401 416.809C85.7401 416.809 58.2453 461.262 37.4276 476.351C27.2922 483.695 7.62551 475.059 7.62551 475.059C7.62551 475.059 -11.2547 547.616 25.188 557.991C85.8911 575.262 106.079 429.767 106.079 429.767Z" fill="#202124"/>
<path d="M35.6406 480.059C35.1562 480.059 34.677 479.84 34.3645 479.418C33.8385 478.71 33.9791 477.71 34.6875 477.184C56.4739 460.898 83.5625 416.08 83.8333 415.627C84.2864 414.872 85.2656 414.632 86.0208 415.08C86.776 415.538 87.0208 416.517 86.5677 417.273C85.4479 419.137 58.8906 463.08 36.5989 479.741C36.3125 479.955 35.9739 480.059 35.6406 480.059Z" fill="#E8EAED"/>
<path d="M33.9118 561.715C33.0993 561.715 32.2868 561.684 31.4587 561.611C30.5837 561.533 29.9327 560.762 30.0056 559.882C30.0837 559.007 30.8441 558.34 31.7347 558.429C76.9222 562.32 101.808 443.085 104.302 430.528L96.3545 425.471C95.6097 424.991 95.391 424.012 95.865 423.267C96.3337 422.523 97.3233 422.304 98.0681 422.773L106.933 428.424C107.485 428.767 107.766 429.418 107.646 430.059C106.631 435.517 82.5525 561.715 33.9118 561.715Z" fill="#E8EAED"/>
<path d="M658.063 813.616C658.063 813.616 621.86 734.273 642.62 631.413C642.62 631.413 698.729 678.424 678.5 813.616H658.063Z" fill="#202124"/>
<path d="M666.912 806.944C666.88 806.944 666.849 806.939 666.823 806.939C665.943 806.892 665.266 806.137 665.318 805.257C668.084 754.601 645.224 646.398 644.99 645.309C644.808 644.45 645.36 643.595 646.224 643.413C647.078 643.231 647.927 643.783 648.115 644.648C648.349 645.736 671.292 754.356 668.505 805.434C668.459 806.283 667.75 806.944 666.912 806.944Z" fill="white"/>
<path d="M694.474 684.622C694.474 684.622 647.838 768.882 675.891 805.346H690.901C690.901 805.346 720.891 739.476 694.474 684.622Z" fill="white"/>
<path d="M682.896 809.174C682.036 809.174 681.339 808.502 681.302 807.642C679.943 772.814 692.76 685.267 692.891 684.392C693.021 683.517 693.833 682.913 694.703 683.044C695.578 683.169 696.182 683.981 696.047 684.856C695.922 685.731 683.146 772.981 684.49 807.517C684.526 808.398 683.839 809.137 682.958 809.174C682.938 809.174 682.911 809.174 682.896 809.174Z" fill="#202124"/>
<path d="M676.688 803.752H689.844C693.24 795.71 716.219 737.648 694.38 688.221C686.735 703.017 653.344 771.945 676.688 803.752ZM690.896 806.945H675.886C675.401 806.945 674.927 806.71 674.625 806.32C646.255 769.45 691.156 687.325 693.078 683.851C693.365 683.325 693.943 683.002 694.521 683.023C695.12 683.044 695.651 683.392 695.917 683.929C722.344 738.825 692.651 805.34 692.349 806.007C692.089 806.575 691.516 806.945 690.896 806.945Z" fill="#202124"/>
<path d="M605.428 716.033C605.428 716.033 645.162 729.59 659.548 809.835H643.917C643.917 809.835 611.308 765.768 605.428 716.033Z" fill="white"/>
<path d="M651 809.174C650.239 809.174 649.557 808.622 649.427 807.84C643.536 772.221 618.021 736.335 617.76 735.981C617.255 735.262 617.411 734.268 618.125 733.752C618.844 733.236 619.844 733.403 620.359 734.116C620.62 734.486 646.562 770.976 652.578 807.32C652.724 808.189 652.135 809.007 651.266 809.153C651.182 809.169 651.088 809.174 651 809.174Z" fill="#202124"/>
<path d="M628.225 840.171L628.225 840.17L628.255 804.971H709.268L711.086 843.244C711.086 843.245 711.086 843.245 711.086 843.245C711.503 852.124 704.415 859.554 695.532 859.554H647.589C636.886 859.554 628.21 850.872 628.225 840.171Z" fill="#828282" stroke="#202124" stroke-width="3" stroke-linejoin="round"/>
<path d="M840.969 812.424L838.438 836.554L822.12 838.466V809.856L840.969 812.424Z" fill="white"/>
<path d="M823.719 811.689V836.674L836.985 835.116L839.219 813.799L823.719 811.689ZM822.125 840.059C821.735 840.059 821.354 839.918 821.058 839.658C820.719 839.351 820.526 838.918 820.526 838.465V809.861C820.526 809.398 820.729 808.96 821.078 808.653C821.422 808.351 821.881 808.215 822.339 808.278L841.183 810.846C842.037 810.96 842.641 811.736 842.558 812.59L840.026 836.721C839.943 837.46 839.36 838.049 838.62 838.137L822.308 840.054C822.245 840.059 822.188 840.059 822.125 840.059Z" fill="black"/>
<path d="M819.557 880.46C826.354 881.419 837.505 882.262 850.588 880.445C854.875 879.856 857.724 875.7 856.682 871.491C853.802 859.778 848.838 837.564 840.318 827.268L838.198 832.851L835.276 827.596C834.875 826.872 834.156 826.382 833.344 826.283L826.937 825.471C825.599 825.304 824.354 826.184 824.073 827.507L823.062 832.351L820.823 825.986L813.37 872.299C812.854 876.252 815.604 879.908 819.557 880.46Z" fill="#4880FF"/>
<path d="M819.776 878.882C826.672 879.856 837.578 880.643 850.365 878.872C851.964 878.648 853.411 877.752 854.318 876.419C855.229 875.065 855.521 873.455 855.13 871.872L854.51 869.335C851.839 858.361 847.505 840.539 840.771 830.559L839.687 833.419C839.469 833.997 838.932 834.398 838.312 834.445C837.693 834.486 837.104 834.169 836.797 833.622L833.875 828.367C833.724 828.091 833.448 827.903 833.135 827.867L826.729 827.054C826.208 826.992 825.74 827.335 825.635 827.835L824.615 832.679C824.464 833.382 823.875 833.898 823.156 833.95C822.443 833.986 821.786 833.554 821.542 832.882L821.396 832.455L814.943 872.554C814.547 875.591 816.703 878.45 819.776 878.882ZM834.969 883.117C828.698 883.117 823.349 882.611 819.333 882.044C814.542 881.372 811.156 876.903 811.786 872.091L819.245 825.742C819.359 825.018 819.953 824.466 820.677 824.403C821.401 824.335 822.083 824.773 822.323 825.46L822.698 826.533C823.385 824.773 825.208 823.643 827.135 823.887L833.531 824.7C834.849 824.867 836.021 825.658 836.667 826.82L837.922 829.07L838.818 826.7C839.026 826.174 839.49 825.789 840.052 825.695C840.615 825.601 841.177 825.809 841.547 826.252C849.719 836.127 854.661 856.445 857.615 868.585L858.229 871.111C858.828 873.549 858.365 876.132 856.958 878.21C855.542 880.294 853.302 881.69 850.802 882.033C845.099 882.82 839.771 883.117 834.969 883.117Z" fill="black"/>
<path d="M838.459 875.351C827.454 875.351 818.709 872.908 818.204 872.762C817.355 872.517 816.865 871.632 817.11 870.788C817.35 869.939 818.235 869.445 819.084 869.689C819.251 869.736 835.839 874.372 851.636 870.767C852.49 870.575 853.35 871.111 853.553 871.971C853.745 872.83 853.209 873.684 852.344 873.882C847.61 874.96 842.855 875.351 838.459 875.351Z" fill="black"/>
<path d="M842.344 857.413C842.334 857.413 842.313 857.413 842.292 857.413L827.001 856.908C826.121 856.877 825.428 856.142 825.464 855.257C825.49 854.382 826.256 853.658 827.115 853.715L842.402 854.221C843.282 854.252 843.969 854.986 843.943 855.872C843.917 856.736 843.209 857.413 842.344 857.413Z" fill="black"/>
<path d="M764.558 799.585L762.115 834.788H742.49L741.573 799.585H764.558Z" fill="white"/>
<path d="M744.042 833.189H760.626L762.85 801.179H743.214L744.042 833.189ZM762.115 836.382H742.49C741.621 836.382 740.917 835.695 740.891 834.83L739.98 799.622C739.97 799.195 740.131 798.778 740.433 798.471C740.73 798.163 741.147 797.986 741.574 797.986H764.558C765.001 797.986 765.428 798.169 765.725 798.497C766.032 798.814 766.183 799.252 766.157 799.689L763.709 834.898C763.652 835.736 762.954 836.382 762.115 836.382Z" fill="black"/>
<path d="M767.251 854.663C767.292 857.997 765.016 860.919 761.771 861.674C750.49 864.294 725.068 870.148 717.818 871.226C708.402 872.627 696.844 869.742 691.87 864.242C686.896 858.736 703.006 845.596 710.646 840.809C722.001 833.705 732.912 819.663 737.485 819.033C742.068 818.403 750.6 831.674 750.6 831.674L764.558 825.809C764.558 825.809 766.995 837.773 767.251 854.663Z" fill="#4880FF"/>
<path d="M737.865 820.606C737.813 820.606 737.755 820.606 737.714 820.616C735.927 820.861 731.74 824.84 727.683 828.684C722.813 833.299 717.302 838.533 711.5 842.163C704.026 846.835 693.297 856.075 692.568 861.273C692.422 862.325 692.776 862.856 693.058 863.168C697.511 868.09 708.516 870.997 717.589 869.642C724.839 868.564 750.657 862.622 761.412 860.111C763.907 859.533 765.693 857.252 765.651 854.684C765.464 842.007 764.026 832.064 763.344 828.049L751.224 833.137C750.511 833.439 749.688 833.189 749.266 832.538C745.495 826.679 740.099 820.606 737.865 820.606ZM712.927 873.168C704.11 873.168 695.011 870.09 690.688 865.309C689.604 864.111 689.167 862.564 689.407 860.83C690.485 853.127 704.86 842.549 709.808 839.455C715.339 835.997 720.724 830.882 725.479 826.366C731.224 820.918 734.599 817.819 737.276 817.45C741.969 816.793 748.443 825.564 751.219 829.684L763.948 824.34C764.391 824.153 764.886 824.174 765.308 824.398C765.735 824.622 766.037 825.023 766.13 825.491C766.151 825.611 768.599 837.793 768.849 854.642C768.907 858.694 766.084 862.309 762.141 863.226C751.344 865.736 725.427 871.71 718.058 872.804C716.386 873.054 714.662 873.168 712.927 873.168Z" fill="black"/>
<path d="M713.084 866.689C705.797 866.689 699.37 865.304 695.24 861.575C694.584 860.986 694.532 859.976 695.125 859.325C695.714 858.669 696.724 858.622 697.375 859.205C711.709 872.143 761.021 852.21 761.511 852.007C762.329 851.669 763.266 852.064 763.594 852.882C763.928 853.695 763.537 854.627 762.724 854.96C761.172 855.596 733.704 866.689 713.084 866.689Z" fill="black"/>
<path d="M734.844 845.392C734.469 845.392 734.088 845.257 733.776 844.976L723.797 835.971C723.14 835.382 723.088 834.372 723.682 833.721C724.271 833.064 725.281 833.012 725.937 833.601L735.916 842.606C736.573 843.195 736.625 844.21 736.031 844.861C735.719 845.21 735.286 845.392 734.844 845.392Z" fill="black"/>
<path d="M846.531 570.07C846.531 570.07 852.614 680.127 855.792 718.122C858.979 756.111 848.354 817.189 848.354 817.189L818.052 815.59C818.052 815.59 815.979 741.34 813.724 720.715C813.724 720.715 800.932 692.762 797.135 667.83C793.349 642.898 780.422 603.523 780.422 603.523C780.422 603.523 769.927 800.075 768.917 815.512C768.917 815.512 745.156 816.575 736.641 811.215C736.641 811.215 721.547 739.544 723.719 700.554C725.88 661.559 723.505 564.674 723.505 564.674L846.531 570.07Z" fill="black"/>
<path d="M828.568 722.309H819.313C818.433 722.309 817.714 721.59 817.714 720.71C817.714 719.825 818.433 719.111 819.313 719.111H828.568C829.453 719.111 830.167 719.825 830.167 720.71C830.167 721.59 829.453 722.309 828.568 722.309Z" fill="white"/>
<path d="M753.339 779.471C752.469 779.471 751.761 778.773 751.735 777.903C751.422 760.429 731.193 727.398 730.99 727.064C730.526 726.309 730.761 725.325 731.511 724.867C732.261 724.403 733.245 724.637 733.714 725.393C734.563 726.773 754.594 759.502 754.933 777.851C754.954 778.726 754.25 779.455 753.365 779.471C753.355 779.471 753.344 779.471 753.339 779.471Z" fill="white"/>
<path d="M713.912 394.043C711.709 393.877 700.881 416.049 667 415.116C633.12 414.195 605.938 376.283 605.938 376.283C605.938 376.283 594.24 356.549 585.365 349.413C576.474 342.283 575.084 341.346 575.084 341.346C575.084 341.346 572.303 345.054 575.084 349.413C577.87 353.783 585.558 361.945 585.558 361.945C585.558 361.945 577.089 366.596 580.907 376.283C585.297 387.418 597.678 386.517 597.678 386.517C597.678 386.517 622.792 497.736 726.61 444.887L713.912 394.043Z" fill="white"/>
<path d="M597.677 384.918C598.422 384.918 599.073 385.434 599.24 386.158C599.349 386.648 610.526 434.351 646.927 451.424C668.526 461.554 694.703 459.07 724.755 444.028L712.995 396.929C712.828 397.106 712.667 397.288 712.505 397.471C707.136 403.46 694.563 417.455 666.964 416.71C632.683 415.767 605.776 378.778 604.646 377.205C604.62 377.168 604.594 377.127 604.568 377.09C604.453 376.892 592.912 357.523 584.36 350.658C579.651 346.877 577.073 344.846 575.688 343.778C575.344 344.939 575.224 346.658 576.438 348.549C579.11 352.741 586.651 360.767 586.719 360.846C587.063 361.21 587.209 361.71 587.136 362.195C587.058 362.679 586.761 363.106 586.328 363.34C586.037 363.502 579.157 367.476 582.391 375.689C586.287 385.57 597.115 384.955 597.573 384.924C597.604 384.924 597.646 384.918 597.677 384.918ZM675.136 460.731C664.552 460.731 654.677 458.59 645.558 454.309C611.11 438.142 598.495 395.898 596.438 388.106C592.88 387.971 583.292 386.663 579.427 376.861C576.526 369.507 579.974 364.241 583.13 361.668C580.808 359.132 575.907 353.658 573.75 350.267C570.407 345.033 573.672 340.57 573.813 340.377C574.328 339.7 575.282 339.543 575.985 340.012C576.042 340.054 577.532 341.075 586.365 348.168C595.198 355.262 606.407 373.929 607.282 375.398C608.438 376.981 634.933 412.637 667.052 413.523C693.183 414.236 705.058 400.991 710.125 395.34C711.964 393.293 712.797 392.335 714.047 392.46C714.729 392.507 715.302 392.991 715.464 393.658L728.162 444.491C728.349 445.221 728.005 445.971 727.344 446.304C708.464 455.918 691.005 460.731 675.136 460.731Z" fill="black"/>
<path d="M881.839 444.887C881.839 444.887 871.673 379.262 835.751 363.111C799.829 346.971 751.24 349.21 737.834 357.278C724.428 365.34 689.506 401.794 689.506 401.794L720.37 444.887C720.37 444.887 713.313 560.877 718.891 591.497C718.891 591.497 753.23 595.502 767.792 589.768C782.355 584.028 830.235 575.997 853.126 586.507L848.964 439.658L881.839 444.887Z" fill="#FFC700"/>
<path d="M720.26 590.038C726.391 590.669 754.677 593.215 767.203 588.278C781.359 582.705 827.214 574.788 851.453 584.08L847.365 439.705C847.349 439.231 847.552 438.773 847.906 438.46C848.26 438.153 848.745 438.007 849.208 438.085L879.875 442.96C877.714 431.538 866.167 378.544 835.094 364.57C799.344 348.507 751.156 351.122 738.651 358.648C726.787 365.783 697.177 396.163 691.573 401.95L721.667 443.955C721.875 444.257 721.984 444.616 721.958 444.986C721.891 446.127 715.151 558.257 720.26 590.038ZM743.089 594.465C730.802 594.465 719.51 593.179 718.703 593.085C718.01 593.002 717.448 592.471 717.318 591.783C711.912 562.096 718.151 455.158 718.734 445.356L688.203 402.731C687.755 402.101 687.818 401.252 688.344 400.695C689.781 399.2 723.578 363.991 737.005 355.913C751.573 347.142 800.818 345.669 836.401 361.663C872.698 377.971 882.99 441.924 883.412 444.642C883.49 445.148 883.323 445.658 882.958 446.017C882.599 446.382 882.094 446.549 881.589 446.46L850.615 441.544L854.714 586.471C854.734 587.017 854.458 587.538 853.995 587.846C853.542 588.142 852.958 588.195 852.453 587.96C830.703 577.971 783.38 585.34 768.37 591.252C762.047 593.741 752.292 594.465 743.089 594.465Z" fill="black"/>
<path d="M821.573 557.84C821.485 557.84 821.396 557.83 821.297 557.82C765.287 547.913 748.87 508.846 748.714 508.455C748.386 507.637 748.776 506.71 749.594 506.377C750.406 506.043 751.339 506.439 751.672 507.257C751.828 507.632 767.667 545.096 821.844 554.674C822.719 554.83 823.297 555.653 823.146 556.517C823.005 557.299 822.334 557.84 821.573 557.84Z" fill="black"/>
<path d="M722.964 490.752H792.865L770.974 412.674H701.073L722.964 490.752Z" fill="black"/>
<path d="M875.677 445.137L840.297 429.325C840.297 429.325 845.281 489.262 773.708 461.585C773.708 461.585 776.349 453.882 775.974 444.887C775.604 435.887 770.219 444.59 769.469 451.903C768.714 459.215 751.906 456.252 741.813 453.366C731.714 450.486 718.464 452.372 741.813 465.252C765.167 478.137 770.281 472.392 770.281 472.392C770.281 472.392 800.109 514.116 837.214 505.252C882.854 494.346 875.677 445.137 875.677 445.137Z" fill="white"/>
<path d="M770.292 470.757C770.333 470.757 770.365 470.767 770.396 470.767C770.88 470.788 771.297 471.07 771.583 471.46C771.875 471.872 801.213 512.21 836.838 503.7C877.297 494.033 874.844 452.715 874.198 446.221L841.979 431.82C841.995 438.241 840.729 454.726 828.276 464.049C816.375 472.945 797.828 472.622 773.135 463.075C772.338 462.762 771.922 461.877 772.198 461.064C772.224 460.991 774.74 453.517 774.385 444.95C774.349 444.111 774.271 443.528 774.187 443.142C773.099 444.543 771.443 448.267 771.057 452.07C770.88 453.793 770 455.241 768.51 456.241C762.338 460.418 746.177 456.273 741.375 454.903C735.547 453.241 730.891 453.721 730.396 454.533C730.401 454.533 730.219 457.033 742.588 463.856C763.896 475.611 769.104 471.309 769.146 471.267C769.448 470.929 769.849 470.757 770.292 470.757ZM826.865 508.07C797.677 508.07 774.615 480.57 769.87 474.491C766.849 475.767 759.016 476.564 741.042 466.653C730.281 460.721 726.094 456.601 727.453 453.309C729.109 449.267 737.859 450.575 742.255 451.83C751.74 454.538 762.984 456.137 766.724 453.601C767.432 453.122 767.802 452.528 767.88 451.736C768.333 447.392 771.057 439.34 774.594 439.455C777.354 439.538 777.516 443.512 777.573 444.82C777.859 451.767 776.432 457.903 775.667 460.622C798.568 469.236 815.62 469.533 826.359 461.491C840.333 451.033 838.729 429.668 838.708 429.455C838.661 428.892 838.917 428.351 839.375 428.023C839.838 427.689 840.432 427.632 840.953 427.866L876.333 443.679C876.823 443.903 877.177 444.361 877.255 444.903C877.333 445.413 884.104 495.689 837.578 506.804C833.937 507.679 830.354 508.07 826.865 508.07Z" fill="black"/>
<path d="M781.245 333.205C784.307 335.997 790.276 339.419 794.958 337.07C798.438 335.309 800.38 330.767 800.26 325.57C801.87 325.7 803.99 325.58 805.495 324.252C807.813 322.205 807.375 318.424 807.286 315.945C806.87 304.491 813.526 302.736 811.891 294.965C810.62 288.856 805.818 285.221 804.922 284.538C800.396 281.106 797.328 282.21 789.708 280.215C776.901 276.861 776.49 271.34 768.052 271.314C767.563 271.314 756.068 271.434 752.177 279.377C749.005 285.83 752.703 293.674 756.542 297.799C761.5 303.132 765.057 300.497 770.031 304.976C778.766 312.835 772.172 324.892 781.245 333.205Z" fill="black"/>
<path d="M755.672 312.773L756.183 312.34C758.709 310.153 761.355 307.622 762.026 304.335C764.891 290.403 777.657 285.34 778.245 298.142C778.391 301.372 790.188 301.205 788.787 304.59C785.146 313.429 785.063 311.054 790.209 314.309C790.797 314.335 791.375 314.46 791.917 314.721C794.563 315.95 795.495 319.533 794.006 322.726C793.105 324.663 791.511 325.997 789.813 326.476V340.45C789.813 345.679 792.98 350.392 797.823 352.372L802.542 354.299C802.542 354.299 780.558 368.648 758.24 352.898L761.219 351.564C766.459 349.21 769.907 344.07 770.084 338.325L770.11 335.596C768.61 335.726 767.162 335.622 765.818 335.236C759.573 333.419 757.5 326.231 758.563 317.283L756.021 315.919C754.834 315.283 754.657 313.653 755.672 312.773Z" fill="white"/>
<path d="M761.542 353.163C777.521 362.924 792.713 357.512 798.849 354.518L797.219 353.851C791.755 351.616 788.219 346.356 788.219 340.445V326.481C788.219 325.768 788.687 325.143 789.375 324.945C790.703 324.57 791.885 323.486 792.562 322.049C793.125 320.84 793.266 319.549 792.963 318.393C792.693 317.34 792.078 316.554 791.239 316.163C790.906 316.012 790.542 315.924 790.146 315.903C789.859 315.893 789.594 315.809 789.354 315.658C788.484 315.111 787.771 314.731 787.193 314.424C783.635 312.518 784.224 311.163 785.963 307.143C786.323 306.33 786.745 305.351 787.234 304.158C786.614 303.674 784.573 303.101 783.312 302.741C780.094 301.846 776.771 300.913 776.646 298.215C776.573 296.533 776.099 292.601 773.385 292.387C770.448 292.179 765.281 296.393 763.588 304.663C762.807 308.471 759.891 311.247 757.224 313.554L756.713 313.986C756.609 314.08 756.604 314.195 756.604 314.268C756.614 314.346 756.656 314.445 756.771 314.518L759.312 315.882C759.891 316.195 760.219 316.82 760.141 317.471C759.646 321.679 759.245 331.663 766.26 333.705C767.354 334.023 768.604 334.127 769.969 334.002C770.417 333.965 770.859 334.116 771.193 334.424C771.521 334.721 771.708 335.158 771.703 335.611L771.677 338.335C771.484 344.684 767.63 350.434 761.87 353.018L761.542 353.163ZM780.786 361.825C773.646 361.825 765.484 359.965 757.318 354.2C756.849 353.872 756.594 353.314 756.651 352.747C756.708 352.169 757.062 351.674 757.583 351.445L760.562 350.111C765.219 348.018 768.328 343.377 768.489 338.273L768.5 337.241C767.391 337.21 766.344 337.054 765.364 336.768C759.005 334.913 755.932 328.174 756.859 318.184L755.26 317.33C754.245 316.783 753.562 315.768 753.432 314.611C753.302 313.465 753.755 312.325 754.63 311.57L755.13 311.137C757.406 309.174 759.88 306.851 760.463 304.018C762.437 294.387 768.838 288.814 773.63 289.2C774.995 289.309 779.448 290.262 779.833 297.997C780.276 298.58 782.802 299.288 784.172 299.669C786.963 300.455 789.38 301.127 790.219 302.856C790.583 303.59 790.594 304.403 790.26 305.2C789.729 306.491 789.271 307.549 788.896 308.419C788.406 309.538 787.948 310.601 787.812 311.111C788.031 311.247 788.38 311.434 788.698 311.606C789.245 311.898 789.906 312.257 790.719 312.752C791.38 312.825 792.01 313.002 792.588 313.273C794.307 314.075 795.536 315.601 796.057 317.585C796.542 319.455 796.328 321.523 795.448 323.403C794.573 325.288 793.13 326.757 791.411 327.58V340.445C791.411 345.054 794.167 349.148 798.427 350.898L803.146 352.82C803.693 353.049 804.068 353.564 804.125 354.148C804.187 354.741 803.906 355.314 803.417 355.643C803.26 355.736 793.703 361.825 780.786 361.825Z" fill="black"/>
<path d="M770.11 337.189C769.334 337.189 768.651 336.627 768.532 335.84C768.401 334.96 768.995 334.153 769.865 334.018C777.625 332.825 781.24 326.773 781.276 326.705C781.724 325.945 782.698 325.684 783.459 326.127C784.219 326.57 784.485 327.544 784.047 328.304C783.87 328.606 779.672 335.747 770.349 337.174C770.266 337.184 770.193 337.189 770.11 337.189Z" fill="black"/>
</svg>
