<svg width="882" height="881" viewBox="0 0 882 881" fill="none" xmlns="http://www.w3.org/2000/svg">
<path d="M18.2918 169.691C47.7918 110.926 106.542 79.0769 142.974 59.3269C300.469 -26.0637 514.703 -3.90747 656.953 75.0613C797.36 152.999 919.464 338.02 867.646 539.452C815.625 741.665 614.729 846.03 462.906 868.41C221.828 903.931 19.6981 745.228 8.73976 690.02C5.35955 672.988 6.28663 657.889 6.28663 657.889C10.6564 617.999 43.8231 594.238 51.7398 503.337C66.3127 336.087 -33.4425 272.764 18.2918 169.691Z" fill="#D1D1D1"/>
<path d="M765.49 852.389H186.063C177.235 852.389 170.886 846.931 170.089 838.665L100.427 122.801C99.745 115.66 103.203 108.254 108.74 102.707C114.068 97.3685 129.563 81.6029 129.563 81.6029L708.078 93.7487C716.906 93.7487 723.255 99.2123 724.047 107.478L802.979 826.827C802.979 826.827 790.568 838.65 784.531 844.275C779.302 849.15 772.427 852.389 765.49 852.389Z" fill="#232323"/>
<path d="M785.693 831.066H206.266C197.432 831.066 191.083 825.608 190.292 817.337L121.781 103.488C120.438 89.4831 135.052 74.4467 150.005 74.4467H729.432C738.255 74.4467 744.604 79.905 745.401 88.1654L813.912 802.02C815.255 816.025 800.641 831.066 785.693 831.066Z" fill="#4880FF"/>
<path d="M750.406 787.494H239.88C232.099 787.494 226.505 782.686 225.807 775.4L165.443 146.436C164.261 134.098 177.136 120.843 190.313 120.843H700.839C708.62 120.843 714.214 125.65 714.912 132.936L775.271 761.905C776.458 774.249 763.583 787.494 750.406 787.494Z" fill="#D1D1D1"/>
<path d="M170.849 195.895C170.052 195.895 169.365 195.296 169.276 194.483L163.87 146.483C163.287 140.441 165.766 133.9 170.656 128.52C176.005 122.634 183.349 119.124 190.313 119.124H652.49C653.365 119.124 654.084 119.837 654.084 120.712C654.084 121.593 653.365 122.301 652.49 122.301H190.313C184.229 122.301 177.761 125.421 173.011 130.655C168.714 135.374 166.537 141.025 167.026 146.155L172.433 194.129C172.531 195.004 171.901 195.79 171.031 195.884C170.969 195.889 170.912 195.895 170.849 195.895Z" fill="black"/>
<path d="M296.558 788.957H239.881C231.292 788.957 225.006 783.52 224.23 775.431L209.25 619.405C209.167 618.535 209.808 617.754 210.683 617.676C211.547 617.577 212.334 618.233 212.417 619.103L227.386 775.129C228.011 781.603 232.912 785.785 239.881 785.785H296.558C297.433 785.785 298.146 786.499 298.146 787.374C298.146 788.244 297.433 788.957 296.558 788.957Z" fill="black"/>
<path d="M739.974 395.535C739.162 395.535 738.474 394.915 738.396 394.098L732.755 335.363C732.672 334.488 733.313 333.712 734.182 333.624C735.042 333.54 735.833 334.186 735.917 335.056L741.552 393.796C741.636 394.66 740.995 395.442 740.125 395.525C740.073 395.53 740.021 395.535 739.974 395.535Z" fill="black"/>
<path d="M150.005 76.0352C143.042 76.0352 135.641 79.6029 130.203 85.5821C125.292 90.9884 122.797 97.4623 123.36 103.337L191.87 817.186C192.584 824.655 198.235 829.478 206.261 829.478H785.683C792.646 829.478 800.047 825.91 805.479 819.931C810.396 814.525 812.891 808.046 812.334 802.171L743.823 88.3269C743.104 80.8582 737.459 76.0352 729.422 76.0352H150.005ZM785.683 832.65H206.261C196.636 832.65 189.578 826.561 188.709 817.488L120.198 103.645C119.552 96.8738 122.339 89.5144 127.854 83.4467C133.886 76.8217 142.162 72.8582 150.005 72.8582H729.422C739.058 72.8582 746.11 78.9519 746.985 88.0248L815.49 801.869C816.141 808.634 813.349 815.999 807.828 822.061C801.802 828.692 793.526 832.65 785.683 832.65Z" fill="#232323"/>
<path d="M204.74 578.442C203.922 578.442 203.224 577.811 203.156 576.983L187.276 386.504C187.203 385.634 187.854 384.863 188.729 384.79C189.609 384.728 190.37 385.369 190.443 386.238L206.323 576.718C206.396 577.593 205.745 578.363 204.87 578.436C204.828 578.442 204.781 578.442 204.74 578.442Z" fill="black"/>
<path d="M64.7871 78.3373L77.0319 129.244C82.1517 150.072 120.85 158.301 163.459 147.624C206.068 136.947 236.459 111.4 231.339 90.5717L219.094 39.6654L64.7871 78.3373Z" fill="#232323"/>
<path d="M66.6985 79.4935L78.5735 128.874C79.8964 134.238 83.636 138.811 89.7037 142.462C105.381 151.9 134.183 153.316 163.074 146.077C204.771 135.629 234.704 110.895 229.797 90.9519L217.928 41.5977L66.6985 79.4935ZM127.152 153.915C111.433 153.915 97.6725 150.962 88.0631 145.181C81.2506 141.082 77.0214 135.848 75.4902 129.624L63.2454 78.7019C63.0423 77.8581 63.5579 77.0092 64.4068 76.7904L218.709 38.1238C219.12 38.0196 219.558 38.0873 219.917 38.306C220.282 38.5248 220.542 38.879 220.641 39.2904L232.881 90.2019C235.511 100.884 229.631 112.931 216.324 124.113C203.318 135.046 184.683 143.931 163.85 149.155C151.141 152.342 138.626 153.915 127.152 153.915Z" fill="black"/>
<path d="M219.594 23.1498L132.162 9.30606C130.542 9.14981 128.912 9.55085 127.552 10.4623L56.6878 63.9727L25.1826 71.8686L28.9378 87.1186C29.1722 88.0769 29.943 88.8946 31.1097 89.0144L149.766 100.754C151.386 100.91 153.016 100.504 154.375 99.5977L253.808 33.2019C254.787 32.5509 255.089 31.4571 254.854 30.504L251.104 15.254L219.594 23.1498Z" fill="#FFC700"/>
<path d="M27.1045 73.0248L30.4795 86.7332C30.5263 86.9259 30.693 87.3738 31.2659 87.4259L149.922 99.1655C151.172 99.3009 152.443 98.978 153.495 98.2696L252.927 31.879C253.417 31.5509 253.36 31.0717 253.313 30.8842L249.943 17.1759L219.985 24.6863C219.776 24.7384 219.563 24.7436 219.349 24.7123L131.917 10.8738C130.745 10.7592 129.485 11.0821 128.438 11.7853L57.6461 65.2436C57.4743 65.3686 57.2816 65.4571 57.0784 65.5144L27.1045 73.0248ZM150.453 102.369C150.172 102.369 149.891 102.358 149.61 102.332L30.9534 90.5821C29.2086 90.4155 27.8128 89.2019 27.3909 87.4988L23.6409 72.2488C23.4326 71.3946 23.9482 70.5405 24.7972 70.3269L55.9899 62.5092L126.594 9.19151C128.328 8.03526 130.334 7.53526 132.318 7.72276L219.526 21.5248L250.719 13.7123C251.125 13.603 251.563 13.6759 251.922 13.8894C252.287 14.1082 252.547 14.4623 252.646 14.8686L256.396 30.1186C256.818 31.8217 256.146 33.5509 254.693 34.5248L155.261 100.915C153.834 101.869 152.157 102.369 150.453 102.369Z" fill="black"/>
<path d="M248.927 13.3634L130.271 1.61861C128.651 1.45715 127.021 1.8634 125.662 2.77486L26.2294 69.1707C24.271 70.4728 25.021 73.5301 27.3596 73.7592L146.016 85.504C147.636 85.6603 149.266 85.254 150.625 84.3478L250.057 17.9467C252.016 16.6446 251.266 13.5926 248.927 13.3634Z" fill="#232323"/>
<path d="M129.583 3.17064C128.511 3.17064 127.448 3.48835 126.542 4.09252L27.1095 70.4884C26.6199 70.8165 26.6772 71.3061 26.7241 71.4936C26.771 71.6811 26.9428 72.1238 27.5106 72.1811L146.167 83.9206C147.422 84.0509 148.693 83.7331 149.74 83.0248L249.177 16.629C249.667 16.3009 249.61 15.8217 249.557 15.629C249.511 15.4415 249.344 14.9988 248.771 14.9415L130.115 3.19668C129.938 3.18627 129.761 3.17064 129.583 3.17064ZM146.698 87.1238C146.417 87.1238 146.136 87.1081 145.86 87.0821L27.2033 75.3425C25.4689 75.1654 24.0731 73.9675 23.646 72.2644C23.2189 70.5613 23.8856 68.8269 25.3439 67.8477L124.781 1.4571C126.438 0.347727 128.443 -0.152273 130.427 0.040435L249.083 11.78C250.818 11.9519 252.214 13.1602 252.641 14.8581C253.068 16.5665 252.401 18.3009 250.943 19.2696L151.505 85.6706C150.078 86.6186 148.401 87.1238 146.698 87.1238Z" fill="black"/>
<path d="M204.641 93.504C204.635 93.504 204.63 93.504 204.625 93.504C203.75 93.4988 203.047 92.7853 203.052 91.9051L203.432 49.7696L137.271 42.3113C136.396 42.2175 135.771 41.4363 135.87 40.5613C135.969 39.6915 136.755 39.0613 137.625 39.1603L205.213 46.78C206.021 46.8738 206.63 47.5561 206.625 48.3686L206.229 91.9311C206.219 92.8009 205.51 93.504 204.641 93.504Z" fill="black"/>
<path d="M204.574 88.4415C202.344 88.4988 200.542 90.28 200.449 92.5092L197.803 155.405L214.896 154.947L208.907 92.28C208.693 90.0613 206.798 88.379 204.574 88.4415Z" fill="#FFC700"/>
<path d="M204.688 90.0248C204.662 90.0248 204.641 90.0248 204.615 90.0248C203.23 90.0665 202.1 91.1759 202.037 92.5717L199.464 153.77L213.152 153.4L207.324 92.4259C207.199 91.0665 206.042 90.0248 204.688 90.0248ZM197.803 156.988C197.381 156.988 196.975 156.822 196.673 156.514C196.365 156.202 196.199 155.775 196.22 155.337L198.865 92.4363C198.99 89.3894 201.485 86.9311 204.532 86.8478C207.568 86.7488 210.193 89.0821 210.485 92.129L216.48 154.79C216.522 155.228 216.381 155.665 216.084 155.994C215.792 156.322 215.381 156.514 214.938 156.525L197.85 156.988C197.834 156.988 197.818 156.988 197.803 156.988Z" fill="black"/>
<path d="M584.188 593.124L260.229 595.301C252.375 595.353 245.563 589.16 245.011 581.462L239.224 500.676C238.672 492.978 244.594 486.692 252.443 486.639L576.412 484.468C584.261 484.416 591.078 490.608 591.625 498.306L597.412 579.093C597.964 586.791 592.047 593.072 584.188 593.124Z" fill="white"/>
<path d="M576.506 486.056C576.474 486.056 576.448 486.056 576.422 486.056L252.453 488.233C249.052 488.254 245.969 489.577 243.771 491.957C241.631 494.27 240.578 497.327 240.808 500.561L246.594 581.348C247.084 588.186 253.146 593.717 260.131 593.717C260.162 593.717 260.188 593.717 260.219 593.717L584.183 591.535C587.584 591.514 590.667 590.186 592.87 587.811C595.011 585.493 596.063 582.441 595.828 579.202L590.042 498.421C589.552 491.582 583.485 486.056 576.506 486.056ZM260.131 596.889C251.516 596.889 244.032 590.04 243.427 581.577L237.641 500.785C237.344 496.671 238.693 492.764 241.438 489.801C244.24 486.77 248.146 485.082 252.433 485.056L576.396 482.879C576.433 482.879 576.474 482.879 576.506 482.879C585.125 482.879 592.599 489.723 593.209 498.191L598.995 578.978C599.292 583.103 597.943 586.999 595.198 589.967C592.401 592.999 588.49 594.681 584.203 594.707L260.24 596.889C260.203 596.889 260.167 596.889 260.131 596.889Z" fill="black"/>
<path d="M568.537 538.874C569.995 559.296 554.287 575.968 533.448 576.108C512.604 576.249 494.531 559.801 493.063 539.384C491.604 518.957 507.313 502.285 528.146 502.15C548.99 502.009 567.073 518.452 568.537 538.874Z" fill="#D1D1D1"/>
<path d="M519.844 524.165L527.225 554.129L549.865 534.384L519.844 524.165ZM526.308 558.624C526.146 558.624 525.985 558.603 525.829 558.551C525.303 558.384 524.896 557.952 524.761 557.415L516.068 522.108C515.928 521.546 516.11 520.947 516.537 520.556C516.969 520.16 517.573 520.04 518.12 520.228L553.495 532.27C554.032 532.452 554.433 532.905 554.542 533.462C554.652 534.02 554.454 534.593 554.032 534.968L527.35 558.228C527.058 558.488 526.688 558.624 526.308 558.624Z" fill="black"/>
<path d="M523.776 521.681C524.011 525.02 521.448 527.744 518.042 527.77C514.641 527.79 511.683 525.103 511.448 521.77C511.209 518.431 513.771 515.712 517.177 515.686C520.578 515.66 523.531 518.348 523.776 521.681Z" fill="white"/>
<path d="M517.224 517.275C517.209 517.275 517.198 517.275 517.188 517.275C515.964 517.28 514.86 517.754 514.073 518.598C513.318 519.421 512.948 520.504 513.032 521.655C513.209 524.155 515.438 526.181 518 526.181C518.011 526.181 518.021 526.181 518.032 526.181C519.25 526.171 520.36 525.697 521.141 524.853C521.901 524.035 522.276 522.947 522.188 521.801C522.011 519.301 519.787 517.275 517.224 517.275ZM518 529.353C513.802 529.353 510.157 526.009 509.86 521.879C509.719 519.848 510.386 517.91 511.745 516.441C513.136 514.947 515.058 514.113 517.167 514.098C517.183 514.098 517.204 514.098 517.224 514.098C521.417 514.098 525.058 517.441 525.355 521.572C525.5 523.608 524.834 525.54 523.48 527.009C522.089 528.509 520.162 529.342 518.052 529.353C518.037 529.353 518.016 529.353 518 529.353Z" fill="black"/>
<path d="M534.36 556.983C534.672 561.342 531.318 564.9 526.875 564.936C522.422 564.962 518.558 561.452 518.245 557.092C517.938 552.728 521.292 549.171 525.74 549.139C530.188 549.113 534.052 552.624 534.36 556.983Z" fill="white"/>
<path d="M525.797 550.728C525.781 550.728 525.766 550.728 525.75 550.728C524.016 550.744 522.448 551.41 521.334 552.619C520.25 553.785 519.714 555.337 519.834 556.978C520.084 560.509 523.229 563.337 526.86 563.343C528.594 563.332 530.167 562.66 531.281 561.452C532.365 560.285 532.896 558.738 532.776 557.098C532.526 553.577 529.401 550.728 525.797 550.728ZM526.813 566.52C521.584 566.52 517.037 562.358 516.667 557.207C516.485 554.676 517.313 552.285 518.995 550.462C520.714 548.608 523.104 547.572 525.729 547.556C530.974 547.509 535.578 551.697 535.948 556.869C536.125 559.395 535.297 561.79 533.615 563.613C531.896 565.468 529.505 566.504 526.88 566.52C526.86 566.52 526.839 566.52 526.813 566.52Z" fill="black"/>
<path d="M559.146 533.728C559.386 537.061 556.818 539.785 553.417 539.811C550.011 539.832 547.058 537.145 546.823 533.811C546.584 530.473 549.146 527.754 552.552 527.728C555.953 527.707 558.906 530.395 559.146 533.728Z" fill="white"/>
<path d="M552.594 529.316C552.584 529.316 552.573 529.316 552.563 529.316C551.339 529.327 550.235 529.796 549.453 530.645C548.693 531.462 548.323 532.546 548.406 533.697C548.584 536.197 550.807 538.223 553.375 538.223C553.38 538.223 553.396 538.223 553.406 538.223C554.63 538.212 555.729 537.743 556.516 536.895C557.276 536.077 557.646 534.993 557.563 533.842C557.38 531.342 555.156 529.316 552.594 529.316ZM553.375 541.4C549.177 541.4 545.531 538.056 545.24 533.926C545.089 531.889 545.755 529.957 547.12 528.483C548.505 526.988 550.432 526.155 552.542 526.145C552.557 526.145 552.573 526.145 552.594 526.145C556.792 526.145 560.438 529.483 560.729 533.613C560.88 535.65 560.209 537.582 558.849 539.051C557.464 540.551 555.537 541.384 553.427 541.4C553.406 541.4 553.396 541.4 553.375 541.4Z" fill="black"/>
<path d="M277.688 524.733C276.818 524.733 276.105 524.025 276.1 523.155C276.094 522.28 276.803 521.561 277.678 521.556L457.235 520.353C458.1 520.337 458.829 521.051 458.834 521.931C458.839 522.806 458.131 523.52 457.256 523.525L277.699 524.733C277.699 524.733 277.693 524.733 277.688 524.733Z" fill="black"/>
<path d="M409.808 541.525C408.933 541.525 408.224 540.827 408.219 539.947C408.214 539.072 408.922 538.363 409.797 538.353L433.922 538.186C433.928 538.186 433.933 538.186 433.938 538.186C434.808 538.186 435.516 538.895 435.527 539.764C435.532 540.65 434.823 541.358 433.948 541.369L409.818 541.525C409.813 541.525 409.813 541.525 409.808 541.525Z" fill="black"/>
<path d="M278.954 542.405C278.084 542.405 277.376 541.707 277.365 540.832C277.36 539.957 278.068 539.238 278.943 539.233L365.527 538.65C366.407 538.592 367.12 539.353 367.131 540.228C367.136 541.103 366.428 541.822 365.553 541.827L278.969 542.405C278.964 542.405 278.959 542.405 278.954 542.405Z" fill="black"/>
<path d="M366.807 559.499C365.932 559.499 365.224 558.796 365.219 557.921C365.208 557.046 365.917 556.337 366.792 556.327L399.266 556.108C399.271 556.108 399.271 556.108 399.271 556.108C400.141 556.108 400.854 556.811 400.859 557.686C400.865 558.561 400.162 559.28 399.281 559.285L366.818 559.499C366.813 559.499 366.807 559.499 366.807 559.499Z" fill="black"/>
<path d="M280.219 560.082C279.35 560.082 278.636 559.379 278.631 558.504C278.626 557.629 279.334 556.91 280.209 556.91L329.891 556.577C329.897 556.577 329.897 556.577 329.897 556.577C330.777 556.577 331.485 557.28 331.485 558.155C331.495 559.03 330.792 559.744 329.912 559.749L280.23 560.082C280.23 560.082 280.225 560.082 280.219 560.082Z" fill="black"/>
<path d="M399.178 322.264L75.3078 324.53C67.4588 324.587 60.3807 318.124 59.4953 310.098L50.2349 225.837C49.3547 217.811 55.0057 211.259 62.8547 211.207L386.724 208.936C394.579 208.879 401.657 215.343 402.537 223.369L411.797 307.629C412.678 315.65 407.032 322.207 399.178 322.264Z" fill="white"/>
<path d="M386.824 210.525C386.792 210.525 386.761 210.525 386.735 210.525L62.8652 212.796C59.5996 212.822 56.6569 214.113 54.5839 216.447C52.4121 218.884 51.4329 222.16 51.8183 225.665L61.0735 309.926C61.8704 317.155 68.2819 323.004 75.2975 322.947L399.167 320.676C402.433 320.655 405.37 319.358 407.449 317.03C409.615 314.582 410.605 311.311 410.219 307.801L400.959 223.546C400.167 216.348 393.834 210.525 386.824 210.525ZM75.2089 326.119C66.6256 326.124 58.8808 319.035 57.9173 310.275L48.6569 226.014C48.1725 221.603 49.4381 217.452 52.2142 214.332C54.8912 211.322 58.6673 209.65 62.8444 209.624L386.714 207.353C386.745 207.353 386.787 207.353 386.818 207.353C395.407 207.353 403.152 214.436 404.11 223.197L413.37 307.452C413.86 311.869 412.594 316.014 409.818 319.134C407.141 322.145 403.365 323.822 399.193 323.848L75.3183 326.119C75.2819 326.119 75.2454 326.119 75.2089 326.119Z" fill="black"/>
<path d="M89.6667 250.863C88.7969 250.863 88.0834 250.16 88.0782 249.29C88.0729 248.41 88.7761 247.697 89.6563 247.691L269.161 246.431C269.161 246.431 269.167 246.431 269.172 246.431C270.042 246.431 270.75 247.134 270.76 248.009C270.766 248.884 270.057 249.603 269.182 249.608L89.6771 250.863C89.6719 250.863 89.6719 250.863 89.6667 250.863Z" fill="black"/>
<path d="M244.412 268.228C243.542 268.228 242.834 267.525 242.823 266.655C242.818 265.775 243.526 265.056 244.401 265.051L257.797 264.962C257.797 264.962 257.802 264.962 257.808 264.962C258.677 264.962 259.386 265.665 259.396 266.535C259.401 267.41 258.693 268.124 257.818 268.134L244.427 268.228C244.422 268.228 244.417 268.228 244.412 268.228Z" fill="black"/>
<path d="M165.657 268.78C164.787 268.78 164.079 268.077 164.073 267.202C164.063 266.327 164.771 265.608 165.646 265.603L231.006 265.15C231.011 265.15 231.016 265.15 231.016 265.15C231.891 265.15 232.599 265.853 232.605 266.723C232.61 267.603 231.907 268.311 231.026 268.322L165.672 268.78C165.667 268.78 165.662 268.78 165.657 268.78Z" fill="black"/>
<path d="M91.6931 269.296C90.8233 269.296 90.1097 268.598 90.1045 267.723C90.0993 266.848 90.8076 266.129 91.6826 266.124L116.516 265.947C116.521 265.947 116.526 265.947 116.526 265.947C117.401 265.947 118.11 266.655 118.115 267.525C118.12 268.4 117.417 269.113 116.537 269.124L91.7035 269.296C91.6983 269.296 91.6983 269.296 91.6931 269.296Z" fill="black"/>
<path d="M196.506 287.014C195.636 287.014 194.927 286.311 194.917 285.436C194.912 284.561 195.62 283.843 196.495 283.837L236.584 283.561C236.589 283.561 236.594 283.561 236.594 283.561C237.469 283.561 238.177 284.259 238.183 285.134C238.188 286.009 237.485 286.728 236.605 286.733L196.521 287.014C196.516 287.014 196.511 287.014 196.506 287.014Z" fill="black"/>
<path d="M93.7194 287.733C92.8496 287.733 92.1361 287.03 92.1309 286.155C92.1257 285.28 92.834 284.567 93.709 284.561L150.469 284.16C150.469 284.16 150.475 284.16 150.48 284.16C151.35 284.16 152.058 284.863 152.068 285.738C152.074 286.613 151.37 287.332 150.49 287.332L93.7298 287.733C93.7246 287.733 93.7246 287.733 93.7194 287.733Z" fill="black"/>
<path d="M381.188 265.681C383.532 286.978 368.542 304.374 347.704 304.514C326.87 304.66 308.084 287.514 305.745 266.207C303.402 244.91 318.391 227.52 339.23 227.379C360.063 227.233 378.844 244.379 381.188 265.681Z" fill="#D1D1D1"/>
<path d="M349.438 259.884L347.777 244.775L334.511 244.869L336.172 259.973C330.126 262.686 326.37 269.087 327.188 276.525C328.271 286.369 336.948 294.29 346.573 294.223C356.198 294.155 363.12 286.124 362.037 276.28C361.219 268.842 356.058 262.509 349.438 259.884Z" fill="white"/>
<path d="M336.281 246.436L337.755 259.796C337.823 260.478 337.448 261.139 336.823 261.415C331.208 263.936 328.047 269.801 328.771 276.348C329.761 285.348 337.682 292.629 346.453 292.629C346.49 292.629 346.526 292.629 346.557 292.629C350.667 292.603 354.365 290.973 356.979 288.04C359.703 284.973 360.948 280.858 360.458 276.447C359.729 269.78 355.172 263.853 348.854 261.353C348.307 261.139 347.922 260.634 347.859 260.051L346.354 246.369L336.281 246.436ZM346.453 295.806C336.104 295.806 326.771 287.259 325.615 276.697C324.787 269.165 328.24 262.363 334.469 259.035L332.932 245.04C332.886 244.593 333.026 244.145 333.328 243.806C333.62 243.473 334.052 243.28 334.5 243.28L347.761 243.186C347.766 243.186 347.771 243.186 347.776 243.186C348.589 243.186 349.266 243.796 349.359 244.598L350.917 258.78C357.849 261.895 362.797 268.598 363.615 276.108C364.198 281.415 362.682 286.4 359.349 290.15C356.13 293.759 351.599 295.77 346.583 295.806C346.542 295.806 346.495 295.806 346.453 295.806Z" fill="black"/>
<path d="M349.688 247.593L333.224 247.707C331.834 247.718 330.584 246.577 330.432 245.16L330.24 243.41C330.084 241.994 331.078 240.832 332.469 240.822L348.932 240.707C350.318 240.697 351.568 241.843 351.729 243.259L351.927 245.004C352.078 246.426 351.078 247.582 349.688 247.593Z" fill="white"/>
<path d="M348.943 242.301H348.938L332.48 242.421C332.271 242.421 332.099 242.488 331.98 242.629C331.844 242.775 331.782 242.999 331.813 243.244L332.006 244.988C332.073 245.603 332.662 246.119 333.209 246.129L349.672 246.009C349.876 246.009 350.053 245.942 350.172 245.801C350.308 245.65 350.365 245.431 350.334 245.186L350.146 243.442C350.079 242.837 349.516 242.301 348.943 242.301ZM333.204 249.301C331.006 249.301 329.094 247.561 328.849 245.337L328.657 243.593C328.532 242.457 328.881 241.337 329.61 240.514C330.329 239.702 331.344 239.249 332.454 239.244L348.917 239.129C351.105 239.077 353.058 240.858 353.303 243.098L353.501 244.837C353.62 245.978 353.271 247.098 352.547 247.916C351.818 248.728 350.808 249.181 349.693 249.186L333.23 249.301C333.219 249.301 333.214 249.301 333.204 249.301Z" fill="black"/>
<path d="M330.818 275.78C329.943 275.78 329.235 275.077 329.23 274.207C329.224 273.332 329.927 272.613 330.802 272.608L357.631 272.421C357.636 272.421 357.641 272.421 357.641 272.421C358.516 272.421 359.224 273.124 359.23 273.994C359.24 274.874 358.532 275.587 357.657 275.593L330.828 275.78C330.823 275.78 330.818 275.78 330.818 275.78Z" fill="black"/>
<path d="M702.266 450.994L378.391 453.264C370.537 453.316 363.459 446.858 362.573 438.832L353.318 354.572C352.438 346.546 358.089 339.994 365.932 339.941L689.807 337.671C697.651 337.613 704.735 344.077 705.62 352.103L714.875 436.363C715.755 444.389 710.104 450.941 702.266 450.994Z" fill="#4880FF"/>
<path d="M392.75 379.593C391.875 379.593 391.167 378.889 391.162 378.02C391.156 377.139 391.865 376.426 392.74 376.421L572.245 375.16C572.25 375.16 572.25 375.16 572.255 375.16C573.125 375.16 573.834 375.869 573.844 376.738C573.844 377.619 573.141 378.327 572.266 378.337L392.761 379.593C392.761 379.593 392.755 379.593 392.75 379.593Z" fill="white"/>
<path d="M547.495 396.962C546.626 396.962 545.917 396.254 545.907 395.384C545.902 394.509 546.61 393.79 547.485 393.785L560.876 393.692C560.881 393.692 560.886 393.692 560.891 393.692C561.761 393.692 562.469 394.395 562.48 395.27C562.48 396.145 561.777 396.858 560.896 396.863L547.511 396.962C547.506 396.962 547.501 396.962 547.495 396.962Z" fill="white"/>
<path d="M468.745 397.514C467.87 397.514 467.162 396.806 467.156 395.936C467.146 395.061 467.854 394.343 468.729 394.337L534.083 393.879C534.089 393.879 534.094 393.879 534.099 393.879C534.969 393.879 535.682 394.582 535.688 395.457C535.693 396.332 534.984 397.046 534.109 397.051L468.755 397.514C468.75 397.514 468.745 397.514 468.745 397.514Z" fill="white"/>
<path d="M394.777 398.03C393.902 398.03 393.198 397.327 393.188 396.457C393.183 395.577 393.891 394.863 394.766 394.853L419.599 394.681C419.599 394.681 419.605 394.681 419.61 394.681C420.485 394.681 421.193 395.384 421.198 396.259C421.204 397.134 420.495 397.853 419.62 397.853L394.787 398.03C394.787 398.03 394.782 398.03 394.777 398.03Z" fill="white"/>
<path d="M499.589 415.744C498.719 415.744 498.011 415.04 498.001 414.171C497.995 413.296 498.704 412.577 499.579 412.572L539.667 412.29C539.672 412.29 539.678 412.29 539.678 412.29C540.553 412.29 541.261 412.988 541.266 413.863C541.271 414.738 540.568 415.457 539.693 415.462L499.605 415.744C499.599 415.744 499.594 415.744 499.589 415.744Z" fill="white"/>
<path d="M396.802 416.468C395.927 416.468 395.224 415.759 395.214 414.889C395.209 414.014 395.917 413.296 396.792 413.296L453.547 412.895C453.552 412.895 453.558 412.895 453.563 412.895C454.438 412.895 455.141 413.598 455.151 414.468C455.157 415.348 454.448 416.061 453.573 416.067L396.813 416.468C396.808 416.468 396.808 416.468 396.802 416.468Z" fill="white"/>
<path d="M684.271 394.41C686.615 415.707 671.62 433.098 650.787 433.249C629.953 433.389 611.167 416.238 608.828 394.941C606.484 373.639 621.479 356.254 642.307 356.108C663.141 355.962 681.932 373.108 684.271 394.41Z" fill="#D1D1D1"/>
<path d="M689.907 339.259C689.881 339.259 689.85 339.259 689.813 339.259L365.948 341.53C362.683 341.551 359.74 342.848 357.667 345.176C355.495 347.613 354.511 350.895 354.896 354.4L364.157 438.66C364.948 445.853 371.282 451.676 378.292 451.676C378.318 451.676 378.35 451.676 378.381 451.676L702.245 449.405C705.516 449.389 708.454 448.093 710.532 445.759C712.704 443.322 713.683 440.046 713.297 436.535L704.037 352.28C703.245 345.077 696.917 339.259 689.907 339.259ZM378.292 454.858C369.709 454.858 361.964 447.77 361.001 439.004L351.74 354.744C351.256 350.337 352.516 346.186 355.297 343.061C357.969 340.056 361.751 338.384 365.928 338.358L689.792 336.077C689.834 336.077 689.87 336.077 689.902 336.077C698.49 336.077 706.23 343.171 707.198 351.936L716.459 436.186C716.938 440.603 715.683 444.749 712.902 447.869C710.219 450.884 706.448 452.556 702.271 452.582L378.402 454.858C378.365 454.858 378.329 454.858 378.292 454.858Z" fill="white"/>
<path d="M811.188 259.353L487.313 261.624C479.459 261.681 472.386 255.218 471.495 247.197L462.235 162.936C461.355 154.905 467.011 148.358 474.855 148.301L798.724 146.03C806.579 145.978 813.657 152.436 814.542 160.468L823.797 244.728C824.678 252.749 819.032 259.301 811.188 259.353Z" fill="white"/>
<path d="M501.667 187.962C500.797 187.962 500.084 187.254 500.079 186.384C500.073 185.504 500.782 184.79 501.657 184.785L681.162 183.525C681.167 183.525 681.167 183.525 681.172 183.525C682.042 183.525 682.756 184.228 682.761 185.103C682.766 185.978 682.063 186.697 681.183 186.702L501.683 187.962C501.678 187.962 501.672 187.962 501.667 187.962Z" fill="black"/>
<path d="M656.412 205.327C655.542 205.327 654.834 204.624 654.823 203.749C654.818 202.874 655.521 202.16 656.401 202.15L669.787 202.056C669.792 202.056 669.797 202.056 669.802 202.056C670.672 202.056 671.381 202.764 671.391 203.639C671.396 204.509 670.688 205.228 669.813 205.238L656.422 205.327C656.422 205.327 656.417 205.327 656.412 205.327Z" fill="black"/>
<path d="M577.662 205.879C576.781 205.879 576.078 205.176 576.068 204.306C576.063 203.426 576.766 202.712 577.646 202.707L643 202.249C643.005 202.249 643.011 202.249 643.016 202.249C643.886 202.249 644.599 202.947 644.604 203.827C644.61 204.702 643.896 205.415 643.026 205.426L577.667 205.879C577.662 205.879 577.662 205.879 577.662 205.879Z" fill="black"/>
<path d="M503.693 206.395C502.823 206.395 502.11 205.691 502.105 204.822C502.099 203.941 502.808 203.228 503.683 203.223L528.511 203.046C528.516 203.046 528.521 203.046 528.526 203.046C529.396 203.046 530.105 203.754 530.115 204.624C530.12 205.499 529.417 206.218 528.537 206.223L503.709 206.395C503.703 206.395 503.698 206.395 503.693 206.395Z" fill="black"/>
<path d="M608.506 224.108C607.636 224.108 606.928 223.405 606.922 222.535C606.917 221.66 607.62 220.941 608.495 220.936L648.584 220.655C648.589 220.655 648.594 220.655 648.594 220.655C649.469 220.655 650.178 221.358 650.178 222.228C650.188 223.103 649.485 223.822 648.61 223.827L608.521 224.108C608.516 224.108 608.511 224.108 608.506 224.108Z" fill="black"/>
<path d="M505.719 224.832C504.849 224.832 504.141 224.124 504.13 223.254C504.125 222.374 504.834 221.66 505.709 221.655L562.464 221.259C562.469 221.259 562.479 221.259 562.479 221.259C563.354 221.259 564.057 221.962 564.068 222.832C564.073 223.712 563.37 224.426 562.49 224.431L505.735 224.832C505.729 224.832 505.724 224.832 505.719 224.832Z" fill="black"/>
<path d="M793.188 202.78C795.532 224.082 780.537 241.468 759.709 241.613C738.87 241.764 720.078 224.608 717.74 203.311C715.407 182.009 730.396 164.619 751.224 164.473C772.063 164.327 790.844 181.473 793.188 202.78Z" fill="#D1D1D1"/>
<path d="M739.615 198.389H745.209L741.079 189.593L739.615 198.389ZM747.417 203.108H738.829L738.042 207.848H731.344L737.063 182.483H742.954L756.391 207.848H749.657L747.417 203.108Z" fill="#232323"/>
<path d="M759.761 202.811C760.63 202.811 761.386 203.061 762.042 203.561C762.688 204.066 763.073 204.712 763.198 205.494C763.313 206.28 763.125 206.926 762.625 207.426C762.125 207.926 761.438 208.181 760.573 208.181C759.688 208.181 758.922 207.926 758.276 207.415C757.63 206.905 757.255 206.27 757.136 205.494C757.016 204.723 757.209 204.082 757.698 203.572C758.193 203.061 758.886 202.811 759.761 202.811Z" fill="#232323"/>
<path d="M767.214 202.817C768.078 202.817 768.839 203.067 769.49 203.567C770.141 204.072 770.532 204.712 770.651 205.494C770.761 206.285 770.573 206.926 770.073 207.426C769.573 207.931 768.886 208.186 768.021 208.186C767.136 208.186 766.37 207.926 765.729 207.421C765.084 206.91 764.698 206.27 764.589 205.494C764.464 204.728 764.662 204.082 765.146 203.572C765.641 203.067 766.334 202.817 767.214 202.817Z" fill="#232323"/>
<path d="M774.662 202.811C775.526 202.811 776.292 203.066 776.943 203.566C777.594 204.072 777.979 204.718 778.099 205.499C778.214 206.28 778.021 206.926 777.521 207.431C777.021 207.931 776.339 208.186 775.469 208.186C774.589 208.186 773.828 207.931 773.177 207.421C772.531 206.915 772.151 206.27 772.037 205.499C771.917 204.728 772.109 204.087 772.599 203.577C773.089 203.066 773.781 202.811 774.662 202.811Z" fill="#232323"/>
<path d="M770.771 220.634H777.068L777.552 223.874H765.828L765.474 221.535L770.412 213.65H764.552L764.068 210.41H775.386L775.724 212.676L770.771 220.634Z" fill="#232323"/>
<path d="M487.209 263.212C478.63 263.212 470.88 256.129 469.922 247.369L460.662 163.113C460.172 158.691 461.438 154.546 464.219 151.426C466.896 148.415 470.672 146.744 474.844 146.712L798.719 144.447C798.755 144.447 798.792 144.447 798.823 144.447C807.417 144.447 815.156 151.53 816.12 160.285L825.38 244.546C825.865 248.967 824.599 253.113 821.823 256.228C819.141 259.244 815.37 260.915 811.193 260.947L538.781 262.858C538.776 262.858 538.766 262.858 538.761 262.858C537.891 262.858 537.183 262.15 537.177 261.28C537.172 260.4 537.875 259.681 538.755 259.676L811.172 257.775C814.432 257.749 817.375 256.452 819.448 254.119C821.62 251.676 822.604 248.405 822.224 244.895L812.959 160.639C812.172 153.441 805.844 147.619 798.828 147.619C798.802 147.619 798.771 147.619 798.74 147.619L474.87 149.884C471.604 149.91 468.667 151.202 466.589 153.535C464.412 155.978 463.433 159.254 463.818 162.759L473.078 247.02C473.875 254.249 480.255 260.129 487.297 260.04L505.224 259.91C505.229 259.91 505.229 259.91 505.235 259.91C506.104 259.91 506.813 260.619 506.818 261.488C506.828 262.363 506.125 263.087 505.24 263.092L487.318 263.212C487.292 263.212 487.245 263.212 487.209 263.212Z" fill="black"/>
<path d="M756.307 766.061C756.958 767.066 781.672 802.4 781.672 802.4C781.672 802.4 781.047 811.4 774.651 813.155L745.255 781.358L756.307 766.061Z" fill="white"/>
<path d="M747.297 781.238L775.099 811.306C778.818 809.624 779.802 804.488 780.026 802.817C777.349 798.983 761.063 775.707 756.276 768.817L747.297 781.238ZM774.641 814.744C774.209 814.744 773.787 814.556 773.474 814.233L744.078 782.436C743.573 781.884 743.521 781.04 743.959 780.431L755.016 765.134C755.328 764.707 755.823 764.468 756.354 764.478C756.875 764.494 757.36 764.77 757.641 765.207C758.188 766.051 774.448 789.306 782.974 801.494C783.183 801.785 783.282 802.145 783.256 802.504C783.224 802.921 782.464 812.655 775.063 814.686C774.927 814.723 774.782 814.744 774.641 814.744Z" fill="black"/>
<path d="M795.136 808.608C795.136 808.608 793.032 836.499 780.714 851.176C768.391 865.858 748.615 861.165 748.615 861.165C748.615 861.165 747.115 848.749 749.683 845.52C752.245 842.296 766.433 825.035 766.386 809.525L773.917 799.275L778.365 805.025L780.266 795.629L795.136 808.608Z" fill="white"/>
<path d="M750.063 859.827C754.25 860.494 769.573 861.983 779.495 850.155C790.209 837.395 793.032 813.848 793.485 809.27L781.287 798.619L779.922 805.343C779.802 805.947 779.328 806.431 778.73 806.572C778.12 806.712 777.49 806.488 777.115 805.999L773.953 801.91L767.974 810.051C767.844 817.228 764.761 829.186 751.198 846.165L750.922 846.509C749.552 848.233 749.589 854.957 750.063 859.827ZM756.125 863.499C751.688 863.499 748.568 862.785 748.245 862.712C747.605 862.556 747.12 862.02 747.042 861.358C746.776 859.176 745.605 848.098 748.433 844.535L748.714 844.181C762.042 827.499 764.818 816.129 764.802 809.535C764.802 809.192 764.912 808.863 765.105 808.587L772.641 798.332C772.933 797.931 773.401 797.692 773.901 797.681C774.391 797.655 774.87 797.905 775.177 798.301L777.5 801.306L778.714 795.311C778.828 794.759 779.224 794.306 779.761 794.124C780.292 793.947 780.886 794.061 781.313 794.431L796.183 807.41C796.563 807.738 796.761 808.228 796.719 808.728C796.636 809.889 794.438 837.296 781.922 852.197C774.016 861.634 763.328 863.499 756.125 863.499Z" fill="black"/>
<path d="M790.167 809.676C790.167 809.676 786.969 856.02 752.563 855.02L790.167 809.676Z" fill="white"/>
<path d="M753.662 856.624C753.282 856.624 752.901 856.619 752.516 856.608C751.641 856.582 750.959 855.853 750.979 854.973C751 854.098 751.782 853.389 752.61 853.436C752.953 853.442 753.292 853.447 753.631 853.447C785.193 853.447 788.547 810.014 788.584 809.572C788.641 808.697 789.407 808.035 790.276 808.093C791.151 808.155 791.813 808.91 791.75 809.79C791.719 810.264 788.115 856.624 753.662 856.624Z" fill="black"/>
<path d="M700.974 519.473C700.974 519.473 671.891 605.009 671.75 661.342C671.604 717.676 751.328 792.384 751.328 792.384L767.797 778.103C767.797 778.103 738.464 747.025 732.854 704.967C727.24 662.905 744.281 583.504 744.281 583.504L750.646 527.421L700.974 519.473Z" fill="#232323"/>
<path d="M743.844 796.379C743.985 797.895 742.422 819.067 735.854 832.358C735.854 832.358 738.891 842.113 748.177 840.363C748.177 840.363 762.443 813.207 765.438 795.629L743.844 796.379Z" fill="white"/>
<path d="M737.579 832.447C738.308 834.238 741.006 839.624 747.136 838.915C749.287 834.723 760.287 812.806 763.506 797.285L745.396 797.915C745.094 803.52 743.12 820.759 737.579 832.447ZM746.027 842.155C739.146 842.155 735.412 836.285 734.334 832.832C734.219 832.441 734.25 832.025 734.433 831.655C740.907 818.561 742.344 797.681 742.261 796.52C742.235 796.093 742.375 795.655 742.667 795.337C742.959 795.014 743.36 794.806 743.787 794.79L765.381 794.04C765.875 794.03 766.318 794.223 766.631 794.587C766.948 794.941 767.084 795.421 767.006 795.895C764 813.52 750.167 839.978 749.584 841.098C749.355 841.53 748.943 841.832 748.469 841.921C747.615 842.082 746.803 842.155 746.027 842.155Z" fill="black"/>
<path d="M753.36 830.202C753.36 830.202 755.719 857.978 752.23 865.843C752.23 865.843 725.792 879.431 695.099 879.4C692.922 879.395 691.136 877.634 691.151 875.457C691.198 870.202 692.584 860.613 700.974 853.02C713.183 841.978 739.381 823.848 739.381 823.848L744.667 830.244L742.454 840.363L753.36 830.202Z" fill="white"/>
<path d="M739.094 825.983C733.834 829.665 712.558 844.686 702.047 854.191C694.047 861.426 692.787 870.629 692.745 875.473C692.74 876.087 692.974 876.665 693.417 877.103C693.891 877.587 694.547 877.806 695.229 877.811C722.808 877.811 747.157 866.546 750.985 864.686C753.151 858.79 752.61 842.535 752.021 833.619L743.542 841.52C743.037 841.999 742.276 842.082 741.672 841.738C741.073 841.395 740.756 840.697 740.907 840.02L742.959 830.655L739.094 825.983ZM695.229 880.988C693.709 880.988 692.24 880.431 691.157 879.343C690.125 878.29 689.558 876.91 689.568 875.441C689.61 870.077 691.021 859.889 699.917 851.843C712.058 840.858 738.219 822.718 738.485 822.535C739.162 822.072 740.089 822.202 740.61 822.837L745.896 829.233C746.209 829.608 746.328 830.103 746.224 830.582L745.094 835.728L752.271 829.046C752.719 828.629 753.365 828.504 753.927 828.723C754.49 828.941 754.891 829.462 754.938 830.066C755.037 831.218 757.297 858.343 753.688 866.483C753.532 866.816 753.282 867.087 752.959 867.254C752.698 867.389 725.896 880.988 695.229 880.988Z" fill="black"/>
<path d="M750.178 857.629C750.178 857.629 725.032 873.504 694.954 871.686L750.178 857.629Z" fill="white"/>
<path d="M699.854 873.421C698.203 873.421 696.537 873.374 694.854 873.275C693.979 873.218 693.307 872.462 693.365 871.587C693.417 870.712 694.167 870.051 695.047 870.103C724.276 871.853 749.083 856.441 749.328 856.29C750.068 855.822 751.047 856.04 751.521 856.78C751.99 857.525 751.766 858.504 751.026 858.973C750.042 859.593 727.797 873.421 699.854 873.421Z" fill="black"/>
<path d="M790.214 519.473C790.214 519.473 808.636 642.926 765.438 806.134L739.38 802.4C739.38 802.4 753.438 659.728 719.766 584.301L712.271 516.129L790.214 519.473Z" fill="#232323"/>
<path d="M736.105 660.014C736.105 660.014 736.099 660.014 736.094 660.014C735.219 660.009 734.511 659.296 734.516 658.415C734.625 639.915 729.396 604.592 721.953 593.717C721.459 592.993 721.641 592.004 722.365 591.509C723.094 591.019 724.078 591.202 724.573 591.926C732.625 603.691 737.802 639.754 737.693 658.436C737.683 659.311 736.98 660.014 736.105 660.014Z" fill="black"/>
<path d="M741.229 767.65C741.203 767.65 741.172 767.65 741.141 767.65C740.266 767.598 739.594 766.848 739.646 765.973C740.604 748.775 737.833 720.363 737.797 720.082C737.719 719.212 738.354 718.431 739.224 718.343C740.11 718.254 740.88 718.9 740.964 719.77C740.995 720.056 743.792 748.707 742.818 766.15C742.766 766.999 742.068 767.65 741.229 767.65Z" fill="black"/>
<path d="M781.86 330.03C785.349 337.035 780.391 339.504 782.813 353.108C784.594 363.098 788.182 366.926 785.797 371.9C783.651 376.379 778.474 377.994 775.057 379.056C759.542 383.895 744.599 376.03 735.412 371.202C727.995 367.296 717.807 361.941 718.495 356.509C719.167 351.15 729.667 351.9 734.604 342.91C738.578 335.686 734.011 331.15 738.193 325.035C743.604 317.124 756.208 317.452 758.229 317.509C766.349 317.718 777.563 321.41 781.86 330.03Z" fill="black"/>
<path d="M695.172 371.441L735.974 381.655C736.719 381.816 737.464 381.395 737.714 380.676C740.49 372.869 736.167 364.129 734.922 361.853C734.724 361.499 734.386 361.244 733.99 361.134C731.969 360.587 730.146 359.874 728.506 359.004C726.48 357.931 725.652 355.457 726.573 353.353C728.058 349.978 729.683 345.426 730.605 343.561C730.829 343.113 730.823 342.561 730.542 342.15C729.839 341.119 728.766 340.332 728.891 338.79C728.938 338.202 729.339 337.686 729.912 337.52C735.032 336.004 738.995 328.311 742.417 325.978C744.042 324.863 745.152 324.566 746.985 323.572C747.287 323.4 747.657 323.327 748 323.4C756.704 325.29 743.365 336.093 754.771 342.431C755.339 342.749 755.683 343.389 755.547 344.025C755.349 344.973 755.396 346.244 755.511 347.405C755.511 347.415 755.511 347.426 755.521 347.436C755.636 348.613 757.027 349.191 757.938 348.441C759.662 347.035 761.433 346.634 762.469 347.238C763.948 348.103 763.849 350.952 763.329 352.665C762.287 356.066 758.73 357.639 756.704 358.28C755.928 358.52 755.495 359.332 755.724 360.108C757.073 364.79 761.157 379.431 761.469 386.082C761.495 386.775 761.974 387.348 762.641 387.499L770.428 389.191C782.146 391.764 796.063 398.848 805.027 406.822L816.605 416.525C817.511 417.322 821.568 419.723 820.719 420.587C796.48 445.228 748.875 429.811 731.25 421.999C714.157 414.421 697.125 379.056 690.829 386.119C686.693 390.759 694.027 371.191 695.172 371.441Z" fill="white"/>
<path d="M692.781 383.598C692.818 383.598 692.854 383.598 692.891 383.598C697.052 383.707 701.938 389.77 708.693 398.155C715.469 406.551 723.886 416.999 731.886 420.551C738.011 423.259 791.979 446.082 818.854 420.202C818.255 419.681 817.302 419.009 816.823 418.665C816.271 418.27 815.839 417.968 815.552 417.712L804.011 408.04C795.193 400.202 781.573 393.259 770.089 390.744L762.302 389.04C760.948 388.744 759.953 387.561 759.88 386.16C759.573 379.639 755.458 364.91 754.203 360.546C753.734 358.926 754.625 357.264 756.234 356.764C757.964 356.218 760.979 354.91 761.813 352.202C762.307 350.582 762.078 348.843 761.672 348.608C761.386 348.436 760.287 348.582 758.938 349.671C758.057 350.384 756.865 350.561 755.818 350.124C754.771 349.686 754.047 348.723 753.938 347.593C753.781 346.02 753.797 344.764 753.974 343.806C746.766 339.775 748.136 333.858 749.042 329.952C749.443 328.202 749.828 326.551 749.354 325.806C749.109 325.426 748.542 325.145 747.667 324.952C747 325.363 746.375 325.655 745.792 325.936C744.901 326.348 744.203 326.681 743.318 327.285C742.193 328.051 740.854 329.665 739.443 331.379C736.912 334.431 734.042 337.895 730.474 339.004C730.458 339.447 730.672 339.744 731.219 340.421C731.443 340.697 731.667 340.968 731.854 341.259C732.448 342.134 732.516 343.29 732.031 344.264C731.578 345.171 730.912 346.889 730.193 348.697C729.521 350.41 728.755 352.348 728.031 353.999C727.432 355.343 727.974 356.926 729.25 357.598C730.818 358.431 732.552 359.098 734.406 359.603C735.234 359.822 735.906 360.353 736.313 361.087C737.745 363.691 742.188 372.832 739.214 381.212C738.688 382.681 737.162 383.535 735.636 383.197L695.714 373.207C694.656 375.072 692.568 380.447 691.63 383.77C692 383.655 692.386 383.598 692.781 383.598ZM783.412 435.556C758.99 435.556 734.651 425.244 730.604 423.447C721.891 419.587 713.568 409.264 706.224 400.145C700.953 393.603 695.5 386.848 692.813 386.775C692.583 386.785 692.339 386.816 692.016 387.171C690.917 388.405 689.875 388.738 688.922 388.139C688.12 387.645 686.62 386.707 691.073 375.749C693.24 370.426 694.115 369.577 695.516 369.889C695.531 369.889 695.542 369.895 695.563 369.9L736.245 380.082C738.729 372.968 734.797 364.921 733.531 362.619C731.495 362.108 729.537 361.343 727.761 360.405C725.016 358.957 723.859 355.577 725.12 352.718C725.823 351.129 726.573 349.223 727.234 347.53C727.995 345.624 728.646 343.962 729.146 342.926C729.026 342.754 728.886 342.593 728.755 342.426C728.078 341.598 727.156 340.462 727.307 338.655C727.417 337.415 728.276 336.343 729.458 335.994C732.162 335.197 734.735 332.093 736.995 329.353C738.552 327.468 740.026 325.686 741.521 324.665C742.625 323.915 743.511 323.499 744.438 323.056C744.979 322.811 745.547 322.54 746.224 322.176C746.886 321.811 747.641 321.697 748.339 321.848C750.104 322.228 751.318 322.968 752.031 324.108C753.219 325.968 752.688 328.249 752.136 330.66C751.245 334.53 750.401 338.176 755.542 341.04C756.734 341.702 757.37 343.061 757.104 344.348C757.016 344.785 756.938 345.624 757.083 347.15C759.198 345.389 761.604 344.889 763.271 345.863C765.636 347.244 765.511 350.968 764.844 353.129C763.609 357.171 759.62 359.009 757.276 359.764C758.927 365.514 762.75 379.374 763.052 386.009L770.766 387.65C782.745 390.27 796.932 397.494 806.083 405.634L817.63 415.306C817.823 415.478 818.25 415.78 818.656 416.072C820.917 417.676 822.292 418.749 822.412 420.124C822.469 420.718 822.271 421.275 821.854 421.697C811.583 432.129 797.485 435.556 783.412 435.556Z" fill="black"/>
<path d="M746.74 361.572C746.74 361.572 741.302 363.775 735.058 361.431L746.74 361.572Z" fill="white"/>
<path d="M741.084 364.098C739.136 364.098 736.87 363.806 734.495 362.915C733.672 362.603 733.261 361.691 733.563 360.863C733.875 360.056 734.797 359.634 735.61 359.947C741.219 362.051 746.099 360.119 746.146 360.103C746.959 359.77 747.881 360.16 748.214 360.973C748.547 361.785 748.151 362.717 747.334 363.046C747.177 363.108 744.667 364.098 741.084 364.098Z" fill="black"/>
<path d="M775.839 326.426C775.839 326.426 778.464 310.52 791.084 314.827C803.693 319.129 791.464 332.202 781.938 333.207C772.396 334.212 775.839 326.426 775.839 326.426Z" fill="black"/>
<path d="M534.876 266.285L519.292 251.202C518.209 250.16 516.537 250.035 515.308 250.915C513.928 251.91 513.6 253.843 514.584 255.228L519.527 262.228L515.547 272.056C514.329 275.082 515.12 278.551 517.537 280.744L523.938 286.54C527.146 289.447 531.803 290.087 535.667 288.16L538.277 286.863C542.277 284.869 544.584 280.551 544.001 276.108L543.313 270.874C542.886 267.593 539.777 265.348 536.527 265.973L534.876 266.285Z" fill="white"/>
<path d="M517.13 251.921C516.823 251.921 516.505 252.009 516.24 252.202C515.563 252.686 515.406 253.639 515.886 254.316L520.823 261.311C521.136 261.754 521.198 262.327 521 262.822L517.021 272.65C516.058 275.051 516.688 277.827 518.604 279.566L525.011 285.363C527.745 287.848 531.651 288.389 534.964 286.738L537.568 285.441C540.964 283.749 542.922 280.082 542.422 276.311L541.74 271.077C541.584 269.931 540.99 268.921 540.052 268.244C539.11 267.566 537.969 267.306 536.828 267.525L535.172 267.843C534.667 267.941 534.141 267.785 533.771 267.426L518.188 252.348C517.901 252.061 517.516 251.921 517.13 251.921ZM530.969 290.858C528.042 290.858 525.156 289.785 522.87 287.718L516.474 281.915C513.573 279.29 512.604 275.087 514.073 271.462L517.729 262.436L513.287 256.145C511.808 254.051 512.302 251.124 514.38 249.629C516.229 248.296 518.761 248.478 520.401 250.061L535.391 264.572L536.224 264.41C538.235 264.025 540.255 264.478 541.912 265.671C543.568 266.863 544.625 268.639 544.886 270.665L545.573 275.9C546.245 281.009 543.594 285.988 538.979 288.285L536.375 289.582C534.651 290.441 532.802 290.858 530.969 290.858Z" fill="black"/>
<path d="M534.875 266.29L529.052 270.592C529.052 270.592 530.979 276.217 534.875 273.91V266.29Z" fill="white"/>
<path d="M533.053 276.051C532.464 276.051 531.959 275.931 531.558 275.78C528.886 274.801 527.683 271.483 527.553 271.108C527.329 270.452 527.553 269.728 528.11 269.316L533.933 265.014C534.641 264.488 535.631 264.639 536.157 265.348C536.672 266.046 536.527 267.046 535.823 267.561L531.037 271.103C531.422 271.79 531.99 272.566 532.657 272.806C532.912 272.895 533.339 272.973 534.068 272.546C534.823 272.098 535.792 272.342 536.24 273.098C536.688 273.853 536.438 274.827 535.688 275.275C534.709 275.853 533.818 276.051 533.053 276.051Z" fill="black"/>
<path d="M525.032 274.593C524.568 274.593 524.11 274.389 523.792 274.004L517.235 265.869C516.683 265.186 516.787 264.186 517.474 263.634C518.157 263.087 519.157 263.191 519.704 263.874L526.266 272.009C526.813 272.691 526.709 273.691 526.026 274.244C525.735 274.478 525.381 274.593 525.032 274.593Z" fill="black"/>
<path d="M521.75 279.264C521.292 279.264 520.839 279.061 520.521 278.681L515.24 272.259C514.682 271.587 514.776 270.587 515.459 270.03C516.136 269.473 517.136 269.567 517.688 270.249L522.974 276.665C523.531 277.343 523.438 278.343 522.761 278.9C522.459 279.145 522.104 279.264 521.75 279.264Z" fill="black"/>
<path d="M796.625 554.014C796.625 554.014 782.724 543.587 774.745 541.848C766.761 540.103 758.896 545.447 758.896 545.447C758.896 545.447 767.469 550.212 771.63 550.759C775.797 551.306 786.625 571.254 799.563 564.863L796.625 554.014Z" fill="white"/>
<path d="M762.224 545.405C765.224 546.921 769.501 548.879 771.839 549.186C773.662 549.421 775.501 551.348 778.297 554.249C783.344 559.509 790.167 566.613 797.667 563.947L795.24 554.962C792.844 553.218 781.193 544.884 774.402 543.395C769.714 542.369 764.99 544.066 762.224 545.405ZM794.303 567.738C786.839 567.738 780.511 561.139 776.006 556.452C774.391 554.77 772.183 552.473 771.422 552.332C767.021 551.754 758.485 547.03 758.126 546.832C757.641 546.566 757.334 546.066 757.313 545.52C757.282 544.962 757.547 544.441 758.011 544.129C758.349 543.895 766.532 538.436 775.084 540.296C783.308 542.093 796.995 552.311 797.573 552.749C797.855 552.957 798.063 553.259 798.157 553.603L801.094 564.447C801.292 565.176 800.938 565.947 800.261 566.285C798.209 567.301 796.219 567.738 794.303 567.738Z" fill="black"/>
<path d="M784.334 391.499L777.584 388.905C777.584 388.905 736.792 415.014 719.078 375.478L709.729 372.79L690.823 426.337L785.854 451.65L784.334 391.499Z" fill="#FFC700"/>
<path d="M534.167 294.181C540.761 292.113 547.354 290.04 553.953 287.968C581.729 320.28 608.912 336.889 629.526 346.134C654.927 357.514 698.636 370.405 698.636 370.405C698.636 370.405 698.563 391.108 732.771 414.738C766.99 438.374 819.381 414.889 819.381 414.889C819.381 414.889 877.427 464.436 880.792 494.207C886.375 543.655 800.245 567.395 800.245 567.395L796.62 554.014C796.62 554.014 831.282 525.816 823.756 497.223C816.24 468.629 796.881 455.968 796.881 455.968C791.11 488.983 793.594 527.421 793.594 527.421C736.683 541.9 687.584 523.254 665.901 512.582C658.511 508.947 654.386 500.936 655.657 492.806C660.433 462.223 672.427 423.619 672.427 423.619C659.276 422.936 645.104 420.405 630.703 414.816C560.386 387.52 537.834 307.926 534.167 294.181Z" fill="black"/>
<path d="M729.026 511.811C728.828 511.811 728.62 511.775 728.427 511.691C685.032 493.91 678.677 444.941 678.615 444.452C678.511 443.577 679.136 442.79 680.005 442.686C680.87 442.582 681.662 443.202 681.771 444.072C681.828 444.546 687.99 491.686 729.636 508.759C730.443 509.087 730.828 510.02 730.495 510.827C730.245 511.441 729.646 511.811 729.026 511.811Z" fill="#E8EAED"/>
<path d="M17.4639 717.134C30.2295 690.868 31.443 664.41 17.4639 637.676L27.4951 625.645L301.953 634.671L292.495 721.822L26.8232 724.879L17.4639 717.134Z" fill="white"/>
<path d="M19.4269 716.702L27.3853 723.29L291.068 720.249L300.187 636.202L28.2186 627.259L19.354 637.884C32.2186 663.119 32.2446 689.624 19.4269 716.702ZM26.8228 726.467C26.453 726.467 26.0936 726.337 25.8123 726.103L16.4478 718.358C15.8853 717.889 15.7134 717.098 16.0311 716.441C29.2655 689.212 29.2759 663.686 16.0519 638.41C15.755 637.848 15.828 637.15 16.2394 636.66L26.2759 624.629C26.5884 624.254 27.0623 624.03 27.5467 624.061L302.005 633.087C302.448 633.098 302.864 633.296 303.151 633.629C303.443 633.962 303.578 634.4 303.531 634.837L294.073 721.994C293.984 722.79 293.312 723.4 292.51 723.41L26.8384 726.467C26.8332 726.467 26.828 726.467 26.8228 726.467Z" fill="black"/>
<path d="M521.771 616.051H12.3701C6.41699 616.051 1.58887 620.879 1.58887 626.827C1.58887 632.78 6.41699 637.603 12.3701 637.603H246.563C263.714 637.603 277.615 651.499 277.615 668.645V686.092C277.615 703.233 263.714 717.134 246.563 717.134H12.3701C6.41699 717.134 1.58887 721.957 1.58887 727.91C1.58887 733.863 6.41699 738.686 12.3701 738.686H521.771C553.396 738.686 579.026 713.066 579.026 681.452V673.28C579.026 641.676 553.396 616.051 521.771 616.051Z" fill="#4880FF"/>
<path d="M12.3698 718.723C7.30208 718.723 3.17708 722.843 3.17708 727.91C3.17708 732.978 7.30208 737.098 12.3698 737.098H521.771C552.469 737.098 577.438 712.134 577.438 681.452V673.28C577.438 642.603 552.469 617.634 521.771 617.634H12.3698C7.30208 617.634 3.17708 621.764 3.17708 626.827C3.17708 631.895 7.30208 636.02 12.3698 636.02H246.562C264.557 636.02 279.203 650.65 279.203 668.645V686.093C279.203 704.087 264.557 718.723 246.562 718.723H12.3698ZM521.771 740.27H12.3698C5.54688 740.27 0 734.728 0 727.91C0 721.093 5.54688 715.546 12.3698 715.546H246.562C262.807 715.546 276.026 702.337 276.026 686.093V668.645C276.026 652.405 262.807 639.192 246.562 639.192H12.3698C5.54688 639.192 0 633.645 0 626.827C0 620.009 5.54688 614.462 12.3698 614.462H521.771C554.219 614.462 580.615 640.853 580.615 673.28V681.452C580.615 713.889 554.219 740.27 521.771 740.27Z" fill="black"/>
<path d="M165.333 662.301H145.276C144.396 662.301 143.688 661.593 143.688 660.712C143.688 659.837 144.396 659.129 145.276 659.129H165.333C166.214 659.129 166.922 659.837 166.922 660.712C166.922 661.593 166.214 662.301 165.333 662.301Z" fill="black"/>
<path d="M136.959 662.301H30.7712C29.8909 662.301 29.1826 661.593 29.1826 660.712C29.1826 659.837 29.8909 659.129 30.7712 659.129H136.959C137.834 659.129 138.547 659.837 138.547 660.712C138.547 661.593 137.834 662.301 136.959 662.301Z" fill="black"/>
<path d="M157.381 675.285H33.8649C32.9847 675.285 32.2764 674.577 32.2764 673.702C32.2764 672.817 32.9847 672.113 33.8649 672.113H157.381C158.256 672.113 158.964 672.817 158.964 673.702C158.964 674.577 158.256 675.285 157.381 675.285Z" fill="black"/>
<path d="M184.745 698.556H165.089C164.214 698.556 163.506 697.848 163.506 696.968C163.506 696.093 164.214 695.379 165.089 695.379H184.745C185.626 695.379 186.334 696.093 186.334 696.968C186.334 697.848 185.626 698.556 184.745 698.556Z" fill="black"/>
<path d="M156.401 698.556H30.7712C29.8909 698.556 29.1826 697.848 29.1826 696.968C29.1826 696.093 29.8909 695.379 30.7712 695.379H156.401C157.282 695.379 157.99 696.093 157.99 696.968C157.99 697.848 157.282 698.556 156.401 698.556Z" fill="black"/>
<path d="M25.3857 863.968H485.511V751.28H25.3857C38.9691 789.343 39.3441 826.915 25.3857 863.968Z" fill="white"/>
<path d="M27.6673 862.379H483.922V752.869H27.6256C40.4537 790.15 40.4642 826.973 27.6673 862.379ZM485.511 865.551H25.386C24.8652 865.551 24.3756 865.296 24.0787 864.869C23.7871 864.442 23.7194 863.895 23.9017 863.41C37.4694 827.395 37.4642 789.848 23.8912 751.811C23.7194 751.327 23.7923 750.785 24.0892 750.369C24.386 749.947 24.8704 749.692 25.386 749.692H485.511C486.391 749.692 487.1 750.405 487.1 751.28V863.968C487.1 864.843 486.391 865.551 485.511 865.551Z" fill="black"/>
<path d="M430.12 756.843H22.2191C17.318 756.843 13.3389 752.863 13.3389 747.962C13.3389 743.056 17.318 739.082 22.2191 739.082H551.537C573.089 739.082 590.563 756.551 590.563 778.098V839.436C590.563 860.983 573.089 878.452 551.537 878.452H22.2191C17.318 878.452 13.3389 874.478 13.3389 869.572C13.3389 864.671 17.318 860.697 22.2191 860.697H430.12C445.349 860.697 457.693 848.353 457.693 833.134V784.405C457.693 769.181 445.349 756.843 430.12 756.843Z" fill="#232323"/>
<path d="M22.2188 862.28C18.1979 862.28 14.9271 865.551 14.9271 869.572C14.9271 873.593 18.1979 876.863 22.2188 876.863H551.536C572.182 876.863 588.974 860.077 588.974 839.436V778.098C588.974 757.462 572.182 740.671 551.536 740.671H22.2188C18.1979 740.671 14.9271 743.941 14.9271 747.962C14.9271 751.983 18.1979 755.254 22.2188 755.254H430.12C446.198 755.254 459.276 768.327 459.276 784.405V833.134C459.276 849.207 446.198 862.28 430.12 862.28H22.2188ZM551.536 880.04H22.2188C16.4479 880.04 11.75 875.343 11.75 869.572C11.75 863.801 16.4479 859.108 22.2188 859.108H430.12C444.448 859.108 456.104 847.457 456.104 833.134V784.405C456.104 770.082 444.448 758.426 430.12 758.426H22.2188C16.4479 758.426 11.75 753.733 11.75 747.962C11.75 742.191 16.4479 737.499 22.2188 737.499H551.536C573.932 737.499 592.156 755.712 592.156 778.098V839.436C592.156 861.827 573.932 880.04 551.536 880.04Z" fill="black"/>
<path d="M105.703 779.629H37.7604C36.8802 779.629 36.1719 778.915 36.1719 778.04C36.1719 777.16 36.8802 776.452 37.7604 776.452H105.703C106.578 776.452 107.292 777.16 107.292 778.04C107.292 778.915 106.578 779.629 105.703 779.629Z" fill="black"/>
<path d="M236.62 779.629H115.235C114.355 779.629 113.646 778.915 113.646 778.04C113.646 777.16 114.355 776.452 115.235 776.452H236.62C237.495 776.452 238.209 777.16 238.209 778.04C238.209 778.915 237.495 779.629 236.62 779.629Z" fill="black"/>
<path d="M208.974 794.666H39.1878C38.3128 794.666 37.6045 793.957 37.6045 793.077C37.6045 792.202 38.3128 791.494 39.1878 791.494H208.974C209.854 791.494 210.563 792.202 210.563 793.077C210.563 793.957 209.854 794.666 208.974 794.666Z" fill="black"/>
<path d="M253.661 794.666H220.167C219.286 794.666 218.578 793.957 218.578 793.077C218.578 792.202 219.286 791.494 220.167 791.494H253.661C254.536 791.494 255.25 792.202 255.25 793.077C255.25 793.957 254.536 794.666 253.661 794.666Z" fill="black"/>
<path d="M219.229 826.056H39.1878C38.3128 826.056 37.6045 825.348 37.6045 824.468C37.6045 823.593 38.3128 822.884 39.1878 822.884H219.229C220.11 822.884 220.818 823.593 220.818 824.468C220.818 825.348 220.11 826.056 219.229 826.056Z" fill="black"/>
<path d="M236.62 826.056H228.709C227.828 826.056 227.12 825.348 227.12 824.468C227.12 823.593 227.828 822.884 228.709 822.884H236.62C237.495 822.884 238.209 823.593 238.209 824.468C238.209 825.348 237.495 826.056 236.62 826.056Z" fill="black"/>
<path d="M71.9271 498.686C69.6198 500.556 69.2656 504.02 71.1354 506.395C72.0469 507.551 73.3437 508.28 74.7812 508.436C76.1823 508.598 77.5521 508.186 78.6458 507.301C80.9531 505.426 81.3073 501.968 79.4323 499.587C78.5208 498.431 77.2291 497.702 75.7916 497.546C74.3906 497.384 73.0208 497.79 71.9271 498.686ZM75.375 511.645C75.0625 511.645 74.75 511.624 74.4323 511.593C72.1406 511.337 70.0833 510.186 68.6406 508.358C65.7031 504.624 66.276 499.181 69.9219 496.218C71.6823 494.79 73.8906 494.139 76.1406 494.389C78.4323 494.645 80.4896 495.796 81.9271 497.624C84.8698 501.358 84.2969 506.801 80.651 509.764C79.1406 510.994 77.2969 511.645 75.375 511.645Z" fill="black"/>
<path d="M69.8755 545.478C69.4953 545.478 69.1151 545.337 68.8078 545.061L63.8808 540.593C63.2297 540.009 63.1828 539.004 63.7714 538.353C64.3599 537.702 65.3651 537.65 66.011 538.244L70.9433 542.712C71.5943 543.296 71.6412 544.301 71.0526 544.952C70.7401 545.296 70.3078 545.478 69.8755 545.478Z" fill="black"/>
<path d="M87.1309 561.108C86.7507 561.108 86.3653 560.973 86.0632 560.697L81.1309 556.228C80.4851 555.639 80.433 554.639 81.0215 553.988C81.6101 553.337 82.6153 553.285 83.2663 553.879L88.1934 558.342C88.8444 558.931 88.8965 559.936 88.3028 560.587C87.9903 560.936 87.5632 561.108 87.1309 561.108Z" fill="black"/>
<path d="M66.047 562.202C65.6668 562.202 65.2918 562.067 64.9897 561.796C64.3334 561.212 64.2813 560.207 64.8647 559.551L69.3074 554.598C69.8907 553.947 70.8959 553.895 71.547 554.478C72.2032 555.061 72.2553 556.067 71.672 556.718L67.2293 561.676C66.9168 562.025 66.4845 562.202 66.047 562.202Z" fill="black"/>
<path d="M81.589 544.863C81.2087 544.863 80.8338 544.728 80.5317 544.462C79.8754 543.874 79.8233 542.874 80.4067 542.223L84.8442 537.264C85.4327 536.613 86.4379 536.561 87.089 537.145C87.7452 537.728 87.7973 538.733 87.2088 539.389L82.7713 544.337C82.4587 544.686 82.0213 544.863 81.589 544.863Z" fill="black"/>
<path d="M833.808 355.03C833.422 355.03 833.042 354.889 832.74 354.624L827.803 350.155C827.157 349.561 827.11 348.561 827.704 347.91C828.287 347.259 829.297 347.207 829.943 347.801L834.87 352.264C835.516 352.853 835.573 353.858 834.98 354.504C834.667 354.853 834.24 355.03 833.808 355.03Z" fill="black"/>
<path d="M851.053 370.66C850.678 370.66 850.297 370.535 849.995 370.254L845.063 365.785C844.407 365.197 844.365 364.197 844.948 363.54C845.537 362.895 846.547 362.843 847.198 363.431L852.126 367.9C852.771 368.488 852.823 369.494 852.235 370.15C851.917 370.488 851.49 370.66 851.053 370.66Z" fill="black"/>
<path d="M829.979 371.754C829.599 371.754 829.224 371.624 828.917 371.348C828.266 370.77 828.203 369.764 828.797 369.108L833.235 364.155C833.818 363.509 834.823 363.447 835.474 364.035C836.13 364.619 836.183 365.624 835.604 366.275L831.162 371.228C830.849 371.577 830.412 371.754 829.979 371.754Z" fill="black"/>
<path d="M845.521 354.421C845.146 354.421 844.766 354.28 844.464 354.014C843.808 353.426 843.755 352.426 844.339 351.775L848.782 346.822C849.365 346.171 850.37 346.113 851.021 346.697C851.672 347.285 851.729 348.29 851.146 348.936L846.709 353.889C846.391 354.238 845.953 354.421 845.521 354.421Z" fill="black"/>
<path d="M523.349 49.9051C523.224 49.9051 523.094 49.8894 522.974 49.8582C475.985 38.4936 433.563 33.7696 396.881 35.8269C395.995 35.853 395.256 35.2019 395.204 34.3269C395.151 33.4519 395.823 32.7071 396.698 32.655C433.693 30.5873 476.433 35.3321 523.714 46.7748C524.568 46.978 525.094 47.8373 524.886 48.6915C524.719 49.4207 524.058 49.9051 523.349 49.9051Z" fill="black"/>
<path d="M507.823 31.8477C507.719 31.8477 507.615 31.8373 507.511 31.8165C464.381 23.0925 402.86 14.8998 354.704 25.3842C353.844 25.5665 353 25.0196 352.813 24.1706C352.625 23.3112 353.167 22.4675 354.027 22.2748C402.719 11.681 464.714 19.9258 508.141 28.7019C509.006 28.879 509.553 29.7175 509.386 30.5769C509.23 31.3321 508.568 31.8477 507.823 31.8477Z" fill="black"/>
<path d="M318.157 35.3998L339.131 39.2956L335.542 20.1342L318.157 35.3998ZM341.12 42.8685C341.016 42.8685 340.922 42.8581 340.823 42.8373L314.365 37.931C313.766 37.8165 313.287 37.3738 313.125 36.7852C312.964 36.2019 313.151 35.5717 313.61 35.1706L335.542 15.905C335.969 15.53 336.568 15.4102 337.105 15.5925C337.646 15.7852 338.042 16.2435 338.151 16.806L342.677 40.9831C342.771 41.504 342.61 42.03 342.24 42.405C341.938 42.7019 341.532 42.8685 341.12 42.8685Z" fill="black"/>
</svg>
