<svg width="903" height="904" viewBox="0 0 903 904" fill="none" xmlns="http://www.w3.org/2000/svg">
<path d="M216.689 227.427C311.32 132.193 282.32 73.8331 347.075 29.7342C446.705 -38.1044 634.554 18.9425 744.257 112.26C878.622 226.552 947.939 435.239 868.971 624.036C784.872 825.094 563.596 929.463 366.153 898.01C189.835 869.922 19.4758 734.953 2.10601 568.302C0.225802 550.239 -11.0502 448.614 47.231 364.427C95.4029 294.849 141.674 302.916 216.689 227.427Z" fill="#D1D1D1"/>
<path d="M471.637 140.073C475.997 159.802 463.538 179.323 443.814 183.682C424.085 188.041 404.564 175.588 400.205 155.864C395.846 136.14 408.294 116.62 428.023 112.255C447.752 107.896 467.273 120.354 471.637 140.073ZM426.992 74.6664L413.117 77.7341L413.049 93.2497C409.96 94.5362 407.023 96.0518 404.257 97.8018L391.533 88.9528L381.049 98.5466L388.752 112.021C386.752 114.646 384.976 117.432 383.439 120.359L367.965 119.047L363.689 132.593L377.075 140.406C376.663 143.651 376.518 146.958 376.658 150.297L362.611 156.901L365.679 170.771L381.2 170.838C382.481 173.916 384.002 176.859 385.747 179.625L376.898 192.354L386.492 202.833L399.971 195.13C402.596 197.125 405.382 198.906 408.304 200.448L407.002 215.911L420.549 220.192L428.356 206.807C431.601 207.218 434.908 207.359 438.247 207.229L444.846 221.265L458.721 218.203L458.788 202.682C461.872 201.396 464.814 199.88 467.58 198.13L480.309 206.984L490.788 197.39L483.085 183.916C485.08 181.291 486.861 178.5 488.403 175.583L503.872 176.885L508.153 163.338L494.762 155.531C495.174 152.286 495.314 148.984 495.174 145.64L509.226 139.041L506.153 125.161L490.637 125.093C489.351 122.015 487.835 119.073 486.085 116.307L494.945 103.583L485.351 93.1039L471.877 100.802C469.242 98.807 466.46 97.0258 463.533 95.4841L464.835 80.0205L451.288 75.7445L443.481 89.1351C440.242 88.7133 436.934 88.5726 433.59 88.7133L426.992 74.6664Z" fill="#202124"/>
<path d="M574.158 85.8123C576.168 98.0415 567.882 109.578 555.642 111.588C543.418 113.599 531.871 105.307 529.866 93.0831C527.861 80.8488 536.147 69.3071 548.382 67.2967C560.611 65.2967 572.153 73.5831 574.158 85.8123ZM549.007 44.2394L540.408 45.6508L539.845 55.156C537.913 55.8383 536.064 56.6665 534.309 57.6456L526.804 51.7967L520.064 57.3227L524.325 65.8331C523.012 67.38 521.83 69.0258 520.793 70.7602L511.361 69.4425L508.278 77.5988L516.22 82.8279C515.851 84.8071 515.658 86.8279 515.627 88.8748L506.804 92.4477L508.215 101.047L517.72 101.614C518.403 103.547 519.236 105.396 520.21 107.151L514.361 114.646L519.882 121.396L528.403 117.125C529.939 118.437 531.59 119.625 533.325 120.666L532.007 130.094L540.168 133.172L545.397 125.234C547.377 125.599 549.397 125.797 551.444 125.828L555.017 134.656L563.616 133.239L564.184 123.739C566.116 123.052 567.97 122.224 569.72 121.245L577.22 127.094L583.965 121.573L579.7 113.057C581.012 111.51 582.194 109.87 583.231 108.13L592.668 109.448L595.746 101.291L587.809 96.0571C588.174 94.0831 588.366 92.0623 588.397 90.0154L597.22 86.4425L595.814 77.8383L586.309 77.2758C585.621 75.3435 584.788 73.4946 583.814 71.7342L589.668 64.2394L584.142 57.4998L575.627 61.7654C574.085 60.4477 572.434 59.2654 570.7 58.2238L572.017 48.7967L563.861 45.7133L558.627 53.656C556.653 53.2915 554.632 53.0988 552.58 53.0675L549.007 44.2394Z" fill="#202124"/>
<path d="M844.095 180.505H827.83L769.944 862.37H784.674C800.653 862.37 814.731 849.417 816.121 833.443L870.496 209.432C871.892 193.458 860.064 180.505 844.095 180.505Z" fill="#202124"/>
<path d="M831.315 180.51H117.023C101.044 180.51 86.9659 193.463 85.5701 209.437L31.1951 833.442C29.8045 849.416 41.6274 862.37 57.6066 862.37H771.898C787.877 862.37 801.961 849.416 803.351 833.442L857.726 209.437C859.122 193.463 847.294 180.51 831.315 180.51Z" fill="white"/>
<path d="M64.5642 449.323C64.5173 449.323 64.4652 449.317 64.4183 449.312C63.5225 449.239 62.8558 448.442 62.934 447.541L77.7517 277.479C77.8298 276.573 78.6163 275.916 79.5225 275.989C80.4235 276.067 81.0902 276.859 81.0121 277.76L66.1892 447.828C66.1162 448.682 65.4027 449.323 64.5642 449.323Z" fill="black"/>
<path d="M749.382 182.14H262.262C261.356 182.14 260.627 181.411 260.627 180.51C260.627 179.609 261.356 178.875 262.262 178.875H749.382C750.288 178.875 751.018 179.609 751.018 180.51C751.018 181.411 750.288 182.14 749.382 182.14Z" fill="black"/>
<path d="M56.2673 864.005C48.0954 864.005 40.6787 860.817 35.3818 855.041C30.0537 849.234 27.5121 841.505 28.2308 833.297L42.0433 674.76C42.1214 673.864 42.9079 673.198 43.8141 673.276C44.7152 673.354 45.3818 674.146 45.3037 675.047L31.486 833.583C30.8506 840.87 33.0902 847.703 37.7881 852.828C42.46 857.927 49.0225 860.734 56.2673 860.734C57.1683 860.734 57.9027 861.463 57.9027 862.37C57.9027 863.276 57.1683 864.005 56.2673 864.005Z" fill="black"/>
<path d="M334.83 863.885H277.559C276.658 863.885 275.924 863.156 275.924 862.25C275.924 861.349 276.658 860.62 277.559 860.62H334.83C335.731 860.62 336.46 861.349 336.46 862.25C336.46 863.156 335.731 863.885 334.83 863.885Z" fill="black"/>
<path d="M666.897 863.885H578.403C577.496 863.885 576.772 863.156 576.772 862.25C576.772 861.349 577.496 860.62 578.403 860.62H666.897C667.793 860.62 668.528 861.349 668.528 862.25C668.528 863.156 667.793 863.885 666.897 863.885Z" fill="black"/>
<path d="M229.595 816.239C229.549 816.239 229.502 816.234 229.455 816.234C228.554 816.156 227.887 815.364 227.965 814.463L278.158 230.312C278.236 229.411 279.033 228.745 279.924 228.823C280.825 228.901 281.491 229.692 281.413 230.593L231.226 814.745C231.153 815.599 230.439 816.239 229.595 816.239Z" fill="#202124"/>
<path d="M434.736 614.64C434.684 614.64 434.632 614.635 434.585 614.63C433.684 614.547 433.022 613.755 433.106 612.854L468.892 230.302C468.976 229.406 469.767 228.729 470.668 228.828C471.569 228.911 472.236 229.708 472.147 230.609L436.361 613.156C436.288 614.005 435.574 614.64 434.736 614.64Z" fill="#202124"/>
<path d="M608.986 759.406C608.929 759.406 608.877 759.406 608.815 759.401C607.919 759.307 607.262 758.505 607.361 757.604L660.726 230.286C660.809 229.39 661.622 228.729 662.512 228.828C663.414 228.916 664.07 229.719 663.976 230.62L610.611 757.937C610.523 758.781 609.815 759.406 608.986 759.406Z" fill="#202124"/>
<path d="M810.033 320.911H115.752C114.845 320.911 114.116 320.177 114.116 319.271C114.116 318.375 114.845 317.64 115.752 317.64H810.033C810.934 317.64 811.668 318.375 811.668 319.271C811.668 320.177 810.934 320.911 810.033 320.911Z" fill="#202124"/>
<path d="M441.049 260.297C441.836 251.729 435.7 244.625 427.32 244.625H319.315C310.94 244.625 303.539 251.729 302.794 260.297L301.533 274.927C300.789 283.479 306.971 290.396 315.33 290.396H423.138C431.502 290.396 438.908 283.479 439.695 274.927L441.049 260.297Z" fill="#202124"/>
<path d="M634.82 260.297C635.679 251.729 629.591 244.625 621.21 244.625H513.2C504.825 244.625 497.377 251.729 496.565 260.297L495.19 274.927C494.377 283.479 500.502 290.396 508.867 290.396H616.674C625.028 290.396 632.497 283.479 633.356 274.927L634.82 260.297Z" fill="#202124"/>
<path d="M250.543 260.297C251.267 251.729 245.075 244.625 236.7 244.625H128.694C120.319 244.625 112.96 251.807 112.283 260.37L111.121 275.151C110.444 283.698 116.7 290.396 125.059 290.396H232.866C241.226 290.396 248.585 283.479 249.309 274.927L250.543 260.297Z" fill="#202124"/>
<path d="M825.33 260.291C826.257 251.729 820.215 244.62 811.84 244.62H703.835C695.455 244.62 687.96 251.729 687.075 260.291L685.58 274.922C684.705 283.474 690.778 290.39 699.142 290.39H806.945C815.309 290.39 822.835 283.474 823.752 274.922L825.33 260.291Z" fill="#202124"/>
<path d="M230.58 360.14H115.538C110.221 360.14 105.559 364.708 105.132 370.12L100.976 422.385C100.549 427.771 104.502 432.073 109.804 432.073H224.507C229.809 432.073 234.481 427.859 234.939 422.469L239.377 370.041C239.835 364.63 235.898 360.14 230.58 360.14Z" fill="#D1D1D1"/>
<path d="M142.242 434.015H109.283C106.289 434.015 103.554 432.833 101.58 430.698C99.5594 428.51 98.5802 425.599 98.825 422.495L102.981 370.161C103.476 363.927 108.872 358.854 115.018 358.854H138.356C139.257 358.854 139.986 359.583 139.986 360.484C139.986 361.39 139.257 362.12 138.356 362.12H115.018C110.539 362.12 106.601 365.843 106.236 370.416L102.085 422.755C101.914 424.937 102.585 426.968 103.981 428.479C105.33 429.942 107.216 430.75 109.283 430.75H142.242C143.143 430.75 143.877 431.479 143.877 432.385C143.877 433.286 143.143 434.015 142.242 434.015Z" fill="#202124"/>
<path d="M223.992 434.015H183.419C182.518 434.015 181.783 433.286 181.783 432.385C181.783 431.479 182.518 430.75 183.419 430.75H223.992C228.455 430.75 232.403 427.041 232.788 422.489L237.226 370.151C237.413 367.953 236.747 365.911 235.351 364.39C234.007 362.927 232.127 362.12 230.054 362.12H204.288C203.387 362.12 202.653 361.39 202.653 360.484C202.653 359.583 203.387 358.854 204.288 358.854H230.054C233.049 358.854 235.788 360.031 237.757 362.177C239.778 364.375 240.747 367.307 240.486 370.427L236.049 422.765C235.523 428.968 230.111 434.015 223.992 434.015Z" fill="#202124"/>
<path d="M229.44 381.771C229.242 384.104 227.231 386.297 224.935 386.297H142.268C139.971 386.297 138.252 384.104 138.44 381.771L138.461 381.62C138.648 379.276 140.659 377.583 142.955 377.583H225.653C227.95 377.583 229.664 379.276 229.466 381.62L229.44 381.771Z" fill="white"/>
<path d="M227.392 405.875C227.194 408.213 225.179 410.276 222.882 410.276H140.299C138.007 410.276 136.293 408.213 136.481 405.875L136.496 406.203C136.684 403.87 138.689 402.646 140.981 402.646H223.601C225.897 402.646 227.611 403.87 227.413 406.203L227.392 405.875Z" fill="white"/>
<path d="M130.44 381.234C130.096 385.765 126.664 389.567 122.21 389.567H122.085C117.632 389.567 114.575 385.765 114.929 381.234L114.94 381.078C115.289 376.547 118.903 373.219 123.356 373.219H123.487C127.94 373.219 130.799 376.547 130.455 381.078L130.44 381.234Z" fill="white"/>
<path d="M420.048 360.14H305.012C299.694 360.14 295.002 364.708 294.528 370.12L289.976 422.385C289.507 427.771 293.429 432.073 298.731 432.073H413.439C418.741 432.073 423.444 427.859 423.944 422.469L428.778 370.041C429.272 364.63 425.371 360.14 420.048 360.14Z" fill="#D1D1D1"/>
<path d="M412.924 434.015H331.174C330.267 434.015 329.538 433.286 329.538 432.385C329.538 431.479 330.267 430.75 331.174 430.75H412.924C417.392 430.75 421.371 427.036 421.793 422.474L426.632 370.14C426.83 367.948 426.184 365.901 424.793 364.385C423.465 362.922 421.601 362.12 419.533 362.12H393.762C392.861 362.12 392.127 361.39 392.127 360.484C392.127 359.583 392.861 358.854 393.762 358.854H419.533C422.528 358.854 425.257 360.031 427.215 362.177C429.226 364.385 430.174 367.317 429.887 370.442L425.054 422.776C424.476 428.974 419.038 434.015 412.924 434.015Z" fill="#202124"/>
<path d="M290.679 410.25C290.633 410.25 290.586 410.25 290.534 410.245C289.638 410.166 288.971 409.375 289.049 408.474L292.383 370.151C292.924 363.916 298.356 358.854 304.492 358.854H327.83C328.737 358.854 329.466 359.583 329.466 360.484C329.466 361.39 328.737 362.12 327.83 362.12H304.492C300.013 362.12 296.039 365.849 295.638 370.432L292.304 408.76C292.231 409.609 291.518 410.25 290.679 410.25Z" fill="#202124"/>
<path d="M417.939 381.771C417.726 384.104 415.695 386.297 413.398 386.297H330.736C328.439 386.297 326.736 384.104 326.939 381.771L326.965 381.62C327.174 379.276 329.194 377.583 331.491 377.583H414.195C416.486 377.583 418.184 379.276 417.965 381.62L417.939 381.771Z" fill="white"/>
<path d="M415.71 405.875C415.502 408.213 413.465 410.276 411.168 410.276H328.585C326.288 410.276 324.59 408.213 324.799 405.875L324.819 406.203C325.028 403.87 327.049 402.646 329.345 402.646H411.96C414.257 402.646 415.95 403.87 415.736 406.203L415.71 405.875Z" fill="white"/>
<path d="M319.419 381.088C319.023 385.614 315.101 389.567 310.648 389.567H310.523C306.07 389.567 302.773 385.614 303.169 381.088V381.192C303.565 376.661 307.481 373.219 311.935 373.219H312.065C316.518 373.219 319.82 376.661 319.419 381.192V381.088Z" fill="white"/>
<path d="M410.725 461.495H296.153C290.856 461.495 286.184 466.036 285.72 471.406L281.199 523.531C280.736 528.875 284.642 533.427 289.923 533.427H404.168C409.449 533.427 414.127 528.969 414.621 523.625L419.418 471.469C419.913 466.099 416.022 461.495 410.725 461.495Z" fill="#D1D1D1"/>
<path d="M359.45 534.807H296.387C295.481 534.807 294.752 534.078 294.752 533.177C294.752 532.271 295.481 531.542 296.387 531.542H359.45C360.351 531.542 361.085 532.271 361.085 533.177C361.085 534.078 360.351 534.807 359.45 534.807Z" fill="#202124"/>
<path d="M296.387 534.807H289.408C286.413 534.807 283.694 533.635 281.736 531.495C279.741 529.323 278.788 526.432 279.059 523.359L280.949 501.625C281.022 500.724 281.83 500.057 282.715 500.135C283.616 500.218 284.283 501.005 284.205 501.906L282.314 523.64C282.127 525.791 282.778 527.797 284.142 529.291C285.476 530.745 287.345 531.541 289.408 531.541H296.387C297.288 531.541 298.017 532.271 298.017 533.177C298.017 534.078 297.288 534.807 296.387 534.807Z" fill="#202124"/>
<path d="M285.2 473.224C285.153 473.224 285.106 473.224 285.059 473.219C284.158 473.14 283.492 472.344 283.57 471.448C284.111 465.26 289.523 460.229 295.637 460.229H350.903C351.809 460.229 352.538 460.963 352.538 461.864C352.538 462.765 351.809 463.5 350.903 463.5H295.637C291.174 463.5 287.226 467.193 286.83 471.729C286.752 472.583 286.038 473.224 285.2 473.224Z" fill="#202124"/>
<path d="M416.278 501.646C416.226 501.646 416.174 501.646 416.127 501.64C415.226 501.557 414.564 500.755 414.647 499.864L417.272 471.437C417.476 469.271 416.83 467.25 415.46 465.755C414.137 464.297 412.272 463.5 410.205 463.5H380.871C379.97 463.5 379.241 462.765 379.241 461.864C379.241 460.963 379.97 460.229 380.871 460.229H410.205C413.205 460.229 415.929 461.406 417.877 463.552C419.871 465.739 420.814 468.646 420.528 471.739L417.903 500.161C417.825 501.01 417.111 501.646 416.278 501.646Z" fill="#202124"/>
<path d="M408.653 481.88C408.445 484.198 406.429 485.474 404.143 485.474H321.814C319.523 485.474 317.82 484.198 318.028 481.88L318.064 481.244C318.268 478.922 320.294 476.755 322.58 476.755H404.939C407.226 476.755 408.903 478.922 408.695 481.244L408.653 481.88Z" fill="white"/>
<path d="M406.424 506.437C406.21 508.75 404.174 510.536 401.887 510.536H319.637C317.351 510.536 315.674 508.75 315.877 506.437L315.903 506.052C316.106 503.734 318.122 501.823 320.408 501.823H402.695C404.981 501.823 406.663 503.734 406.45 506.052L406.424 506.437Z" fill="white"/>
<path d="M310.502 481.765C310.107 486.26 306.18 489.833 301.747 489.833H301.622C297.185 489.833 293.924 486.26 294.315 481.765L294.346 481.635C294.737 477.135 298.669 473.484 303.101 473.484H303.226C307.664 473.484 310.924 477.135 310.528 481.635L310.502 481.765Z" fill="white"/>
<path d="M222.169 461.495H107.596C102.299 461.495 97.6272 466.036 97.1584 471.406L92.6428 523.531C92.1793 528.875 96.0855 533.427 101.367 533.427H215.606C220.888 533.427 225.57 528.969 226.065 523.625L230.862 471.469C231.356 466.099 227.466 461.495 222.169 461.495Z" fill="#D1D1D1"/>
<path d="M170.892 534.807H107.825C106.924 534.807 106.194 534.078 106.194 533.177C106.194 532.271 106.924 531.542 107.825 531.542H170.892C171.799 531.542 172.528 532.271 172.528 533.177C172.528 534.078 171.799 534.807 170.892 534.807Z" fill="#202124"/>
<path d="M107.825 534.807H100.851C97.8563 534.807 95.1324 533.635 93.174 531.495C91.1792 529.323 90.2313 526.432 90.497 523.359L92.3876 501.625C92.4657 500.724 93.273 500.057 94.1584 500.135C95.0595 500.218 95.7261 501.005 95.648 501.906L93.7574 523.64C93.5699 525.791 94.2209 527.797 95.5855 529.291C96.9188 530.745 98.7886 531.541 100.851 531.541H107.825C108.731 531.541 109.46 532.271 109.46 533.177C109.46 534.078 108.731 534.807 107.825 534.807Z" fill="#202124"/>
<path d="M227.72 501.646C227.668 501.646 227.616 501.646 227.564 501.64C226.668 501.557 226.007 500.755 226.09 499.864L228.715 471.437C228.913 469.271 228.273 467.25 226.903 465.755C225.58 464.297 223.71 463.5 221.648 463.5H107.08C102.616 463.5 98.6683 467.193 98.2673 471.729C98.1892 472.63 97.3819 473.286 96.4965 473.219C95.6006 473.14 94.934 472.344 95.0121 471.448C95.5537 465.26 100.96 460.229 107.08 460.229H221.648C224.642 460.229 227.366 461.406 229.319 463.552C231.314 465.739 232.257 468.646 231.97 471.739L229.345 500.161C229.267 501.01 228.554 501.646 227.72 501.646Z" fill="#202124"/>
<path d="M220.096 481.88C219.888 484.198 217.867 485.474 215.58 485.474H133.257C130.966 485.474 129.263 484.198 129.466 481.88L129.502 481.244C129.71 478.922 131.736 476.755 134.023 476.755H216.377C218.669 476.755 220.346 478.922 220.132 481.244L220.096 481.88Z" fill="white"/>
<path d="M217.866 506.437C217.653 508.75 215.616 510.536 213.33 510.536H131.075C128.793 510.536 127.116 508.75 127.319 506.437L127.34 506.052C127.549 503.734 129.564 501.823 131.851 501.823H214.132C216.418 501.823 218.106 503.734 217.892 506.052L217.866 506.437Z" fill="white"/>
<path d="M121.945 481.765C121.549 486.26 117.622 489.833 113.184 489.833H113.059C108.627 489.833 105.367 486.26 105.757 481.765L105.789 481.635C106.179 477.135 110.111 473.484 114.544 473.484H114.669C119.106 473.484 122.367 477.135 121.971 481.635L121.945 481.765Z" fill="white"/>
<path d="M613.695 360.14H498.659C493.336 360.14 488.612 364.708 488.091 370.12L483.138 422.385C482.622 427.771 486.513 432.073 491.815 432.073H606.523C611.82 432.073 616.554 427.859 617.101 422.469L622.341 370.041C622.882 364.63 619.013 360.14 613.695 360.14Z" fill="#D1D1D1"/>
<path d="M524.252 434.015H491.294C488.299 434.015 485.58 432.833 483.627 430.692C481.632 428.5 480.7 425.578 480.986 422.468L485.95 370.135C486.533 363.911 492.007 358.854 498.132 358.854H521.471C522.377 358.854 523.106 359.583 523.106 360.484C523.106 361.39 522.377 362.12 521.471 362.12H498.132C493.648 362.12 489.632 365.854 489.2 370.448L484.247 422.781C484.038 424.958 484.679 426.989 486.049 428.495C487.367 429.948 489.231 430.75 491.294 430.75H524.252C525.153 430.75 525.893 431.479 525.893 432.385C525.893 433.286 525.153 434.015 524.252 434.015Z" fill="#202124"/>
<path d="M606.002 434.015H565.435C564.523 434.015 563.794 433.286 563.794 432.385C563.794 431.479 564.523 430.75 565.435 430.75H606.002C610.481 430.75 614.497 427.031 614.955 422.468L620.195 370.13C620.414 367.932 619.778 365.89 618.409 364.375C617.096 362.922 615.237 362.12 613.174 362.12H587.409C586.507 362.12 585.773 361.39 585.773 360.484C585.773 359.583 586.507 358.854 587.409 358.854H613.174C616.174 358.854 618.893 360.036 620.836 362.177C622.836 364.385 623.763 367.328 623.445 370.453L618.205 422.791C617.586 428.979 612.112 434.015 606.002 434.015Z" fill="#202124"/>
<path d="M611.862 381.771C611.627 384.104 609.581 386.297 607.278 386.297H524.617C522.32 386.297 520.638 384.104 520.862 381.771L520.888 381.62C521.117 379.276 523.153 377.583 525.456 377.583H608.153C610.445 377.583 612.127 379.276 611.893 381.62L611.862 381.771Z" fill="white"/>
<path d="M609.445 405.875C609.21 408.213 607.158 410.276 604.867 410.276H522.283C519.986 410.276 518.309 408.213 518.528 405.875L518.559 406.203C518.778 403.87 520.82 402.646 523.117 402.646H605.731C608.028 402.646 609.7 403.87 609.471 406.203L609.445 405.875Z" fill="white"/>
<path d="M513.34 381.088C512.908 385.614 508.955 389.567 504.502 389.567H504.377C499.929 389.567 496.663 385.614 497.09 381.088L497.095 381.192C497.528 376.661 501.481 373.219 505.934 373.219H506.059C510.512 373.219 513.778 376.661 513.345 381.192L513.34 381.088Z" fill="white"/>
<path d="M803.174 360.14H688.127C682.814 360.14 678.049 364.708 677.497 370.114L672.143 422.385C671.591 427.776 675.434 432.067 680.742 432.067H795.45C800.752 432.067 805.528 427.859 806.101 422.469L811.742 370.047C812.33 364.625 808.486 360.14 803.174 360.14Z" fill="#D1D1D1"/>
<path d="M673.22 408.614C673.163 408.614 673.111 408.609 673.048 408.604C672.153 408.51 671.502 407.703 671.59 406.812L675.351 370.13C675.981 363.911 681.481 358.859 687.606 358.859H710.944C711.845 358.859 712.574 359.583 712.574 360.489C712.574 361.39 711.845 362.125 710.944 362.125H687.606C683.111 362.125 679.069 365.864 678.595 370.458L674.84 407.146C674.762 407.984 674.054 408.614 673.22 408.614Z" fill="#202124"/>
<path d="M794.929 434.01H754.362C753.461 434.01 752.731 433.281 752.731 432.38C752.731 431.474 753.461 430.745 754.362 430.745H794.929C799.419 430.745 803.466 427.021 803.955 422.448L809.601 370.114C809.836 367.922 809.216 365.88 807.862 364.364C806.56 362.916 804.711 362.12 802.648 362.12H776.882C775.981 362.12 775.252 361.39 775.252 360.484C775.252 359.583 775.981 358.854 776.882 358.854H802.648C805.648 358.854 808.367 360.031 810.299 362.187C812.284 364.39 813.19 367.333 812.846 370.463L807.216 422.797C806.549 428.979 801.034 434.01 794.929 434.01Z" fill="#202124"/>
<path d="M801.444 381.771C801.194 384.104 799.127 386.297 796.835 386.297H714.168C711.871 386.297 710.2 384.104 710.45 381.771L710.481 381.614C710.726 379.276 712.783 377.578 715.075 377.578H797.772C800.075 377.578 801.736 379.276 801.486 381.614L801.444 381.771Z" fill="white"/>
<path d="M798.84 405.88C798.585 408.213 796.522 410.276 794.231 410.276H711.647C709.35 410.276 707.684 408.213 707.923 405.88L707.96 406.203C708.199 403.87 710.257 402.646 712.559 402.646H795.179C797.47 402.646 799.126 403.87 798.876 406.203L798.84 405.88Z" fill="white"/>
<path d="M702.934 381.088C702.46 385.614 698.486 389.567 694.028 389.567H693.903C689.45 389.567 686.215 385.614 686.679 381.088L686.689 381.192C687.158 376.661 691.143 373.219 695.596 373.219H695.726C700.174 373.219 703.413 376.661 702.945 381.192L702.934 381.088Z" fill="white"/>
<path d="M603.58 461.495H489.007C483.71 461.495 479.002 466.036 478.491 471.406L473.575 523.531C473.069 528.875 476.944 533.427 482.22 533.427H596.465C601.746 533.427 606.46 528.969 606.991 523.625L612.194 471.469C612.736 466.099 608.877 461.495 603.58 461.495Z" fill="#D1D1D1"/>
<path d="M551.747 534.807H488.684C487.778 534.807 487.049 534.078 487.049 533.177C487.049 532.271 487.778 531.542 488.684 531.542H551.747C552.648 531.542 553.387 532.271 553.387 533.177C553.387 534.078 552.648 534.807 551.747 534.807Z" fill="#202124"/>
<path d="M488.684 534.807H481.7C478.71 534.807 475.996 533.635 474.049 531.494C472.069 529.317 471.137 526.422 471.434 523.343L473.486 501.609C473.575 500.713 474.392 500.047 475.273 500.135C476.168 500.218 476.83 501.021 476.746 501.922L474.684 523.656C474.481 525.807 475.116 527.807 476.47 529.297C477.783 530.744 479.648 531.541 481.7 531.541H488.684C489.585 531.541 490.319 532.271 490.319 533.177C490.319 534.078 489.585 534.807 488.684 534.807Z" fill="#202124"/>
<path d="M477.976 473.224C477.929 473.224 477.872 473.224 477.825 473.219C476.924 473.13 476.262 472.333 476.351 471.432C476.934 465.255 482.382 460.229 488.486 460.229H532.101C533.002 460.229 533.741 460.963 533.741 461.864C533.741 462.765 533.002 463.5 532.101 463.5H488.486C484.023 463.5 480.033 467.198 479.601 471.745C479.523 472.594 478.814 473.224 477.976 473.224Z" fill="#202124"/>
<path d="M608.83 501.646C608.778 501.646 608.721 501.646 608.669 501.635C607.768 501.547 607.112 500.75 607.205 499.849L610.049 471.422C610.263 469.26 609.638 467.239 608.284 465.745C606.971 464.297 605.122 463.5 603.065 463.5H593.867C592.966 463.5 592.231 462.765 592.231 461.864C592.231 460.963 592.966 460.229 593.867 460.229H603.065C606.049 460.229 608.773 461.406 610.711 463.552C612.695 465.745 613.617 468.656 613.304 471.755L610.455 500.172C610.372 501.015 609.664 501.646 608.83 501.646Z" fill="#202124"/>
<path d="M601.788 481.88C601.554 484.198 599.517 485.474 597.226 485.474H514.903C512.616 485.474 510.929 484.198 511.153 481.88L511.189 481.244C511.413 478.922 513.455 476.755 515.741 476.755H598.101C600.382 476.755 602.054 478.922 601.819 481.244L601.788 481.88Z" fill="white"/>
<path d="M599.377 506.437C599.143 508.75 597.101 510.536 594.815 510.536H512.554C510.273 510.536 508.606 508.75 508.825 506.437L508.856 506.052C509.08 503.734 511.106 501.823 513.398 501.823H595.679C597.966 501.823 599.637 503.734 599.403 506.052L599.377 506.437Z" fill="white"/>
<path d="M503.648 481.765C503.216 486.26 499.263 489.833 494.836 489.833H494.705C490.273 489.833 487.034 486.26 487.461 481.765L487.481 481.635C487.909 477.135 491.862 473.484 496.294 473.484H496.424C500.862 473.484 504.101 477.135 503.669 481.635L503.648 481.765Z" fill="white"/>
<path d="M764.127 466.396C789.919 473.646 823.117 501.562 823.117 552.218C823.117 588.708 769.367 619.614 769.367 619.614L760.497 597.854C760.497 597.854 790.132 575.922 788.705 550.307C787.57 529.771 754.455 523.39 754.455 523.39L764.127 466.396Z" fill="#4880FF"/>
<path d="M753.242 882.656H734.705V860.896H753.242V882.656Z" fill="#4880FF"/>
<path d="M703.913 878.625L685.871 882.885L680.866 861.703L698.913 857.442L703.913 878.625Z" fill="#4880FF"/>
<path d="M768.559 590.906C768.559 590.906 774.101 634.672 769.851 651.661C765.601 668.651 755.668 825.672 755.668 868.151H730.684L719.398 667.474L684.528 740.281C681.997 746.192 681.351 752.739 682.689 759.026L703.273 868.151L679.908 869.76L640.825 749.942C639.075 743.995 638.945 737.698 640.45 731.687L672.142 604.937L768.559 590.906Z" fill="black"/>
<path d="M720.601 664.677C720.241 664.677 719.882 664.557 719.585 664.318C718.877 663.75 718.762 662.724 719.324 662.016L732.226 645.896C732.788 645.193 733.814 645.083 734.522 645.641C735.231 646.208 735.34 647.234 734.778 647.943L721.882 664.062C721.559 664.463 721.085 664.677 720.601 664.677Z" fill="white"/>
<path d="M754.46 877.817H732.699L729.47 894.239C728.845 897.411 731.142 900.385 734.199 900.385H752.955C756.017 900.385 758.309 897.411 757.679 894.239L754.46 877.817Z" fill="white"/>
<path d="M734.038 879.453L731.075 894.557C730.856 895.651 731.127 896.755 731.814 897.594C732.429 898.344 733.278 898.75 734.2 898.75H752.95C753.872 898.75 754.721 898.344 755.335 897.594C756.023 896.755 756.288 895.651 756.08 894.557L753.111 879.453H734.038ZM752.95 902.021H734.2C732.304 902.021 730.518 901.166 729.288 899.666C727.981 898.078 727.46 895.984 727.866 893.927L731.085 877.51C731.241 876.739 731.908 876.187 732.695 876.187H754.455C755.236 876.187 755.908 876.739 756.054 877.51L759.288 893.927C759.689 895.984 759.169 898.078 757.861 899.666C756.627 901.166 754.84 902.021 752.95 902.021Z" fill="black"/>
<path d="M754.45 896.781H731.882C730.981 896.781 730.252 896.052 730.252 895.151C730.252 894.245 730.981 893.515 731.882 893.515H754.45C755.356 893.515 756.085 894.245 756.085 895.151C756.085 896.052 755.356 896.781 754.45 896.781Z" fill="black"/>
<path d="M704.481 872.984L710.44 892.76C711.476 896.203 709.377 899.838 706.289 899.942L665.356 901.328C662.825 901.416 661.809 897.489 663.955 895.885C670.617 890.88 679.476 883.927 681.908 880.63C687.559 872.984 693.195 879.672 693.195 879.672C693.195 879.672 697.226 872.984 704.481 872.984Z" fill="white"/>
<path d="M687.793 878.593C687.752 878.593 687.705 878.599 687.658 878.599C686.142 878.656 684.658 879.666 683.226 881.599C681.195 884.354 675.038 889.599 664.934 897.192C664.372 897.614 664.335 898.422 664.533 898.989C664.611 899.203 664.882 899.744 665.304 899.698L706.241 898.312C707.304 898.276 707.981 897.541 708.293 897.104C709.059 896.047 709.278 894.562 708.872 893.234L703.288 874.687C697.804 875.364 694.627 880.463 694.59 880.521C694.325 880.968 693.846 881.26 693.32 881.302C692.799 881.338 692.288 881.13 691.95 880.724C691.934 880.708 690.085 878.593 687.793 878.593ZM665.283 902.968C663.569 902.968 662.07 901.843 661.45 900.078C660.726 898.015 661.335 895.807 662.971 894.578C672.549 887.38 678.809 882.083 680.596 879.656C682.653 876.875 685.002 875.416 687.575 875.328C689.84 875.265 691.726 876.307 692.95 877.239C694.767 875.036 698.684 871.349 704.481 871.349C705.205 871.349 705.84 871.823 706.049 872.51L712.007 892.286C712.705 894.604 712.309 897.119 710.944 899.015C709.825 900.578 708.148 901.515 706.356 901.578L665.413 902.963C665.372 902.968 665.325 902.968 665.283 902.968Z" fill="black"/>
<path d="M669.831 896.781C668.956 896.781 668.237 896.094 668.195 895.219C668.153 894.318 668.857 893.552 669.758 893.515L706.831 891.901C707.778 891.854 708.497 892.562 708.539 893.463C708.575 894.364 707.877 895.13 706.976 895.172L669.898 896.781C669.872 896.781 669.846 896.781 669.831 896.781Z" fill="black"/>
<path d="M726.246 455.104L746.397 468.802L690.913 466.151L706.903 455.911L709.054 446C706.215 445.578 702.314 445.291 701.069 443.75C698.882 441.01 699.871 431.557 699.871 431.557L697.465 429.666C697.21 429.541 697.017 429.312 696.944 429.031C696.871 428.755 696.908 428.463 697.059 428.218C699.106 424.963 701.033 423.911 701.934 420.599C702.825 417.328 702.429 417.823 705.95 410.781L727.049 410.755L727.174 426.567C727.174 426.567 730.408 424.479 732.46 427.302C733.955 429.354 730.647 436.224 727.976 436.224L726.246 455.104Z" fill="white"/>
<path d="M696.111 464.765L740.684 466.901L725.33 456.458C724.835 456.125 724.564 455.552 724.621 454.958L726.345 436.078C726.424 435.239 727.127 434.594 727.97 434.594C728.2 434.578 729.121 433.995 730.085 432.25C731.153 430.318 731.335 428.62 731.132 428.25C730.028 426.734 728.252 427.807 728.059 427.937C727.554 428.265 726.924 428.292 726.392 428.005C725.866 427.719 725.538 427.177 725.538 426.578L725.434 412.39L706.96 412.411C704.434 417.495 704.314 417.974 703.819 419.864C703.736 420.198 703.632 420.573 703.512 421.021C702.851 423.453 701.71 424.849 700.496 426.318C699.934 427.015 699.351 427.719 698.762 428.604L700.877 430.265C701.319 430.62 701.554 431.167 701.496 431.729C701.116 435.38 701.127 441.203 702.345 442.724C702.996 443.531 706.106 443.948 707.96 444.198C708.413 444.265 708.871 444.318 709.293 444.385C709.741 444.448 710.142 444.703 710.398 445.068C710.658 445.448 710.752 445.901 710.658 446.344L708.502 456.255C708.408 456.687 708.153 457.057 707.783 457.292L696.111 464.765ZM746.392 470.443C746.371 470.443 746.345 470.443 746.319 470.443L690.835 467.792C690.121 467.75 689.517 467.26 689.33 466.573C689.148 465.885 689.434 465.161 690.028 464.776L705.45 454.901L707.085 447.38C704.142 446.979 701.194 446.515 699.793 444.765C697.616 442.047 697.929 435.094 698.158 432.292L696.554 431.031C695.976 430.677 695.549 430.12 695.371 429.463C695.168 428.755 695.278 427.984 695.679 427.349C696.491 426.057 697.273 425.094 697.97 424.25C699.075 422.901 699.877 421.922 700.361 420.167C700.476 419.729 700.569 419.364 700.653 419.042C701.252 416.729 701.46 416.104 704.486 410.057C704.757 409.495 705.33 409.146 705.95 409.146L727.054 409.12C727.95 409.12 728.679 409.844 728.689 410.745L728.783 424.265C730.476 424.015 732.398 424.432 733.783 426.344C735.413 428.588 733.72 432.333 733.163 433.427C732.621 434.489 731.33 436.667 729.496 437.51L727.965 454.297L747.319 467.458C747.918 467.87 748.179 468.63 747.95 469.328C747.72 469.995 747.095 470.443 746.392 470.443Z" fill="black"/>
<path d="M728.997 443.302C724.747 444.718 720.554 441.39 719.799 440.797C716.846 438.453 714.434 434.271 715.617 432.427C716.273 431.422 717.44 431.974 718.96 430.76C721.216 428.979 721.856 425.109 720.638 424.067C719.638 423.213 718.085 424.849 716.455 424.067C714.471 423.12 715.481 420.067 713.95 417.38C711.434 412.989 705.575 415.64 701.07 410.963C698.132 407.916 696.856 402.833 698.539 399.958C699.023 399.114 699.778 398.375 700.846 397.786C707.929 393.885 708.992 399.224 715.888 399.281C730.085 399.401 737.044 402.245 739.617 408.125C741.361 412.12 739.231 418.479 738.2 421.562C737.856 422.593 737.132 424.526 736.528 427.416C735.867 430.573 736.065 431.38 735.69 433.265C735.429 434.588 734.018 441.635 728.997 443.302Z" fill="black"/>
<path d="M669.825 463.161C669.825 463.161 718.189 449.458 764.132 466.396C767.668 486.755 770.09 504.344 771.788 518.271C774.767 542.791 772.913 534.958 776.622 570.755C778.929 593.005 779.543 595.041 777.429 598.963C766.767 618.729 723.809 617.656 707.304 613.474C706.127 613.172 701.288 611.901 693.351 609.896C684.278 607.609 676.819 605.797 671.84 604.609C669.148 603.385 665.512 601.224 662.976 597.354C657.293 588.682 661.096 577.448 662.976 569.953C667.809 550.692 661.46 550.276 662.976 515.146C663.507 502.864 665.059 485.021 669.825 463.161Z" fill="#4880FF"/>
<path d="M562.007 446.307L556.424 422.172L540.867 408.364C540.867 408.364 532.013 408.515 546.507 423.677C546.507 423.677 539.58 437.229 544.06 442.609C545.356 444.177 552.815 453.869 552.815 453.869L562.007 446.307Z" fill="white"/>
<path d="M540.377 410.115C540.174 410.193 539.976 410.318 539.893 410.521C539.778 410.797 539.049 413.505 547.69 422.547C548.169 423.052 548.278 423.802 547.966 424.422C546.294 427.693 542.231 437.865 545.315 441.568C546.341 442.797 550.981 448.807 553.08 451.536L560.184 445.687L554.95 423.047L540.377 410.115ZM552.815 455.505C552.757 455.505 552.695 455.5 552.638 455.495C552.2 455.448 551.794 455.219 551.523 454.87C551.45 454.771 544.07 445.182 542.799 443.661C538.393 438.365 542.867 427.562 544.539 423.979C538.033 417.016 535.596 412.318 536.882 409.25C537.695 407.302 539.752 406.75 540.841 406.729C541.257 406.713 541.643 406.87 541.95 407.141L557.513 420.948C557.763 421.177 557.945 421.469 558.023 421.802L563.601 445.937C563.742 446.542 563.523 447.172 563.049 447.568L553.856 455.13C553.565 455.375 553.195 455.505 552.815 455.505Z" fill="black"/>
<path d="M547.314 452.687L564.236 441.411C564.236 441.411 581.971 480.896 609.377 484.922C636.783 488.958 649.674 462.359 685.143 459.942L685.945 509.104C685.945 509.104 651.294 539.729 620.663 538.114C590.033 536.505 557.788 483.317 547.314 452.687Z" fill="#4880FF"/>
<path d="M758.283 614.041C757.486 614.041 756.789 613.458 756.669 612.646C756.539 611.755 757.153 610.922 758.044 610.786C758.924 610.656 779.476 607.39 776.752 587.911C776.632 587.021 777.257 586.192 778.148 586.067C779.044 585.942 779.872 586.567 779.997 587.463C783.169 610.177 758.768 613.989 758.523 614.026C758.44 614.031 758.367 614.041 758.283 614.041Z" fill="white"/>
<path d="M702.273 595.239C701.862 595.239 701.445 595.078 701.127 594.765C681.851 575.765 677.872 547.015 677.716 545.802C677.601 544.906 678.221 544.083 679.122 543.963C680.018 543.849 680.841 544.474 680.955 545.375C680.992 545.661 684.961 574.239 703.424 592.437C704.065 593.067 704.07 594.104 703.44 594.75C703.117 595.073 702.7 595.239 702.273 595.239Z" fill="white"/>
<path d="M337.856 848.875C304.101 817.765 321.575 797.703 321.575 797.703C321.575 797.703 336.653 773.281 389.56 805.208C442.471 837.135 493.685 825.265 505.263 820.479C516.846 815.692 557.315 785.604 580.122 783.916C592.81 782.979 607.997 792.521 594.674 818.307C567.117 871.635 492.289 877.718 492.289 877.718C492.289 877.718 456.013 884.531 418.752 877.932C418.752 877.932 371.606 879.979 337.856 848.875Z" fill="#4880FF"/>
<path d="M418.752 876.297C418.846 876.297 418.945 876.307 419.039 876.323C455.56 882.786 491.627 876.177 491.987 876.114C492.044 876.104 492.096 876.093 492.159 876.088C492.898 876.031 566.414 869.448 593.221 817.557C598.81 806.739 599.726 797.948 595.877 792.125C592.284 786.687 585.445 785.161 580.237 785.547C564.721 786.698 540.758 801.364 523.252 812.083C515.57 816.786 509.513 820.495 505.893 821.989C499.778 824.515 483.83 828.651 462.883 828.25C436.575 827.713 411.622 820.427 388.716 806.609C362.06 790.515 345.534 789.25 336.367 791.021C326.648 792.89 323.106 798.338 322.961 798.567C322.914 798.635 322.862 798.708 322.804 798.776C322.148 799.541 306.893 818.114 338.961 847.677C371.836 877.968 418.216 876.323 418.679 876.297C418.7 876.297 418.726 876.297 418.752 876.297ZM453.565 882.422C442.81 882.422 430.747 881.703 418.633 879.573C415.31 879.656 369.523 880.286 336.747 850.073C303.575 819.505 318.83 798.531 320.242 796.75C321.497 794.817 337.825 772.078 390.403 803.807C450.08 839.823 504.112 819.187 504.638 818.968C508.018 817.573 514.294 813.734 521.549 809.291C539.33 798.406 563.69 783.495 579.997 782.291C586.127 781.843 594.232 783.703 598.607 790.323C601.773 795.114 603.909 803.989 596.122 819.057C581.653 847.067 554.195 861.974 533.716 869.547C512.367 877.432 493.924 879.213 492.508 879.338C491.19 879.578 474.95 882.422 453.565 882.422Z" fill="black"/>
<path d="M425.768 853.411L446.966 865.864L431.424 874.328L421.528 868L425.768 853.411Z" fill="white"/>
<path d="M423.44 867.281L431.492 872.432L443.643 865.812L426.747 855.885L423.44 867.281ZM431.424 875.963C431.117 875.963 430.809 875.875 430.544 875.708L420.648 869.375C420.039 868.984 419.757 868.24 419.955 867.542L424.195 852.958C424.335 852.474 424.695 852.078 425.164 851.891C425.627 851.703 426.158 851.745 426.596 852L447.794 864.453C448.299 864.755 448.612 865.302 448.601 865.891C448.591 866.479 448.268 867.016 447.747 867.297L432.21 875.76C431.96 875.896 431.69 875.963 431.424 875.963Z" fill="black"/>
<path d="M431.497 868.729L434.663 865.526C435.804 864.365 437.585 864.151 438.976 864.99L441.231 866.354L442.413 864.609C442.934 863.469 444.283 862.766 445.413 863.307C458.846 869.76 475.95 874.693 483.981 880.641C493.476 887.677 486.731 903.333 470.169 901.74C457.033 900.474 439.096 885.833 432.21 879.812C430.856 878.625 431.2 876.443 432.846 875.719L432.861 875.713L431.111 873.193C430.148 871.807 430.309 869.927 431.497 868.729Z" fill="white"/>
<path d="M437.153 866.114C436.674 866.114 436.189 866.302 435.83 866.672L432.658 869.88C432.023 870.515 431.939 871.521 432.455 872.26L434.21 874.781C434.491 875.193 434.57 875.713 434.424 876.193C434.283 876.666 433.918 877.057 433.455 877.234C433.127 877.38 433.038 877.708 433.023 877.849C432.997 878.01 432.997 878.328 433.283 878.583C440.226 884.651 457.715 898.896 470.325 900.114C479.382 900.989 484.455 896.443 486.054 892.286C487.543 888.411 486.377 884.448 483.007 881.953C478.299 878.469 470.168 875.265 461.559 871.875C455.887 869.646 450.028 867.338 444.705 864.781C444.679 864.771 444.601 864.729 444.434 864.791C444.21 864.87 444.002 865.068 443.892 865.291C443.861 865.37 443.814 865.453 443.767 865.526L442.58 867.271C442.09 867.995 441.122 868.203 440.382 867.75L438.127 866.385C437.825 866.203 437.491 866.114 437.153 866.114ZM472.554 903.489C471.736 903.489 470.892 903.453 470.007 903.37C456.46 902.062 438.309 887.318 431.132 881.041C430.08 880.12 429.575 878.734 429.788 877.349C429.898 876.614 430.2 875.953 430.653 875.39L429.767 874.125C428.356 872.094 428.59 869.338 430.335 867.578L433.502 864.375C435.179 862.672 437.778 862.354 439.82 863.588L440.747 864.151L440.991 863.786C441.481 862.828 442.325 862.073 443.325 861.713C444.257 861.375 445.252 861.416 446.122 861.833C451.34 864.344 457.142 866.625 462.757 868.838C471.57 872.307 479.903 875.583 484.955 879.328C489.486 882.687 491.111 888.234 489.106 893.458C487.257 898.265 481.872 903.489 472.554 903.489Z" fill="black"/>
<path d="M468.278 897.927C466.517 897.927 464.6 897.666 462.543 897.078C461.679 896.828 461.173 895.922 461.423 895.057C461.673 894.192 462.58 893.687 463.444 893.932C470.934 896.083 475.965 893.005 477.996 889.718C479.517 887.25 479.512 884.578 477.965 882.901C477.356 882.234 477.403 881.203 478.064 880.593C478.725 879.979 479.762 880.026 480.371 880.687C482.934 883.468 483.09 887.692 480.778 891.437C478.731 894.75 474.434 897.927 468.278 897.927Z" fill="black"/>
<path d="M460.185 890.505C459.867 890.505 459.539 890.411 459.252 890.213C458.507 889.698 458.325 888.682 458.841 887.937L466.669 876.63C467.179 875.89 468.205 875.703 468.945 876.219C469.685 876.734 469.872 877.75 469.362 878.495L461.528 889.802C461.216 890.26 460.7 890.505 460.185 890.505Z" fill="black"/>
<path d="M452.106 887.469C451.867 887.469 451.627 887.422 451.398 887.312C450.585 886.922 450.236 885.948 450.627 885.135L455.992 873.844C456.382 873.031 457.356 872.687 458.174 873.073C458.986 873.463 459.33 874.437 458.95 875.25L453.575 886.536C453.299 887.125 452.716 887.469 452.106 887.469Z" fill="black"/>
<path d="M476.971 855.885C476.518 855.885 476.064 855.703 475.747 855.333L473.991 853.344C473.7 853.015 473.554 852.588 473.585 852.146C473.616 851.708 473.82 851.307 474.153 851.021L482.981 843.463C496.596 831.812 511.512 821.614 527.314 813.161L533.674 809.755C534.471 809.328 535.46 809.63 535.887 810.427C536.309 811.219 536.012 812.213 535.215 812.64L528.856 816.041C513.262 824.385 498.544 834.448 485.111 845.942L477.538 852.427L478.195 853.172C478.788 853.849 478.726 854.885 478.049 855.479C477.741 855.755 477.351 855.885 476.971 855.885Z" fill="black"/>
<path d="M478.893 857.729L445.658 871.531L453.325 882.422L490.377 871.531L478.893 857.729Z" fill="white"/>
<path d="M448.163 872.26L453.986 880.526L487.528 870.666L478.403 859.708L448.163 872.26ZM453.324 884.057C452.798 884.057 452.298 883.807 451.986 883.364L444.319 872.474C444.033 872.067 443.949 871.557 444.085 871.078C444.225 870.604 444.569 870.213 445.028 870.021L478.267 856.224C478.923 855.948 479.689 856.135 480.147 856.687L491.637 870.489C491.986 870.911 492.1 871.484 491.939 872.01C491.783 872.536 491.366 872.942 490.835 873.104L453.783 883.995C453.632 884.041 453.475 884.057 453.324 884.057Z" fill="black"/>
<path d="M459.299 874.125L456.7 870.442C455.763 869.114 454.044 868.604 452.539 869.203L448.705 870.896L448.398 869.781C448.07 868.573 446.888 867.807 445.653 868.005C438.127 869.198 414.471 872.687 405.565 877.234C395.039 882.614 399.117 899.166 415.721 900.317C428.877 901.229 447.101 891.468 454.674 886.338C457.153 884.651 455.414 881.505 455.414 881.505L458.945 878.593C460.122 877.385 460.273 875.505 459.299 874.125Z" fill="white"/>
<path d="M446.038 869.609C445.991 869.609 445.955 869.614 445.908 869.62L444.345 869.864C436.163 871.146 414.434 874.541 406.309 878.687C402.58 880.599 400.773 884.312 401.601 888.38C402.497 892.739 406.757 898.057 415.835 898.687C427.601 899.479 444.965 890.942 453.752 884.984C454.939 884.177 454.08 882.474 453.976 882.281C453.611 881.594 453.773 880.734 454.377 880.239L457.825 877.396C458.403 876.75 458.465 875.781 457.96 875.067L455.366 871.38C454.861 870.672 453.95 870.396 453.142 870.724L449.361 872.39C448.929 872.583 448.434 872.573 448.002 872.37C447.575 872.166 447.257 871.781 447.127 871.323L446.825 870.208C446.72 869.849 446.398 869.609 446.038 869.609ZM417.476 902.015C416.84 902.015 416.215 901.995 415.606 901.948C404.7 901.187 399.523 894.521 398.398 889.036C397.283 883.547 399.799 878.344 404.825 875.776C413.408 871.396 434.731 868.057 443.835 866.635L445.398 866.39C447.21 866.109 448.955 867.052 449.72 868.661L451.877 867.708C454.148 866.807 456.663 867.547 458.038 869.5L460.632 873.182C462.064 875.208 461.845 877.958 460.116 879.734C460.069 879.781 460.028 879.817 459.981 879.854L457.377 882.005C457.882 883.729 457.866 886.146 455.585 887.693C448.059 892.791 430.845 902.015 417.476 902.015Z" fill="black"/>
<path d="M436.153 889.239C435.445 889.239 434.789 888.776 434.58 888.057L431.148 876.041C430.903 875.172 431.403 874.271 432.273 874.021C433.138 873.771 434.044 874.276 434.289 875.14L437.726 887.156C437.976 888.021 437.476 888.927 436.601 889.177C436.455 889.218 436.304 889.239 436.153 889.239Z" fill="black"/>
<path d="M416.043 897.026C415.866 897.026 415.689 897 415.512 896.937C409.637 894.922 406.205 892.057 405.335 888.416C404.168 883.557 408.106 879.422 408.278 879.25C408.903 878.599 409.939 878.583 410.585 879.218C411.236 879.843 411.252 880.88 410.627 881.521C410.574 881.578 407.762 884.578 408.517 887.666C409.111 890.104 411.897 892.244 416.574 893.843C417.429 894.135 417.882 895.067 417.595 895.922C417.361 896.599 416.725 897.026 416.043 897.026Z" fill="black"/>
<path d="M426.559 851.864C426.45 851.864 426.346 851.859 426.236 851.833C425.356 851.656 424.778 850.791 424.96 849.906L425.377 847.833C419.283 843.401 381.403 816.349 360.221 813.208C359.33 813.078 358.71 812.244 358.841 811.354C358.971 810.458 359.809 809.838 360.695 809.974C384.476 813.494 426.387 844.5 428.163 845.823C428.669 846.203 428.913 846.838 428.788 847.458L428.163 850.557C428.002 851.328 427.325 851.864 426.559 851.864Z" fill="black"/>
<path d="M537.148 772.015C535.413 764.255 525.065 740.687 516.71 719.594C510.044 702.76 491.757 687.729 472.575 685.291C458.299 683.474 442.815 683.109 427.929 684.281C403.111 686.229 381.794 699.255 373.585 721.031C366.184 740.64 358.132 764.729 357.95 776.927C357.752 789.916 365.606 802.338 374.174 811.979C384.986 824.146 400.408 831.724 417.059 833.265C440.851 835.474 477.976 837.682 494.841 832.177C520.7 823.724 541.346 790.812 537.148 772.015Z" fill="black"/>
<path d="M511.278 744.317H409.33C404.705 744.317 400.95 748.067 400.95 752.692V820.093C400.95 824.713 404.705 828.468 409.33 828.468H511.278C515.903 828.468 519.653 824.713 519.653 820.093V752.692C519.653 748.067 515.903 744.317 511.278 744.317Z" fill="#D9D9D9" fill-opacity="0.62"/>
<path d="M409.33 745.953C405.616 745.953 402.59 748.974 402.59 752.693V820.088C402.59 823.807 405.616 826.833 409.33 826.833H511.278C514.991 826.833 518.017 823.807 518.017 820.088V752.693C518.017 748.974 514.991 745.953 511.278 745.953H409.33ZM511.278 830.099H409.33C403.809 830.099 399.319 825.614 399.319 820.088V752.693C399.319 747.177 403.809 742.682 409.33 742.682H511.278C516.793 742.682 521.283 747.177 521.283 752.693V820.088C521.283 825.614 516.793 830.099 511.278 830.099Z" fill="black"/>
<path d="M518.028 828.875H400.84C397.929 828.875 395.564 831.234 395.564 834.146C395.564 837.057 397.929 839.416 400.84 839.416H518.028C520.939 839.416 523.304 837.057 523.304 834.146C523.304 831.234 520.939 828.875 518.028 828.875Z" fill="#E8EAED"/>
<path d="M400.84 830.51C398.835 830.51 397.2 832.14 397.2 834.146C397.2 836.151 398.835 837.781 400.84 837.781H518.028C520.033 837.781 521.668 836.151 521.668 834.146C521.668 832.14 520.033 830.51 518.028 830.51H400.84ZM518.028 841.052H400.84C397.033 841.052 393.929 837.953 393.929 834.146C393.929 830.338 397.033 827.239 400.84 827.239H518.028C521.835 827.239 524.934 830.338 524.934 834.146C524.934 837.953 521.835 841.052 518.028 841.052Z" fill="black"/>
<path d="M464.721 782.797C464.721 786.166 461.992 788.901 458.617 788.901C455.247 788.901 452.513 786.166 452.513 782.797C452.513 779.422 455.247 776.687 458.617 776.687C461.992 776.687 464.721 779.422 464.721 782.797Z" fill="white"/>
<path d="M458.976 677.724C464.919 678.318 470.216 673.99 470.815 668.052L472.45 651.755C473.013 646.141 468.95 641.125 463.346 640.5L461.351 640.281C458.044 639.911 454.763 641.161 452.528 643.635L448.356 648.25C447.731 648.937 446.726 649.141 445.903 648.729C444.784 648.172 443.169 647.63 441.903 648.302C439.752 649.443 437.273 658.047 445.153 660.312L440.403 677.177C439.195 681.453 436.242 685.021 432.268 687.005C429.393 688.437 426.575 690.078 426.45 691.073C425.778 696.474 441.773 698.448 446.325 698.552C454.763 698.75 466.601 695.37 467.492 690.557C467.898 688.37 457.508 687.307 457.94 685.125C458.862 680.531 458.976 677.724 458.976 677.724Z" fill="white"/>
<path d="M428.07 691.474C428.085 691.672 428.169 691.927 428.455 692.255C430.908 695.104 441.413 696.802 446.361 696.917C454.637 697.146 464.309 693.953 465.736 690.734C464.992 690.307 463.288 689.75 462.205 689.396C458.929 688.323 455.835 687.318 456.341 684.797C457.226 680.417 457.346 677.682 457.346 677.656L457.419 675.922L459.143 676.099C464.184 676.599 468.684 672.922 469.184 667.89L470.82 651.588C471.294 646.896 467.861 642.646 463.163 642.125L461.169 641.901C458.393 641.588 455.611 642.651 453.742 644.724L449.565 649.349C448.455 650.583 446.643 650.927 445.163 650.193C444.091 649.651 443.158 649.484 442.669 649.75C442.231 650.026 441.117 652.099 441.46 654.469C441.768 656.599 443.163 658.036 445.611 658.745L447.169 659.193L441.971 677.62C440.643 682.333 437.372 686.292 432.997 688.474C429.377 690.271 428.341 691.177 428.07 691.474ZM447.028 700.198C446.778 700.198 446.528 700.193 446.283 700.187C443.184 700.114 429.825 698.859 425.981 694.396C425.07 693.338 424.674 692.125 424.83 690.87C424.992 689.562 426.174 688.213 431.538 685.542C435.091 683.771 437.747 680.557 438.825 676.734L443.169 661.328C439.299 659.609 438.372 656.437 438.179 654.578C437.851 651.417 439.205 647.885 441.137 646.859C442.617 646.068 444.523 646.208 446.632 647.265C446.799 647.349 447.002 647.302 447.143 647.156L451.309 642.536C453.887 639.682 457.71 638.239 461.533 638.656L463.523 638.88C469.997 639.594 474.726 645.448 474.075 651.922L472.44 668.213C471.815 674.474 466.617 679.203 460.486 679.406C460.356 680.635 460.117 682.521 459.648 684.927C460.361 685.354 462.111 685.927 463.216 686.286C466.481 687.349 469.565 688.354 469.096 690.859C468.002 696.771 455.757 700.198 447.028 700.198Z" fill="black"/>
<path d="M459.856 679.401C459.794 679.401 459.731 679.396 459.669 679.39C458.2 679.219 450.804 678.094 448.987 672.604C448.705 671.745 449.169 670.818 450.023 670.536C450.882 670.255 451.809 670.713 452.091 671.573C453.325 675.318 459.768 676.109 460.044 676.14C460.94 676.25 461.585 677.057 461.481 677.953C461.382 678.786 460.674 679.401 459.856 679.401Z" fill="black"/>
<path d="M440.325 648.541L438.21 635.698C438.122 630.041 441.95 625.062 447.445 623.703L463.351 619.765C464.966 619.364 466.518 620.609 466.476 622.271C466.44 623.927 467.997 625.177 469.606 624.771L476.856 622.963C478.992 622.432 480.737 624.698 479.674 626.625L479.294 627.312C478.502 628.755 479.273 630.552 480.867 630.974L486.544 632.541C488.471 633.047 489.08 635.495 487.606 636.838L472.908 649.203C472.908 649.203 470.554 638.51 459.981 640.094C454.632 640.896 450.851 644.989 449.226 647.942C448.601 649.078 447.372 651.104 445.419 649.312C445.419 649.312 446.705 644.942 440.325 648.541Z" fill="black"/>
<path d="M247.258 142.515C258.388 201.911 219.539 259.13 160.482 270.323C101.419 281.521 44.5232 242.448 33.3929 183.052C22.2575 123.661 61.1117 66.4425 120.174 55.2497C179.226 44.0518 236.127 83.1195 247.258 142.515Z" fill="#4880FF"/>
<path d="M140.538 54.9581C133.877 54.9581 127.163 55.5883 120.476 56.8487C62.3923 67.8644 24.0485 124.344 34.9965 182.755C40.3194 211.156 56.3454 235.739 80.1267 251.974C103.72 268.083 132.148 274.031 160.174 268.724C218.257 257.708 256.601 201.229 245.653 142.817C240.33 114.416 224.304 89.8331 200.523 73.5987C182.559 61.3331 161.793 54.9581 140.538 54.9581ZM140.101 273.89C118.194 273.89 96.7933 267.317 78.2829 254.677C53.7829 237.948 37.2673 212.62 31.7829 183.354C20.5069 123.177 60.0173 64.9894 119.866 53.6404C148.752 48.1664 178.049 54.2914 202.366 70.9008C226.866 87.6248 243.382 112.958 248.866 142.219C260.148 202.401 220.632 260.583 160.783 271.932C153.892 273.239 146.97 273.89 140.101 273.89Z" fill="black"/>
<path d="M231.513 145.505C241.008 196.151 207.877 244.948 157.513 254.489C107.153 264.036 58.6274 230.718 49.1378 180.073C39.643 129.427 72.7733 80.6247 123.138 71.083C173.502 61.5362 222.023 94.8539 231.513 145.505Z" fill="white"/>
<path d="M140.507 71.0779C134.84 71.0779 129.132 71.6143 123.439 72.6924C74.0432 82.0518 41.4287 130.093 50.7412 179.771C55.2672 203.927 68.9026 224.838 89.1214 238.646C109.194 252.349 133.371 257.406 157.205 252.885C206.601 243.521 239.215 195.489 229.908 145.802C225.377 121.646 211.746 100.745 191.522 86.932C176.246 76.5049 158.585 71.0779 140.507 71.0779ZM140.132 257.771C121.403 257.771 103.111 252.151 87.2776 241.343C66.3349 227.047 52.2151 205.39 47.5276 180.37C37.887 128.922 71.6682 79.1716 122.835 69.4789C147.528 64.7966 172.58 70.0362 193.366 84.2289C214.314 98.531 228.429 120.187 233.116 145.203C242.762 196.651 208.981 246.401 157.814 256.104C151.923 257.213 146.007 257.771 140.132 257.771Z" fill="black"/>
<path d="M178.397 207.567C177.944 207.567 177.491 207.385 177.168 207.015L139.1 163.864C138.824 163.557 138.679 163.146 138.689 162.734L140.022 118.718C140.054 117.817 140.809 117.067 141.71 117.135C142.611 117.161 143.319 117.916 143.293 118.817L141.981 162.182L179.621 204.859C180.22 205.536 180.153 206.567 179.475 207.161C179.168 207.432 178.783 207.567 178.397 207.567Z" fill="black"/>
<path d="M131.991 88.8852C132.595 92.1196 130.481 95.2342 127.267 95.8488C124.054 96.4581 120.955 94.3227 120.345 91.0936C119.741 87.8592 121.856 84.7446 125.069 84.1352C128.288 83.5259 131.387 85.6509 131.991 88.8852Z" fill="#D1D1D1"/>
<path d="M96.3663 102.974C98.4965 105.474 98.2153 109.234 95.7309 111.38C93.2517 113.526 89.5122 113.239 87.3767 110.745C85.2413 108.25 85.5278 104.489 88.007 102.338C90.4913 100.198 94.2309 100.479 96.3663 102.974Z" fill="#D1D1D1"/>
<path d="M72.5173 133.099C75.6007 134.187 77.2309 137.583 76.1475 140.692C75.0642 143.797 71.684 145.432 68.5954 144.344C65.5069 143.25 63.8819 139.854 64.96 136.75C66.0486 133.646 69.4288 132.005 72.5173 133.099Z" fill="#D1D1D1"/>
<path d="M66.8348 171.166C70.0536 170.552 73.1525 172.687 73.7567 175.916C74.3608 179.151 72.2463 182.265 69.0327 182.875C65.8192 183.489 62.7202 181.359 62.1108 178.12C61.5067 174.89 63.6213 171.776 66.8348 171.166Z" fill="#D1D1D1"/>
<path d="M80.8458 207C83.3302 204.854 87.0698 205.14 89.2052 207.635C91.3354 210.13 91.0542 213.896 88.5698 216.036C86.0906 218.182 82.351 217.901 80.2156 215.401C78.0802 212.906 78.3667 209.146 80.8458 207Z" fill="#D1D1D1"/>
<path d="M110.794 230.979C111.883 227.875 115.263 226.239 118.351 227.328C121.435 228.416 123.065 231.817 121.982 234.922C120.893 238.031 117.513 239.666 114.424 238.578C111.341 237.484 109.716 234.088 110.794 230.979Z" fill="#D1D1D1"/>
<path d="M148.653 236.692C148.048 233.458 150.168 230.343 153.382 229.729C156.595 229.125 159.694 231.255 160.304 234.484C160.908 237.718 158.793 240.833 155.575 241.442C152.361 242.052 149.262 239.927 148.653 236.692Z" fill="#D1D1D1"/>
<path d="M184.289 222.599C182.153 220.099 182.434 216.338 184.919 214.198C187.398 212.052 191.138 212.333 193.273 214.833C195.403 217.323 195.122 221.088 192.643 223.234C190.158 225.375 186.419 225.093 184.289 222.599Z" fill="#D1D1D1"/>
<path d="M208.137 192.479C205.043 191.39 203.423 187.989 204.502 184.885C205.585 181.776 208.97 180.14 212.054 181.234C215.142 182.323 216.767 185.724 215.684 188.828C214.606 191.932 211.22 193.567 208.137 192.479Z" fill="#D1D1D1"/>
<path d="M213.814 154.406C210.595 155.015 207.496 152.89 206.892 149.656C206.288 146.416 208.403 143.307 211.616 142.692C214.835 142.088 217.934 144.213 218.538 147.442C219.142 150.682 217.028 153.797 213.814 154.406Z" fill="#D1D1D1"/>
<path d="M199.799 118.573C197.319 120.724 193.58 120.437 191.444 117.942C189.314 115.442 189.595 111.682 192.08 109.536C194.559 107.39 198.304 107.677 200.434 110.172C202.564 112.672 202.283 116.427 199.799 118.573Z" fill="#D1D1D1"/>
<path d="M169.856 94.5936C168.773 97.7029 165.388 99.3331 162.304 98.2446C159.211 97.1508 157.591 93.755 158.674 90.6508C159.752 87.5415 163.138 85.9113 166.221 86.9998C169.31 88.0883 170.935 91.4842 169.856 94.5936Z" fill="#D1D1D1"/>
<path d="M276.784 34.3747C276.544 34.3747 276.304 34.3278 276.075 34.2185C275.263 33.8174 274.919 32.8435 275.31 32.031L278.976 24.4164C279.372 23.5987 280.351 23.2601 281.159 23.6508C281.976 24.0414 282.315 25.0153 281.924 25.8331L278.258 33.4476C277.976 34.0362 277.393 34.3747 276.784 34.3747Z" fill="black"/>
<path d="M268.242 52.1247C268.002 52.1247 267.762 52.0726 267.533 51.9633C266.721 51.5674 266.377 50.5935 266.768 49.781L270.434 42.1612C270.825 41.3487 271.809 41.0101 272.617 41.4008C273.429 41.7914 273.773 42.7653 273.382 43.5778L269.716 51.1976C269.434 51.7862 268.851 52.1247 268.242 52.1247Z" fill="black"/>
<path d="M269.278 37.0102C269.044 37.0102 268.799 36.9581 268.57 36.8487L260.95 33.1821C260.138 32.7862 259.794 31.8123 260.19 30.9998C260.581 30.1821 261.56 29.8435 262.367 30.2341L269.987 33.9008C270.804 34.2914 271.143 35.2706 270.752 36.0831C270.471 36.6716 269.888 37.0102 269.278 37.0102Z" fill="black"/>
<path d="M287.028 45.5518C286.794 45.5518 286.549 45.4945 286.32 45.3851L278.7 41.7185C277.887 41.3278 277.549 40.3435 277.94 39.5414C278.33 38.7237 279.309 38.3851 280.122 38.7758L287.736 42.4372C288.554 42.8278 288.893 43.807 288.502 44.6247C288.221 45.2028 287.637 45.5518 287.028 45.5518Z" fill="black"/>
<path d="M244.492 65.7602C243.882 65.7602 243.273 65.8643 242.684 66.0675C241.315 66.5466 240.21 67.5362 239.58 68.8435C238.283 71.5414 239.424 74.8018 242.122 76.0987C243.434 76.7289 244.914 76.8175 246.283 76.3331C247.653 75.8539 248.757 74.8643 249.387 73.5623C250.018 72.2498 250.096 70.7706 249.617 69.4008C249.137 68.031 248.153 66.932 246.846 66.3018C246.096 65.9373 245.294 65.7602 244.492 65.7602ZM244.476 79.9112C243.19 79.9112 241.903 79.6248 240.705 79.0466C236.382 76.9633 234.554 71.755 236.637 67.4216C237.643 65.3227 239.408 63.755 241.606 62.9789C243.799 62.2133 246.164 62.3435 248.262 63.3539C250.356 64.3643 251.934 66.13 252.705 68.3227C253.476 70.5206 253.341 72.88 252.335 74.9789C251.325 77.0727 249.559 78.6508 247.361 79.4164C246.424 79.7498 245.45 79.9112 244.476 79.9112Z" fill="black"/>
<path d="M855.309 151.187C854.799 151.187 854.309 150.958 853.986 150.526C813.101 94.9945 757.679 52.5987 693.705 27.9112C692.872 27.5882 692.445 26.6351 692.773 25.7966C693.101 24.9528 694.049 24.5362 694.887 24.8643C759.434 49.7705 815.361 92.5518 856.617 148.588C857.158 149.312 857.002 150.333 856.273 150.869C855.981 151.083 855.637 151.187 855.309 151.187Z" fill="black"/>
<path d="M825.148 139.567C824.685 139.567 824.226 139.375 823.909 139C792.794 102.906 755.56 73.7705 713.226 52.3903C712.419 51.9841 712.101 50.9997 712.502 50.1872C712.914 49.3903 713.903 49.0622 714.7 49.4685C757.419 71.0466 794.997 100.453 826.377 136.859C826.971 137.547 826.898 138.578 826.216 139.166C825.903 139.437 825.518 139.567 825.148 139.567Z" fill="black"/>
<path d="M668.476 15.2653C667.866 15.2653 667.262 15.3591 666.668 15.5674C665.304 16.0466 664.195 17.0362 663.564 18.3487C662.934 19.656 662.861 21.1299 663.33 22.4997C663.82 23.8695 664.799 24.9737 666.111 25.6091C667.418 26.2341 668.898 26.3174 670.267 25.833C671.637 25.3539 672.741 24.3695 673.372 23.0622C674.674 20.3591 673.533 17.1039 670.83 15.8018C670.085 15.4424 669.278 15.2653 668.476 15.2653ZM668.46 29.4164C667.174 29.4164 665.887 29.1247 664.689 28.5466C662.596 27.5414 661.017 25.7757 660.247 23.5778C659.481 21.3851 659.616 19.0205 660.616 16.9268C661.627 14.8278 663.398 13.2549 665.59 12.4841C667.783 11.7132 670.148 11.8487 672.247 12.8539C676.575 14.9372 678.398 20.156 676.32 24.4789C675.309 26.5726 673.543 28.156 671.346 28.9216C670.408 29.2549 669.434 29.4164 668.46 29.4164Z" fill="black"/>
<path d="M878.58 522.828C878.335 522.828 878.095 522.771 877.866 522.666C877.054 522.276 876.71 521.297 877.106 520.484L880.767 512.864C881.158 512.052 882.137 511.713 882.955 512.099C883.767 512.489 884.106 513.468 883.72 514.281L880.054 521.901C879.773 522.489 879.184 522.828 878.58 522.828Z" fill="black"/>
<path d="M870.038 540.573C869.799 540.573 869.559 540.521 869.33 540.411C868.512 540.021 868.174 539.041 868.564 538.229L872.226 530.609C872.622 529.797 873.596 529.458 874.408 529.849C875.226 530.234 875.57 531.219 875.174 532.031L871.512 539.646C871.231 540.234 870.648 540.573 870.038 540.573Z" fill="black"/>
<path d="M871.08 525.453C870.835 525.453 870.596 525.401 870.367 525.291L862.747 521.625C861.934 521.234 861.596 520.255 861.981 519.442C862.372 518.63 863.351 518.286 864.169 518.677L871.783 522.344C872.601 522.739 872.945 523.713 872.549 524.526C872.268 525.114 871.69 525.453 871.08 525.453Z" fill="black"/>
<path d="M888.83 533.995C888.591 533.995 888.351 533.942 888.117 533.833L880.497 530.166C879.69 529.771 879.346 528.797 879.731 527.984C880.127 527.172 881.106 526.833 881.914 527.219L889.533 530.885C890.351 531.276 890.695 532.255 890.299 533.067C890.018 533.656 889.434 533.995 888.83 533.995Z" fill="black"/>
<path d="M19.9396 587.604C19.1792 587.604 18.5021 587.073 18.3406 586.297C5.67918 525.541 11.4188 469.568 37.5333 399.12C37.8511 398.276 38.7938 397.849 39.6375 398.161C40.4865 398.479 40.9136 399.411 40.6011 400.26C14.7104 470.083 9.01251 525.521 21.5438 585.635C21.7261 586.515 21.1583 587.38 20.2729 587.573C20.1636 587.588 20.049 587.604 19.9396 587.604Z" fill="black"/>
<path d="M26.6896 525.948C25.799 525.948 25.0698 525.229 25.0594 524.338C24.5178 488.489 30.9448 460.75 36.1063 438.458C36.575 436.432 37.0334 434.458 37.4761 432.515C37.674 431.635 38.5542 431.088 39.4292 431.286C40.3146 431.484 40.8615 432.364 40.6636 433.244C40.2209 435.187 39.7625 437.166 39.2886 439.192C34.1688 461.312 27.7938 488.838 28.325 524.291C28.3407 525.192 27.6167 525.932 26.7157 525.948C26.7105 525.948 26.7 525.948 26.6896 525.948Z" fill="black"/>
<path d="M138.616 668.734C138.616 668.734 160.017 675.833 168.82 674.937C181.21 673.682 194.908 635.489 195.861 632.864C196.82 630.234 200.106 616.187 203.32 611.453C206.335 607.005 208.502 602.297 209.715 599.385C210.445 597.625 211.82 596.953 213.012 597.338C214.059 597.682 215.882 599.344 214.83 601.974C213.616 605.01 212.476 608.073 211.46 610.677C211.142 611.5 210.668 612.245 211.361 611.739C212.965 610.568 214.991 609.489 216.314 610.239C218.799 611.651 220.137 621.146 216.122 627.812C212.106 634.479 207.7 632.916 206.361 636.151C205.023 639.38 193.918 681.359 189.361 688.62C182.804 699.062 136.971 700.182 130.085 699.984C123.205 699.781 138.616 668.734 138.616 668.734Z" fill="white"/>
<path d="M139.455 670.724C133.043 683.895 128.731 696.645 130.153 698.395C140.361 698.656 182.371 696.677 187.976 687.75C191.101 682.776 197.663 660.01 201.585 646.406C203.455 639.922 204.45 636.494 204.851 635.52C205.663 633.552 207.252 632.838 208.778 632.145C210.606 631.317 212.674 630.375 214.72 626.968C217.226 622.807 217.439 617.297 216.58 613.942C216.168 612.349 215.653 611.744 215.507 611.661C215.319 611.552 214.34 611.588 212.325 613.062C211.158 613.906 210.309 613.416 209.996 613.166C208.955 612.328 209.481 611.135 209.731 610.567C209.799 610.422 209.871 610.255 209.939 610.088C210.314 609.119 210.705 608.093 211.116 607.026C211.809 605.208 212.549 603.281 213.314 601.364C213.564 600.744 213.58 600.218 213.361 599.755C213.127 599.244 212.668 598.953 212.496 598.89C212.085 598.76 211.554 599.218 211.22 600.01C209.897 603.198 207.684 607.927 204.668 612.375C202.429 615.677 200.017 624.276 198.58 629.416C198.049 631.317 197.663 632.698 197.397 633.427L197.351 633.547C192.804 646.078 180.939 675.354 168.986 676.562C161.147 677.364 144.382 672.286 139.455 670.724ZM130.34 701.619C130.163 701.619 130.059 701.619 130.038 701.619C128.877 701.583 127.918 701.031 127.34 700.062C124.241 694.901 134.064 674.224 137.147 668.005L137.783 666.734L139.132 667.182C139.34 667.255 160.299 674.166 168.653 673.312C176.924 672.474 187.627 650.765 194.278 632.432L194.325 632.307C194.549 631.692 194.96 630.234 195.434 628.531C197.022 622.854 199.424 614.281 201.965 610.536C204.825 606.323 206.934 601.807 208.205 598.755C209.22 596.312 211.408 595.099 213.522 595.786C214.439 596.093 215.658 596.932 216.33 598.38C216.746 599.276 217.09 600.734 216.351 602.578C215.59 604.479 214.856 606.39 214.168 608.192C214.127 608.307 214.08 608.422 214.038 608.531C215.22 608.224 216.246 608.323 217.121 608.817C218.575 609.645 219.34 611.588 219.731 613.067C220.814 617.203 220.549 623.63 217.522 628.656C214.95 632.932 212.163 634.198 210.132 635.119C208.788 635.729 208.179 636.031 207.871 636.77C207.522 637.625 206.226 642.109 204.726 647.312C199.356 665.942 193.851 684.541 190.746 689.489C183.377 701.213 134.663 701.619 130.34 701.619Z" fill="black"/>
<path d="M114.153 871.542C114.153 871.542 98.9604 876.828 90.0958 874.484C90.0958 874.484 79.0646 884.068 79.2104 889.146L117.799 888.396L114.153 871.542Z" fill="white"/>
<path d="M90.544 876.265C86.9711 879.479 82.5336 884.323 81.2211 887.469L115.778 886.802L112.935 873.651C108.747 874.937 98.0388 877.817 90.544 876.265ZM77.6221 890.812L77.5752 889.187C77.4138 883.625 87.0805 874.932 89.0232 873.245L89.6742 872.677L90.5127 872.901C98.7992 875.099 113.466 870.047 113.612 870L115.362 869.39L119.815 889.995L77.6221 890.812Z" fill="black"/>
<path d="M97.6115 872.739C97.6115 872.739 88.0907 861.359 83.8772 861.161C80.3199 860.995 52.0334 887.067 43.0282 895.755C41.4345 897.297 42.1115 900.036 44.247 900.578C49.5438 901.927 61.6636 901.896 88.872 892.495C90.2938 892.005 91.3251 890.75 91.5334 889.25L92.7053 880.906L86.9918 880.187L97.6115 872.739Z" fill="white"/>
<path d="M83.8825 862.802C80.2159 863.724 56.1534 885.354 44.1638 896.932C43.6794 897.406 43.7836 897.995 43.8305 898.161C43.8825 898.364 44.07 898.849 44.6534 899C49.0388 900.114 60.5492 900.557 88.3357 890.953C89.1898 890.656 89.794 889.916 89.919 889.021L90.8565 882.323L86.7888 881.807C86.1221 881.724 85.57 881.234 85.4086 880.583C85.2471 879.927 85.5023 879.234 86.0544 878.849L95.195 872.432C91.044 867.708 85.919 863.021 83.8825 862.802ZM50.2523 902.838C47.5075 902.838 45.4242 902.567 43.8461 902.166C42.2784 901.765 41.0909 900.578 40.669 899C40.2471 897.411 40.7159 895.719 41.893 894.583C42.2575 894.234 78.4398 859.531 83.893 859.531C83.9138 859.531 83.9346 859.531 83.9502 859.531C88.643 859.745 97.2002 869.692 98.8617 871.687C99.1586 872.036 99.2888 872.495 99.2315 872.953C99.169 873.401 98.9242 873.812 98.5492 874.073L91.3982 879.094L92.9086 879.281C93.3461 879.333 93.7419 879.562 94.0075 879.911C94.2732 880.255 94.3877 880.698 94.3252 881.135L93.1586 889.474C92.8565 891.594 91.4242 893.349 89.4034 894.041C69.643 900.87 57.5857 902.838 50.2523 902.838Z" fill="black"/>
<path d="M69.731 899.911C69.033 899.911 68.3924 899.463 68.1685 898.771L65.7466 891.078C65.4758 890.213 65.9549 889.297 66.8143 889.026C67.6789 888.755 68.5955 889.234 68.8664 890.094L71.2935 897.786C71.5591 898.651 71.0851 899.568 70.2205 899.833C70.0591 899.89 69.8924 899.911 69.731 899.911Z" fill="black"/>
<path d="M74.4917 897.849C73.7938 897.849 73.1532 897.401 72.9292 896.708L70.5073 889.01C70.2365 888.151 70.7157 887.234 71.575 886.963C72.4344 886.698 73.3563 887.172 73.6271 888.031L76.049 895.724C76.325 896.583 75.8459 897.5 74.9813 897.771C74.8198 897.828 74.6532 897.849 74.4917 897.849Z" fill="black"/>
<path d="M48.9288 898.01C48.4653 898.01 48.0069 897.817 47.684 897.437C47.0955 896.75 47.1788 895.724 47.8611 895.135L84.0122 864.234C84.6997 863.646 85.7309 863.724 86.3195 864.411C86.908 865.099 86.8247 866.13 86.1372 866.718L49.9861 897.62C49.6788 897.88 49.3038 898.01 48.9288 898.01Z" fill="black"/>
<path d="M240.153 895.015C240.184 891.401 240.246 885.677 240.351 878.328L251.121 879.859L260.038 871.677C260.038 871.677 285.616 881.031 298.002 892.859C300.314 895.062 299.147 898.979 296.007 899.458C286.559 900.901 264.679 902.26 244.46 899.948C241.986 899.666 240.127 897.536 240.153 895.015Z" fill="white"/>
<path d="M241.961 880.208C241.872 886.661 241.815 891.729 241.789 895.031C241.768 896.724 243.002 898.135 244.648 898.328C264.632 900.609 286.606 899.239 295.763 897.838C296.58 897.719 297.221 897.161 297.476 896.364C297.742 895.521 297.518 894.651 296.877 894.042C286.185 883.833 265.07 875.354 260.403 873.562L252.231 881.062C251.867 881.396 251.377 881.547 250.893 881.479L241.961 880.208ZM268.007 902.838C260.419 902.838 252.242 902.484 244.278 901.573C240.961 901.198 238.487 898.37 238.518 895C238.549 891.38 238.612 885.656 238.716 878.307C238.726 877.833 238.935 877.391 239.289 877.083C239.648 876.781 240.122 876.646 240.58 876.708L250.586 878.135L258.935 870.474C259.382 870.057 260.028 869.927 260.601 870.135C261.658 870.526 286.643 879.75 299.132 891.677C300.674 893.146 301.231 895.318 300.596 897.349C299.966 899.333 298.304 900.76 296.252 901.073C290.341 901.974 279.893 902.838 268.007 902.838Z" fill="black"/>
<path d="M270.461 897.443C258.95 897.443 250.231 896.672 250.091 896.656C249.19 896.578 248.528 895.781 248.612 894.885C248.69 893.984 249.481 893.323 250.388 893.401C250.612 893.422 273.252 895.427 293.622 892.906C294.518 892.792 295.33 893.432 295.445 894.328C295.554 895.219 294.919 896.036 294.023 896.151C286.023 897.14 277.69 897.443 270.461 897.443Z" fill="black"/>
<path d="M275.528 890.766C275.413 890.766 275.304 890.75 275.189 890.724C274.304 890.542 273.736 889.677 273.923 888.797L275.96 879.062C276.147 878.182 277.012 877.609 277.897 877.802C278.778 877.984 279.345 878.849 279.163 879.739L277.121 889.463C276.96 890.234 276.283 890.766 275.528 890.766Z" fill="black"/>
<path d="M270.763 888.703C270.653 888.703 270.539 888.693 270.429 888.667C269.544 888.479 268.976 887.609 269.164 886.729L271.2 877.005C271.388 876.12 272.252 875.547 273.138 875.739C274.018 875.927 274.586 876.786 274.398 877.677L272.362 887.401C272.2 888.167 271.523 888.703 270.763 888.703Z" fill="black"/>
<path d="M163.559 778.578C164.08 778.14 212.575 743.088 225.814 746.849C248.439 753.286 244.033 821.333 243.564 839.333C243.106 856.859 160.84 804.255 158.309 799.64C155.804 795.083 154.262 786.463 163.559 778.578Z" fill="black"/>
<path d="M242.814 834.802C242.892 834.87 242.965 834.932 243.038 835C257.226 847.812 263.064 860.557 262.049 876.958C261.059 892.995 238.512 904.448 165.528 896.094C150.184 893.88 119.408 892.104 106.096 891.682C103.335 891.599 101.158 889.286 101.2 886.5L101.387 873.797C101.413 872.01 102.356 870.375 103.882 869.463C111.934 864.661 132.715 852.406 166.95 853.729C168.085 853.771 167.898 852.573 166.788 852.323C148.002 848.151 118.991 846.203 110.877 839.318C95.1737 825.989 98.0852 802.349 101.486 787.922C111.413 745.812 173.377 789.776 173.809 789.875C173.934 789.953 182.2 794.802 193.106 801.469L242.814 834.802Z" fill="black"/>
<path d="M208.845 863.292C208.554 863.292 208.262 863.213 207.996 863.052C207.83 862.953 194.267 854.979 161.986 854.213C161.085 854.193 160.366 853.443 160.392 852.542C160.408 851.651 161.137 850.948 162.022 850.948C162.038 850.948 162.049 850.948 162.064 850.948C195.403 851.734 209.132 859.911 209.7 860.265C210.47 860.734 210.71 861.739 210.241 862.51C209.929 863.01 209.392 863.292 208.845 863.292Z" fill="white"/>
<path d="M238.757 833.099C238.403 833.099 238.054 832.995 237.757 832.76C237.367 832.458 198.242 802.37 171.091 795.588C170.21 795.364 169.679 794.479 169.898 793.604C170.117 792.729 171.002 792.192 171.882 792.416C199.695 799.359 239.361 829.87 239.757 830.177C240.471 830.724 240.601 831.755 240.049 832.474C239.726 832.885 239.247 833.099 238.757 833.099Z" fill="#D1D1D1"/>
<path d="M176.184 621.026C176.184 621.026 184.434 618.614 178.596 604.547C172.721 590.38 157.038 596.453 150.903 596.318C144.768 596.182 131.851 587.417 127.325 585.427C122.799 583.443 107.762 573.943 89.4603 593.531C89.4603 593.531 86.7259 598.5 70.3561 599.359C56.1113 600.114 32.3822 611.578 43.2884 629.208C46.4343 634.292 51.2988 637.88 56.8249 639.437C57.8249 639.719 58.9134 639.974 60.0905 640.187C63.4863 640.807 66.3822 643.193 67.6999 646.583C71.9759 657.635 85.153 678.318 119.179 651.213C121.747 649.172 125.049 648.515 128.127 649.396C131.913 650.469 136.643 655.974 153.476 651.146C164.288 648.042 166.075 635.515 168.205 629.64C170.705 622.745 176.184 621.026 176.184 621.026Z" fill="black"/>
<path d="M173.799 621.807C173.799 621.807 174.668 624.38 175.069 625.505C175.45 626.578 176.236 630.146 179.523 633.693C179.83 634.031 179.835 634.557 179.538 634.911L177.257 637.635C177.095 637.823 177.028 638.068 177.059 638.312C177.257 639.818 177.981 645.354 177.944 646.411C177.903 647.635 177.101 648.828 176.663 649.151C175.512 650.01 170.017 650.078 170.017 650.078C170.017 650.078 168.59 650.422 166.84 658.557C165.606 664.276 174.148 670.224 174.148 670.224C174.148 670.224 154.955 677.969 138.804 671.239C137.804 670.818 137.746 669.385 138.616 668.734C142.043 666.156 149.424 659.875 152.382 651.698C152.559 651.208 152.918 650.818 153.403 650.609C155.356 649.776 160.694 648.26 159.741 639.26C159.72 639.031 159.632 638.812 159.496 638.62C158.366 637.052 153.194 629.307 162.075 630.39C167.939 631.109 169.726 626.818 170.231 624.849C170.398 624.208 170.814 623.656 171.387 623.302L173.799 621.807Z" fill="white"/>
<path d="M139.809 669.88C151.601 674.609 165.163 671.385 170.83 669.635C168.132 667.198 164.257 662.786 165.236 658.213C167.002 650.021 168.596 648.739 169.637 648.489C169.757 648.463 169.877 648.448 169.997 648.443C172.492 648.411 175.169 648.12 175.731 647.812C175.825 647.708 176.288 647.005 176.309 646.359C176.325 645.765 175.971 642.552 175.439 638.531C175.346 637.833 175.554 637.125 176.002 636.588L177.893 634.328C175.111 631.13 174.117 627.932 173.679 626.526C173.622 626.333 173.57 626.177 173.528 626.052C173.367 625.604 173.137 624.932 172.913 624.281L172.247 624.687C172.033 624.828 171.872 625.026 171.814 625.255C171.346 627.068 169.247 632.911 161.877 632.015C159.689 631.745 158.851 632.12 158.695 632.38C158.33 632.995 159.044 635.187 160.825 637.667C161.127 638.083 161.314 638.573 161.367 639.083C162.393 648.745 156.606 651.078 154.424 651.953L154.044 652.114C153.965 652.146 153.934 652.213 153.919 652.255C150.939 660.495 143.893 666.776 139.809 669.88ZM153.762 675.64C148.736 675.64 143.33 674.896 138.174 672.745C137.195 672.338 136.533 671.453 136.393 670.375C136.252 669.239 136.726 668.109 137.632 667.432C140.658 665.156 147.997 659.01 150.846 651.14C151.179 650.224 151.877 649.484 152.762 649.104L153.2 648.922C155.314 648.073 158.851 646.646 158.127 639.51C156.58 637.349 154.294 633.401 155.877 630.713C156.877 629.031 159.033 628.375 162.273 628.765C166.486 629.292 168.064 626.698 168.648 624.437C168.919 623.39 169.585 622.489 170.528 621.911L172.939 620.417C173.361 620.156 173.882 620.099 174.351 620.271C174.82 620.437 175.189 620.812 175.346 621.286C175.346 621.286 176.21 623.838 176.606 624.953C176.663 625.114 176.726 625.307 176.799 625.557C177.226 626.922 178.111 629.771 180.721 632.583C181.59 633.515 181.622 634.969 180.794 635.963L178.726 638.432C179.075 641.114 179.611 645.406 179.575 646.469C179.518 648.271 178.408 649.89 177.637 650.463C176.398 651.385 173.012 651.64 170.715 651.703C170.335 652.307 169.465 654.104 168.434 658.896C167.617 662.703 172.955 667.401 175.085 668.885C175.575 669.229 175.84 669.812 175.773 670.411C175.705 671.005 175.314 671.521 174.757 671.739C174.2 671.969 164.913 675.64 153.762 675.64Z" fill="black"/>
<path d="M161.57 641.01C159.945 641.01 158.466 640.114 157.435 638.474C156.95 637.713 157.179 636.703 157.945 636.219C158.706 635.734 159.716 635.969 160.2 636.729C160.591 637.354 161.013 637.693 161.456 637.734C161.924 637.781 162.372 637.526 162.544 637.39C162.898 636.76 163.643 636.416 164.383 636.614C165.252 636.838 165.778 637.729 165.549 638.604C165.237 639.807 163.638 640.745 162.268 640.958C162.034 640.995 161.799 641.01 161.57 641.01Z" fill="black"/>
<path d="M179.194 634.724C178.397 634.724 177.699 634.14 177.58 633.323C177.449 632.432 178.069 631.604 178.96 631.474C180.002 631.328 180.382 630.859 180.58 630.515C181.345 629.192 180.944 626.786 180.486 625.13L162.819 630.463C161.955 630.724 161.043 630.234 160.783 629.37C160.522 628.51 161.012 627.593 161.877 627.333L181.069 621.536C181.882 621.286 182.746 621.708 183.064 622.5C183.309 623.12 185.423 628.666 183.408 632.151C182.595 633.567 181.22 634.448 179.434 634.713C179.356 634.718 179.272 634.724 179.194 634.724Z" fill="black"/>
<path d="M164.58 642.333C164.403 641.531 163.622 641.026 162.83 641.203C162.039 641.38 161.539 642.172 161.711 642.974C161.888 643.776 162.674 644.281 163.466 644.104C164.257 643.927 164.757 643.135 164.58 642.333Z" fill="#4880FF"/>
<path d="M320.824 556.786L204.366 572.89C199.116 573.62 195.08 578.75 195.34 584.354L197.845 638.193C198.106 643.708 202.522 647.651 207.725 647.021L323.121 632.859C328.59 632.182 332.903 627.042 332.741 621.359L331.132 565.859C330.965 560.094 326.345 556.021 320.824 556.786Z" fill="#D1D1D1"/>
<path d="M214.106 647.87C213.288 647.87 212.585 647.26 212.481 646.432C212.372 645.536 213.012 644.724 213.908 644.609L277.101 636.854C277.991 636.755 278.809 637.38 278.918 638.281C279.033 639.172 278.392 639.989 277.497 640.099L214.304 647.854C214.236 647.864 214.168 647.87 214.106 647.87Z" fill="#202124"/>
<path d="M206.111 648.781C203.7 648.781 201.408 647.948 199.554 646.385C197.221 644.416 195.856 641.557 195.705 638.333L194.658 615.854C194.616 614.953 195.314 614.187 196.215 614.146C197.142 614.099 197.882 614.802 197.924 615.703L198.971 638.177C199.08 640.484 200.033 642.515 201.658 643.885C203.148 645.14 205.049 645.698 207.017 645.458L213.908 644.609C214.799 644.505 215.616 645.135 215.726 646.031C215.84 646.932 215.2 647.75 214.304 647.854L207.413 648.703C206.976 648.755 206.543 648.781 206.111 648.781Z" fill="#202124"/>
<path d="M331.475 598.021C330.59 598.021 329.866 597.323 329.845 596.432L328.955 565.984C328.887 563.588 327.929 561.495 326.257 560.083C324.689 558.75 322.642 558.187 320.507 558.479L204.08 574.583C199.658 575.192 196.241 579.573 196.465 584.349C196.507 585.25 195.809 586.015 194.908 586.052C193.996 586.104 193.241 585.396 193.199 584.495C192.897 578.078 197.58 572.182 203.626 571.349L320.059 555.245C323.132 554.823 326.08 555.656 328.366 557.588C330.757 559.609 332.126 562.557 332.225 565.885L333.111 596.338C333.132 597.239 332.423 597.995 331.522 598.021C331.507 598.021 331.491 598.021 331.475 598.021Z" fill="#202124"/>
<path d="M321.2 578.229C321.278 580.713 319.413 582.979 317.038 583.297L233.627 594.385C231.335 594.687 229.398 592.963 229.293 590.536C229.189 588.104 230.965 585.88 233.257 585.567L316.762 574.312C319.137 573.989 321.127 575.745 321.2 578.229Z" fill="white"/>
<path d="M321.981 603.979C322.054 606.442 320.194 608.687 317.83 608.994L234.679 619.609C232.392 619.901 230.46 618.182 230.356 615.765C230.252 613.354 232.023 611.151 234.309 610.854L317.554 600.067C319.924 599.765 321.908 601.515 321.981 603.979Z" fill="white"/>
<path d="M222.059 591.781C222.262 596.484 218.846 600.76 214.439 601.338L213.924 601.411C209.523 601.989 205.794 598.672 205.58 593.984L205.554 593.437C205.346 588.75 208.742 584.458 213.148 583.864L213.663 583.792C218.08 583.193 221.835 586.526 222.033 591.229L222.059 591.781Z" fill="white"/>
<path d="M224.976 687.218C224.976 687.218 246.377 694.323 255.184 693.427C267.57 692.166 281.268 653.979 282.226 651.354C283.179 648.729 286.465 634.672 289.679 629.942C292.695 625.495 294.861 620.786 296.075 617.87C296.804 616.109 298.179 615.437 299.372 615.833C300.419 616.177 302.247 617.828 301.189 620.458C299.976 623.495 298.835 626.567 297.82 629.166C297.502 629.984 297.033 630.729 297.721 630.229C299.325 629.052 312.033 613.182 313.361 613.932C315.846 615.349 312.106 640.963 308.09 647.63C304.075 654.297 294.059 651.401 292.721 654.635C291.387 657.87 280.283 699.843 275.721 707.104C269.163 717.547 223.33 718.672 216.45 718.474C209.57 718.271 224.976 687.218 224.976 687.218Z" fill="white"/>
<path d="M225.82 689.208C219.403 702.385 215.096 715.13 216.513 716.88C226.726 717.14 268.732 715.161 274.341 706.234C277.461 701.265 284.023 678.5 287.945 664.895C289.815 658.406 290.81 654.979 291.211 654.01C292.122 651.807 294.773 651.432 297.575 651.036C300.935 650.567 304.742 650.02 306.69 646.786C310.107 641.109 312.966 622.036 312.502 616.395C310.341 618.432 306.232 623.156 303.815 625.942C300.612 629.63 299.341 631.067 298.685 631.547C297.523 632.401 296.669 631.906 296.362 631.656C295.315 630.812 295.841 629.625 296.096 629.052C296.159 628.906 296.237 628.739 296.299 628.573C296.674 627.614 297.065 626.593 297.471 625.531C298.169 623.708 298.903 621.77 299.674 619.849C299.924 619.229 299.94 618.703 299.726 618.244C299.487 617.734 299.028 617.437 298.862 617.38C298.435 617.244 297.914 617.703 297.586 618.494C296.258 621.682 294.044 626.416 291.034 630.859C288.789 634.166 286.383 642.76 284.945 647.901C284.409 649.807 284.023 651.182 283.758 651.911L283.716 652.036C279.169 664.562 267.299 693.838 255.351 695.057C247.513 695.849 230.747 690.781 225.82 689.208ZM216.7 720.109C216.523 720.109 216.419 720.104 216.398 720.104C215.242 720.067 214.284 719.515 213.7 718.547C210.601 713.385 220.429 692.708 223.513 686.494L224.143 685.218L225.492 685.672C225.7 685.744 246.669 692.645 255.018 691.802C263.284 690.958 273.987 669.255 280.638 650.922L280.685 650.791C280.909 650.182 281.32 648.718 281.794 647.02C283.383 641.343 285.784 632.77 288.325 629.02C291.185 624.807 293.299 620.291 294.565 617.239C295.586 614.797 297.768 613.583 299.888 614.276C300.799 614.578 302.018 615.416 302.69 616.864C303.107 617.76 303.45 619.218 302.711 621.067C302.429 621.776 302.148 622.484 301.872 623.192C311.325 612.333 312.508 611.567 314.169 612.515C314.789 612.869 315.216 613.505 315.466 614.458C316.862 619.802 313.351 642.062 309.492 648.474C306.742 653.047 301.711 653.76 298.034 654.276C296.685 654.463 294.429 654.781 294.232 655.26C293.883 656.109 292.586 660.604 291.086 665.802C285.716 684.427 280.216 703.026 277.107 707.974C269.742 719.703 221.023 720.109 216.7 720.109Z" fill="black"/>
<path d="M108.606 769.182C112.908 760.865 113.023 736.13 112.914 727.557C110.955 676.713 129.674 667.359 135.976 665.651C145.013 663.911 155.497 663.562 167.82 665.146C189.2 667.896 233.263 686.083 233.263 686.083C233.263 686.083 216.94 722.146 216.57 722.219C200.086 725.75 199.231 726.396 198.195 730.083C196.731 735.297 196.69 738.651 193.018 742.161C186.69 748.208 182.252 747.005 180.08 750.901C171.836 765.724 169.945 773.755 167.283 785.13C162.596 805.146 127.07 797.724 109.148 790.75C107.19 789.99 102.393 788.615 101.799 787.115C101.216 785.63 101.461 784.224 103.752 778.62C105.07 775.391 106.794 772.682 108.606 769.182Z" fill="#4880FF"/>
</svg>
